<svg width="104" height="48" fill="none" xmlns="http://www.w3.org/2000/svg"><path d="M50.986 12.007H27v23.986h23.986V12.007z" fill="#D00"/><path d="M39.486 14.558h2.327V33.43h-2.327V14.558zm-5.349 0h-4.59v18.866h4.586a1.015 1.015 0 001.013-1.018v-8.185a1.072 1.072 0 00-1.071-1.069h.1a.968.968 0 00.97-.964v-6.612a1.015 1.015 0 00-1.008-1.018zm-1.31 16.532h-.955v-6.516h.955v6.516zm0-8.826h-.955v-5.376h.955v5.376zm13.263-7.707v3.285h-2.264a1.015 1.015 0 00-1.005 1.018l-.003 13.546a1.016 1.016 0 001.015 1.018l4.587.007V14.557h-2.33zm0 16.533h-.955V20.148h.955V31.09zm-9.937-16.532h2.326v2.33h-2.326v-2.33zm0 3.285h2.326v15.588h-2.326V17.843z" fill="#fff"/><path d="M58.126 14.552l-.881 15.584h-.486l-.881-15.584h-2.34l1.368 18.896h4.192l1.337-18.896h-2.309zm5.833 18.896v-8.87h2.278c.142 0 .273-.021.395-.062.121-.06.223-.131.304-.212a.852.852 0 00.212-.334.87.87 0 00.092-.395v-7.99a.87.87 0 00-.092-.395.638.638 0 00-.212-.334.641.641 0 00-.304-.213.871.871 0 00-.395-.09H61.62v18.895h2.339zm0-16.557h.972v5.377h-.972v-5.377zm6.774 16.557V16.89h.972v16.557h2.309V15.585a.87.87 0 00-.091-.395.639.639 0 00-.213-.334.641.641 0 00-.304-.213.871.871 0 00-.395-.09h-4.617v18.895h2.339z" fill="#212529"/></svg>