<svg width="104" height="48" fill="none" xmlns="http://www.w3.org/2000/svg"><path d="M29.892 12.056H6v23.892h23.892V12.056z" fill="#D00"/><path d="M18.437 14.597h2.317v18.799h-2.317V14.597zm-5.328 0H8.536V33.39h4.569a1.012 1.012 0 001.009-1.014v-8.154a1.068 1.068 0 00-1.067-1.064h.1a.963.963 0 00.967-.96v-6.586a1.012 1.012 0 00-1.005-1.015zm-1.305 16.468h-.951v-6.49h.95v6.49zm0-8.792h-.951v-5.355h.95v5.355zm13.211-7.676v3.272h-2.256a1.011 1.011 0 00-1.001 1.014l-.003 13.493a1.012 1.012 0 001.012 1.014l4.568.006v-18.8h-2.32zm0 16.467h-.952V20.165h.952v10.9zm-9.898-16.467h2.317v2.321h-2.318v-2.32zm0 3.273h2.317v15.526h-2.318V17.87z" fill="#fff"/><path d="M38.062 22.269v-6.692a.872.872 0 00-.092-.396.64.64 0 00-.213-.335.643.643 0 00-.304-.213.873.873 0 00-.395-.09h-3.59a.872.872 0 00-.395.09.854.854 0 00-.335.213 1.16 1.16 0 00-.213.305.872.872 0 00-.09.395V32.46c0 .142.03.274.09.395.061.122.132.233.213.335.102.081.213.152.335.213.121.04.253.06.395.06h4.593v-9.764h-2.798v2.343h.456v5.08h-.943V16.884h.974v5.384h2.312zm4.471-4.441V31.15h-.973V17.828h-2.343v14.63c0 .123.02.244.061.366.061.122.132.233.213.334.081.082.183.152.304.213a.81.81 0 00.365.092h3.742c.142 0 .264-.03.365-.092a1.16 1.16 0 00.304-.213c.081-.1.142-.212.183-.334a.809.809 0 00.09-.365V17.827h-2.31zm7.696 2.342l.03-2.343h-1.003l.03-3.285h-2.342l.03 3.286H45.97L46 20.17h.944l.03 2.22h-.03l.03 10.069a.75.75 0 00.03.365c.062.122.132.233.214.334.08.082.182.152.304.213a.754.754 0 00.334.092h2.403l-.03-2.312h-.943l-.03-10.981h.973zm5.81 3.224h-2.281V20.17h.973v2.068h2.312v-3.376a.871.871 0 00-.091-.396.642.642 0 00-.213-.304.897.897 0 00-.7-.334h-3.59a.872.872 0 00-.395.09 1.33 1.33 0 00-.335.244 1.158 1.158 0 00-.212.304.871.871 0 00-.092.396v5.87c0 .142.03.274.092.396.06.122.131.233.212.334.102.082.213.153.335.213.122.041.254.061.396.061h2.281v.974h-.03v4.41h-.943v-4.41h-2.343v5.718c0 .142.03.284.092.426.06.122.131.233.212.335.102.081.213.152.335.213.122.04.254.06.396.06h3.589c.142 0 .274-.02.395-.06.122-.061.224-.132.305-.213a.854.854 0 00.213-.335c.06-.142.09-.284.09-.426v-8a.87.87 0 00-.09-.395.642.642 0 00-.213-.304.898.898 0 00-.7-.335zm7.787 1.186v-5.718a.872.872 0 00-.091-.396.855.855 0 00-.213-.334.643.643 0 00-.304-.213.872.872 0 00-.396-.091h-3.59a.872.872 0 00-.395.09.854.854 0 00-.334.214 1.885 1.885 0 00-.213.334.872.872 0 00-.091.396v13.597c0 .142.03.274.09.395.062.122.133.233.214.335.101.081.213.152.334.213.122.04.254.06.396.06h3.59c.141 0 .273-.02.395-.06.121-.061.223-.132.304-.213a.855.855 0 00.213-.335.872.872 0 00.091-.395v-4.593h-2.312v3.254h-.973V20.17h.973v4.41h2.312zm3.498 8.883V20.139h.974v13.324h2.311V18.862a.871.871 0 00-.09-.396.854.854 0 00-.214-.334.642.642 0 00-.304-.213.872.872 0 00-.395-.091h-2.282v-3.286h-2.342v18.92h2.342zm9.065-15.635h-3.59a.872.872 0 00-.395.09.854.854 0 00-.334.214 1.88 1.88 0 00-.213.334.871.871 0 00-.092.396v13.597c0 .142.03.274.092.395.06.122.132.233.213.335.101.081.213.152.334.213.122.04.254.06.396.06h3.589c.142 0 .274-.02.395-.06.122-.061.224-.132.305-.213a.855.855 0 00.213-.335.873.873 0 00.09-.395v-4.593h-2.311v3.254h-.973v-4.228h3.285v-8.03a.873.873 0 00-.091-.396.855.855 0 00-.213-.334.642.642 0 00-.305-.213.872.872 0 00-.395-.091zm-1.308 6.752h-.973v-4.41h.973v4.41zm3.468-6.752h2.342v15.635h-2.342V17.827zm0-3.286h2.342v2.342h-2.342v-2.342zm5.841 18.921V20.17h.972v13.293h2.312V18.862a.873.873 0 00-.09-.396.643.643 0 00-.214-.304.897.897 0 00-.7-.334h-4.623v15.635h2.342zm9.064-15.635h-3.59a.872.872 0 00-.395.09.853.853 0 00-.334.214 1.88 1.88 0 00-.214.334.872.872 0 00-.09.396v13.597c0 .142.03.274.09.395.061.122.132.233.213.335.102.081.213.152.335.213.122.04.254.06.396.06h3.589c.142 0 .274-.02.395-.06.122-.061.223-.132.304-.213a.855.855 0 00.213-.335.872.872 0 00.092-.395v-4.593h-2.312v3.254h-.974v-4.228h3.286v-8.03a.872.872 0 00-.091-.396.855.855 0 00-.214-.334.642.642 0 00-.304-.213.872.872 0 00-.395-.091zm-1.308 6.752h-.974v-4.41h.974v4.41z" fill="#212529"/></svg>