<svg width="104" height="48" fill="none" xmlns="http://www.w3.org/2000/svg"><path d="M45.298 32.224c2.576 0 4.727-1.976 4.727-4.927v-.1c0-2.25-.85-3.45-3.226-5.776-1.175-1.2-1.526-1.676-1.526-2.301v-.025c0-.75.55-1.225 1.326-1.225.875 0 1.725.275 2.726.85v-3.776c-.8-.35-1.776-.625-3.101-.625-2.676 0-4.702 1.9-4.702 4.926v.075c0 2.35 1 3.576 3.226 5.677 1.176 1.15 1.526 1.775 1.526 2.325v.025c0 .85-.55 1.3-1.426 1.3-1 0-2-.424-3.075-1.05v3.726c.925.526 2.175.9 3.525.9zm5.395 1.376h3.726v-5.277h.1c2.75-.1 5.502-1.8 5.502-6.052v-.2c0-4.15-2.401-5.976-5.877-5.976h-3.451V33.6zm3.726-8.603v-5.576h.075c1.075 0 1.8.775 1.8 2.65v.3c0 1.826-.775 2.576-1.825 2.626h-.05zm6.336-7.477h3.701v-3.202h-3.7v3.201zm.025 14.553h3.651V18.544h-3.65v13.53zm4.717 1.527h7.652v-3.577h-3.901v-3.475h3.4v-3.501h-3.4v-3.401h3.826v-3.551h-7.577V33.6zm8.518-1.777h7.077v-3.576h-3.326V14.318h-3.751v17.505z" fill="#212529"/><path d="M81.948 33.6H85.7V19.67H88v-3.575h-8.352v3.576h2.3v13.928z" fill="#212529"/><path fill="#D00" d="M16 12h24.034v24.034H16z"/><path d="M28.498 14.403h2.403V33.63h-2.403V14.403zm-5.288 0h-4.807V33.63h4.807c.48 0 .962-.48.962-.961v-8.652c0-.48-.362-.801-.962-.801.543 0 .962-.641.962-1.122v-6.73c0-.48-.481-.96-.962-.96zm-1.442 16.824h-.961v-6.49h.961v6.49zm0-8.893h-.961v-5.527h.961v5.527zm13.459-7.931v3.365h-2.403c-.481 0-.962.48-.962.961v13.94c0 .48.48.961.962.961h4.806V14.403h-2.403zm0 16.824h-.961V20.172h.961v11.055zM25.134 14.404h2.403v2.403h-2.403v-2.403zm-.001 3.364h2.403V33.63h-2.403V17.768z" fill="#fff"/></svg>