<svg width="104" height="48" fill="none" xmlns="http://www.w3.org/2000/svg"><path d="M49.956 12.022H26v23.956h23.956V12.022z" fill="#D00"/><path d="M38.47 14.57h2.324v18.849H38.47v-18.85zm-5.342 0h-4.585v18.843h4.58a1.016 1.016 0 001.013-1.017V24.22a1.07 1.07 0 00-1.07-1.067h.1a.966.966 0 00.97-.962v-6.604a1.014 1.014 0 00-1.008-1.017zM31.82 31.08h-.954v-6.508h.954v6.508zm0-8.815h-.954v-5.37h.954v5.37zm13.246-7.695v3.28h-2.261a1.015 1.015 0 00-1.005 1.016l-.002 13.53a1.015 1.015 0 001.014 1.017l4.58.006v-18.85h-2.326zm0 16.511h-.954V20.153h.954V31.08zM35.141 14.57h2.324v2.327H35.14V14.57zm0 3.281h2.324V33.42H35.14V17.85z" fill="#fff"/><path d="M53.476 31.084h-.97v2.337h2.275c.142 0 .273-.02.394-.061.122-.06.223-.132.304-.212a.853.853 0 00.212-.334.87.87 0 00.091-.395V14.55h-2.306v16.535zm8.101-13.258h-3.55a.938.938 0 00-.425.09c-.1.061-.202.142-.303.244a.897.897 0 00-.243.303 2.25 2.25 0 00-.09.394l.03 13.562c-.02.122 0 .243.06.364.061.122.122.233.182.334.081.081.182.152.304.213.141.06.263.09.364.09h3.762c.121 0 .243-.03.364-.09a.754.754 0 00.273-.213c.081-.101.152-.212.213-.334.06-.12.08-.242.06-.364l.03-13.562a2.258 2.258 0 00-.09-.394.642.642 0 00-.213-.303 1.282 1.282 0 00-.334-.243.87.87 0 00-.394-.091zm-1.274 13.289H59.3l.03-10.953h.941l.03 10.953zm3.428-16.565v18.9l4.612-.03a.66.66 0 00.394-.06c.122-.06.223-.132.304-.212a.641.641 0 00.212-.304 1.02 1.02 0 00.091-.394V18.857a.809.809 0 00-.09-.364.638.638 0 00-.213-.333.897.897 0 00-.304-.243c-.121-.06-.253-.081-.394-.06l-2.276-.031v-3.247l-2.336-.03zm2.336 5.612l.971-.03v10.983l-.97-.03V20.161zm9.042 3.216h-2.276v-3.216h.971v2.063h2.306v-3.368a.87.87 0 00-.091-.394.642.642 0 00-.213-.303.896.896 0 00-.697-.334h-3.58a.87.87 0 00-.395.09 1.278 1.278 0 00-.334.244c-.08.08-.151.182-.212.303a.87.87 0 00-.091.394v5.856c0 .142.03.273.091.394.06.122.132.233.212.334.102.081.213.152.334.213.121.04.253.06.395.06h2.275v.971h-.03v4.4h-.94v-4.4h-2.337v5.704c0 .142.03.283.091.425.06.121.132.232.212.334.102.08.213.151.334.212.121.04.253.06.395.06h3.58c.141 0 .273-.02.394-.06.121-.06.223-.132.303-.212a.853.853 0 00.213-.334 1.07 1.07 0 00.09-.425v-7.98a.869.869 0 00-.09-.394.641.641 0 00-.213-.303.895.895 0 00-.697-.334z" fill="#212529"/></svg>