<svg width="104" height="48" fill="none" xmlns="http://www.w3.org/2000/svg"><path d="M34.273 12H11v23.273h23.273V12z" fill="#D00"/><path d="M23.114 14.475h2.258v18.311h-2.258v-18.31zm-5.189 0H13.47V32.78h4.45a.985.985 0 00.983-.987V23.85a1.04 1.04 0 00-1.039-1.036h.098a.939.939 0 00.941-.935v-6.416a.985.985 0 00-.978-.988zm-1.271 16.04h-.927v-6.322h.927v6.322zm0-8.563h-.927v-5.216h.927v5.216zm12.868-7.477v3.187h-2.197a.985.985 0 00-.975.987l-.003 13.144a.985.985 0 00.985.987l4.45.006V14.475h-2.26zm0 16.04h-.927V19.9h.927v10.616zm-9.642-16.04h2.258v2.26H19.88v-2.26zm0 3.188h2.258v15.123H19.88V17.663z" fill="#fff"/><path d="M41.223 14.345l-.86 15.2h-.473l-.86-15.2h-2.28l1.333 18.43h4.09l1.303-18.43h-2.252zm7.912 3.2h-3.497a.85.85 0 00-.385.089.833.833 0 00-.326.207 1.831 1.831 0 00-.207.326.849.849 0 00-.09.385v13.245c0 .138.03.267.09.385.059.119.128.227.207.326.099.08.207.148.326.207.118.04.247.06.385.06h3.497a1.2 1.2 0 00.385-.06 1.13 1.13 0 00.296-.207.831.831 0 00.207-.326.849.849 0 00.09-.385v-4.474H47.86v3.17h-.948v-4.118h3.2v-7.823a.849.849 0 00-.089-.385.831.831 0 00-.207-.326.626.626 0 00-.296-.207.85.85 0 00-.386-.09zm-1.275 6.578h-.948v-4.297h.948v4.297zm5.66 8.652V19.826h.948v4.297h2.252v-5.57a.849.849 0 00-.089-.386.625.625 0 00-.207-.296.875.875 0 00-.682-.326h-4.504v15.23h2.282zm5.333-15.23a.85.85 0 00-.385.089 1.252 1.252 0 00-.326.237 1.128 1.128 0 00-.207.296.85.85 0 00-.09.385v13.245c0 .138.03.267.09.385.059.119.128.227.207.326.099.08.208.148.326.207a.85.85 0 00.385.09h2.193v.918h-3.2v2.281h4.504c.118 0 .237-.02.355-.059a1.13 1.13 0 00.297-.207.625.625 0 00.207-.297c.06-.118.099-.237.118-.355V17.545h-4.474zm2.193 13.007h-.919V19.826h.919v10.726zm3.407-16.207h2.282v18.43h-2.282v-18.43zm7.912 3.2h-3.497a.85.85 0 00-.385.089.833.833 0 00-.326.207 1.831 1.831 0 00-.207.326.849.849 0 00-.09.385v13.245c0 .138.03.267.09.385.06.119.128.227.207.326.099.08.208.148.326.207.119.04.247.06.385.06h3.497a1.2 1.2 0 00.385-.06 1.13 1.13 0 00.296-.207.831.831 0 00.208-.326.849.849 0 00.088-.385v-4.474h-2.251v3.17h-.949v-4.118h3.2v-7.823a.849.849 0 00-.088-.385.831.831 0 00-.208-.326.626.626 0 00-.296-.207.85.85 0 00-.385-.09zm-1.274 6.578h-.949v-4.297h.949v4.297zm3.378-6.578h2.281v15.23h-2.281v-15.23zm0-3.2h2.281v2.281h-2.281v-2.281zm8.889 9.778v-5.57a.849.849 0 00-.09-.386.831.831 0 00-.207-.326.626.626 0 00-.296-.207.85.85 0 00-.385-.09h-3.497a.85.85 0 00-.385.09.832.832 0 00-.326.207 1.825 1.825 0 00-.207.326.849.849 0 00-.089.385v13.245c0 .138.03.267.089.385.06.119.128.227.207.326.099.08.208.148.326.207.119.04.247.06.385.06h3.497c.138 0 .267-.02.385-.06a1.13 1.13 0 00.296-.207.831.831 0 00.208-.326.849.849 0 00.089-.385v-4.474h-2.252v3.17h-.948V19.826h.948v4.297h2.252zm3.407 8.652V19.797h.948v12.978h2.252V18.552a.85.85 0 00-.089-.385.832.832 0 00-.207-.326.627.627 0 00-.296-.207.85.85 0 00-.386-.09h-2.222v-3.2h-2.281v18.43h2.281z" fill="#000"/></svg>