<svg width="104" height="48" fill="none" xmlns="http://www.w3.org/2000/svg"><path d="M47 12H23v24h24V12z" fill="#D00"/><path d="M35.493 14.552h2.328v18.884h-2.328V14.552zm-5.352 0h-4.593V33.43h4.589a1.015 1.015 0 001.013-1.019v-8.19a1.072 1.072 0 00-1.071-1.07h.1a.968.968 0 00.971-.964v-6.616a1.016 1.016 0 00-1.009-1.019zm-1.31 16.542h-.956v-6.52h.955v6.52zm0-8.831h-.956v-5.38h.955v5.38zM42.1 14.552v3.286h-2.265a1.016 1.016 0 00-1.006 1.019l-.003 13.554a1.015 1.015 0 001.017 1.019l4.589.006V14.552H42.1zm0 16.542h-.955V20.145h.956v10.949zm-9.942-16.542h2.328v2.332h-2.328v-2.332zm0 3.288h2.328v15.596h-2.328V17.84z" fill="#fff"/><path d="M54.169 14.557h-4.585l-.03 18.886h4.645c.122 0 .243-.02.364-.061.142-.061.253-.132.334-.213.081-.101.152-.212.213-.334.06-.121.08-.253.06-.394l.031-16.882a2.252 2.252 0 00-.091-.394.642.642 0 00-.213-.304.853.853 0 00-.334-.212.76.76 0 00-.394-.091zm-1.275 16.548h-1.002l.03-14.21h.941l.03 14.21zm8.046-13.268h-3.583a.87.87 0 00-.395.09.852.852 0 00-.334.213 1.869 1.869 0 00-.212.334.87.87 0 00-.092.395V32.44c0 .141.03.273.092.394.06.122.131.233.212.334.101.081.212.152.334.213.121.04.253.06.395.06h3.582c.142 0 .274-.02.395-.06.121-.061.223-.132.304-.213a.852.852 0 00.212-.334.87.87 0 00.091-.394v-4.585h-2.307v3.249h-.972v-4.22h3.28v-8.016a.87.87 0 00-.092-.395.852.852 0 00-.212-.334.642.642 0 00-.304-.212.87.87 0 00-.395-.091zm-1.306 6.74h-.972v-4.403h.972v4.403zm8.076-6.74h-3.583a.87.87 0 00-.394.09.853.853 0 00-.334.213 1.875 1.875 0 00-.213.334.87.87 0 00-.091.395v4.736h2.338v-3.43h.941v4.402h-2.247a.87.87 0 00-.394.091.851.851 0 00-.334.213 1.158 1.158 0 00-.213.303.87.87 0 00-.091.395v6.862c0 .141.03.273.091.394.06.122.132.233.213.334.1.081.212.152.334.213.121.04.253.06.394.06h3.583c.142 0 .273-.02.395-.06.121-.061.222-.132.303-.213a.852.852 0 00.213-.334.87.87 0 00.091-.394V18.869a.87.87 0 00-.091-.395.851.851 0 00-.213-.334.64.64 0 00-.303-.212.87.87 0 00-.395-.091zm-2.277 13.268v-4.19h.941v4.19h-.941zm4.433-16.548h2.338v18.886h-2.338V14.557zm8.106 8.836h-2.277v-3.219h.972v2.065h2.307v-3.37a.87.87 0 00-.09-.395.64.64 0 00-.213-.303.897.897 0 00-.699-.334H74.39a.87.87 0 00-.395.09 1.278 1.278 0 00-.334.244 1.15 1.15 0 00-.213.303.87.87 0 00-.09.395v5.86c0 .141.03.273.09.394.061.122.132.233.213.334.101.081.213.152.334.213.121.04.253.06.395.06h2.277v.972h-.03v4.403h-.942v-4.403h-2.338v5.708c0 .142.03.284.091.425.061.122.132.233.213.334.101.081.213.152.334.213.121.04.253.06.395.06h3.582c.142 0 .274-.02.395-.06.121-.061.223-.132.304-.213a.851.851 0 00.212-.334 1.07 1.07 0 00.091-.425v-7.985a.87.87 0 00-.09-.395.64.64 0 00-.213-.303.897.897 0 00-.699-.334z" fill="#212529"/></svg>