<svg baseProfile="tiny" xmlns="http://www.w3.org/2000/svg" width="40" height="40"><g fill="#FFF"><path fill-rule="evenodd" d="M20 35c8.3 0 15-6.7 15-15 0-8.8-6.5-15-15-15-8.3 0-15 6.8-15 15 0 8.3 6.7 15 15 15z"/><path d="M34.9 20c0 8.2-6.7 14.9-14.9 14.9v.2c8.3 0 15.1-6.7 15.1-15.1h-.2zM20 5.1c8.5 0 14.9 6.2 14.9 14.9h.2c0-8.8-6.5-15.1-15.1-15.1v.2zM5.1 20c0-8.2 6.7-14.9 14.9-14.9v-.2C11.7 4.9 4.9 11.7 4.9 20h.2zM20 34.9c-8.2 0-14.9-6.7-14.9-14.9h-.2c0 8.3 6.8 15.1 15.1 15.1v-.2z"/></g><g fill="#65B32E"><path d="M5.3 20C5.6 10.9 11.9 7.2 16 5.9c1.9-.6 3.5-.6 3.5-.4s-1.4 0-3.4.8c-3.5 1.3-8.4 4.4-8.7 12.4 0 7.4 6 13.3 13.4 13.3s13.4-6 13.4-13.3c0-1.6-.3-2.8-.6-3.9-.6-1.9-1.4-2.8-1.1-2.8.2 0 1 1.5 1.5 2.9.6 1.6.9 3.1.9 5.2 0 8.1-6.6 14.7-14.7 14.7-8.3-.1-14.9-6.7-14.9-14.8z"/><path d="M18.5 15.4c0-2.6 4.3-2.4 4.3-2.4v9.3c0 .7.4 1 1.1 1 1.2 0 1.1-1 1.1-1v-9.6c0-2.3 4.3-2.3 4.3-2.3v13.2c-.4 2.3-2.4 4.1-4.8 4.1-1.6 0-3-.8-3.8-2-.9 1.2-2.3 2-3.8 2-2.4 0-4.4-1.8-4.8-4.1l-.1-.8v-10c0-2.3 4.3-2.3 4.3-2.3v11.9c0 .7.5 1 1.1 1s1.2-.4 1.2-1c-.1-.1-.1-4.8-.1-7z"/></g></svg>