<svg baseProfile="tiny" xmlns="http://www.w3.org/2000/svg" width="40" height="40"><path fill="#FFF" d="M20 34c8.3 0 15-6.2 15-14S28.3 6 20 6 5 12.2 5 20s6.7 14 15 14z"/><path fill="#E4032B" d="M10 25.2l.2.2-.9.8.4.5 1.3-1.1-.6-.7-.4.3z"/><path fill-rule="evenodd" fill="#E4032B" d="M10.3 26.9c.1-.1.3-.1.4 0 .1.1.2.3 0 .5-.1.1-.3.1-.4 0-.1-.2-.1-.4 0-.5zm2.1 2.2l-.5-.3.9-1.4.9.6-.3.4-.4-.3-.1.2.4.2-.2.4-.4-.2-.3.4zm1.2.8c-.2-.1-.4-.3-.5-.5l.4-.3c.1.1.1.3.3.3.1 0 .1.1.2 0 0-.1 0-.1-.1-.2l-.1-.1c-.2-.2-.3-.4-.2-.6.2-.4.6-.4.9-.2.2.1.3.2.4.4l-.3.3c-.1-.1-.1-.2-.2-.3h-.2v.1l.1.1c.2.2.3.4.2.7-.1.5-.5.5-.9.3zm2.7-.7l-.5.7c-.1.1-.1.2-.1.2V29l-.6-.2.1 1.9.5.2 1.1-1.4-.5-.3zm1.7 2.3h.6l.1-.7v-.2.2l.2.7h.4l.3-.8v-.1 1h.6l-.2-1.7h-.6l-.2.7c0 .1 0 .2-.1.2l-.2-.9h-.6l-.3 1.6zm3.3-.6l.1-.5c0 .1 0 .2.1.2l.1.3h-.3zm-.1.4h.5l.1.2h.6l-.7-1.7-.7.1-.5 1.8h.6l.1-.4z"/><path fill="#E4032B" d="M22.9 31.3l.6-.1-.4-1.7-.6.1.4 1.7zm1.1-.2l.5-.2-.2-.5c0-.1-.1-.2-.1-.3l.8.7.5-.2L25 29l-.5.2.2.5c0 .1.1.3.2.4l-.8-.7-.5.2.4 1.5zm1.4-2.4l.2.5.4-.2.1-.1v.3l-.1 1.2 1.4-.8-.2-.5-.4.2-.1.1.1-1.4-1.4.7z"/><path fill-rule="evenodd" fill="#E4032B" d="M28.7 27.1c.1-.1.3 0 .4.1.1.1.2.3.1.4-.1.1-.3 0-.4-.1-.1-.1-.2-.3-.1-.4m-.4-.4c-.4.4-.3.8 0 1.2.3.4.8.5 1.2.1s.3-.8 0-1.2-.8-.5-1.2-.1"/><path fill="#E4032B" d="M29.4 25.6l.7.8c.1-.1.1-.3.2-.4.1-.1.2-.2.3-.2.1.1 0 .3-.1.3-.1.1-.3.2-.4.3l.3.4c.2-.1.4-.3.5-.4.2-.3.4-.8.1-1-.2-.2-.6-.1-.8.1-.1.1-.1.2-.1.3 0-.1-.1-.1-.1-.2l.5-.6-.4-.3-.7.9z"/><path fill="#9D9D9C" d="M23.6 23.3c-.2.2-.3.3-.5.4l.1.4c.2-.1.3-.2.6-.5 2-1.4 3-3.6 2.7-5.1-.1-.4-.3-.7-.5-.9.1.2.2.4.2.6.4 1.5-.6 3.7-2.6 5.1zm-8.8-4c-.1-1.2.3-2.1 1-2.2.2 0 .4.1.6.2-.2-.3-.5-.5-.8-.5-.6.1-1.1 1-1 2.2.1.8.4 1.5.8 1.8-.3-.3-.5-.9-.6-1.5zm3.6-8.6c-.8.2-1.6.5-2.3.8l.3.3c.7-.4 1.5-.7 2.3-.8.3-.1.4-.3.4-.6 0-.2-.1-.4-.3-.5 0 .1.1.1.1.2-.1.3-.3.5-.5.6zm-5.8 14.5c1 1.1 2.2 1.9 3.6 2.5l.9-2.5c-.1 0-.2-.1-.3-.1l-.8 2.4c-1.4-.6-2.5-1.4-3.4-2.3z"/><path fill="#9D9D9C" d="M27.7 12.7c1.5 1.6 2.4 3.8 2.4 6.1 0 3.8-2.4 7-5.9 8.5l.1.3c3.6-1.5 6-4.8 6-8.6.1-2.4-.9-4.6-2.6-6.3zm-2.4-.3L21 16.2v7.3s.2 2.2 1.5 4.5c-.8.2-1.6.3-2.5.3-.6 0-1.3-.1-1.9-.2h-.2c0 .1-.1.1-.1.2.8.2 1.6.3 2.5.3.6 0 1.3-.1 1.9-.2.2 0 .4-.1.6-.1-1.3-2.3-1.5-4.5-1.5-4.5v-7.3l4.3-3.8.6.6c-.3-.4-.6-.6-.9-.9zM12 18c0 2 .8 3.8 2.2 5.1-1.2-1.3-1.9-3-1.9-4.8 0-2.3 1.1-4.3 2.8-5.6l-.3-.3C13.1 13.8 12 15.8 12 18zm9.7-7.3s-.1 0-.1-.1c.1.2.2.3.4.3.7.1 1.3.4 2 .6l.1-.1c-.8-.2-1.6-.5-2.4-.7z"/><path fill="#9D9D9C" d="M23.6 16.8v1.1c.1-.1.1-.1.3-.2v-.6l1.6-1.3v-1.7l-.3.2v1.1l-1.6 1.4zm-5.2 2.4c-.1-1.5-.7-2.8-1.4-3.5.6.7 1.1 1.9 1.2 3.2.2 2.3-.7 4.3-2 4.4-.5 0-1-.2-1.4-.6.5.6 1.1.9 1.6.8 1.3 0 2.2-2 2-4.3zm5-.1c-.4.3-.7.5-1 .8v.6c.4-.5.7-.8 1.2-1.1.3-.2.6-.2.8-.1-.2-.3-.5-.5-1-.2z"/><path fill="#E4032B" d="M23.3 22c-.4.3-.5.3-.7.5l.5 1.3c.1 0 .1-.1.1-.1.1-.1.2-.2.5-.4 2-1.4 3-3.6 2.7-5.1 0-.2-.1-.5-.2-.6-.4-.6-1.2-.6-2 0l-.2.2c-.1.1-.2.2-.3.2v-1.1l1.6-1.3V14l-3.1 2.7v3.7l.3-.3c.3-.3.6-.6 1-.8.5-.4.8-.2 1 .2.1.1.1.3.1.4.1.5-.4 1.4-1.3 2.1z"/><path fill="#E4032B" d="M30.2 18.8c0-2.3-.9-4.4-2.4-6.1-1.4-1.6-3.4-2.7-5.7-3.1H22c-.4 0-.7.3-.7.6 0 .2.1.4.3.5 0 0 .1 0 .1.1.8.2 1.6.5 2.3.8l-.1.1-3.9 3.4-3.7-3.2-.3-.3c.7-.4 1.5-.7 2.3-.8.3-.1.4-.3.4-.6 0-.1 0-.2-.1-.2-.1-.2-.3-.4-.6-.4h-.1c-4.6.9-8.1 4.7-8.1 9.2 0 2.4 1 4.7 2.7 6.4.9.9 2.1 1.7 3.4 2.3l.8-2.4.1-.1c-1-.4-1.9-1-2.7-1.8-1.3-1.3-2.2-3.1-2.2-5.1 0-2.2 1.1-4.3 2.8-5.6l.3.3 4 3.5v7.3s-.2 2.2-1.5 4.5c.1 0 .2.1.4.1h.2c.6.1 1.3.2 1.9.2.8 0 1.7-.1 2.5-.3-1.3-2.3-1.5-4.5-1.5-4.5v-7.3l4.3-3.8c.3.3.6.5.9.8 1.2 1.3 1.9 3 1.9 4.8 0 3.1-2 5.7-4.8 6.8l.9 2.5c.1 0 .1 0 .1-.1 3.4-1.4 5.9-4.7 5.9-8.5z"/><path fill-rule="evenodd" fill="#E4032B" d="M17 15.8c.6.7 1.1 1.9 1.2 3.2.2 2.3-.7 4.3-2 4.4-.5 0-.9-.2-1.4-.6-.7-.7-1.3-2-1.4-3.5-.2-2.3.7-4.3 2-4.4.5 0 1.1.3 1.6.9zm-1.5 1c-.6.1-1.1 1-1 2.2.1.8.4 1.5.8 1.8.2.1.4.2.6.2.6-.1 1.1-1 1-2.2-.1-.6-.3-1.2-.5-1.5-.3-.3-.6-.5-.9-.5z"/></svg>