<svg baseProfile="tiny" xmlns="http://www.w3.org/2000/svg" width="40" height="40"><path fill="#FFF" d="M20 35c8.3 0 15-6.7 15-15S28.3 5 20 5 5 11.7 5 20s6.7 15 15 15z"/><path fill="#004B9C" d="M20 34.5c-8 0-14.4-6.5-14.4-14.4S12 5.6 20 5.6 34.4 12.1 34.4 20 28 34.5 20 34.5"/><path fill-rule="evenodd" fill="#FFF" d="M32 15.6h-6.4v-3.2c0-1 0-4.3-5.6-4.3-2.1 0-4 .5-5.7 1.5v20.8c1.7.9 3.6 1.4 5.7 1.4 5.6 0 5.6-3.3 5.6-4.3v-2.8h-1.4v-4.8h8.6c0 7.1-5.7 12.8-12.8 12.8-7.1 0-12.8-5.7-12.8-12.8 0-7 5.7-12.7 12.8-12.7 5.5 0 10.2 3.5 12 8.4zm-12.4-3.4c-.1-.2-.3-1.1.8-1.5.3-.1.6-.1.9.1.8.3 1 1.4 1 2.1h.9V9.1h-.6s-.3.4-.4.5c-.5-.3-1-.5-1.6-.6-1.3-.2-2.5.1-3.5.7-1.2.9-1.9 2.8-1.1 4.2.9 1.3 3.3 4.9 3.3 4.9s.2.2.2.5c0 .4-.2.7-.5 1-.3.2-.7.3-1.2.2-1.1-.2-1.1-1.5-1.1-2.3v-.1h-1.3v4.1h.9l.3-.5c.1 0 .1.1.2.1.4.2.9.4 1.3.5 1.4.3 2.9 0 4-.9s1.7-2.7.6-4.2c-.5-.8-1.1-1.6-1.7-2.4-.6-1.3-1.3-2.3-1.4-2.6zm-3.9 12.1v4.9c0 .9.7 1.7 1.7 1.7.9 0 1.7-.7 1.7-1.7v-4.9c0-.9-.7-1.7-1.7-1.7s-1.7.8-1.7 1.7zm7.8 3.3h-.7v-1.3h-1.1v1.3H21s1.2-4.8 1.2-4.9H21s-1.4 6-1.5 6h2.2v2h1.2v-2h.7l-.1-1.1zm-6.2-3.9c-.3 0-.5.2-.5.5v5c0 .3.2.5.5.5s.5-.2.5-.5v-4.9c.1-.3-.2-.6-.5-.6z"/></svg>