<svg baseProfile="tiny" xmlns="http://www.w3.org/2000/svg" width="40" height="40"><path fill="#FFF" d="M19.9 5.2C11.7 5.2 5.1 11.8 5.1 20s6.6 14.8 14.8 14.8S34.7 28.2 34.7 20c0-8.1-6.6-14.8-14.8-14.8z"/><path fill-rule="evenodd" fill="#E30613" d="M35 20c0-8.3-6.7-15-15-15S5 11.7 5 20s6.7 15 15 15c8.3.1 15-6.6 15-15zM5.4 20c0-8 6.5-14.6 14.6-14.6 8 0 14.5 6.5 14.6 14.6 0 8-6.5 14.6-14.6 14.6S5.4 28.1 5.4 20z"/><path fill-rule="evenodd" fill="#E30613" d="M19.9 33.9c7.7 0 13.9-6.2 13.9-13.9S27.6 6.1 19.9 6.1 6 12.3 6 20s6.3 13.9 13.9 13.9zm0-25.4c6.4 0 11.5 5.2 11.5 11.5 0 6.4-5.2 11.5-11.5 11.5-6.4 0-11.5-5.2-11.5-11.5S13.6 8.5 19.9 8.5z"/><path fill-rule="evenodd" fill="#E30613" d="M25.7 20.7c.5.2 1.7.8 3.7.8 1.3 0 1.9-.8 1.4-.9-.2-.1-4-1.1-4-1.1s-.5-.2-.1-.2 2 0 2.6-.3c.8-.3 1-1.1.8-1.1-1.7.1-3.2.1-3.3 0 0 0-.2-.1 0-.2.2-.2 1.4-1.2 1.6-1.4.7-.7.2-1.6.1-1.5-1.1 1.1-2.5 1.9-2.6 1.9s-.1-.2 0-.3.4-.6.6-1c.3-1.2.2-2-.4-2.3-.1-.1-.2 0-.3.4-.2.4-.2 1-.8 1.3-.3.1-.9.7-.9.9s.1.6 0 .7-.4-.1-.6.1-.8.7-1 .9c-.2.1-.6.4-.8.2-.5-.5-.3-2.1-.3-2.1h.4c.5-.1.6-.7.5-.8-.1.1-.2.2-.5.2-.2 0-.3-.1-.3-.3s-.1-.3 0-.6.4-.5.6-.6c.2-.2.1-.7.1-.7s-.1.2-.2.3c-.2.2-.4.1-1 .1s-.8-.2-.8-.3c-.1-.1-.8 0-1 0s-1 .2-1.4.3c-.3.1-.8.3-.9.4-.1.1-.1.2-.1.2l.1.3s.4-.3.8-.4c.4-.1.4.1.5.2.1.2.1.2.1.4-.1.1-.7.1-1.2.1-.6 0-.6-.3-.6-.4 0-.1-.2 0-.2.2-.1.3-.2.7 1.1.7.5 0 .9-.2 1.1-.2.1.3 0 .4-.2.4-.6.1-.9-.1-.9-.1s-.1.3 0 .3c.4.3 1.1.3 1.2.3s.2-.1.3 0c.1.1.2.4.2.5s0 .2-.3.2-.4 0-.4.1.3.3.4.4.4-.3.4-.3v.2c0 .1.1 1.1-.5 1.4-.2.1-.6-.1-.8-.2-.2-.1-.8-.7-1-.9-.2-.2-.4 0-.6-.1s0-.4 0-.7c0-.2-.6-.7-.9-.9-.6-.3-.7-.9-.8-1.3-.2-.4-.2-.4-.3-.4-.7.3-.8 1.1-.4 2.3.1.5.5.9.6 1s.1.3 0 .3-1.5-.8-2.6-1.9c-.1-.1-.6.9.1 1.5.3.3 1.5 1.3 1.6 1.4.2.1 0 .2 0 .2h-3.3c-.2 0 0 .7.8 1.1.7.3 2.3.3 2.6.3.4 0-.1.2-.1.2S9.8 21 9.6 21c-.4.1.1 1 1.4.9 2-.1 3.2-.6 3.7-.8.5-.2.2.2.1.2-.7.5-2.9 2-3.9 2.6-.1.1-.2.2 0 .4.8.8 2.3-.1 2.9-.4.7-.4 2.3-1.6 2.5-1.5 0 .1 0 .5-1.1 1.6l.3.3s-.5.6-.8.9c-.1.1-.4.5-.5.4-.1 0-.5-.5-.7-.5-.1 0-.3.1-.4.1s-.4 0-.6.1-.2.6-.1.4.5-.2.8 0c.1.1.3.2.4.3.1 0 .2.1.2.1-.1 0-.4.1-.7.4-.1.1 0 .2-.1.2-.4.1-.4.2-.3.6l.1.3c.1-.1 0-.4.4-.5h.2c.1 0 .6-.3.7-.4s.1.1 0 .2c-.3.5-.2.8-.2.8.1 0 .1 0 .1.1.2.5.7.8.6.7-.1-.1-.2-.7-.2-.8h.2c.1 0 .1-.3.1-.4 0-.2-.1-.3-.1-.4s.1-.3.1-.3.2.3.3.4c.3.3.2.3.5.2.1 0 .4.6.4.6s.1-.3.1-.5c0-.1-.1-.1-.2-.2s.1-.2 0-.3c-.5-.5-.6-.3-.7-.6-.1-.2.1-.4.3-.6.5-.6.5-.5.7-.9.1.1.2.1.3.3.5-.7.9-1.4 1.4-1.6s.7.1.7.4c0 .5-1 1.6-1 1.6-.5.5-.8.8-1 1.1-.1.1-.1.3-.2.5v.7c0 .2.1.4.1.4s.2-.5.2-.6c.1-.2.1 0 .3.4.1.4.4.8.4.8v-.9c0-.2 0-.6.1-.3.1.2.5.8.5.8v-.4c0-.2.2-1 .3-1.1.1-.1.4-.7.8-.8.4-.1.4.7.4.8-.1.3-.2.6-.2.7s-.4.7-.4.8c-.4 1.2.5 1.9.5 1.9 0-.1.1-.9.2-1.1.1-.1.2-.2.3-.1.1.2.4.7.7 1.1.4-.4.6-.9.7-1.1.1-.1.2 0 .3.1.1.2.2 1 .2 1.1s.9-.7.5-1.9c0-.1-.4-.7-.4-.8-.1-.1-.2-.5-.2-.7 0-.2 0-.9.4-.8s.7.6.8.8c.1.2.3.9.3 1.1v.4s.3-.5.5-.8c.1-.2.1.1.1.3v.9s.3-.5.4-.8c.1-.4.2-.6.3-.4 0 .1.2.6.2.6s0-.2.1-.4c0-.2.1-.5 0-.7 0-.2-.1-.3-.2-.5-.2-.3-.5-.6-1-1.1 0 0-1-1.1-1-1.6 0-.3.2-.6.7-.4s.9.8 1.4 1.6c.2-.1.2-.2.3-.3.3.3.3.3.7.9.2.2.4.4.3.6-.1.3-.2.2-.7.6-.1.1.1.2 0 .3-.1.1-.2.1-.2.2-.1.2.1.5.1.5l.4-.6c.3.1.2 0 .5-.2.1-.1.3-.4.3-.4s.1.1.1.3c0 .1-.1.2-.1.4 0 .1.1.4.1.4h.2c.1 0-.1.7-.2.8-.1.1.4-.2.6-.7 0-.1.1 0 .1-.1 0 0 .1-.3-.2-.8-.1-.1-.1-.3 0-.2.1.1.6.4.7.4h.2c.3.1.3.4.4.5.1-.2.1-.2.1-.3.1-.4 0-.5-.3-.6 0-.1 0-.1-.1-.2-.3-.2-.7-.3-.7-.4-.1 0 0-.1.2-.1.1 0 .4-.2.4-.3.2-.3.7-.3.8 0s.1-.3-.1-.4-.5-.1-.6-.1c-.2.1-.4-.1-.4-.1-.2 0-.6.5-.7.5s-.4-.3-.5-.4c-.3-.4-.8-.9-.8-.9s.2-.1.3-.3c-1-1.1-1.1-1.5-1.1-1.6.1-.1 1.8 1.1 2.5 1.5.6.3 2.1 1.3 2.9.4.2-.2.1-.3 0-.4-1-.6-3.1-2.1-3.9-2.6-.7-.5-1-.8-.5-.6z"/><path fill="#E30613" d="M21.8 10.2s-1.1.5-1.2.5c-.2-.2-.7-.7-.8-.7-.1.1-.6.5-.8.7-.1-.1-1.2-.5-1.2-.5s.3.5.5.8.2.8.2.8h2.7s0-.4.2-.8c.1-.3.4-.8.4-.8z"/><path fill="#FFF" d="M18.9 13.1c.4-.2.8-.1.8-.1l-.7.6s-.1-.3-.1-.5zm3.1 6.4c.6-.1 1.4-.3 2.3-1.8-.8-.2-.9-.6-.9-.6s.4-.1 1.1.4c0-1 .6-1.2.6-1.2s.3.6-.5 1.3c.8.2 1 .6 1 .6s-.4.1-1-.4c-.9 1.7-1.9 2.1-2.4 2.1-.2-.3-.2-.3-.2-.4z"/><path fill-rule="evenodd" fill="#FFF" d="M18.6 18.5c0 .7.1 1.3.2 1.8.2 1.1.6 1.9.8 2.3.2.3.3.4.3.5 0 0 .2-.2.3-.5.3-.4.6-1.2.8-2.3.1-.5.2-1.1.2-1.8h-2.6z"/><path fill="#FFF" d="M17.9 19.5c-.6-.1-1.4-.3-2.3-1.8.8-.2.9-.6.9-.6s-.4-.1-1.1.4c0-1-.6-1.2-.6-1.2s-.3.6.5 1.3c-.8.2-1 .6-1 .6s.4.1 1-.4c.9 1.7 1.9 2.1 2.4 2.1.2-.3.2-.3.2-.4z"/><path fill="#E30613" d="M20.7 21.4V21h-.9v-.7h.8v-.4h-.8v-.6h.8v-.4h-1.3v2.4h1.4v.1z"/></svg>