<svg xmlns="http://www.w3.org/2000/svg" xmlns:xlink="http://www.w3.org/1999/xlink" viewBox="0 0 49 49"><defs><path id="a" d="M7.68 7.76h34.35V42.1H7.68z"/></defs><clipPath id="b"><use xlink:href="#a" overflow="visible"/></clipPath><g transform="translate(-429.18 -161.37) scale(3.1403)" clip-path="url(#b)"><path fill="#FFF" d="M139.12 59.33a5.47 5.47 0 1110.93 0 5.47 5.47 0 01-10.93 0"/></g><path fill="#E64226" d="M14.76 17.6l17.67-3.08v-.32l-9.53 1.66v-.42l.72-.1.5-1.92h-1.24l-.13-1.65h-.23l-.08 1.65h-1.26l.47 1.94.76.08v.48l-7.65 1.39v.29zm7.68 5.45l-.19 6.97h1l-.1-7.1-.7.13zM20.1 26.6l-9.51-1.98.02 1.24 3.7 1.36s-.3 2.72 1.36 5.55c1.44 2.47 4.74 4.42 7.79 4.23 9.17-.58 9.08-9.02 9.08-9.02l5.22-.67.89-3.54-12.38 1.92s-.05.78-.2 2.36c-.16 1.58-2.19 3.38-4.28 2.31-2.15-1.1-1.7-3.76-1.7-3.76m10.87 3l-3.02-1.68.11-.57 3.44-.41-.11.58-.78.08-.21 1.06.68.37-.11.56zm-2.08 1.94l.17-.5c.4.12.68.04.83-.26a.56.56 0 00.05-.4.42.42 0 00-.23-.27.35.35 0 00-.19-.04.37.37 0 00-.18.08 4.13 4.13 0 00-.37.36c-.16.18-.3.3-.42.36a.87.87 0 01-.4.1.99.99 0 01-.44-.11.96.96 0 01-.38-.32.8.8 0 01-.14-.45 1.17 1.17 0 01.13-.53c.14-.28.33-.47.56-.55.23-.09.5-.06.78.07l-.2.5c-.18-.06-.3-.06-.4-.02a.5.5 0 00-.25.26.54.54 0 00-.07.34c.02.1.07.17.16.2.08.05.16.05.25.01s.22-.16.4-.36c.19-.2.35-.35.48-.42a.85.85 0 01.43-.1c.15 0 .31.04.5.13.25.12.43.3.52.55.1.24.07.53-.1.87-.28.6-.78.76-1.5.5m-1.85 2.96l-1.85-2.72.43-.3 2.15 1.2-1.23-1.82.41-.28 1.86 2.71-.46.31-2.1-1.16 1.2 1.77-.41.29zm-3.67.77l.58-3.4.58-.08 1.52 3.1-.58.09-.34-.71-1.07.15-.11.77-.58.08zm-2.9-.32l.42-3.26.54.07-.16 1.28 1.06.14.16-1.29.54.07-.42 3.27-.54-.07.18-1.43-1.06-.14-.18 1.43-.54-.07zm-1.73-.74l.3-.56.45.24-.3.56-.45-.24zm-2.8-4.23l.61-.14.11.5-.61.14-.12-.5zm3.25-.2l-.55.06-.14-1.3-.77.09.12 1.12-.56.06-.12-1.12-1.39.15-.05-.54 3.27-.35.2 1.84zm.7 1.1c.18.24.26.5.23.79-.02.2-.13.42-.3.66l-.47-.32a.73.73 0 00.2-.42.52.52 0 00-.13-.37.58.58 0 00-.5-.22c-.22.01-.48.14-.8.4-.31.25-.5.48-.56.69a.56.56 0 00.1.54.5.5 0 00.36.18c.15.01.34-.04.55-.16l.18.54c-.34.17-.64.23-.9.19s-.46-.17-.63-.4c-.23-.26-.3-.57-.23-.91.09-.4.34-.76.75-1.09.44-.35.86-.53 1.26-.53.36 0 .65.14.88.43m4.46 1.7l-.19 1.27.73-.1-.54-1.16zm5.7-4.92l-1.27.13 1.12.6.15-.73zm-1.89 8.6c-.1.07 6.66-1.47 6.66-1.47v-6.7l-1.78.25s-.16 1.9-.87 3.67c-.78 1.96-2.49 3.34-4 4.25"/><path fill="#006EB8" d="M41.45 24.93a16.6 16.6 0 10-33.2 0 16.6 16.6 0 0033.2 0m-.97 0a15.63 15.63 0 11-31.25 0 15.63 15.63 0 0131.25 0m-10.74-5.15c-.15-2.78 1.88-4.64 1.88-4.64l-15.36 2.74s-.97 1.76-.67 3.59c.43 2.59 2.12 3.83 2.2 3.72.93-1.16 3.37-2.63 6.75-2.63s6.68 1.5 6.68 1.5-1.33-1.5-1.48-4.28m-6.45 2.1c-.02-.14.13-.27.23-.34.1-.06.48 0 .57.02.1 0 .36-.06.6-.23.23-.17.3-.45.3-.45s-.05-.02-.2.02c-.14.04-.45.05-.5-.02-.05-.06.1-.22.1-.29.02-.06.03-.3.02-.58-.02-.28.2-.51.67-.8.48-.3 1.1-.1 1.1-.1.1.04.05.08 0 .1-.05 0-.27.13-.3.44-.04.32.09.48.15.56.07.08.08.2.12.34.04.15.37.23.37.23s.01.12-.12.18c-.13.07-.26.01-.27.08-.02.07.15.24.15.24s-.02.1-.2.13-.34-.03-.4-.08c-.07-.05-.27-.05-.27-.05l-.01.06c-.01.07-.05.06-.1.15-.03.1.02.3.02.3s.04.03.13.03a.83.83 0 00.35-.07c.1-.05.33.07.38.16.05.1-.03.3-.08.28-.05-.03-.05-.08-.12-.08-.06 0-.1.07-.24.07-.13 0-.22-.08-.34-.14a.32.32 0 00-.34.04c-.1.08-.22.22-.32.22s-.1-.14-.1-.14h-.17c-.06 0-.11.1-.11.1s-.07-.06-.08-.15c-.02-.1.16-.2.22-.22.07-.03.08-.1.08-.1h-.15c-.08 0-.29.15-.4.24-.12.1-.23.13-.32.08-.1-.05-.1-.21-.1-.21l-.11-.01c-.07 0-.15.14-.15.14s-.05-.03-.06-.16m-5.93-2.2c.04.09.2.2.32.22.12 0 .45.15.54.24.09.09.11.13.11.13s-.1.29-.11.38l-.02.09s-.48-.32-.58-.36c-.1-.04-.28-.06-.36-.01-.08.05-.14.08-.12.15.03.08.14.45.04.56a.48.48 0 00-.13.31c0 .06-.07.14-.17.15-.1.02-.02-.09-.02-.16 0-.08-.01-.13-.05-.14-.04-.02-.4-.18-.2-.41.23-.23.16-.08.18-.18 0-.1-.02-.37.03-.4.06-.02.1-.11.04-.15-.06-.04-.32.03-.36-.06l-.03-.1s-.16.08-.23.07c-.08-.01 0-.3.15-.34a.6.6 0 01.33-.02c.1.03.17.1.17.02s-.08-.26-.2-.27c-.1-.01-.27-.22-.19-.32.1-.1.18-.12.15-.18-.04-.06-.1-.08-.14-.1-.05-.03.02-.13.16-.08s.32.2.3.36c0 .15.03.24.1.3s.1-.17.09-.29c-.02-.11-.08-.28.06-.33.14-.05.2-.12.17-.18-.04-.06-.13-.14-.1-.2 0 0 .3 0 .34.23.04.21.06.33-.06.53-.13.2-.25.45-.21.54m.77-.86c-.11 0-.16-.04-.2-.06-.05-.02.1-.07.2-.11.1-.05.34-.04.42-.03.09 0 .4.04.42.03l-.33.14a2.6 2.6 0 01-.5.03m7.58-1.84c-.77.5-1.82.53-1.82.53l.13-.1c.1-.1.24-.42.24-.42h.23c.23-.02.88-.19 1.22-.31.34-.13.53-.31.56-.3.04 0 .2.1-.56.6m-2.5 1.43l.04-.08c.04-.07.05-.37.05-.37h.1c.1 0 .43-.08.76-.15.32-.06 1.19-.4 1.19-.4.06.07-.18.24-.78.64-.6.39-1.36.36-1.36.36m.7.07c.2-.07.2-.16.2-.07-.02.08-.32.34-.55.45-.23.1-.42.11-.46.11h-.05s.1-.25.07-.35c0 0 .62-.08.8-.14m5.62-1.94l-.3.04s-.06.03-.11.08c0 0 .2.04.29.08.08.04.07.1.07.1s-.4-.02-.47.02c-.06.04-.25.03-.17.33.08.3.19.78-.17 1.02s-.7-.16-.75-.3c-.06-.15-.15-.66-.2-.78-.05-.12-.23-.22-.3-.08-.09.13 0 .31.11.6.12.27.39.82.3 1.11-.07.3-.23.37-.05.72.19.34.57.64.57.64s.04.11-.04.14c-.08.02-.18.01-.14.04.04.02.2.14.37.16.16 0 .2 0 .28-.02l.08-.01s-.02.24-.14.32c-.12.08-.22.09-.22.09s.12.34.29.47l.24.19s-.14.2-.35.18c-.2 0-.38-.16-.38-.16s-.21.18-.24.26c-.02.08.01.13.03.17.01.04.09.04.1.1l.02.04s.71-.02.78.2c.06.23-.06.27-.06.27s-.06-.1-.13-.1h-.14l-.06.04-.04.03s-.22-.22-.34-.22c-.12 0-.28 0-.3.05-.03.05-.02.12-.1.13h-.23s-.02.07 0 .12v.05s-.26-.06-.27-.2c-.01-.15.04-.2.08-.2h.04l-.03-.14s-.31-.01-.4.03c-.07.04-.22.17-.34.13-.12-.04-.17-.17-.14-.23l.03-.05-.22.01s.1-.27.33-.27.27.06.36.09c.1.03.2.05.26.03.07-.03.2-.24.2-.43v-.18l-.23-.01v-.39s-.06-.2-.26-.24c-.2-.02-.5-.09-.55-.22-.05-.13-.05-.17-.05-.17h-.18s-.17-.33-.11-.58.18-.39.29-.4l.1-.01s.02-.24-.38-.37c-.4-.14-1.05-.16-1.5.23-.44.4-1.42 1.73-2.06 2.15-.63.4-1.03.62-1.56.67-.52.05-.68.01-.68.01s.13-.55.06-.78c-.06-.22-.17-.3-.17-.3s-.02.53-.08.63l-.05.1s.08.3 0 .48c-.08.19-.4.3-.54.27a2.12 2.12 0 00-.28-.07c.04.02 0 .28-.07.39-.06.1-.25.25-.25.25s.32.01.37 0c.06-.02.21-.27.5-.21.27.05.38.15.4.26.03.1-.04.1-.1.07-.04-.03-.18-.03-.18-.03s-.08.29-.23.33c-.16.04-.35-.03-.37-.08 0 0-.61.05-.73.1-.12.06-.18.09-.18.22s.1.26.05.34c-.05.08-.12.08-.2.08h-.15s-.02.17.03.21-.05.1-.16.04c-.1-.06-.26-.45-.12-.57.15-.12.23-.16.23-.25s-.03-.18-.03-.18-.08-.04-.22-.04c-.15 0-.21-.02-.21.04 0 .05-.03.16-.16.17-.14.01-.24-.04-.24-.15 0-.1.04-.17-.01-.17a.24.24 0 00-.18.08c-.04.05-.1-.26.03-.33s.36-.03.48.05c.11.08.14.1.26.1.12.02.24 0 .24 0s.05-.14-.04-.22c-.1-.08-.2-.17-.33-.17s-.36.03-.44-.12c-.08-.14 0-.15.02-.23 0-.08-.03-.15-.14-.15-.1 0-.08-.1 0-.13l.12-.07s.17-.1.28-.05a.95.95 0 01.38.4c.1.22.21.34.44.42.22.08.51-.04.57-.24l.09-.4.17-.14c.1-.08.28-.48.3-.69l.03-.2s-.28.52-.71.76c-.44.23-.5.14-.5-.27 0-.4.18-1.37.33-1.66.14-.3.27-.39.35-.54.08-.16.06-.28-.05-.26-.1.03-.17.1-.3.06s-.19-.1-.19-.1.35-.1.49-.2c.15-.09.17-.13.17-.13s-.2-.22-.31-.22c-.12 0-.2.01-.28-.03a.73.73 0 00-.42 0c-.14.03-.22.08-.23.02 0 0 .17-.4.56-.41l.38-.02.05-.04s-.03-.15.27-.17c.29-.01 1.1-.02 1.22-.05.14-.03.36-.15.36-.15s.07.12 0 .2a.7.7 0 01-.29.17c-.04 0 .15.5-.04.77-.18.28-.33.73-.25.93.08.2.16.26.34.29.19.02.25 0 .25 0l.03.4s.32-.2.3-.61c0-.41-.09-.5-.17-.6-.08-.1-.53-.67.06-1.2.58-.53 1.17-.46 1.37-.52.2-.05.95-.18 1.23-.33.28-.14.37-.29.4-.25.02.04-.18.41-.4.58-.23.17-.85.48-1.31.52l-.46.04s.08.35-.04.51c-.12.16-.16.24-.28.28l-.12.04s.12.56.04.95c-.08.4-.17.48-.17.48s.26-.06.37-.33c.1-.28.1-.68.1-.82-.02-.15 0-.2 0-.2s.28-.23.38-.33c.09-.1.06-.36.06-.36l.42-.06s.03.2-.09.34a.82.82 0 01-.26.21c-.04.01-.03.25-.12.39l-.1.13s.07.25.03.38c-.04.13-.12.26-.12.26s.3-.17.33-.34l.06-.26s.14-.07.18-.16c.04-.1-.04-.35-.04-.35s.28-.18.32-.42c.04-.24 0-.25 0-.25l.33-.03s0 .32-.1.48c-.11.16-.16.17-.16.17s.04.25-.02.37a.26.26 0 01-.16.15s-.01.18-.08.29l-.1.17s1.18-.5 1.69-.9c.52-.4 1.3-1.14 1.84-1.1.53.04.72.11.94.33.2.23.29.39.37.3.07-.1 0-.24-.04-.47-.06-.22-.4-.83.02-1.04.42-.21.68.06.75.49.08.42.12.67.3.71.2.04.34-.13.37-.29.02-.16 0-.29-.12-.4-.12-.1-.43-.56-.06-1.01.37-.45 1.27-.3 1.43-.35l.2-.05s-.05.2-.25.3l-.3.15s.22.05.27.03l.05-.03s-.14.18-.4.22m-9.58 1.62v-.12s-.19.05-.28.05c-.09 0-.17-.06-.24-.05a.23.23 0 00-.2.13s.21.32.42.3c.21-.02.3-.23.3-.3m-.17.01s-.07.14-.14.16c-.07.02-.14.01-.17-.03l-.05-.09s.06-.06.14-.05c.1.01.13.03.18.02h.04"/></svg>