<svg baseProfile="tiny" xmlns="http://www.w3.org/2000/svg" width="40" height="40"><g fill-rule="evenodd"><path fill="#D8232A" d="M20 5C11.7 5 5 11.7 5 20s6.7 15 15 15 15-6.7 15-15S28.3 5 20 5zm0 29.3c-7.9 0-14.3-6.4-14.3-14.3S12.1 5.7 20 5.7 34.3 12.1 34.3 20 27.9 34.3 20 34.3z"/><path fill="#D8232A" d="M20 6.7c7.3 0 13.3 6 13.3 13.3s-6 13.3-13.3 13.3S6.7 27.3 6.7 20 12.7 6.7 20 6.7"/><path fill="#FFFFFE" d="M20 8.7c6.2 0 11.3 5.1 11.3 11.3S26.2 31.3 20 31.3 8.7 26.2 8.7 20 13.8 8.7 20 8.7"/><g fill="#D8232A"><path d="M20 10c-5.5 0-10 4.5-10 10s4.5 10 10 10 10-4.5 10-10-4.5-10-10-10zm2.9 16.5c-.3.4-.8.6-1.5.6H21c-.1 0-.3 0-.4-.1v-.7h.1c.1 0 .2.1.3.1s.3.1.4.1c.2 0 .3 0 .5-.1s.3-.3.4-.4c.1-.2.1-.4.1-.5-.1.1-.2.1-.3.2s-.3.1-.5.1-.4 0-.6-.2c-.2-.1-.4-.3-.5-.5s-.2-.5-.2-.8.1-.5.2-.7c.1-.2.3-.4.5-.5s.5-.2.8-.2c.2 0 .3 0 .5.1.4.1.7.3.9.7.2.3.3.8.3 1.3-.1.5-.3 1.1-.6 1.5zm3.7-.3c-.1.2-.3.4-.6.6s-.6.3-1.1.3h-.5c-.2 0-.3-.1-.5-.1v-.8h.1c.3.2.5.3.9.3.3 0 .5-.1.6-.2s.2-.3.2-.5-.1-.4-.2-.5c-.1-.1-.4-.2-.6-.2-.2 0-.3 0-.5.1-.1 0-.2.1-.3.1H24c0-.3 0-.5.1-.7v-1.5h2.4l-.1.7h-1.5v.6h.4c.5 0 .8.1 1.1.4s.4.6.4 1c-.1 0-.1.2-.2.4zm-1.8-8c.1-.9.1-2.3-1.8-3.5-.7-.4-2-.8-2.9-.8-1.1 0-2.2.4-3 .8-.3.2-.4.4-.4.7v1.9c0 .4.4.8.8.8h4.9c.7 0 1.1-.3 1.4-.9v4.3c-.3-.5-.8-.9-1.3-.9h-4.9c-.4 0-.8.3-.8.9V24c0 1.7 1.9 3.4 3.4 4.2.5.3.3.3-.1.3-3 0-5.7-1.7-7.2-4.1.7-.2 1.3-.8 1.3-1.6v-6.3c0-.7-.5-1.2-1.1-1.4 1.5-2.3 4.2-3.9 7.2-3.9 2.5 0 4.8 1.1 6.4 2.8.3.3.6.6 1.2.5l-3.1 3.7z"/><path d="M22.3 24c0-.2-.1-.3-.2-.4-.1-.1-.2-.1-.4-.1-.1 0-.1 0-.2.1-.1 0-.2.1-.2.3 0 .1-.1.2-.1.3 0 .2.1.4.2.5.1.1.2.2.4.2.1 0 .2 0 .3-.1l.2-.2c0-.1.1-.1.1-.1v-.2c-.1-.2-.1-.3-.1-.3z"/></g></g></svg>