<svg baseProfile="tiny" xmlns="http://www.w3.org/2000/svg" width="40" height="40"><path fill="#FFF" d="M28.7 10.7v5.5c.2.1.5.3.8.4v-.1c0-.9.2-.7.8-1 .1-.1.2-.3.4-.3.3 0 .9.1 1.1.2.2.1.2.2.2.3.1.2.3.3.4.4.1.3 0 .8-.4 1h-.7v.6s.1 0 .2.1c1 .3 6.3 1.9 6.4 2.2v.1c-.1 0-3.5-.8-4.1-.9-.7-.1-1.3-.2-2.2-.4 0 .3-.1.3-.3.4v.1c.3.1 1.3.2 1.5.3.2.2.8 0 1.2.5.1.1.1.7 0 .8-.2.2-.3.1-.5.2-.1 0-.2.1-.3.2-.1.1-.3 0-.4 0-.3 0-.4-.3-.6-.4-.1-.1-.2 0-.3 0-.2 0-.3-.2-.4-.3h-.4c-.5.3-1.8 0-2.4-.3v3.3s0 .6-.3 1.1c-1.6 2.8-5.1 4.5-8.3 4.5H20c-3.3 0-6.7-1.6-8.3-4.4-.3-.6-.3-1.2-.3-1.2v-3.3c-.5.4-1.9.7-2.4.4-.1 0-.3-.1-.4 0-.1.1-.2.3-.4.3h-.3c-.2.1-.3.4-.6.4h-.4c-.1-.1-.2-.2-.3-.2-.2 0-.4.1-.5-.2-.1-.1-.1-.7 0-.8.4-.5.9-.3 1.2-.5.2-.1 1.2-.3 1.5-.3v-.1c-.2-.1-.3-.1-.3-.4-.9.1-1.5.2-2.2.3-.6.1-4 .9-4.1.9 0 0-.1 0 0-.1.1-.3 5.5-1.9 6.4-2.2.1 0 .2-.1.2-.1V17.1h-.7c-.4-.1-.5-.6-.4-1 .1-.2.4-.3.4-.4.1-.1.1-.3.2-.3.2-.1.9-.2 1.1-.2.2 0 .3.3.4.3.6.2.8.1.8 1v.1c.2-.1.5-.3.8-.4v-5.5h17.3z"/><path fill-rule="evenodd" fill="#001F47" d="M26.4 22.5l-1-.6-.2.4.3.2.1-.1.8.5-.1.2-1.9-1.2.1-.2.4.2.2-.3-.3-.2c-.1 0-.2-.1-.2-.1-.2 0-.3.1-.4.2-.1.2-.1.5.1.6l1.7 1.1c.1 0 .2.1.2.1.2 0 .3-.1.4-.2s0-.4-.2-.6zm-3 0l.2-.2 2 2-.2.2-2-2zm-6.3 3.6l.9-2.7.3.1-.8 2.4.2.1.2-.6.3.1-.3.9-.8-.3zm3.4.5l-.2-2.8h.3l.2 2.8h-.3zM19 24l-.3 2.2c0 .2.1.3.3.3l.6.1v-.3l-.6-.1.1-.9h.4V25h-.4l.1-.9.6.1V24l-.6-.1c0-.2-.2 0-.2.1zm3-.3c0-.1-.2-.2-.3-.2h-.1l-.6.2.8 2.7.3-.1-.4-1.2.3-.1c.1 0 .1-.1.2-.1v-.2l-.2-1zm-.5.2l.3.9.2-.1-.3-.9-.2.1zm2.5 1.2l-.3-.5.3-.2.5.8-.8.5-.2-.3-.7-2.2-.2.1.4.6-.3.2-.5-.8.8-.5.2.3.7 2.2.1-.2z"/><path fill="#001F47" d="M12.6 24.5c1.7 2.5 4.5 3.7 7.4 3.7s5.8-1.2 7.4-3.7c.2-.4.4-.7.4-1.6v-2.4h-.5v2.4c0 .9-.1 1.1-.3 1.4-1.5 2.3-4.1 3.5-7 3.5s-5.5-1.2-7-3.5c-.2-.3-.3-.6-.3-1.4v-2.4h-.5v2.4c0 .9.1 1.2.4 1.6zm-.5-8.7v-4.4h15.8v4.4l.2.1v-4.8H11.8v4.7h.3z"/><path fill="#001F47" d="M12.2 11.6v4.2l.5-.2V12h14.7v3.6l.5.2v-4.2H12.2zm15.7 8.9v2.4c0 .9-.1 1.2-.4 1.7-1.7 2.5-4.5 3.8-7.5 3.8s-5.8-1.3-7.5-3.8c-.3-.5-.4-.7-.4-1.7v-2.4h-.2v2.4c0 1 .1 1.3.4 1.8 1.7 2.6 4.6 3.9 7.7 3.9s6-1.3 7.7-3.9c.3-.5.4-.8.4-1.8v-2.4h-.2z"/><path fill-rule="evenodd" fill="#001F47" d="M20 13.6c.5 0 1.1.1 1.6.3 0 .1-.1.3-.2.6-.9-.1-1.8 0-1.8 0l-.8-.6c.3-.2.7-.3 1.2-.3z"/><path fill="#DADADA" d="M23.7 19.7l-.9-.3c-.1 0-.2.1-.2.1-.4.4-.8.7-1.3 1-1.2.6-2.7.6-3.9.1-.3-.1-.5-.3-.7-.4.7 1 1.8 1.6 3.1 1.7h.1c.8 0 1.6-.2 2.3-.6.6-.4 1.1-.9 1.5-1.6z"/><path fill="#001F47" d="M21.5 17.1c.2.4.5.9.7 1.2.2-.3.3-.6.5-1.2.1-.2.4-.6.7-.8-.4-.3-1-.5-1-.5-.5.6-.9 1.3-.9 1.3zm-4.3-2.4c-.4.3-.7.8-.9 1.2.1 0 .1.1.2.1l.1-.1c.2-.5.5-1 .6-1.2zm2.5 2.5s-.5-.8-1.1-1.4c0 0-1.1.5-1.6.7v.4c.3.4.4.9.7 1.6l.2.2c.2.1.5.1.8.2.1-.1.8-1.2 1-1.7z"/><path fill-rule="evenodd" fill="#001F47" d="M19.6 20.3h1.8l.3 1c-.7.4-1.5.6-1.5.6-.9-.2-1.4-.6-1.4-.6l.8-1z"/><path fill="#001F47" d="M16.7 19.6c-.1.1-.3.1-.4.1.1.3.3.5.5.7s.4.4.6.5l.1-.1s-.5-.7-.8-1.2z"/><path fill-rule="evenodd" fill="#DD0741" d="M6.5 20.2c-.2.1-.1.3-.2.4.1 0 .2 0 .2-.1s.1-.1.1-.2c.1 0 0-.1-.1-.1zm20.3-.9c-.1 0-.2.1-.3 0-.1 0-.3-.1-.3 0s-.1.2-.1.3c0 0 0 .1.1.1s.2.1.2 0c.1-.1.1-.2.2-.3.1 0 .1.1.1.1s.1 0 .2-.1c0 .1 0 0-.1-.1.1.1.1 0 0 0zm3.7-2.1s.1.1 0 .2-.7 0-.7.1.4.2.5.3c.1 0 .2.1.4 0s.3-.3.2-.4c0-.1-.1-.3-.1-.3 0-.1-.4-.4-.3-.4s.3 0 .4.1c.2.1.5.1.7.1s.3 0 .4-.1v-.3c0-.1-.2-.1-.3-.1-.1 0 0 .1-.1.2h-.2c-.1-.1.1-.1.2-.2 0-.1-.1-.2 0-.3 0 0 0-.1-.1-.1s-.8-.2-.8-.2l.1.1c0 .1-.2.1-.3.1-.2 0-.9.1-.8.5.2 0 .8.5.8.7zm-22.1-.4c.2 0 .5-.1.7-.1.1-.1.3-.1.4-.1.1 0-.3.3-.3.4s-.1.3-.1.3c0 .2.1.4.2.4.1.1.3 0 .4 0 .1 0 .4-.1.5-.3 0-.1-.6 0-.7-.1-.1 0 0-.1 0-.2.1-.2.7-.6.7-.8.1-.4-.5-.4-.8-.5l-.3-.1.1-.1c-.1 0-.7.1-.8.2l-.1.1c.1.1 0 .2 0 .3s.3.1.2.2h-.2c-.1 0 0-.1-.1-.2-.1 0-.2.1-.3.1v.3c.1.2.3.2.5.2zm-1.3 3.3s-.3 0-.3.1c0 0 .2 0 .3-.1zm25.8 0c.1.2.3.1.3.1 0-.1-.3-.2-.3-.1zm.6.1c-.1 0-.1.1-.2.2 0 .1 0 .1.1.2s.2 0 .2.1c0-.2.1-.5-.1-.5zm2.8-.8c-1.2-.4-2.4-.7-3.6-1-.4-.1-.7-.2-1.1-.3-.6-.1-1.2-.3-1.8-.4-.1 0-.1 0-.1-.1s-.1-.1-.2-.2c-.2-.1-.4-.1-.5-.2-.1 0-.3-.1-.4-.1-.2 0-.3 0-.4-.2.2.1.4.2.6.1.1-.1.2-.2.1-.3 0-.1-.1-.1-.2-.1-.3-.1-.5-.3-.8-.4-.5-.3-1.1-.5-1.6-.8-.2-.1-.5-.3-.8-.3-.2 0-.5 0-.7.1s-.2.4-.3.4v-.1c-.1-.1-.2.2-.4.2-.3.2-.9.8-1.1 1.1l-.3.6h.2c.1 0 .1.1.1.1.2.3.9.1 1.2.2h-1.6c0 .1-.2.5-.3.5l-.2.2c-.1.2-.2.3-.4.5-.1 0-.2.1-.2.1.5 0 .6-.5.9-.6-.1.1-.2.2-.2.3-.2.4-.4.3-.6.5.6 0 .7-.3.9-.4.2 0 .8.3 1 .3.1 0 .2.1.3.1h.1c.1 0 .1.1.3.1.1 0 .1-.2.1-.3 0-.1-.1-.2-.1-.3 0-.1.1 0 .2 0 0 0 0-.1-.1-.2s-.3-.3-.3-.4h.1l.7.1.1.3s-.1.3-.1.4c-.1.1-.2.2-.2.4s.1.4.2.6.3.1.5.1c.1 0 .1.1.2.1.2.1.4.2.7.2.1 0 .3 0 .4-.1s-.1-.1 0-.2h.1c.1 0 .8.1.8 0v-.1c-.1-.1-.3-.1-.5-.1s-.3-.1-.5-.1c-.1 0-.1.1-.2.2-.2.1-.6-.1-.6-.3-.1-.2.1-.4.2-.5s.2-.1.3-.2c.1 0 0-.1 0-.2.1-.1.4.1.5 0 .1 0 0-.2.2-.3.1 0 .2.1.3.1.1 0 .2 0 .3.1v.2c0 .1.2.1.2.1h.4c.1 0 .2 0 .4.1h.4c.1 0 0 .1.1.3-.1 0-.5-.1-.5 0 .3.3 1.1.6 1.6.6h.9c.2 0 .2-.2.3-.2.1 0 .3.2.4.3.1.1.2.1.3.2.2.1.3-.1.4 0 .2.1.2.5.5.4l.1-.1v-.3c0-.1.2.1.2-.1h-.1c-.3-.1-.2-.4-.6-.5-.2 0-.4-.1-.5-.1s-.2 0-.2-.1h.3l-1.5-.3s-.1-.1-.1-.2.2.1.2-.1c0-.1-.1-.2 0-.3.2 0 .5.1.7.1-1.3-.3-2.6-.6-3.8-.9-.3-.1-.6-.1-.8-.2 1.1.2 2.2.4 3.4.6-.6-.1-1.2-.3-1.9-.4-.9-.2-1.9-.3-2.8-.5-.6-.1-1.2-.2-1.9-.3 0 0 .1.1.2.1-.1 0-.4 0-.4-.1.1-.1.2-.2.4-.2.3 0 .6.1.9.1 1.7.2 3.4.4 5.1.7 1.8.3 3.6.6 5.3 1.1.3.1 2.2.6 2.2.6-.2.4-.9.2-1 .2zm-12.8-.3h-.2c-.1 0-.1-.1-.1-.2v-.1c.1 0 .2 0 .2.1.1 0 .2.1.1.2zm6.1.6c.2 0 .4.1.6.1l.1.1h-.1l-.8-.2-.1-.1c.1.1.1.1.3.1zm-4.3-.8s.1-.1 0 0h.2l-.2.4c-.1.2 0 .4 0 .6-.1-.1-.2-.3-.2-.5l.2-.5zm-1.4-2.1s-.1 0-.1-.1l.1.1 2.2.3h.1s-1.6-.2-2.3-.3zm2.6-.4l-1.2-.3s-.1 0-.1-.1c.1 0 .8.1.9.2h.2l.2.2zm-13.2 3.2c.1 0 .1-.1.1-.1.1.1.1.2.2.3h.2l.1-.1c0-.1-.1-.2-.1-.3-.1-.1-.2 0-.3 0h-.4v.1c0 .1.1.1.2.1zm4.9-.5c-.2-.1-.3-.3-.4-.5l-.2-.2s-.2-.5-.3-.5h-1.6c.3-.1 1 .1 1.2-.2 0 0 0-.1.1-.1s.1.1.2 0c-.1-.2-.1-.5-.3-.6-.2-.3-.8-.9-1.1-1.1-.1-.1-.3-.3-.4-.2v.1c-.1 0-.1-.2-.3-.4-.2-.1-.4-.2-.7-.1-.3.1-.5.2-.8.3-.5.3-1.1.5-1.6.8-.3.1-.5.3-.8.4-.1 0-.1 0-.2.1 0 .1 0 .2.1.3.2.1.4 0 .6-.1-.1.1-.2.1-.4.2-.1 0-.3.1-.4.1-.2 0-.4.1-.5.2-.1 0-.2 0-.2.2 0 .1-.1.1-.1.1-.6.1-1.2.3-1.8.4-.4.1-.7.2-1.1.3-1.2.3-2.4.6-3.6 1-.1 0-.7.2-.8.3.1 0 2-.5 2.2-.6 1.8-.4 3.5-.7 5.3-1.1 1.7-.3 3.4-.5 5.1-.7.3 0 .6-.1.9-.1.2 0 .2 0 .4.2 0 .1-.4.1-.4.1.1 0 .1-.1.2-.1-.6.1-1.2.2-1.9.3-.9.1-1.9.3-2.8.5-.6.1-1.2.3-1.9.4 1.1-.1 2.3-.4 3.4-.6-.3.1-.6.1-.8.2-1.3.3-2.6.6-3.8.9.2 0 .5-.1.7-.1.1.1 0 .1 0 .3.1.2.2 0 .2.1 0 0 0 .2-.1.2l-1.5.3h.3c0 .1-.1.1-.2.1-.2 0-.4.1-.5.1-.4.1-.3.4-.6.5h-.1c0 .1.1-.1.2.1 0 .1-.1.2 0 .3 0 0 0 .1.1.1.2.1.3-.4.5-.4.1-.1.3.1.4 0 .1 0 .2-.1.3-.2s.2-.3.4-.3c.1 0 .1.2.3.2h.9c.5-.1 1.3-.3 1.6-.6 0-.1-.4 0-.5 0 .1-.2 0-.3.1-.3h.4c.1 0 .2 0 .4-.1h.4c.1 0 .2 0 .2-.1s-.1-.1 0-.2.2-.1.3-.1.2-.1.3-.1 0 .2.2.3c.1 0 .5-.1.5 0v.2c.1.1.2.1.3.2s.3.3.2.5c0 .2-.5.4-.6.3s-.1-.2-.2-.2c-.2.1-.3.1-.5.1-.1 0-.3.1-.5.1 0 0-.1 0 0 .1s.7 0 .8 0h.1c.1.1-.1.1 0 .2s.3.2.4.1c.2-.1.5-.1.7-.2.1 0 .1-.1.2-.1.2-.1.3 0 .5-.1.1-.2.2-.4.2-.6s-.1-.3-.2-.4c0 0-.1-.3-.1-.4l.1-.3.7-.1h.1c0 .1-.2.3-.3.4 0 0-.1.1-.1.2s.1 0 .2 0c0 .1-.1.2-.1.3 0 .1 0 .2.1.3.2.1.2-.1.3-.1h.1c.1 0 .2 0 .3-.1.2-.1.8-.3 1-.3s.3.4.9.4c-.2-.2-.3-.1-.6-.5-.1-.1-.2-.2-.2-.3.4.1.4.7.9.6-.2-.5-.3-.5-.4-.6zm-4.7-2.7l.1-.1h.2c.2-.1.8-.2.9-.2 0 0-.1 0-.1.1-.3 0-.7.1-1.1.2zm2.6.4c-.7.1-2.3.3-2.3.3h.1l2.2-.3.1-.1c0 .1-.1.1-.1.1zm-5.5 3l-.8.2h-.1s0-.1.1-.1c.2-.1.4-.1.6-.1.2-.1.2-.1.2 0zm4.1.1s-.1 0 0 0c0-.2.1-.4 0-.6l-.2-.4c0-.1.1-.1.1-.1s.1 0 .1.1l.2.5c0 .2-.1.4-.2.5zm1.9-.8h-.2v-.2c.1-.1.1-.1.2-.1v.1c.1 0 .1.1 0 .2z"/><path fill="#DADADA" d="M23.6 16.1l.1-.1c-.1-.2-.2-.3-.3-.5.1.2.1.4.2.6z"/><path fill-rule="evenodd" fill="#001F47" d="M15.8 21.4l.3.5c0 .1.1.1.1.2s-.1.2-.1.2l-.7.5c-.1 0-.1.1-.2.1h-.1c0 .1 0 .2-.2.2l-.8.5c-.1 0-.1.1-.1.2l-.2-.3c0-.1.1-.1.1-.2l.8-.6-.1-.2-1 .7-.2-.2 2.4-1.6zm-.7 1.3l.8-.5-.2-.2-.8.5.2.2zm1.9.3c0-.1 0-.2-.1-.2l-.5-.4-1.9 2.2.5.4c.1 0 .1.1.2.1s.2 0 .2-.1l.6-.6c.1-.1.1-.2.1-.3.1 0 .1 0 .2-.1l.6-.7c.1-.2.1-.3.1-.3zm-1.1.9l-.6.7-.2-.2.6-.7.2.2zm0-.4l.2.2.6-.7-.2-.2-.6.7z"/></svg>