<svg baseProfile="tiny" xmlns="http://www.w3.org/2000/svg" width="40" height="40"><path fill="#ECC200" d="M19.5 34.8c-2-1.7-4-3.1-6.3-4.3-3.3-1.7-6.1-3.1-7.1-7.2 0-.1 0-.3.1-.4 1.6-3 1.3-6.7-1.1-9.2-.2-.2-.2-.6 0-.8L10.9 7c.1-.1.4-.2.6-.2 2.9.7 5.7.1 8.2-1.5.1-.1.5-.1.6 0 2.5 1.6 5.3 2.2 8.2 1.5.1 0 .5.1.6.2l5.8 5.9c.2.2.2.6 0 .8-2.4 2.5-2.8 6.2-1.1 9.2 0 .1.1.3.1.4-1 4.1-3.8 5.5-7.1 7.2-2.3 1.2-4.3 2.6-6.3 4.3h-1z"/><path fill="#5D3B85" d="M19.9 33.5c.7-.6 1.5-1.2 2.3-1.8.9-.7 1.9-1.3 2.9-1.8.3-.2.7-.3 1-.5 2.9-1.5 5.5-2.8 6.4-6.2-1.6-3.2-1.3-7.1 1.1-10L28.5 8c-3 .6-5.9 0-8.5-1.5-2.6 1.5-5.5 2-8.5 1.5l-5.1 5.3c2.4 2.8 2.7 6.7 1 10 .9 3.4 3.5 4.7 6.4 6.2.3.2.7.3 1 .5 1 .5 2 1.1 2.9 1.8.7.4 1.5 1 2.2 1.7z"/><path fill="#ECC200" d="M19.9 27.2c4.2 0 7.6-3.4 7.6-7.6S24.1 12 19.9 12s-7.6 3.4-7.6 7.6c0 4.2 3.4 7.6 7.6 7.6z"/><path fill="#FFF" d="M19.9 26c3.5 0 6.4-2.9 6.4-6.4s-2.9-6.4-6.4-6.4c-3.6 0-6.4 2.9-6.4 6.4s2.8 6.4 6.4 6.4z"/><path fill-rule="evenodd" fill="#ECC200" d="M17.4 23.8s.1-.1.3-.2c.2-.1.3-.2.5-.2s.3.1.5.2c.1.1.3.2.4.2s.3-.1.4-.2c.2-.1.3-.2.5-.2s.3.1.5.2c.1.1.3.2.4.2s.3-.1.4-.2c.2-.1.3-.2.5-.2s.3.1.5.2c.1.1.3.2.4.2h-.1c-.1 0-.2-.1-.3-.2-.2-.1-.3-.2-.4-.2s-.3.1-.4.2c-.2.1-.3.2-.5.2s-.3-.1-.5-.2c-.1-.1-.3-.2-.4-.2s-.3.1-.4.2c-.2.1-.3.2-.5.2s-.3-.1-.5-.2-.3-.2-.4-.2-.3.1-.4.2c-.3.2-.4.2-.5.2zm-.6-.2c-.1-.1-.3-.1-.4-.2.1 0 .3 0 .4.2 0-.1 0-.1 0 0 0-.1 0-.1 0 0zm.9.3c.1-.1.2-.1.4-.1s.3.1.5.2.3.2.4.2.3-.1.4-.2c.2-.1.3-.2.5-.2s.3.1.5.2.3.2.4.2.3-.1.4-.2c.2-.1.3-.2.5-.2.1 0 .2.1.4.1h-.2c-.1-.1-.2-.1-.2-.1-.1 0-.3.1-.4.2h-.1c-.1 0-.2 0-.3.1-.1 0-.1 0-.2.1-.1 0-.2-.1-.3-.2-.1-.1-.3-.2-.4-.2s-.3.1-.4.2-.2.2-.3.2c-.1 0-.2-.1-.2-.1-.1 0-.2 0-.3-.1h-.1c-.2-.1-.3-.2-.4-.2s-.2 0-.2.1h-.4c.1 0 .1 0 0 0zm.4 0s-.1 0 0 0c-.1 0 0 0 0 0h.2-.2c.1.1.1 0 0 0zm1.3.4c0 .1.1.1 0 0 .2-.1.4-.1.5-.1s.3.1.4.2h.1c-.2-.1-.3-.2-.5-.2-.2-.1-.3 0-.5.1zm.3.1s-.1 0-.1.1l.1.1v-.2h.2c.1 0 .1 0 .2.1l.1-.1s-.1 0-.1-.1c-.1 0-.2-.1-.2-.1-.1.1-.2.1-.2.2zm1.7-.4h.3-.1c0-.1-.1-.1-.2 0zm2-.7c-.1.1-.2.2-.4.2.1-.1.3-.1.4-.2z"/><path fill="#ECC200" d="M16.8 18.1l.1.1-.1-.1.1.2c.1.1.1.3.1.4v.1l1.2-.6v1h-1l.3.3-.3.3h1v.6l-2.7 1.4v.1h.1v.4s0 .1.1.1c0 0 0 .1.1.1l2.5-1.3v1.6c-.2-.1-.4.1-.6.2s-.3.2-.4.2-.3-.1-.4-.2c-.2-.1-.3-.2-.5-.2-.1 0-.2 0-.3.1l.1.1c.1 0 .1-.1.2-.1s.3.1.4.2c.2.1.3.2.5.2s.3-.1.5-.2c.4-.3.5-.3.9 0 .1.1.3.2.5.2s.3-.1.5-.2c.4-.3.5-.3.8 0 .2.1.3.2.5.2s.3-.1.5-.2c.4-.3.5-.3.9 0 .2.1.3.2.5.2s.3-.1.5-.2.3-.2.4-.2.1 0 .2.1l.1-.1c-.1 0-.2-.1-.3-.1-.2 0-.3.1-.5.2-.1.1-.3.2-.4.2s-.3-.1-.4-.2c-.2-.1-.4-.3-.6-.2v-1.6l2.5 1.3v-.1s0-.1.1-.1V22h.1v-.1l-2.7-1.4v-2.2l1.2.6v-.1c0-.1 0-.3.1-.4v-.1s0-.1.1-.1l-1.4-.7V16h-.2v.2h-1l.2.3-.2.3h1v.6h-2.9v-1.5h-.2v.2h-1l.3.3-.3.3h1v.6l-1.8.8z"/><path fill="#3BA1CE" d="M21 18h.3v-.5H21v.5zm-.4 0h.3v-.5h-.3v.5zm-.4 0h.3v-.5h-.3v.5zm-.4 0h.3v-.5h-.3v.5zm-.5 0h.3v-.5h-.3v.5zm-.4 0h.3v-.5h-.3v.5zm-.4-.5v.5h.3v-.5h-.3zm2.5 3.6h.3v-.5H21v.5zm-.4 0h.3v-.5h-.3v.5zm-.4 0h.3v-.5h-.3v.5zm-.4 0h.3v-.5h-.3v.5zm-.5 0h.3v-.5h-.3v.5zm-.4 0h.3v-.5h-.3v.5zm-.4 0h.3v-.5h-.3v.5zm-1.4-2.9l.3-.2v.5l-.3.2v-.5zm.4-.3l.3-.2v.5l-.3.2v-.5zm.4-.1l.3-.2v.4l-.3.2v-.4zm-2.1 4.1l.3-.2v.5l-.3.2v-.5zm.4-.1l.3-.2v.4l-.3.2v-.4zm.4-.3l.3-.2v.5l-.3.2v-.5zm.5-.3l.3-.2v.5l-.3.2v-.5zm.4-.2l.3-.2v.5l-.3.2V21zm.4-.2l.3-.2v.5l-.3.2v-.5zm6.1 1.7l-.3-.2v-.5l.3.2v.5zm-.4-.3l-.3-.2v-.5l.3.2v.5zm-.4-.2l-.3-.2v-.5l.3.2v.5zm-.5-.2l-.3-.2v-.5l.3.2v.5zm-.4-.3l-.3-.2v-.5l.3.2v.5zm-.4-.2l-.3-.2v-.5l.3.2v.5zm.8-2.5l-.3-.2V18l.3.2v.6zm-.4-.3l-.3-.2v-.5l.3.2v.5zm-.4-.3l-.3-.2v-.5l.3.2v.5zm2.4 3.8c0 .1-.1.2-.1.3l.1-.3zm-8.8 0c0 .1.1.2.1.3l-.1-.3zm.3.6c.1.1.2.3.3.4.1 0 .2-.1.3-.1.2 0 .3.1.5.2.1.1.3.2.4.2s.3-.1.4-.2c.2-.1.4-.3.6-.2v-1.6l-2.5 1.3zm2.1 1.3h.3c.1 0 .2 0 .2.1h.1c-.2-.1-.3-.2-.4-.2-.1 0-.2 0-.2.1zm1.2.3c.1 0 .2.1.3.1.2-.1.3-.2.5-.2s.3.1.5.2c.1-.1.2-.1.3-.1-.1 0-.2-.1-.3-.2-.1-.1-.3-.2-.4-.2s-.3.1-.4.2c-.2.1-.4.2-.5.2zm2.1-.2h.2c.1 0 .2-.1.2-.1h.3c-.1-.1-.2-.1-.2-.1-.1 0-.3.1-.5.2.1 0 0 0 0 0zm-1.6.5l.3.3.3-.3h-.1c-.1 0-.2-.1-.2-.1-.1 0-.1 0-.3.1.1 0 .1 0 0 0z"/><path fill="#3BA1CE" d="M19.5 24.4h.2c.1 0 .2-.1.2-.1.1 0 .2 0 .2.1 0 0 .1 0 .1.1h.1c-.1-.1-.3-.2-.4-.2s-.3 0-.4.1zm4.8-2.5c.1-.6.1-1.2-.1-1.9-.7 0-1.4-.4-1.4-1.2l-1.2-.6v2.2l2.7 1.5zm-.5 1.1c.1-.1.2-.2.3-.4l-2.5-1.3V23c.2-.1.4.1.6.2s.3.2.4.2.3-.1.4-.2c.2-.1.3-.2.5-.2.1-.1.2-.1.3 0z"/><path fill="#3BA1CE" d="M16.1 23l.3.3c.1 0 .2.1.4.2.1.1.2.1.4.1h.1c.1 0 .2-.1.4-.2s.3-.2.5-.2.3.1.5.2.3.2.4.2.3-.1.4-.2c.2-.1.3-.2.5-.2s.3.1.5.2.3.2.4.2.3-.1.4-.2c.2-.1.3-.2.5-.2s.3.1.5.2c.1.1.3.2.4.2h.1c.1 0 .2-.1.4-.1.1-.1.2-.2.4-.2l.3-.3c-.1 0-.1-.1-.2-.1s-.3.1-.4.2c-.2.1-.3.2-.5.2s-.3-.1-.5-.2c-.4-.3-.5-.3-.9 0-.2.1-.3.2-.5.2s-.3-.1-.5-.2c-.4-.3-.5-.3-.8 0-.2.1-.3.2-.5.2s-.3-.1-.5-.2c-.4-.3-.5-.3-.9 0-.1.1-.3.2-.5.2s-.3-.1-.5-.2-.3-.2-.4-.2c-.1.1-.1.1-.2.1z"/><path fill="#3BA1CE" d="M17.4 23.8c.1 0 .2.1.3.1.1-.1.2-.1.4-.1s.3.1.5.2.3.2.4.2.3-.1.4-.2c.2-.1.3-.2.5-.2s.3.1.5.2.3.2.4.2.3-.1.4-.2c.2-.1.3-.2.5-.2.1 0 .2.1.4.1.1 0 .2-.1.3-.1-.1 0-.2-.1-.3-.2-.2-.1-.3-.2-.4-.2s-.3.1-.4.2c-.2.1-.3.2-.5.2s-.3-.1-.5-.2c-.1-.1-.3-.2-.4-.2s-.3.1-.4.2c-.2.1-.3.2-.5.2s-.3-.1-.5-.2-.3-.2-.4-.2-.3.1-.4.2c-.1.2-.2.2-.3.2zm3.9-4v-.4h-.8l.2.2-.2.2h.8zm0-3.5h-.8l.2.2-.2.2h.8v-.4zm-3 0h-.8l.2.2-.2.2h.8v-.4zm0 3.5v-.4h-.8l.2.2-.2.2h.8z"/><path fill="#3BA1CE" d="M17.1 18.9c0 .8-.7 1.2-1.4 1.2-.2.6-.2 1.3-.1 1.9l2.7-1.4V20h-1l.3-.3-.3-.3h1v-1l-1.2.5zm2-3.7c-.5.3-1 .3-1.5 0-.4.3-.8.5-1.3.6 0 .2-.2.5-.5.5-.1.2-.1.4-.1.7v.7c.2 0 .5 0 .7.1s.4.2.5.4l1.4-.7v-.6h-1l.3-.3-.3-.3h1v-.2h.2v1.5h2.9V17h-1l.2-.3-.2-.3h1v-.2h.2v1.5l1.4.7c.1-.2.3-.3.5-.4s.4-.1.7-.1v-.7c0-.2 0-.5-.1-.7-.3 0-.5-.2-.5-.5-.5-.1-.9-.3-1.3-.6-.5.2-1 .3-1.5 0-.2.3-.7.2-.8-.1-.2.1-.7.2-.9-.1z"/><path fill="#3BA1CE" d="M18.5 18.2v2.3h2.9v-.6h-1l.2-.3-.2-.3h1v-1.1h-2.9zm0 4.8l.1.1c.2.1.3.2.4.2s.3-.1.4-.2c.4-.3.5-.3.9 0 .2.1.3.2.4.2s.3-.1.4-.2l.1-.1v-1.8h-2.9V23h.2z"/><path fill="#ECC200" d="M11.9 16.2l-1.5-.8.5-1 .3.1-.3.6.3.2.3-.6.3.2-.3.6.6.3-.2.4zm1.5-2.6c0 .1 0 .2-.1.3s-.1.2-.2.3-.2.2-.3.2c-.1.1-.2.1-.3.1h-.3c-.1 0-.2-.1-.3-.2-.2-.2-.3-.4-.3-.6 0-.2.1-.5.2-.7.1-.1.1-.2.2-.2.1-.1.2-.1.3-.2l.3.3c-.1 0-.2.1-.3.1-.1.1-.2.1-.2.2-.1.1-.2.3-.2.4 0 .1.1.3.2.4.1.1.2.1.4.1.1 0 .2-.1.4-.2.1-.1.1-.2.1-.3s.1-.2.1-.3l.3.3zm.9-.7l-1-1.4.9-.7.2.3-.6.4.2.3.6-.4.2.3-.6.4.2.3.6-.4.2.3-.9.6z"/><path fill-rule="evenodd" fill="#ECC200" d="M14.9 10.5l.7 1.6.4-.2-.3-.6h.2c.1 0 .1 0 .2.1l.4.4.4-.2-.5-.4c-.1 0-.1-.1-.1-.1h-.1c.1-.1.1-.2.1-.3v-.3c-.1-.2-.2-.3-.3-.3-.1 0-.3 0-.5.1l-.6.2zm1 .2l-.1.1-.2.1-.2-.4.2-.1h.2c.1 0 .1 0 .1.1v.2z"/><path fill="#ECC200" d="M17 11.4l.6-1.6-.8.2-.1-.3 1.6-.4-.6 1.6.9-.2.1.3-1.7.4zm3.5-.7c-.1.1-.2.1-.3.2-.1 0-.2.1-.4.1-.1 0-.3 0-.4-.1-.1 0-.2-.1-.3-.2-.1-.1-.2-.2-.2-.3-.1-.1-.1-.2-.1-.4 0-.3.1-.5.3-.6.2-.2.4-.3.7-.3h.3c.1 0 .2.1.3.1v.4c-.1-.1-.2-.1-.3-.1h-.3c-.2 0-.3.1-.4.1-.1.1-.1.2-.1.4s.1.3.2.4c.1.1.2.1.4.1h.2v-.2h-.2V10h.7l-.1.7zm.4.3l.3-1.7 1.1.2-.1.3-.7-.1-.1.3.7.1-.1.3-.7-.1-.1.4.7.1-.1.3-.9-.1z"/><path fill-rule="evenodd" fill="#ECC200" d="M23.1 9.7l-.6 1.6.7.3c.2.1.4.1.5.1s.2-.1.3-.3c0-.1.1-.2 0-.3 0-.1-.1-.2-.2-.3.1 0 .2 0 .2-.1 0 0 .1-.1.1-.2v-.4c0-.1-.2-.2-.4-.3l-.6-.1zm.3.9h.2c.1 0 .1 0 .1-.1v-.2l-.1-.1-.2-.1-.1.3.1.2zm-.4.6l.2.1c.1 0 .2.1.2 0 .1 0 .1-.1.1-.1V11s-.1-.1-.2-.1l-.2-.1-.1.4z"/><path fill="#ECC200" d="M24.1 12l.8-1.5.4.2-.8 1.5-.4-.2z"/><path fill-rule="evenodd" fill="#ECC200" d="M24.9 12.5zm0 0l.3.3.4-.5c.1.1.1.1.1.2v.2l-.1.5.4.3.1-.6v-.3h.3c.1 0 .2-.1.2-.1.1-.1.1-.3.1-.4 0-.1-.2-.3-.3-.4l-.5-.4-1 1.2zm1.3-.3c-.1 0-.1 0-.2-.1l-.2-.1.2-.3.2.1c.1 0 .1.1.1.1s0 .1-.1.2c.1 0 0 .1 0 .1z"/><path fill="#ECC200" d="M27.3 14.7c-.1 0-.2-.1-.3-.1l-.3-.3c-.1-.1-.2-.2-.2-.3s-.1-.2 0-.3c0-.1 0-.2.1-.3s.1-.2.2-.3c.2-.2.4-.2.7-.2.2 0 .5.2.6.4.1.1.1.2.2.3 0 .1.1.2.1.3l-.3.1c0-.1-.1-.2-.1-.3s-.1-.2-.2-.3-.2-.2-.4-.2c-.1 0-.3 0-.4.1s-.2.2-.2.4c0 .1 0 .3.1.4l.1.1.1.1.2-.1-.2-.2.2-.2.4.5-.4.4zm.1.5l1.5-.8.5 1-.3.1-.3-.6-.3.2.3.6-.3.2-.3-.6-.4.2.3.7-.3.1-.4-1.1z"/><path fill-rule="evenodd" fill="#ECC200" d="M18.1 28.1L17 29.6l.4.1.2-.3.7.1.1.3.5.1-.3-1.8h-.5zm.2 1.1l-.5-.1.4-.6.1.7z"/><path fill="#ECC200" d="M21.3 29.9l-.3-1.7 1.1-.2.1.3-.7.1.1.3.7-.1.1.3-.7.1.1.4.7-.1.1.3-1.3.3zm-1.4-4.7c-.6-1-1.8-.9-2.8-1.2-2.1-.6-2.3-2.6-1.7-4.3.6.1 1.3 0 1.3-.8 0-.4-.2-.7-.5-.8-.2-.1-.5-.1-.8 0-.1-.8-.1-1.5.2-2.2 0-.2.2-.5.4-.3.6-.1 1.1-.2 1.5-.7.6.3 1.1.4 1.6-.1.1-.1.2-.2.3-.2.4 0 .4.7 0 .7-.1 0-.2-.1-.3-.3-.5.4-1.1.4-1.6.1-.4.4-.9.6-1.5.7.1.3-.2.6-.4.4-.2.6-.2 1.2-.1 1.8.3-.1.5 0 .8 0 .4.2.7.6.6 1-.1.7-.8 1-1.4 1-.4 1.6-.2 3.3 1.6 4 .6.2 1.2.3 1.8.4.4 0 .8.4 1 .8z"/><path fill="#ECC200" d="M19.9 25.2c.6-1 1.8-.9 2.8-1.2 2.1-.6 2.3-2.6 1.7-4.3-.6.1-1.3 0-1.3-.8 0-.4.2-.7.6-.8.2-.1.5-.1.8 0 .1-.8.1-1.5-.2-2.2 0-.2-.2-.5-.4-.3-.6-.1-1.1-.2-1.5-.7-.6.3-1.1.4-1.6-.1-.1-.1-.2-.2-.3-.2-.4 0-.4.7 0 .7.1 0 .2-.1.3-.3.5.4 1 .4 1.6.1.4.4.9.6 1.5.7-.1.3.2.6.4.4.2.6.2 1.2.1 1.8-.3-.1-.5 0-.8 0-.4.2-.7.6-.6 1 .1.7.8 1 1.4 1 .4 1.6.2 3.3-1.6 4-.6.2-1.2.3-1.8.4-.5 0-.9.4-1.1.8z"/><path fill="#ECC200" d="M19.4 24.1c.1-.1.2-.1.2-.2.1 0 .2-.1.2-.1.1 0 .2 0 .2.1.1 0 .2.1.2.2 0 0 0 .1-.1.1-.1-.1-.2-.1-.2-.1-.1 0-.2-.1-.2-.1-.1 0-.1 0-.3.1.2 0 .1 0 0 0 0 .1 0 .1 0 0zm-1.7-.3c.1 0 .1-.1.2-.1s.2-.1.2-.1c.1 0 .2 0 .2.1.1 0 .2.1.2.1.1 0 0 .1 0 .1-.1 0-.2-.1-.2-.1-.1 0-.1-.1-.2-.1s-.1 0-.2.1h-.2s-.1 0 0 0z"/><path fill="#ECC200" d="M19.4 23.8c.1-.1.2-.1.2-.2.1 0 .2-.1.2-.1.1 0 .2 0 .2.1.1 0 .2.1.2.2 0 0 0 .1-.1.1-.1-.1-.2-.1-.2-.1-.1 0-.2-.1-.2-.1-.1-.1-.1-.1-.3.1.2 0 .1 0 0 0zm1.8 0c.1-.1.2-.1.2-.1.1 0 .2-.1.2-.1.1 0 .2 0 .2.1.1 0 .1.1.2.1 0 0 0 .1-.1.1s-.1-.1-.2-.1-.1-.1-.2-.1-.1-.1-.3.1c.2 0 .2 0 0 0zm-1.9 6c-.1-.1-.2-.3-.2-.6v-1h.4v1c0 .1 0 .2.1.3.1.2.4.1.5 0s.1-.2.1-.3v-1h.4v1c0 .2-.1.4-.2.6-.2.3-.8.3-1.1 0zm-1.6-6.5c.1 0 .1-.1.2-.1s.2-.1.2-.1c.1 0 .2 0 .2.1.1 0 .2.1.2.1.1 0 0 .1 0 .1-.1-.1-.2-.1-.2-.1-.1 0-.1-.1-.2-.1s-.1 0-.2.1h-.2c0 .1-.1 0 0 0zm1.7 0c.1-.1.2-.1.2-.2.1 0 .2-.1.2-.1.1 0 .2 0 .2.1.1 0 .2.1.2.2 0 0 0 .1-.1.1-.1-.1-.2-.1-.2-.1-.1 0-.2-.1-.2-.1-.1 0-.1 0-.3.1.2 0 .1 0 0 0 0 .1 0 .1 0 0zm1.8 0c.1-.1.2-.1.2-.1l.2-.1c.1 0 .2 0 .2.1.1 0 .1.1.2.1 0 0 0 .1-.1.1s-.1-.1-.2-.1-.1-.1-.2-.1-.1 0-.3.1c.2 0 .2 0 0 0 0 .1 0 .1 0 0z"/></svg>