<svg baseProfile="tiny" xmlns="http://www.w3.org/2000/svg" width="40" height="40"><path fill-rule="evenodd" d="M20 5c3.4 0 6.6 1.7 8.8 4.4 2.2 2.7 3.6 6.5 3.6 10.6s-1.4 7.9-3.6 10.6S23.4 35 20 35c-3.5 0-6.6-1.7-8.8-4.4C9 27.9 7.6 24.1 7.6 20S9 12.1 11.2 9.4C13.5 6.7 16.6 5 20 5zm0 29.7c3.3 0 6.4-1.6 8.6-4.3s3.6-6.3 3.6-10.4-1.4-7.7-3.6-10.4-5.2-4.3-8.6-4.3c-3.3 0-6.4 1.6-8.6 4.3S7.8 15.9 7.8 20s1.4 7.7 3.6 10.4c2.3 2.6 5.3 4.3 8.6 4.3z"/><path fill="#FFF" d="M28.6 30.4c-2.2 2.7-5.2 4.3-8.6 4.3-3.3 0-6.4-1.6-8.6-4.3S7.8 24.1 7.8 20s1.4-7.7 3.6-10.4 5.2-4.3 8.6-4.3c3.3 0 6.4 1.6 8.6 4.3s3.6 6.3 3.6 10.4-1.4 7.7-3.6 10.4z"/><path d="M22 22.6l-.4-.4-.3-.3c0 .1.1.3.1.4l.1.6.5-.3zm-3.8 1.2c-.1-.1-.2-.1-.3-.1-.1 0-.2 0-.3.1l-.3.2.7 1.4.3-.2c.1-.1.2-.1.3-.2.1-.1.1-.2.1-.3 0-.1-.1-.3-.2-.5s-.2-.3-.3-.4zm8.3 2.9c-.1-.1-.2-.1-.4 0-.1.1-.2.2-.2.3 0 .1 0 .3.1.5s.2.3.4.4c.1.1.3.1.4 0s.2-.1.2-.3c0-.1 0-.3-.1-.5l-.4-.4z"/><path d="M28.2 10c-2.1-2.6-5-4.2-8.1-4.2-3.2 0-6.1 1.6-8.2 4.2s-3.4 6.1-3.4 10 1.3 7.4 3.4 10 5 4.2 8.2 4.2 6.1-1.6 8.1-4.2c2.1-2.6 3.4-6.1 3.4-10s-1.3-7.4-3.4-10zm-3.8 10.2c0-.1.2-.3.3-.3.1-.1.2-.1.3-.1.1 0 .2 0 .3.1.1.1.2.1.2.3l-.2.1-.2-.2c-.1 0-.2 0-.3.1-.1.1-.2.1-.2.2v.2c0 .1.1.1.2.1h.4c.2 0 .3-.1.4-.1s.2 0 .3.1c.1.1.2.1.2.2.1.1.1.2.1.3 0 .1 0 .2-.1.3-.1.1-.2.2-.3.2-.2.1-.4.1-.5.1-.2-.1-.3-.2-.4-.4l.2-.1c.1.1.1.2.2.2s.1.1.2.1.2 0 .3-.1c.1-.1.2-.1.2-.2V21c0-.1-.1-.1-.1-.1h-.2c-.1 0-.2 0-.4.1h-.4c-.1 0-.2 0-.2-.1-.1 0-.1-.1-.2-.2-.2-.2-.2-.4-.1-.5zM19 22.8l.4.8.8-.4-.4-.8.2-.1.9 1.8-.2.1-.4-.9-.8.4.4.9-.2.1-.9-1.8.2-.1zm-5.5 5.1c-.1.1-.2.2-.3.2-.2.1-.4.1-.5.1-.2-.1-.3-.2-.4-.4l.2-.1c.1.1.1.2.2.2s.2.1.2.1c.1 0 .2 0 .3-.1.1-.1.2-.1.2-.2v-.3c0-.1-.1-.1-.1-.1h-.2c-.1 0-.2 0-.4.1h-.4c-.1 0-.2 0-.2-.1-.1 0-.1-.1-.2-.2s-.1-.3 0-.4c0-.1.2-.3.3-.3.1-.1.2-.1.3-.1.1 0 .2 0 .3.1.1.1.2.1.2.3l-.2.1-.2-.2c-.1 0-.2 0-.3.1-.1.1-.2.1-.2.2v.2c0 .1.1.1.2.1h.4c.2 0 .3-.1.4-.1s.2 0 .3.1c.1.1.2.1.2.2s.1.2.1.3c-.1 0-.1.1-.2.2zm1.9-1l-.5-.5-.6.3.1.6-.2.1-.3-2.1.2-.1 1.6 1.5-.3.2zm1.7-.8l-1.5-1 .7 1.4-.2.1-.9-1.8.2-.1 1.6 1-.7-1.4.2-.1.9 1.8-.3.1zm1.7-1c-.1.1-.2.2-.4.3l-.6.3-.8-1.9.5-.3c.1-.1.2-.1.3-.1h.3c.1 0 .2.1.3.2.1.1.2.2.3.4.1.2.2.4.2.6 0 .2 0 .4-.1.5zm2 6l-1-2c0 .1-.1.2-.1.3-.1.1-.1.2-.2.3l-.2-.3c.1-.2.2-.3.2-.5s.1-.3.1-.5l.2-.1 1.3 2.5-.3.3zm.5-9.5l1.6 1.5-.2.1-.5-.5-.7.3.1.6-.2.1-.3-2.1h.2zm1.8 8.2c-.1.1-.2.3-.3.3-.2.1-.3.1-.5 0s-.3-.2-.4-.4l.2-.2c.2.2.4.3.6.2.1 0 .2-.1.2-.2v-.4c0-.2-.1-.4-.2-.6v-.1c0 .1 0 .2-.1.4-.1.1-.1.2-.2.2-.2.1-.3.1-.6 0-.2-.1-.4-.3-.5-.5-.1-.3-.2-.5-.1-.7s.2-.4.3-.5c.1-.1.3-.1.4-.1.2 0 .3.1.4.2.2.1.3.4.5.7.2.3.3.6.3.9v.8zm-.2-7.7l-.5-1.1.2-.1.5 1.1c.1.2.2.3.2.3.1.1.1.1.2.1s.2 0 .3-.1c.1-.1.2-.2.2-.3 0-.1 0-.3-.1-.5l-.5-1.1.2-.1.5 1.1c.1.2.2.3.2.5 0 .1 0 .3-.1.4l-.3.3c-.2.1-.4.1-.6.1-.1-.1-.2-.3-.4-.6zm1.9 7l-1-2c0 .1-.1.2-.1.3-.1.1-.1.2-.2.3l-.2-.3c.1-.2.2-.3.2-.5s.1-.3.1-.5l.2-.1 1.3 2.5-.3.3zm2.3-1.3l-.3.3c-.2.1-.4.1-.7 0-.2-.1-.5-.4-.7-.8-.2-.5-.3-.9-.3-1.1 0-.3.2-.5.4-.6.2-.1.3-.1.5 0s.3.2.4.4l-.2.2-.2-.2h-.3c-.1.1-.2.2-.2.5 0 .2.1.5.2.8 0-.1 0-.3.1-.4s.1-.2.2-.2c.2-.1.3-.1.5 0s.4.3.5.5.1.3.1.5c.1-.1.1 0 0 .1zm-.3-6.7l-.9-1.8 1.1-.6.1.2-.9.5.3.6.9-.4.1.2-.9.4.3.6 1-.5.1.2-1.2.6zm2-1l-.2.1-.9-1.8.2-.1 1.6 1-.7-1.4.2-.1.9 1.8-.2.1-1.5-1 .6 1.4z"/><path d="M22 27.8c-.1-.1-.2-.1-.4 0-.1.1-.2.2-.2.3 0 .2 0 .3.1.5s.2.3.3.3c.1.1.3.1.4 0s.2-.2.2-.3c0-.1 0-.3-.1-.5l-.3-.3zM14.2 26l.1.6.5-.3-.4-.4-.3-.3c0 .1 0 .2.1.4z"/><path fill="#FFF" d="M27.9 10.2c-2-2.5-4.8-4-7.9-4s-5.9 1.5-7.9 4-3.3 6-3.3 9.8c0 1.8.3 3.5.8 5.1l20.8-10.4c-.6-1.7-1.4-3.2-2.5-4.5z"/><path d="M18.5 16.5c-.2-.5-.6-.8-.9-1.1-.4-.2-.8-.3-1.2-.3-.5 0-1.1.1-1.8.3-.6.1-1 .2-1.3.2h-.2c-.2 0-.3-.1-.3-.2s-.1-.1-.1-.2 0-.1.1-.2c.1-.3.4-.5.8-.7.3-.2.6-.2.8-.2h.2c.2 0 .5.2.7.5l.1.1 1.7-.9-.1-.1c-.4-.7-.9-1.1-1.6-1.3-.2 0-.4-.1-.6-.1-.6 0-1.2.2-1.8.5-.6.3-1 .6-1.3 1s-.5.8-.6 1.3v.3c0 .4.1.7.2 1 .3.6.8 1 1.5 1.2.2 0 .4.1.6.1.4 0 .9-.1 1.4-.2.7-.2 1.1-.2 1.3-.3h.3c.1 0 .2 0 .3.1.1.1.2.1.3.3 0 .1.1.2.1.3 0 .1 0 .2-.1.4-.1.3-.4.5-.8.7-.3.1-.6.2-.8.2h-.3c-.3-.1-.6-.3-.9-.7l-.1-.1-1.6 1 .1.1c.5.8 1.1 1.3 1.9 1.5.2 0 .4.1.6.1.6 0 1.2-.2 1.9-.5.6-.3 1.1-.7 1.5-1.1.3-.4.5-.9.6-1.4v-.3c-.3-.5-.4-.9-.6-1.3zM16 11.3l1.8-.9 4.2 4.1-.9-5.8 1.8-.9 1.1 8.6h-.2.2v.1l-1.8.9-6.2-6.1z"/></svg>