<svg baseProfile="tiny" xmlns="http://www.w3.org/2000/svg" width="40" height="40"><path fill-rule="evenodd" fill="#941B2D" d="M5 20c0-8.3 6.7-15 15-15s15 6.7 15 15-6.7 15-15 15S5 28.3 5 20"/><path fill="none" stroke="#FFFFFE" stroke-width=".272" d="M6.7 19.9c0-7.4 6-13.3 13.3-13.3 7.4 0 13.3 6 13.3 13.3 0 7.4-6 13.3-13.3 13.3-7.3.1-13.3-5.9-13.3-13.3z"/><path fill-rule="evenodd" fill="#FFFFFE" d="M9.7 26.8h1.5v-3.9H15v-1.2h-3.8v-2.3h4.3v-1.3H9.7v8.7m13.2-6c-.2-1.9-1.7-3-3.6-3-2.5 0-4 2.1-4 4.6s1.5 4.6 4 4.6c2 0 3.5-1.4 3.6-3.5h-1.4c-.1 1.3-.8 2.3-2.1 2.3-1.8 0-2.6-1.7-2.6-3.3 0-1.7.8-3.3 2.6-3.3 1.2 0 1.8.7 2.1 1.7l1.4-.1m.3 6h1.4v-6.4l3.8 6.4H30v-8.7h-1.4v6.4l-3.8-6.4h-1.6v8.7m-6.3-16h2v6h1.5V8.3h-1.1c-.2 1-1.3 1.4-2.4 1.4v1.1m4 6.1h1.6v-1.7h-1.6v1.7"/></svg>