<svg width="40" height="40" fill="none" xmlns="http://www.w3.org/2000/svg"><path d="M19.99 35.2c8.395 0 15.2-6.805 15.2-15.2S28.385 4.8 19.99 4.8 4.79 11.605 4.79 20s6.806 15.2 15.2 15.2z" fill="#003798"/><path fill-rule="evenodd" clip-rule="evenodd" d="M19.99 6.105C12.318 6.105 6.097 12.326 6.097 20c0 7.674 6.22 13.895 13.895 13.895 7.673 0 13.894-6.221 13.894-13.895 0-7.674-6.22-13.895-13.895-13.895zM5.59 20c0-7.953 6.448-14.4 14.4-14.4 7.953 0 14.4 6.447 14.4 14.4s-6.447 14.4-14.4 14.4c-7.952 0-14.4-6.447-14.4-14.4z" fill="#fff"/><path d="M12.79 28.8V13.299l2.036-.27v5.759l2.042-6.028 2.156-.286-2.482 7.329 2.425 7.85-2.097.39-2.044-6.618v6.997l-2.036.378zm16.8-3.117l-.036-2.042-2.036.287a.702.702 0 01-.581-.179.884.884 0 01-.268-.657v-8.363c0-.285.106-.56.273-.764a.925.925 0 01.576-.345l1.187-.167V11.2l-1.968.277c-.62.087-1.17.46-1.546.962a2.79 2.79 0 00-.558 1.655v10.138c0 .56.196 1.092.575 1.468.383.38.93.573 1.53.488l.017-.003 2.757-.488.078-.014zm-7.189 1.334c.726-2.624.89-4.27.73-5.467a5.084 5.084 0 00-.508-1.654c-.08-.163-.168-.321-.244-.461l-.057-.105a5.91 5.91 0 01-.241-.485 29.734 29.734 0 00-.157-.355c-.284-.64-.453-1.02-.403-1.715.062-.853.483-2.243 1.889-4.88l-2.322.306c-1.046 2.107-1.514 3.561-1.597 4.71-.089 1.224.28 2.035.576 2.687.045.099.089.194.129.287a7.606 7.606 0 00.378.752c.074.136.14.255.203.384.154.31.276.632.336 1.079.116.88.005 2.368-.866 5.316l2.154-.4z" fill="#fff"/></svg>