<svg baseProfile="tiny" xmlns="http://www.w3.org/2000/svg" width="40" height="40"><g fill-rule="evenodd"><path fill="#FFFFFE" d="M36 17.4s0-.1-.2-.1H21.1c-.6-.6-1.3-.9-1.3-.9h9.1s.1 0 .1-.1l-.7-2.7s0-.1-.2-.1h-26s-.1 0-.1.1l.7 2.7s0 .1.2.1h1.3s.1 0 .2.1l2.4 8.7s0 .1.2.1h6.5s1.4 1.2 3.6 1.2 3.6-1.2 3.6-1.2H38s.1 0 .1-.1L36 17.4"/><path fill="#FFDA1A" d="M14.8 25.1c1.7 1 3.7.7 5 0h.7c-1.9 1.4-4.5 1.3-6.3 0h.6m-.7 0c-1.6-1.1-2.5-3.1-1.8-5.6h-1.5l1.5 5.3H7.4l-2.5-9H3.4l-.6-2h25.3l.5 2H9.9l.5 1.7h3.2c2.6-2.4 6.1-1.5 7.5.1h14.7l2 7.1H20.9l-.3.3h-.7c.2-.1.3-.2.5-.3l-.3-1.2c-.7.6-2 1.4-4 .5-1.7-.9-2.8-3.4-.6-5.4.8-.7 2.1-1 3-.7-.1-.4-.2-.9-.3-1.3-2.2-.3-4.3.8-5.2 2.9-.6 1.4-.4 3.7 1.7 5.2.1.1.2.2.3.2l-.9.2zm1.9-1.8v.2c-.1-.1 0-.1 0-.2zm-1.6-2.4c.3.4.7.7 1.4.9 0-.1.1-.2.1-.3-.6-.1-1-.4-1.2-.7-.1 0-.2.1-.3.1zm4.1-2.3c.4-.7.9-1.1 1.4-1.3 0-.1-.1-.2-.1-.3-.7.3-1.2.7-1.6 1.5l.3.1zm2.6-.4c-1.3.6-2 1.3-2.4 2.8.1 0 .2.1.3.1 0-.1.1-.2.1-.3.9.7 1.3 1.7 1.5 2.5.1 0 .2 0 .3-.1-.3-1.3-.8-2.2-1.7-2.8.2-.5.5-.9.8-1.2 1.2.9 1.8 2.1 1.8 3.7h.3c-.1-1.7-.8-3-1.9-3.9.3-.2.6-.4 1-.5h-.1c.1-.1.1-.2.2-.2h-.1l-.1-.1zM9.5 24.4h.6c-.1-.1-.1-.3-.1-.5-.2.1-.4.2-.6.2l.1.3zm11.9-6.3c1.5 1.9 1.5 4.5-.2 6.3h16l-1.8-6.3h-14zM6.2 14.2H3.4l.3 1.2h1.5l2.5 9H9c0-.1 0-.2-.1-.3-.9-.3-1.1-1.3-.5-1.9l-2.2-8zm3.1 8.1c-.4 0-.8.3-.8.8 0 .4.3.8.8.8.4 0 .8-.3.8-.8s-.4-.8-.8-.8zm-1.6-8.1L9.9 22c.6.3.8 1 .5 1.6.1.3.1.5.2.8h1.3L10.5 19h2.2c.2-.4.4-.8.7-1.1h-3.1l-.7-2.5h18.7l-.3-1.3H7.7v.1zm9.7 5h-.6s-.1-.1-.1-.2c-.1.1-.1.1 0 .2 0 .1.1.1.1.1h.6v-.1zm-8 2.7l-2.1-7.6h-.7L8.8 22c.2-.1.3-.1.6-.1z"/><path fill="#6F8F9D" d="M18 18.7c.1-.1.1-.1 0 0zm-.4.2c0-.1-.1-.1-.1-.2h-.1v.1c0 .1 0 .1.2.1-.1 0-.1 0 0 0zm-.2.5v-.2l-.1-.1c-.1 0-.3-.1-.4-.1h-.1c0-.1-.1-.1-.1-.2s0-.1.1-.1h.4c.1-.1.3-.2.5-.1h.3c.2 0 .3.1.2.2v.1c.1.2.1.3.1.5-.1.2-.1.3-.1.4.1.2.1.3.1.5-.1.2-.2.5-.1.6s.2.5.2.7c0 .1.1.2.2.3.1.1.1.2.1.3h-.1c.1.4.1 1 .2 1.1v.1s-.1 0-.1.1c-.1.3-.3.5-.7.6 0-.1-.1-.3-.2-.4.1-.1.2-.2.3-.2-.6-.5-.6-.6-.7-1.2 0 .2.1.3.1.5-.3.3-.6.5-.6 1 0 .1-.1.1-.2.1s-.2-.1-.3-.1c-.2 0-.4-.1-.5-.2 0-.1.1-.3.1-.4h.3s.1.1.2 0c-.1-.8.1-1 .7-1.4h.1l.1.1s.1 0 0 0c-.2-.1-.3-.3-.3-.5-.8.3-.9.2-1.5-.3l.1-.2c0-.1.1-.1.1-.2.2.1.3.2.3.3h.1c.2-.1.5-.3.8-.4-.1 0-.1.1-.2.1-.6-.4-1-.3-1.2-1.2.1-.1.2-.1.3-.2.1.1.1.2.2.4.3.1.6.2.9.2-.1.1-.1.2-.2.3v.2h.1c.1-.5.2-.6.7-.8v-.1c-.1 0-.1 0-.2-.1-.2.1-.2 0 0 0 0 0 .1 0 0 0z"/><path fill="#6F8F9D" d="M14.4 20.9c.1 0 .2-.1.3-.2.2.4.6.6 1.2.7 0 .1 0 .2-.1.3-.7 0-1.2-.3-1.4-.8m4.1-2.3l-.3-.1c.4-.8.9-1.2 1.6-1.5 0 .1.1.2.1.3-.5.2-1 .6-1.4 1.3m2.6-.4h.2c0 .1-.1.2-.2.2h.1c-.3.1-.7.3-1 .5 1.1.9 1.8 2.1 1.9 3.9h-.3c-.1-1.5-.7-2.8-1.8-3.7-.4.3-.7.7-.8 1.2.9.6 1.4 1.5 1.7 2.8-.1 0-.2 0-.3.1-.2-.9-.6-1.9-1.5-2.5 0 .1-.1.2-.1.3-.1 0-.2-.1-.3-.1.3-1.4 1.1-2.1 2.4-2.7"/><path fill="#FFFFFE" d="M22.4 18.5l1.3 4.7c.1.4.3.8.9.8h1.1c.3 0 .5-.1.4-.6-.4-1.6-.9-3.2-1.3-4.9h-.7l1.3 4.7c0 .1 0 .2-.1.2h-.4c-.1 0-.1 0-.1-.1-.4-1.6-.9-3.2-1.3-4.8h-1.1zm3.9 0h-1.1l1.5 5.4h.7l-.9-3.2 1.7 3.2h1.1l-1.5-5.4h-.6l.8 3-1.7-3zm7.3 0h-1.1l1.5 5.4h.7l-.9-3.2 1.7 3.2h1.1L35 18.5h-.6l.8 3-1.6-3zm-5.4 0l1.5 5.4h.9l-1.5-5.4h-.9zm1.5.6c.3 1.3.7 2.8 1.1 4.2.1.5.4.7.8.7h1.2c.3 0 .5-.1.6-.4v-.4L32.2 19c-.1-.3-.3-.4-.5-.4h-1.4c-.3 0-.5.2-.6.5zm-8.3-1h14l1.8 6.3h-16c1.6-1.8 1.7-4.4.2-6.3zm10.3 2c.3 1.1.6 2.1.9 3.2 0 .1 0 .1-.1.1h-.3c-.2 0-.3-.2-.3-.4s-.1-.3-.1-.5c-.3-1.1-.7-2.3-.9-3.4 0-.1 0-.1.1-.1h.5c0 .4.1.7.2 1.1z"/><path fill="#D8232A" d="M6.2 14.2l2.2 8c-.6.6-.4 1.6.5 1.9 0 .1.1.2.1.3H7.6l-2.5-9H3.6l-.3-1.2h2.9"/><path fill="#D8232A" d="M9.3 22.3c.4 0 .8.3.8.8 0 .4-.4.8-.8.8s-.8-.3-.8-.8.4-.8.8-.8z"/><path fill="#D8232A" d="M7.7 14.2h20.1l.3 1.3H9.4l.7 2.5h3.1c-.3.3-.5.6-.7 1.1h-2.2l1.4 5.4h-1.3c-.1-.3-.1-.5-.2-.8.4-.7.1-1.3-.5-1.6l-2-7.9"/><path fill="#D8232A" d="M18.3 18c-.9-.3-2.1 0-3 .7-2.2 2-1.1 4.6.6 5.4 1.9.9 3.3.1 4-.5l.3 1.2c-1.2 1-3.8 1.5-5.8.1-2-1.5-2.2-3.8-1.7-5.2.9-2.2 3-3.2 5.2-2.9.2.3.3.7.4 1.2"/><path fill="#D8232A" d="M17.5 19.5l-.1-.2s.1.1.1.2m-.1-.3v.1h-.6c-.1 0-.1-.1-.1-.1V19c0 .1 0 .1.1.2h.6m-1.9.3c.1-.1.2-.1.3-.2-.1 0-.2.1-.3.2m.3-.3s0 .1 0 0c-.1.1-.2.2-.4.2 0 0-.1 0-.1-.1h.1l-.1-.1s.1 0 .1.1l-.1-.1c.1.1.1.1.2.1 0-.1 0-.1-.1-.2 0 .1.1.1.1.2 0 0-.1-.1-.1-.2.3 0 .4.1.4.1m0 1.4l-.2.2.2-.2m-.2.2c-.1.1-.1.1-.1.2l.1-.2zm.1-.2c0 .1-.1.1-.1.2l.1-.2zm0 0l-.1.2-.1.2h-.1s-.1 0-.1-.1h.1s-.1 0-.1-.1h.1s-.1 0-.1-.1h.1l-.1-.1h.1s0-.1-.1-.1c.3.1.4.1.4.1zm2.4 3.3c0-.1-.1-.1-.1-.2l-.1-.1c.1.1.2.2.2.3m0-.1l-.2-.2.2.2"/><path fill="#D8232A" d="M17.9 23.6c.1.1.1.3.1.4v.1-.1.1-.1h-.2c.1 0 .1-.1.1-.1s-.1 0-.1.1l.1-.1h-.1c0-.2 0-.3.1-.3m-2-.1l-.2-.1.2-.1-.1-.1h.2l-.1-.1h.1V23l-.1.5m6.5-5h1.1c.4 1.6.9 3.2 1.3 4.8 0 .1.1.1.1.1h.4c.1 0 .1-.1.1-.2L24 18.5h.7c.4 1.6.9 3.2 1.3 4.9.1.5-.1.6-.4.6h-1.1c-.6 0-.8-.3-.9-.8l-1.2-4.7m3.9 0l1.7 3-.8-3h.6l1.5 5.4h-1.1l-1.7-3.2.9 3.2h-.7l-1.5-5.4h1.1m7.3 0l1.7 3-.8-3h.5l1.5 5.4h-1.1l-1.7-3.2.9 3.2H34l-1.5-5.4h1.1m-5.4 0h.9l1.5 5.4h-.9l-1.5-5.4m3.5 1.6c-.1-.3-.2-.7-.3-1h-.5c-.1 0-.1 0-.1.1.2 1.1.6 2.2.9 3.4 0 .2.1.3.1.5.1.2.2.4.3.4h.3c.1 0 .1 0 .1-.1-.2-1.2-.5-2.3-.8-3.3zm-2-1V19c0-.3.2-.5.6-.5h1.4c.2 0 .4.1.5.4l1.2 4.2v.4c0 .3-.2.5-.6.4h-1.2c-.3 0-.6-.2-.8-.7-.3-1.3-.8-2.8-1.1-4.1z"/><path fill="#FFFFFE" d="M18 18.8v-.2h.2v.1h-.1c0 .1-.1.1-.1.1m-.4.1c-.1 0-.1 0 0 0-.1 0-.1 0 0 0-.1 0-.1 0-.1-.1l.1.1-.1-.1h.1c-.1 0-.1 0 0 .1"/></g></svg>