<svg baseProfile="tiny" xmlns="http://www.w3.org/2000/svg" width="40" height="40"><path fill="#0F5787" d="M20 35c8.3 0 15-6.7 15-15S28.3 5 20 5 5 11.7 5 20s6.7 15 15 15"/><path fill-rule="evenodd" fill="#FFF" d="M20 34c-7.7 0-14-6.3-14-14S12.3 6 20 6s14 6.3 14 14-6.3 14-14 14zm0-27.6C12.5 6.4 6.4 12.5 6.4 20S12.5 33.6 20 33.6 33.6 27.5 33.6 20 27.5 6.4 20 6.4z"/><path fill-rule="evenodd" fill="#FFF" d="M20 27.6c-4.2 0-7.6-3.4-7.6-7.6s3.4-7.6 7.6-7.6c4.2 0 7.6 3.4 7.6 7.6s-3.4 7.6-7.6 7.6zm0-14.8c-4 0-7.2 3.2-7.2 7.2s3.2 7.2 7.2 7.2 7.2-3.2 7.2-7.2-3.2-7.2-7.2-7.2z"/><path fill="#FFF" d="M7.8 24.4l-.2-.8 1.6-.4-1.8-.4-.2-.9 2 .5 2.1-1.5.2.9-1.4 1 .5.1 1.2-.3.2.8-4.2 1m-.6-3.3l-.1-.8 4.3-.3.1.8-4.3.3m-.1-1.8l.2-2 .8.1-.1 1.2.8.1.1-1.1.8.1-.1 1.1 1 .1.1-1.2.8.1-.2 2-4.2-.5m.6-3.3l.3-.8 3.2 1.3.4-1 .7.3-.8 1.8L7.7 16M9 13.3l1.2-1.7.7.5-.7 1 .7.5.6-.9.7.5-.7.9.8.6.7-1 .7.5-1.2 1.6L9 13.3"/><path fill-rule="evenodd" fill="#FFF" d="M12.1 9.8l-1.1.9 2.7 3.3.6-.5-1.1-1.4.2-.2c.2-.2.4-.1.8.5.3.4.5.5.6.6l.7-.6c-.1 0-.2 0-.7-.7-.4-.4-.6-.7-1.1-.5.2-.3.2-.7-.2-1.2-.3-.4-.8-.7-1.4-.2zm.9 1.6l-.2.2-.7-.9.2-.2c.3-.2.5-.1.7.2.2.2.3.5 0 .7z"/><path fill="#FFF" d="M16.3 10.8l.1.1c.1.3.3.5.6.4s.2-.4.1-.6c-.4-.8-1.5.2-2.2-1.2-.3-.6-.2-1.3.6-1.6s1.2 0 1.5.6v.1l-.7.3c-.1-.2-.2-.3-.2-.4-.1-.1-.2-.1-.3 0-.2.1-.2.3-.1.5.3.8 1.6-.2 2.1 1.2.4.9.1 1.4-.6 1.7-.5.2-1.1.2-1.5-.6l-.1-.3.7-.2m1.3-3.5l.9-.1.9 3.2-.1-3.3.9-.1-.1 4.3-1 .2-1.5-4.2m4.6-.1l.8.2-.4 1.5.6.2.4-1.5.8.2-1.1 4.1-.8-.2.5-1.8-.6-.2-.5 1.8-.8-.2 1.1-4.1"/><path fill-rule="evenodd" fill="#FFF" d="M24.3 10c-.7 1.2-1 2 0 2.5 1 .6 1.6-.3 2.2-1.3.6-1 1-2 0-2.5s-1.6.2-2.2 1.3zm1.3.8c-.6 1-.8 1.3-1.1 1.2-.3-.2-.1-.5.4-1.5.6-1 .8-1.3 1.1-1.2.4.2.2.5-.4 1.5z"/><path fill="#FFF" d="M28.1 10l.6.6-2.4 2.5.9.7-.6.6-1.4-1.3 2.9-3.1m.1 4.3l-.1.1c-.3.2-.4.4-.3.6.2.2.4.2.6 0 .8-.5-.5-1.5.9-2.3.6-.4 1.2-.4 1.7.3.4.7.2 1.2-.4 1.6l-.1.1-.4-.7c.2-.1.3-.2.3-.3.1-.1.1-.2 0-.3-.1-.2-.3-.2-.6 0-.8.5.4 1.5-.8 2.3-.8.5-1.4.4-1.8-.3-.3-.5-.4-1.1.3-1.6l.2-.2.5.7m3 1.2l-.2-.7.8-.3.8 2.2-.8.3-.2-.7-3.3 1.1-.3-.8 3.2-1.1m1.5 2l.2 2-.8.1-.1-1.2-.8.1.1 1.1-.8.1-.1-1.1-1 .1.1 1.2-.8.1-.2-2 4.2-.5m.2 2.9l-.1.8-4.2-.3.1-.8 4.2.3m-.2 2l-.2.9-2.8-.1 2.7.7-.2.7-4.1-1.1.2-.9 3 .1-2.8-.8.2-.7 4 1.2m-21.6 2.9c.2.3.1.7-.2.9-.3.2-.7.1-.9-.2-.2-.3-.1-.7.2-.9.3-.3.7-.2.9.2m18.7-.3c.3.2.4.6.2.9s-.6.4-.9.2c-.3-.2-.4-.6-.2-.9.2-.3.6-.4.9-.2m-9.1-14.3c.1.1.2.3.1.5s-.3.2-.4.1c-.1-.1-.2-.3-.1-.5s.3-.2.4-.1m-2.1.2c.1.1.2.3.1.5s-.3.2-.4.1c-.1-.1-.2-.3-.1-.5.1-.1.3-.2.4-.1m-5.8 14.2l.6.6-2 2.7 2.6-2.1.6.6-3.5 2.6-.8-.7 2.5-3.7"/><path fill-rule="evenodd" fill="#FFF" d="M13.4 28.6c-.7 1.2-1 2-.1 2.5 1 .6 1.6-.3 2.2-1.3.6-1 1.1-1.9.1-2.5-.9-.5-1.5.2-2.2 1.3zm1.4.9c-.6 1-.8 1.3-1.1 1.1-.3-.2-.1-.5.5-1.5s.8-1.3 1.1-1.1c.2.1.1.5-.5 1.5z"/><path fill="#FFF" d="M16.7 28.1l.9.2v2.9l.7-2.7.7.2-1.1 4.1-.9-.2v-3l-.7 2.8-.7-.2 1.1-4.1m3.9 1.9h-.7v-.6h.1c.6 0 .7-.4.8-.7h.6l.3 4.2-.8.1-.3-3"/><path fill-rule="evenodd" fill="#FFF" d="M23.3 31.8c-.1-.1-.1-.2-.1-.3l-.8.2c.2.7.6.9 1.2.8 1.1-.3 1-1.1.6-2.5-.3-1.2-.6-2-1.6-1.7-.9.2-.9 1-.7 1.8.2.9.6 1.2 1.1 1.1.3-.1.5-.2.5-.5.2.9.2 1.2 0 1.2-.1 0-.1 0-.2-.1zm-.5-2.9c.2-.1.4.2.5.7.1.4.2.7-.1.7-.2.1-.4-.1-.5-.6-.1-.5-.1-.7.1-.8zm1.9.9c.7 1.2 1.1 1.8 2 1.3s.5-1.4-.1-2.4c-.7-1.2-1.1-1.8-2-1.3s-.5 1.3.1 2.4zm1.3-.7c.6 1.1.7 1.4.4 1.5-.2.1-.4-.1-1-1.2s-.7-1.4-.4-1.5c.2-.1.4.1 1 1.2zm1.1-.8c1 1 1.6 1.4 2.3.7.7-.7.1-1.5-.7-2.3-1-1-1.6-1.4-2.3-.7-.8.7-.2 1.4.7 2.3zm1-1.1c.8.9 1 1.1.8 1.3-.2.2-.5 0-1.3-.9s-1-1.1-.8-1.3c.2-.1.5.1 1.3.9z"/><path fill="#FFF" d="M25.4 15.2s.3 2.9-.9 5.9-3.9 6.1-4.5 6.1-3.3-3.1-4.5-6.1-.9-5.9-.9-5.9h10.8"/><path fill="#CC3043" d="M15.1 15.5c0 1 0 3.2.9 5.4 1.1 2.9 3.5 5.5 4.1 5.8.6-.3 3-3 4.1-5.8.9-2.2.9-4.4.9-5.4h-10"/><path fill="#FFF" d="M20.9 25.4l-.9.9-.9-.9.3-1.4H18l.9-1.3-1.8-.1 1.1-1.4h-1.9l1.3-1.5h-1.8l1.1-1.7-1.5-.8c0-.5-.1-.9-.1-1.3h1.5l.8 1.1.8-1.1.8 1.1.8-1.1.8 1.1.8-1.1.8 1.1.8-1.1h1.5c0 .4 0 .8-.1 1.3l-1.5.8 1.1 1.7h-1.8l1.3 1.5h-1.9l1.1 1.4-1.8.1.9 1.3h-1.4l.3 1.4"/><path fill="#211D1E" d="M18 18.4c0 .4.4.6.7.8v-.4h.2v.5l.4.1v.3c-.5-.1-1-.3-1.4-.8.1.8.6 1.6 1.3 1.9.6.3 1.4.2 1.9-.2.6-.4.9-1 1-1.7-.4.4-.9.7-1.4.8v-.3c.1 0 .3-.1.4-.1v-.5h.2v.3c.2-.1.4-.2.5-.4.1-.1.1-.2.1-.3h.3c.1 1-.3 1.8-1.1 2.4-.5.3-1.4.4-1.9.2-1-.4-1.5-1.5-1.5-2.6h.3"/><path fill="#211D1E" d="M18.7 19.6v.3c-.1 0-.2-.1-.4-.2-.1-.2-.2-.3-.2-.5.2.2.4.3.6.4m3 .1l-.4.2v-.3c.2-.1.4-.2.6-.4-.1.2-.1.4-.2.5m-1.2-.3v.3c-.3.1-.7.1-1 0v-.3h1m-.6.5v.3c-.4 0-.7-.1-1-.2v-.3c.3.1.6.2 1 .2m1.2.1c-.3.1-.7.2-1 .2v-.3c.4 0 .7-.1 1-.2v.3m-1.8.3v.3c-.3-.1-.5-.3-.7-.6.2.2.4.2.7.3m1.4.3v-.3c.3-.1.5-.1.7-.3-.2.3-.4.5-.7.6m-.2-.2v.3c-.3.1-.7.1-1 0v-.3h1"/></svg>