<svg baseProfile="tiny" xmlns="http://www.w3.org/2000/svg" width="40" height="40"><g fill-rule="evenodd"><path fill="#1A1919" d="M10.2 20c0 5.5 4.5 9.9 9.9 9.9 5.5 0 9.9-4.4 9.9-9.9s-4.5-9.9-9.9-9.9c-5.4-.1-9.9 4.4-9.9 9.9zm.3 0c0-5.3 4.3-9.6 9.6-9.6s9.6 4.3 9.6 9.6-4.3 9.6-9.6 9.6c-5.3-.1-9.6-4.4-9.6-9.6z"/><path fill="#0B5088" d="M26.2 9c-.4-.2-.6-.3-.9-.5-.4-.2-.7-.3-1.1-.6-.2-.2-.4-.3-.6-.6.9.4 1.5.3 2.4.8.5.2.6.6.9 1 .1.1.2.2.2.4-.3-.4-.5-.4-.9-.5zm-.8 1.4c-.6 0-1-.2-1.6-.4-.3-.1-.5-.2-.8-.3l.1-.1h1c.6 0 1 .1 1.6.3.4.1.8.3 1.2.4-.5 0-1 .1-1.5.1zm-8.8-.5c-.1.1-.2.1-.4.2-.5.1-.8.2-1.3.2h-1.6c-.1 0-.2 0-.2-.1s.1 0 .1-.1c.1 0 .2-.1.3-.1.3-.1.5-.2.9-.3.6-.1 1-.1 1.7-.1.4 0 .8-.1 1.2-.1-.1.2-.5.4-.7.4zm-3.1-1.2c.1-.1.2-.2.3-.4.4-.4.7-.5 1.2-.7.7-.2 1.1-.2 1.7-.5-.4.4-.6.6-1.1.9-.2.2-.4.2-.7.3-.3.2-.5.3-.8.4-.4.1-.7.2-1.1.4 0-.1.2-.2.5-.4zm15.6 2.4l.2-.2c.1-.1.1-.2.1-.2 0-.3-.3-.5-.5-.5-.1 0-.2 0-.3.1-.3-.9-1.2-2.2-2.3-2.8-.9-.5-2-.6-2.9-.8-.5-.1-1.3-.6-1.4-.6h-.2v.1c.1.3.6.5.8.7.1.2.2.4.4.6.3.3.7.5.9.7 1 .9 2.2 1 3.1 1.5-1.4-.3-1.5-.5-2.6-.5h-1s.1 0 .1-.1c.4 0 .7 0 1.1-.1-.4-.1-.7-.2-1.1-.3-.2-.1-.4-.3-.6-.3-.4 0-1.1-.4-1.5-.7h.4c.5.1 1.1.3 1.6.4-.4-.3-.9-.6-.9-1-.2.1-.4.2-.5.2s-.1-.1-.6 0c-.2 0-.3.1-.5.1h-1.4c-.1 0-.5-.1-.6-.1H18c-.1 0-.3-.2-.4-.2 0 .5-.7.8-.9 1 .6 0 1.2-.4 1.8-.4h.2c-.5.4-1.1.5-1.6.7-.5.1-1 .4-1.5.5.3.2.8.1 1.1.3-.1 0-.1-.1-1.7 0-.4 0-1.7.5-1.8.5h-.1c1.3-.7 2.8-.8 4.1-2.3.1-.1.2-.4.3-.5.1-.1.7-.4.7-.6v-.2H18c-.1 0-.8.4-1.1.5-.3.1-.7.2-1.1.2-1.3.1-3.4 1.3-4.1 2.9-.1.2-.1.4-.2.5-.1 0-.2-.1-.3-.1-.2 0-.5.1-.5.4 0 0 .1.2.1.3.1.1.1.2.1.2-.3.4-.5.8-.7 1.2.2-.1.3-.1.5-.2.1-.2.2-.5.5-.6.1.1.3.3.4.3.6 0 .2-.6.4-.8.1-.1.2-.1.4-.1l1.8.1c1.2 0 2.4-.2 3.8-1.2.1-.1.3 0 .4-.1.2-.1.5-.2.7-.3-.1-.1-.3-.2-.4-.2-.6-.1-.9-.1-1.3-.1.2-.1.2-.3.4-.3.5-.2 1.9-1.1 2.1-1.1.1 0 2.1 1.1 2.4 1.4-.4 0-.6 0-1.2.1-.1 0-.3.1-.4.3.3.1.6.2.8.3h.3c.4.4 2.1 1.2 2.7 1.2h2.7s.6-.2.7.1v.1c0 .2-.1.7.4.7.1 0 .3-.2.4-.3.3.2.4.5.4.7.2.1.3 0 .5.2 0-.6-.4-1-.5-1.3z"/><path fill="#0B5088" d="M29.8 9.5c1.3 1.6 2.9 3.5 2.9 5.2v.6c0 .3-.2 1.2-.2 1.3 0 .1.5.2.5.5 0 .2-.2.3-.4.4 0 .1-.2.4-.2.5s.1.3.1.4-.2.6-.4.8c-.1-.4 0-.8-.1-1.2-.3-.1-.6-.2-.6-.5 0-.1.3-.7.3-.8 0-.3-1.2-1.3-1.3-1.4-.6-.4-1.7-1.3-2.2-2-.3-.4-.3-1-.8-1.5-.1-.1-.4-.1-.5-.3.1 0 .2-.1.3-.1.7 0 2 .6 2.6 1 1.4 1 2.1 2.4 2.4 3.6 0-.1.1-.2.1-.3 0-.1-.3-.9-.4-1.3-.2-1.1-.6-2.4-1.6-3.6v.1c0 .6.7 1.8.9 2.2v.1c-.4-.2-1.4-.9-1.4-1.4 0-.1-.1-.1-.1-.2-.1-.2-.1-.6-.1-.7.1.2.1-.1.2-1.4zm1.6 6.2c-.2-.7-.4-1.1-.9-1.7-.3-.4-.5-.6-.9-.8s-.6-.4-.9-.6c0 0 .1.3.1.4.1.1.1.2.2.4.3.4.5.6.8.9.5.5 1.6 1.4 1.6 1.4zM10.5 9.5l.1 1.6c0 1-.3 1.6-1.6 2.4.3-.7.7-1.5.9-2.2v-.2c-.4.5-.8 1.2-1.1 1.7-.2.4-.3 1-.4 1.4-.1.5-.5 1.4-.5 1.5v.5l.1.1c.2-.7.5-1.4.9-2.1.3-.5 1-1.2 1.6-1.6.5-.3 1.8-1 2.4-1 .1 0 .3 0 .5.1-1 .3-1 1.3-1.5 2-.3.4-.8.9-1.2 1.3-.1.1-2.1 1.5-2.1 1.9 0 .1.1.4.3.6v.2c0 .2-.1.4-.5.4 0 0-.1.4-.1 1.3-.1-.1-.5-.9-.5-1s.1-.3.1-.4c0-.5-.6-.5-.6-.9 0-.3.4-.4.6-.5-.3-.8-.2-.8-.2-1.4-.2-2.2.6-3.2 2.8-5.7zm-1.8 6.1v.3c.5-.3.8-.7 1.2-1.2.6-.6 1-.8 1.5-1.5.1-.2.3-.5.4-.8-.7.5-1.3.7-1.9 1.3l-.6.6c-.3.5-.5.8-.6 1.3z"/><path fill="#0B5088" d="M8.2 20.7v-.6c.2-1.1.6-2 1.2-3 .1-.2.4-.4.6-.4-.1.4-.3 1-.3 1.1s.2.7.2 1.1v1c0 1-1.1 3.3-1 3.8-.3-.1-.3-.7-.3-.9 0-1.1.5-2.7.7-3.8v-.4c-.5.5-.4 1.3-.6 1.8-.1.2-.1.5-.2.7 0 .1-.2.2-.2.3 0 .1.1.7.1.8 0 .1-.1.5-.1.6s.2.8.2 1.2c.3-.1.7.2.7.5 0 .1-.2.3-.2.4s.3.6.4 1c-.3-.2-.5-.3-.7-.4.3-.8-.9-.5-.9-1.1 0-.2.3-.3.4-.4-1.5-1.8-2.1-3.4-2.1-5 0-.1.1-.9.1-1 0-.2-.2-1.1-.2-1.2 0-.2.3.1.6.6.3.4.8.8.9 1.2.3.6.5 1.3.7 2.1zm-.4 1.5c0-.6 0-.8-.2-1.4-.1-.3-.2-.5-.2-.7-.2-.7-.2-1.2-.6-1.9v-.1c0 .1-.1.5-.1.6 0 .6.1.7.1 1.3 0 .6.2.9.5 1.4.2.3.2.6.5.8zm22.4-5.6c.2.1.5.3.6.5.5 1 1 2 1.2 2.9v.7c.3-.8.3-1.9.9-2.7.2-.2.4-.5.6-.7.1-.2.3-.6.6-.7-.1.5-.2 1.1-.2 1.2s.1 1 .1 1.1c0 1.8-.7 3.3-2.1 5.1.2.2.4.3.4.4 0 .4-.8.5-.8.6-.2.1-.1.4-.1.5-.2.1-.4.2-.7.4.1-.3.4-.8.4-.9s-.2-.3-.2-.4.1-.5.4-.5h.3s.3-1 .3-1.2c0-.1-.1-.5-.1-.6s.1-.7.1-.8c0-.1-.2-.2-.2-.3-.1-.3-.2-.7-.2-1.1V19.5c-.1-.2-.2-.5-.4-.8v.2c0 .9.7 2.6.7 4 0 .3 0 .6-.3.9-.1-.6-.2-1.2-.4-1.7-.3-.7-.6-1.5-.6-2.2v-.8c0-.4.2-1 .2-1.1 0-.3-.1-.7-.2-1v-.4h-.3zm2 5.5c.2-.4.5-.6.7-1 .1-.2.1-.4.2-.6s.1-.3.2-.5c.1-.5.1-.7.1-1.2V18v.1l-1.2 4z"/><path fill="#0B5088" d="M30.3 22.6c.3.3.3.9.3 1.2 0 1.5-.7 3.8-2.1 5.1 1.3-.7 2.9-2.3 4-3.7-.9.3-1.7 1.8-2.6 2.2.2-.4.3-.8.6-1.2.1-.1 2.5-1.9 2.9-1.9h.2c-.9 1.7-2.5 4.3-4.6 5-.4.1-.8.3-1.2.5-.1.1-.1.3-.1.4-.1.2-.4.3-.5.3s-.3-.2-.4-.2-1 .4-1.1.4-.1 0-.2-.1v-.1c.3-.1.6-.3.9-.5 0-.1-.1-.2-.1-.2 0-.3.3-.5.5-.5s.3 0 .4.2l.5-.5c.1-.1.2 0 .2-.1 1.2-1.1 1.5-2.4 1.9-3.5.2-.4.2-.8.4-1.2v-.1c-.9 1.4-1.3 2.9-2.1 4.3 0 .1-.2.2-.4.3 0-.1-.1-.1-.1-.2s.2-.4.2-.7c.2-1.6 1.2-3.1 1.9-4 .5-.3.5-.8.6-1.2m-20.5 0c.1.3.1.9.4 1.1.9.8 1.1 1.5 1.6 2.4.2.4.2.9.2 1.4 0 .3.3.8.3.9v.2l-.1.1c-.3-.2-.4-.6-.5-.9-.6-1.2-1-2.5-1.8-3.6v.1c0 .1.4 1.2.6 1.8.3.8.6 1.5 1.2 2.2.4.5.6.5 1.1 1 .2-.2.3-.2.4-.2.3 0 .5.3.5.5 0 .1 0 .2-.1.2.3.2.6.4 1 .5 0 .1-.2.2-.3.2s-1-.4-1.1-.4-.3.2-.4.2c-.3 0-.6-.3-.5-.6-1.2-.5-2.5-1.1-3.7-2.3-1-1.1-1.4-2.2-2.3-3.3.1 0 0-.1.1-.1.7 0 2.8 1.7 3 1.9.2.3.4.7.5 1.1v.1c-.9-.7-1.5-1.9-2.6-2.2 1.1 1.2 2.6 3.1 4.1 3.6-1.6-1.5-1.9-3-2.2-4.5v-.7c.3.1.5-.5.6-.7"/><path fill="#0B5088" d="M13 28.1c1.9 1.7 4 1 5.8 3.2.1 0 .1-.2.2-.3.1-.1.2-.1.3-.1.3 0 .5.2.5.5 0 .1-.1.3-.2.4.1.1.3.3.4.3s.3-.2.4-.3c-.1-.1-.2-.4-.2-.5 0-.3.4-.5.5-.5s.4.2.5.3c.5-.3 1.2-1.1 1.8-1.3l1.5-.6c.7-.2 1.7-.4 2.4-1.2h.2c-.6.7-1.5 2.5-2.6 2.5-.1 0-.2 0-.3-.1.3-.1 1-.4 1.1-.9-.4.2-.8.5-1.3.7-.8.3-1.6.5-2.5 1.2 0 0 0 .1.1.1s.8-.3 1.2-.5c.7-.2 1.5-.3 2.2-.4h.9c1.3-.1 2.8-.2 3.7-.8v.1c-1.1 1.1-2.8 2.4-4.1 2.4h-2.7c-.1 0-.7-.1-1-.1-.2 0-.5-.2-.6-.3-.3.1-.5.2-.8.4.6.3 1.4.8 1.8 1.2-.3 0-.6.2-.8.3-.2-.2-.2-.7-.6-.9-.2-.1-.6-.4-.7-.4s-1 .6-1.1.7c-.1.1-.2.3-.2.5h-.1c-.2 0-.4-.3-.8-.3.5-.5 1.4-1 1.8-1.2-.1 0-.6-.2-.7-.2s-.3.2-.5.3c-.4.1-.8.1-1.2.2h-2c-1.5.1-3.3-1-4.7-2.4V30c1 .7 1.9.6 2.8.7h1c1.4.1 2.9.3 4.3.9l.1-.1c-1.2-1.1-2.5-.9-3.7-1.9v.1c0 .2.8.8 1.1.9-.1.1-.2.1-.3.1-1.4 0-2.2-1.7-2.9-2.6zm10.8 3.5c-.4.1-1.6.3-1.6.3.3.1.5.1.8.1.2 0 1.4.2 1.6.2.1 0 .7-.1.8-.1.4 0 .7 0 1-.2.2-.1.4-.1.6-.3.2-.1.6-.4.8-.5-.2.1-.5.1-.7.1-.6 0-1 .1-1.6.1-.7 0-.9.1-1.7.3zM13 31.1h-.7c.7.2 1 .4 1.6.6.3.1.6.1.8.2.5.2.8.2 1.4.2s1.1 0 1.6-.2c-.4-.2-.9-.2-1.5-.4-.4-.1-.8-.2-1.3-.2-.2 0-.4-.1-.6-.1h-.6c-.2 0-.4-.1-.7-.1zm16.2-13.3c-.1-.1-.1-.1 0 0-.1 0-.2 0-.5-.1s-.5-.2-.8-.4c-.3-.2-.6-.4-1.1-.4s-.9.2-1.3.4c-.3.1-.5.2-.6.2-.4 0-.5-.1-.7-.3-.2-.2-.5-.5-1.5-.7-.5-.1-.9 0-1.4 0-.3 0-.7.1-1 0h-.2c-.3 0-.5 0-1-.3l.1.5h.2c.3.1.6.1 1 .1.3 0 .7 0 1-.1.5 0 .9-.1 1.4 0 .3.1.5.2.7.3l.1.1.6 4.5h-1c-.5.1-.8.2-1.1.4-.3.2-.6.3-1.1.4-.4.1-.7.1-1.2 0v.3c1 .2 1.7-.1 2.3-.4.3-.2.6-.3.9-.3.3-.1.6-.1 1-.1.5 0 1.1 0 1.6-.4.4-.3.5-.5.6-.7s.2-.4.5-.8c.2-.3.7-.4 1-.4.2 0 .3-.1.4-.1.6-.3.9-.7 1.1-1.2.1.1.1-.2 0-.5"/><path fill="#1A1919" d="M20.2 21.5c.2-1.5.3-2 .5-3.4 0-.2.1-.3.2-.4s.5-.1.8-.1c.4 0 .9-.1.9.2 0 .1.1.1.1.2.4 1.2.6 2.1.9 3.1v.2c-.1.2-.2.2-.4.2s-.3.1-.4 0c-.1 0-.2-.1-.2-.1-.1-.3-.1-.8-.2-.8-.3 0-1 0-1.1.1-.1.2-.2.9-.2 1-.1.1-.2.1-.4.1s-.5 0-.5-.1v-.2zm1.2-2.8c-.1.3-.1.3-.1.6v.1c.1.1.2.1.4 0 .1 0 .3 0 .3-.1v-.1c-.1-.4 0-.3-.2-.7-.1-.1-.4-.2-.5 0 .1.1.1.2.1.2zm-8.2 6.1c-.1.1-.3.5-.3.9 0 .2.1.3.2.4h.2c.1 0 .2-.2.4-.4l-.1-1.2c-.1 0-.1.1-.4.3m6.7-1.8l-.7-6.8c-.1-.3-.3-.6-.5-.9-.2-.2-.5-.4-.9-.5-.6-.2-1.3-.2-2.2 0-.7.2-1.5.5-2.1.9v.6c1.3.4 1.4 1.9 1.5 3.2v.2c.1 1.2.1 2.1-.2 2.9-.1.4-.3.8-.6 1.2l.1 1c.5-.6 1.2-1.4 2.6-1.7h.2c1-.3 1.3-.4 2.8-.1"/><path fill="#1A1919" d="M12.7 15c0-.2.1-.3.3-.3s.4.1.4.3-.1.3-.3.3c-.3-.1-.4-.2-.4-.3zm.5.5L14.4 28h.3l-1.2-12.5c.2-.1.3-.3.3-.6s-.4-.6-.8-.5c-.4.1-.7.4-.7.7 0 .2.2.4.4.4l1.1 12h.2l-1.1-11.9c.1-.1.1-.1.3-.1z"/></g></svg>