<svg baseProfile="tiny" xmlns="http://www.w3.org/2000/svg" width="40" height="40"><g fill-rule="evenodd"><path fill="#9E9F9E" d="M20 35c6.7 0 12.1-5.5 12.1-12.2V6.1c0-.4-.3-.7-.7-.8C27.7 5.1 23.8 5 20 5s-7.7.1-11.4.3c-.4 0-.7.4-.7.8v16.8C7.9 29.5 13.3 35 20 35"/><path fill="#093566" d="M20 34.5c6.3 0 11.5-5.2 11.5-11.5V6.2c0-.1-.1-.1-.1-.1-3.7-.2-7.5-.3-11.3-.3s-7.7.1-11.3.3c-.1 0-.1.1-.1.1V23c-.2 6.2 5 11.5 11.3 11.5"/><path fill="#D8232A" d="M29.9 23c0 5.5-4.4 9.9-9.9 9.9-5.4 0-9.9-4.4-9.9-9.9s4.4-10 9.9-10c5.4.1 9.9 4.5 9.9 10"/><path fill="#FFFFFE" d="M22.9 32.2c-.3.1-.6-.1-.8-.4-.1 0-.1-.2-.1-.3v-.1c-.2.2-.6.4-1.3.6h-.4c-.3 0-.6.1-.9.1-3 0-5.1-1.2-6.4-2.3-.6-.6-1.1-1.3-1.6-2-.8-1.5-1.3-3.2-1.3-4.9 0-.7.1-1.4.2-2.1.1-.3.4-.5.7-.5.1 0 .3 0 .4.1h.1c-.1-.2-.1-.7.2-1.4 0-.1 0-.1.1-.2.1-.3.2-.6.4-.8 1.5-2.6 3.6-3.8 5.2-4.3.8-.2 1.7-.3 2.5-.3 1.7 0 3.4.5 4.9 1.3.6.4 1.2.8 1.7 1.3.2.2.2.6.1.9l-.3.3h-.1.1c.3 0 .7.3 1.1.8.1.1.1.1.1.2.2.2.4.5.5.8 1.5 2.6 1.5 5 1.2 6.6-.2.8-.5 1.6-1 2.4-.9 1.5-2.1 2.7-3.6 3.6-.3.2-1 .4-1.7.6zm4.5-2.4l.2-.2c0-.1.1-.1.1-.2.4-.4.7-.9 1-1.4s.5-1 .7-1.6c0-.1 0-.1.1-.2 0-.1 0-.1.1-.2v-1.2c.1-.6.1-1.1.1-1.7s-.1-1.2-.1-1.7V20c0-.1 0-.1-.1-.2 0-.1 0-.1-.1-.2-.2-.5-.4-1.1-.7-1.6-.3-.6-.7-1.1-1.1-1.6l-.1-.1-.1-.1-.1-.1-.1-.1s0-.1-.1-.1l-.1-.2-.1-.1-.1-.1-.1-.1h-.1l-.1-.1c-.4-.4-.9-.7-1.4-1-.5-.3-1-.5-1.6-.7-.1 0-.1 0-.2-.1h-.1s-.1 0-.2-.1h-1.3c-.6-.1-1.1-.1-1.7-.1s-1.2 0-1.7.1H16.9c-.1 0-.1 0-.2.1-.1 0-.1 0-.2.1-.5.2-1.1.4-1.6.7-.5.3-1 .6-1.4 1-.1 0-.1.1-.2.1l-.1.1-.1.1-.1.1s-.1 0-.1.1l-.1.1-.1.1s-.1 0-.1.1l-.1.1-.1.1-.1.1c0 .1-.1.1-.1.2-.4.4-.7.9-1 1.4-.3.6-.6 1.2-.8 1.8v.3c0 .1 0 .1-.1.2v1.1c-.1.6-.1 1.1-.1 1.7s.1 1.2.2 1.7v1.1s0 .1.1.1v.3c0 .1.1.1.1.2.2.5.4 1.1.7 1.6.3.5.6 1 1 1.4 0 .1.1.1.1.2l.1.1.1.1.1.1.1.1.1.1.1.1s.1 0 .1.1l.1.1.1.1.1.1s.1.1.2.1c.4.4.9.7 1.4 1s1 .5 1.6.7c.1 0 .1 0 .2.1h.1c.1 0 .1 0 .2.1h1.3c.6.1 1.1.1 1.7.1.7 0 1.3-.1 1.9-.2h1.3c.1 0 .1 0 .2-.1.5-.2 1-.4 1.6-.7.5-.3 1-.6 1.4-1l.1-.1c.1 0 .1-.1.1-.1l.1-.1.1-.1.1-.1.1-.1.1-.1.1-.1c0-.1 0-.2.1-.2zm-16.3-21V7.4l-.3.1-.1-.3.4-.2h.2l.1 1.8h-.3m1.1-.2c0 .1-.1.2-.2.2s-.2-.1-.2-.2.1-.2.2-.2.2 0 .2.2m1.3-1.4v.5h.6V8h-.6v.7h-.3l-.1-1.8h.9v.3h-.5M15 8.6c-.4 0-.6-.2-.6-.5v-.9h.3V8c0 .2.1.3.3.3.2 0 .3-.1.3-.3v-.8h.3V8c.1.4-.1.6-.6.6m1.3 0H16v-.2h.3c.1 0 .2-.1.2-.2 0-.2-.5-.1-.6-.5 0-.3.2-.4.6-.5h.2v.3h-.2c-.1 0-.2.1-.2.1 0 .2.6.1.6.5.1.4-.2.5-.6.5m1.3 0h-.3v-.2h.3c.1 0 .2-.1.2-.2 0-.2-.5-.1-.6-.5 0-.3.2-.4.6-.4h.2v.3h-.2c-.1 0-.2.1-.2.1 0 .2.6.1.6.5 0 .3-.3.4-.6.4M19 8l-.1.3h.1c.2 0 .2-.1.2-.2.1 0 0-.1-.2-.1zm0-.5l-.1.3h.1c.2 0 .3-.1.3-.2-.1 0-.1-.1-.3-.1zm0 1.1h-.5V7.2h.5c.4 0 .5.1.5.3 0 .1-.1.2-.2.3.2 0 .2.2.2.3.1.3 0 .5-.5.5zm1.6-.8c0-.1-.1-.1-.1-.2 0 .1 0 .1-.1.2l-.1.3h.4l-.1-.3zm.2.8l-.1-.2h-.5l-.1.2h-.3l.5-1.3h.4l.5 1.4-.4-.1zm.7 0V7.2h.3v1.1h.4v.3h-.7m1.1 0V7.2h.3v1.1h.4v.3h-.7m1.8 0c-.6 0-.8-.4-.8-.9 0-.6.3-.9.9-.9.1 0 .3 0 .4.1v.3c-.1 0-.2-.1-.3-.1-.3 0-.5.2-.5.6 0 .4.2.6.5.6.1 0 .2 0 .3-.1v.3c-.2.1-.3.1-.5.1m.8 0V7.2h.3v1.1h.4v.3h-.7m1.7 0c-.4 0-.6-.2-.6-.5v-.9h.3V8c0 .2.1.3.3.3.2 0 .3-.1.3-.3v-.8h.3V8c0 .5-.2.8-.6.6m1.6-1l-.1.3h.1c.1 0 .3 0 .3-.2-.1 0-.1 0-.3-.1zm0 .6l-.1.3h.1c.2 0 .2-.1.2-.2s-.1-.1-.2-.1zm0 .6H28l.1-1.4h.5c.4 0 .5.1.5.4 0 .1-.1.2-.2.3.2 0 .2.2.2.3 0 .2-.2.4-.6.4zm-17.6 2.8v-.8h-.7v.8h-.3l-.1-1.8h.3v.7h.7v-.7h.3l.1 1.8h-.3m.8 0v-1.4h.8v.3H12v.3h.5v.3H12v.3h.5v.3l-.8-.1m1.2-.1v-1.4h.3v1.3l-.3.1m1.3-1.1H14v.8h.2c.2 0 .4-.1.4-.4 0-.3-.1-.4-.4-.4zm0 1.1h-.5v-1.3h.5c.4 0 .7.2.8.6 0 .3-.3.7-.8.7zm1.2 0v-1.4h.8v.3h-.5v.3h.5v.3h-.5v.3h.5v.3l-.8-.1m2.1-.1l-.4-.7c-.1-.1-.1-.2-.1-.2v.9h-.3V10h.5l.4.6c.1.1.1.2.1.3V10h.3v1.4h-.5m1.8 0v-.5h-.6v.5h-.3v-1.3h.3v.5h.6v-.5h.3v1.4l-.3-.1m.8 0v-1.3h.8v.2h-.5v.3h.5v.3h-.5v.3h.5v.3l-.8-.1m1.3 0V10h.3v1.4h-.3m2.2 0l-.1-.7v-.3c0 .1 0 .2-.1.3l-.2.7h-.3l-.2-.6c0-.1-.1-.2-.1-.3v.3l-.1.6h-.3l.2-1.3h.4l.2.7c0 .1 0 .2.1.3 0-.1 0-.2.1-.2l.2-.7h.4l.2 1.4-.4-.2m1.6.1v-1.4l-.3.1v-.3l.4-.1h.2v1.8l-.3-.1m1.4-1.5c-.2 0-.2.1-.2.2s.1.2.2.3c.2-.1.2-.2.2-.3 0-.1-.1-.2-.2-.2zm-.1.6c-.1.1-.2.2-.2.3s.1.2.3.2c.2 0 .3-.1.3-.2-.1 0-.2-.1-.4-.3zm0 .9c-.4 0-.6-.2-.6-.5 0-.2.2-.3.3-.4-.2-.1-.3-.2-.3-.4 0-.3.3-.5.6-.5s.5.2.5.4-.1.3-.3.4c.2.1.3.3.3.5.1.4-.2.5-.5.5zm1.7-1.4l-.5.7h.4l.1-.7zm.2 1v.4h-.3v-.4h-.7v-.3l.7-1h.4v1h.3v.3h-.4zm1.2-.3c-.2 0-.3.1-.3.3 0 .2.1.3.2.3.2 0 .3-.1.3-.3.1-.2 0-.3-.2-.3zm-.1.8c-.4 0-.6-.3-.6-.8 0-.7.4-1 .9-1h.2v.3h-.2c-.3 0-.5.1-.5.4v.1c.1-.1.2-.1.4-.1.3 0 .5.2.5.5 0 .4-.3.6-.7.6z"/><path fill="#FFFFFE" d="M20.1 27c-2.5 0-2.8-1.8-2.8-3.7 0-2.4.5-4.2 3.1-4.2.6 0 .7.1 1.2.2l-.2 1.4c-.5-.1-.6-.2-1.1-.2-1.3 0-1.4 1.3-1.4 2.6 0 1.5.1 2.6 1.5 2.6.5 0 .7-.1 1.1-.3l.2 1.3c-.6.3-.9.3-1.6.3m5.4 0c1.2 0 1.5-.8 1.5-1.9v-5.8h-1.5v3h-1.7v-3.1h-1.5V27h1.5v-3.4h1.7V27m-10.7-6c0-.3.1-.6.4-.6h1.7v-1.3h-2.2c-1.2 0-1.5.8-1.5 1.9v5.8h1.5v-3.3h1.8v-1.2h-1.8l.1-1.3"/></g></svg>