<svg baseProfile="tiny" xmlns="http://www.w3.org/2000/svg" width="40" height="40"><path fill-rule="evenodd" d="M34.9 9.7h-6.8c-2.3-1.8-5.1-2.9-8.2-2.9-4.8 0-9 2.6-11.3 6.4 0 0 0 .1-.1.1 0 0 0 .1-.1.1 0 0 0-.1.1-.1 0 0 0-.1.1-.1 0 .1-.1.2-.1.2-1.1 1.9-1.7 4.2-1.7 6.6 0 2.1.5 4.2 1.4 6L5 30.4h6.8c2.3 1.8 5.1 2.9 8.2 2.9 7.3 0 13.2-5.9 13.2-13.2 0-2.2-.5-4.2-1.4-6l3.1-4.4z"/><path fill="#FFF" d="M7.6 20c0-2.2.6-4.2 1.5-6 0-.1.1-.2.1-.3s.1-.2.2-.2c2.2-3.5 6-5.8 10.5-5.8 3 0 5.8 1.1 7.9 2.9h5.3L30.6 14c1 1.8 1.6 3.9 1.6 6.1 0 6.8-5.5 12.3-12.3 12.3-3 0-5.8-1.1-7.9-2.9H6.7l2.5-3.4c-1-1.9-1.6-3.9-1.6-6.1z"/><path fill-rule="evenodd" d="M22.2 27.7c2.6 1.5 6 .7 7.5-1.9s.7-6-1.9-7.5c-.4-.2-.7-.4-1.1-.5l4.6-6.3h-4.5S21.2 19 21 19.3c-2.4 3.2-1.4 6.9 1.2 8.4zm2.9-6.5c1 0 1.8.8 1.8 1.8s-.8 1.8-1.8 1.8-1.8-.8-1.8-1.8c-.1-1 .8-1.8 1.8-1.8z"/><path fill-rule="evenodd" fill="#009E3D" d="M31.4 20c0-1.9-.5-3.7-1.3-5.2l-2 2.7c.1 0 .1.1.2.1 1.6.9 2.6 2.4 3 4 .1-.6.1-1.1.1-1.6zM8.6 20c0 1.9.5 3.7 1.3 5.2l1.9-2.6c-.1 0-.1-.1-.2-.1-1.5-.9-2.5-2.3-2.9-3.9-.1.4-.1.9-.1 1.4z"/><path fill-rule="evenodd" d="M17.6 12.3c-2.6-1.5-6-.7-7.5 1.9s-.7 5.9 1.9 7.5c.4.2.7.4 1.1.5l-4.6 6.3H13s5.6-7.5 5.8-7.8c2.4-3.2 1.4-6.9-1.2-8.4zm-2.7 6.5c-1 0-1.8-.8-1.8-1.8s.8-1.8 1.8-1.8 1.8.8 1.8 1.8-.8 1.8-1.8 1.8z"/><path fill="#009E3D" d="M19.9 8.6c2.4 0 4.6.7 6.4 2-.1.1-1.9 2.5-3.4 4.6-.6.8-1.3 1.8-1.8 2.5.3-2.4-.8-4.9-3-6.1-1.5-.9-3.3-1.1-4.9-.7 1.9-1.4 4.2-2.3 6.7-2.3zm0 22.8c-2.4 0-4.6-.7-6.4-2 .1-.1 1.9-2.5 3.4-4.6.6-.8 1.3-1.8 1.8-2.5-.3 2.4.8 4.9 3 6.2 1.5.9 3.3 1.1 4.9.7-1.7 1.4-4 2.2-6.7 2.2z"/></svg>