<svg baseProfile="tiny" xmlns="http://www.w3.org/2000/svg" width="40" height="40"><g fill-rule="evenodd"><path fill="#1D9053" d="M20 2L8 20l12 18 12-18L20 2z"/><path fill="#FFF" d="M20 2.8L8.5 20 20 37.2 31.5 20 20 2.8zM9.4 20L20 4.2 30.5 20 20 35.8 9.4 20z"/><path fill="#FFF" d="M22.5 30.8s3.6-7 3.6-12.4-2.8-9.1-5.8-9.1c-2.2 0-3 1.7-3 2.7s1 1.8 1.8 1.8c1 0 1.4-.7 1.4-.7 1.3.8 3.7 2 3.5 6.8-.1 3.4-.5 3.9-1.2 5.9-1-2.5-2.9-6.7-2.9-6.7l-3 6.6s-1.2-2.8-1.3-6.9c0-.5 0-.7.2-2.4 1.3 0 2.1-.5 2.1-1.8 0-1.2-1-1.8-1.8-1.8-.7 0-2.6.7-2.6 4.3 0 6.2 4 13.5 4 13.5l2.5-4.9 2.5 5.1z"/></g></svg>