<svg baseProfile="tiny" xmlns="http://www.w3.org/2000/svg" width="40" height="40"><path fill-rule="evenodd" fill="#005092" d="M20 5.1C11.8 5.1 5.1 11.8 5.1 20S11.8 34.9 20 34.9 34.9 28.2 34.9 20 28.2 5.1 20 5.1zM20 35c-8.3 0-15-6.7-15-15S11.7 5 20 5s15 6.7 15 15-6.7 15-15 15z"/><path fill-rule="evenodd" fill="#005092" d="M20 6.3C12.4 6.3 6.3 12.5 6.3 20S12.5 33.7 20 33.7c7.6 0 13.7-6.2 13.7-13.7S27.6 6.3 20 6.3zm0 28c-7.9 0-14.3-6.4-14.3-14.3S12.1 5.7 20 5.7 34.3 12.1 34.3 20 27.9 34.3 20 34.3z"/><path fill-rule="evenodd" fill="#005092" d="M9.4 23.1l-.1-.4-1.3.4.1.4c.1.3.3.4.5.3l.6-.2c.2 0 .3-.2.2-.5zm-.2 1.1l-.5.2c-.5.2-1-.1-1.1-.7l-.2-.7c0-.1 0-.1.1-.2l2-.6c.1 0 .1 0 .2.1l.2.7c.1.6-.1 1-.7 1.2zm.9.8s-.2.1-.5.1l-.5.1.2.5.4-.4c.2-.2.4-.3.4-.3zm-1.2 1.7l-.1-.2c-.1-.1-.1-.2 0-.3L9 26l-.4-.7h-.3c-.1 0-.2 0-.2-.2l-.1-.2c0-.1 0-.1.1-.1l2.2-.2c.1 0 .1 0 .2.1l.1.2v.2l-1.5 1.7c-.1 0-.2 0-.2-.1zm2.3.1l-.3-.4-.4.3.3.4c.1.1.2.2.4.1.1-.1.1-.3 0-.4zm.3.8c-.3.2-.5.2-.8.1 0 0 0 .1-.1.1l-.3.7c0 .1-.1.1-.2 0l-.2-.2c-.1-.1-.1-.2-.1-.3l.3-.5c.1-.2.1-.2 0-.4L10 27l-.6.4c-.1.1-.1.1-.2 0l-.2-.2c-.1-.1-.1-.1 0-.2l1.7-1.3c.1-.1.1-.1.2 0l.5.7c.6.5.5.9.1 1.2zm2.5 1.3l-1.4 1.6c-.1.1-.1.1-.2 0l-.2-.2c-.1-.1-.1-.1 0-.2l.5-.6c.1-.2.3-.3.6-.5l-.6.3-.5.2H12l-.1-.1c-.1-.1-.1-.1-.1-.2l.1-.5c0-.2.1-.4.2-.6-.2.3-.3.5-.4.6l-.5.6c-.1.1-.1.1-.2 0l-.2-.2c-.1-.1-.1-.1 0-.2l1.4-1.6c.1-.1.1-.1.2 0l.2.1c.1.1.1.1.1.2l-.3 1.3 1.2-.5h.2l.2.2v.3m1.1.4c.4.2.6.5.6.9 0 .1 0 .1-.2.1h-.3c-.1 0-.1 0-.1-.1 0-.2-.1-.3-.2-.4-.2-.1-.4-.1-.5 0-.1.2.1.3.3.5.3.2.7.5.4 1.1-.2.4-.7.5-1.2.2-.4-.2-.6-.5-.6-.9 0-.1.1-.1.2-.1h.2c.1 0 .1 0 .1.2s.1.3.3.4c.2.1.4.1.5 0s-.1-.3-.3-.4c-.3-.2-.8-.5-.5-1.1.3-.5.7-.6 1.3-.4M17.7 30.5l-.1.2c0 .1-.1.1-.2.1l-.5-.2-.5 1.7c0 .1-.1.1-.2.1l-.3-.1c-.1 0-.1-.1-.1-.2l.5-1.7-.5-.2c-.1 0-.1-.1-.1-.2l.1-.2c0-.1.1-.1.2-.1l1.5.5c.2.2.2.2.2.3m.7.5l-.2.4-.2.5.5.1-.1-.5c-.1-.3 0-.5 0-.5zm.6 2h-.2c-.2 0-.2-.1-.2-.2l-.1-.3-.8-.1-.2.3c0 .1-.1.1-.3.1H17c-.1 0-.1-.1-.1-.1l1.1-2c0-.1.1-.1.2-.1h.2c.1 0 .1 0 .2.1L19 33c.2 0 .1 0 0 0zm1.3-1.9h-.4v1.4h.4c.3 0 .4-.1.4-.4v-.6c0-.3-.1-.4-.4-.4zm1 .4v.6c0 .6-.3.9-1 .9h-.8c-.1 0-.1 0-.1-.1l-.1-2.1c0-.1 0-.1.1-.1h.8c.7-.1 1.1.2 1.1.8zm1.9-1.2v.2c0 .1 0 .1-.1.2l-.5.1.4 1.7c0 .1 0 .1-.1.2l-.3.1c-.1 0-.1 0-.2-.1L22 31l-.5.1c-.1 0-.1 0-.2-.1l-.1-.2c0-.1 0-.1.1-.2l1.6-.3c.2-.1.3-.1.3 0m1.9-.8l.9 1.9c0 .1 0 .1-.1.2l-.2.1c-.1 0-.1 0-.2-.1l-.7-1.4-.2.3c-.1.1-.1.1-.2 0l-.2-.1c-.1-.1-.1-.1 0-.2l.4-.6c0-.1.1-.1.2-.1l.2-.1.1.1m1.5.5c-.1.1-.1.2 0 .4.1.1.2.2.5 0 .2-.2.3-.3.2-.4-.2-.2-.4-.1-.7 0zm-.4-.9c-.2.1-.2.2-.1.4.1.1.2.1.4.1h.1c.1-.1.1-.2 0-.4s-.3-.2-.4-.1zm-.3-.4c.5-.3.8-.3 1.1.1.1.2.1.4.1.6.2 0 .4 0 .6.3s.2.7-.4 1.1-.9.3-1.1 0c-.2-.2-.1-.5 0-.7-.2 0-.4-.1-.5-.3-.4-.4-.2-.8.2-1.1zm1.8-.8c-.2.2-.2.3-.1.5.1.1.3.1.5-.1.1-.2.2-.3.2-.3l-.1-.1c-.1-.2-.3-.2-.5 0zm.7.8c-.4.4-.8.4-1.2.1-.3-.3-.3-.8.1-1.2.4-.4.9-.4 1.3 0l.5.5c.4.4.4.9 0 1.3-.3.3-.7.4-1 .2-.1 0-.1-.1-.1-.2l.1-.2c0-.1.1-.1.2-.1.2.1.3 0 .4-.1.2-.2.2-.4 0-.6-.1 0-.1.1-.3.3zm1.3-1.6c0 .1 0 .3.1.4s.3.1.4-.2c.2-.2.1-.4 0-.5-.1-.1-.3.1-.5.3zm-.7-.7c-.1.2-.1.3 0 .4s.2 0 .4-.1l.1-.1c0-.1 0-.2-.1-.3-.2-.2-.3-.1-.4.1zm-.4-.3c.3-.5.7-.6 1-.3.2.2.3.4.3.5.2-.1.4-.1.7 0 .3.2.4.6 0 1.2-.4.5-.8.6-1.1.4-.2-.2-.3-.4-.2-.6-.2.1-.4.1-.6-.1-.4-.2-.4-.7-.1-1.1zm2.2-1.3c-.1.1 0 .3.1.3l.2-.5c-.2 0-.3.1-.3.2zm-.3-.1c.2-.4.5-.5.8-.4l.2.1c.1 0 .1.1.1.2l-.3.7h.1c.1.1.2 0 .3-.1.1-.1.1-.2 0-.3v-.2l.1-.1c.1-.1.1 0 .2 0 .1.2.1.4 0 .7-.2.4-.5.5-.8.4l-.3-.1c-.5-.2-.6-.5-.4-.9zm1.6-.6c.1 0 .2.1.1.2 0 .1-.1.1-.2.1s-.1-.1-.1-.2c.1-.1.1-.2.2-.1m-1.2-1.9l1.5 1.1c.1 0 .1.1 0 .2l-.1.2c0 .1 0 .1-.1.1l-1.9.1c-.1 0-.1 0-.1-.1l.1-.2c0-.1.1-.2.2-.2h1.4s-.2-.1-.3-.2l-.9-.6c-.1 0-.1-.1 0-.2v-.2c.1-.1.1-.1.2 0m1.6.4c.1 0 .2.1.1.2 0 .1-.1.1-.2.1s-.1-.1-.1-.2c.1-.1.1-.1.2-.1M9.8 12.1c.3-.4.6-.5.9-.4.1 0 .1.1.1.2l-.1.3c0 .1-.1.1-.2.1s-.3 0-.4.2c-.2.2-.2.4-.1.5s.3 0 .5-.2c.3-.3.6-.6 1.1-.2.4.3.4.8 0 1.2-.3.4-.6.5-1 .4-.1 0-.1-.1-.1-.2l.1-.2c0-.1.1-.1.2-.1.2 0 .3 0 .4-.2.2-.2.2-.4.1-.5s-.3 0-.5.2c-.3.3-.7.7-1.1.3-.2-.5-.3-.9.1-1.4m2.6-1.5c-.1-.1-.3-.2-.4 0l-.3.3.4.5.3-.3c.1-.2.1-.3 0-.5zm.4-.3c.3.4.3.8-.1 1.1l-.4.3.4.5c.1.1.1.1 0 .2l-.2.2c-.1.1-.1.1-.2 0L10.9 11c-.1-.1-.1-.1 0-.2l.7-.6c.5-.3.9-.3 1.2.1zm1-1c-.2.1-.3.3-.2.6l.3.6c.1.2.3.3.6.1.2-.1.3-.3.2-.6l-.3-.6c-.2-.2-.4-.3-.6-.1zm-.3-.5c.6-.3 1-.2 1.3.3l.3.6c.3.5.1 1-.4 1.3s-1 .2-1.3-.3l-.3-.6c-.2-.5-.1-.9.4-1.3zm2.7-.5l-.4.1.2.5.4-.1c.2-.1.2-.2.2-.3-.1-.2-.3-.3-.4-.2zm.8 0c.1.3.1.6-.1.8l.1.1.5.5c.1.1.1.1 0 .2l-.2.1c-.2.1-.2 0-.3 0l-.4-.4c-.1-.1-.2-.1-.4-.1h-.1l.2.7c0 .1 0 .1-.1.2l-.3.1c-.1 0-.1 0-.2-.1l-.7-2c0-.1 0-.1.1-.2l.9-.3c.5-.3.9-.1 1 .4zm2.1-1v.2c0 .1 0 .1-.1.2l-.5.1.2 1.7c0 .1 0 .1-.1.2h-.3c-.1 0-.1 0-.2-.1l-.2-1.7-.5.1c-.1 0-.1 0-.2-.1v-.2c0-.1 0-.1.1-.2l1.6-.2c.1-.1.1-.1.2 0m2.3 0l-.8 2.1c0 .1-.1.1-.2.1h-.3c-.1 0-.1 0-.2-.1l-.7-2.1c0-.1 0-.1.1-.1h.2c.2 0 .2 0 .2.1l.4 1.3c0 .2.1.4.1.4s0-.2.1-.4l.4-1.2c0-.1.1-.1.2-.1h.2c.3-.1.4-.1.3 0m2 .4v.2c0 .1-.1.1-.2.1l-.9-.2-.1.4.8.2c.1 0 .1.1.1.2v.2c0 .1-.1.1-.2.1l-.8-.2-.1.4.9.2c.1 0 .1.1.1.2l-.1.2c0 .1-.1.1-.2.1l-1.3-.3c-.1 0-.1-.1-.1-.2l.4-2c0-.1.1-.1.2-.1l1.3.3c.2.1.2.1.2.2m1.5 1l-.4-.2-.2.5.4.2c.2.1.3 0 .4-.1 0-.2 0-.4-.2-.4zm.7.6c-.1.3-.4.5-.6.5v.1l.1.7c0 .1 0 .1-.1.1l-.2-.1c-.2-.1-.2-.1-.2-.2v-.6c0-.2-.1-.2-.2-.3l-.1-.1-.3.6c0 .1-.1.1-.2.1l-.2-.1c-.1 0-.1-.1-.1-.2l.8-1.9c0-.1.1-.1.2-.1l.8.4c.3.2.5.6.3 1.1zm2.2.6l-.1.2c-.1.1-.1.1-.2 0l-.8-.5-.2.4.6.4c.1.1.1.1 0 .2l-.1.2c0 .1-.1.1-.2 0l-.6-.4-.2.4.8.5c.1.1.1.1 0 .2l-.1.2c-.1.1-.1.1-.2 0l-1.1-.8c-.1-.1-.1-.1 0-.2L26.6 9c.1-.1.1-.1.2 0l1.1.7c0 .1 0 .2-.1.2m.7.5l.2.2c.1.1.1.1 0 .2l-1.4 1.6c-.1.1-.1.1-.2 0l-.2-.2c-.1-.1-.1-.1 0-.2l1.4-1.6c.1-.1.2-.1.2 0m1.9 2.3L28.8 14c-.1.1-.1.1-.2 0l-.2-.2c0-.1-.1-.1 0-.1l.3-1.1c.1-.3.2-.5.3-.6-.1.1-.2.3-.5.5l-.6.5c-.1.1-.1.1-.2 0l-.2-.2c-.1-.1-.1-.1 0-.2l1.6-1.3c.1-.1.1-.1.2 0l.2.2v.1l-.3 1.2c-.1.3-.2.5-.3.6.1-.1.2-.3.5-.6l.6-.5c.1-.1.1-.1.2 0l.2.2c.1.1.1.1 0 .2M8.5 17.3c0 .1.1.2.3.3.1.1.3.2.3.3-.1 0-.2.1-.4.3-.1.1-.2.3-.3.3 0-.1-.1-.2-.3-.3-.1-.1-.3-.2-.3-.3.1 0 .2-.1.3-.3.2 0 .3-.2.4-.3m23 0l.3.3c.1.1.3.2.3.3-.1 0-.2.1-.3.3-.1.1-.2.3-.3.3 0-.1-.1-.2-.3-.3-.1-.1-.3-.2-.3-.3.1 0 .2-.1.3-.3.2 0 .3-.2.3-.3"/><path fill-rule="evenodd" fill="#005092" d="M20 10.3c-5.4 0-9.7 4.4-9.7 9.7s4.4 9.7 9.7 9.7 9.7-4.4 9.7-9.7-4.3-9.7-9.7-9.7zm6.7 11.9c-.5.3-.6.7-.6.8 0 .2-.1.2-.3.1-.2-.1-.4-.4-.3-.9 0-.3.2-.4.2-1.2 0-.6-.6-.9-1.1-.9-.3 0-1.5.5-2.2 2.1-.1.2-.1.2.1.3.1 0 .5.1.5.6s-.1.7-.4.7-.2.2-.1.3c0 .1.2.6 1.1.6s1.2.6 1.2 1.1-.2.3-.4.2c-.3-.1-.6.1-.9.1-.3.1-1.2-.2-1.5-.6s-.6-1.1-.6-1.5-.1-.4-.2-.4-.2 0-.2.4c0 1.2.5 1.6.5 2.3 0 .6-.3.9-.6 1.2-.3.3-.5.6-.7.6s-.5-.3-.7-.6c-.3-.4-.6-.7-.6-1.2 0-.7.5-1.1.5-2.3 0-.3-.1-.4-.2-.4s-.2 0-.2.4-.3 1.1-.7 1.5c-.3.4-1.2.6-1.5.6-.3-.1-.6-.2-.9-.1-.2 0-.4.3-.4-.2s.4-1.1 1.2-1.1c.9 0 1.1-.4 1.1-.6.1-.1.2-.3-.1-.3-.3 0-.5-.2-.5-.7s.4-.6.5-.6.1-.1 0-.3c-.7-1.7-1.8-2.1-2.2-2.1-.6 0-1.1.3-1.1.9 0 .8.2.9.2 1.2.1.5-.1.8-.3.9-.2.1-.3.1-.3-.1s0-.6-.6-.8c-.5-.3-1.3-.5-1.5-1.7s.6-2.4 2.3-2.6c1.7-.2 3 .9 3.7 1.8.7 1 .8 2.2.9 2.4.1.3.1.4.2.4.2 0 .2-.3.2-.3 0-.2-.2-1.8-.5-2.7-.8-1.7-1.1-2.3-1.1-3.5 0-1.3 1.5-2.7 2-3.6.3-.5.4-.6.5-.6s.2.1.5.6c.5.9 2 2.3 2 3.6 0 1.2-.3 1.8-1.1 3.5-.4.9-.5 2.5-.5 2.7 0 .1-.1.3.2.3.2 0 .2-.1.3-.4.1-.3.2-1.5.9-2.4.7-1 2-2.1 3.7-1.8 1.7.2 2.5 1.4 2.3 2.6-.4 1.1-1.2 1.4-1.7 1.7z"/></svg>