<svg baseProfile="tiny" xmlns="http://www.w3.org/2000/svg" width="40" height="40"><path fill="#FFF" d="M35 20c0 8.3-6.7 15-15 15S5 28.3 5 20 11.7 5 20 5s15 6.7 15 15"/><path fill-rule="evenodd" fill="#009932" d="M20 5.7C12.1 5.7 5.7 12.1 5.7 20S12.1 34.3 20 34.3 34.3 27.9 34.3 20 27.9 5.7 20 5.7zm0 27.1c-7.1 0-12.8-5.7-12.8-12.8S13 7.2 20 7.2c7.1 0 12.8 5.8 12.8 12.8S27 32.8 20 32.8z"/><path fill="#009932" d="M18.1 18.8c.1-.2.3-.4-.8-1.4-1.3-1.2-3.3-3.3-2-5.8.9-1.7 2.6-1.4 3.3-1 .5.3 1.7 1 2.8.2 1.3-.9 3.2-.3 3.6.9.4 1.1.5 2.8-1.1 4.5s-2.5 2.4-1.8 2.7c.3.1.6-.3.9-.8.7-.8 1.9-1.6 3.4-2.3 1.7-.8 4.5.3 3.3 3.8-.4 1.1-.4 2.4 0 3.1.6 1.1.5 2.9-.9 3.5-1.4.5-3 .4-4-.3S22.3 23 22 22.6c-.2-.3-.6-.9-1.3-1.1.1 1.1-.1 2.6-.2 3s-.5 1.7-1 2.7c-.5 1.1-.5 1.1-1.2 1.2s-2.2.5-2.4.6c-.2.1-.7 0-.8-.3s.1-.4.3-.5c.2-.1 3.9-2.4 3.9-6.6 0-.7-.3-.4-.6-.1-.3.3-.9.8-2.8 3.1s-4.5 1.5-4.8 1.4c-1.2-.4-1.8-2.3-1.3-3.5.6-1.2.8-1.9.5-2.9-.2-.5-.8-1.7-.2-2.9s2.2-2 4.3-.8c1.3.7 2 1.6 2.4 2.1.5.8.9 1.2 1.3.8"/></svg>