<svg baseProfile="tiny" xmlns="http://www.w3.org/2000/svg" width="40" height="40"><path fill="#0066B2" d="M20 5C11.7 5 5 11.7 5 20s6.7 15 15 15 15-6.7 15-15S28.3 5 20 5z"/><path fill="#FFF" d="M20 5.8C12.1 5.8 5.8 12.1 5.8 20S12.2 34.3 20 34.3c7.9 0 14.2-6.4 14.2-14.3S27.9 5.8 20 5.8z"/><path fill-rule="evenodd" fill="#DC052D" d="M6.4 20c0-7.5 6.1-13.6 13.6-13.6S33.6 12.5 33.6 20 27.5 33.6 20 33.6 6.4 27.5 6.4 20zm5.1 0c0 4.7 3.8 8.5 8.5 8.5s8.5-3.8 8.5-8.5-3.8-8.5-8.5-8.5-8.5 3.8-8.5 8.5z"/><path fill-rule="evenodd" fill="#0066B2" d="M14.7 14.3c.8-.8 1.8-1.4 3-1.7 1.2-.4 2.3-.4 3.5-.3v3.3l2.3 3.3v4l1.9 2.7c-.8.8-1.8 1.4-3 1.7-1.2.4-2.3.4-3.5.3v-3.3L16.6 21v-4l-1.9-2.7zm1.9 6.8l-2.3-3.3v-3c-.4.5-.8 1-1.1 1.5l1.1 1.6v4l2.3 3.3v1.9c.6.3 1.1.5 1.7.6l-1.7-2.5v-4.1zm6.8-2.2l2.3 3.3v3c.4-.5.8-1 1.1-1.5l-1.1-1.6v-4l-2.3-3.3v-1.9c-.6-.3-1.1-.5-1.7-.6l1.7 2.5v4.1zm-2.3.7l-2.3-3.3v-4l2.3 3.3v4zm0 0l2.3 3.3v4l-2.3-3.3v-4zm0 4.1l-2.3-3.3v-4l-2.3-3.3v4l2.3 3.3v4l2.3 3.3v-4zm-8.5-1.4c.4 1.1 1 2.2 1.7 3v-3.5l-2-2.9c-.2 1.1-.1 2.3.3 3.4zm13.1-7.6c.8.8 1.4 1.8 1.7 3 .4 1.1.4 2.3.3 3.4l-2-2.9v-3.5z"/><g fill="#FFF"><path d="M10.9 22.8l.4.8-.6 1.2c-.1.2-.2.3-.2.3h.4l1.3.1.5.8-2.9 1.7-.5-.7 1.2-.7c.3-.2.5-.3.5-.3s-.1 0-.4-.1l-1.2-.1.5-1.1c.1-.3.2-.4.2-.4s-.2.1-.5.3l-1.2.6-.4-.8 2.9-1.6z"/><path fill-rule="evenodd" d="M13.8 27l-.7-.6-1.4 1.6c-.6.7-.3 1.4.3 2 .7.5 1.4.7 2-.1l1.3-1.7-.7-.5-1.2 1.7c-.2.3-.5.3-.8.1-.3-.3-.3-.5-.1-.8l1.3-1.7zm-.2 1.1l.8-.6-.5-.4-.3 1z"/><path d="M15.9 28.5l.9.3.5 1.7c.1.4.1.6.1.6s.1-.2.1-.6l.4-1.3.8.2-.9 3.2-.9-.2-.6-1.8-.2-.6s-.1.3-.2.5l-.5 1.4-.8-.3 1.3-3.1zm6.5 2.9c0 .8-.5 1.3-1.4 1.4-.9 0-1.8-.4-1.8-1.7s.7-1.8 1.5-1.9c.9-.1 1.5.4 1.5 1.1l-.9.1c-.1-.3-.2-.5-.6-.5s-.6.4-.6 1c0 .7.3 1 .7.9.4 0 .6-.2.6-.6l1 .2zm.2-2.3l.8-.3.5 1.1 1-.5-.5-1.1.8-.4 1.5 3-.8.4-.6-1.2-1.1.5.5 1.2-.8.3-1.3-3zm3.1-1.6l1.6-1.5.5.5-1 1 .4.4 1-.9.5.5-1 1 .4.5 1.1-1.2.5.5-1.8 1.7-2.2-2.5zm2-2l.5-.8 1.7-.2c.4 0 .6-.1.6-.1s-.2-.1-.5-.2l-1.3-.6.3-.8 3 1.4-.4.8-1.8.3c-.4 0-.6.1-.6.1s.2.1.5.3l1.3.7-.4.8-2.9-1.7zM8.6 14.4l.6.3-.5 1.5.6.2.5-1.4.7.3-.5 1.3 1.2.4-.3.8-3.2-1 .9-2.4zm4.1-2.2c.6.5.7 1.2.1 2-.5.7-1.3 1-2.4.2-1-.8-.9-1.7-.3-2.4.6-.7 1.3-.8 1.9-.4l-.6.7c-.3-.2-.5-.1-.8.2-.3.3-.2.7.4 1.1.5.4 1 .4 1.2.1s.2-.6 0-.8l.5-.7z"/><path fill-rule="evenodd" d="M14.9 8.5c.6-.3 1.2-.3 1.4.3.2.5.1.7-.2.9.3-.1.6-.1.9.5.3.7-.1 1-.7 1.3l-1.2.6-1.5-3 1.3-.6zm.5 1.2c.2-.1.3-.2.2-.4-.1-.2-.2-.2-.5-.1l-.5.2.3.6.5-.3zm.7.7c.1.3 0 .4-.2.5l-.4.2-.3-.6.4-.2c.3-.1.4-.1.5.1zm3.9.2h.9l-1.5-3.3-1 .1-.9 3.5.9-.2.2-.6 1.1-.1.3.6zm-.8-1.8l.3.7-.7.1.1-.8c.1-.2.1-.4.1-.4 0-.1.1.1.2.4z"/><path d="M21.8 9.7L21 7.3l1 .2.3 1c.1.2.1.4.1.4s.1-.2.3-.3l.7-.8 1 .2-1.7 1.8-.3 1.1-.9-.1.3-1.1zM25 8.3l2.1 1.2-.4.6-1.3-.7-.2.5 1.2.7-.4.6-1.2-.6-.3.6 1.3.7-.4.6-2-1.1L25 8.3z"/><path fill-rule="evenodd" d="M29.3 11.5l-1-1.1-2.4 2.4.6.6.8-.8.3.3-.5 1.1.6.8.5-1.3c.3.1.6 0 1-.3.8-.6.6-1.2.1-1.7zm-1.1 1l-.3-.4.6-.6.4.4c.2.2.2.4 0 .6-.4.2-.5.2-.7 0z"/><path d="M29.1 17.8l-.3-.9 1-1.4c.2-.3.3-.5.3-.5s-.2.1-.5.2l-1.2.6-.4-.8 3-1.4.4.8-1 1.5c-.2.3-.3.5-.3.5s.2-.1.5-.2l1.3-.5.3.8-3.1 1.3z"/></g></svg>