<svg baseProfile="tiny" xmlns="http://www.w3.org/2000/svg" width="40" height="40"><path fill-rule="evenodd" fill="#FFF" d="M35.9 19.9c-.1 0-.1 0 0 0 .1.1.1.2 0 .2 0 .1 0 .2-.1.3v.1c-.3.6-1 2.3-2.7 2.2v.7c0 .6-.1 1.3-.1 2-.1.7-.1 1.3-.1 1.9 0 .3 0 .6.1.8 0 .1.1.3.3.4 0 .1.1.1.1.2 0 0 .1.2.2.3.1.1.3.4.3.7v1.4c0 .5.1 1.1.4 2.3v.3c0 .2 0 .4-.2.5H34c-.1.8-.5 1.5-1.1 1.7-.4.2-.8.1-1.1-.1-.2-.2-.3-.4-.3-.7v-.3c.1-.5.3-.8.4-1v-.1c.1-.3.3-.5.3-.9v-.2c0-.6-.4-1.2-.5-1.5V31c-.1-.1-.3-.4-.4-.7 0 .5.1.9.1 1.2.1.5.3 1.1.3 1.5v.1c0 .5-.3.8-.5 1.1v.2c-.1.3-.2.6-.6.8-.6.3-1 .1-1.2 0-.1-.1-.3-.2-.4-.6 0-.1 0-.5.3-.9.3-.3.6-.7.7-1.6v-.2c0-1.3-.9-2.6-1.2-3.1h-.3c-.1-.1-.2-.3-.3-.4 0 0 0-.1-.1-.1l-.2-.3c-.1 0-.4-.1-.4-.5h-.2c-.2-.1-.3-.4-.3-.6-.3-.1-.3-.4-.4-.7l-.1-.3c-.1-.1-.2-.2-.3-.4v-.2c0-.3-.1-.5-.2-.5h-.3c-.2 0-.5 0-.7-.3 0 0-.1-.1-.1-.2h-.3c-.2 0-.5-.2-.6-.3l-.1-.1h-.2c.5 1.2.8 2.5.8 3.8 0 5.6-4.5 10.1-10.1 10.1s-10.3-4.4-10.3-10c0-3.9 2.2-7.4 5.7-9.1.3-1 1.7-1.8 3.9-2.1.4-.2.7-.4.9-.5-.1 0-.1 0-.2-.1v-.2c-.1.1-.2.3-.3.4-.2.2-.4.2-.6.1-.2-.1-.3-.3-.3-.4v-.7c0-.3 0-.7-.1-.8s-.1-.1-.3-.2h-.1l-.2-.1c-.4-.2-.6-.6-.7-.9 0-.2-.1-.4-.1-.6 0-.4.1-.9.2-1.1v-.2c.1-.4.3-1.2.3-1.6v-.2c-.1-.2-.1-.4-.1-.7 0-.2 0-.4.1-.5-.3-.3-.5-.5-.7-1.1v-.3l-.1-.3s-.1-.2-.1-.3V6c.2-.2.5-.2.6-.2.4.1.7.2 1 .5 0-.2.1-.4.3-.7 0-.4.3-.8.5-.9.1-.5.4-.8.7-.9.3-.5.6-.7.8-.9h.1c.3-.1.6-.3 1.3-.4.4 0 .6.1.7.3v.1h.1c.1-.1.3-.1.4-.2.7-.5 1.6-.5 1.9-.5.2 0 .7 0 .8.5v.1c0 .3-.2.4-.6.7 0 0-.1.1-.2.1-.7.6-1.8 1.6-2.3 3.1.3-.1.7-.2.9-.1.1 0 .3.1.4.3.4 0 .4.4.4.7v.5c.9.6 1.4 1.3 1.8 1.9.2.3.4.5.5.7.5.4 1 .6 1.5.8.1 0 .2.1.3.1.4.1.7.3 1.1.5.5.4 1 1.1 1.5 1.8 0 .1.1.1.1.2.1.1.1.2.2.3.2.3.4.7.5.7 2.3 1.7 4.1 3 5.5 5.3v.1c.1.2.2.3.3.3.6 0 1.1-.8 1.5-1.4.1-.1.1-.2.2-.3V19c.1-.1.1-.2.2-.2s.1 0 .2.1l.1-.1c.1-.1.1-.2.2-.3.2-.1.4-.1.6 0 .1.1.2.3.2.4v.1s0 .1-.1.2v.4c.4.2.4.2.4.3zm-20-6v.2c0 .4-.3 1.1-.5 1.5.1-.1.2-.2.3-.2.1-.1.2-.2.3-.2l.1-.3c.1-.1.3-.3.4-.3l-.1-.3c-.1-.1-.3-.2-.3-.5H16c-.1 0-.1.1-.1.1z"/><path fill="#FFF" d="M33.7 29.2c.2.1.2.2.2.2l-.2-.2z"/><path fill="#E30613" d="M4.6 27.8c0-5.4 4.4-9.7 9.7-9.7 5.4 0 9.7 4.4 9.7 9.7 0 5.4-4.4 9.7-9.7 9.7-5.3.1-9.7-4.3-9.7-9.7z"/><path fill="#FFF" d="M14.3 36.4c4.7 0 8.6-3.8 8.6-8.6s-3.8-8.6-8.6-8.6-8.6 3.8-8.6 8.6 3.9 8.6 8.6 8.6z"/><path fill="#E30613" d="M14.3 35.8c4.4 0 7.9-3.5 7.9-7.9S18.7 20 14.3 20s-7.9 3.5-7.9 7.9c0 4.3 3.6 7.9 7.9 7.9z"/><path stroke="#000" stroke-width=".051" d="M22.7 22.7c-.2-.2-.3-.4-.3-.4-1.7-2.5-4.7-4.2-8-4.2h0c-.1 0-.3.1-.4.2-.3.1-.6.2-.9.2-.3 0-.1-.3-.2-.3-.2 0-.5.2-.7.3 0 .4-1.2.8-1.8.5.1-.9 1.6-1.7 3.7-2 1.3-.8 1.5-1 2.4-1.8.4-.4.6-.5.7-.5.1 0 0-.1 0-.1-.1 0-.2-.1-.2-.2-.1-.1 0-.3-.1-.4-.1-.1-.3-.1-.3-.3 0-.1 0-.3-.1-.3-.2 0-.3 0-.3-.4 0-.2 0-.5-.1-.5s-.3.4-.4 1.5c-.1.8-.6 1.7-.8 1.6-.1-.1 0-1-.3-1.3 0-.1.1.9-.7 1.7-.1.1-.2 0-.2 0 0-.2.1-1.4-.1-1.7-.2-.3-.4-.3-.7-.4-.3-.1-.4-.4-.5-.7-.2-.8.1-1.6.2-1.8.1-.3.3-1.4.3-1.9-.1-.4-.3-.7 0-1.2 0-.1.1-.1 0-.1-.4-.3-.6-.5-.7-1-.1-.3 0-.5-.1-.7 0-.1-.1-.2-.1-.3.1-.1.2-.1.3-.1.6.1.9.4 1.2.8.1-.1.1-.3.3-.3 0-.4.1-.6.4-.9 0-.4.3-.7.5-.8 0-.4.3-.7.6-.9.3-.6.6-.8.8-.9.2-.1.5-.3 1.1-.4.3 0 .3.1.2.2-.4.3-1.2 1.2-1.6 2.3.1-.2.4-.5.7-.7.2-.5.7-.8.9-.9.2-.3.5-.7 1.1-.8.6-.5 1.6-.5 1.7-.5.2 0 .4 0 .5.2.1.3-2.9 1.7-3.3 4.8 0 .1.7-.7 1.5-.6 0 0 .1 0 .1.1.4.8 0 1.5.1 1.5 1.5.9 1.9 2 2.5 2.7.9.9 2 .8 2.9 1.5.9.6 1.9 2.7 2.3 3.1 2.1 1.5 4 2.9 5.4 5.2.2.3.3.5.7.5.8 0 1.5-1 2-1.9 0 0 .1-.1.1 0 .1 0 0 .2.1.2.2 0 .3-.5.5-.6.1 0 .2 0 .1.1 0 .2-.2.4-.2.6h.1c.1 0 .1.1 0 .1-.1.1-.1.3-.1.4s.1 0 .1.1c.1 0 .1.1 0 .3-.2.5-.9 2.3-2.5 2.1-.2 0-.3-.2-.3 0 .4 1.4-.4 4.5-.1 5.9.1.4.6.8.7 1 .1.1.2.3.2.4.1 1.2-.2 1.3.4 3.7 0 .2 0 .3-.1.4-.1.1-.2.1-.2.2-.1.8-.4 1.3-.8 1.5-.6.2-1-.1-.9-.6.2-.9.6-1.1.8-2 .1-.8-.4-1.6-.5-1.9s-.5-.9-1-1.4c-.1-.1-.1-.1-.1 0-.2.6 0 1.7.1 2.1.1.5.3 1.1.3 1.5s-.2.6-.4.8c-.3.3-.1.7-.7.9-.4.1-.7.1-.8 0s-.2-.1-.2-.3c0-.2 0-.4.2-.7.3-.4.7-.9.7-1.8.1-1.7-1.4-3.7-1.5-3.7s-.1.1-.1 0c-.1-.1-.3-.6-.5-.8-.1-.1-.3-.1-.3-.3 0-.1-.1-.3-.2-.3h-.2c-.2-.1-.2-.7-.3-.7h-.2c-.1-.1-.1-.5-.2-.8 0-.2-.2-.1-.3-.4-.1-.4-.1-.8-.4-1-.4-.2-.7.1-.8-.2-.1-.1-.1-.3-.3-.4-.1-.1-.2-.2-.3-.2s0 .1-.1.2c-.2 0-.4-.5-.6-.5-.1 0-.1.1-.2.1s-.1-.5-.5-.7c-.1 0-.1.1-.2 0-.2.3-.3.2-.5 0z"/><path fill="#FFF" d="M14.1 5.8c.1-.2.5-.3.4-.3 0-.1-.1 0-.2 0h-.1c.1-.5.7-.6.8-.8-.1 0-.2.1-.2 0 .1-.5.7-.8.8-.8v-.1h-.1c.1-.3.4-.4.6-.5.2-.1.7-.2.7-.1 0 0-.3.2-.4.4-.3 0-.3 0-.3.3-.4.2-.5.5-.5.9-.3.1-.4.6-.4.8-.3.3-.4.7-.4 1.1-.6.8-.4 1.1.3 1.4h.2l-.1-.1c-.4-.8.1-1.2.8-1.5 0 0 0-.1-.1-.1h-.4c-.1-.3.6-.8.9-.9.1 0 .1-.1 0-.1s-.2 0-.3-.1c.1-.3.9-.7 1.1-.8.1 0 .1-.1-.3-.1h-.1c.1-.2.9-.5 1.3-.7.1 0 .1-.1-.1-.1-.1 0-.2.1-.2 0 0-.3.9-.5 1.2-.6.1 0 .1-.1 0-.1s-.3 0-.2-.1c.2-.1.8-.1 1.1-.1h.1c-.1.1-1.1.5-1.2 1.1-.3.1-.6.4-.7.7-.2.1-.5.4-.5.7-.2.1-.7.5-.5 1.1-.3.2-.4.5-.4 1.1 0 .2-.3.6-.6.7-.1 0 0 .1 0 .1.5.1 1-.1 1.2-.3.6-.5 1-.8 1.2-.8h.1c0 .1.1.5 0 1-.2.6-.7.9-.8 1.1 0 0 .1.3 0 .4-.1.2 0 .3.1.3.2.1.3-.6.4-.6.1 0 .1.1.2.2 0 0 .1 0 .1-.1 0-.2.1-.6.1-.7 0 0 .1.1.1.3 0 .5-.3.9-.1 1.3 0 .1.1.1.2 0 .1-.2.3-.8.6-.8.5-.1.9 1.2.6 1.5-.1.1-.4 0-.5.1-.2.1-.2.6-.3.8-.1.1-.2.1-.4.1-.4 0-.3 1.2-.2 1.4 0 .1.1.1.2.1s.1-.3.1-.5c0-.1.1-.1.2-.2s0-.1.1-.2.2 0 .3-.1c.2-.1 0-.4.2-.5s.4-.1.6-.3c.1-.1.1-.4.3-.4.9 0 1.7 1 1.9 1.3.4.9-.3 2.2.2 2.5.6.3.5 1 .4 1.2-.1.3-1.1.8-1.2 1.5-.1.8.3.6.4.5 0-.1.1-.2.1-.3 0-.1.1 0 .2 0 0 .1.2.3.4-.2.1-.3.5-.7.9-.8.3-.2.4-.9.4-1s.1-.1.2-.3c0-.1-.3-.6-.1-1 .1-.1.3-.2.4 0 .1.2-.1.7.2.7.2 0 .3-.3.4-.2.2 0-.1.8 0 .9.1 0 .3 0 .3.1 0 .2-.3.5 0 .5 3.2-.1 4.4 2.5 4.1 2.9-.1.2-.5-.1-.5.1-.3 1 .4 1.7.5 1.9.1 0 .1 0 .1-.1 0-.3-.2-.4-.1-.7 0-.5 1.2-.2 1.2.2 0 .1 0 .3.1.4s.5 0 .6.3c0 .6-.7.7-1.3 1.1-.3.2-.2.3 0 .4.3.1.7 0 .9.3.3.4-.1 1.3-.1 1.7 0 .4.7 1.5.7 2.1 0 .3-.1.4-.4.2-.2-.3-.5-.6-.7-.9 0-.1-.2-.1-.2.1 0 .5 2.4 3.6 2.4 4.1 0 .3-.1.5 0 .8 0 .1.1 0 .1.1 0 .2-.1.4.1.5.1.3 0 .5.1.8 0 .3.1.7.2.9-.1.8-.4 1.1-.6 1.2-.2.1-.3-.1-.3-.3.1-.5.6-1.3.4-2.3-.5-2.5-3.2-4.2-3.6-5.1-.1-.4-.7-.4-.7-.8 0-.1-.2-.1-.3-.2s-.1-.4-.2-.7c0-.1-.1 0-.2-.1-.4-.5-.3-2.9-.6-3.2-.3-.1-.4.3-.7.3-.2 0-.6-.5-.8-.4-.1.1-.1.4-.1.5 0 0 .1.3 0 .3s-.2-.1-.5-.3c-.2-.1-.4 0-.5-.1-.2-.2 0-.7-.3-.8-.1 0-.1-.3-.1-.4s-.1-.1-.2-.1c-.1-.1-.1-.3-.2-.5 0-.1-.3 0-.4-.2 0-.1-.2-.2-.3-.2s-.1-.4-.2-.4h-.1c-.1-.1 0-.1-.1-.2h-.2c-.2-.3 0-.7-.1-.8-.1-.1-.2 0-.3-.1s-.1-.2-.2-.2c-.2 0-.3 0-.3-.1-.3-.4-.3-1-.4-1.2-.1-.1-.2-.2-.3 0-.1.4-.1 1.9-.6 2-.4.2-.7-.4-.9-.5-.1 0-.1.1-.1.1-.2-.1-.1-.3-.3-.3-.1-.1-.1.1-.1.1-.1-.1-.1-.4-.3-.5-.1 0-.1.1-.2 0-.2-.1-.1-.5-.3-.6-.1 0-.1.1-.2.1s-.1-.5-.4-.5c0 0 0-.1-.1-.1s-.1.1-.3 0c-.1-.2-.2-.3-.3-.3-.1-.1-.3 0-.5-.1-.5-.3-1.8.7-2.4 1.3-.2-.2-.5 0-.7 0-.1 0-.3 0-.1-.3.5-.5.9-.5 1.9-1.2.7-.5 1.3-1 1.6-1.2.2-.1.5-.2.7.1.4.5 1.1 1.2 1.5 1.4.7.3.7-.2.8-.4.1-.2.1 0 .1.1s0 .3.1.3c.2 0 .2-.1.2-.2.2-.8 1.1-1.9 1.4-1.6.3.1.4.1.4-.1.1-.4-.2-.7-.3-1.1-.1-.4 0-1.1-.2-1.1-.1 0-.3.1-.3.2-.1.1-.1.3-.1.5 0 .1-.4.2-.4.7 0 .1-.1-.1-.3 0s-.2.9-.3 1c-.1 0-.2-.1-.2 0s0 .4-.1.5h-.2c-.2.1-.1.4-.3.6-.1.1-.2 0-.2-.1 0-.2-.2-.5-.3-.6-.4-.4-.1-1.1-.7-1.4-.2-.1-.2-.2-.2-.3 0-.2-.1-.3-.2-.3s-.2-.1-.2-.3c0-.3-.2-.3-.3-.3-.3 0-.3-.1-.2-.8v-.5c-.1-.2-.5-.1-.4-.4 0-.2.4-.5.6-.7.1-.1.2-.4-.2-.4-.8.2-1.5 1.7-1.7 2-.6 1.1-1.1 1.6-1.6 1.7-.2.1-1 .1-1.2-.6-.1-.4 0-.8.2-1.4.8-2.8-.1-2.3.4-3.2.3-.3.7-.3 1.1-.3.1 0 .1-.1 0-.2 0 0-.1-.1-.3-.1-.1 0-.4-.3-.4-.5 0-.3.1-.5.3-.6.2-.2.3-.2.3-.2 0-.1-.3.1-.4 0 0-.7.1-.9.3-1.1zm-.9 1.5c0 .1 0 .3.1.6-.2 0-.2.1-.3 0-.4-.2-.6-.6-.7-.9-.1-.2-.1-.5-.2-.7.7 0 1.1.9 1.1 1z"/><path d="M18.4 7.4c0 .5-.5 1.4-1.1 1.6h-.1c-.1-.3.1-.9.7-1.1l.5-.5zm-2.2 1.8c0 .1 0 .1-.1.1-.3-.4-.6-.3-.8-.1h-.1c.3-.7.9-.4 1 0zm-1.7 0c.2.3.1.6 0 .9-.1.2-.3.5-.4.7 0 .1-.1.1-.1.1-.1 0 .2-.4.3-.9 0-.2 0-.5.1-.7 0-.1.1-.1.1-.1z"/><path d="M15.9 9.5c.1.3-.2.4-.4.4-.1 0-.2 0-.3-.1-.1 0 0-.1-.1-.1s-.1 0-.2.1c-.1 0-.1 0 0-.1.1-.2.2-.3.4-.4s.5-.1.6.2zm-.9 1.1c.1.5 0 .8-.1.9 0 0-.4.1-.4-.3.1-.2.3-.5.3-.7.1 0 .1 0 .2.1zm-1.2 1.6c-.1.4-.2.5-.5.6-.3 0-.4-.3-.4-.3.4 0 .7-.1.9-.3 0-.1.1-.1 0 0zm14.3 5.4c.1 0 .2.2.2.3-.1.1-.2.3-.2.4s0 .2-.1.2c-.2 0-.3-.4-.4-.1-.1.1-.3 0-.3 0 0-.1-.1-.2-.2-.3-.4 0-.5-.6-.4-.8.2-.6.9.1 1.4.3z"/><path fill="#FFF" d="M13.3 17.5c-.2.1-.3.3-.4.5-.3 0-.6.2-.9.3-.1 0-.5.1-.8.1 0 0-.1 0-.1-.1-.1-.2 1.5-.9 2.2-.8.1-.1.1-.1 0 0zm21.6 3.4c0 .1-.1.3-.3.5-.1.2-.8.6-1.3.6-.1 0-.3-.2-.3-.4 0-.1.5-.2.9-.3.3-.1.4-.1.7-.3.2-.2.3-.2.3-.1zm-4.5 9.7c.1 0 .1 0 0 0 .2 0 .2.3.2.5 0 .1 0 .3.1.4s-.1.4 0 .5c.1.1-.1.4 0 .6.1 0 .1 0 .1.1-.1.4.1.9 0 1.1-.1.3-.3.2-.4.7-.2.4-.8.1-.7-.2.4-.7.6-1.5.6-1.9.1-.9-.4-2.3-.4-2.5s0-.3.2-.1c.3.3.3.8.3.8zM15.2 23c0 .1-.5-.6-.6-.7 0 .2-.2 2.9-.2 2.9h-.1s-.2-2.7-.2-2.9c-.1.1-.5.8-.5.8s-.9-4.3-1-4.6c-.1.3-1 4.6-1 4.6s-.5-.7-.5-.8c0 .2-1 12.1-1 12.1 1.3.8 2.8 1.3 4.3 1.3 1.6 0 3.1-.4 4.3-1.3l-1-12.1c-.1.1-.5.8-.5.8s-.9-4.3-1-4.6c-.1.3-1 4.5-1 4.5z"/><path d="M18.7 34.4l-1-12.2-.5.8-1-4.7-1 4.7-.5-.8-.3 3-.2-3-.5.8-1-4.7-1 4.7-.5-.8-1 12.2c1.2.8 2.8 1.3 4.4 1.3 1.5.1 2.9-.4 4.1-1.3z"/><path fill="#FFF" d="M22.6 27.4l-1.3-4.3-15.4 4.3.9 4.4 15.8-4.4z"/><path fill="#E30613" d="M8.8 27.1l2-.6-.4 3.8-1.4.4.3-2.6-.6.2.1-1.2zm3.8 2.1c0 .4-.5.7-.8.8-.4.1-.8 0-.7-.4 0-.4.5-.8.8-.9.4 0 .7.1.7.5zm1-3.4l2.6-.7-.1 1.1-1.2.3v.4l1.1-.3-.1 1-1.1.3-.1 1.3-1.5.4.4-3.8zm5.9-.2c-.2-.1-.5-.2-.8-.1-.4.1-.8.5-.8.9s.3.7.7.5c.3-.1.6-.3.8-.6l-.2 1.5c-.3.2-.8.4-1 .4-1.1.3-1.9-.3-1.8-1.4.1-1.1 1.1-2.3 2.3-2.6.3-.1.7-.1.9-.1l-.1 1.5z"/><path fill-rule="evenodd" fill="#FFF" d="M13.8 30.8c.1 0 .2-.2.2-.3s-.1-.3-.2-.2-.2.2-.2.3.1.3.2.2zm-.7.2c.1 0 .3-.2.3-.3s-.1-.3-.2-.2c-.1 0-.2.2-.2.3s0 .2.1.2zm1.3 1.1c-.1.8-.6 1.4-1.2 1.6-.6.2-1-.2-.9-1 .1-.8.6-1.4 1.2-1.6.5-.2 1 .2.9 1zm-1.1.8c-.2 0-.4-.1-.3-.4 0-.3.2-.5.4-.6s.4.1.3.4c0 .3-.2.5-.4.6z"/><path fill="#FFF" d="M14.7 30.8l.7-.2-.1 1.7.6-.1-.1.8-1.3.4.2-2.6zm1.5-.5l.7-.2.5 1.2v-.6l.1-.8.7-.2-.2 2.5-.7.2-.5-1.2v.5l-.1.8-.7.2.2-2.4zm-5.6 1.6l.7-.2-.1 1.1c0-.1.1-.2.1-.3l.4-.9.8-.2-.7 1.4.5 1.1-.8.2-.3-.7c0-.1-.1-.1-.1-.3l-.1 1.1-.7.2.3-2.5z"/></svg>