<svg baseProfile="tiny" xmlns="http://www.w3.org/2000/svg" width="40" height="40"><path fill="#FFF" d="M9.9 20c0-8.1 4.5-14.6 10.1-14.6S30.1 12 30.1 20c0 8.1-4.5 14.6-10.1 14.6S9.9 28.1 9.9 20z"/><path fill-rule="evenodd" d="M20 5C14.2 5 9.5 11.7 9.5 20S14.1 35 20 35s10.5-6.7 10.5-15c0-8.2-4.7-15-10.5-15zm0 29.2c-5.3 0-9.7-6.3-9.7-14.2S14.7 5.8 20 5.8s9.8 6.4 9.8 14.2c-.1 7.9-4.4 14.2-9.8 14.2z"/><path d="M10.8 20c0-7.6 4.1-13.7 9.2-13.7s9.2 6.1 9.2 13.7-4.1 13.7-9.2 13.7-9.2-6.1-9.2-13.7z"/><path fill-rule="evenodd" d="M20 6.2c-5.2 0-9.4 6.2-9.4 13.8s4.2 13.8 9.4 13.8 9.4-6.2 9.4-13.8S25.2 6.2 20 6.2zm0 27.4c-5 0-9.1-6.1-9.1-13.6S15 6.4 20 6.4s9.1 6.1 9.1 13.6c.1 7.5-4 13.6-9.1 13.6z"/><path fill-rule="evenodd" fill="#FFF" d="M24.3 7.8l-9 24c-2.7-2.4-4.5-6.8-4.5-11.8 0-7.6 4.1-13.7 9.2-13.7 1.6 0 3 .5 4.3 1.5z"/><path fill-rule="evenodd" d="M16.7 12h.2c.4.1.7.1.9.3h-1.2c-.2 0-.3 0-.5.2-.1.1-.1.2-.1.3v.1h.2c.5.1.6.1.8.1.3.1.5.1.7.2h-2.6l-.2.2v.1c0 .2.1.3.2.4.4.3.8.4 1.5.4h1c.2 0 .3 0 .3.1 0 0 0 .2-.1.2-.7.4-1.5.9-2.4 1.3-.1.1-.2.1-.3.2l-.2.1c-.1 0-.2.1-.2.1-.7.4-1.1.7-1.6 1.1l-.1.1c-.3.3-.4.6-.5.9 0 .2.1.3.3.3h.1c.1-.1.4-.2.5-.3h.1c.5-.2.8-.4 1.2-.5h.1s0 .1-.1.1c-.1.1-.1.1-.1.2l-.2.2c-1 1.3-1.5 2.1-1.8 3v.3c0 .1 0 .2.1.3.2.2.3.2.5.1.2-.2.3-.3.5-.6l.2-.2c.7-.8 1.1-1.3 1.6-1.7 0 .2-.1.3-.2.7-.4 1.3-.5 2-.4 2.8v.2c.1.3.1.4.4.5h.2c.2-.1.2-.1.3-.3.6-1.7.9-2.5 1.3-3.4 0 0 0-.1.1-.2v-.1 1.9c.1.5.2.8.5 1 .2.1.4 0 .5-.2v-.1c0-.8.1-1.6.3-2.2 0-.1.1-.2.1-.4v-.1c.1-.5.2-.8.3-1h.1c.1 0 .2.1.3 0h.1v-.1c.1-.2 0-.4 0-.7v-.4c0-.3.1-.7.1-.8 0 .1.1.2.1.2.1.1.3.1.5 0v-.1c.1-.2.1-.2.1-.4v-1.2c0-.2.1-.3.1-.4l.1.1h.1c.1.1.2.1.3.1 0 0 .1 0 .1-.1v-.1c.1-.2.1-.4.1-.8v-.4c0-.2 0-.4.2-.7.1-.2.1-.3.1-.5.1-.7-.1-1.4-.5-1.9-.5-.8-1.4-1-2.6-1-.9.2-1.7.2-2.9.1h-.2c-.1.1-.2.1-.3.2l-.2.2v.1s-.1 0-.2.1c-.3 0-.4.1-.5.3 0 0-.1 0-.2.1-.3.1-.4.2-.5.4-.1.4-.1.9 0 1.2v.1c.2.2.5.3.8.3h.1c.1 0 .2-.1.2-.3 0-.1 0-.1-.1-.2 0-.1 0-.2.1-.2.2 0 .3-.1.5 0h1.4c.4.1.4.1.5.1z"/><path fill-rule="evenodd" fill="#FFF" d="M18.3 11.7c.3 0 .5-.1.6-.4.1-.1 0-.3 0-.5-.1-.2-.3-.3-.5-.3h-.1c-.3 0-.5.1-.6.4v.5c0 .1.2.2.4.3h.2c-.2 0-.1 0 0 0zm-.1-.4c-.1 0-.1 0 0 0H18v-.2c0-.1.1-.1.2-.1h.1c.1 0 .1 0 .2.1v.1c-.1 0-.1 0-.3.1zm-3.6 0l.1.1h.1c.1 0 .2-.1.3-.2v-.1c0-.2-.1-.4-.3-.4h-.1c-.1 0-.1 0-.2.1s-.1.2-.1.3c.1.1.1.2.2.2z"/><path fill-rule="evenodd" d="M18 10.8c-.1 0-.1 0 0 0-.2 0-.2.1-.3.2-.1.1 0 .3.1.4.1.1.2.1.4.1.1 0 .1 0 .2-.1h.2v-.2c0-.1 0-.2-.1-.3l-.1-.1h-.1l-.1-.1H18c.2.1.1.1 0 .1z"/><path fill-rule="evenodd" fill="#FFF" d="M15.3 11.3c-.1-.1-.2-.1-.3-.1l-.1.1c-.1 0-.2 0-.3-.1l-.2-.2-.1-.1-.1.1h-.1c-.2.1-.3.1-.4.3v.5c0 .1 0 .1.1.4 0 .1.1.2.2.2h.4l-.1-.3.1-.1c.1-.1.2-.1.6-.2h.4l.4-.1-.5-.4zm4.5 1v.7c-.1.3-.1.4 0 .6l.1.2.2-.1c.3-.2.4-.4.4-.8v-.4c0-.3-.4-.4-.7-.3v.1zm0 1.5c0-.1 0-.1 0 0 0-.2-.1-.3-.2-.3h-.3l-.1.1c-.1.1-.2.1-.2.3v.1c.1.1.1.3.1.5v.2c0 .2 0 .3.1.4l.1.4.3-.3c.1-.1.2-.4.2-.7v-.7zm-.7 1.3c0-.2-.1-.2-.2-.3h-.1c-.2-.1-.4-.1-.6.2l-.1.1v.1c.1.2.1.3.2.6 0 .2.1.2.1.3v.1c0 .1 0 .1.1.2l.2.2.1-.3c.1-.3.2-.6.1-.9.3-.2.2-.2.2-.3zm-5 2.8c1.2-.5 2-.9 2.9-1.2h.1v-.2c0-.2 0-.3-.1-.5l-.1-.1h-.1c-.6.1-2.2.9-2.9 1.6l-.8.8 1-.4zm4 2.7c0-.9.3-2.9.5-3.4v-.1l-.1-.1c-.1-.1-.3-.1-.5-.1h-.2v.2c-.2.7-.2 1.3-.2 2 0 .4 0 .7.1 1.6l.4-.1z"/><path fill-rule="evenodd" fill="#FFF" d="M14 20.9c1.3-1.6 2.3-2.8 2.9-3.4l.1-.1-.1-.2c-.1-.2-.3-.4-.6-.3h-.1c-.8.6-2.2 2.5-2.7 3.7l-.6 1.4 1.1-1.1z"/><path fill-rule="evenodd" fill="#FFF" d="M16.8 19.3c.1-.2.2-.5.3-.8.1-.1.2-.4.3-.6 0-.1.1-.2.1-.2l.1-.1-.1-.1c-.1-.1-.3-.2-.5-.2h-.1l-.1.1c-.7 1.2-1.3 2.9-1.5 4.7l-.2 2 .6-1.9c.2-.6.4-1.1.6-1.6.2-.5.3-.8.5-1.3z"/><path fill="#FFF" stroke="#FFF" stroke-width=".026" d="M26.8 23c-.6-1.2-1.9-2-3.3-2-2.1 0-3.8 1.7-3.8 3.8s1.7 3.8 3.8 3.8c1.6 0 3-1 3.5-2.5h.6c-.6 1.8-2.2 3.1-4.2 3.1-2.4 0-4.4-2-4.4-4.4s2-4.4 4.4-4.4c1.8 0 3.3 1.1 4 2.6h-.6 0z"/><path fill="#FFF" stroke="#FFF" stroke-width=".011" d="M22.8 23.2h2.8v.5h-2.3v1.5h2.2v.6h-2.2v2.4h-.5v-5h0z"/><path fill="#FFF" d="M24.9 22.6c-.3-.6-.9-.9-1.5-.9-.9 0-1.6.6-1.6 1.5 0 1 .9 1.3 1.7 1.6.6.2 1.2.4 1.2 1.2 0 .7-.6 1.3-1.3 1.3-.8 0-1.2-.5-1.5-1.2l-.6.2c.3.9 1.1 1.6 2 1.6 1.1 0 1.9-.8 1.9-1.8 0-2.1-2.9-1.4-2.9-2.9 0-.5.5-.9 1-.9s.9.3 1 .7l.6-.4z"/></svg>