<svg xmlns="http://www.w3.org/2000/svg" xmlns:xlink="http://www.w3.org/1999/xlink" viewBox="0 0 49 49"><g transform="translate(-1499 -85.59) scale(3.097)"><defs><path id="a" d="M471.82 22.2h40.9v28.75h-40.9z"/></defs><clipPath id="b"><use xlink:href="#a" overflow="visible"/></clipPath><g clip-path="url(#b)"><path fill="#211E1E" d="M485.67 32.69c.41 1.4.97 3.28 1.61 4.46 1.48 2.7 3.15 4.07 4.99 4.07 1.82 0 3.5-1.37 4.98-4.08.64-1.17 1.2-3.05 1.61-4.45a.05.05 0 00-.03-.06L496.6 32c-.2 2.1-2.46 6.84-4.32 6.84-1.87 0-4.13-4.74-4.33-6.84l-2.24.62a.05.05 0 00-.04.04v.02"/></g></g><g transform="translate(-1499 -85.59) scale(3.097)"><defs><path id="c" d="M478.53 20.86h27.36v27.2h-27.36z"/></defs><clipPath id="d"><use xlink:href="#c" overflow="visible"/></clipPath><g clip-path="url(#d)"><path fill="#A80F19" d="M492.26 38.84c1.95 0 4.34-5.2 4.34-7.12 0-1.27-3.4-1.65-4.34-1.65-.93 0-4.34.38-4.34 1.66 0 1.92 2.4 7.12 4.34 7.12"/></g></g><path d="M11.85 28.12l.23.56c.4.9.9 1.1 1.81.73.83-.34 1.05-.96.72-1.77l-.24-.57-2.52 1.05zm3.06-2.67l.8 1.97c.6 1.4.09 2.6-1.33 3.18-1.5.62-2.66.1-3.24-1.29l-.81-1.96 4.58-1.9zM18 33.2c-.3.34-.73-.08-1.69-1.09l.82-.7c.9 1.03 1.18 1.45.87 1.79m.74-1.66l-1.45-1.65-3.9 3.21c.24.3.5.57.74.86.46-.38.9-.78 1.35-1.17l.28.35c-.06.73-.14 1.45-.21 2.16l1.07 1.01c.08-.97.16-1.5.21-2.23.38.3 1.47.66 2.15-.16.68-.82.34-1.72-.24-2.38m5.85 7.9c.05.58.41.76.96.74.39 0 .79-.15.78-.52-.01-.44-.72-.5-1.44-.69-.71-.18-1.46-.49-1.48-1.4-.03-1.08 1.05-1.52 1.98-1.55.98-.02 1.99.44 2.02 1.55l-1.3.03c.02-.45-.4-.58-.8-.57-.28 0-.62.1-.62.43.01.38.73.44 1.45.62.72.19 1.45.5 1.47 1.4.03 1.25-1.02 1.68-2.11 1.7-1.14.03-2.16-.44-2.2-1.71l1.3-.03zm6.02-1.14l.52-.32c.81-.54.94-1.07.41-1.91-.48-.76-1.13-.88-1.87-.4l-.52.32 1.46 2.31zm-3.14-2.56l1.8-1.13c1.28-.82 2.54-.52 3.36.77.87 1.38.56 2.6-.71 3.41l-1.8 1.14-2.65-4.19zm6.94-6.37l.54-1.21 3.5-.33v-.01l-2.79-1.25.5-1.1 4.52 2.01-.54 1.21-3.52.32V29l2.81 1.26-.5 1.1-4.51-2.01zm-14.07 4.36l3.08 1.86-.53.89-1.98-1.2-.45.75 1.79 1.07-.52.86-1.78-1.08-.49.8 2.04 1.24-.58.95-3.14-1.9 2.56-4.24zm11.07-1.02l2.41-2.68.77.7-1.55 1.7.65.59 1.39-1.54.74.66-1.4 1.55.7.63 1.6-1.77.83.75L35.1 36l-3.68-3.31zM9.99 26.34a.1.1 0 01-.13-.07l-3.2-9.47a.1.1 0 01.07-.13l.48-.17a.1.1 0 01.13.07l3.2 9.48a.1.1 0 01-.07.12l-.48.17zm1-.34a.1.1 0 01-.12-.07l-3.2-9.48a.1.1 0 01.06-.13l.49-.15a.1.1 0 01.13.06l3.2 9.48a.1.1 0 01-.07.13L11 26zm1.01-.34a.1.1 0 01-.13-.07l-3.2-9.48a.1.1 0 01.07-.12l.48-.17a.1.1 0 01.13.07l3.2 9.48a.1.1 0 01-.07.13l-.48.16zm1-.34a.1.1 0 01-.12-.06l-3.2-9.48a.1.1 0 01.06-.13l.49-.17a.1.1 0 01.13.07l3.2 9.48a.1.1 0 01-.07.13l-.48.16zm1.01-.34a.1.1 0 01-.13-.06l-3.2-9.48a.1.1 0 01.07-.13l.48-.16a.1.1 0 01.13.06l3.2 9.48a.1.1 0 01-.07.13l-.48.16zm27.08 1.36c.06.02.11-.01.13-.07l3.2-9.47a.1.1 0 00-.07-.13l-.48-.17a.1.1 0 00-.13.07l-3.2 9.48a.1.1 0 00.07.12l.48.17zm-1-.34a.1.1 0 00.13-.07l3.2-9.48a.1.1 0 00-.07-.13l-.48-.15a.1.1 0 00-.13.06l-3.2 9.48a.1.1 0 00.06.13l.49.16zm-1-.34c.05.02.1-.01.12-.07l3.2-9.48a.1.1 0 00-.07-.12l-.48-.17a.1.1 0 00-.13.07l-3.2 9.48a.1.1 0 00.07.13l.48.16zm-1.02-.34a.1.1 0 00.13-.06l3.2-9.48a.1.1 0 00-.07-.13l-.48-.17a.1.1 0 00-.13.07l-3.2 9.48a.1.1 0 00.07.13l.48.16zm-1-.34a.1.1 0 00.13-.06l3.2-9.48a.1.1 0 00-.07-.13l-.48-.16a.1.1 0 00-.13.06l-3.2 9.48a.1.1 0 00.06.13l.49.16z" fill="#FAD10F"/><path fill="#FFF" d="M25.54 9.58c-1.3 0-4.37.27-7.14 1-1.47.39-2.65.86-3.41 1.36-.58.38-.92.79-.92 1.1 0 2.64 1.73 7.71 4.12 12.07a26.82 26.82 0 003.94 5.64c1.3 1.35 2.48 2.06 3.41 2.06s2.11-.71 3.41-2.06c1.3-1.35 2.67-3.3 3.95-5.64 2.38-4.36 4.1-9.43 4.1-12.07 0-.32-.33-.72-.91-1.1-.76-.5-1.94-.97-3.42-1.36-2.76-.73-5.84-1-7.14-1m0 23.6c-1.03 0-2.3-.75-3.67-2.17a27.3 27.3 0 01-4.01-5.72c-2.41-4.4-4.16-9.56-4.16-12.24 0-1.01 1.73-2.07 4.6-2.83 2.8-.74 5.93-1.01 7.24-1.01 1.32 0 4.44.27 7.24 1.01 2.88.76 4.6 1.82 4.6 2.83 0 2.68-1.75 7.83-4.16 12.24a27.2 27.2 0 01-4 5.72c-1.37 1.42-2.64 2.17-3.68 2.17"/><path fill="#FFF" d="M31.29 21.3c-.07.89-.31 1.78-.8 2.54-.19.32-.48.56-.77.79-.54.43-1.24.71-1.95.61a12.96 12.96 0 00-3.69-.37c.04-.14.11-.27.16-.4.43-1.1.6-2.27.6-3.44.04-1.76-.26-3.5-.5-5.24 0-.47.02-1 .38-1.35a8.75 8.75 0 011.58.03c.92.1 1.82.4 2.59.9a4.72 4.72 0 011.58 1.79c.62 1.28.91 2.72.82 4.14m2.11-4.99c-.15-.44-.4-.83-.64-1.22a7.18 7.18 0 00-3.92-2.84c-.97-.3-2-.4-3.02-.38-.2 0-.4.03-.59 0 .01-.11.07-.21.13-.31.27-.46.69-.81 1.1-1.15.08-.07.2-.13.15-.26-.35-.02-.7.06-1.04.14a6.47 6.47 0 00-3.23 1.98c-.07.07-.12.18-.23.2-.97.31-1.91.72-2.78 1.25a6.71 6.71 0 00-2.62 2.77c-.22.4-.41.83-.46 1.3-.03.09.1.2.17.12a16.07 16.07 0 014.25-2.46c.1-.04.23-.07.3.04 0 .27-.07.54-.06.82 0 .38-.05.75-.02 1.13.03.5 0 1.01.09 1.51.24 1.39.48 2.79.46 4.2a8.15 8.15 0 01-.45 2.7c-.17.47-.45.9-.64 1.37-.06.09.03.21.13.16.89-.3 1.85-.24 2.75-.06.88.18 1.73.47 2.6.72a4.95 4.95 0 003.7-.48 5.71 5.71 0 001.7-1.51 13.08 13.08 0 002.37-5.08 8.7 8.7 0 00-.2-4.66"/></svg>