<svg xmlns="http://www.w3.org/2000/svg" xmlns:xlink="http://www.w3.org/1999/xlink" viewBox="0 0 49 49"><defs><path id="a" d="M9.17 7.54h31.3v34.84H9.17z"/></defs><clipPath id="b"><use xlink:href="#a" overflow="visible"/></clipPath><g clip-path="url(#b)"><path fill="#FFF" d="M40.47 10.75v-.31l-.29-.13c-3.94-1.8-8.96-2.71-15.34-2.79h-.01c-6.4.08-11.42.98-15.37 2.78l-.28.13v.31c-.05 6.39.34 10.47 2.77 17.78 2.2 6.61 7.4 12.16 12.95 13.8l.13.05.15-.04c5.35-1.59 10.27-7 12.53-13.8 2.42-7.32 2.8-11.4 2.76-17.78"/><path d="M9.84 10.87c-.04 6.25.35 10.27 2.74 17.45 2.12 6.4 7.12 11.76 12.45 13.37 5.14-1.55 9.86-6.79 12.04-13.35 2.38-7.18 2.77-11.21 2.73-17.46-3.85-1.73-8.75-2.6-14.97-2.68-6.24.07-11.15.95-14.99 2.67m15.2 31.2l-.06-.02a17.7 17.7 0 01-7.46-4.83 23.47 23.47 0 01-5.29-8.79c-2.4-7.26-2.8-11.33-2.75-17.68v-.11l.1-.05c3.91-1.78 8.9-2.68 15.25-2.75 6.33.07 11.31.98 15.22 2.76l.11.05v.11c.05 6.35-.33 10.41-2.74 17.69-2.22 6.7-7.07 12.04-12.33 13.6l-.06.02z"/></g><defs><path id="c" d="M9.95 8.62h30.52V41.1H9.95z"/></defs><clipPath id="d"><use xlink:href="#c" overflow="visible"/></clipPath><g clip-path="url(#d)"><path d="M38.86 11.7v-.14l-.13-.05c-3.56-1.65-8.1-2.48-13.9-2.55-5.78.06-10.33.9-13.9 2.53l-.13.06v.14c-.04 5.84.31 9.58 2.51 16.27 1.97 5.97 6.65 10.98 11.66 12.48l.06.02.06-.02c4.83-1.44 9.26-6.33 11.27-12.47 2.2-6.7 2.55-10.43 2.5-16.27"/></g><path fill="#DE0014" d="M25.04 27.19v12.86c-.45-.19-3.55-1.08-6.4-4.07A23.7 23.7 0 0115.59 32s6.43-3.3 9.45-4.82"/><path fill="#FFF" d="M20.4 32.9v-1.8h.58v1.8h-.58zm1.1-2.06l-.24-.25H20.1a3.01 3.01 0 00-.26.27v2.32l.22.21h1.19l.24-.24v-2.3zm-6.08.86c-.57-1-.81-1.45-1.23-2.41a30.3 30.3 0 01-.83-2.3L38.52 14.2c.02 1.36-.09 2.29-.24 3.74a44.4 44.4 0 01-.3 2.28L15.43 31.7m-.54-5.83l.04-1.21 2.05-.93-.07 1.12-2.02 1.02zm-1.99-.4c-.12-.4-.12-.4-.15-.58.07-1.64.08-1.63.1-1.77l2.03-.93-.1 2.4-1.88.88m6.25-1.78c0-.35 0-.7.02-1.03l2.03-.94-.02.93-2.03 1.04m-2.1-.13l.1-2.43 2.04-.94-.12 2.42-2.02.95zm-4.74-.32l-.46-2.19.96-.42-.08 2.43a5.78 5.78 0 00-.42.18m2.68-1.21l.1-2.44 2.01-.93-.08 2.42-2.03.95zm6.34-.51l.1-2.41 2.03-.93-.08 2.4-2.05.94zm3.41-1.43v.77c-.43.2-.85.43-1.28.65l.03-.85 1.25-.57"/><path fill="#DE0014" d="M26.71 14.99c2.58.1 5.24.26 7.76.89l-9.44 4.8-.02-5.71 1.7.02z"/><g fill="#FFF"><path d="M12.93 20.47l.08-2.42 2.04-.95-.09 2.44-2.03.93m6.37-.46l.08-2.44 2.03-.94-.09 2.42-2.02.96zm-7.82-1.36l-.14-1.55s.62-.25 1.62-.6L12.9 18l-1.4.66m5.75-.18l.1-2.44 1.63-.76a6.24 6.24 0 01.4-.04c-.05.77-.08 1.53-.11 2.3-.67.3-1.35.62-2.02.94m7.49-3.3v2.3l-1.16.53.1-2.34 1.06-.5m-9.57 1.76l.05-1.02 2.03-.4-.04.49-2.04.93z"/><path d="M11.18 11.76c.85-.33 6.1-2.48 13.67-2.41 7.99.07 12.16 1.79 13.66 2.4v2.09s-2.4 1.15-3.56 1.75c-1.16-.24-4.85-1.01-10.45-1.01-7.7 0-12.88 1.91-13.2 2.05a52.7 52.7 0 01-.12-4.87m11.27 20.3l.42-.74v.74h-.42zm1.23.84h-.26v-.36h.26v-.47h-.28V30.6h-.61c-.31.48-.67.95-.94 1.45v.48h.97v.38h-.29v.49h1.15v-.5z"/></g><path fill="#DE0014" d="M12.6 12.95v-.36l-.19.05v-.48c.59-.12 1.2-.29 1.8-.38v.75c-.18.03-.36.07-.53.12v-.29c-.18.03-.37.07-.54.12v.59l.42-.09v.46l-.4.1v.61l.18-.02.01.45c-.31.07-.61.12-.92.2v-.46l.19-.04-.02-1.33zm22.67 1.32v-.46l.2.03-.02-1.7-.18-.03v.32l-.43-.09v-.77l1.77.35v.77l-.42-.1v-.31l-.17-.03.02 1.7.17.03.01.45-.95-.16m-20.77-.15l-.02-2.18.24-.26 1.07-.18.34.17v.7l-.53.07-.01-.43-.58.1v1.68l.6-.1a4.85 4.85 0 010-.46l.53-.08v.68l-.27.28-1.13.19a2.92 2.92 0 01-.24-.18m2.74-.27v-.46l.18-.02-.01-1.69-.2.01v-.45l.92-.12.01.47-.17.02.01 1.68.18-.02v.47l-.92.11m1.5-.63l-.02-1.69-.2.02v-.46l.74-.07.63 1.6-.01-1.2-.17.03v-.47l.83-.07v.46l-.17.02.02 1.67.17-.01.01.47-.69.05-.65-1.54.02 1.14.12-.01.01.46-.81.09v-.48l.17-.01zm14.78.29l-.02-1.7.5.1.01 1.68-.5-.08m1.04-1.74l-.33-.3-1.5-.24v.48l.2.03v1.69l-.18-.02v.45l1.45.22a1 1 0 00.38-.2l-.02-2.11zm-5.15 1.7v-.46l.16.02-.02-1.7c-.05 0-.1 0-.17-.02v.3h-.43v-.78l1.78.14v.77l-.42-.03v-.32h-.2l.03 1.7.17.03v.44l-.9-.09m-2.43-.38l-.01-.5.54.02v.32l.62.02-.01-.61-.91-.06a4.11 4.11 0 01-.24-.24l-.02-1.06.23-.2c1.06.03 1.2.05 1.2.05l.28.27v.5l-.55-.02v-.3c-.2-.02-.4-.03-.61-.03v.57l.93.07.23.24v1.08l-.22.2a65.86 65.86 0 00-1.2-.05l-.26-.27m-6.03.17l-.01-2.18.2-.23 1.34-.06.22.2.01.52-.54.03v-.28l-.7.04.02 1.68c.23-.01.46-.03.7-.03v-.45l-.45.02v-.47l.71-.04.27.24v.9a3.62 3.62 0 00-.23.23l-1.3.08a32.54 32.54 0 00-.24-.2m4.19.09v-.47h.18l-.02-1.7-.18.02v-.48h.91v.47h-.17l.02 1.7h.31v-.34l.53.01v.8l-1.58-.01m-1.45-.46l-.01-1.69h.57l.01 1.69h-.57m1.1-1.93l-.27-.24-1.13.03-.25.25.01 2.18.19.17h1.19l.28-.25-.03-2.14zm6.63 1.72l.16-.8.17.83-.33-.03zm1.05.7l-.12-.02-.48-1.75.15.02v-.5c-.27-.03-.62-.08-.89-.1v.49l.11.02-.37 1.65-.17-.02.01.45.76.09v-.45l-.14-.01.04-.18.43.04.03.2-.12-.02v.45l.76.1v-.46z"/><path fill-rule="evenodd" clip-rule="evenodd" fill="#FFF" d="M21.57 15.04l-.03 1.45 1.97-.93.02-.59-1.96.07z"/><path fill-rule="evenodd" clip-rule="evenodd" d="M15.33 29.82l.69-.35.22.43.8-.42-.44-.85-1.16.6-.5-.16-.74-1.43.17-.48 1.55-.79.5.15.36.71-.71.38-.21-.42-.8.42.42.8 1.16-.6.5.15.75 1.46-.17.5-1.48.75-.57-.18-.34-.67zm4-2.27l.7-.36.47.92-.15.49-1.47.74-.5-.16-1.5-2.9.14-.47 1.5-.76.48.15.35.68-.69.36-.18-.36-.75.38 1.19 2.29.74-.38-.33-.62zm1.93-1.27l.44.86.18-.09.3.6-1.09.57-.3-.62.24-.12-1.2-2.3-.24.12-.32-.64 1.1-.55.32.62-.18.1.4.77.78-.4-.4-.78-.2.1-.32-.61 1.13-.57.32.62-.23.12 1.19 2.3.23-.12.32.62-1.12.57-.32-.62.2-.1-.44-.85-.79.4zm3.54-1.78l-.74-.97.33 1.2.41-.23zm.34 1.66l-1 .5-.33-.62.2-.1-.63-2.6-.17.1-.33-.63 1.27-.63.33.62-.18.1 1.75 2.01.17-.09.32.62-.95.48-.32-.61.17-.09-.2-.24-.7.36.08.3.2-.1.32.62zm2.87-1.48l-1.07.54-.32-.62.24-.13-1.18-2.3-.25.13-.33-.62.97-.5 1.72 1.6-.71-1.32-.18.09-.33-.62 1.11-.56.32.62-.25.13 1.2 2.3.23-.13.33.63-.91.47-1.88-1.76.8 1.5.18-.07.31.62zm4.01-2l-2.07 1.06-.3-.61.05-2.98-.62.3.25.5-.64.32-.57-1.1 2.08-1.05.33.64-.01 2.9.5-.26-.26-.53.67-.34.59 1.15zm2.72-1.4l-2.28 1.16-.32-.62.21-.11-1.19-2.31-.22.12-.32-.62 2.28-1.17.53 1.01-.68.35-.21-.4-.69.35.44.84.53-.28.32.63-.53.27.44.85.7-.35-.25-.48.67-.34.57 1.1zm.47-3.95l-.56.28.4.82.57-.3-.4-.8zm1.07 3.16l-1.1.57-.32-.63.24-.13-1.16-2.33-.2.1-.32-.62 1.88-.95.53.23.66 1.32-.18.56-.22.12 1 .56.16-.09.32.63-.98.5-.32-.6.1-.06-.92-.57-.04.02.41.81.14-.07.32.63z"/><path fill="#FFF" d="M26.93 28.02l-.06-.05c.2.04.45.09.65.09-.14-.06-.36-.12-.41-.21-.02-.02-.03-.05-.02-.05l.13.07c.28.13.72.23.72.25-.28-.01-.76.07-1-.1m.9-.02c-.19-.09-.4-.18-.54-.36-.12-.36-.18-.4-.58-.48.13.18.29.38.3.62-.06-.04-.15-.07-.17-.16-.09-.27-.23-.34-.5-.34.1.14.2.26.2.43-.02.01-.06 0-.08-.02-.05-.02-.07-.06-.08-.1-.1-.27-.18-.29-.47-.3.14.18.21.37.17.4-.15.13-.45.26-.46.52.46-.13.6-.15.99-.14.34.01.52.15.85.16.3.01.7-.07.77-.09a8.69 8.69 0 01-.4-.14"/><path fill="#FFF" d="M29.33 27.84c.4-.48.56-.1.56-.1s-.4.05-.56.1m3.58 1.52c.13 0 .13-.33-.25-.27-.2.03-.57.25-.59.16-.02-.26.84-.38.9-.46.25-.3-.73-.14-1.04.13-.32.28-.37.7-.25 1.07l.02.1c-.3.18-.66.47-.68.64-.03.14.02.24.14.17.12-.05.3-.36.64-.36 0 0-.53.35-.45.63.03.08.11.14.2 0 .1-.13.45-.4.73-.27.3.14.37.52.22.8-.13.23-.34.27-.6.31-.68.12-.77-.75-1.29-1.2-.17-.15-.1-.05-.44-.36 0-.02-.05-.05-.08-.08-.12-.16.51.13.54.09.12-.2.03-.37.03-.55a2.08 2.08 0 00.55.05c0-.16-.2-.5-.2-.5l.5-.07c-.07-.23-.3-.45-.3-.45s.09-.07.5-.13a1.72 1.72 0 00-.44-.43c.14 0 .38-.08.51-.04l-.12-.25c-.16-.25-.35-.15-.59-.13.13-.13.38-.37.38-.61-.32.12-.83.1-1.17.16-.29-.06-.47-.11-.77-.09-.4.02-.67.22-.97.31-.11-.02-.2-.07-.32-.03-.08.02-.14.04-.18.1-.04.07-.03.12-.03.2.34.03.67-.1 1.01 0 .03.02.03.02.03.15-.1.18-.35.19-.53.2h-.4c.05.16.17.32.36.37.12.05.32 0 .32 0 .05 0 1.81-.5 1.4.14-.5.3-1.13.46-1.58.82-.44-.16-.66-.17-1.07-.4l-.02-.08c-.14-.38.01-.8-.6-.85-.05 0 .14.13.15.18.04.12 0 .15-.05.17-.11.02-.26-.2-.46-.2a.62.62 0 00-.47.17c.17-.07.6.27.57.26-.15-.02-.38-.04-.56.01-.12.04-.25.2-.31.37a.5.5 0 01.47-.13c.23.06.38.17.42.46-.08.11-.26.18-.48.3-.1.04.32.14.53.11.15-.02.16-.2.36-.18.45.18.91.33 1.33.58v.04l-.99.77c-.21.04-.2-.34-.41-.43a.73.73 0 00-.74.07c.2-.03.6.14.54.36-.13 0-.61-.01-.74.2l.32.02a.45.45 0 01.29.1c.3.23-.47.18-.13.74l.05.07c.06-.08.09-.3.24-.39.17-.08.3-.16.47.01.15.15.13.31-.06.54.68.12.58-.46.53-.63.33-.34.73-.54 1.15-.74.28.06.75.43.75.72-.4.24-1.17.08-1.17.75.07.33.34.65.34.97a2.31 2.31 0 01-.15.2c-.12.16-.31.37-.38.39-.07 0-.14 0-.16-.06-.17-.57-.51-.57-.8-.38l-.1.1c.4-.08.44.1.4.29-.05.2-.36-.1-.53.02a.45.45 0 00-.2.32c.22-.12.66-.16.64.14-.17.13-.46.64-.1.73.04-.09.04-.22.13-.32.17-.2.53-.21.67-.07 0 .17 0 .4-.18.48a.5.5 0 00.6-.3c.04-.12.02-.21.02-.3.35-.4.83-.69 1.1-1.14-.01-.06-.38-.52-.08-.77.3-.14.59-.3.9-.44-.06.2-.13.38-.1.63.06.43.46.58.72.85-.04.23-.2.53-.4.65-.3.03-.26-.38-.5-.43-.16-.04-.26-.05-.41.02.15.08.17.05.27.17.19.19-.4.09-.55.28a.77.77 0 00-.12.23c.2-.17.64-.22.64.12-.05.08-.47.24-.28.59.08-.07.12-.13.21-.18.25-.14.77-.2.72.04-.03.12-.1.14-.19.2.16.14.45.08.54-.12.03-.09 0-.18 0-.26.56-.49 1.26-1.39.84-2.16-.13 0-.33.12-.35.12l-.1-.31c-.03-.23.05-.38.07-.57.5.04 1-.11 1.2-.59.16-.32.1-.55-.03-.92-.18-.5-.9-.74-.78-1.13.1-.31.68-.37.86-.38"/></svg>