<svg baseProfile="tiny" xmlns="http://www.w3.org/2000/svg" width="40" height="40"><g fill-rule="evenodd"><path fill="#594A3F" d="M5 20c0-8.3 6.7-15 15-15s15 6.7 15 15-6.7 15-15 15S5 28.3 5 20"/><path fill="#FFFFFE" d="M5.7 20c0-7.9 6.4-14.3 14.3-14.3S34.3 12.1 34.3 20 27.9 34.3 20 34.3 5.7 27.9 5.7 20"/><path fill="#D8232A" d="M11.1 20c0-4.9 4-8.8 8.9-8.8s8.8 4 8.8 8.8c0 4.9-4 8.9-8.8 8.9-4.9-.1-8.9-4-8.9-8.9"/><path fill="#594A3F" d="M10.8 24.9h-.6l-.3-.6-.3.6H9l.3.6-.3.6h.6l.3.6.3-.6h.6l-.3-.5.3-.7m20.4 0h-.6l-.3-.6-.3.6h-.6l.3.6-.3.6h.6l.3.6.3-.6h.6l-.3-.5.3-.7"/><path fill="#FFFFFE" d="M24.7 14.3h-.6l-.3-.6-.3.6h-.6l.3.6-.3.6h.6l.3.6.3-.6h.6l-.3-.5.3-.7m-4.5.4c.7 0 1.2.6 1.2 1.2h-2.9c.1-.7.6-1.2 1.2-1.2v-1.3h-.9V13h.9v-1.2h.4V13h.9v.4h-.9v1.3m-5.5 2.2h3.3v-.6h-3.3v.6zm3.8 0h3.3v-.6h-3.3v.6zm3.7 0h3.3v-.6h-3.3v.6zm-7.5 3.6h10.8v-.6H14.6v.6zm0 3.2h2.9v-.6h-2.9v.6zm7.9 0h2.9v-.6h-2.9v.6zM15 17.3c.3-.1.7-.2 1.1 0 .2.1.1.3 0 .4-.2.1-.3.2-.6.2-.2 0-.3 0-.5-.2 0-.1-.1-.3 0-.4m1.6.5s-.1-.3 0-.5c.1-.1.3 0 .5 0h.3s.1.3 0 .5c-.2.3-.8 0-.8 0m-1.4.3c-.1.1-.2.2-.2.4s.1.3.2.3h.1v-.4c.1-.1 0-.2-.1-.3m3.6 0v.4c0 .1 0 .3.1.3.2 0 .2-.4.2-.5 0-.1-.1-.1-.3-.2m-.2-.7c0 .1.1.2.2.3.1.1.2.1.4.1h.3c.2 0 .3-.1.3-.3 0-.2-.2-.2-.4-.2H19c-.1-.1-.4-.1-.4.1m1.6.4c.1.1.1 0 .2 0h.3c.2 0 .2 0 .4-.1.1-.1.1-.2.1-.3 0-.1-.3-.2-.5-.2s-.3 0-.4.1c-.2.2-.1.5-.1.5m-4.5.5v.3c0 .1.3.2.4.2h.6c.2 0 .3-.1.3-.3 0-.1 0-.2-.1-.3-.1-.1-.2-.1-.4-.1-.3 0-.7-.1-.8.2m3.7 0c0 .1 0 .2.1.4s.3.2.5.2c.3 0 .7-.1.6-.5 0-.1-.2-.2-.4-.2 0-.1-.7-.2-.8.1m1.5.2c0 .2 0 .3.1.3.2 0 .2-.1.2-.2s.1-.5-.1-.5c-.1 0-.2 0-.2.1v.3m1.5-1c0 .3.2.4.7.4.3 0 .5 0 .5-.5v-.1c-.3-.2-.3 0-.6 0-.2 0-.6 0-.6.2m1.6-.1v.2c0 .2.1.4.3.4h.2c.3 0 .4-.2.4-.5 0-.1-.2-.2-.3-.3H24v.2m-1.3.7c-.2.2-.2.2-.2.4v.3h.2c.2 0 .2-.2.2-.4 0-.1-.1-.2-.2-.3m.4.4c0 .1.1.2.2.2.1.1.3.1.5.1s.5-.1.5-.4c0-.2-.4-.3-.6-.3-.3 0-.6.1-.6.4m.9.8c0 .2.3.4.5.4.1 0 .2-.1.3-.1.1-.1.2-.1.2-.2 0-.2-.2-.3-.3-.3-.3-.1-.7-.1-.7.2m-.6.3c.2-.1.3-.3.2-.4-.1-.1-.2 0-.3 0-.1 0-.2-.1-.3-.1-.2 0-.4-.1-.5.1v.2c0 .1 0 .2.1.3.1.2.3 0 .5 0 .1 0 .2 0 .3-.1m-2.4 0h-.3c-.2 0-.3 0-.5-.1v-.1c0-.2.4-.3.6-.3s.3.1.3.3c0 .1 0 .2-.1.2m-1.6-.4h-.3c-.2 0-.4 0-.4.2s.2.2.4.2h.4c.2 0 .3 0 .3-.2 0-.1-.1-.1-.2-.1-.1-.1-.1-.1-.2-.1m-2.4.5h-.4c0-.1-.1-.1-.1-.2s.1-.1.1-.2c.2-.2.5 0 .8 0v.2c0 .1-.1.1-.1.1-.2.1-.1.1-.3.1m-1.1-.1h-.8l-.1-.2c0-.2.1-.2.3-.2.3 0 .7-.1.7.1.1.1 0 .3-.1.3m-.9 1.6c0 .3.4.2.6.2s.3.1.5 0c.1 0 .2-.2.2-.3 0-.1-.1-.1-.2-.1-.2 0-.3 0-.4-.1-.2-.3-.7-.1-.7.3m1.8-.4c-.2.1 0 .5.2.5h1.1c.2 0 .4-.1.4-.3 0-.1-.2-.1-.4-.1h-1c-.1-.1-.2-.1-.3-.1m-1.8.9c-.1.1 0 .3 0 .4 0 .2.1.1.2.1s.3-.1.3-.2c0-.2-.1-.4-.3-.4-.1 0-.1 0-.2.1m2.4.2c0 .1.1.2.2.2.2 0 .3-.2.3-.4-.1-.1-.3 0-.4 0-.1 0-.1.1-.1.2m-.8.7c0 .1.1.2.2.2.2 0 .4.1.5-.1.1-.1.1-.2.1-.3 0 0 0-.1-.1-.1h-.2c-.2 0-.5 0-.5.3m-.2-1c-.1 0-.2.1-.3.1-.1 0-.4 0-.4.2 0 .3.2.4.6.4s.6-.1.6-.4c.1-.3-.3-.4-.5-.3m5.1-.8c.3-.3 1.1 0 1.9 0 .1 0 .3.1.3.3 0 .2-.3.2-.4.2H22c-.4 0-.6-.1-.5-.5 0 .1 0 .1 0 0m2.5 0v.3c0 .1-.1.2.2.2h.6c.2 0 .2-.2.2-.4 0-.1-.1-.1-.2-.1H24m-1.8 1c.1.3.2.5.5.5.2 0 .3-.3.4-.4 0 0-.2-.2-.4-.2-.3-.1-.5.1-.5.1m1.1-.1c-.1.1-.1.1-.1.2s0 .2.1.3c.2.2.4 0 .7 0 .2 0 .3-.2.3-.5 0-.2-.2-.1-.4-.1h-.2s-.3 0-.4.1m1.3.1v.3c0 .1.2.2.3.2h.1s.2-.2.1-.4c0-.1-.2-.2-.2-.2-.1-.1-.2 0-.3.1m.4.7h-.5c-.2 0-.5 0-.5.2 0 .1.1.2.2.2.1.1.1.1.2.1h.4c.1 0 .2 0 .3-.1-.1-.2-.1-.3-.1-.4M24 24c-.1.1 0 .3.1.4s.2 0 .4 0h.2c.3 0 .2-.3.3-.5 0 .1-.7-.1-1 .1m-1 .5c-.2 0-.2 0-.3-.1 0-.1-.1-.2-.1-.3V24h.6c.1 0 .3.1.4.1s.2.1.2.2c-.1.2-.4.2-.8.2m-.3.2c-.1.1-.2.2-.2.4 0 .1 0 .2.3.2.1 0 .2 0 .2-.1 0-.3-.1-.5-.3-.5m.5.3c0 .2 0 .3.3.3h.7c.1 0 .2-.1.2-.2s-.1-.1-.2-.2-.4-.1-.6-.1c-.1-.1-.4 0-.4.2m1.5-.3s-.2.3-.1.4c0 .1.2.2.2.2.1 0 .2-.1.2-.2.1-.3-.1-.4-.3-.4m-2.1 1.1v.3c.1.2.3.1.6.1.2 0 .5.1.5-.1 0-.1 0-.2-.1-.4-.1-.1-.3-.1-.4-.1-.4 0-.4.1-.6.2m1.4-.2c0 .2-.1.2-.1.4s.2.2.4.2c.1 0 .3.1.4 0 .2-.1.2-.3.2-.5-.1 0-.1-.1-.2-.1H24m-.4.9c-.2.1-.3.1-.3.3 0 .2.2.1.3.1.2 0 .5-.1.5-.4 0-.1-.1-.1-.2-.1-.2 0-.2.1-.3.1m-1.1.3c0 .2 0 .4.2.4s.2-.2.2-.4v-.2l-.2-.2c-.1.1-.2.2-.2.4m-6.4-.3c-.2 0-.4 0-.4.2s.2.3.6.3c.1 0 .3.1.3-.1.1-.3-.2-.4-.5-.4m.9-1c-.1.1-.3.1-.4.1s-.2.1-.2.2v.3c.1.1.2 0 .3 0h.3c.1 0 .2-.1.3-.2.1-.1 0-.3-.3-.4m-1.6.7c-.1 0-.2 0-.3-.1-.1-.1 0-.2 0-.4v-.1h.9c.1 0 .2.1.2.2 0 .2-.1.4-.3.4h-.5m.7-1.5c-.1 0-.2.2-.2.3 0 .1-.1.2 0 .3.4.3 1.4 0 1.4 0 0-.1.1-.2.1-.3 0-.2-.3-.3-.6-.3h-.7m-1.1.6c0-.1-.1-.3-.1-.4s.2-.2.3-.2c.3 0 .4.4.2.6-.1.1-.4 0-.4 0m.5-.8c-.3 0-.5-.1-.5-.4 0-.1.1-.2.3-.2h.6c.2 0 .2.2.2.3 0 .3-.2.3-.6.3m1.6-.6h-.2c-.3 0-.4 0-.4.2 0 .1 0 .2.1.3.2 0 .2.1.4.1s.4-.1.3-.3c0-.2-.1-.3-.2-.3m0 2.5c-.1 0-.1.2-.1.4 0 .3 0 .4.1.4s.2 0 .2-.2c0-.1.1-.2.1-.3 0-.1-.1-.2-.3-.3m7.8-7.7h-.2c-.1 0-.1-.1-.1-.3v-.2c.1-.2.5 0 .5 0v.2c-.1.2-.2.3-.2.3m-7.7-4.4h-.6l-.3-.6-.3.6h-.6l.3.6-.3.6h.6l.3.6.3-.6h.6l-.3-.5.3-.7m4 13.5V23c0-.6-.4-1.1-1-1.1v5.8l1 .1zm-2.3 0V23c0-.6.4-1.1 1-1.1v5.8h-1v.1z"/><path fill="#FFFFFE" d="M20 21.1c-1.1 0-2 .8-2 1.9v4.5c.1.1.3.2.5.3h3.1-3.1V23c0-.8.7-1.5 1.5-1.5.9 0 1.5.6 1.5 1.5v4.8c.2-.1.3-.2.5-.3V23c0-1.1-.9-1.9-2-1.9zm-2.9-2.5s.1.1.1.2h.1c.1 0 .1-.1.1-.1 0-.2.1-.3.1-.5 0-.1-.2-.1-.3 0-.1.1-.1.2-.1.4m-2.2 4.2c0 .1.3.1.5.1.3 0 .2-.1.5-.1.1 0 .3 0 .3-.1 0-.2-.1-.3-.4-.3-.6.1-.8.1-.9.4m8.8-.2c-.1-.2-.3-.2-.5-.2h-.3c-.1 0-.2.1-.2.2s.1.1.2.2c0 .1.8 0 .8-.2"/><path fill="#594A3F" d="M21.4 10.2l.1-1.1c.9.1 1.5-.1 1.6-1s-.6-1.2-1.5-1.3l-.9-.1-.3 3.5h1zm.7-2.3c0 .3-.2.4-.5.3l.1-.8h.1c.2.1.3.3.3.5zm3.6 3.9l.8-3.5-1.1-.6-2.4 2.7 1 .5.3-.4.6.3-.1.4.9.6zm-1-1.8l.5-.7c.1-.2.3-.4.4-.5-.1.2-.2.4-.2.6l-.3.8-.4-.2zm-14.4 8.1L9 17.9l.1-.7-.8-.1-.1.7-.5-.1.1-.8-.8-.1-.3 1.8 3.5.6.1-1.1m-1.9-4.8c-.1.1-.2.3-.3.4-.2.5-.5 1.6.9 2.3 1.1.5 1.9.2 2.3-.6.1-.2.1-.4.2-.6l-.8-.5c0 .2.1.4-.1.6-.2.5-.8.3-1.1.2-.3-.2-.8-.5-.5-1 .1-.2.2-.3.4-.3l-1-.5m21 3.6l.8-.3-.3-.7 2.4-1.1-.4-1-3.2 1.4.7 1.7m.6-5.8l-1.6 1.5c-.1.1-.2.1-.2.2-.1 0-.2 0-.3-.1-.1-.1-.1-.2 0-.3s.1-.2.2-.2l1.6-1.5-.7-.8-1.7 1.6c-.3.3-.9.9 0 1.8.8.9 1.5.4 1.8.1l1.7-1.6-.8-.7m-12.2-.7c.3-.1.5-.4.4-.7s-.4-.4-.8-.3c-.3.1-.5.4-.4.7.2.3.5.4.8.3m-1.4.4l-1.1-2.4.5-.3-.4-.8-2 .9.4.8.5-.2 1.1 2.4 1-.4m-3.5 2.1c.2-.1.5-.2.7-.4.6-.5.6-1.2.2-1.7-.2-.2-.3-.3-.5-.3h-.9c-.1 0-.2 0-.2-.1-.1-.1 0-.3.1-.3.2-.2.4-.2.6-.3l-.6-.7c-.2.1-.5.2-.7.3-.7.6-.4 1.3-.2 1.6.2.2.4.3.6.3h.9c.1 0 .1 0 .2.1s0 .3-.1.4c-.2.2-.4.2-.7.2l.6.9m16.9 6.2l3.5-.5-.2-1-3.5.5.2 1m-6.2 10.2c-1 .3-.9 1.4-.7 2.2.2.7.9 1.6 1.9 1.3s.9-1.4.7-2.2c-.3-.8-.9-1.7-1.9-1.3zm.2.7c.3-.1.5.5.7.8.1.4.3 1 0 1.1s-.5-.5-.7-.8c-.1-.4-.3-1 0-1.1zm-8.5 2.6l1.4-3.2-1.2-.5-.5.7.4.2-1.1 2.5 1 .3m6.7.7l-.3-3.5-1.2.1-.1.8h.4l.3 2.7.9-.1m-3.7-2.8c.3.1.3.4.3.5 0 .2-.1.4-.4.3s-.3-.3-.3-.5c0-.1.1-.4.4-.3zM17 33.1l1 .2.5-.5c.4-.4.9-1 1-1.6.1-.7-.2-1.3-1-1.5s-1.4.2-1.6 1c-.1.5.1 1.2.7 1.3h.4l-1 1.1z"/></g></svg>