<svg baseProfile="tiny" xmlns="http://www.w3.org/2000/svg" width="40" height="40"><path fill="#FFF" stroke="#FFF" stroke-width=".513" stroke-miterlimit="3.86" d="M10.2 20c0-5.6 4.5-10.1 10.1-10.1S30.4 14.4 30.4 20s-4.5 10.1-10.1 10.1c-5.5 0-10.1-4.5-10.1-10.1h0z"/><path fill="#FFF" stroke="#FFF" stroke-width=".513" stroke-miterlimit="3.86" d="M11.5 16.6h-.6c1.5-4.3 5.2-6.7 9.5-6.7 5.7 0 10.4 4.9 10.1 10.6h-.6c.2-5.4-4.1-10-9.5-10-4 0-7.4 2.2-8.9 6.1h0zm-1 5.8c-.1-.3-.1-.5-.2-.8s-.1-.5-.1-.8h24.6l-.2 1.5-24.1.1h0z"/><path fill="#FFF" stroke="#FFF" stroke-width=".41" stroke-miterlimit="3.86" d="M10.7 22.9H30c-1.3 4.5-5.5 7.2-9.7 7.2-4.3 0-8.3-2.7-9.6-7.2h0z"/><path fill-rule="evenodd" fill="#FFF" d="M6 20.4l.2-1.1c.8 0 1.3-.2 1.4-1.1s-.4-1.1-1.2-1.1h-.8l-.5 3.3H6zm.8-2.2c0 .3-.2.4-.4.4l.1-.8h.1c.2 0 .3.2.2.4z"/><path fill="none" stroke="#FFF" stroke-width=".513" stroke-miterlimit="3.86" d="M6 20.4l.2-1.1c.8 0 1.3-.2 1.4-1.1s-.4-1.1-1.2-1.1h-.8l-.5 3.3H6z"/><path fill="none" stroke="#FFF" stroke-width=".513" stroke-miterlimit="3.86" d="M6.8 18.2c0 .3-.2.4-.4.4l.1-.8h.1c.2 0 .3.2.2.4h0z"/><path fill-rule="evenodd" fill="#FFF" d="M9.9 20.4l-.2-3.3H8.6l-1.3 3.3h.9l.1-.4h.6v.4h1zm-1.4-1.1l.2-.8c.1-.2.1-.4.2-.6v1.4h-.4z"/><path fill="none" stroke="#FFF" stroke-width=".513" stroke-miterlimit="3.86" d="M9.9 20.4l-.2-3.3H8.6l-1.3 3.3h.9l.1-.4h.6v.4h1z"/><path fill="none" stroke="#FFF" stroke-width=".513" stroke-miterlimit="3.86" d="M8.5 19.3l.2-.8c.1-.2.1-.4.2-.6h0v1.4h-.4z"/><path fill-rule="evenodd" fill="#FFF" stroke="#FFF" stroke-width=".513" stroke-miterlimit="3.86" d="M11.4 17.9c.4 0 .4.5.3.9-.1.3-.2.8-.6.8l.3-1.7h0zm1.4 2.5h1.6l.1-.8h-.8l.1-.5h.7l.1-.8h-.7l.1-.5h.8l.1-.8h-1.6l-.5 3.4z"/><path fill-rule="evenodd" fill="#FFF" d="M17.3 20.4l-.4-1.4c.4-.1.6-.5.6-.8.1-.9-.4-1.1-1.2-1.1h-.8l-.5 3.3h.9l.1-.9c0-.2 0-.3.1-.5l.3 1.4h.9zM16 18.6l.1-.8c.2 0 .4.1.3.4.1.2 0 .4-.4.4z"/><path fill="none" stroke="#FFF" stroke-width=".513" stroke-miterlimit="3.86" d="M17.3 20.4l-.4-1.4c.4-.1.6-.5.6-.8.1-.9-.4-1.1-1.2-1.1h-.8l-.5 3.3h.9l.1-.9c0-.2 0-.3.1-.5h0l.3 1.4h.9z"/><path fill="none" stroke="#FFF" stroke-width=".513" stroke-miterlimit="3.86" d="M16 18.6l.1-.8c.2 0 .4.1.3.4.1.2 0 .4-.4.4h0z"/><path fill-rule="evenodd" fill="#FFF" d="M17.5 20.4h1.2c.8 0 1.1-.5 1.2-1 .1-.4-.1-.7-.5-.8.4 0 .7-.3.7-.7.1-.7-.4-.9-1-.9h-1l-.6 3.4zm1-.7l.1-.6h.1c.2 0 .4.1.3.3 0 .2-.2.3-.5.3zm.3-1.3l.1-.6h.1c.2 0 .3.1.3.3-.1.2-.3.3-.5.3z"/><path fill="none" stroke="#FFF" stroke-width=".513" stroke-miterlimit="3.86" d="M17.5 20.4h1.2c.8 0 1.1-.5 1.2-1 .1-.4-.1-.7-.5-.8h0c.4 0 .7-.3.7-.7.1-.7-.4-.9-1-.9h-1l-.6 3.4h0z"/><path fill="none" stroke="#FFF" stroke-width=".513" stroke-miterlimit="3.86" d="M18.5 19.7l.1-.6h.1c.2 0 .4.1.3.3 0 .2-.2.3-.5.3h0zm.3-1.3l.1-.6h.1c.2 0 .3.1.3.3-.1.2-.3.3-.5.3h0z"/><path fill-rule="evenodd" fill="#FFF" d="M20.4 18.8c-.1.8.1 1.7 1 1.7s1.4-.9 1.5-1.7c.1-.8-.1-1.7-1-1.7-.9-.1-1.4.9-1.5 1.7zm.8 0c0-.2.2-.9.5-.9s.2.7.2.9c0 .2-.2.9-.5.9s-.2-.7-.2-.9z"/><path fill="none" stroke="#FFF" stroke-width=".513" stroke-miterlimit="3.86" d="M20.4 18.8c-.1.8.1 1.7 1 1.7s1.4-.9 1.5-1.7c.1-.8-.1-1.7-1-1.7-.9-.1-1.4.9-1.5 1.7h0z"/><path fill="none" stroke="#FFF" stroke-width=".513" stroke-miterlimit="3.86" d="M21.2 18.8c0-.2.2-.9.5-.9s.2.7.2.9c0 .2-.2.9-.5.9s-.2-.7-.2-.9h0z"/><path fill-rule="evenodd" fill="#FFF" d="M25.3 20.4l-.5-1.4c.4-.1.6-.5.6-.8.1-.9-.4-1.1-1.1-1.1h-.8l-.5 3.3h.9l.1-.9c0-.2 0-.3.1-.5l.3 1.4h.9zm-1.1-1.8l.1-.8c.2 0 .4.1.3.4-.1.2-.2.4-.4.4z"/><path fill="none" stroke="#FFF" stroke-width=".513" stroke-miterlimit="3.86" d="M25.3 20.4l-.5-1.4c.4-.1.6-.5.6-.8.1-.9-.4-1.1-1.1-1.1h-.8l-.5 3.3h.9l.1-.9c0-.2 0-.3.1-.5h0l.3 1.4h.9z"/><path fill="none" stroke="#FFF" stroke-width=".513" stroke-miterlimit="3.86" d="M24.2 18.6l.1-.8c.2 0 .4.1.3.4-.1.2-.2.4-.4.4h0z"/><path fill-rule="evenodd" fill="#FFF" stroke="#FFF" stroke-width=".513" stroke-miterlimit="3.86" d="M25.5 20.4h.8l.2-1c0-.3.1-.6.1-.9h0l.4 1.9h.8l.5-3.3h-.8v.9c-.1.4-.1.8-.1 1.1h0l-.4-2h-.8l-.7 3.3h0z"/><path fill="#005CA9" d="M10.7 22.9H30c-1.3 4.5-5.5 7.2-9.7 7.2-4.3 0-8.3-2.7-9.6-7.2z"/><path fill="#1D1D1B" d="M10.5 22.4c-.1-.3-.1-.5-.2-.8s-.1-.5-.1-.8h24.6l-.2 1.5-24.1.1zM7.7 18.2c.1-.9-.4-1.1-1.2-1.1h-.8l-.5 3.3h.9l.2-1.1c.7.1 1.2-.2 1.4-1.1zm-.9 0c0 .3-.2.4-.4.4l.1-.8h.1c.2 0 .3.2.2.4zm1.7-1.1l-1.3 3.3h.9l.1-.4h.6v.4h.9l-.2-3.3h-1zm.5 1.4v.8h-.5l.2-.8c.1-.2.1-.4.2-.6.1.2.1.4.1.6zm2.5-1.4h-.7l-.5 3.3h.8c.5 0 1.5-.1 1.7-1.7.1-1-.3-1.6-1.3-1.6zm.3 1.7c-.1.3-.2.8-.6.8l.3-1.7c.3 0 .3.5.3.9zm3.1-.9l.1-.8h-1.7l-.5 3.3h1.7v-.7h-.7l.1-.6h.6l.2-.7H14v-.5zm1.4-.8h-.8l-.5 3.3h.9l.1-.9c0-.2 0-.3.1-.5l.3 1.4h.9l-.4-1.4c.4-.1.6-.5.6-.8 0-.9-.5-1.1-1.2-1.1zm-.1 1.5l.1-.8c.2 0 .4.1.3.4-.1.2-.2.4-.4.4zm2.8-1.5h-1l-.5 3.3h1.2c.8 0 1.1-.5 1.2-1 .1-.4-.1-.7-.5-.8.4 0 .7-.3.7-.7.1-.6-.6-.8-1.1-.8zm-.5 2.6v-.6h.1c.2 0 .4.1.3.3.1.2-.1.3-.4.3zm.3-1.3v-.6h.1c.2 0 .3.1.3.3 0 .2-.2.3-.4.3zm3.1-1.4c-.9 0-1.4.9-1.5 1.7-.1.8.1 1.7 1 1.7s1.4-.9 1.5-1.7c.1-.7-.2-1.7-1-1.7zm.1 1.8c0 .2-.2.9-.5.9s-.2-.7-.2-.9c0-.2.2-.9.5-.9.2 0 .2.7.2.9zm2.4-1.7h-.8l-.6 3.3h1l.1-.9c0-.2 0-.3.1-.5l.3 1.4h1L25 19c.4-.1.6-.5.6-.8-.1-.9-.6-1.1-1.2-1.1zm-.2 1.5l.1-.8c.2 0 .4.1.3.4-.1.2-.2.4-.4.4zm3.3-1.5v.9c-.1.4-.1.8-.1 1.1l-.4-2h-.8l-.5 3.3h.8l.2-1c0-.3.1-.6.1-.9l.4 1.9h.8l.5-3.3h-1zm-8.7-3.2c.1 0 .1.1.2.1l.1.1v.1c0 .2-.2.2-.3.2-.2 0-.5-.2-.6-.4v1.2c.2.1.5.1.7.1.7 0 1.1-.5 1.1-1.2 0-.3-.1-.5-.2-.6-.1-.2-.3-.3-.5-.5-.1 0-.1-.1-.2-.1-.1-.1-.1-.1-.1-.2s.1-.2.2-.2c.2 0 .5.2.6.4v-1.1c-.2-.1-.5-.2-.7-.2-.8 0-1.1.8-1.1 1.2 0 .2.1.5.2.6.3.2.3.4.6.5zm2.9 1.5c.2 0 .4 0 .6-.1v-1c-.2.1-.3.2-.5.2-.5 0-.6-.5-.6-1 0-.4.1-1 .6-1 .2 0 .3.1.5.2v-1.1c-.2-.1-.3-.1-.5-.1-.5 0-1.6.3-1.6 1.9 0 1.4.7 2 1.5 2z"/><path fill-rule="evenodd" fill="#FFF" d="M20.3 24.1v.9h1.2l-1.2 2.5-.2.4h1.1l.2-.4 1.5-3.3-2.6-.1zm-1.6-.1c-1 0-1.3 1.1-1.3 1.9 0 .5.1 1.1.4 1.5.1.1.2.2.4.3.2.1.3.1.5.1s.3 0 .5-.1.3-.2.4-.3c.3-.4.4-1 .4-1.5 0-.8-.3-1.9-1.3-1.9zm0 3c-.3 0-.3-.6-.3-1.1 0-.4 0-1.1.3-1.1s.3.6.3 1.1c0 .4 0 1.1-.3 1.1z"/><path fill="#005CA9" d="M11.5 16.6h-.6c1.5-4.3 5.2-6.7 9.5-6.7 5.7 0 10.4 4.9 10.1 10.6h-.6c.2-5.4-4.1-10-9.5-10-4 0-7.4 2.2-8.9 6.1z"/></svg>