<svg baseProfile="tiny" xmlns="http://www.w3.org/2000/svg" width="40" height="40"><path fill="#E2001A" d="M6.5 5v16.5C6.5 29 12.6 35 20 35c7.5 0 13.5-6.1 13.5-13.5V5h-27z"/><path fill="#FFF" d="M32.4 6.2v15.3c0 3.3-1.3 6.4-3.6 8.7-2.3 2.3-5.4 3.6-8.7 3.6-3.3 0-6.4-1.3-8.7-3.6-2.3-2.3-3.6-5.4-3.6-8.7V6.2h24.6z"/><path fill-rule="evenodd" fill="#E2001A" d="M20.1 13.3c2.8 0 4.4 2 4.4 4 0 1.7-1.4 3.5-2.7 3.7l2.2 3.3-2.5 2.1-3.2-5.1v5.3l-3.1-2V13.3h4.9zm-1.9 5.9h1.7c.8 0 1.3-.8 1.3-1.7 0-.9-.5-1.7-1.3-1.7h-1.7v3.4z"/><path fill="#E2001A" d="M10.3 7.8v5.9h3.3v-2.6h12.8v11.1c0 3.5-2.9 6.4-6.4 6.4s-6.3-2.8-6.4-6.2h-3.3c.1 5.3 4.4 9.5 9.7 9.5 5.4 0 9.7-4.4 9.7-9.7V7.8H10.3z"/></svg>