<svg baseProfile="tiny" xmlns="http://www.w3.org/2000/svg" width="40" height="40"><g fill-rule="evenodd"><path fill="#FFE511" d="M5 20c0-8.3 6.7-15 15-15s15 6.7 15 15-6.7 15-15 15S5 28.3 5 20"/><path fill="#1A1919" d="M5.7 20c0-7.9 6.4-14.3 14.3-14.3S34.3 12.1 34.3 20 27.9 34.3 20 34.3 5.7 27.9 5.7 20"/><path fill="#FFE511" d="M6.5 20c0-7.4 6-13.5 13.5-13.5s13.5 6 13.5 13.5c0 7.4-6 13.5-13.5 13.5S6.5 27.4 6.5 20"/><path fill="#1A1919" d="M22.2 31.5c-1 0-1.7-.8-1.7-1.6v-.3h.9c.3 0 .2.4.2.4 0 .3.3.4.5.4.3 0 .5-.3.5-.5v-.5c-.2.1-.5.1-.5.1-.9 0-1.7-.8-1.7-1.7v-.4c0-.9.8-1.6 1.7-1.6.9 0 1.6.7 1.6 1.6v2.5c.1.9-.6 1.6-1.5 1.6"/><path fill="#FFE511" d="M22.2 26.9c.3 0 .5.2.5.5v.3c0 .3-.2.5-.5.5s-.5-.2-.5-.5v-.3c0-.3.2-.5.5-.5"/><path fill="#1A1919" d="M11.9 23.5v-2.6h1.5c1.3 0 1.7 2.3.1 2.6h-1.6zm0-4.6v-2.5h1.7c1.1 0 1.4 2.2.1 2.5h-1.8zm-2.1-4.6v11.2h3.5c2.8 0 4.3-3.5 2.3-5.6 1.6-1.9 1-5.1-2.1-5.6H9.8zm16.7 9.2v-2.6H28c1.3 0 1.7 2.3.1 2.6h-1.6zm0-4.6v-2.5h1.7c1.1 0 1.4 2.2.1 2.5h-1.8zm-2.1-4.6v11.2h3.5c2.8 0 4.3-3.5 2.3-5.6 1.6-1.9 1-5.1-2.1-5.6h-3.7zm-6.6 11.4c.9 0 1.7.7 1.7 1.6v2.5c0 .9-.7 1.6-1.6 1.6-.9 0-1.6-.7-1.6-1.6v-2.5c-.2-.8.6-1.6 1.5-1.6"/><path fill="#FFE511" d="M17.8 26.9c.3 0 .5.2.5.5v2.5c0 .3-.2.5-.5.5s-.5-.2-.5-.5v-2.5c0-.3.2-.5.5-.5"/><path fill="#1A1919" d="M15.5 8.7l3.7 11.4h1.6l3.6-11.4h-2.2L20 16.3l-2.2-7.6h-2.3"/></g></svg>