<svg baseProfile="tiny" xmlns="http://www.w3.org/2000/svg" width="40" height="40"><path fill="#FFF" d="M33.4 15.5c0-.4.1-1.2.1-1.8 0-.8-.2-1.6-.5-2.9-.3-1.2-.7-2.3-1-2.9-.3-.7-.7-.9-1.2-1.1-.4-.2-1.6-.2-4-.3h-.4c-1 0-2.2.2-3.4.4-.9.1-1.8.3-2.2.3h-.1c-1.1 0-2.4-.3-3.7-.5-1.2-.2-2.4-.5-3.7-.6h-1.1c-1.8 0-3.6.4-4.3.5-.2-.2-.5-.4-1-.4-.2 0-.5 0-.8.2-.7.2-1.1.7-1.1 1.3 0 .4.2 1.1.6 1.3.2.1.5.2.7.2.6 2.4 2.5 9.4 4 15.2-.1.1-.1.2-.2.3-.4.6-1 1.3-.9 2.5.2 1.5 1.4 2.2 2.5 2.5.7 2.7.8 3.2.9 3.3.2.6.5 1 1 1h.2c.1 0 .4 0 .6-.3s.2-.6 0-1.4c-.1-.4-.2-.7-.3-1-.1-.3-.2-.6-.3-1 .7.2.8.3.8.8 0 .7.1 1.4.5 1.7.2.2.4.3.5.3.4 0 .9-.3.9-1.9 0-2.2-1.4-2.5-2.9-2.9-.1 0-.3-.1-.4-.1l-.8-3c.9-.5 2.1-.6 3.3-.7h.2c.7 0 1.4.2 2.2.4.9.2 1.9.5 3 .5s1.7-.2 2.4-.5c.9-.3 1.8-.7 4.1-.8h.4c3.2 0 5.4 1.7 5.4 1.7.1.1.2.1.3.1h.2c.2 0 .3-.2.3-.4 0-.1.6-2.5.7-5.4.1-2.7-1-4.1-1.5-4.6z"/><path fill="#004F9F" d="M12.2 7.4c-2.4.1-4 .6-4 .6 0 .1 1.3 1.5 2.1 3.3.7 1.8 1.4 4.3 1.4 4.3s3-.8 5.1-.6l2.4.4c1.1.2 2.1.4 3 .4.7 0 1.6-.2 2.5-.4 1.3-.3 2.7-.5 4-.6 2.3-.1 3.3.4 3.3.4.1-.1.1-2.4-.4-4.3S30.4 8 30.4 8s-1.9-.5-4.6-.2l-2.3.3-2.9.3c-1 0-2.3-.2-3.8-.5-1.6-.3-3.3-.6-4.6-.5"/><path fill="#FFF" d="M11.6 16.6s.4 2.1.5 3.2c.1 1 0 3.7 0 3.7s2-.8 3.4-.7c1.4 0 4 1 5.7.8 1.7-.1 2.9-1.2 6.1-1.2 3.1 0 5.7 1.1 5.7 1.1s.4-2.4.3-4-.6-2.8-1.3-3.2c-.7-.4-2.1-.7-3.4-.6-1.4.1-4.8 1.1-6.6 1-1.8 0-3.5-.8-5.9-.8-2.6.1-4.5.7-4.5.7"/><path fill="none" stroke="#FFF" stroke-width=".8" d="M11.6 16.6s.4 2.1.5 3.2c.1 1 0 3.7 0 3.7s2-.8 3.4-.7c1.4 0 4 1 5.7.8 1.7-.1 2.9-1.2 6.1-1.2 3.1 0 5.7 1.1 5.7 1.1s.4-2.4.3-4-.6-2.8-1.3-3.2c-.7-.4-2.1-.7-3.4-.6-1.4.1-4.8 1.1-6.6 1-1.8 0-3.5-.8-5.9-.8-2.6.1-4.5.7-4.5.7"/><path fill-rule="evenodd" d="M7.6 7s3-.8 5.7-.6c1.2.1 2.4.4 3.6.6 1.4.3 2.7.5 3.8.6.5 0 1.4-.1 2.4-.3 1.2-.2 2.6-.4 3.5-.3h.2c1.7 0 3.5.1 3.8.3.3.2.7.3.9.8.3.5.7 1.6 1 2.8.3 1.2.5 2 .5 2.8 0 .8-.2 2-.2 2s1.7 1.3 1.6 4.2-.7 5.4-.7 5.4-2.5-2-6.1-1.8c-2.3.1-3.4.5-4.2.8-.7.2-1.2.5-2.3.5-1 0-2-.2-2.9-.5-.9-.2-1.8-.4-2.6-.4-1.4.1-2.9.3-3.8 1 .1.5.2.9.3 1.3.2 1 .5 1.8.6 2.3.2.1.5.1.7.2 1.5.4 2.5.6 2.5 2.4 0 2.2-1 1.6-1 0 0-1-.6-1.2-1.6-1.4-.1 0-.3-.1-.4-.1.2.9.4 1.4.5 1.9.1.3.2.5.3.9.3 1 .1 1-.1 1.1h-.1c-.3 0-.5-.2-.6-.6 0-.1-.2-.7-.5-1.7-.1-.5-.3-1.1-.5-1.7-1.2-.4-2.3-.9-2.4-2.2-.1-1 .3-1.6.8-2.1.1-.2.3-.3.4-.5-.6-2.2-1.2-4.5-1.8-6.8-1.1-4.1-2-7.7-2.4-9h-.2c-.2 0-.4-.1-.6-.2-.5-.4-.8-1.5.4-1.9 1.4-.6 1.5.2 1.5.2zm3.5 18.6c-.5.9-.7 1.8.6 2.4l-.6-2.4zm-.6-9.2c.7 2.3.8 4.2.7 5.7-1.1-4.4-2.5-9.7-3.2-12.2.9 1.3 1.6 3.5 2.5 6.5zm1.1.2s.4 2.1.5 3.2c.1 1 0 3.7 0 3.7s2-.8 3.4-.7c.6 0 1.4.2 2.2.4 1.2.3 2.5.5 3.4.4.6-.1 1.2-.2 1.8-.5 1-.3 2.3-.8 4.2-.7 3.1 0 5.7 1.1 5.7 1.1s.4-2.4.3-4-.6-2.8-1.3-3.2c-.7-.4-2.1-.7-3.4-.6-.5 0-1.4.2-2.4.4-1.5.3-3.1.6-4.2.6-.8 0-1.6-.2-2.4-.3-1-.2-2.2-.4-3.5-.4-2.4 0-4.3.6-4.3.6zm5.2-1.6c-2.1-.2-5.1.6-5.1.6s-.7-2.5-1.4-4.3c-.7-1.8-2.1-3.2-2.1-3.2s1.6-.4 4-.6c1.3-.1 3 .3 4.7.6 1.4.3 2.8.5 3.8.5 1.3 0 2-.1 2.9-.3.6-.1 1.2-.2 2.2-.3 2.7-.3 4.6.2 4.6.2s.7 1 1.2 2.8c.5 1.9.4 4.2.4 4.2s-.9-.4-3.2-.3c-1.3.1-2.8.3-4 .6-1 .2-1.8.4-2.5.4-.9.1-1.9-.1-2.9-.4-.9-.3-1.7-.4-2.6-.5z"/><g fill="#004F9F"><path fill-rule="evenodd" d="M27.6 18.8s.2-.5.2-1.2c0-.5-.1-.9-.4-1.1-.2-.1-.5 0-.8 0-.1 0-.1 0-.2.1-.3.1-.8.1-.8.1v.6s.4.6.5 1.6c.2 1 .4 2.9.4 2.9s.4.1.8 0c.4 0 1.4-.3 1.3-1.9-.2-1.1-1-1.1-1-1.1zm-.8-.2s-.2-.1-.2-.7v-.6s.1-.1.3 0c.1 0 .1.1.1.4v.2c-.1.7-.2.7-.2.7zm.5 2.3c.2 0 .3-.3.4-.7 0-.4-.1-.7-.3-.7-.2 0-.3 0-.3.5-.2.6-.1.9.2.9z"/><path d="M28.8 17.6c0-.3.1-.3.3-.3.2 0 .2.3.3.4.1.2.1.3.3.3.2 0 .2-.3.2-.6s-.3-.9-.8-.9c-.6 0-1.1.3-1 1 .1.8.2 1.1.6 1.5.5.6.9 1 1.1 1.5s.1.8 0 .7c-.3 0-.3-.1-.3-.4-.1-.4-.3-.5-.5-.4-.2 0-.3.3-.2.7.1.6.3.8.9.9.8 0 1.2-.4 1.1-1.1 0-.7-.5-1.2-1.1-1.9-.6-.6-.8-1-.9-1.4zm-14-.5c-.1-.4 0-.6-.4-.6-.3 0-.5.1-.5.4.1.4.1.6.1.8 0 .3 0 .5-.2.5-.3 0-.4.2-.5-.4s-.1-.7-.2-.9c0-.2-.1-.4-.4-.3s-.5.1-.5.5.1 1.3.3 2.3c.2 1 .4 2 .5 2.4.2.4.2.4.5.4.2 0 .4 0 .3-.5s-.2-1.3-.3-1.8c-.1-.4-.2-.9.2-1 .4-.1.5-.1.6.3s.3 1.7.4 2.1.1.7.5.6.4-.1.3-.7c0-.3-.6-3.6-.7-4.1zm4.1 1.5c0-.2-.1-.5-.3-.5-.2 0-.3.3-.5.3s-.3-.3-.5-.2c-.2.1-.3.3-.3.6.1.3.1.5.2 1 .1.4.2 1 .3 1.5.1.4.2.9.4 1.1.3.3.5.4.6 0 0-.4 0-.6-.2-1-.1-.4-.3-.7-.4-1.3-.1-.6 0-.8.1-.9.2 0 .3.1.3.3 0 .2 0 .8.2.7.2 0 .5 0 .3-.5-.2-.6-.3-.6-.2-1.1z"/><path fill-rule="evenodd" d="M17 20.8c0-.3.1-.3.3-.2.2.1.2.3.2.5v.1c0 .2 0 .4-.1.6v.1c-.1.2-.3.2-.5.2h-.2c-.3 0-.4-.1-.7-.4-.2-.3-.3-1.1-.4-1.6 0-.5-.1-1.3-.1-1.7 0-.4.1-.5.3-.6.2-.1.6 0 .8.1.2.2.3.3.4.7v.1c.1.5.1.8.1 1.1v.2c0 .3-.2.3-.4.3h-.1c-.2 0-.2.2-.2.5s.2.4.4.4.2-.1.2-.3v-.1zm-.7-1.9c0 .1 0 .1 0 0 0 .3 0 .5.2.4.1 0 .1-.1.1-.3 0-.1 0-.3-.2-.3-.1.1-.1.1-.1.2zm9 .9v.2c.1.5.4 1.3.4 1.6v.1c0 .2 0 .2-.1.3-.1.1-.1.1-.3 0h-.2c-.1 0-.2 0-.4.1-.1 0-.3.1-.5.2-.5.1-.7-.5-.8-1-.1-.5 0-.9.3-1.2l.1-.1c.2-.2.5-.5.5-.6 0-.2-.1-.3-.3-.4-.2 0-.2.1-.3.3v.1c0 .2-.1.3-.3.4-.2 0-.2-.3-.2-.6s.1-.6.3-.8c.2-.3.4-.3.9-.3s.5.3.5.6c.2.3.3.7.4 1.1zm-.8 1c-.1.4-.1.5.1.5s.3-.2.2-.5c0-.6-.2-.4-.3 0z"/><path d="M32.6 20.1c-.3-.1-.3.3-.3.5-.1.3-.3.6-.6-.1-.3-.5-.4-1.1-.5-1.9 0-.8.2-1.1.3-1.1.2 0 .2.1.3.3.1.2.1.5.3.4.3-.1.3-.4.2-.9-.2-.5-.5-.9-.9-.9s-1 .4-1 1.8.3 2.3.7 3c.3.7.6 1.2 1.1 1.2s.8-.6.8-1.2-.1-1-.4-1.1zm-9.7-.9c-.1-.5-.1-.6-.5-.5h-.6s-.1-.8-.2-1.2c-.1-.4-.2-.5-.4-.5-.3 0-.4.3-.3.7.1.5.3 1.2.5 2.1.1.9.3 2 .3 2.3s.1.8.5.7c.4-.2.4-.5.3-.9-.1-.8-.2-1.1-.3-1.6-.2-.5-.1-.8 0-.8.2 0 .3.2.4.6 0 .4 0 1.2.2 1.6.1.4.3 1 .6.9.4-.1.3-.1.1-1-.3-1-.5-1.8-.6-2.4zm-2.5 1.6c-.1-.6-.1-1.2-.1-1.2s.6-.3.5-.6c0-.4-.7-.4-.7-.6-.1-.3 0-.5-.2-.9-.2-.3-.2-.5-.3-.5-.1 0-.2.3-.2.5s.2 1.1.2 1.1-.4.2-.4.4c0 .4.5.5.5.5s.1.6.2 1.5c.1.8.1 1.1.4 1.5.3.5.3.6.7.6.3 0 .5 0 .5-.2s-.4-.5-.6-1.1l-.5-1z"/></g></svg>