<svg baseProfile="tiny" xmlns="http://www.w3.org/2000/svg" width="40" height="40"><path fill="#FFF" d="M6.6 5v5.3c.1 2.4.2 5.2.9 7.7.8 3 2.1 5.7 3.8 8.2 2.1 3 4.9 5.8 8.4 8.5l.3.3.3-.2c3.5-2.7 6.4-5.5 8.4-8.5 1.7-2.5 3-5.2 3.8-8.2.7-2.6.9-5.5.9-7.7V5.1H7.1L6.6 5z"/><path fill="#D40824" d="M20.1 34.3c-3.7-2.8-6.4-5.7-8.3-8.4-1.9-2.8-3-5.5-3.7-8-.7-2.4-.8-5-.9-7.5V5.6H33v4.8c0 2.5-.2 5.2-.9 7.5-.7 2.6-1.8 5.3-3.7 8-1.9 2.8-4.6 5.6-8.3 8.4z"/><path fill="#FFF" d="M7.7 6.1c.1 6.8-1.5 17.1 12.4 27.6C33.9 23.2 32.4 13 32.5 6.2L7.7 6.1z"/><path fill-rule="evenodd" fill="#D40824" d="M25.3 20h.4c0 .1 0 .2.1.2 0 0 .1.1.2.1s.1 0 .2-.1.1-.1.1-.2 0-.2-.1-.2c0-.1-.1-.1-.2-.1h-.2v-.3c.1 0 .2 0 .2-.1s.1-.1.1-.2 0-.1-.1-.2c0 0-.1-.1-.2-.1s-.1 0-.2.1c0 0-.1.1-.1.2l-.3-.1c0-.1.1-.2.1-.3 0-.1.1-.1.2-.2.1 0 .2-.1.3-.1.2 0 .3.1.4.2s.1.2.1.3c0 .2-.1.3-.3.4.1 0 .2.1.3.2.1.1.1.2.1.3 0 .2-.1.3-.2.4s-.3.2-.5.2-.3 0-.4-.1c.1 0 0-.1 0-.3zm-.6-.7c0-.1 0-.2-.1-.3-.1-.1-.1-.1-.2-.1s-.1 0-.2.1c0 .1-.1.1-.1.3 0 .1 0 .2.1.3 0 .1.1.1.2.1s.1 0 .2-.1c0-.1.1-.2.1-.3zm-.5.7h-.4c0 .2.1.3.2.4s.2.1.4.1.4-.1.5-.2c.1-.2.2-.4.2-.8 0-.3-.1-.6-.2-.7s-.3-.2-.5-.2-.3.1-.4.2-.2.3-.2.5.1.3.2.5c.1.1.2.2.4.2.1 0 .3-.1.3-.2 0 .2 0 .4-.1.4-.1.1-.1.1-.2.1s-.1 0-.1-.1c-.1 0-.1-.1-.1-.2zm-8.9-.1c0 .1 0 .2.1.2.1.1.1.1.2.1s.1 0 .2-.1c0-.1.1-.1.1-.2s0-.2-.1-.2c0-.1-.1-.1-.2-.1s-.2 0-.2.1c-.1.1-.1.2-.1.2zm.1-.6s-.1-.1-.1-.2 0-.1.1-.2c0 0 .1-.1.2-.1s.1 0 .2.1c0 0 .1.1.1.2s0 .1-.1.2c0 0-.1.1-.2.1s-.2-.1-.2-.1zm-.1.2c-.1 0-.2-.1-.2-.2s-.1-.1-.1-.2 0-.3.1-.4.2-.1.4-.1.3 0 .4.1.2.2.2.4c0 .1 0 .2-.1.2 0 .1-.1.1-.2.2.1 0 .2.1.2.2.1.1.1.2.1.3 0 .2-.1.3-.2.4s-.3.2-.4.2c-.2 0-.3 0-.4-.1s-.2-.3-.2-.4 0-.2.1-.3c.1-.2.1-.3.3-.3zm-1.3 1h.4v-1.9h-.3c0 .1-.1.2-.2.3s-.2.1-.3.2v.3c.2-.1.3-.2.5-.3v1.4H14zM24 7.3c.8-.4 1.8-.5 2.8-.1V8c-.5-.2-1.4-.4-1.8 0-.5.5 0 1.2.4 1.5.3-.6 1.1-1.3 2.2-1.5.3-.6.6-1.1.9-1.2.9.2 1.6 1.1 1.9 1.7.3-.3.7-.5 1.1-.7l.3.4c-.7.6-1.3 1.5-1.3 2.1 0 .4.2.8.5 1.1.3.3.5.7.6 1.3.1.7-.3 1.4-.8 2.2.3.5.5 1.2-.1 2-1.1-.7-2.5.3-2.5 1.3-.9-.1-1.8-.6-2.6-1.2-.8-.5-1.5-1-2.3-1-.3 0-.6.1-.6.4 0 .6.8.6 1.3.6h.1c-.1.2-.2.5-.3 1.1-1.5 0-2.1-1.7-1.4-2.6.5-.7 1.2-.8 2.1-.7.6 0 1.1.2 1.7.4.4.1.9.3 1.4.4s1 .2 1.5-.1c1.3-.7.1-3.3-1.5-3.5.4 1.4-.4 2.8-2.2 2.8-.6 0-1.9-.3-2.6-.7l.5-.7c.6.2 1.1.4 1.6.3 1.9-.5.9-1.7-.7-1.2-.3.1-.5.2-.7.2-.7.2-1.2.4-2 .1 1.2-.1 1.9-.9 2-1.3-.6.4-1.4.7-2.1.5.9-.2 1.4-.7 1.5-1.4-.6.6-1.4.9-2 1v5.2c-.3.3-.6.3-.9.3h-.1v1.1c-.3.2-.4.3-.7.3v-6.7c-.2.2-.7.3-1 .3 0 .1.1.3.1.5 0 .7-.3 1.4-.8 2.1.3.5.4 1.2-.1 2-1.1-.7-2.5.3-2.5 1.3-.9-.1-1.8-.6-2.6-1.2-.8-.5-1.5-1-2.3-1-.3 0-.6.1-.6.4 0 .6.8.6 1.3.6h.1c-.1.2-.2.5-.3 1.1-1.5 0-2.1-1.7-1.4-2.6.5-.7 1.2-.8 2.1-.7.6 0 1.1.2 1.6.4.6.2 1.3.5 2.1.5.4-.1.8-.3 1-.4.5-.3.2-.9-.1-1.5-.2-.4-.4-.9-.4-1.3 0-.7.1-1.5.5-2.4-.8-1.9-3-1-3.6-.1l.1.1c.7.5 1.4 1 1.7 1.9.5 1.5-.3 2.9-2.1 2.9-.6 0-1.9-.3-2.6-.7l.5-.7c.6.2 1.1.4 1.6.3 1.9-.5.8-1.8-.8-1.3-1.1.3-1.7.5-2.8.1 1.3-.1 2-.5 2.2-1-.8.3-1.7.3-2.2.1.9-.2 1.3-.5 1.7-1-.7.2-1.3.4-1.7.2.9-.3 1.4-.9 1.4-1.6 0-1 .5-1.8 1.2-2.2.8-.4 1.8-.5 2.8-.1v.8c-.7-.3-2.1-.5-2 .6 0 .4.3.7.6 1 .3-.6 1.1-1.4 2.2-1.6.3-.6.6-1.1.9-1.2.9.2 1.6 1.1 1.9 1.7v.1c.3-.3.7-.6 1.1-.7l.3.4c-.7.6-1.3 1.5-1.3 2.1 0 .4.2.8.5 1.1.1.1.2.2.2.3.4 0 .9 0 1.3-.4 0-.7-.2-1.6-.5-1.9.5-.2 1.2-1.3 1.2-1.7.6.3 1.2.4 1.9.4.1.7-.3 1.5-.7 1.9-.1-.3-.8-.7-1.2-.7.4.5.7 1.3.8 1.8.6 0 1.2-.5 1.5-1.1.1-.2.1-.4.2-.6.6-.7 1.1-1.4 1.8-1.8zm1.9 2.5c.5.3 1.2.7 1.6 1.3.8.1 1.3.1 1.5-.1 1.1-.9.2-2.3-1-2.3-.9 0-1.8.6-2.1 1.1-.1 0 0 0 0 0z"/><path d="M20.1 33c-4.8-3.7-7.7-7.3-9.4-10.9 4.5-.1 7.4-1.4 9.4-3 2.4 1.7 5.7 3.1 9.4 3-1.7 3.6-4.6 7.2-9.4 10.9z"/><path fill="#FD0" d="M20.1 32.4c-4.4-3.3-6.9-6.5-8.5-9.7 3.3-.3 6.3-1.2 8.5-2.8 2.2 1.6 5.2 2.5 8.5 2.8-1.7 3.2-4.1 6.3-8.5 9.7z"/><path fill-rule="evenodd" d="M16.4 23.7c-.1 0-.2.1-.3.1-.4.1-.7.1-1-.2-.4 0-.8 0-.8.5-.4.1-.5.4-.4.6.6.5 1.2.4 2.3-.2 2.6-.5 6.4-.6 10.3-.1-.1 0-.1-.1-.2-.1-.2-.1-.5-.3-.7-.5-.4-.1-1-.2-1.5-.3-.4-.5-.1-1.1.4-1.4-1-.3-1.5.5-1.2 1.3-.4 0-.7 0-1.1-.1-.6-.5-.1-1.6.4-1.8-1.1-.3-1.9.7-1.4 1.8h-1.1c-.6-.6-.4-1.5.1-2-1-.1-1.7 1.1-1.2 2-.2 0-.4 0-.6.1H18c-.6-.4-.5-1.2.3-2-1.1-.1-1.9 1-1.3 2.1-.4.2-.5.2-.6.2zm.7 2.4c.2 0 .3 0 .5-.1-.5-.9.1-1.7.9-1.7-.6.7-.5 1.3-.1 1.7.3 0 .6 0 1-.1-.6-.8.1-1.6 1-1.7-.4.4-.7 1.2-.2 1.7h.9c-.4-.8.3-1.5 1-1.5-.4.4-.7 1.1-.2 1.6.3 0 .6 0 .9.1-.3-.6.1-1.1.8-1.2-.3.4-.5.8-.2 1.3.3 0 .5.1.8.2.2 0 .3.1.4.1.3.2.4.3.7.5-3.2-.5-6.6-.4-8.3 0-.9.5-1.3.6-1.8.2-.1-.1 0-.4.3-.5 0-.4.3-.4.7-.4.3 0 .6-.1.9-.2zm1.3 2.5c.1 0 .3 0 .5-.1-.5-.9.2-1.6 1-1.6-.6.6-.6 1.2-.2 1.6h.7c-.5-.8.1-1.5.9-1.6-.4.4-.6 1.1-.1 1.5h.7c-.3-.8.3-1.3 1-1.3-.4.3-.6 1-.2 1.4h.2c.1 0 .3 0 .6.1.2.1.4.3.5.4-2.8-.3-3.2-.3-5.2.1h-.1c-.8.4-1.2.6-1.7.2-.1-.1 0-.4.3-.4 0-.2.1-.3.3-.3.2-.1.3 0 .5 0h.3z"/></svg>