<svg baseProfile="tiny" xmlns="http://www.w3.org/2000/svg" width="40" height="40"><g fill-rule="evenodd"><g fill="#065996"><path d="M28.3 6.2C24.2 4.9 20.2 5 20.2 5s-3.9-.2-8.5 1.2c-4.3 1.3-6 2.5-6 2.5S6 15.6 7.8 20c1.9 4.4 4.1 8.1 6.7 10.5C16.9 32.8 20 35 20 35s1.9-1.3 4.5-3.5c2.9-2.4 5.6-6.7 7.5-11.2 2.1-5.1 2.3-11.8 2.3-11.8s-2.1-1.1-6-2.3zm5.3 3s0 .5-.1 1.3v.3c0 .6-.1 1.3-.2 2-.3 2.1-.8 4.9-1.9 7.5-.3.6-.5 1.3-.8 1.9-.1.3-.3.5-.4.8-.2.3-.3.7-.5 1-.1.3-.3.5-.5.8-1.6 2.7-3.4 4.9-5.2 6.4l-.1.1c-.8.8-1.8 1.5-2.7 2.2-.5.4-.8.6-.8.6l-.2.1-.1-.1s-1.1-.7-3.5-2.7c-.1-.1-.2-.1-.3-.2-.2-.2-.4-.3-.6-.5-2.4-2.3-5.1-6-6.8-10.1v-.1c-.1-.4-.3-.7-.4-1.1 0-.1-.1-.3-.1-.4-.1-.3-.2-.5-.2-.8-.1-.4-.2-.8-.4-1.2v-.2c-.6-2.3-.9-4.7-1.1-6.9v-.8l.1-.1s.9-.7 4.4-2h.2c.2-.1.4-.2.7-.2.5-.2.9-.3 1.4-.4.2 0 .3-.1.5-.1.3-.1.6-.1.9-.2.2 0 .3-.1.5-.1.3-.1.6-.1.8-.1.1 0 .3 0 .4-.1.3 0 .6-.1.9-.1h.4c.3 0 .5 0 .8-.1h2.1c1.5 0 3.2.2 4.7.5.1 0 .2 0 .3.1.3.1.5.1.8.2.1 0 .3.1.4.1.4.1.8.2 1.1.3.1 0 .2.1.3.1 3.6 1.2 5.1 2.2 5.1 2.2l.1.1z"/><path d="M32.7 9.2c-.2-.1-.5-.2-.7-.4-.8-.4-2.2-1-4-1.5-.4-.1-.7-.2-1.1-.3-.3-.1-.5-.1-.8-.2-.3-.1-.5-.1-.8-.2H25c-.2 0-.4-.1-.5-.1-1.7-.3-3.1-.3-3.7-.3h-3.1c-.3 0-.6.1-.9.1-.1 0-.3 0-.4.1-.3 0-.6.1-.9.1-.2 0-.3.1-.5.1-.3.1-.6.1-1 .2-.1 0-.3.1-.4.1-.5.1-.9.3-1.4.4-3.3 1.1-4.6 1.8-4.9 2.1v.2c0 .2 0 .4.1.7.1.7.2 1.7.3 2.8.2 1.1.4 2.3.7 3.6.1.6.3 1.2.5 1.8v.1c.2.6.4 1.2.6 1.7.3.6.5 1.2.8 1.7.8 1.6 1.6 3 2.6 4.4 1.4 2 3.1 3.8 5.1 5.4.5.4.9.7 1.2.9l1.2.9c.4-.3.9-.7 1.3-1 .3-.2.6-.5 1-.8 2-1.6 3.6-3.3 5-5.3 1-1.4 1.9-3 2.7-4.7.3-.6.5-1.1.8-1.7.2-.4.3-.9.5-1.3.1-.2.1-.5.2-.7s.1-.4.2-.7c.1-.2.1-.5.2-.7s.1-.5.2-.7c0-.2.1-.4.1-.6.1-.3.1-.6.2-.9v-.2c.3-1.7.4-3.2.5-4.1v-.8c-.3-.1-.5-.2-.6-.2zm-1.6 8.3c-1.8 5.5-5.2 9.7-5.2 9.7s-4.6-3.6-7.2-8.5C16.1 14 15.6 7.2 15.6 7.2s1.9-.5 3.7-.5c3.2 0 5.4.1 8.1 1 3.8 1.2 4.8 1.9 4.8 1.9 0 .1-.1 4.9-1.1 7.9z"/></g><path fill="#0B5D97" d="M19.2 13.1l.1.1c.2 0 .3 0 .3-.1.1-.1.1-.2.1-.4s-.1-.4-.2-.5c-.1 0-.2-.1-.4-.1v.8l.1.2zm.4-1.1c.1-.1.1-.2.1-.4 0-.1 0-.2-.1-.3 0-.1-.1-.1-.3-.1h-.1v.9c.1 0 .4-.1.4-.1zm-1.3 1.2h.2c.1 0 .1-.1.1-.2v-1.6c0-.1 0-.2-.1-.2h-.2v-.1h1c.2 0 .4 0 .5.1.2.1.4.2.4.5 0 .1 0 .3-.2.3-.1.1-.2.1-.3.2.1 0 .2.1.3.1.2.1.3.3.3.5s-.1.3-.3.5c-.2.1-.4.2-.7.2l-1-.3zm2.9-.2c0 .1.1.2.2.2s.2-.1.2-.2.1-.3.1-.5c0-.3 0-.4-.1-.5 0-.1-.1-.2-.2-.2s-.2.1-.2.2v1zm-.2-1c.1-.2.3-.2.5-.2s.4.1.6.2c.1.2.2.4.2.6 0 .2-.1.4-.2.6-.1.2-.3.2-.6.2-.2 0-.4-.1-.5-.2-.1-.2-.2-.4-.2-.6 0-.3 0-.5.2-.6zm2.8-.2c.1.1.2.2.2.3s0 .1-.1.2c0 0-.1.1-.2.1h-.1c-.1 0-.1-.1-.1-.2V12h-.1c-.1 0-.2.1-.2.2s-.1.2-.1.4 0 .4.1.5.2.2.3.2c.1 0 .2 0 .2-.1l.1-.1.1.1c-.1.2-.2.3-.4.3h-.2c-.2 0-.4-.1-.5-.2-.1-.2-.2-.3-.2-.6 0-.2.1-.4.2-.6.2-.2.4-.2.6-.2.2-.2.4-.1.4-.1m.4 1.4c.1 0 .1-.1.1-.2v-1.8s-.1 0-.2-.1V11h.7v.9l.2-.2c.1 0 .2-.1.3-.1.1 0 .2 0 .3.1.1.1.1.2.1.4v.9s.1 0 .1.1v.1H25h.1V12c0-.1-.1-.1-.1-.1-.1 0-.1 0-.2.1l-.1.1v1h.1v.1h-.6m2.5-1.4V13c0 .1.1.1.2.1s.1 0 .2-.1c0 0 .1 0 .1-.1v-1c0-.1 0-.1-.1-.1h-.2v-.1h.7V13h.2v.1h-.4c-.1 0-.1 0-.3.1V13c-.1.1-.2.1-.2.1-.1.1-.2.1-.3.1-.1 0-.2 0-.3-.1-.1-.1-.1-.2-.1-.4v-1s-.1 0-.1-.1v-.1h.6m1.1 1.7c.1 0 .1 0 0 0 .1 0 .2-.1.2-.2v-1.1s-.1 0-.2-.1v-.1h.7v.2c0-.1.1-.1.2-.2s.2-.1.3-.1c.1 0 .2 0 .3.1 0 0 .1.1.1.2l.2-.2c.1-.1.2-.1.3-.1.1 0 .2 0 .3.1.1.1.1.2.1.4v.9h.1v.1h-.8v.1h.1V12s-.1-.1-.2-.1-.1 0-.2.1l-.1.1v1h.1v.1h-.8.1V12l-.1-.1c-.1 0-.1 0-.2.1l-.1.1v1h.1v.1h-.5m-6.5 4.4c.2 0 .3 0 .3-.1 0 0 .1-.1.1-.3v-1.5l-.1-.1h-.1s-.1 0-.2.1v-.1l.9-.4h.1v2c0 .1 0 .2.1.3.1 0 .2.1.3.1v.1l-1.4-.1m1.7-.9c.1-.1.2-.1.3-.2 0 0-.1 0-.2-.1l-.2-.2c0-.1-.1-.1-.1-.2v-.2c0-.2.1-.3.2-.4.1-.1.3-.2.6-.2.2 0 .4 0 .5.1s.2.2.2.3-.1.3-.2.3c-.1.1-.2.1-.3.1.2.1.3.2.3.3.1.1.2.3.2.4 0 .2-.1.4-.2.5-.2.1-.3.2-.6.2-.2 0-.3 0-.5-.1-.1-.1-.2-.2-.2-.4 0 .1 0-.1.2-.2zm.2.7c.1.1.2.2.3.2.1 0 .2 0 .2-.1.1-.1.1-.2.1-.3 0-.1 0-.3-.1-.4s-.2-.1-.3-.3c-.1.1-.1.2-.1.2v.3c-.1.2-.1.3-.1.4zm.6-1.4v-.2c0-.1 0-.2-.1-.3 0-.1-.1-.1-.2-.1s-.2 0-.2.1c-.1.1-.1.1-.1.2s.1.3.2.4.2.1.2.2c.2-.2.2-.2.2-.3zm.7.7s0-.1.1-.1l.4-.5.5-.6.1-.2h.3v1.5h.2v.4h-.2v.5h-.5v-.5h-.9v-.5c0 .1 0 0 0 0zm.8.1v-1l-.7 1h.7zm1.2-.1c.1-.1.2-.1.3-.2 0 0-.1 0-.2-.1l-.2-.2c0-.1-.1-.1-.1-.2v-.2c0-.2.1-.3.2-.4.1-.1.3-.2.6-.2.2 0 .4 0 .5.1s.2.2.2.3-.1.3-.2.3c-.1.1-.2.1-.3.1.2.1.3.2.3.3.1.1.2.3.2.4 0 .2-.1.4-.2.5-.2.1-.3.2-.6.2-.2 0-.3 0-.5-.1s-.2-.2-.2-.4c-.1.1 0-.1.2-.2zm.3.7c0 .1.1.2.3.2.1 0 .2 0 .2-.1.1-.1.1-.2.1-.3 0-.1 0-.3-.1-.4s-.2-.1-.3-.3c-.1.1-.1.2-.1.2 0 .1-.1.2-.1.3-.1.2-.1.3 0 .4zm.4-1.4v-.2c0-.1 0-.2-.1-.3 0-.1-.1-.1-.2-.1s-.2 0-.2.1c-.1.1-.1.1-.1.2s.1.3.2.4.2.1.2.2c.2-.2.2-.2.2-.3z"/><path fill="#FFFFFE" d="M13.3 17.6h.6v-.9s0-.8.7-1.2 1.2-.4 1.8-.2c.7.2.7.8.7 1s-.2.5-.5.5c-.4 0-.7-.1-.6-.5 0-.4.2-.5.2-.5 0-.1.1-.1 0-.2s-.2-.1-.4 0-.4.3-.4.6v1.5h.9v.4h-.8v10.2l-1.4-1.4v-8.8h-.6v-.5m-1.3-6.7H8.8v.1s0 .1.1.1.5.1.6.5c.1.4 2.7 6.4 2.7 6.4h.2l2.4-6.1s.2-.4.4-.6c.1-.2.3-.2.4-.2s.1-.1.1-.1v-.1h-2.1v.2s.8 0 .9.4c.1.3-.2.8-.2.8L13 15.8 11.3 12s-.2-.4 0-.6c.1-.2.4-.2.6-.2s.2 0 .3-.1v-.2m8 12h-3.6s0 .2.1.2.8.1.8.4v5s0 .8-.1.9-.7.3-.7.3v.2h5.9l.4-2.3h-.2s-.2.9-.8 1.4c-.6.5-.8.5-1.2.6-.3 0-.8.1-1.1 0-.2 0-.4-.2-.5-.3V24s0-.5.2-.6.5-.2.7-.2.2-.1.2-.1v-.2"/></g></svg>