<svg baseProfile="tiny" xmlns="http://www.w3.org/2000/svg" width="40" height="40"><path fill="#CD1719" d="M31.3 24.5s-1 10.1-11.1 10.4c0 0-9.7 1-11.6-10.1V13.4h.6v.1h21.6v-.1h.6l-.1 11.1z"/><path fill="#FFF" d="M9.2 5.7h21.5v7.8H9.2V5.7z"/><path fill="#CD1719" d="M26.1 6.9l3 5.5h-1.7l-1-2h-2.6l-1 2h-1.1v-.9l2.4-4.6h2z"/><path fill="#FFF" d="M30.7 14H20.2v20.3s8.6.2 10.5-9.7V14z"/><path fill="#CD1719" d="M17.3 11.1s1 .2 3.4.1c0 0 1.1 0 1.1-.9v-.8h-1.4v.3s0 .3-.2.3h-2s-.4 0-.5-.4V8.3s0-.3.4-.3c0 0 .6-.1 1.9 0 0 0 .4 0 .4.5h1.3v-.8s-.1-.8-1-.8c0 0-2.2-.1-3.1 0 0 0-1.2 0-1.2 1v2.3s0 .8.9.9zm7.6-3.2h.2l.7 1.5h-1.7l.8-1.5zM13 9.8h3v-1h-3v-.7h3.2v-1h-4.5v4.3H13V9.8z"/><path fill="#006139" d="M15 11.5h3.2v.9H15v-.9z"/><path fill="#FFF" d="M18.3 11.5h3.2v.9h-3.2v-.9z"/><path fill-rule="evenodd" fill="#006139" d="M18.3 12.5v-1H15v1h3.3zm-.1-.1h-3.1v-.8h3.1v.8z"/><path fill-rule="evenodd" fill="#CD1719" d="M21.6 12.5v-1h-3.4v1h3.4zm-.1-.1h-3.1v-.8h3.1v.8z"/><path fill="#CD1719" d="M11.7 11.5h3.2v.9h-3.2v-.9z"/><path fill-rule="evenodd" fill="#CD1719" d="M15 12.5v-1h-3.4v1H15zm-.1-.1h-3.1v-.8h3.1v.8z"/><path fill="#FFF" d="M25.8 9.5L25.1 8h-.2l-.7 1.5"/><path fill-rule="evenodd" fill="#CD1719" d="M8.5 5.1v19.7c2 11.1 11.6 10.1 11.6 10.1 10.1-.3 11.1-10.4 11.1-10.4V5.1H8.5zm22.2 19.5s-1 9.2-10.6 9.7c0 0-9 .9-11-9.3V14h21.5l.1 10.6zM9.2 13.4h21.6V5.7H9.2v7.7z"/><path fill-rule="evenodd" fill="#FD0" d="M31.4 5h-23v19.8c.8 4.4 2.8 7.3 5.7 8.9 1.2.6 2.4 1 3.7 1.2.9.1 1.6.2 2.2.1h.2c4.4-.1 7.4-2.1 9.4-5.2.7-1.1 1.2-2.4 1.5-3.6l.3-1.2c0-.1 0-.2.1-.3V5h-.1zM8.7 24.8V5.3h22.5v19.3c0 .1 0 .2-.1.3-.1.4-.1.7-.3 1.2-.3 1.2-.8 2.4-1.5 3.5-1.9 3.1-4.9 5-9.2 5.1H20c-.6 0-1.3 0-2.2-.1-1.2-.2-2.4-.6-3.6-1.2-2.8-1.5-4.8-4.3-5.5-8.6zm21.9-10.6H9.3v10.9c.8 3.9 2.6 6.5 5.2 7.9 1.1.6 2.2 1 3.4 1.1.8.1 1.5.2 2 .1h.1c4.1-.2 6.9-2 8.7-4.8.7-1.1 1.2-2.2 1.5-3.3.1-.4.2-.8.3-1.1v-.4l.1-10.4zm.2 10.8c0-.1 0-.2.1-.3V13.9H9v11.2c.8 4 2.7 6.6 5.4 8.1 1.1.6 2.3 1 3.5 1.2.8.1 1.5.2 2.1.1h.1c4.1-.2 7-2 8.8-4.9.7-1.1 1.2-2.2 1.5-3.4.2-.5.3-.9.4-1.2zm-.2-19.2H9.3v7.5h21.3V5.8zM9 5.6v8h21.8v-8H9z"/><path fill="#CD1719" d="M19.9 23.3s3.4.2 3.7-1.7c0 0 .5-1.7-.4-3.3 0 0-1-2.4-3-2.8 0 0-1.6-.1-3 2.2 0 0-1.5 2.7-.5 4.1-.2 0 .5 1.7 3.2 1.5z"/><path fill-rule="evenodd" d="M16.5 22.1c.1.2.3.4.5.6.6.5 1.6.8 2.8.8h.1c.5 0 1.2 0 1.8-.2 1.1-.3 1.8-.8 2-1.7 0-.1 0-.2.1-.3.2-.9.1-1.8-.3-2.7-.1-.1-.1-.3-.2-.4 0 0 0-.1-.1-.1 0-.1-.1-.2-.2-.3-.2-.3-.4-.7-.7-1-.6-.7-1.3-1.2-2.2-1.4h-.3c-.2 0-.4.1-.6.2-.6.2-1.2.7-1.7 1.4-.2.2-.3.5-.5.7v.1c0 .1-.1.1-.1.2-.1.2-.2.4-.3.7-.2.5-.4 1.1-.4 1.6-.1.7 0 1.2.3 1.8 0-.1 0-.1 0 0 0-.1 0 0 0 0zm3.4 1c-1.1.1-2-.2-2.5-.7l-.2-.2-.4-.6c-.2-.4-.3-.9-.3-1.5.1-.5.2-1 .4-1.5.1-.2.2-.5.3-.7 0-.1.1-.1.1-.2v-.1c.1-.2.3-.5.5-.7.5-.6 1.1-1.1 1.6-1.3.2-.1.4-.1.5-.2h.2c.7.2 1.4.6 1.9 1.3.3.3.5.6.7.9.1.1.1.2.2.3 0 .1 0 .1.1.1.1.1.1.3.2.4.4.8.4 1.7.3 2.5v.3c-.1.7-.7 1.2-1.7 1.4-.3.1-.7.1-1.1.2-.4.3-.6.3-.8.3z"/><path fill="#006139" d="M19.8 23.3s3.4.2 3.7-1.7c0 0 .5-1.7-.4-3.3 0 0-1-2.4-3-2.8 0 0-1.6-.1-3 2.2 0 0-1.5 2.7-.5 4.1-.1 0 .5 1.6 3.2 1.5z"/><path fill-rule="evenodd" d="M16.6 22.1c.1.2.3.4.5.6.6.5 1.5.8 2.7.7h.1c.5 0 1.2 0 1.8-.2 1.1-.3 1.8-.8 1.9-1.7v-.1c0-.1 0-.2.1-.2.1-.9.1-1.8-.3-2.7-.1-.1-.1-.3-.2-.4V18c0-.1-.1-.2-.2-.3-.2-.3-.4-.7-.7-1-.6-.7-1.3-1.2-2.1-1.4h-.3c-.2 0-.4.1-.6.2-.6.2-1.2.7-1.7 1.4-.2.2-.3.5-.5.7v.1c0 .1-.1.1-.1.2-.1.2-.2.4-.3.7-.2.5-.4 1.1-.4 1.6-.1.7 0 1.2.3 1.7v.2c-.1-.2-.1-.1 0 0zm.6.4c-.2-.2-.4-.3-.5-.5 0 0 0-.1-.1-.1l-.1-.2c-.3-.4-.3-.9-.3-1.5.1-.5.2-1 .4-1.5.1-.2.2-.5.3-.7 0-.1.1-.1.1-.2v-.1c.2-.3.3-.5.5-.7.5-.7 1.1-1.1 1.6-1.3.2-.1.4-.1.6-.2h.2c.7.2 1.4.6 2 1.3.3.3.5.6.7 1 .1.1.1.2.2.3v.1c.1.1.1.3.2.4.4.8.4 1.7.3 2.5v.3c-.1.8-.7 1.2-1.7 1.5-.6.2-1.2.2-1.8.2-1.2.1-2-.1-2.6-.6z"/><path fill="#FD0" d="M16.9 26l-.7-.7 1.1-1s2.9.5 5.6 0l1.2 1-.8 1-6.4-.3z"/><path fill-rule="evenodd" d="M17.2 24.1L16 25.3l.8.8 6.4.2.9-1.1-1.3-1.1h-.1c-.2 0-.5.1-.7.1-1.3.2-2.7.2-4 0-.2 0-.4-.1-.6-.1h-.2c.1 0 .1 0 0 0zm6 2l-6.2-.2-.6-.6 1-.9h.2c.2 0 .4.1.6.1 1.3.1 2.7.2 4 0 .2 0 .5-.1.7-.1l1.1.9-.8.8z"/><path fill="#FD0" d="M17.7 26.1s.3.7-.5.7c0 0-.8-.2-.5-1 0 0 .3-.4.9-.5.7-.1 4.9.1 4.9.1s1-.1 1.2.9c0 0 .1.8-.8.5 0 0-.4-.1-.3-.6 0 0-.7.9-.8 3.6l-3.3.1s-.1-3.1-.8-3.8z"/><path fill-rule="evenodd" d="M17.1 26.9c.4 0 .6-.1.7-.4.2.3.3.8.4 1.4.1.4.1.9.2 1.3v.5h.1l3.4-.1v-.1c0-1.1.2-1.9.4-2.6.1-.2.1-.4.2-.6 0 .1.1.2.1.2.1.1.1.1.2.1.5.1.7 0 .9-.3 0-.1.1-.2.1-.3-.1-.4-.3-.7-.6-.8-.1-.1-.3-.1-.4-.1h-5.1c-.3 0-.5.1-.7.3l-.3.3c-.2.4-.1.8.2 1 0 .1.1.2.2.2zm.5-.7v.2c0 .2-.1.2-.4.2h-.1c-.1 0-.1-.1-.2-.1-.2-.2-.3-.4-.2-.7v-.1c0-.1.1-.1.2-.2.2-.1.4-.2.6-.2h5.1c.1 0 .2.1.4.1.2.1.4.3.5.7v.2c-.1.2-.2.3-.6.2 0 0-.1 0-.1-.1-.1-.1-.1-.2-.1-.4l.1-.5-.3.4s-.1.1-.1.2c-.1.2-.2.5-.3.8-.2.7-.3 1.5-.4 2.6l-3.1.1v-.5c0-.5-.1-.9-.2-1.3-.2-.9-.4-1.6-.7-1.9l-.4-.3.3.6z"/><path d="M21.7 29.8l.2-.1-1.8-4.4-1.8 4.2.2.1 1.6-3.7 1.6 3.9z"/><path d="M18.4 25.7c-.2-.2-.4-.4-.6-.5-.1-.1-.2-.1-.3-.1v.2s.1 0 .2.1c.2.1.3.2.5.5.6.7 1.1 1.8 1.7 3.6l.1.3.1-.3v-.1c.1-.1.1-.3.2-.5.2-.5.4-1 .6-1.4.4-.7.7-1.3 1-1.7.2-.2.3-.3.4-.3l-.1-.2c-.2.1-.3.2-.5.4-.3.4-.7 1-1.1 1.7l-.6 1.5c0 .1-.1.2-.1.3-.4-1.7-.9-2.8-1.5-3.5z"/><path fill="#FD0" d="M19.1 23.4v1.9H21v-1.9h-1.9z"/><path fill-rule="evenodd" d="M21.1 23.2H19v2.1h2.2l-.1-2.1zm-.2 2h-1.7v-1.6h1.6l.1 1.6z"/><path d="M16.7 18.8l4.3-3c.1 0 .1-.1 0-.2 0-.1-.1-.1-.2 0l-4.3 2.9c-.1 0-.1.1 0 .2s.2.1.2.1zm-.4 1.5l5.6-3.7c.1 0 .1-.1 0-.2 0-.1-.1-.1-.2 0l-5.6 3.7c-.1 0-.1.1 0 .2s.2.1.2 0zm.2 1.4l6.2-4.1c.1 0 .1-.1 0-.2 0-.1-.1-.1-.2 0l-6.2 4.1c-.1 0-.1.1 0 .2h.2zm.7 1l6.1-4.1c.1 0 .1-.1 0-.2 0-.1-.1-.1-.2 0L17 22.5c-.1 0-.1.1 0 .2s.2.1.2 0zm1.2.6l5.3-3.4c.1 0 .1-.1 0-.2 0-.1-.1-.1-.2 0l-5.3 3.4c-.1 0-.1.1 0 .2s.1 0 .2 0zm2.3 0l3-2c.1 0 .1-.1 0-.2 0-.1-.1-.1-.2 0l-3 2c-.1 0-.1.1 0 .2h.2z"/><path d="M18.8 15.9l4.2 2.4h.2v-.2L19 15.7h-.2c-.1.1 0 .2 0 .2zm-2.5 5.6l3.2 1.8h.2v-.2l-3.2-1.8h-.2v.2zm1.5-4.7l5.8 3.5h.2v-.2L18 16.6h-.2c-.1.1-.1.2 0 .2zm-.7 1l6.4 3.8h.2v-.2l-6.4-3.8h-.2c-.1.1-.1.2 0 .2zm-.5 1.1l6.4 3.7h.2v-.2l-6.4-3.7h-.2c-.1.1-.1.2 0 .2zm-.4 1.3l5.3 3h.2V23l-5.3-3h-.2v.2z"/><path fill="#FFF" d="M16.8 32.2l.3-.2v-1l-.3-.1v-.1h.9v.1l-.3.1v1l.3.1v.1h-.9z"/><path fill-rule="evenodd" fill="#FFF" d="M18.9 30.7c.5 0 .7.4.7.8 0 .6-.4 1.2-1.1 1.4l-.1-.2c.4-.2.6-.4.8-.7-.1 0-.2.1-.2.1-.4 0-.6-.2-.6-.7-.1-.4.1-.7.5-.7zm.4 1.1v-.3c0-.3-.2-.5-.4-.5s-.3.2-.3.5.1.5.4.5c0-.1.2-.1.3-.2z"/><path fill-rule="evenodd" fill="#CD1719" d="M21.3 30.7c.4 0 .8.3.8.8 0 .4-.3.8-.8.8-.4 0-.8-.3-.8-.8s.3-.8.8-.8zm0 1.3c.3 0 .5-.2.5-.5s-.2-.5-.5-.5-.5.2-.5.5c0 .2.2.5.5.5z"/><path fill="#CD1719" d="M22.7 32.8h-.3c.1-.5.3-1.1.8-1.8h-.9v-.3h1.3v.2c-.3.5-.7 1.3-.9 1.9z"/></svg>