<svg baseProfile="tiny" xmlns="http://www.w3.org/2000/svg" width="40" height="40"><path fill="#FFF" d="M20 2L8.7 20 20 38l11.3-18L20 2z"/><path d="M20 3.2L9.4 20 20 36.8 30.5 20 20 3.2z"/><path fill="#FFF" d="M20 5.9L11.1 20 20 34.1 28.9 20 20 5.9z"/><path d="M20 7.1L11.9 20 20 32.9 28.1 20 20 7.1z"/><path fill="#FFF" d="M20 8.1L12.5 20l7.4 11.9L27.3 20 20 8.1z"/><path d="M20 7.9l-2.2 3.4h4.6L20 7.9zM24 26h-8l-3-4.7h13.8L24 26zm-7.9-12.1h7.8l2.8 4.7H13.1l3-4.7zM20 32.4l-2.3-3.7h4.8L20 32.4z"/><path d="M16.2 25.9h5.6c1.6 0 3-1.5 3-3.6 0-1.2-.5-1.9-.8-2.3.3-.3.8-.8.8-2.5 0-1.2-1-3.6-3.4-3.6h-5.2v12z"/><path fill="#FFF" d="M16.7 25.6h4.7c1.5 0 3.1-1 3.1-3.2 0-1.1-.5-1.8-.9-2.3.3-.3.9-.8.9-2.4 0-1.1-.6-3.3-3.4-3.3h-4.4v11.2z"/><path d="M17.1 25.2H21c1.7 0 3-.9 3-3 0-1-.7-1.9-1.1-2.1.3-.2 1.1-.7 1.1-2.2 0-1.2-.6-3-3.2-3H17v10.3h.1z"/><path fill="#FFF" d="M18.8 20.9h2c.7 0 1.3.4 1.3 1.1 0 .9-.6 1.1-1.4 1.1h-1.9v-2.2zm0-4.2h1.7c.6 0 1.4.1 1.4 1.1 0 1.1-.8 1.1-1.4 1.1h-1.7v-2.2z"/><path d="M19.2 17.1h1.2c.4 0 1 0 1 .7s-.5.7-1 .7h-1.2v-1.4zm0 4.2h1.4c.4 0 1 .3 1 .7 0 .6-.5.7-1.1.7h-1.3v-1.4z"/></svg>