<svg baseProfile="tiny" xmlns="http://www.w3.org/2000/svg" width="48" height="48"><path d="M23.9 47.9c-8.5.1-15.6-4-19.1-12-1.2-2.7-1.3-5.2-1.4-8.1V0h41.2v27.8c-.1 2.9-.2 5.4-1.4 8.1-3.7 8-10.9 12.1-19.3 12z"/><path fill="#0094CB" d="M43.9 27.8V.6h-40v27.2c.1 2.8.2 5.2 1.4 7.9 3.5 7.8 10.3 11.8 18.6 11.7 8.3.1 15.2-3.9 18.6-11.7 1.2-2.7 1.3-5.1 1.4-7.9"/><path fill="#F0432A" d="M6.1 9.6S6 9.5 6 9.4c-.1-.4.2-.7.7-.5.5-.1.8-.5.4-.7-.2-.1-.7-.2-.8-.4 0-.4.4-.3.7-.4.3-.2.2-.5.7-.5.4 0 .4.4.3.8 0 .6.5.4.7.2.1-.7-.3-1 .2-1.1.2-.1.4.6.8.7.4.2.7-.1.9.2.2.4 0 .5-.4.9 0 .1-.2.5.7 1 .1 0 .2.1.2.1l-5-.1zm10.3 9.3c-1.5.3-3.5.3-4.8-.5.4-.2 1-.5 1.2-.9.3-.5.8-1.3 1.6-1.6-.5-.6-.7-1-.8-1.5h15.8c-.1.7 0 1.4.6 2.7-.3-.1-.6-.2-1-.6.2.6.5 1.4.4 2.4h-13zm17.2-9.3c1.3-1.1 3.5-1.8 4.7-2.7.7-.5.7-1 .5-1.3-.8-.5-.3-1.2.1-1.3.7-.3 1.6-.4 2.5.2.7.4 1.3 1.6.1 3-.8.9-2.8 1.6-3.6 2-.1.1-.3.1-.4.2l-3.9-.1zm1 4.8c.1.2.3.4.5.6 1.5 1.5 2.8 2.3 4 3.9h-2.4c-.7-.6-1.7-1.2-3.1-2.7-.4-.4-.8-1.2-1.2-1.8h2.2zm-21 0c.1.4.4.9.8 1.5-.8.3-1.3 1.1-1.6 1.6 0 .1-.1.1-.1.2-.6-.4.2-1.2-.2-2-.3.5-.6.9-.9 1.1.2-.5 0-1-.2-1.5-.2.2-.5.8-.5 1.4-.7-.6-.8-.9-.7-2-.6.4-1 .4-1.6.1.2-.1.4-.2.5-.4h4.5zm-7.2 9.7h12c-.4.4-.9 1.1-.9 1.6-.3-.2-.3-.6-.4-1.3-.3.9-.8 1.6-1.5 2 .1-.6.1-1.1-.1-1.5-.3 1.3-1.1 1.9-1.7 2.4.2-.5.4-1.5.1-2.2-.2.9-1 1.7-1.3 1.8 0-.3.3-1.1-.4-1.7-1-.7-1.4.1-.9.5.6.4.5.8-.1.7-.2-.1-.4-.1-.5.1-.3.5-.8.6-.8-.5-.1-.6-1.1-.2-.9.3l.2.2c.5.4.3.9-.3.8-.2-.1-.7-.1-.9.1-.5.1-.5-.3-.3-.8.1-.3-.9-.6-.7.3.1.7-.8 1.1-.7.1.1-.2-.2-.7-.6-.9-.3-.2-.1-.7.3-.7.4.1.7.1 1 0 .4-.1.3-.9-.2-.7-.6.3-1-.1-.7-.5.1.1.2 0 .3-.1zm5.3 14.7c.2-.2.7-.1.7-.5.2-1.1.7-1.3 1.4-.7.9.5 1.4.2 1.7-.4.2-.3.9-2.1 1.1-3.4h5.1s.1 0 .2.1c.9.3 1.8.4 2.1.3 0 .7-.7 1.3-1.2 1.5.4.1.7.1.9.9-.4-.1-.9.1-1.2.3-.4.3-.8.5-1.3.2.2.6.4 1.1-.1 1.8-.2-.9-1-1-1.4-1.1.2.3.4.7.4 1h-8.4zm23.6-4.9c.9.1 1.9.1 2.4-.4 0 .6 0 1.2-.9 1.7.8.8.9 1.4.8 2.1-.7-.6-1.2-.5-2-.2.5.8.6 1.1.5 2-.5-.5-1-.5-1.3-.3h-4v-.7c0-1.4-.4-2.2-.8-2.4-.4-.2-1.6-.5-1.8-1.4-.2 1.3-1.9 1.8-3 .3.2-.2.3-.4.3-.7h9.8zm-4.9-9.8c1.3 1.4 2.9 2.4 4.7 2 1.2-.2 2.2-1 2.8-2h1.9c-.4 1.1-1.1 1.9-2.2 2.9-1.2.9-2.9 1.4-4.4 1 .1.5 0 .9-.1 1.3h-20v-.4c2 .7 2.9-.7 4.4-2 1.3-1.3 2.7-1.7 4-1.7.9 0 2.4.3 2.8.6-.5-.6-1.2-1.1-2-1.6l8.1-.1zM23.5 9.6s0-.1.1-.1c.1-.3.1-.5.1-.9-.1-.5-.3-.8-.9-.8-.8 0-1.5.6-2.2.4-.8-.2-.7-1-.7-1.4 0-.2.1-.3.2-.4H20c-.1-.1-.1-.2-.1-.4.1-.3.4-.4.7-.5.2-.1.7-.2 1.2-.6h6.6s1.5-.3 1.7.1c.1.4.3 1.3-.7 2.6.5.5.6 1.1.5 2.2"/><path fill="none" stroke="#000" stroke-width=".18" d="M23.5 9.6s0-.1.1-.1c.1-.3.1-.5.1-.9-.1-.5-.3-.8-.9-.8-.8 0-1.5.6-2.2.4-.8-.2-.7-1-.7-1.4 0-.2.1-.3.2-.4H20c-.1-.1-.1-.2-.1-.4.1-.3.4-.4.7-.5.2-.1.7-.2 1.2-.6h6.6s1.5-.3 1.7.1c.1.4.3 1.3-.7 2.6.5.5.6 1.1.5 2.2M6.1 9.6S6 9.5 6 9.4c-.1-.4.2-.7.7-.5.5-.1.8-.5.4-.7-.2-.1-.7-.2-.8-.4 0-.4.4-.3.7-.4.3-.2.2-.5.7-.5.4 0 .4.4.3.8 0 .6.5.4.7.2.1-.7-.3-1 .2-1.1.2-.1.4.6.8.7.4.2.7-.1.9.2.2.4 0 .5-.4.9 0 .1-.2.5.7 1 .1 0 .2.1.2.1l-5-.1h0zm10.3 9.3c-1.5.3-3.5.3-4.8-.5.4-.2 1-.5 1.2-.9.3-.5.8-1.3 1.6-1.6-.5-.6-.7-1-.8-1.5h15.8c-.1.7 0 1.4.6 2.7-.3-.1-.6-.2-1-.6.2.6.5 1.4.4 2.4h-13 0zm17.2-9.3c1.3-1.1 3.5-1.8 4.7-2.7.7-.5.7-1 .5-1.3-.8-.5-.3-1.2.1-1.3.7-.3 1.6-.4 2.5.2.7.4 1.3 1.6.1 3-.8.9-2.8 1.6-3.6 2-.1.1-.3.1-.4.2l-3.9-.1zm1 4.8c.1.2.3.4.5.6 1.5 1.5 2.8 2.3 4 3.9h-2.4c-.7-.6-1.7-1.2-3.1-2.7-.4-.4-.8-1.2-1.2-1.8h2.2zm-21 0c.1.4.4.9.8 1.5-.8.3-1.3 1.1-1.6 1.6 0 .1-.1.1-.1.2-.6-.4.2-1.2-.2-2-.3.5-.6.9-.9 1.1.2-.5 0-1-.2-1.5-.2.2-.5.8-.5 1.4-.7-.6-.8-.9-.7-2-.6.4-1 .4-1.6.1.2-.1.4-.2.5-.4h4.5zm-7.2 9.7h12c-.4.4-.9 1.1-.9 1.6-.3-.2-.3-.6-.4-1.3-.3.9-.8 1.6-1.5 2 .1-.6.1-1.1-.1-1.5-.3 1.3-1.1 1.9-1.7 2.4.2-.5.4-1.5.1-2.2-.2.9-1 1.7-1.3 1.8 0-.3.3-1.1-.4-1.7-1-.7-1.4.1-.9.5.6.4.5.8-.1.7-.2-.1-.4-.1-.5.1-.3.5-.8.6-.8-.5-.1-.6-1.1-.2-.9.3l.2.2c.5.4.3.9-.3.8-.2-.1-.7-.1-.9.1-.5.1-.5-.3-.3-.8.1-.3-.9-.6-.7.3.1.7-.8 1.1-.7.1.1-.2-.2-.7-.6-.9-.3-.2-.1-.7.3-.7.4.1.7.1 1 0 .4-.1.3-.9-.2-.7-.6.3-1-.1-.7-.5.1.1.2 0 .3-.1h0zm5.3 14.7c.2-.2.7-.1.7-.5.2-1.1.7-1.3 1.4-.7.9.5 1.4.2 1.7-.4.2-.3.9-2.1 1.1-3.4h5.1s.1 0 .2.1c.9.3 1.8.4 2.1.3 0 .7-.7 1.3-1.2 1.5.4.1.7.1.9.9-.4-.1-.9.1-1.2.3-.4.3-.8.5-1.3.2.2.6.4 1.1-.1 1.8-.2-.9-1-1-1.4-1.1.2.3.4.7.4 1h-8.4 0zm23.6-4.9c.9.1 1.9.1 2.4-.4 0 .6 0 1.2-.9 1.7.8.8.9 1.4.8 2.1-.7-.6-1.2-.5-2-.2.5.8.6 1.1.5 2-.5-.5-1-.5-1.3-.3h-4v-.7c0-1.4-.4-2.2-.8-2.4-.4-.2-1.6-.5-1.8-1.4-.2 1.3-1.9 1.8-3 .3.2-.2.3-.4.3-.7h9.8zm-4.9-9.8c1.3 1.4 2.9 2.4 4.7 2 1.2-.2 2.2-1 2.8-2h1.9c-.4 1.1-1.1 1.9-2.2 2.9-1.2.9-2.9 1.4-4.4 1 .1.5 0 .9-.1 1.3h-20v-.4c2 .7 2.9-.7 4.4-2 1.3-1.3 2.7-1.7 4-1.7.9 0 2.4.3 2.8.6-.5-.6-1.2-1.1-2-1.6l8.1-.1z"/><path fill="#FFF" stroke="#000" stroke-width=".18" d="M16.4 18.9c-.2.9-.9 1.1-1.3 2.4.8-.4 1.6-.5 2.7-.1 1.8.6 2.6.3 3.1-.1.2.8 1 .7 1.1 1.7.5-.6 1-.8 1.7-.9 1.1-.2 1.7-.5 1.8-1.4.6.7 1.4.9 2.3.8h1c0 .1 0 .2.1.3.1.3.2.6.4.9 0 .1.1.2.1.2l.9 1.2.1.1h-8.2l-.2-.1c-.9-.6-1.9-1-2.4-1.1.1-.3-.2-.6-.2-.6-.1.8-.7 1.2-1 1.6h0l-.1.1-.1.1h-12l.1-.1c0-.1.1-.1.1-.2-.1-.7.3-1.2 1.1-.7 0 0 .2.4.8.4.7-.1 1.3-.5 2.3-1.2 1.6-1.1 2.6-2.3 3.2-2.9l.3-.3c.9.1 1.6 0 2.3-.1h0zm16-4.5l-.5-.5c-.4-.2-.9-.2-1.6.3 0-1.4.5-2 1.8-2 .3-1.4.8-2 1.4-2.6l.1-.1h3.9c-.9.4-2 1-2.7 1.9-.8.9-.7 2-.1 2.9h-2.3v.1h0zm5.9 6.5c-.4-1-.9-1.5-1.6-2h2.4c.1.2.3.4.4.6.3-.3.7-.5 1.2-.6.3 0 .5-.1.9 0 .5.1.9.3 1.2.8.6.8.5 2.3-1 2.7 1-1.8-1.3-2.3-1.5-.3-.1.8-.2 1.4-.4 2H38c.5-1 .7-2.1.3-3.2h0zM9.2 14.4c.2-.3.3-.7.2-1.1-.1-.6.3-1.5.3-1.8 0-1-1.2-1-1.1-.2.3.9-.1 1.6-.5 1l-.2-.5c-.6-.4-.8-.8-.3-1.1.6-.5.1-.9-.5-.6-.4.6-.8.7-.9.4-.1-.2.1-.3 0-.7 0-.1-.1-.3-.1-.3h5c1.7.7 4.2 1.9 5.6 3.2-.6.3-1.4.8-3 .3-.1.4-.2.9-.1 1.3l-4.4.1h0zm10.9 24.4c0 .4-.1.7-.3.8-.2-.3-.4-.4-1-.4-.5 0-1 .3-1.1.4.2.1.2.2.2.4-.2 1.3-1 .7-1.3.9s-.4.6-.8.8c-.5.1-.7-.1-.7-.1-.5.5-1.5.8-1.6-.2-.3.1-.6-.2-.9-.5-.1.1-.3.3-.6-.1 0-.3.2-.8-.1-1-.4-.2-.6-.5-.4-.9 0 0 0-.1.1-.1h8.5zm14.7 0l-.2.2c-.3.5.2.6-.3 1.2-.5.1-1 .8-.7 1.3.3.4 0 .8-.6.4.2.6 0 1.3-.6 1.7-1 .5-.7-.2-1-.6-.3-.5-.8-.3-.8-.3-.1.1-.2.6-.2.7-.3.9-1.1 1-1.3.4-.1-.4-.5-.7-.7-.7-.5-.4.2-.9.4-1.1-.2-.1-.2-.4-.2-.7-.1-.3-.3-.6-.3-.7.1-.6.4-.6 1.2-.3.3-.1.5-.1.8-.5.1-.1.4-.5.4-1h4.1zM32.7 30c-1.1 1.9.3 3.4 1.7 3.8.3 0 .6.1.9.1h-9.8c.2-.6.1-1.2-.5-2.1-.5-.7-.4-1.8-.4-1.8-.5-.2-1.4-.3-2.3.2-1.9 1.1-1.5 3.2-.6 3.7h-5.1c.1-.4.1-.7 0-.9-.1-.4-.8-.8-1-1.6-1.1.2-2.2-.6-2.4-2.1h20c-.1.2-.3.4-.5.7h0zM16.4 18.9h13.1v.2h0c-.1.8 0 1.6.4 2.5-.7-.3-1.6-.3-2-.2-1 .1-1.7-.1-2.3-.8-.1.8-.7 1.2-1.8 1.4-.7.1-1.3.3-1.8.9-.1-1.1-.9-.9-1.1-1.7-.5.4-1.3.7-3.1.1-1.1-.3-1.9-.3-2.7.1.5-1.4 1.1-1.7 1.3-2.5h0zm-2.8-4.5c-.1-.4-.1-.8.1-1.3 1.9.7 2.7-.2 3.3-.5.8-.4 1.9-.2 2.6.1 2.1.8 2.9.3 3.1-.4.1-.5-.1-1.2-1.9-1-.2 0-.4 0-.5-.2-.1-.1-.2-.7-.2-1 0-.1.1-.2.2-.2 1-.3 1.5-.2 2.2.1.5.2.8 0 1-.5h6.3v.1c-.1 1.3.5 2 .5 2-.3 0-.6 0-.9-.3.2 1.2.3 1.9.1 2.8v.1l-15.9.2h0z"/><path d="M33.5 41.5c0-.2-.1-.7.1-.9.2-.3.4-.5.7-.5.5-.5 0-.6.3-1.1.3-.6 1-.4 1.5 0 .1-.8-.1-1.1-.5-1.8v-.1c.7-.3 1.3-.4 2 .1.1-.6-.1-1.1-.8-1.9 0 0-.1-.1 0-.1.7-.4.9-.9.9-1.4-.8.5-2.3.4-3.2.2-1.5-.4-2.9-2-1.8-3.9.5-.6.7-1.2.6-2 0 0 0-.1.1-.1 1.4.4 3.1-.1 4.3-.9 1.6-1.4 2.4-2.7 2.6-4.8.2-2.1 2.5-1.6 1.8.1 1.6-.6 1.2-2.9-.4-3.3-.3 0-.6-.1-.9 0-.4.1-.8.3-1.1.6-.1.1-.1 0-.1 0-1.2-1.9-2.9-2.9-4.4-4.5-1-1-1.4-2.4-.4-3.6 1.3-1.5 3.3-2 5-2.9.7-.3 1.4-.7 1.8-1.2 1.8-2.1-.5-3.8-2.5-3-.4.1-.7.7 0 1.2.4 1-1 1.7-1.6 2.1-1.2.7-2.7 1.2-3.7 2.1-.6.5-1 1.1-1.4 2.5 0 0 0 .1-.1.1-1.2 0-1.7.5-1.7 1.7.6-.5 1.1-.4 1.5-.2.6.2 1.2 1.8 1.7 2.3.7.7 1.3 1.3 1.8 1.7.5.4.9.7 1.3 1 .7.6 1.2 1 1.6 2.1.4 1.1.2 2.3-.4 3.3-.6 1-1.6 1.9-2.9 2.1-2.5.5-4.5-1.5-5.8-3.4-.3-.5-.5-1-.6-1.4h-.9c-.9.1-1.6 0-2.3-.7-.2.7-.8 1.1-1.8 1.2-.7.1-1.2.3-1.7.8-.1.1-.2 0-.2 0-.1-1-.8-.9-1.1-1.6-.5.3-1.4.6-3.1 0-1.1-.3-1.8-.3-2.6.1-.1 0-.1-.1-.1-.1.2-.7.5-1.1.7-1.4s.4-.5.5-.9c-.6.1-1.3.2-1.9.2l-.5.5c-1 1-1.9 1.9-3.1 2.7-1 .7-1.6 1.1-2.4 1.2-.3 0-.7-.2-.8-.4-.7-.4-1 0-.9.6 0 .2-.2.5-.4.6-.3.3.1.5.6.3.6-.3.8.7.3.8-.4.1-.7.1-1 0-.3 0-.4.3-.2.5.4.2.8.7.7 1-.1.8.6.4.5-.1-.2-1 1-.7.9-.3-.1.2-.3.8.2.7.2-.2.7-.2.9-.1.4.1.6-.3.2-.6l-.2-.2c-.2-.6.9-1 1.1-.3 0 1 .4.9.6.4.1-.2.4-.2.6-.1.4 0 .6-.2 0-.6s-.1-1.4 1-.6c.5.5.6 1 .5 1.6.3-.2 1-.9 1.1-1.7 0 0 .1-.1.2 0 .2.6.2 1.4 0 2 .5-.4 1.1-1 1.4-2.1 0-.1.1-.1.2 0 .1.4.2.8.1 1.3.6-.4 1.1-1 1.3-1.8 0 0 .2-.1.2 0 .1.3.1.9.3 1.1.1-.5.6-1.3 1.1-1.6.5-.4.9-.8 1-1.5 0-.1.1-.1.2 0s.2.3.2.5c.6.1 1.5.6 2.5 1.2.8.5 1.5 1.1 2 1.7l-.1.1c-.4-.3-1.8-.6-2.7-.6-1.3 0-2.6.4-3.9 1.6-1.2 1.2-2.3 2.7-4.3 2.1.1 1.2.9 2.6 2.4 2.3 0 0 .1 0 .1.1.2.6.5.9.9 1.3.3.4.2.8.1 1.3-.2 1.3-1 3.1-1.2 3.4-.3.6-.9.9-1.9.4-.6-.6-1.1-.5-1.2.6-.1.6-.6.3-.8.6-.2.4 0 .6.3.8s.1.7.1 1c.2.3.3.2.4.1 0-.4.3-1 1.1-1.2v.2c-.8.1-1 .7-1 1 .3.3.6.5.8.5 0 0 .1 0 .1.1.1.8.9.7 1.4.2-.1-.3 0-.6.2-.9l.2.1c-.1.2-.2.5-.1.7.1.1.5.1.6.1.4-.2.6-.8 1-.8h.6c.2 0 .5-.2.6-.8 0-.2-.1-.3-.2-.3l-.1-.1c.1-.2.7-.5 1.2-.5.6 0 .8.1 1 .4.3-.5.2-1.2-.2-1.6 0 0 0-.2.1-.1.6.1 1.2.2 1.4 1 .3-.6.2-1.1 0-1.6 0-.1 0-.2.1-.1.9.5 1.3-.7 2.3-.5-.2-.5-.4-.6-.8-.7-.1 0-.1-.1 0-.2.4-.1 1.1-.7 1.2-1.3-.5.1-1.8-.1-2.3-.4-1.8-1-.5-5.1 3-4.1l.1.1v.6c0 .3.1.8.4 1.1.6 1 .9 1.9.2 2.8 1.1 1.4 2.6.9 2.8-.3 0-.1.1-.1.2 0 .1.4.4.7.8.9.4.2.8.3 1 .4.5.2.9 1.1.9 2.5.1.6-.1 1.3-.5 1.8-.3.4-.5.4-.9.5-.7-.3-1-.2-1.1.3 0 .1.2.4.3.6 0 .1-.1.5.1.6.2-.1.3-.2.5-.2v.2c-.1 0-.3.1-.4.2-.2.2-.8.6-.4.9.3.1.6.4.7.8.2.5.9.5 1.2-.4 0-.1.1-.4.2-.6-.4-.1-.1-1.1.5-1.3l.1.2c-.2.1-.5.4-.6.6 0 .1-.1.4.1.3h.1c.3-.1.6.1.8.4.3.4 0 1 .9.5.6-.4.7-1.1.6-1.6 0 0 0-.1.1-.1.2.1.3.3.5.1-.6-.2-.7-.4-.8-.6zm-20.7-24c.3-.6.8-1.3 1.6-1.7-.8-1.1-1-1.8-.7-2.7 0 0 0-.1.1-.1 1 .3 1.8.3 2.7-.2h.1c-1.5-1.3-4.1-2.6-5.7-3.2-.3-.2-.8-.5-.8-1v-.2c.1-.1.4-.3.4-.4.1-.1.1-.2 0-.3-.1-.2-.4-.1-.5-.1-.6 0-.9-.8-1-.8-.3.1-.2.3-.1.6v.5c-.2.4-.9.5-.9-.2 0-.2.1-.7-.2-.7-.4.1-.3.5-.9.6-.2 0-.4 0-.4.3 0 .2.6.3.7.3.5.3 0 .8-.4.9-.3-.1-.8 0-.5.4.2.3.3.4.2.8v.2c.1.1.4.2.8-.4.7-.4 1.3.2.5.7-.3.2-.3.5.3.9l.2.5c.2.3.3.2.4.1.1-.2.1-.6 0-1-.2-.9 1.2-1 1.2.1 0 .2-.1.6-.2.8-.1.3-.2.7-.1 1 .1.6 0 1.3-.6 1.6.5.2.9.2 1.4-.2 0 0 .2 0 .1.1-.1 1 0 1.3.5 1.8 0-.5.3-1 .5-1.2h.1c.2.4.3.8.2 1.3.2-.2.5-.5.7-.9 0 0 .1-.1.2 0 .4.7-.4 1.5.1 1.8zm10.9-8.6c0 .2 0 .4-.1.5-.3.6-.6.9-1.2.6-.7-.3-1.2-.4-2.1-.1-.1.1-.1.1-.1.2 0 .3.1.8.2.9.1.1.2.1.4.1 1.9-.2 2.2.6 2 1.2-.2.7-1.1 1.2-3.2.4-.7-.3-1.8-.4-2.5-.1-.4.2-.7.4-1.2.6-.5.2-1.2.2-2.1-.1-.2.9-.1 1.5.8 2.6 0 0 .1.1 0 .1-.7.3-1.2 1.1-1.5 1.6-.2.4-.7.7-1.1.8 1.2.7 3.1.7 4.5.4.1 0 .1.1.1.1-.1.4-.3.7-.6 1.1-.2.3-.4.6-.6 1.2.8-.3 1.6-.4 2.6-.1 1.8.6 2.6.2 3-.1.1-.1.1 0 .1.1.2.7.9.7 1.1 1.6.5-.5 1-.7 1.7-.8 1.1-.2 1.6-.5 1.7-1.3 0 0 0-.1.2 0 .6.7 1.3.9 2.2.8.4 0 1.1 0 1.8.2-.4-.9-.5-1.7-.4-2.4.2-1 0-1.7-.4-2.6 0-.1.1-.2.2-.1.3.3.5.4.7.5-.5-1.3-.6-1.9-.5-2.7.2-.9.2-1.7-.1-2.8 0-.1.1-.1.2-.1.2.2.4.3.7.3-.2-.3-.5-1-.4-1.9 0-1.1 0-1.7-.4-2.2-.2.2-.3.2-.4.3v-.2c.1 0 .3-.1.4-.3 1-1.3.8-2.1.7-2.5-.2-.3-1.5-.1-1.6 0-.3.1-.4.3-.5.4l-.2-.1c0-.1.1-.3.3-.4h-6.2c-.3.3-.6.4-1 .5l-.6.3c-.1.1-.2.1-.2.3 0 .1-.1.3 0 .3l.3-.3.1.1-.3.3c-.2.3-.2.7-.2 1.1.1.2.2.5.6.6.7.2 1.4-.5 2.2-.4.7 0 1 .3 1 .9-.1.4-.1.5-.1.6zm-14.5-2c.3-.4.2-1 .1-1.4.9.7 1.2.9 1.1 2l.1.1c.3.5-.1.7-.4 1-.1.4.4.7.7.9 1.7.7 4.3 1.9 5.8 3.3.8-.5 2-.4 2.9-.1 2.1.8 2.8.2 3-.3.1-.4 0-1.1-1.8-.9-.2 0-.4 0-.6-.2-.1-.2-.2-.7-.2-1 0-.2.1-.2.2-.3 1-.3 1.5-.2 2.3.1.5.2.8-.1 1-.5-.8-.4-1.3-.3-2.2-.2-.3 0-.7.2-1 .3-.4.1-.9.3-1.4.2-.7 0-1.4-.3-1.6-1.1-.2-.6.1-1.2.6-1.5.1.6.3 1 .9 1.3 1.2.6 2.2-.2 3.3-.1.6 0 1.1.2 1.6.5v-.2c-.1-.5-.2-.7-.9-.7-.8 0-1.5.6-2.2.4-.7-.2-.8-.8-.7-1.5 0-.2.1-.3.1-.4-.2-.1-.1-.3-.1-.5.1-.3.5-.4.7-.6.2-.1.3-.1.5-.2s.4-.2.6-.4c-.1-1.3-.5-2.3-1.5-3.2.8-.4 1.3-.2 1.7.5.6-.5 1.2.1 1.3.6-1 .4-.6 1.1.1 1.1.9 0 1-.9.2-1.1 0-.5.3-.9.8-.9 0-.4.3-.9.7-1 .4.2.6.6.7 1 .5 0 .9.5.9 1-1 .3-.6 1.1.1 1.1s1.1-.8.1-1.1c0-.6.6-1.1 1.2-.7.5-.7 1.1-.7 1.8-.3-.9.9-1.5 1.9-1.6 3.1.4-.1 1.6-.3 1.8.1.1.4.3 1.3-.7 2.6.5.5.5 1.2.5 2.2v.2c-.1.6.1 1.5.5 2 .1.1-.1.1-.1.1-.3 0-.5 0-.8-.2.2 1 .2 1.8 0 2.6v.1c-.1.7 0 1.4.6 2.7 0 .1 0 .1-.1.1-.2-.1-.5-.2-.7-.4.3.8.4 1.5.2 2.3-.1.7 0 1.6.4 2.5 0 0 0 .1-.1.1-.3-.1-.5-.2-.8-.2.1.4.3.8.6 1.3 1.2 1.8 3.2 3.7 5.6 3.3 1.2-.2 2.2-1 2.7-2 .6-1 .7-2.1.3-3.1s-.9-1.4-1.6-2c-.4-.3-.8-.6-1.3-1s-1.1-1-1.8-1.7c-.5-.5-1.2-2.1-1.7-2.3-.4-.2-.8-.2-1.5.3-.1.1-.1 0-.1-.1 0-1.4.5-2.1 1.8-2.1.3-1.1.6-1.9 1.5-2.6 1.1-.9 2.4-1.4 3.6-2.1.6-.3 1.9-1 1.6-1.8-.8-.6-.3-1.3.1-1.5 2.2-.9 4.6 1 2.7 3.3-.9 1-2.8 1.7-4.1 2.2-1.8.8-4.3 2.3-2.8 4.7.1.2.3.4.5.6 1.5 1.6 3.2 2.6 4.3 4.5.3-.3.7-.5 1.1-.6.3 0 .6-.1.9 0 1.9.4 2.3 3.1.3 3.7-.1 0-.1-.1-.1-.1.9-1.7-1.2-2-1.3-.2-.2 2.2-1 3.4-2.6 4.9-1.2.9-2.9 1.4-4.3 1 .1.7-.2 1.4-.6 2-1.1 1.8.3 3.3 1.7 3.6.9.1 2.6.3 3.2-.3 0 0 .2 0 .2.1 0 .6 0 1.2-.8 1.7.8.8.8 1.4.7 2.1 0 .1-.1.1-.1.1-.6-.5-1.1-.5-1.8-.2.4.7.5 1.1.5 2 0 0 0 .1-.2.1-.3-.3-1-.7-1.3-.1-.2.4.2.6-.3 1.2.7.7.9 1.6.5 2.4-.3-.6-.7-.8-1.1-.9.1.4 0 .6-.5.3.1.6-.1 1.3-.7 1.6-.3.1-.6.3-.8.1-.3.3-.5.9-.4 1.6-.5-.4-.9-1-.9-1.6-.3.5-.9.7-1.2.3-.4.4-.4.8-.5 1.5-.6-.9-.9-1.6-.4-2.5-.3-.4.1-.8.4-1-.5 0-.9.1-1.2.5l-.2.2v-.3c0-.2 0-.4.1-.6.1-.7.4-1 1-1.3.1-.7.6-.7 1.3-.4.3-.1.5-.1.7-.4.4-.5.5-1.1.4-1.6 0-1.5-.4-2.2-.8-2.4-.2-.1-.6-.2-1-.4-.3-.2-.6-.4-.8-.7-.4 1.2-2 1.4-3.1 0V35c.7-.9.4-1.7-.2-2.7-.3-.5-.4-1.2-.4-1.7-3.3-.9-4.5 3.2-2.6 3.8.9.3 1.8.4 2.1.3 0 0 .1 0 .1.1 0 .6-.5 1.2-1 1.5.4.1.6.5.7.9 0 0 0 .1-.1.1-.9-.3-1.3.9-2.3.6.2.5.2 1-.2 1.7-.1.1-.2 0-.2 0-.2-.6-.6-.9-1.1-1 .3.5.4 1.3 0 1.8-.1.1-.1 0-.1 0-.2-.2-.4-.4-1-.4-.4 0-.8.2-.9.3.1.1.2.3.2.4-.1.5-.2.8-.5.9.1 1.1-.4 1.5-1.4 2.1.2-.8.3-1 0-1.5-.1.1-.2.2-.4.3s-.5.1-.8-.1c-.3.3-1 .6-1.4.3-.4.3-.4.8-.3 1.2-1-.3-1.2-1.4-1-2.2-.1.1-.3.1-.5-.2-.4.1-.6.5-.6 1-.7-.9-.7-1.6.1-2.5 0-.1 0-.3.1-.5 0-.1.1-.2.2-.2-.4-.2-1.1-.2-1.5.3.1-1 1.2-1.9 2.5-1.6.3-.3.7-.2 1.1.2.8.5 1.3.2 1.6-.3.2-.3.9-2.1 1.1-3.4.1-.3.1-.6 0-.9 0-.2-.3-.5-.4-.6-.2-.2-.4-.5-.6-1-1.6.3-2.4-1.3-2.5-2.6 0-.2.1-.1.1-.1 1.4.5 2.3-.1 3.3-1 .3-.3.7-.6 1-1 1.4-1.3 2.7-1.7 4.1-1.7.7 0 1.7.2 2.4.4-.5-.5-1.1-.9-1.7-1.3-1-.6-2-1.1-2.5-1.1-.1 0-.1-.1-.1-.1.1-.1 0-.2 0-.3-.2.8-.7 1.1-1.2 1.6-.4.4-.9 1.1-.9 1.5 0 .1-.1.1-.1.1-.3-.2-.3-.6-.4-1-.3.8-.8 1.3-1.4 1.7-.1.1-.2 0-.2-.1.1-.4.1-.8 0-1.1-.3 1.1-1 1.7-1.6 2.1-.1 0-.2 0-.2-.1.2-.4.3-1.2.2-1.8-.3.8-1 1.5-1.3 1.6-.2 0-.1-.1-.1-.1 0-.2.1-.5 0-.7 0-.3-.1-.6-.4-.9-.9-.6-1.2 0-.8.3s.6.7.3.8c.2.9-.4 1.4-1.3 1.6.3-.5.4-.8.1-1.2-.3.2-.6 0-.6-.9-.1-.4-.8-.2-.7.2l.2.2c.4.3.4.8 0 .9 0 .7 0 1.2.5 1.8-1-.1-1.8-.7-2-1.7-.4 0-.3-.6-.1-1 0-.1-.7-.5-.5.3.1.7-.7 1.1-.9.5-.5.3-.6.8-.7 1.4l-.1-.1c-.5-.5-.6-2 .2-2.6-.2-.3 0-.8.5-.7.3 0 1.3.2 1.2-.4-.1-.4-.6.2-1.1-.1-.2-.1-.2-.3-.1-.5-.4-.1-1 0-1.3.3 0-.8.4-1.5 1.9-1.6.2-.3.6-.4 1.1-.1v.1c.2.2.4.3.6.3.7-.1 1.3-.5 2.3-1.2 1.1-.8 2.1-1.7 3.1-2.7l.4-.4c-.9-.1-1.8-.3-2.5-.7-.1 0-.1-.1 0-.2.3-.1.8-.3 1-.6-.5-.4.1-1.2 0-1.8-.3.5-.6.8-.9 1-.1 0-.2 0-.1-.1.1-.5.1-.8-.1-1.3-.2.3-.4.7-.4 1.2 0 .1-.1.1-.1.1-.6-.6-.8-.9-.7-1.9-.5.3-.9.3-1.6 0-.1 0 0-.1 0-.2.6-.2.8-.9.6-1.4-.1-.5.1-1 .2-1.5 0-.1.1-.2.1-.3 0-.8-1-.9-.9-.2.2.5.2.9 0 1.1-.1.2-.3.3-.5.1-.8.5-1.2.5-2-.2.6-.2.9-.4 1.2-.9-.2-.3-.2-.6.2-.8.5-.4.1-.7-.3-.5-.4.6-.9.8-1.1.4-.4.1-.6.3-.7.8-.5-.3-.6-1.6.4-2.2-.1-.4.3-.7.8-.5.2 0 .7-.3.4-.5-.2-.1-.8-.2-.8-.5 0-.1 0-.2.1-.3-.4-.4-.7-.3-1.3-.3.7-1 1.5-1 2.4-.4.1 0 .1-.1.3-.1.5-.1.5.5.4.9 0 .5.4.4.5.1 0-.3 0-.4-.1-.7-.1-.4.3-.6.6-.4-.2.1-.1.1-.1.2z"/><path d="M26 27.1c.5 0 .7-.8.7-.9s.2-.1.2 0c0 .3-.2.6-.4.9-.1.2-.3.3-.4.5-.6.6-1.2 1.3-1.3 2.4 0 .1-.2.1-.2 0 .1-1.1.6-1.7 1.2-2.4.1-.2-.6-.8-.7-.9-.3-.3-.5-.6-.9-.8-.1-.1 0-.2.1-.1.4.3.9.8 1.2 1 .1 0 .3.3.5.3zM28 6c.1-.1.3-.5.9-.8-.6.1-1 .5-1 .6-.2.3-.1.4.1.2zm-5.2.2c-.4 0-.8-.4-1.2-.1-.1-.3.4-.4.4-.7.3.2.4.6.8.8m-5.8 0h-1.9l-.9 1.7-.9-1.7h-1.9l.9-1.7-.9-1.7h1.9l.9-1.7.9 1.7H17l-.9 1.7.9 1.7z"/><path fill="#FFF" d="M11.7 6l.8-1.5-.8-1.5h1.7l.8-1.5L15 3h1.7l-.8 1.5.8 1.5H15l-.8 1.5-.8-1.5h-1.7z"/><path fill="#FBC707" d="M33.7 41.5c.4.1.9.3 1.1.7.1-.7 0-1.4-.6-2-.6.3-.6.9-.5 1.3zm-5.2 1.7c-.4.7-.2 1.4.1 1.9.1-.5.2-.9.5-1.1 0 0 0-.1-.1-.1 0-.4-.3-.7-.5-.7zm-.1-2.4c-.5.3-.7.6-.8 1.2v.3c.3-.3.7-.4 1.1-.4-.1-.2 0-.4 0-.5-.1-.2-.3-.4-.3-.6zm2.4 2c-.4.8-.1 1.6.4 2.1 0-.6.2-1 .5-1.3v-.1c0-.2-.1-.3-.2-.5-.2-.1-.4-.3-.7-.2zm-14.5-1.4c.3.4.3.7.2 1.2.6-.4 1-.8.9-1.7h-.5c-.3 0-.3.2-.6.5zm-3.6-.4c-.2.8 0 1.7.5 1.9 0-.4 0-.8.4-1.1-.1-.1-.1-.2-.2-.4-.2.1-.5-.1-.7-.4zm-1.2-1.5c-.7.7-.6 1.3-.3 1.9.1-.5.4-.7.7-.8 0-.2.1-.7 0-.8-.2 0-.3-.1-.4-.3zm1.1-2c-1-.2-1.7.3-2 1 .5-.3.9-.3 1.4 0 .2 0 .3-.1.4-.3 0-.3 0-.5.2-.7zm-2.1-10.6c.2.3.3.5.1 1 .7-.2.9-.8.8-1.3h-.2c-.2-.1-.3-.1-.4.1-.1.1-.2.1-.3.2zm-2.5.7c.2.7.8 1.3 1.4 1.5-.3-.5-.3-.9-.3-1.5h-.2c-.2-.1-.6-.1-.7.1l-.2-.1zm-2.3-1.3c-.6.5-.6 1.7-.3 2.2.1-.6.4-1 .8-1.2v-.2c.1-.2-.1-.7-.5-.8zm.8-3c-1.2.1-1.5.5-1.7 1.1.4-.2.8-.3 1.3-.2.2-.1.3-.3.3-.4 0-.2.1-.4.1-.5zm1-11.7c-.2.3-.5.6-.9.8.5.3.8.4 1.5 0v-.1l-.2-.4c-.2-.1-.3-.2-.4-.3zM5.9 9.5c-.7.4-.8 1.1-.5 1.8.1-.4.3-.7.7-.8 0-.2.2-.4-.1-.8 0-.1-.1-.1-.1-.2zm4.4-2.1c.1-.9-.1-1.1-.7-1.5.1.4 0 .9-.2 1.2.1.2.3.4.6.4 0-.1.2-.1.3-.1zM7.2 7c-.9-.6-1.5-.4-1.9.1.5 0 .8.1 1.1.4.2-.1.5-.1.7-.3 0-.1.1-.2.1-.2m20.9-2.2h-6.4c-.1-1.3-.6-2.4-1.4-3.3.6-.3 1.2 0 1.6.6.4-.4 1.1-.2 1.2.4-.9.4-.6 1.3.2 1.3 1 0 1.1-1 .3-1.2 0-.4.2-.7.8-.7 0-.5.3-.9.6-1 .4.1.6.5.7 1 .6 0 .9.5.9.8-1 .3-.7 1.2.2 1.2.8 0 1.2-1 .2-1.2 0-.6.8-.9 1.1-.5.5-.8 1.1-.7 1.6-.4-1.3 1-1.5 2.2-1.6 3"/><path fill="none" stroke="#000" stroke-width=".18" d="M28.1 4.8h-6.4c-.1-1.3-.6-2.4-1.4-3.3.6-.3 1.2 0 1.6.6.4-.4 1.1-.2 1.2.4-.9.4-.6 1.3.2 1.3 1 0 1.1-1 .3-1.2 0-.4.2-.7.8-.7 0-.5.3-.9.6-1 .4.1.6.5.7 1 .6 0 .9.5.9.8-1 .3-.7 1.2.2 1.2.8 0 1.2-1 .2-1.2 0-.6.8-.9 1.1-.5.5-.8 1.1-.7 1.6-.4-1.3 1-1.5 2.2-1.6 3"/><path fill="#F0432A" stroke="#000" stroke-width=".18" d="M17.7 7.3c.1.5.4.9.9 1.2 1.2.7 2.2-.1 3.4-.1.4 0 1.1.2 1.7.6 0 .2 0 .3-.1.4-.8-.5-1.4-.4-2.3-.3-.5.1-1.4.6-2.4.5-.7 0-1.3-.3-1.5-1-.3-.5-.1-1.1.3-1.3h0z"/></svg>