<svg baseProfile="tiny" xmlns="http://www.w3.org/2000/svg" width="48" height="48"><path fill="#FFF" d="M5.2 28.8c0 4.9 2 9.8 5.5 13.3s8.4 5.5 13.3 5.5 9.8-2 13.3-5.5 5.5-8.3 5.5-13.3V.4H5.3l-.1 28.4z"/><path fill="#010202" d="M24 48c-5.1 0-10-2-13.6-5.6s-5.6-8.5-5.6-13.6V0h38.3v28.8c0 5.1-2 10-5.6 13.6C33.9 46 29 48 24 48zM5.7.9v28c0 4.8 2 9.5 5.4 13 3.4 3.4 8.1 5.4 13 5.4 4.8 0 9.5-2 13-5.4 3.4-3.4 5.4-8.1 5.4-13V.9H5.7z"/><path fill="#C31718" d="M37.6 9.1l1.7 3.4-2.3 1.3-1.6-3.5 2.2-1.2z"/><path fill="#010202" d="M34.3 14.2h1.4l1.2-.7-.7-1.5 1.2-.8-.2-.4-1.6.9m-24.3-.8L9.9 9.6l-.5 1 1.9.9v-.6zm1.9 1.7l-1.5-3-.2 1.2 1.7 3.4v-1.6zm-1.3-1.4h-.7c-.3.5-.6 1-.8 1.4l1.5.2"/><path fill="#FFE609" d="M21.5 6.1c-.1.2.6.1.7.3.1.3.8 5 .8 5l-.4.4V13h2V6.3c-.9 0-1.7-.6-3.1-.2z"/><path fill="#F8B486" d="M21.6 6.1c-1.4.6-.8 1.9-1.2 3.9l.4.1c0 .4.1.7.1 1.2 1.2.1 1.9 0 1.9 0 .3.3.8 1.2.8 1.2h.1s.2-4.4 0-4.7c-.1-.6-.7-1.1-1.2-1.4-.2-.2-.6-.3-.9-.3zM9.9 9.5l-.2.4c.7.6 1.2.7 1.5 1l-.1.2c-.4-.2-1.3-.8-1.5-.9l-.2.3c.7.5 1.3.8 1.5.9.4.2.7.2.9.4v.3c-.5-.1-.9-.4-1.1-.3l-.1.2c.4 0 1 .4 1 .4l-.1.3c-.4-.2-.5-.3-1-.4l-.2.4 4.1 2.2v-2.2c-.1 0-.3-.1-.4-.2-.6-.4-.3-1.1-.4-1.3 0 0-1.4-1.2-1.9-1.6-.4.6.5 1.1.7 1.4.3.5 0 1.2.8 1.7v.4c-1.2-.3-.8-1.5-1-1.9-.2-.3-.4-.4-.7-.6-.7-.4-1-.7-1.6-1.1zm27 1h-.2l-1.1.5c-.4.3-.8.4-.8.4-.4.2.3 1-.3 1.2-.3.1-.5.2-.7.3v2.4l2.6-1.6-.4-.9c-.2.6-.5.8-1.1.9l-.1-.4c.5-.1.8-.2.9-.8.1-.4-.2-.6 0-.9 0-.1.7-.5 1.1-.8.1-.1.3-.2.3-.2s-.1-.1-.2-.1z"/><path fill="#010202" d="M22.7 5.9c1 .5 1.2.7 1.6 1.2.2.5.2.9.2 2.8 0 1.2-.1 2.3-.1 2.4l-1.2.3c-.1 0-.3-.6-.5-.8-1.1 1.2-2.7 1.6-4.2 1.7-.8.1-3.2-.4-4.1-.8v22.6c1.3 0 2.3-.4 3-1.6.2-.2.4-.7.4-2.7V20.7c0-.5.3-1.2.9-1.7.4-.4.7-.6 1.3-.7v16.9h8.6V18.1c.4.1 1 .6 1.3 1s.6.8.8 1.6c.2 1.1.1 10.1.1 10.3 0 1.4-.1 2.5.5 3.4.5.7 2 1.1 2.8 1.2V12.9c-1.7.6-3.6.8-5.2.5-1.3-.2-2.2-1.2-2.3-1.4-.7-1.4 2.5-1 3.9-1-.2-1-.3-1.3-.7-2.1-.8-1.3-1.4-1.9-2.6-2.4-1.2-.4-3.5-.6-4.5-.6z"/><path fill="#FFE609" d="M24.5 16.3c1.5 0 2.7-.6 3.3-1.3.4-.4.7-.7.9-1.2l-.6-.2c-.1.4-.3.6-.6.9-.6.6-1.9 1.2-3.3 1.2-1.2 0-2.3-.4-3-.9-.5-.3-.9-.6-1-1.2l-.6.3c.2.6.7 1.1 1.3 1.5.7.5 1.7.9 2.9.9v6.3h-3.4v.8h3.4v11.4h.8V23.4h3.6v-.8h-3.6l-.1-6.3z"/><path fill="#C31718" d="M21.2 35.9c-.2.1-.3.8-.6 1.1-.3.4-1.9 1.4-1.9 3.3 1-.7 1.5-1 2.6-1.8.9-.6 1.3-.7 1.3-.8v-1.8h-1.4zm4.4 0c0 1.2 0 1.6.1 1.8.2.3.6.3 1.5 1s1.3 1.1 2.2 1.6c-.2-2.1-.6-2-1.4-2.8-.4-.4-1-1.5-1-1.6h-1.4z"/><path fill="#C31718" d="M18.5 40.4v-.2c0-1.5 1-2.5 1.6-3 .1-.1.3-.2.3-.3.1-.1.2-.4.3-.6.1-.3.2-.5.4-.6h1.5v1.9c0 .1-.1.1-.3.2-.2.1-.6.3-1.1.7l-.1.1c-1 .7-1.5 1-2.5 1.7l-.1.1zm2.7-4.5c-.1 0-.2.3-.3.5l-.3.6-.4.4c-.6.5-1.5 1.3-1.5 2.7.9-.6 1.4-.9 2.3-1.6l.1-.1c.5-.4.9-.6 1.1-.7.1 0 .2-.1.2-.1v-1.7h-1.2zm8.3 4.5c-1-.6-1.4-1-2.2-1.6l-.1-.1c-.5-.4-.8-.5-1.1-.7-.2-.1-.4-.2-.5-.3-.1-.2-.1-.5-.1-1.3v-.7H27l.1.2c.2.3.6 1.1.9 1.4.2.2.3.4.5.5.5.5.8.8 1 2.4v.2zm-3.8-4.5v.5c0 .7 0 1.1.1 1.2.1.1.2.2.4.3.3.1.6.3 1.1.7l.1.1c.8.6 1.2 1 2 1.4-.1-1.4-.4-1.7-.9-2.1l-.5-.5c-.3-.3-.7-1-.9-1.4 0-.1 0-.1-.1-.1l-1.3-.1z"/><path fill="#231F20" d="M23.1 7.6c0-.4-.1-.4-.4-.8-.2.4-.1.6.4.8zm-.5 0c0-.4.1-.5-.4-.8-.1.4-.1.6.4.8zm-.5 0c0-.4.1-.5-.4-.8-.1.4-.1.6.4.8zm-.6 0c.1-.4.2-.6-.3-.9-.1.6 0 .6.3.9zm0 1.1c.6.3.6.3 1.2-.1-.2-.3-.5-.6-.9-.5-.2.1-.3.3-.3.6z"/></svg>