<svg baseProfile="tiny" xmlns="http://www.w3.org/2000/svg" width="48" height="48" viewBox="0 0 100 100"><path fill="#ffe013" d="M49.7.5H4.1v46.1h91.3v16.8c-.5 14.6-7.1 22.5-18.6 29.8a47.3 47.3 0 01-27.1 6.2"/><path fill="#fff" stroke="#111" stroke-width=".217" d="M27.8 4.3s-.2 1.7 1.3 2.9c2.6 1.6 7.5 2.9 8.6 4 3.9 2.8 2.4 7.8 2.4 7.8-1.1 2.5-3.2 2.9-3.2 2.9l-2.5-.3c.2-.1.2-.3.2-.3s0-.7-.6-.9c.7-1.2 1-3.5 1-3.5.9 0 1.1-1.2 1.1-1.2s.2-.8-.5-1.2c1.3-1.1 1.3-1.8 1.3-1.8s.2-.8-.5-1c-.4-.1-.9-.2-.7 1.1-.2 0 0-1-.6-.9-1.5.3-.4 1.4-.6 1.5 0 0 0-.8-.8-.7-.7.1-.6.6-.6.6s-3.9-1.8-5.6-3.3c-2.8-2.9.3-5.7.3-5.7zm-4.5 0s-.2 2.1-1.3 2.9c-2 1.2-7.5 2.9-8.6 4-4 3.2-2.2 8-2.2 8 1 2.9 3.2 2.9 3.2 2.9l2.3-.1-.3-.6s-.2-.5.6-1c-.7-1.2-1-3.5-1-3.5-1.1-.3-1.2-1.1-1.2-1.1s-.3-.8.5-1.2c-1.4-1-1.3-1.9-1.3-1.9s-.2-1.3 1.1-1.1c1.1.3-.1 1.3.2 1.4.5-1.3 1-.9 1-.8.9.4-.3 1.4 0 1.6.9-2 1.5-.3 1.5-.3s3.9-1.8 5.6-3.2c3-3.2-.1-6-.1-6z"/><path fill="#111" d="M25.5 20.7c-5.5.2-7.6.9-8.5 1.2-1-.2-3.2.3-3.2.3s-1.8.2-2.5 1.1c-2.3-.5-2.3.2-2.3.2.3 4.3 3.3 4.4 3.3 4.4 2.5.5 4.7-.3 4.7-.3l.7 3.6-.9 2.3.2 2.1-3.7 4.3a7 7 0 015.4 4.2c2.3-2.2 4.6.3 4.6.3 2.6-1.9 5.1.2 5.1.2 1.6-2.8 5.4-1.4 5.4-1.4.3-3.8 3.7-3.8 3.7-3.8-.7-3.6 2.4-5.3 2.4-5.3s-4-1.7-4.6-6.2C40 29 41.5 26 41.5 26c.6-.7.7-3.3.7-3.3-1.5.8-2.7.2-2.7.2-2.3-1.5-5.5-1.3-5.5-1.3s-5.8-1-8.5-.9z"/><path fill="none" stroke="#111" stroke-width=".081" d="M25.5 20.7c-5.5.2-7.6.9-8.5 1.2-1-.2-3.2.3-3.2.3s-1.8.2-2.5 1.1c-2.3-.5-2.3.2-2.3.2.3 4.3 3.3 4.4 3.3 4.4 2.5.5 4.7-.3 4.7-.3l.7 3.6-.9 2.3.2 2.1-3.7 4.3a7 7 0 015.4 4.2c2.3-2.2 4.6.3 4.6.3 2.6-1.9 5.1.2 5.1.2 1.6-2.8 5.4-1.4 5.4-1.4.3-3.8 3.7-3.8 3.7-3.8-.7-3.6 2.4-5.3 2.4-5.3s-4-1.7-4.6-6.2C40 29 41.5 26 41.5 26c.6-.7.7-3.3.7-3.3-1.5.8-2.7.2-2.7.2-2.3-1.5-5.5-1.3-5.5-1.3s-5.8-1-8.5-.9z"/><path fill="none" stroke="#111" stroke-width=".204" d="M16.4 21.2c8-2.6 18.2-.2 18.2-.2m-18.3-3c9.5-2.5 18.5.1 18.5.1m-18.4.7c9.5-2.5 18.1.1 18.1.1M17 20.3c8.5-2 17.1 0 17.1 0"/><path fill="#fff" d="M17.9 22.4c.4-.1.5-.3.5.3-1 2.2-1.1 3.5-1.1 3.5s-.3 1.7 1 2.5c1.5 1 1.5 1.4 1.2 1.4.2.7-.3.3-.3.3-.7-.8-.9-1-1.2-1.1 0 .6 0 1 .3 1.6.2.3 0 .7 0 .7s-1.2.8-1.1 2.2a4.2 4.2 0 002.1 3.5c1.1 1.4 4.1 1.8 4.1 1.8s-1.8.8-3.9-.6c-.6-.4-1.8-1.2-2.7-2.8-.7-2.1-.2-3.4.5-4.4.2 0 0-1.8 0-1.8s-1.9-3.6.6-7.1z"/><path fill="#fff" stroke="#111" stroke-width=".102" d="M31.8 35.8l-.5-1C29.7 36 27 36.2 27 36.2l.4 1.3c.4.1 1.1-.2 1.1-.2l-.3-1 .3 1c.6 0 1.1-.4 1.1-.4l-.4-1 .4 1s.9-.2 1.3-.5l-.4-.9.4.8c-.1 0 .5-.1.9-.5zM19 35.7l.5-1.2a11 11 0 004.2 1.6l-.4 1.3c-.4.2-1.1-.2-1.1-.2l.3-1-.3 1c-.5 0-1.1-.4-1.1-.4l.4-1-.4 1s-.8-.1-1.2-.5l.4-.9-.3.8s-.5-.1-1-.5z"/><path fill="none" stroke="#111" stroke-width=".204" d="M15.7 14.7c.6.4 1.3 0 1.3 0s-.6.9-.6 1.6c.3 1.2 2.5 1.1 2.5 1.1 1.7-.2 1.9-1.8 1.9-1.8.3 1.5 2.5 1.3 2.5 1.3 1.8-.2 2.3-2.8 2.3-2.8s-1.2-.9-2.3-1.1c1.2-.1 1.7-1 1.7-1l.6-1.6.6 1.6s.4.9 1.7 1c-1.1.2-2.3 1.1-2.3 1.1s.4 2.6 2.2 2.8c0 0 2.4.2 2.7-1.3 0 0 .2 1.7 1.9 1.9 0 0 1.8 0 2.3-1.3-.1-1.1-.3-1.6-.3-1.6s.8.1 1.4-.3m-18.1-1.1l-.4.7s.5-1.2 1.4-.6c.6 1.1-.5 1.4-.5 1.4.8.3.7 1.4 0 1.6-.6.2-1.3-.2-1.3-.2s.5.7 1.9.7c1 0 1.2-.9 1.2-.9-1.7-.7-.5-2 .2-1.5-.7-1 .5-1.3.5-1.3 1.1 0 .8 1.1.8 1.1.8-.3 1.5 1.2.2 1.5.4.8 1.4.6 1.4.6 1.6-.1 1.5-2 1.5-2s-.6 1.7-1.8 1c-.4-1 .3-1.5.3-1.5-1 .5-1.5-.2-1.5-.9.4-1.2 1.4-.4 1.4-.4s-.6-1 .1-1.4c.7-.4 1.1.1 1.1.1s-.7-.7-.2-1.2c.7-.4 1.1.2 1.1.2s-.9-1 .4-1.9c1.3.9.3 1.9.3 1.9s.5-.7 1.2-.2c.5.6-.2 1.2-.2 1.2s.6-.5 1.2-.1c.7.5 0 1.3 0 1.3s1-.9 1.4.3c.1.8-.4 1.5-1.5 1 0 0 .7.5.3 1.5-1.1.7-1.8-1-1.8-1s0 1.9 1.6 2c0 0 1 .2 1.4-.6-1.4-.3-.6-1.8.2-1.5 0 0-.3-1 .8-1.1 0 0 1.1.3.5 1.3.7-.5 1.9.8.2 1.5 0 0 .3.9 1.3 1 1.3.1 1.8-.7 1.8-.7s-.8.6-1.5.2c-.4-.3-.7-1.3.1-1.6 0 0-1.3-.4-.5-1.6.9-.2 1.4.9 1.4.9m-15.8 8.4c.4-.1.5-.3.5.3-1 2.2-1.1 3.5-1.1 3.5s-.3 1.7 1 2.5c1.5 1 1.5 1.4 1.2 1.4.2.7-.3.3-.3.3-.7-.8-.9-1-1.2-1.1 0 .6 0 1 .3 1.6.2.3 0 .7 0 .7s-1.2.8-1.1 2.2a4.2 4.2 0 002.1 3.5c1.1 1.4 4.1 1.8 4.1 1.8s-1.8.8-3.9-.6c-.6-.4-1.8-1.2-2.7-2.8-.7-2.1-.2-3.4.5-4.4.2 0 0-1.8 0-1.8s-1.9-3.6.6-7.1z"/><path fill="none" stroke="#111" stroke-width=".204" d="M25.7 14c.4 0 .8-.5.8-1.2 0-.6-.3-1.2-.8-1.2s-.8.5-.8 1.2.3 1.2.8 1.2z"/><path fill="#ed1c24" stroke="#ed1c24" stroke-width=".163" d="M24.4 35.2c-1.4 4.3-.3 5.1-.3 5.1.6.6 1.3.5 1.3.5 1.4.1 1.6-1 1.6-1 .4-1.3-.3-4.5-.3-4.5h-.8l-.3 3.5c-.2.3-.1.3-.4.1.2-3.1 0-3.6 0-3.6l-.8-.1zm7.7.3c.4-1.1-.4-.7-.6-1.7-1.3 1.6-4.5 1.6-4.5 1.6s.3 1 4-.7c1-.4 1.1.8 1.1.8zm-13.5 0c-.4-.2 1-1.6 1.2-2.6.1.5.8 2 4.2 2.2-.2.2-.6.9-4.2-.9-.7-.2-.9 1.1-.9 1.1l-.3.2z"/><path fill="#ffe013" stroke="#111" stroke-width=".204" d="M36.1 16c.3-.6.2-1.4-.3-1.5-.3-.1-.7.2-1 .8-.3.6-.2 1.2.2 1.4.3.2.9-.1 1.1-.7zm-21.2 0c-.3-.6-.2-1.2.1-1.4.3-.2.9.1 1.2.7.3.6.2 1.2-.1 1.4-.4.2-.9-.2-1.2-.7z"/><path fill="#fff" d="M35.6 31.4c1.6 1.7 2.7 2.3 2.7 2.3-.8 1.8-1.6 2.8-1.6 2.8s-.7-.1 0-1.4c.2 0 1-1.2 1-1.2s-1.7-.7-2.1-2.5zM19.1 42.2c1.4-1.2 2.6-.2 2.6-.2l.3.3c-1.4-.5-2.9-.1-2.9-.1zm12.2-3.1c.9 1.3 1.8 1.9 1.8 1.9s.6-1.5 1.5-1.4c0 .3-1.1 2-1.1 2l-.5.2s-1.6-.9-2-2c-.1-.5.3-.7.3-.7zm2.9-4.5s.7 2.5 2.2 3.8c-.5.3-1.6-.1-2.3-2.5-.2-1 .1-1.3.1-1.3zm-6.5 6.2l-.1 1.6c.2 1.3.5.9.5.9s.2-1.5.1-2.3c-.1-.5-.5-.2-.5-.2zm-4.6 2.6s.1-.9 3.1-.8c.9 0 .4.3.4.3s-2.4-.1-3.3.7l-.2-.2zm5.6-.7c.3-1 2.3-1.2 2.3-1.2.5.1 0 .5 0 .5s-1.3 0-2 .7c-.4.5-.3 0-.3 0zm-6.1 0s0-.9.2-1.6c.1-.7.5-.7.5-.7l-.1 1.6c-.1 1.4-.6.7-.6.7zm-3.1-3.5s-1 1.4-1 2.7c0 .4.6-.1.6-.1 1-1.9.4-2.6.4-2.6zm-3.4-1.9c-2.1 2-1.6 2.2-1.6 2.2 1.6 0 2.5.8 2.5.8V40s-.6-1.1-1.9-.9c1.1-1.2 1-1.8 1-1.8zM32.9 23c0-.6.5-.5.5-.5 2 .8 1.5 7 1.5 7-.2 1.7-1 2.7-1 2.7-.2.4-.2 3.9-.2 3.9-.5 2.3-5.2 3.1-5.2 3.1-.5-.1 0-.5 0-.5 3.7-1 4.1-2.1 4.1-2.1.8-.5.2-4.3.7-5 1-.8 1.2-2.8 1.2-2.8s-.6.7-.8.4c.4-.6.4-1.5.4-1.5s.5-3.3-1.2-4.7zM24 24.7c.7-.2.5.6.5.6 0 1.9-1.5 3.6-1.5 3.6 1.8.2 2.5.5 2.5.5s-.2.3-2.8 0c-.6.1-1.6.4-1.9 2-.1.6-.2 1.4.8 2 3.8 1.5 7.2.6 7.2.6 1-.2 1.6-.4 2.1-1.1.2-.3.6-2.2-.6-3-1.1-.6-2.8-.4-2.8-.4l.2-.4c.7-.3 1.8 0 1.8 0l-.4-1-.1-.6.4-.1c.7 1.6 2 2.5 2 2.5.3.7.8 1.9.4 3.1-.8 2-5.4 2.1-5.4 2.1s-5.2-.2-6-1.9c-.3-.5-.4-2.9 1.3-3.9.4-.4 2.5-2 2.3-4.6zm4.3.7c1.2-1.7 3.4-1 3.4-1s.4.3.1.6c-1-.4-1.5 0-1.5 0s.1.5-.3.6c0 0-.4.1-.6-.3-.3.1-.9.4-1.1.1zm-9.1-.4c2-1.3 3.9-.1 3.9-.1l-1.2.1s-.1.5-.6.5c-.4 0-.4-.5-.4-.5-.4-.4-1.6.3-1.7 0zm.6-1.6s.6-.5 2.6-.1c1.5.2 2.3-.4 2.3-.4s.3.8-1.4 1c-.6-.2-1.8-.5-2.6 0-1.2-.2-.9-.5-.9-.5zm9.3 2.4s.1.8 1.3.5c.7-.2.9-1.1.9-1.1s.3.1.3.5c-.1.8-1 1.1-1 1.1s-1.8.7-2.4-.8c.3-.3.9-.2.9-.2zm-8.7-.5c.7 2 2.1.1 2.1.1.3-.4.7-.1.7-.1s-.6 1.9-2.5 1.4c-.8-.3-1.1-1.1-1.1-1.1s0-.5.8-.3zm18.5.1c1.2-.1 1.4.4 1.4.4h-.5l-.9-.4zm-1.8.1c1.4.1 1.8.8 1.8.8s-1.3.1-1.7-.4l-.1-.4zm-1.7-.4c1.3.5 1.6 1.2 1.6 1.2l-1-.2s-.8-.4-.6-1zm-.3-.9l1.6.4c1.4.2 2.7-.1 2.7-.1l1.4-.4c.3.3-.8.7-1.4.9 0 0-1.7.3-3.3 0-1-.1-1-.8-1-.8zm-20.7 1.2c-.3-.3 1.3-.9 1.3-.9.4.1.4-.1 0 .4l-.9.4-.4.1zm-1.5-.3c-.1-.2.8-.5.8-.5s.9-.3 1 0c.2-.1-1.9.9-1.8.5zm-.5-.4l-1.9.4c-.2.3.3.3.3.3 2.1-.3 1.6-.7 1.6-.7zm-2.3-.4c.7 0 1-.2 1-.2l1.1-.3s4.2-.5 4.6-.1c.1.2-.3.5-.3.5s-1.8-.2-3.2 0l-1.3.1s-1.9.4-1.9 0zm17.8-1.4c.4.3 1.2.4 1.2.4l2.5.1.8.2-.3.2s-2.3.2-3.5 0l-.7-.2s-.6-.4 0-.7zm.2 9.9c-.5-1.1.6-1.8.6-1.8.6-.4 1.3-.1 1.3-.1.9.5.2 1.4.2 1.4-.6.7-.8 0-.8 0s.6-.1.3-.6c-.3-.4-.7-.1-.7-.1s-.5.3-.3.9c0 .5-.6.3-.6.3zm-6.3-1.5c-.2-.3.3-.5.3-.5.9-.1 1.6.8 1.6.8.5.8-.4 1.4-.7 1.4-1-.1-.5-1-.5-1 .2.5.5.4.5.4.6-.5-.3-1.2-1.2-1.1z"/><path fill="#fff" stroke="#111" stroke-width=".217" d="M71.2 50s-.2 1.7 1.3 2.9c2.6 1.6 7.5 2.9 8.6 4 3.9 2.8 2.4 7.8 2.4 7.8-1.1 2.5-3.2 2.9-3.2 2.9l-2.5-.3c.2-.1.2-.3.2-.3s0-.7-.6-.9c.7-1.2 1-3.5 1-3.5.9 0 1.1-1.2 1.1-1.2s.2-.8-.5-1.2c1.3-1.1 1.3-1.8 1.3-1.8s.2-.8-.5-1c-.4-.1-.9-.2-.7 1.1-.2 0 0-1-.6-.9-1.5.3-.4 1.4-.6 1.5 0 0 0-.8-.8-.7-.7.1-.6.6-.6.6s-3.9-1.8-5.6-3.3c-2.8-2.9.3-5.7.3-5.7zm-4.5 0s-.2 2.1-1.3 2.9c-2 1.2-7.5 2.9-8.6 4-4 3.2-2.2 8-2.2 8 1 2.9 3.2 2.9 3.2 2.9l2.3-.1-.3-.6s-.2-.5.6-1c-.7-1.2-1-3.5-1-3.5-1.1-.3-1.2-1.1-1.2-1.1s-.3-.8.5-1.2c-1.4-1-1.3-1.9-1.3-1.9s-.2-1.3 1.1-1.1c1.1.3-.1 1.3.2 1.4.5-1.3 1-.9 1-.8.9.4-.3 1.4 0 1.6.9-2 1.5-.3 1.5-.3s3.9-1.8 5.6-3.2c3-3.2-.1-6-.1-6z"/><path fill="#111" d="M68.9 66.4c-5.5.2-7.6.9-8.5 1.2-1-.2-3.2.3-3.2.3s-1.8.2-2.5 1.1c-2.2-.5-2.2.2-2.2.2.3 4.3 3.3 4.4 3.3 4.4 2.5.5 4.7-.3 4.7-.3l.7 3.6-.9 2.3.2 2.1-3.7 4.3a7 7 0 015.4 4.2c2.3-2.2 4.6.3 4.6.3 2.6-1.9 5.1.2 5.1.2 1.6-2.8 5.4-1.4 5.4-1.4.3-3.8 3.7-3.8 3.7-3.8-.7-3.6 2.4-5.3 2.4-5.3s-4-1.7-4.6-6.2c4.9 1.3 6.4-1.7 6.4-1.7.6-.7.7-3.3.7-3.3-1.5.8-2.7.2-2.7.2-2.3-1.5-5.5-1.3-5.5-1.3s-6.1-1.2-8.8-1.1z"/><path fill="none" stroke="#111" stroke-width=".081" d="M68.9 66.4c-5.5.2-7.6.9-8.5 1.2-1-.2-3.2.3-3.2.3s-1.8.2-2.5 1.1c-2.2-.5-2.2.2-2.2.2.3 4.3 3.3 4.4 3.3 4.4 2.5.5 4.7-.3 4.7-.3l.7 3.6-.9 2.3.2 2.1-3.7 4.3a7 7 0 015.4 4.2c2.3-2.2 4.6.3 4.6.3 2.6-1.9 5.1.2 5.1.2 1.6-2.8 5.4-1.4 5.4-1.4.3-3.8 3.7-3.8 3.7-3.8-.7-3.6 2.4-5.3 2.4-5.3s-4-1.7-4.6-6.2c4.9 1.3 6.4-1.7 6.4-1.7.6-.7.7-3.3.7-3.3-1.5.8-2.7.2-2.7.2-2.3-1.5-5.5-1.3-5.5-1.3s-6.1-1.2-8.8-1.1z"/><path fill="none" stroke="#111" stroke-width=".204" d="M59.9 67c8-2.6 18.2-.2 18.2-.2m-18.4-3c9.5-2.5 18.5.1 18.5.1m-18.3.6c9.5-2.5 18.1.2 18.1.2M60.4 66c8.5-2 17.1 0 17.1 0"/><path fill="#fff" d="M61.3 68.2c.4-.1.5-.3.5.3-1 2.2-1.1 3.5-1.1 3.5s-.3 1.7 1 2.5c1.5 1 1.5 1.4 1.2 1.4.2.7-.3.3-.3.3-.7-.8-.9-1-1.2-1.1 0 .6 0 1 .3 1.6.2.3 0 .7 0 .7s-1.2.8-1.1 2.2a4.2 4.2 0 002.1 3.5c1.1 1.4 4.1 1.8 4.1 1.8s-1.8.8-3.9-.6c-.6-.4-1.8-1.2-2.7-2.8-.7-2.3-.2-3.5.5-4.5.2 0 0-1.8 0-1.8s-1.8-3.6.6-7z"/><path fill="#fff" stroke="#111" stroke-width=".102" d="M75.2 81.5l-.5-1a10.2 10.2 0 01-4.2 1.5l.4 1.3c.4.1 1.1-.2 1.1-.2l-.3-1 .3 1c.6 0 1.1-.4 1.1-.4l-.4-1 .4 1s.9-.2 1.3-.5l-.4-.9.4.8c-.1 0 .4-.1.8-.6zm-12.7-.1l.5-1.2a11 11 0 004.2 1.6l-.4 1.3c-.4.2-1.1-.2-1.1-.2l.3-1-.3 1c-.5 0-1.1-.4-1.1-.4l.4-1-.4 1s-.8-.1-1.2-.5l.4-.9-.4.8c.1 0-.5-.1-.9-.5z"/><path fill="none" stroke="#111" stroke-width=".204" d="M59.2 60.5c.6.4 1.3 0 1.3 0s-.6.9-.6 1.6c.3 1.2 2.5 1.1 2.5 1.1 1.7-.2 1.9-1.8 1.9-1.8.3 1.5 2.5 1.3 2.5 1.3 1.8-.2 2.3-2.8 2.3-2.8s-1.1-.9-2.2-1.1c1.2-.1 1.7-1 1.7-1l.6-1.6.6 1.6s.4.9 1.7 1c-1.1.2-2.3 1.1-2.3 1.1s.4 2.6 2.2 2.8c0 0 2.4.2 2.7-1.3 0 0 .2 1.7 1.9 1.9 0 0 1.8 0 2.3-1.3-.1-1.1-.3-1.6-.3-1.6s.8.1 1.4-.3M61.2 59l-.4.7s.5-1.2 1.4-.6c.6 1.1-.5 1.4-.5 1.4.8.3.7 1.4 0 1.6-.6.2-1.3-.2-1.3-.2s.5.7 1.9.7c1 0 1.2-.9 1.2-.9-1.7-.7-.5-2 .2-1.5-.7-1 .5-1.3.5-1.3 1.1 0 .8 1.1.8 1.1.8-.3 1.5 1.2.2 1.5.4.8 1.4.6 1.4.6 1.6-.1 1.5-2 1.5-2s-.6 1.7-1.8 1c-.4-1 .3-1.5.3-1.5-1 .5-1.5-.2-1.5-.9.4-1.2 1.4-.4 1.4-.4s-.6-1 .1-1.4c.7-.4 1.1.1 1.1.1s-.7-.7-.2-1.2c.7-.4 1.1.2 1.1.2s-.9-1 .4-1.9c1.3.9.3 1.9.3 1.9s.3-.6 1.1-.1c.5.6-.2 1.2-.2 1.2s.6-.5 1.2-.1c.7.5 0 1.3 0 1.3s1-.9 1.4.3c.1.8-.4 1.5-1.5 1 0 0 .7.5.3 1.5-1.1.7-1.8-1-1.8-1s0 1.9 1.6 2c0 0 1 .2 1.4-.6-1.4-.3-.6-1.8.2-1.5 0 0-.3-1 .8-1.1 0 0 1.1.3.5 1.3.7-.5 1.9.8.2 1.5 0 0 .3.9 1.3 1 1.3.1 1.8-.7 1.8-.7s-.8.6-1.5.2c-.4-.3-.7-1.2.2-1.6 0 0-1.3-.4-.5-1.6.9-.2 1.4.9 1.4.9m-15.9 8.3c.4-.1.5-.3.5.3-1 2.2-1.1 3.5-1.1 3.5s-.3 1.7 1 2.5c1.5 1 1.5 1.4 1.2 1.4.2.7-.3.3-.3.3-.7-.8-.9-1-1.2-1.1 0 .6 0 1 .3 1.6.2.3 0 .7 0 .7s-1.2.8-1.1 2.2a4.2 4.2 0 002.1 3.5c1.1 1.4 4.1 1.8 4.1 1.8s-1.8.8-3.9-.6c-.6-.4-1.8-1.2-2.7-2.8-.7-2.3-.2-3.5.5-4.5.2 0 0-1.8 0-1.8s-1.8-3.6.6-7z"/><path fill="#ed1c24" stroke="#ed1c24" stroke-width=".163" d="M67.8 80.9c-1.4 4.3-.3 5.1-.3 5.1.6.6 1.3.5 1.3.5 1.4.1 1.6-1 1.6-1 .4-1.3-.3-4.5-.3-4.5h-.8l-.3 3.5c-.2.3-.1.3-.4.1.2-3.1 0-3.6 0-3.6s-.2.1-.8-.1zm7.7.3c.4-1.1-.4-.7-.6-1.7-1.3 1.6-4.5 1.6-4.5 1.6s.3 1 4-.7c1-.4 1.1.8 1.1.8zm-13.5.1c-.4-.2 1-1.6 1.2-2.6.1.5.8 2 4.2 2.2-.2.2-.6.9-4.2-.9-.7-.2-.9 1.1-.9 1.1l-.3.2z"/><path fill="#ffe013" stroke="#111" stroke-width=".204" d="M79.6 61.7c.3-.6.2-1.4-.3-1.5-.3-.1-.7.2-1 .8-.3.6-.2 1.2.2 1.4.3.2.8-.1 1.1-.7zm-21.2 0c-.3-.6-.2-1.2.1-1.4.3-.2.9.1 1.2.7.3.6.2 1.2-.1 1.4-.4.2-1-.1-1.2-.7z"/><path fill="#fff" d="M79 77.2c1.6 1.7 2.7 2.3 2.7 2.3-.8 1.8-1.6 2.8-1.6 2.8s-.7-.1 0-1.4c.2 0 1-1.2 1-1.2s-1.7-.8-2.1-2.5zM62.5 88c1.4-1.2 2.6-.2 2.6-.2l.3.3c-1.3-.5-2.9-.1-2.9-.1zm12.2-3.2c.9 1.3 1.8 1.9 1.8 1.9s.6-1.5 1.5-1.4c0 .3-1.1 2-1.1 2l-.5.2s-1.6-.9-2-2c-.1-.4.3-.7.3-.7zm3-4.4s.7 2.5 2.2 3.8c-.5.3-1.6-.1-2.3-2.5-.2-1.1.1-1.3.1-1.3zm-6.5 6.1l-.1 1.6c.2 1.3.5.9.5.9s.2-1.5.1-2.3c-.2-.5-.5-.2-.5-.2zm-4.6 2.6s.1-.9 3.1-.8c.9 0 .4.3.4.3s-2.4-.1-3.3.7l-.2-.2zm5.6-.6c.3-1 2.3-1.2 2.3-1.2.5.1 0 .5 0 .5s-1.3 0-2 .7c-.5.4-.3 0-.3 0zm-6.2-.1s0-.9.2-1.6c.1-.7.5-.7.5-.7l-.1 1.7c0 1.3-.6.6-.6.6zm-3.1-3.5s-1 1.4-1 2.7c0 .4.6-.1.6-.1 1.1-1.9.4-2.6.4-2.6zm-3.4-1.8c-2.1 2-1.6 2.2-1.6 2.2 1.6 0 2.5.8 2.5.8v-.4s-.6-1.1-1.9-.9c1.1-1.2 1-1.7 1-1.7zm16.8-14.4c0-.6.5-.5.5-.5 2 .8 1.5 7 1.5 7-.2 1.7-1 2.7-1 2.7-.3.4-.3 3.8-.3 3.8-.5 2.3-5.2 3.1-5.2 3.1-.5-.1 0-.5 0-.5 3.7-1 4.1-2.1 4.1-2.1.8-.5.2-4.3.7-5 1-.8 1.2-2.8 1.2-2.8s-.5.8-.8.6c.4-.6.4-1.5.4-1.5s.7-3.3-1.1-4.8zm-8.8 1.7c.6-.2.5.6.5.6 0 1.9-1.5 3.6-1.5 3.6 1.8.2 2.5.5 2.5.5s-.2.3-2.8 0c-.6.1-1.6.4-1.9 2-.1.6-.2 1.4.8 2 3.8 1.5 7.2.6 7.2.6 1-.2 1.6-.4 2.1-1.1.2-.3.6-2.2-.6-3-1.1-.6-2.8-.4-2.8-.4l.2-.4c.7-.3 1.8 0 1.8 0l-.4-1-.3-.7.4-.1c.7 1.6 2 2.5 2 2.5.3.7.8 1.9.4 3.1-.8 2-5.4 2.1-5.4 2.1s-5.2-.2-6-1.9c-.3-.5-.4-2.9 1.3-3.9.5-.3 2.7-1.9 2.5-4.5zm4.2.7c1.2-1.7 3.4-1 3.4-1s.4.3.1.6c-1-.4-1.5 0-1.5 0s.1.5-.3.6c0 0-.4.1-.6-.3-.2.1-.9.4-1.1.1zm-9.1-.4c2-1.3 3.9-.1 3.9-.1l-1.2.2s-.1.5-.6.5c-.4 0-.4-.5-.4-.5-.4-.5-1.5.2-1.7-.1zm.6-1.6s.6-.5 2.6-.1c1.5.2 2.3-.4 2.3-.4s.3.8-1.4 1c-.6-.2-1.8-.5-2.6 0-1.2-.2-.9-.5-.9-.5zm9.3 2.4s.1.8 1.3.5c.7-.2.9-1.1.9-1.1s.3.1.3.5c-.1.8-1 1.1-1 1.1s-1.8.7-2.4-.8c.4-.3.9-.2.9-.2zm-8.6-.4c.7 2 2.1.1 2.1.1.3-.4.7-.1.7-.1s-.6 1.9-2.5 1.4c-.8-.3-1.1-1.1-1.1-1.1s-.1-.6.8-.3zm18.4 0c1.2-.1 1.4.4 1.4.4h-.5l-.9-.4zm-1.8.1c1.4.1 1.8.8 1.8.8s-1.3.1-1.7-.4l-.1-.4zm-1.7-.3c1.3.5 1.6 1.2 1.6 1.2l-1-.2s-.8-.5-.6-1zm-.2-.9l1.6.4c1.4.2 2.7-.1 2.7-.1l1.4-.4c.3.3-.8.7-1.4.9 0 0-1.7.3-3.3 0-1-.2-1-.8-1-.8zm-20.8 1.2c-.3-.3 1.3-.9 1.3-.9.4.1.4-.1 0 .4l-.9.4-.4.1zm-1.5-.3c-.1-.2.8-.5.8-.5s.9-.3 1 0c.2-.2-1.9.9-1.8.5zm-.4-.5l-1.9.4c-.2.3.3.3.3.3 2-.2 1.6-.7 1.6-.7zm-2.3-.3c.7 0 1-.2 1-.2l1.1-.3s4.2-.5 4.6-.1c.1.2-.3.5-.3.5s-1.8-.2-3.2 0l-1.3.1s-1.9.4-1.9 0zm17.7-1.4c.4.3 1.2.4 1.2.4l2.5.1.8.2-.3.2s-2.3.2-3.5 0l-.7-.2s-.6-.5 0-.7zm.2 9.9c-.5-1.1.6-1.8.6-1.8.6-.4 1.3-.1 1.3-.1.9.5.2 1.4.2 1.4-.6.7-.8 0-.8 0s.6-.1.3-.6c-.3-.4-.7-.1-.7-.1s-.5.3-.3.9c0 .4-.6.3-.6.3zM65.2 77c-.2-.3.3-.5.3-.5.9-.1 1.6.8 1.6.8.5.8-.4 1.4-.7 1.4-1-.1-.5-1-.5-1 .2.5.5.4.5.4.6-.4-.3-1.2-1.2-1.1z"/><path fill="#fff" d="M49.7.5h45.7v46.2H4v16.1c.2 15.8 7.2 23.2 19.2 30.7 9 5.6 18.8 5.9 26.5 5.8V.5z"/><path fill="#ffe013" stroke="#111" stroke-width=".2" d="M38.1 77.5l.6-.4c.3-.2.8 0 1 .4.2.4-.1 1.1-.1 1.1l-.2-.7c-.2-.1-.5.2-.5.2l-.5-.3-.3-.3zm.9 3.9s.5 0 .6.4l-.2.7s.5-.2.6-.7c.1-.5-.3-.8-.3-.8l-.5.2-.2.2zm-2.2 1.4s.4.3.2.6c-.3.4-.3.7-.3.7l.8-.8c.2-.5.1-.8.1-.8l-.3-.3-.3.2-.2.4zm-4.5-3.6s-.7 0-.8.4c-.3.9.3 1.2.3 1.2s0-.8.2-.9c.2-.1.4 0 .4 0s.3.1.4 0v-.3l-.5-.4zm-8.4.8s.7.2.6 1c-.1.7-.9.8-.9.8s.5-.4.4-.8c-.1-.4-.4-.3-.4-.3l.3-.7zm-6 2.7s-.3.8.4 1.2c.6.3.9 0 .9 0s-.7-.3-.6-.6l.2-.5s-.1-.2-.4-.2l-.5.1zm-1.7-2.5s-1.1.2-1.1 1.1c0 .9 1 .9 1 .9s-.5-.7-.2-.9c.4-.3.6-.1.6-.1v-.5l-.3-.5zm1.7-2.9s-1-.4-1.5.3c-.5.6 0 1.2 0 1.2s.1-.8.6-.9c.5 0 .4.4.4.4s.4-.2.5-.5v-.5zm8.2-25.7l-.5.2-.3.2h-.9c-.4 0-.9.2-.9 1 .1.7.6 1.6.6 1.6s.1-.5.3-.6c.2-.2.5 0 .6.3l.4.6h1l.6.5.4.4c0 .1.2.3-.6.3-.9 0-1.4.2-1.5.5v.5s.1-.4.8-.5c.6-.1.9 0 1.3.2l.6.2-.4-1.4-.5-1.1c-.1-.1-.7-.3-.7-.7l.2-.9c-.1-.2-.5-.5-.5-.7v-.6z"/><path fill="#ed1c24" d="M27.2 54.5c-.3-.3-.7-.3-.7-.9 0-.5.2-.7.1-.8-.1-.1-.6-.6-.5-1 .1-.4.4-.7.7-.7l.9.6c.2.2.4.1.5 0 .2-.1.5 0 .7.2.2.2.7 1 1.6.9.9-.1 1.3-.3 1.3-.7l-.2-.8s.8.5.7.8v.8l-.2.3-.2.3c0 .1-.1.4 0 .4s.2.1.5-.2l.4-.4s.1.7-.1.9l-.6.3s.2.5-.2.6c-.4.2-.6 0-.6 0s.1.6-.1.6-.3-.3-.3-.3l-.3.3.3.7c.1.2.2.7-.1 1.4-.4.7-.8.8-.6 1.4.1.6.4.6.6.6.2-.1 1-.6 1.8-.3s.8.7.9 1.1c.1.4-.2 1.1-.7 1.3-.5.3-1.4.2-1.4-.2 0-.5.5-.6.5-.6s-.2.5 0 .6c.2.1.6.1.7-.1.1-.1-.1-.3-.2-.3s-.2-.2.1-.3c.3-.1.5-.4.4-.7-.1-.3-.5-.5-.9-.5s-.6.3-.7.7c-.1.4-.4.8-.6.9-.2.1-.4.1-.3-.2.1-.5-.2-.7-.3-.7v.5l-.3.5s.6.8.6 1.3l.1.5 1.2-.5c.5 0 .7-.2.8-.3.1-.1.6 0 .8.2.3.2.8.4 1.1.2.3-.2.3-.5.3-.9s.4-.5.7-.6c.3-.1.4-.3.3-.3-.1-.1-.5-.4-.3-1.2l.6-1.4c.3-.4.4-.8.1-1.2-.3-.4-.9-.7-1.3-.9-.3-.2-.7-.8-.4-1.6.3-.8.6-1.3 1.3-1.5.6-.2 1-.2 1.3.1.3.2 1.1.8 1.7.9.5 0 1.3-.4 2.6-1.2 1.2-.8 2.3-.4 2.3.4 0 .7-.7.6-1 .5-.2-.1-.1-.2-.1-.2s.6.1.6-.2c0-.3-.2-.4-.4-.4-.3 0-.5 0-.7.2l-.8.5-1.1.6c-.2 0-.1.4.1.6.2.2 1.1 1.1 2.7 1.2 1.6.1 2.8-.6 2.8-.6s.2 1.4-1.2 1.7a6 6 0 01-3.2-.3l-.9-.1.6.5 1.2.8c.1.1 0 .2-.7-.1l-1.4-.6c-.2-.1.3.5.6.9a10.2 10.2 0 004.8 2.5s0 .5-.5.7c-.5.2-1.3.1-2.1-.2-1.4-.5-3.1-1.7-3.2-1.8-.1 0 .2.4.7.8a9.4 9.4 0 002.7 1.9l-1-.1-1.8-1c-.4-.3-.6-.5-.3 0s1.3 1.5 2 1.8l1.6.7c0 .1-.3.6-1.5.5a7.5 7.5 0 01-2.8-.9l-.4-.4s-.1.5.3.9l1.5 1.1a6 6 0 011.5 1.8c.1.4.1.4-.3.2l-1.4-1.1-1.5-1.3c-.2-.1-.1.5.1.9.1.4.6 1.6.9 2 .3.4 1.7 2.1 2.3 2.6.6.5.7 1 .8 1.2.1.3-.3.3-.9 0-.6-.3-1.7-.9-2.5-1.8A22 22 0 0138 67c-.1-.2-.2.5 0 1.2.2.6 1.4 2.9 2.3 4l1.4 1.9c.1.3-.1.6-.7 0l-2.2-2.2-2.1-2.7.3.9c.2.4 1.2 2.3 1.9 3.3a33.3 33.3 0 005.1 5.2c.2.1.3.5-.4.5a4 4 0 01-2.8-.9c-.8-.7-3-3.1-3.9-4.4-.9-1.3-2-3.2-2.4-4.1l-.6-1.5.3 2.3c.2.6.7 1.9 1.2 2.6l1.4 1.9c.2.2 0 .8-.5.6-.5-.2-1.5-1-1.8-1.4-.4-.4-2.2-3-2.6-4l-.6-1.4c-.1-.1-.4.1-.2.9l.8 1.9c.2.4.1.8-.2.4-.4-.4-.9-1.2-1.2-2.1-.2-.5-.1-.7-.1-.9 0-.1-.3.1-.4.6-.1.5 0 .8.3 1.3l1.9 2.4c.4.4.8.5 1 .4.2-.1.3.1.1.2l-.4.2s.3.7.8 1c.5.3.7.3 1 .3.3 0 .7 0 .4.4-.3.4-.7.5-1.2.3l-.8-.3 1.6 2c.5.6 1.1 1.4 1.5 1.4l1-.2c.2 0 .1-.3 0-.4-.1-.1-.1-.7.2-.9.3-.2.5 0 .6.1l.6.5c.2.2.3.7.1.9-.3.2-.5 0-.8.2l-.6.5c-.1 0 .4-.1.6.1.2.1.4.3.5.2l.5.1.4.4c.1 0 .4.3.2.4-.2.1-.6.2-.6.4s-.2.3-.4.2c-.2-.1-.7-.1-.9-.3-.2-.2-.3-.3-.5-.3l-.3-.1.3.5.4.5c.1.1.2.4.1.6l-.3.3c-.1-.1-.1-.3-.3-.3-.2.1-.3.2-.3.4s-.3.3-.3.1c-.1-.2-.5-1.2-.5-1.7s0-.5-.2-.5-.4.2-.6.1c-.2-.1-.3-.4-.3-.4-.1 0-.1.3-.4.2-.3-.1-.6-.2-.8-.1-.2.1-.4.6-.9.5-.4-.1-.5-.3-.6-.5-.1-.2 0-.2 0-.2s.4.2.5 0c.1-.2-.1-.4-.3-.5l-.3-.2s.4-.3.9-.2l1.1.3c.3.1.3-.2.1-.4-.2-.2-.6-.8-1.2-1.1l-1.3-.8c-.3-.2-.3-.5-.3-.5s0 .3-.2.5-.6.2-.7.1l.1-.7s.4-.2.3-.6l-.6-.8c-.4-.4-1.1-.7-1.2-.8l-.4-.4s-.2.3 0 .9c.2.5.2.7.8 1.1.6.4 1.1.8 1.3 1.2.2.4.1.8-.2.9h-.9c.2-.1.4-.1.4-.3 0-.3-.2-.2-.4-.4l-.3-.1c0 .1-.1.3-.3.3-.3 0-.5-.5-.5-.5s.1 1.4.4 2.1c.4.6.7.5.9.3.1-.2 0-.3 0-.4l-.3-.3s.9-.2 1 .5c.1.7-.2.8-.3.9h-.5s.6.6 0 .9c-.6.3-.9-.4-.9-.4s0 .9.4 1.2c.3.2.7 0 .9-.2.3-.2.4-.5.8-.4.7.2.2 1.2.2 1.2s.1-.4-.2-.6c-.2-.1-.4.2-.4.6v.6s1.1.5 1.7.3c.6-.2 1-.9 1-1.2 0-.4-.2-.6-.4-.6s-.5.1-.4.3l.2.6s-.7 0-.8-.4c-.1-.4.1-.7.6-1.1.3-.2.7-.2 1.1 0 .2.1.3.5.3.5s.3-.5.8-.3.5.9.5 1.1l-.1.5s.6-.5.9 0c.3.5-.6 1.2-.6 1.2s1.1-.5 1.4.8c.2 1-.4 1.7-1 1.8-.6.1-1.2-.2-1-.7.2-.6.9-.5.9-.5s-.7.5-.2.7c.4.2.9-.4.6-1-.2-.6-.6-.7-1-.7-.4.1-.6.4-.9.4l-.6-.1s.4.5.1.8c-.3.3-.6.1-.6.1s-.2.6-.6.9c-.5.3-.9.2-.9.2s.6-.4.6-1-.2-.6-.5-.9c-.3-.3-.4-.6-.3-.7l.1-.2s-.6 0-1.2-.3-.9-.7-1.1-1.1l-.3-.8s-.3 1.8.1 2.4c.3.6 1.2.8 1.5 1 .3.2.7.8.4 1.5-.3.7-1.1 1.1-1.5.9-.4-.2-.2-.8-.2-.8s.3.4.7.1c.2-.2.2-.4 0-.5l-.5-.2-.3.3-.2.1-.1 1.3c-.1.5-.4 1.2-1.2 1.3-.9.2-1.1-.2-1.1-.6 0-.4.2-.6.2-.6s0 .6.4.7c.3.1.7-.1.8-.2.1-.2-.1-.5-.1-.6v-.3s-.6.1-.8-.2c-.3-.4-.2-1.1-.2-1.1l-.8.2h-.8c-.2.1-.2.4.2.5l.7.1s-.5.4-1 .3c-.4-.1-.5-.3-.6-.6 0-.3.2-.7.8-1 .6-.3 1-.3 1.5-.8.6-.5.7-.6.9-1l.5-1c.3-1.3.1-1.5.1-1.5s-.3.8-.8 1.4c-.5.6-1.4.9-1.7 1l-.3.1s0 .5-.2.8c-.2.4-.7.6-1.2.7-.5.2-1.1.5-1 1.1.1.5.5.3.6.2.2-.2.1-.5.1-.5s.2.1.3.5c0 .5-.2 1.1-1.2 1.1s-1.1-1-1.1-1-.6 0-.4-.7c.2-.6.9-.9.9-.9l-1-.4c-.3-.1-1 0-1 .3-.1.3.1.6.3.7l.3.2s-.9.2-1.2-.4c-.3-.5 0-1.1.4-1.4l.4-.2s-.2-.4.3-.7c.6-.3 1.7-.2 1.7-.2s-.5-.3-.5-.8.5-1 .8-1.2c.3-.2.7-.3 1 .3.3.5-.3.7-.3.7s.1-.2-.1-.4-.6.1-.5.5c0 .4.3.6 1 .8.6.1 1.5.1 2.4-.5.7-.4 1.2-1.2 1.3-1.5l.1-.7-.7.1c-.2.1-.3.3-.3.5v.5l.3.1-1.4.1c-.6 0-.8-.5-.8-1.1 0-.6.4-1.2.9-1.4l.9-.1c.2-.2.3-.5.4-.9v-.6l-.5.3c-.2.2-.1.5-.1.5s-.2-.1-.2-.4c0-.3.2-.5.2-.5s-.6.4-1 .1c-.3-.1-.3-.3-.3-.6l.2-.4s.2.7.7.5c.5-.1.7-.4.8-.9v-2.3s-.1.3-.4.5c-.3.2-.5.2-.6.4-.1.2.1.5.3.5h.3s-.2.5-.6.5c-.4 0-.5-.5-.5-.5s-.2.6-.5.8c-.3.2-.4.2-.5.5-.1.2-.1.7.2.9l.3.3s-.9 0-1.1-.4l-.3-.6-.9 1.1-.9 1.1h.9c.4-.1.8-.2 1.1.1.3.2.3.7.2.9l-.3.5c-.1 0-1.1 0-1.5-.2l-.8-.4-.3.3c0 .2-.4.6-.6.8-.2.2-.5.4-.5.6 0 .2 0 .6-.2.8-.2.2-.5.2-.6 0-.1-.2-.2-.1-.4-.1s-.5.2-.6-.1c-.1-.3-.2-.4 0-.6l1-.9.5-.4-1.1.2-.7.3c-.1.1-.5.5-.8.4-.3-.1-.3-.4-.2-.7l-.2-.4c-.1-.2-.2-.3 0-.5.1-.3.6-.2.9-.2h1.6c.4 0 .5-.1.2-.2l-1.3-.5c-.3-.2-.3-.5-.2-.6.1-.1.2 0 .3-.3l.1-.7c-.1-.1.1-.2.3-.1l.5.3.2-.1c.2 0 .3.3.3.6s0 .7.4.7c.3 0 .7 0 .9-.2.2-.1.7-.7.8-1.1.1-.4.3-.8.5-.9l.3-.2s-.5.2-.8 0c-.3-.2-.3-.3-.3-.6l.1-.5s.3.4.5.3c.3 0 .4-.1.6-.3l.2-.3s-.4.1-.4-.1.2-.4.5-.5c.3-.1.4-.3.3-.4-.1-.1-.3-.4 0-.8.2-.4.8-.8 1.3-1.3.5-.4 1.3-1 1.3-1.5s-.6-1.5-.6-1.5-.1 1.3-.5 1.9c-.5.7-1.2 1.4-1.3 1.3l.1-.2.9-1.8a9 9 0 00.4-1.6v-.3s.1.9-2 3.7c-2.1 2.8-3.1 3.3-3.4 3.5l-1.3.8c-.2.1-.5-.1-.1-.6l1.7-2.2 2.2-3.4c.3-.6.3-1 .3-1.2 0-.2-.2.2-.6.9-.4.8-1.8 2.8-2.6 3.8s-1.9 2.3-3.6 3.3c-1.7 1.1-3.4 1.8-4.2 1.6-.8-.1-.9-.6 0-.9.9-.3 1.2-.5 1.6-.8.4-.3 3.5-2.9 4.4-4.1a7.9 7.9 0 001.4-3l-.5.6c-.3.5-1.2 1.8-2.4 2.7l-3 2.4c-.3.2-1.2.4-.1-.7l3.5-3.8c1-1.2 1.4-2 1.6-2.4.2-.4.1-.7.1-.7L16 69.4c-.9.8-1.9 1.8-2.5 2.1-.6.3-1 .1-1.2 0-.2-.2.3-.5.6-.6l1.2-1.2a14 14 0 002.1-3.1c.3-.9.2-1.9.2-1.9s-.4.9-1.5 1.7c-1.1.8-1.6.9-2 .9-.4 0-.1-.2.4-.5a6 6 0 001.7-1.2c.7-.6 1.2-1.4 1.2-1.4v-.4s-.8.7-1.9.7c-1.1 0-1.6-.2-1.8-.4-.2-.2-.2-.5.3-.5s1.3-.2 1.9-.6c.5-.4.7-.7.8-1.1l.1-.6s-.8.8-1.7 1.3c-.9.5-2.2.5-2.6.5-.4 0-1-.1.4-.4 1.4-.3 2.1-.8 2.6-1l1.5-1.6c-.1.1-.8.7-1.3.9l-2.5.6c-.9.1-1.5 0-1.8-.3-.3-.3-.4-.6.3-.7.7 0 1.5-.2 2-.5a12.5 12.5 0 002.2-1.6l-1.2.4-2.1.4c-.5 0-.4-.2.2-.4.7-.2 1.6-.4 2.2-.7l1.3-.8s-2.2.8-3.5.5c-1.3-.3-1.7-1-1.7-1l1.8.1c.6 0 1.3 0 2.1-.3.9-.3 1.1-.7 1.2-1l.2-.5-1.3-.8-1.1-.8c-.3-.1-.8.2-.7.6.1.5.6.3.7.2.1-.1.1-.3.2-.2.1 0 .2.5-.1.7a.9.9 0 01-1.3-.6c-.1-.5.1-1.1.6-1.4.6-.3 1.4 0 1.8.3.5.4.9.9 1.5 1 .6.1 1.1.1 1.7-.2.6-.3 1.6-.6 2.3-.2.7.4.9 1.1.9 1.7 0 .6-.7 1.2-1.1 1.5-.4.3-1.2.9-1 1.3.2.4.7.3 1 .6.3.2.5 1.3.4 1.5 0 .2-.2.2-.3.2-.1 0-.2.1-.2.4s.1.5.3.4c.2-.1.3-.3.6-.1.3.2.5.6.7 1.1l.3 1.1c.1.1.4-.3.6-.5.3-.3.7-.5 1.2-.5l.8.3.2.3.5-.7.7-.6v-.6l.6-.9s-.8.6-1.3.4l-.4-.3s-.6.2-.9-.1c-.3-.2-.2-.5-.2-.5s-.6.2-.5.8c.1.5.5.5.7.4l.4-.2s.1.4-.2.6c-.4.2-1 .3-1.2-.3-.2-.5-.1-1.1.3-1.5.4-.4.8-.5 1.4-.4.6 0 .7.3 1.3.3.6 0 .8-.2 1-.3l.3-.3s-.5-.3-.4-.8c.1-.6.6-.6.6-.6s-.1.7.5.7.8-.3.8-.6c.1-.3-.2-.9-.4-1.4l-.2-.5s.1.2-.2.2h-.9s-.2-.4-.6-.5c-.4-.1-.8-.1-1.5.1s-1.5.3-2.2 0c-1.1-.6-1-1.6-.9-2 .3-.6.8-.6 1.2-.6.5.1.6.6.6.6s-.4-.3-.7-.1c-.3.2-.3.7.1 1.1.4.4.8.5 1.7.5h1.9c.7.1 1 .3 1.2.4l.5.4-.4-1.1c.2-.1.1-.2.1-.2z"/><path fill="#ffe013" stroke="#111" stroke-width=".1" d="M23.7 66.1s-1.8.1-3.1-.5c-1.3-.7-1.7-1.1-2-1.6-.3-.5-.4-1.2-.4-1.2s1.5.8 1.3-.5c-.2-1.3-1.3-.1-1.3-.1s1-1.7-.4-1.6c-1.4.1-.1 1.6-.1 1.6s-1.7-.9-1.3.6c.5 1.4 1.4 0 1.4 0s.1 1.3 1.3 2.4c1.3 1 2.6 1.2 3.5 1.4h1.2l-.1-.5zm6.2.1s2.4.6 4.1.2c1.3-.3 1.9-1.1 2.2-1.5.3-.4.4-.9.4-.9s-1.4.7-1.2-.5c.2-1.2 1.2-.1 1.2-.1s-.9-1.6.4-1.4c1.3.2 0 1.5 0 1.5s1.7-.8 1.2.6c-.5 1.3-1.3-.1-1.3-.1s-.3 1.2-1.2 1.9c-1.1.9-2.2.9-3.1 1-1.1.1-2.8-.3-2.8-.3l.1-.4z"/><path fill="#fff" d="M26.6 52.8s.9 0 1 .3c.1.3.1.8-.1.9-.2.1-.6 0-.8-.1l-.1-1.1z"/><path fill="none" stroke="#111" stroke-width=".217" d="M39 64.6s-.4-.2-.4-.4v-.3m-9.7 1.7s-.2.9.2 1.3 1 .4 1 .4m-.8-3.7s.6.9 1.1.5c.5-.4.3-.7.3-.7m-5.3.5s-1.6 1.7-.7 3C25.6 68.2 27 68 27 68s-1-.6-.9-1.4c0-.8.3-1.1.3-1.1s.9.6 1.3-.2-.1-1-.3-1.2c-.3-.2-.4-.4-.4-.7 0-.4.6-.5.6-.5m1.3-1.6s-1.4.7-1.4 1.4c.1.9 1 .6 1.1 1.2m1.8 5s.2-.6.1-.9c-.1-.3-.8-1.1-.7-1.8.1-.6.7-1.3.5-1.9M25 69.1s-1.3-1.9-1.3-3.6c0-1.5.7-2.4.7-2.4M23.3 60s.3-.2.8-.2m1.4 2.1l.3.4.5.2s-.5-.7-.3-1.2c.3-.5.8-.3 1-.7m-.4-1.6s.8.7 1.5-.1m4.2-4.2h-.9m.6-1.2s0 .5-1 .4m-5.6-2s0 .7.4.9m-2.3 24.5s-.2-.4.1-1m-4.4 3.4l.4-.1.4-.5.6-.5m16.9 1s-.8.3-1.2-.2m-1.7-.2h.7m-2.8 7s.2-.4-.4-.8m1-.3l-.6-.4m2.3-1.6s-.5 1-1.7 1.2m.5-2.5s.4 1.7-.9 2m-2.4-.5s-.1.7-1.2-.3m-.4 3.6s-.7-.2-.8-1m-2 1.1s.6-.2.7-.9M21 87.2s-.1-.4.1-.7l.4-.4m-2.2-5.5s.3-.2.4-.5l.3-.5m1.7 3.8l.5.3.4.1m-3 .5h.6l1.3-.3c.5-.1.9-.3 1.2-.2l.7-.2M37 80.8l-.3-.6.3.6zm-10.3-28s-.2.9.1 1.2c.3.2.7.2.8 0l.2-.4"/><path fill="none" stroke="#111" stroke-width=".2" stroke-linecap="round" d="M26.9 53.1s-.1.3.1.4c.2.2.3 0 .3 0m-.4-.2l.2.3-.2-.3zm-.3-.6l.6.1c.2 0 .6.3.6.7 0 .4.3.8.5.9"/><path fill="none" stroke="#111" stroke-width=".217" d="M27.2 54.5c-.3-.3-.7-.3-.7-.9 0-.5.2-.7.1-.8-.1-.1-.6-.6-.5-1 .1-.4.4-.7.7-.7l.9.6c.2.2.4.1.5 0 .2-.1.5 0 .7.2.2.2.7 1 1.6.9.9-.1 1.3-.3 1.3-.7l-.2-.8s.8.5.7.8v.8l-.2.3-.2.3c0 .1-.1.4 0 .4s.2.1.5-.2l.4-.4s.1.7-.1.9l-.6.3s.2.5-.2.6c-.4.2-.6 0-.6 0s.1.6-.1.6-.3-.3-.3-.3l-.3.3.3.7c.1.2.2.7-.1 1.4-.4.7-.8.8-.6 1.4.1.6.4.6.6.6.2-.1 1-.6 1.8-.3s.8.7.9 1.1c.1.4-.2 1.1-.7 1.3-.5.3-1.4.2-1.4-.2 0-.5.5-.6.5-.6s-.2.5 0 .6c.2.1.6.1.7-.1.1-.1-.1-.3-.2-.3s-.2-.2.1-.3c.3-.1.5-.4.4-.7-.1-.3-.5-.5-.9-.5s-.6.3-.7.7c-.1.4-.4.8-.6.9-.2.1-.4.1-.3-.2.1-.5-.2-.7-.3-.7v.5l-.3.5s.6.8.6 1.3l.1.5 1.2-.5c.5 0 .7-.2.8-.3.1-.1.6 0 .8.2.3.2.8.4 1.1.2.3-.2.3-.5.3-.9s.4-.5.7-.6c.3-.1.4-.3.3-.3-.1-.1-.5-.4-.3-1.2l.6-1.4c.3-.4.4-.8.1-1.2-.3-.4-.9-.7-1.3-.9-.3-.2-.7-.8-.4-1.6.3-.8.6-1.3 1.3-1.5.6-.2 1-.2 1.3.1.3.2 1.1.8 1.7.9.5 0 1.3-.4 2.6-1.2 1.2-.8 2.3-.4 2.3.4 0 .7-.7.6-1 .5-.2-.1-.1-.2-.1-.2s.6.1.6-.2c0-.3-.2-.4-.4-.4-.3 0-.5 0-.7.2l-.8.5-1.1.6c-.2 0-.1.4.1.6.2.2 1.1 1.1 2.7 1.2 1.6.1 2.8-.6 2.8-.6s.2 1.4-1.2 1.7a6 6 0 01-3.2-.3l-.9-.1.6.5 1.2.8c.1.1 0 .2-.7-.1l-1.4-.6c-.2-.1.3.5.6.9.3.3 1.6 1.4 2.9 1.9 1.3.6 1.9.6 1.9.6s0 .5-.5.7c-.5.2-1.3.1-2.1-.2-1.4-.5-3.1-1.7-3.2-1.8-.1 0 .2.4.7.8a9.4 9.4 0 002.7 1.9l-1-.1-1.8-1c-.4-.3-.6-.5-.3 0s1.3 1.5 2 1.8l1.6.7c0 .1-.3.6-1.5.5a7.5 7.5 0 01-2.8-.9l-.4-.4s-.1.5.3.9l1.5 1.1a6 6 0 011.5 1.8c.1.4.1.4-.3.2l-1.4-1.1-1.5-1.3c-.2-.1-.1.5.1.9.1.4.6 1.6.9 2 .3.4 1.7 2.1 2.3 2.6.6.5.7 1 .8 1.2.1.3-.3.3-.9 0-.6-.3-1.7-.9-2.5-1.8A22 22 0 0138 67c-.1-.2-.2.5 0 1.2.2.6 1.4 2.9 2.3 4l1.4 1.9c.1.3-.1.6-.7 0l-2.2-2.2-2.1-2.7.3.9c.2.4 1.2 2.3 1.9 3.3a33.3 33.3 0 005.1 5.2c.2.1.3.5-.4.5a4 4 0 01-2.8-.9c-.8-.7-3-3.1-3.9-4.4-.9-1.3-2-3.2-2.4-4.1l-.6-1.5.3 2.3c.2.6.7 1.9 1.2 2.6l1.4 1.9c.2.2 0 .8-.5.6-.5-.2-1.5-1-1.8-1.4-.4-.4-2.2-3-2.6-4l-.6-1.4c-.1-.1-.4.1-.2.9l.8 1.9c.2.4.1.8-.2.4-.4-.4-.9-1.2-1.2-2.1-.2-.5-.1-.7-.1-.9 0-.1-.3.1-.4.6-.1.5 0 .8.3 1.3l1.9 2.4c.4.4.8.5 1 .4.2-.1.3.1.1.2l-.4.2s.3.7.8 1c.5.3.7.3 1 .3.3 0 .7 0 .4.4-.3.4-.7.5-1.2.3l-.8-.3 1.6 2c.5.6 1.1 1.4 1.5 1.4l1-.2c.2 0 .1-.3 0-.4-.1-.1-.1-.7.2-.9.3-.2.5 0 .6.1l.6.5c.2.2.3.7.1.9-.3.2-.5 0-.8.2l-.6.5c-.1 0 .4-.1.6.1.2.1.4.3.5.2l.5.1.4.4c.1 0 .4.3.2.4-.2.1-.6.2-.6.4s-.2.3-.4.2c-.2-.1-.7-.1-.9-.3-.2-.2-.3-.3-.5-.3l-.3-.1.3.5.4.5c.1.1.2.4.1.6l-.3.3c-.1-.1-.1-.3-.3-.3-.2.1-.3.2-.3.4s-.3.3-.3.1c-.1-.2-.5-1.2-.5-1.7s0-.5-.2-.5-.4.2-.6.1c-.2-.1-.3-.4-.3-.4-.1 0-.1.3-.4.2-.3-.1-.6-.2-.8-.1-.2.1-.4.6-.9.5-.4-.1-.5-.3-.6-.5-.1-.2 0-.2 0-.2s.4.2.5 0c.1-.2-.1-.4-.3-.5l-.3-.2s.4-.3.9-.2l1.1.3c.3.1.3-.2.1-.4-.2-.2-.6-.8-1.2-1.1l-1.3-.8c-.3-.2-.3-.5-.3-.5s0 .3-.2.5-.6.2-.7.1l.1-.7s.4-.2.3-.6l-.6-.8c-.4-.4-1.1-.7-1.2-.8l-.4-.4s-.2.3 0 .9c.2.5.2.7.8 1.1.6.4 1.1.8 1.3 1.2.2.4.1.8-.2.9h-.9c.2-.1.4-.1.4-.3 0-.3-.2-.2-.4-.4l-.3-.1c0 .1-.1.3-.3.3-.3 0-.5-.5-.5-.5s.1 1.4.4 2.1c.4.6.7.5.9.3.1-.2 0-.3 0-.4l-.3-.3s.9-.2 1 .5c.1.7-.2.8-.3.9h-.5s.6.6 0 .9c-.6.3-.9-.4-.9-.4s0 .9.4 1.2c.3.2.7 0 .9-.2.3-.2.4-.5.8-.4.7.2.2 1.2.2 1.2s.1-.4-.2-.6c-.2-.1-.4.2-.4.6v.6s1.1.5 1.7.3c.6-.2 1-.9 1-1.2 0-.4-.2-.6-.4-.6s-.5.1-.4.3l.2.6s-.7 0-.8-.4c-.1-.4.1-.7.6-1.1.3-.2.7-.2 1.1 0 .2.1.3.5.3.5s.3-.5.8-.3.5.9.5 1.1l-.1.5s.6-.5.9 0c.3.5-.6 1.2-.6 1.2s1.1-.5 1.4.8c.2 1-.4 1.7-1 1.8-.6.1-1.2-.2-1-.7.2-.6.9-.5.9-.5s-.7.5-.2.7c.4.2.9-.4.6-1-.2-.6-.6-.7-1-.7-.4.1-.6.4-.9.4l-.6-.1s.4.5.1.8c-.3.3-.6.1-.6.1s-.2.6-.6.9c-.5.3-.9.2-.9.2s.6-.4.6-1-.2-.6-.5-.9c-.3-.3-.4-.6-.3-.7l.1-.2s-.6 0-1.2-.3-.9-.7-1.1-1.1l-.3-.8s-.3 1.8.1 2.4c.3.6 1.2.8 1.5 1 .3.2.7.8.4 1.5-.3.7-1.1 1.1-1.5.9-.4-.2-.2-.8-.2-.8s.3.4.7.1c.2-.2.2-.4 0-.5l-.5-.2-.3.3-.2.1-.1 1.3c-.1.5-.4 1.2-1.2 1.3-.9.2-1.1-.2-1.1-.6 0-.4.2-.6.2-.6s0 .6.4.7c.3.1.7-.1.8-.2.1-.2-.1-.5-.1-.6v-.3s-.6.1-.8-.2c-.3-.4-.2-1.1-.2-1.1l-.8.2h-.8c-.2.1-.2.4.2.5l.7.1s-.5.4-1 .3c-.4-.1-.5-.3-.6-.6 0-.3.2-.7.8-1 .6-.3 1-.3 1.5-.8.6-.5.7-.6.9-1l.5-1c.3-1.3.1-1.5.1-1.5s-.3.8-.8 1.4c-.5.6-1.4.9-1.7 1l-.3.1s0 .5-.2.8c-.2.4-.7.6-1.2.7-.5.2-1.1.5-1 1.1.1.5.5.3.6.2.2-.2.1-.5.1-.5s.2.1.3.5c0 .5-.2 1.1-1.2 1.1s-1.1-1-1.1-1-.6 0-.4-.7c.2-.6.9-.9.9-.9l-1-.4c-.3-.1-1 0-1 .3-.1.3.1.6.3.7l.3.2s-.9.2-1.2-.4c-.3-.5 0-1.1.4-1.4l.4-.2s-.2-.4.3-.7c.6-.3 1.7-.2 1.7-.2s-.5-.3-.5-.8.5-1 .8-1.2c.3-.2.7-.3 1 .3.3.5-.3.7-.3.7s.1-.2-.1-.4-.6.1-.5.5c0 .4.3.6 1 .8.6.1 1.5.1 2.4-.5.7-.4 1.2-1.2 1.3-1.5l.1-.7-.7.1c-.2.1-.3.3-.3.5v.5l.3.1-1.4.1c-.6 0-.8-.5-.8-1.1 0-.6.4-1.2.9-1.4l.9-.1c.2-.2.3-.5.4-.9v-.6l-.5.3c-.2.2-.1.5-.1.5s-.2-.1-.2-.4.2-.5.2-.5-.6.4-1 .1c-.3-.1-.3-.3-.3-.6l.2-.4s.2.7.7.5c.5-.1.7-.4.8-.9v-2.3s-.1.3-.4.5c-.3.2-.5.2-.6.4-.1.2.1.5.3.5h.3s-.2.5-.6.5c-.4 0-.5-.5-.5-.5s-.2.6-.5.8c-.3.2-.4.2-.5.5-.1.2-.1.7.2.9l.3.3s-.9 0-1.1-.4l-.3-.6-.9 1.1-.9 1.1h.9c.4-.1.8-.2 1.1.1.3.2.3.7.2.9l-.3.5c-.1 0-1.1 0-1.5-.2l-.8-.4-.3.3c0 .2-.4.6-.6.8-.2.2-.5.4-.5.6 0 .2 0 .6-.2.8-.2.2-.5.2-.6 0-.1-.2-.2-.1-.4-.1s-.5.2-.6-.1c-.1-.3-.2-.4 0-.6l1-.9.5-.4-1.1.2-.7.3c-.1.1-.5.5-.8.4-.3-.1-.3-.4-.2-.7l-.2-.4c-.1-.2-.2-.3 0-.5.1-.3.6-.2.9-.2h1.6c.4 0 .5-.1.2-.2l-1.3-.5c-.3-.2-.3-.5-.2-.6.1-.1.2 0 .3-.3l.1-.7c-.1-.1.1-.2.3-.1l.5.3.2-.1c.2 0 .3.3.3.6s0 .7.4.7c.3 0 .7 0 .9-.2.2-.1.7-.7.8-1.1.1-.4.3-.8.5-.9l.3-.2s-.5.2-.8 0c-.3-.2-.3-.3-.3-.6l.1-.5s.3.4.5.3c.3 0 .4-.1.6-.3l.2-.3s-.4.1-.4-.1.2-.4.5-.5c.3-.1.4-.3.3-.4-.1-.1-.3-.4 0-.8.2-.4.8-.8 1.3-1.3.5-.4 1.3-1 1.3-1.5s-.6-1.5-.6-1.5-.1 1.3-.5 1.9c-.5.7-1.2 1.4-1.3 1.3l.1-.2.9-1.8a9 9 0 00.4-1.6v-.3s.1.9-2 3.7c-2.1 2.8-3.1 3.3-3.4 3.5l-1.3.8c-.2.1-.5-.1-.1-.6l1.7-2.2 2.2-3.4c.3-.6.3-1 .3-1.2 0-.2-.2.2-.6.9-.4.8-1.8 2.8-2.6 3.8s-1.9 2.3-3.6 3.3c-1.7 1.1-3.4 1.8-4.2 1.6-.8-.1-.9-.6 0-.9.9-.3 1.2-.5 1.6-.8.4-.3 3.5-2.9 4.4-4.1a7.9 7.9 0 001.4-3l-.5.6c-.3.5-1.2 1.8-2.4 2.7l-3 2.4c-.3.2-1.2.4-.1-.7l3.5-3.8c1-1.2 1.4-2 1.6-2.4.2-.4.1-.7.1-.7L16 69.4c-.9.8-1.9 1.8-2.5 2.1-.6.3-1 .1-1.2 0-.2-.2.3-.5.6-.6l1.2-1.2a14 14 0 002.1-3.1c.3-.9.2-1.9.2-1.9s-.4.9-1.5 1.7c-1.1.8-1.6.9-2 .9-.4 0-.1-.2.4-.5a6 6 0 001.7-1.2c.7-.6 1.2-1.4 1.2-1.4v-.4s-.8.7-1.9.7c-1.1 0-1.6-.2-1.8-.4-.2-.2-.2-.5.3-.5s1.3-.2 1.9-.6c.5-.4.7-.7.8-1.1l.1-.6s-.8.8-1.7 1.3c-.9.5-2.2.5-2.6.5-.4 0-1-.1.4-.4 1.4-.3 2.1-.8 2.6-1l1.5-1.6c-.1.1-.8.7-1.3.9l-2.5.6c-.9.1-1.5 0-1.8-.3-.3-.3-.4-.6.3-.7.7 0 1.5-.2 2-.5a12.5 12.5 0 002.2-1.6l-1.2.4-2.1.4c-.5 0-.4-.2.2-.4.7-.2 1.6-.4 2.2-.7l1.3-.8s-2.2.8-3.5.5c-1.3-.3-1.7-1-1.7-1l1.8.1c.6 0 1.3 0 2.1-.3.9-.3 1.1-.7 1.2-1l.2-.5-1.3-.8-1.1-.8c-.3-.1-.8.2-.7.6.1.5.6.3.7.2.1-.1.1-.3.2-.2.1 0 .2.5-.1.7a.9.9 0 01-1.3-.6c-.1-.5.1-1.1.6-1.4.6-.3 1.4 0 1.8.3.5.4.9.9 1.5 1 .6.1 1.1.1 1.7-.2.6-.3 1.6-.6 2.3-.2.7.4.9 1.1.9 1.7 0 .6-.7 1.2-1.1 1.5-.4.3-1.2.9-1 1.3.2.4.7.3 1 .6.3.2.5 1.3.4 1.5 0 .2-.2.2-.3.2-.1 0-.2.1-.2.4s.1.5.3.4c.2-.1.3-.3.6-.1.3.2.5.6.7 1.1l.3 1.1c.1.1.4-.3.6-.5.3-.3.7-.5 1.2-.5l.8.3.2.3.5-.7.7-.6v-.6l.6-.9s-.8.6-1.3.4l-.4-.3s-.6.2-.9-.1c-.3-.2-.2-.5-.2-.5s-.6.2-.5.8c.1.5.5.5.7.4l.4-.2s.1.4-.2.6c-.4.2-1 .3-1.2-.3-.2-.5-.1-1.1.3-1.5.4-.4.8-.5 1.4-.4.6 0 .7.3 1.3.3.6 0 .8-.2 1-.3l.3-.3s-.5-.3-.4-.8c.1-.6.6-.6.6-.6s-.1.7.5.7.8-.3.8-.6c.1-.3-.2-.9-.4-1.4l-.2-.5s.1.2-.2.2h-.9s-.2-.4-.6-.5c-.4-.1-.8-.1-1.5.1s-1.5.3-2.2 0c-1.1-.6-1-1.6-.9-2 .3-.6.8-.6 1.2-.6.5.1.6.6.6.6s-.4-.3-.7-.1c-.3.2-.3.7.1 1.1.4.4.8.5 1.7.5h1.9c.7.1 1 .3 1.2.4l.5.4-.4-1.1c.2-.1.1-.2.1-.2z"/><path fill="#111" fill-rule="evenodd" clip-rule="evenodd" d="M49.7 46.8v52.4h-.2V46.8H4.1v-.2h45.4V.6h.2v46h45.6v.2H49.7z"/><path fill="#111" fill-rule="evenodd" clip-rule="evenodd" d="M3.5 0H96v62.7c0 12.6-5.8 22-14.6 28.2a54.7 54.7 0 01-31.8 9.1c-11.5 0-23-3-31.7-9.2A33.4 33.4 0 013.5 62.5V0zm1 1.1v61.4c0 12.4 5.6 21.5 14 27.5s19.7 9 31.1 9c11.3 0 22.7-3 31.2-9s14.1-15.1 14.1-27.3V1.1H4.5z"/><path fill="#ed1c24" d="M59.3 16.2l-1.7-2.1c-.2-.3-.6-.6-.8-.5-.2.1-.3.5-.4.7-.1.3-.3.5-.1.7.1.3.2.5 0 .6-.2.1-.3-.1-.3-.2l-.7-.5c-.3-.2-.7-.1-.7-.1l.1-.6c.1-.2.5-.2.6-.2l.4-.4.2-.5c.1-.1.3-.3.2-.5 0-.2-.3-.4-.6-.4h-.7c-.3-.1-.3-.4-.5-.6-.2-.1-.4 0-.5.1-.1 0-.3 0-.4-.2-.1-.2.1-.6.1-.6h.3l.2-.6c0-.2.1-.3.2-.3l.5.7c.2.3.7.6.9.7l.5.1-.1-.5c-.1-.3-.4-.2-.5-.4V10c0-.3-.2-.3-.5-.6l-.2-.7c0-.3.2-.2.3-.1l.5.2.3-.3.2-.5.4.1.1 1.1c0 .5.4 1.1.4 1.1l.4.1c.2 0 .4-.1.6-.4V9c0-.3.3-.4.3-.4l.3.7c.1.2.3.3.5.3l.4.1.2.1c.1.1-.1.4-.4.5-.3.1-.3-.2-.6 0-.3.1-.2.5-.1.6 0 .1 0 .2-.3.5s-.4.6-.4 1c0 .3.7 1.2 1.1 1.5.3.4 1.7 1.5 1.7 1.5l.2-.4c.1-.3.5-.4.6-.3v.7c0 .3.3.6.6 1l1.1 1.2s.8-.5 1-.8l1.9-1.2c.7-.4.9-.7.9-1a4 4 0 00-.6-1.5l-.3-1.1-.6-3.8.5-.4.6-.1.4-1.1c.2-.4.8-.3 1.1-.5h.6c.2.1-.2.4-.4.6l-.1.8s.1-.5 1.2-.8c1.1-.4 1.9-.3 2.2-.2.4.1.5.2.5.3l-.5.2-.9.8c-.4.2-1.1.4-1.2.8 0 .4 0 .6.2.8l.4.8c.1.3.4.8.7.9h.6l.1-.3c.1-.1.4.1.4.3 0 .2-.1.6-.4.7l-.6.2c-.1 0-.3.3-.1.6.2.3.3.5.7.6l.5.1c0 .1 0 .6-.2.8l-.7.1-.3-.1s-.3 1 0 1.4c.3.4.7.5 1.1.1l1.2-1.1c.2-.3.7-1.2 1-1.4.3-.2.4-.2.5-.1v.5c-.1.1.8-.4.9-.6a12.2 12.2 0 002.7-6.5c0-.2.1-.6.3-.7.3-.1.8-.2 1 .1.3.3.7.8.6 1.8 0 .9-.3 1.5-.4 2l-.6 1.8s.4-.2 1.6-1.8L82.5 7c.2-.3.5-.5.9-.5.3.1.4.5.4 1.3s-.3 1.6-.8 2.7-1.3 2.3-1.7 2.8l-1.8 2.2c-.4.5-.9 1-.8 1.1a22.5 22.5 0 005.8-4.4l1.8-1.8c.3-.2.5.2.5.7 0 .5 0 1.8-.3 2.4-.3.6-1.1 1.4-2.3 2.4l-2.9 2.4-1.3 1.1 2.7-1.2 3.1-2s.5.2.4 1.1c-.1 1-.8 2.1-2.4 3.1-1.6 1-3.3 1.7-4 2l-1.8.5s.3.6 1.2.7a4 4 0 002.1-.3c.4-.2.7-.4 1-.2.3.1.2.6.1.9-.1.3-.7 1.9-2 2.3a4 4 0 01-2.7-.3 3 3 0 00-1.1-.3c0 .1.5 1 1.4 1.7.8.7 2.1 1.5 3.1 2 .9.5 2.1.8 2.2 1 .1.3.1.5-.6.9s-1.9.8-3.3.4a9.5 9.5 0 01-3.6-2.4L74 27.2c-.2-.1-.1.2 0 .5s.5 1.2.3 1.8l-.3.7 1.2 1.5c.4.5.6.6 1 .9.4.3 2 1 3.1 1.2 1.1.3 3.7.7 4.8-.4 1.1-1.1 1-1.9.7-3-.3-1.2.2-1.6.4-2.1.3-.4.5-.8.5-1.2l-.2-.8c0-.1.1-.3.4-.3s.5.2.8.1c.3 0 .7-.3.9-.7l1-.9.4-.3c.1-.2.1-.6-.1-.7-.2-.1-.3.2-.5.2s-.2-.5.1-.7c.3-.2.8-.3 1.1-.1.3.2.8.8.5 1.7-.3.9-1 1.3-1.2 1.8l-.2.8h.7c.3.1.5.5.5.7s0 .5-.2.5-.6-.1-.9.1c-.3.2-1 .9-1.3 1.7-.3.8-.6 1.7-1.1 2.4-.5.7-1.1 1.4-2.4 1.9-1.3.5-3.5.5-5 .1a20.3 20.3 0 01-4.1-1.7s-.1 2 .1 2.5c.2.6.9 1.4 1.3 1.9s1.1 1 1.2 1.5c.1.5-.1.6-.2.9-.1.3-.1.7-.5 1-.3.4-.8.3-.8.3l.1.5c-.1.3-.2.3-.3.2-.1-.1-.4-.6-.8-.3s-.4.5-.4.7c0 .2-.2.3-.4.3-.3 0-.6 0-.3.4s.5.6.4 1c-.1.3-.5.5-.5.5s.1-.7-.4-.7-.5.2-.6.4l-.1.6s-.6.1-.7-.1c-.1-.3-.1-.7.2-.9.2-.2.2-.4.1-.5-.1-.1-.4.2-.7.4-.2.3-.6.2-.6.2s.1.5-.3.7c-.4.2-.5-.1-.7-.1-.2-.1-.4-.3-.2-.5.1-.2.5-.3.4-.6-.1-.3-.4-.5-.6-.6h-.4s0-.4.3-.7l.5-.4-.1-.5c0-.2.2-.3.4-.3.3-.1.4-.3.5-.5v-.6s.6-.1.8.1c.2.2.2.5.2.7v.5l.8-.1c.2-.1.3-.5.5-.8.2-.2.5-.4.4-.8-.1-.4-.1-.7-.5-.9s-.7-.5-.8-.7c-.1-.2-.2-.2-.4 0-.1.2-.5.7-1.2.6-.8-.1-1-.6-1-.6s.5-.3.6-.6c.1-.3.1-.8-.1-1.4-.2-.6-.3-.9-.3-1.6v-1.1s-2 0-3.2.5c-1.2.5-1.5 1.1-1.5 1.5 0 .4.1.9.7 1.4.5.5.7.7.7 1.1 0 .4-.1.7-.5.7s-.6.2-.7.3l-.6.5-.2.3-.3.3s-.3-.5-.7-.4c-.4-.1-.6-.1-.5.1l.1.4s-.5-.1-.8 0l-.8.2c-.2 0-.3.1-.2.4.1.3.3.5.2.9-.1.3-.4.4-.7.3l-.6-.1s.5-.4.1-.7c-.3-.3-.7-.1-.9 0l-.4.3s-.3-.2-.2-.6c.1-.4.2-.6.5-.8.3-.2.4-.5.1-.5-.3 0-1 .2-1.4.1-.4 0-.6-.3-.7-.4l-.1-.2s.5.1.7-.3c.2-.4.2-.5 0-.7l-.4-.3s.2-.5.6-.5c.4 0 .6.3 1 .4l.6.1v-.5l-.7-.1c-.2-.1-.6-.7-.4-.9l.5-.3s.4.6.7.4l.6-.6.1-.2s.5 0 .6.6V37s.4.1.9-.1l1.2-.5c.1-.1.1-.5-.2-.7-.3-.2-1.2-.9-1.4-1.3-.2-.5-.4-1.3-.9-1.6-.5-.3-1-.2-1.4-.2-.5 0-1.4-.3-1.6-.7l-.2-.6s.5.3.8.2c.2-.2.5-.6 1.1-.7h1.5s.3-.9 1.7-1.3 2.9-.3 3.9 0l1.7.3.8-.1-1.7-1.9-1.3-1.4-1 .2c-.6.2-1.2.1-2 .1s-1.2-.1-1.6.1l-.8.6c-.1.2-.7-.2-.5-.7l.4-.7-1.8.2c-.6.1-1.4-.1-1.2.8.2.9.9.9 1.1.9.2 0 .3.3.3.4v.2s-.5-.1-.8.1c-.3.2-.3.4-.3.4s-.3.1-.5-.1c-.1-.2 0-.4.1-.6.1-.1 0-.2-.1-.2s-.5 0-.5-.2c0-.3.2-.5 0-.7-.2-.1-.6 0-.7.3a3 3 0 01-.4.8h-.5l-.1.7c0 .2-.1.4-.3.4s-.2-.4-.2-.4.2-.4.1-.7c-.1-.3-.4-.3-.4-.3s-.1-.3 0-.4l.7-.1 1.1-.8.3-.4c-.1 0-.5.2-.8.1l-.5-.3-.4.3c-.1.2-.4.2-.6 0l-.2-.5s.3-.1.2-.4c0-.3-.2-.5-.1-.6.1-.1.2-.2.4-.1l.4.5c.2.2.3.2.5.1v-.5c-.2-.1-.5-.3-.4-.4.1-.1.3-.1.3-.3 0-.2-.1-.5-.3-.6-.2-.1-.4-.3-.3-.5.1-.2.4-.2.4-.2l.7.1h.5c.2.1.3.4.1.6-.1.2-.5.4-.4.7l.4 1.1 1.9-.2 2.1-.6s-.5-.4-.5-.8c0-.3-.1-.6.1-.6l.6.3h1.3c.5-.1.7-.3.7-.3s-.6-.7-.7-1.1v-1.7s-.7-.9-1.3-1.3c-.5-.4-.8-.5-1.2-.5-.4.1-.5.3-.5.1-.1-.2-.1-.6.2-.9l1-.7-.7-.9z"/><path fill="none" stroke="#111" stroke-width=".215" d="M59.3 16.2l-1.7-2.1c-.2-.3-.6-.6-.8-.5-.2.1-.3.5-.4.7-.1.3-.3.5-.1.7.1.3.2.5 0 .6-.2.1-.3-.1-.3-.2l-.7-.5c-.3-.2-.7-.1-.7-.1l.1-.6c.1-.2.5-.2.6-.2l.4-.4.2-.5c.1-.1.3-.3.2-.5 0-.2-.3-.4-.6-.4h-.7c-.3-.1-.3-.4-.5-.6-.2-.1-.4 0-.5.1-.1 0-.3 0-.4-.2-.1-.2.1-.6.1-.6h.3l.2-.6c0-.2.1-.3.2-.3l.5.7c.2.3.7.6.9.7l.5.1-.1-.5c-.1-.3-.4-.2-.5-.4V10c0-.3-.2-.3-.5-.6l-.2-.7c0-.3.2-.2.3-.1l.5.2.3-.3.2-.5.4.1.1 1.1c0 .5.4 1.1.4 1.1l.4.1c.2 0 .4-.1.6-.4V9c0-.3.3-.4.3-.4l.3.7c.1.2.3.3.5.3l.4.1.2.1c.1.1-.1.4-.4.5-.3.1-.3-.2-.6 0-.3.1-.2.5-.1.6 0 .1 0 .2-.3.5s-.4.6-.4 1c0 .3.7 1.2 1.1 1.5.3.4 1.7 1.5 1.7 1.5l.2-.4c.1-.3.5-.4.6-.3v.7c0 .3.3.6.6 1l1.1 1.2s.8-.5 1-.8l1.9-1.2c.7-.4.9-.7.9-1a4 4 0 00-.6-1.5l-.3-1.1-.6-3.8.5-.4.6-.1.4-1.1c.2-.4.8-.3 1.1-.5h.6c.2.1-.2.4-.4.6l-.1.8s.1-.5 1.2-.8c1.1-.4 1.9-.3 2.2-.2.4.1.5.2.5.3l-.5.2-.9.8c-.4.2-1.1.4-1.2.8 0 .4 0 .6.2.8l.4.8c.1.3.4.8.7.9h.6l.1-.3c.1-.1.4.1.4.3 0 .2-.1.6-.4.7l-.6.2c-.1 0-.3.3-.1.6.2.3.3.5.7.6l.5.1c0 .1 0 .6-.2.8l-.7.1-.3-.1s-.3 1 0 1.4c.3.4.7.5 1.1.1l1.2-1.1c.2-.3.7-1.2 1-1.4.3-.2.4-.2.5-.1v.5c-.1.1.7-.4.9-.7a12.2 12.2 0 002.7-6.5c0-.2.1-.6.3-.7.3-.1.8-.2 1 .1.3.3.7.8.6 1.8 0 .9-.3 1.5-.4 2l-.6 1.8s.4-.2 1.6-1.8l1.8-2.6c.2-.3.5-.5.9-.5.3.1.4.5.4 1.3s-.3 1.6-.8 2.7-1.3 2.3-1.7 2.8l-1.8 2.2c-.4.5-.9 1-.8 1.1a22.5 22.5 0 005.8-4.4l1.8-1.8c.3-.2.5.2.5.7 0 .5 0 1.8-.3 2.4-.3.6-1.1 1.4-2.3 2.4l-2.9 2.4-1.3 1.1 2.7-1.2 3.1-2s.5.2.4 1.1c-.1 1-.8 2.1-2.4 3.1-1.6 1-3.3 1.7-4 2l-1.8.5s.3.6 1.2.7a4 4 0 002.1-.3c.4-.2.7-.4 1-.2.3.1.2.6.1.9-.1.3-.7 1.9-2 2.3a4 4 0 01-2.7-.3 3 3 0 00-1.1-.3c0 .1.5 1 1.4 1.7.8.7 2.1 1.5 3.1 2 .9.5 2.1.8 2.2 1 .1.3.1.5-.6.9s-1.9.8-3.3.4a9.5 9.5 0 01-3.6-2.4L74 27.1c-.2-.1-.1.2 0 .5s.5 1.2.3 1.8l-.3.7 1.2 1.5c.4.5.6.6 1 .9.4.3 2 1 3.1 1.2 1.1.3 3.7.7 4.8-.4 1.1-1.1 1-1.9.7-3-.3-1.2.2-1.6.4-2.1.3-.4.5-.8.5-1.2l-.2-.8c0-.1.1-.3.4-.3s.5.2.8.1c.3 0 .7-.3.9-.7l1-.9.4-.3c.1-.2.1-.6-.1-.7-.2-.1-.3.2-.5.2s-.2-.5.1-.7c.3-.2.8-.3 1.1-.1.3.2.8.8.5 1.7-.3.9-1 1.3-1.2 1.8l-.2.8h.7c.3.1.5.5.5.7s0 .5-.2.5-.6-.1-.9.1c-.3.2-1 .9-1.3 1.7-.3.8-.6 1.7-1.1 2.4-.5.7-1.1 1.4-2.4 1.9-1.3.5-3.5.5-5 .1a20.3 20.3 0 01-4.1-1.7s-.1 2 .1 2.5c.2.6.9 1.4 1.3 1.9s1.1 1 1.2 1.5c.1.5-.1.6-.2.9-.1.3-.1.7-.5 1-.3.5-.8.4-.8.4l.1.5c-.1.3-.2.3-.3.2-.1-.1-.4-.6-.8-.3s-.4.5-.4.7c0 .2-.2.3-.4.3-.3 0-.6 0-.3.4s.5.6.4 1c-.1.3-.5.5-.5.5s.1-.7-.4-.7-.5.2-.6.4l-.1.6s-.6.1-.7-.1c-.1-.3-.1-.7.2-.9.2-.2.2-.4.1-.5-.1-.1-.4.2-.7.4-.2.3-.6.2-.6.2s.1.5-.3.7c-.4.2-.5-.1-.7-.1-.2-.1-.4-.3-.2-.5.1-.2.5-.3.4-.6-.1-.3-.4-.5-.6-.6h-.4s0-.4.3-.7l.5-.4-.1-.5c0-.2.2-.3.4-.3.3-.1.4-.3.5-.5v-.6s.6-.1.8.1c.2.2.2.5.2.7v.5l.8-.1c.2-.1.3-.5.5-.8.2-.2.5-.4.4-.8-.1-.4-.1-.7-.5-.9s-.7-.5-.8-.7c-.1-.2-.2-.2-.4 0-.1.2-.5.7-1.2.6-.8-.1-1-.6-1-.6s.5-.3.6-.6c.1-.3.1-.8-.1-1.4-.2-.6-.3-.9-.3-1.6v-1.1s-2 0-3.2.5c-1.2.5-1.5 1.1-1.5 1.5 0 .4.1.9.7 1.4.5.5.7.7.7 1.1 0 .4-.1.7-.5.7s-.6.2-.7.3l-.6.5-.2.3-.3.3s-.3-.5-.7-.4c-.4-.1-.6-.1-.5.1l.1.4s-.5-.1-.8 0l-.8.2c-.2 0-.3.1-.2.4.1.3.3.5.2.9-.1.3-.4.4-.7.3l-.6-.1s.5-.4.1-.7c-.3-.3-.7-.1-.9 0l-.4.3s-.3-.2-.2-.6c.1-.4.2-.6.5-.8.3-.2.4-.5.1-.5-.3 0-1 .2-1.4.1-.4 0-.6-.3-.7-.4l-.1-.2s.5.1.7-.3c.2-.4.2-.5 0-.7l-.4-.3s.2-.5.6-.5c.4 0 .6.3 1 .4l.6.1v-.5l-.7-.1c-.2-.1-.6-.7-.4-.9l.5-.3s.4.6.7.4l.6-.6.1-.2s.5 0 .6.6V37s.4.1.9-.1l1.2-.5c.1-.1.1-.5-.2-.7-.3-.2-1.2-.9-1.4-1.3-.2-.5-.4-1.3-.9-1.6-.5-.3-1-.2-1.4-.2-.5 0-1.4-.3-1.6-.7l-.2-.6s.5.3.8.2c.2-.2.5-.6 1.1-.7h1.5s.3-.9 1.7-1.3 2.9-.3 3.9 0l1.7.3.8-.1-1.7-1.9-1.3-1.4-1 .2c-.6.2-1.2.1-2 .1s-1.2-.1-1.6.1l-.8.6c-.1.2-.7-.2-.5-.7l.4-.7-1.8.2c-.6.1-1.4-.1-1.2.8.2.9.9.9 1.1.9.2 0 .3.3.3.4v.2s-.5-.1-.8.1c-.3.2-.3.4-.3.4s-.3.1-.5-.1c-.1-.2 0-.4.1-.6.1-.1 0-.2-.1-.2s-.5 0-.5-.2c0-.3.2-.5 0-.7-.2-.1-.6 0-.7.3a3 3 0 01-.4.8h-.5l-.1.7c0 .2-.1.4-.3.4s-.2-.4-.2-.4.2-.4.1-.7c-.1-.3-.4-.3-.4-.3s-.1-.3 0-.4l.7-.1 1.1-.8.3-.4c-.1 0-.5.2-.8.1l-.5-.3-.4.3c-.1.2-.4.2-.6 0l-.2-.5s.3-.1.2-.4c0-.3-.2-.5-.1-.6.1-.1.2-.2.4-.1l.4.5c.2.2.3.2.5.1v-.5c-.2-.1-.5-.3-.4-.4.1-.1.3-.1.3-.3 0-.2-.1-.5-.3-.6-.2-.1-.4-.3-.3-.5.1-.2.4-.2.4-.2l.7.1h.5c.2.1.3.4.1.6-.1.2-.5.4-.4.7l.4 1.1 1.9-.2 2.1-.6s-.5-.4-.5-.8c0-.3-.1-.6.1-.6l.6.3h1.3c.5-.1.7-.3.7-.3s-.6-.7-.7-1.1v-1.7s-.7-.9-1.3-1.3c-.5-.4-.8-.5-1.2-.5-.4.1-.5.3-.5.1-.1-.2-.1-.6.2-.9l1-.7-.7-.9z"/><path fill="#ffe013" stroke="#111" stroke-width=".2" d="M65.2 8.2h-.6l-.4.1-.3.4c-.1.1 0 .4 0 .4l-.2.1c-.1 0-1 .1-1.1.5-.2.4-.1 1.3.2 1.5h.3c.1 0 .2-.3.5-.3l1.1.2c.3 0 .7-.2 1.2-.1s1.2.8 1.5 1.3c.3.5.2.8.2 1 0 .1-.2.2-.5.2s-1.2-.3-2.2 0l-.7.3c-.1.1 0 .2.1.2h2.9c.3 0 .7 0 .9-.4v-1.1c0-.1-.3-.9-.7-1.3-.4-.4-.8-1-1-1.6l-.6-.9c-.2-.5-.6-.5-.6-.5zm-10.1 6.7v.2l-.2.3-.5.1-.2.1.3.2.6.1.5-.1.2-.1c.1-.1-.2-.4-.3-.4.1-.2-.4-.4-.4-.4zm-1-4.6l-.3-.2h-.6l-.3.5c0 .1 0 .2.2.2h.4l.4.1.2-.2v-.4zm1-1.7l.1-.1v-.3l-.3-.1-.2-.1.1-.2.2-.2.3-.1.4.1.2.2.1.3-.2.4-.1.2h-.3l-.3-.1zm3.3.3h.3c.2 0 .3.1.3-.1l-.2-.5h.3c.1.1.3.2.3.4l.1.6v.4l-.1.2-.5-.1c-.3-.1-.2 0-.3-.3a4 4 0 01-.2-.6zm-.7 20c.1 0 .5.2.4.4l-.2.5.6-.1c.3-.1.5-.4.5-.7l-.2-.7-.7.1-.4.5zm-3.6-1s-.5.1-.5.4v.9c.1.2.3.1.4-.1l.2-.4.3.1s.2-.2.1-.4c0-.2-.1-.4-.3-.4l-.2-.1zm-.4-3s-.5 0-.6.2c-.1.2-.3.6-.2.7l.8.1s.3-.3.2-.4l-.2-.6zm1.9-2.1s0-.3-.2-.5-.5-.3-.7-.3c-.2 0-.3 0-.1.3l.2.5.4.1.4-.1zM63 39.5s.3.2.2.4c0 .3-.2.5-.1.6.1.1.5-.2.7-.4l.3-.6c0-.2-.1-.5-.4-.6h-.6l-.1.3v.3zm-3.9 1.3s-.2.5 0 .8c.2.4.5.6.7.6.1 0 .2-.1.2-.3 0-.2-.2-.3-.1-.5s.3-.2.3-.2.3-.3.2-.5c-.1-.2-.2-.4-.5-.3l-.7.3-.1.1zm-1.6-3.6l-.7.2c-.2.2-.4.4-.5.8-.1.3 0 .6 0 .8 0 .2.3 0 .4-.3.1-.2.1-.3.3-.3h.6l.4-.5v-.3l-.5-.4zm2.9-2.2s-.4-.4-.8-.5h-1c-.2.1-.4.3-.1.3l.5.2.2.5.4.2.5-.4.3-.3zm14.2 7.2s.4-.1.5.1l.2.8c0 .2.2.1.4-.2.2-.3.3-.4.3-.7v-.5l-.5-.5c-.1-.1-.4.1-.5.2l-.2.4-.2.4zm-1.8 2.2s.2.4.5.5h.9c.2 0 0-.3-.2-.3-.1-.1-.3-.2-.2-.3 0-.1.2-.3.1-.5-.1-.3-.3-.3-.5-.3a1 1 0 00-.5.3l-.1.6zm-3.4-2s-.5.1-.6.5v1c.1.3.3.6.4.3.1-.3.1-.5.3-.5h.5s.5-.3.5-.5-.2-.5-.4-.6c-.3-.2-.7-.2-.7-.2zm1.5-3.1s-.4-.3-.8-.2c-.4 0-.7.3-.7.4-.1.1-.1.2.3.2s.5 0 .6.2l.1.6s.4-.1.5-.5v-.7z"/><path fill="#ed1c24" d="M60.9 11.3c-.1 0-.5.1-.6.5-.1.4-.1 1 .6 1.2 1.1.3 1.7 0 2.7-.1l1.9-.2H67l.4.1s-.1-.6-.3-.8l-.4-.1-1.7.1c-.8.2-2.1.4-2.8.3-.7-.1-1.2-.2-1.2-.4l.1-.5-.2-.1z"/><path fill="none" stroke="#111" stroke-width=".215" d="M60.9 11.3c-.1 0-.5.1-.6.5-.1.4-.1 1 .6 1.2 1.1.3 1.7 0 2.7-.1l1.9-.2H67l.4.1s-.1-.6-.3-.8l-.4-.1-1.7.1c-.8.2-2.1.4-2.8.3-.7-.1-1.2-.2-1.2-.4l.1-.5-.2-.1z"/><path fill="#fff" d="M66.1 8.5l.4.9.7.1.7-.3-.5-.5a1 1 0 00-.6-.2h-.7z"/><path fill="#111" fill-rule="evenodd" clip-rule="evenodd" d="M64.1 35.3h.2v.1l.2.3.4.4.2.5-.2.4-.2.3-.1.2-.1.1-.2-.1.1-.1.1-.2.2-.3.1-.4-.1-.3-.4-.4c-.2-.1-.3-.3-.3-.4.1.1.1 0 .1-.1 0 .1 0 .1 0 0zm-.1 3l.1-.2.1.1.2.2.1.2v.1h-.2v-.1l-.1-.2-.2-.2c.1.2.1.1 0 .1zm-1.6.1l.1.2-.1.1-.2.2.1.4.1.1-.2.1-.1-.2-.1-.5c0-.2.2-.3.3-.4 0 .1 0 0 .1 0zm-3.3-.1l-.4.2-.1.1v.5l-.2.1v-.1l-.1-.2v-.3l.1-.3.6-.2.6.1h.5v.2h-.7c.1-.1-.1-.1-.3-.1z"/><path fill="none" stroke="#111" stroke-width=".251" d="M59.6 37.4l.6-.3.8-.1"/><path fill="#111" fill-rule="evenodd" clip-rule="evenodd" d="M60.2 32.8l-.1-.2.1-.1.4-.1c.5.1.8.2 1 .5l.1.3v.3l.1.2.1.1.3.1.1.1.1.1h-.1l-.4-.1-.2-.2-.1-.3v-.3l-.1-.2c-.2-.3-.4-.4-.9-.4h-.3l-.1.2c0-.1 0 0 0 0zm0 0z"/><path fill="none" stroke="#111" stroke-width=".215" stroke-linecap="round" stroke-linejoin="round" d="M57.6 31.9s.3.4.8.3c.5-.1.7-.5 1.2-.7.5-.2.8-.1 1.1 0l.5.3m-1.7.5s.7-.3 1.2-.2c.6.1.9.4.9.4"/><path fill="#111" fill-rule="evenodd" clip-rule="evenodd" d="M64.7 19.3l-1.1.6-.6.6-.2.8c0 .3 0 .7.2.9l.1.3.1.1-.2.1-.1-.1-.2-.4-.2-1 .2-.9.6-.7a6 6 0 011.1-.6l.4-.2.1-.1.1.2h-.1c.1.3 0 .3-.2.4z"/><path fill="#111" fill-rule="evenodd" clip-rule="evenodd" d="M63.8 22.9h-.6l-.2.1-.2.1-.2.1-.2-.1h.1l.2-.2.2-.2.3-.1h.9v.2H64l-.2.1zm3.3.1h.2v.4l-.1.6-.2.7-.1.3v.1h-.2V25l.1-.3.2-.7.1-.6V23z"/><path fill="#111" fill-rule="evenodd" clip-rule="evenodd" d="M66.2 23.7l-.3.7v.3l.3.2.6.1.5.2c.2.1.2.3.1.4-.1.2-.2.3-.4.3l-.7.2-.3.1h-.1l-.1-.2h.1l.3-.1.7-.2.2-.2-.1-.2-.4-.2-.5-.1a.5.5 0 01-.5-.3v-.6l.3-.7.1-.3V23l.2.1v.6zm1.6 1.1l.4.6.5.3.3.1.2.1.2.2.1.2.3.4.3.2.5.2.4.1h.1l.3.1.5.4.4.6v.8l-.1.5v.5l.5.3c.2.1.5 0 .8-.2l.3-.2.1-.1.1.1-.1.1-.3.2c-.3.2-.6.3-1 .2-.3-.1-.5-.2-.6-.4l-.1-.7.1-.5v-.7l-.3-.5-.4-.3-.3-.1h-.1l-.4-.1-.5-.2-.4-.2-.3-.4-.1-.2-.1-.1-.2-.1-.3-.1c-.2-.1-.5-.2-.6-.4l-.4-.6-.2-.3v-.1l.2-.1v.1l.2.3zm5.9 6.6l-.2.1v-.1h.2zm.4.9l.2.5.1 1.3v.6h-.2v-.6l-.1-1.3-.3-.8-.2-.4-.1-.1h.1l.1-.1.1.1.2.4.6.7.3.3.1.1-.1.2-.1-.1-.3-.3-.4-.5zm.7 2.8h.2l.1.5.1.8v.2l-.2.2v-.2l-.1-.8-.1-.7zm-2.9 1h.2v.8l.1.2v.1l-.2.2-.1-.1-.1-.3v-.7l.1-.2zm-.5-.1h.2v.1l.1.4.1.4v.2l-.1.3-.1.2v.1l-.1.1-.1-.2.1-.1.1-.3V37l-.1-.4-.1-.4V36zm-.6-.9h.2v2.2l-.2.5-.1.2-.2-.1.1-.2.2-.4v-2.2zm-3.2-2.7l1.4-.1h.7v-.2H69l-1.4.1c-.5 0-1 .2-1.3.4l-.5.2-.1.1.1.2.1-.1.5-.2c.3-.2.7-.4 1.2-.4zm-1.7-.9l-.1-.2h.1l.3-.1.6-.1h2.8v.2h-2.8l-.6.1-.3.1c.1 0 0 0 0 0zm3.4-1.4l-.5-.5.1-.2.7.6v.2h-.1l-1.9-.1v-.2l1.7.2z"/><path fill="none" stroke="#111" stroke-width=".215" stroke-linecap="round" d="M81.3 23.8s-.9.9-1.9.9c-1 .1-1.9-.6-2.2-.8l-1-.3m-4 2.2s1 1.6 1 2.2c0 .6-.4 1.7-.4 1.7m1.4-4.6l2.7 2.8c.7.7 2 1.9 2.7 2.3.9.6 2 .6 2 .6m-6.4 6.3s.2.8.4 1l.5.5.4.1s-.5.5-.5.8l.2.4-.3.3-.7.1m-5.8-12.1s.3.3.3.6v1.1l-.1 1.9.1.9"/><path fill="none" stroke="#111" stroke-width=".2" stroke-linecap="square" stroke-linejoin="round" d="M88.5 27.1l-.8 1-.3.7m.8-2.8l-.7 1.1c-.4.6-.7 1-.7 1.4l-.1.8m-.6-1.4s-.5.7-.6 1.3l.1 1.1"/><path fill="none" stroke="#111" stroke-width=".215" stroke-linecap="round" stroke-linejoin="round" d="M86.2 26l.4.4.1.3M75.8 40.6l.3.4-.3-.4z"/><path fill="#111" fill-rule="evenodd" clip-rule="evenodd" d="M71.2 41.3l-.3.2h-.6l-.2-.1H70l.1-.2.2.1c.1 0 .3.1.4 0l.3-.2.3-.3.3-.3.1-.1.2.1-.1.1-.3.3-.3.4zm.5 1.2v.2h-.3c-.2 0-.3.1-.3.2v.5l-.1.1v.1l-.1-.1V43l.5-.4h.2l.1-.1zm2.8-1.7l.1.2-.2.1-.3.4.1.4.1.1-.1.2h-.1L74 42c-.1-.1-.2-.4-.1-.6.1-.3.2-.4.4-.5l.2-.1c-.1.1-.1.1 0 0 0 .1 0 .1 0 0z"/><path fill="none" stroke="#111" stroke-width=".251" d="M63.2 17.8s-.4.5-.5.9c-.1.4-.4.4-.6.8l-.4 1m-2-3.1l.4-.1.5.2s-.2-.8-.1-1.2l.1-.7"/><path fill="none" stroke="#111" stroke-width=".215" d="M55.2 25.4h1.2"/><path fill="#111" d="M64.4 9l.3-.3.1-.1.4.2c.2.3.1.5.1.5l-.5-.3h-.4z"/><path fill="none" stroke="#111" stroke-width=".215" stroke-linecap="round" d="M57 10.5l.3 1 .4 1.1m-1.5-1.1l.4.5m-1.4-2.6h.6c.2 0 .2.4.3.5l.2.5m1.1 17.9s.2-.2.1-.4l-.1-.2m9.1-19.1l.4.5c.1.1.3-.1.3-.1s-.5-.1-.5-.5l-.2.1z"/><path fill="none" stroke="#111" stroke-width=".215" stroke-linecap="round" d="M66.1 8.6l.4.8c.1.2.6.2.9.1l.6-.3m-2.3-.8s.5.2.8.1l.8.1.7.5.6.1m-2-1.4l.9.1.3.2.4-.7"/><path fill="#111" d="M68.4 8.2l.3-.4c.3-.4.6-.5 1.1-.6l.7-.2h.1c-.1.3-.4.3-.7.4h.1l-.5.1-.1.1.2.1c-.2.2-.7 0-.7.2l.2.2-.2.1v.1h-.1l.2.2h-.1c-.2.1-.3-.2-.5-.3zm1.3 2l-.1.2c0 .2.3.3.3.5l-.2.3.2.7-.3.2v.7h-.3v.3h-.4v.3l-.3.2c-.3-.2-.1-.8-.4-1.1h-.1l.1.7-.2.5-.4.2.3.1.4-.1.2.1.2-.1.1.1c.3 0 .5-.3.5-.6 0-.2.3-.1.5-.2s.1-.4.1-.7h.3l.1-.2-.1-.3.2-.9-.1-.2-.6-.7z"/><path fill="#111" fill-rule="evenodd" clip-rule="evenodd" d="M70.9 17.2l.1-.2.1.1.1.5-.1.4-.4.3-.1-.2.3-.2.1-.4-.1-.3c0 .1 0 0 0 0zm.6-1.2v.2l-.1.2-.2.1h-.5c-.3 0-.4-.2-.5-.3L70 16v-.1l.2-.1.1.1.4.2h.5l.1-.1v-.1l-.1-.2-.1-.1.2-.1.1.2.1.3z"/><path fill="#111" fill-rule="evenodd" clip-rule="evenodd" d="M74.7 13.7l-.4.4-.5.5-.1.1h.4l.4.1.1.1v.2l-.2.5-.5.5-.6.6-.1.1v.1l-.2.2-.5.3-.4.1c-.3.1-.4.1-.7.4-.4.3-.7.5-1.2.6l-.7.3-.3.2-.1.1-.1-.1.1-.1.3-.2.7-.4a3 3 0 001.1-.6l.8-.4.4-.1.5-.3.1-.1.1-.1.1-.1.7-.6.4-.4.2-.5V15h-.1l-.3-.1h-.5v-.1m-.1.1c-.1-.1 0-.1 0-.2l.2-.2.5-.5.3-.3.1-.1.2.1-.1.2"/><path fill="#111" fill-rule="evenodd" clip-rule="evenodd" d="M70 16l.2-.1v.5c0 .3 0 .6-.2.9l-.3.5-.1.2c-.1.2-.2.3-.1.4l.1.2-.2.1v-.1l-.1-.2c-.1-.2 0-.4.1-.6l.1-.2.3-.4c.2-.2.2-.5.2-.8V16zm-.4 2.6z"/><path fill="none" stroke="#111" stroke-width=".182" stroke-linecap="round" d="M72.3 16s.5-.1.8.1c.2.2.2.4.1.7-.1.3-.5.5-.5.5"/><path fill="#111" fill-rule="evenodd" clip-rule="evenodd" d="M78.8 16.1l.2.1-.1.1-.3.3-.8.8-.7.5-.7.2m-1-.1z"/><path fill="none" stroke="#111" stroke-width=".182" stroke-linecap="round" d="M79.6 10.9l-.8 1.2-1.4 1.3c-.1.2-.9.9-1 1.2-.1.3-.3.4-.5.6l-.6.4"/><path fill="#111" fill-rule="evenodd" clip-rule="evenodd" d="M79.1 11l.2.1-.1.1-.2.4-.5.8-.7.7-.1.1-.8.9-.4.5v.1l-.5.6c-.3.4-.6.6-.8.6l-.3.2-.1.1-.2-.2.1-.1.3-.2c.2-.1.4-.2.7-.6l.5-.6v-.1l.4-.5.8-.9.1-.1.7-.7.5-.8.2-.4c.2.1.2 0 .2 0zM74 16.1l-.3.1h-.6l.1-.2h.4l.3-.1h.1l.1.2H74z"/><path fill="none" stroke="#111" stroke-width=".251" d="M77.9 17.2l1.1-.8m1.3 2.4l-1.4.9c-.5.3-1 .6-1.3.6l2.7-1.5z"/><path fill="none" stroke="#111" stroke-width=".215" stroke-linecap="round" stroke-linejoin="round" d="M67.5 21.4s.8-1.5 1.3-2l.4-.4s-.4-.2-.2-.7c.1-.6.3-.8.5-1.1l.3-.7"/><path fill="#111" fill-rule="evenodd" clip-rule="evenodd" d="M74.4 16.6l-.1-.2h.1l.4-.1.5-.1.5.1.5.5v.6l-.2.3-.3.3-.3.3-.2.3-.2-.1.2-.3.3-.3.3-.3.2-.2c.1-.1.1-.3 0-.4l-.4-.4c-.1 0-.2-.1-.4 0l-.4.1-.4.1-.1-.2z"/><path fill="#111" fill-rule="evenodd" clip-rule="evenodd" d="M74.9 15.1l.1-.2.1.1v.5l-.1.3-.1.1-.3.4-.2.2-.2.2-.1.1-.1.1-.1.2-.2-.1.1-.2.1-.1.1-.1.2-.2.2-.2.3-.4.1-.1.2-.3-.1-.3zm0 0zm0 0zm5.1 4.2l.5-.2.2-.1-.1-.2-.2.1-.5.2-.8.4-.4.2-.1.1.1.2.1-.1.4-.2.8-.4zm-6.6 7.1l.2-.1v.1l.1.2.2.5-.2.1-.2-.4-.1-.4zm-.5-2.5l.2-.2.2.1.4.2c.3.1.5.3.5.4l-.2.3c0-.1-.1-.2-.4-.3-.2 0-.3-.2-.5-.3l-.2-.2zm1.9.5l-.5-.3.1-.2.5.3-.1.2z"/><path fill="#111" fill-rule="evenodd" clip-rule="evenodd" d="M74.8 24.3l-.2-.2-.3-.2-.3-.2h-.1l-.1.2h.1l.2.1.3.2.1.1v.3l-.5.3-.8-.2-.2-.2-.1-.1-.2.1.1.1.3.2c.2.2.6.3 1 .2.4-.1.6-.2.7-.4v-.3zm-2.4 1.1l-.7-.7.2-.2.7.7-.2.2z"/><path fill="#111" fill-rule="evenodd" clip-rule="evenodd" d="M73.3 25.4l-.1.4c-.1.2-.3.2-.5.2l-.6-.2-.5-.3-.2-.1.1-.2.1.1.5.3.5.2.3-.1.1-.3-.1-.4-.1-.3-.1-.1.2-.1.1.1.1.3c.2.2.2.4.2.5z"/><path fill="#111" fill-rule="evenodd" clip-rule="evenodd" d="M71.7 25.6c.1.2.1.5-.2.7l-.5.1-.4-.2-.3-.3-.1-.1.2-.1.1.1.3.3.4.2h.3c.2-.1.2-.3.1-.5l-.1-.3v-.1l.2-.1v.1c-.1-.1 0 .1 0 .2z"/><path fill="#111" fill-rule="evenodd" clip-rule="evenodd" d="M70.3 25.7c0 .2 0 .4-.2.5-.2.2-.5.1-.7 0l-.2-.1-.1-.1.2-.2h.1l.2.1c.2.1.3.1.4 0l.2-.3-.2-.3.2-.2.1.6zm2.6.1l.2-.1v.1l.2.2.4.5.2.3.1.1-.1.1-.1-.1-.2-.3-.4-.5-.2-.2-.1-.1zm2.1-1.5l.3.1c.2 0 .3.1.4.3l.1.2.2.2.4.2.2.1h.1l-.1.2h-.1l-.2-.1-.4-.3-.2-.2-.1-.1-.3-.2-.3-.1h-.1l.1-.2v-.1c-.1 0-.1 0 0 0-.1 0-.1 0 0 0zm3.1-1.5l-1 .1v-.2l1-.1v.2z"/><path fill="#111" fill-rule="evenodd" clip-rule="evenodd" d="M75.4 22.9v-.2h.1l.3.1c.2.1.4.3.5.7l.1.4v.3l-.1.2-.2.1H75v-.2h1l.2-.1v-.3l-.1-.4c0-.3-.2-.4-.4-.5l-.3-.1z"/><path fill="#111" fill-rule="evenodd" clip-rule="evenodd" d="M75.8 21.6v-.2h.5l.5.1.4.2.3.4-.1.4c-.2.2-.5.3-.8.3h-1.3v-.2l-.1.2v-.2h1.4l.6-.2.1-.2-.2-.3-.3-.2-.4-.1h-.6z"/><path fill="#111" fill-rule="evenodd" clip-rule="evenodd" d="M75.7 20v-.2h1l.7.2.3.2.1.3c0 .5-.5.8-.9 1l-.6.2h-.5v-.2h.4l.5-.1c.4-.1.7-.4.8-.8l-.1-.2-.2-.1c0-.3-.3-.3-.5-.3h-1c.1 0 0 0 0 0z"/><path fill="#111" fill-rule="evenodd" clip-rule="evenodd" d="M76.3 18.2V18h.1l.3.1.3.2.1.4c0 .3-.2.4-.3.6l-.2.1-.2.1-.4.3-.1.1h-.1l-.1-.2h.1l.1-.1.4-.3.2-.1.2-.1.2-.4-.1-.2-.2-.1-.2-.1-.1-.1zm-.9 5.5l-.8-.5.1-.2.8.5-.1.2zm-.1-1.5h-.2V22h.3l.5.1h.7l.1.2h-.9l-.5-.1c.1 0 0 0 0 0zm-.2-1.5l.1-.2.1.1.4.1c.3.1.7 0 1-.2l.2.2c-.4.3-.8.4-1.2.3l-.4-.1-.2-.2z"/></svg>