<svg viewBox="0 0 48 48" width="48" height="48" xmlns="http://www.w3.org/2000/svg"><path d="M12.702 15.434l-1.954-9.022 1.434-.36-1.434.36L9.185 1.95c.866.259 1.563-.393 1.98.52.045-.201.195-.15.228-.345.195 1.145 1.362 1.062-.117 3.237l.091.04c.84-1.46.919-.808 1.473-1.37.07.34.246.463.07.75.907.04 1.187 2.274.117 2.697.093.357-.078.448-.07.73-.515-.548-1.161-.117-1.669-.75.286 1.451 1.81 2.391 3.406 2.098 1.596-.293 2.657-1.708 2.373-3.159-.246.769-1.004.6-1.283 1.29-.099-.261-.287-.286-.333-.651-1.146-.013-1.687-2.195-.86-2.561-.265-.202-.143-.384-.194-.723.716.326.56-.313 1.862.75l.072-.071c-2.162-1.498-1.042-1.91-1.27-2.978.104.17.221.072.332.243-.052-.776.906-.75 1.245-1.2.443.351 1.367.098 1.497.86.073-.196.21-.125.267-.313.053 1.159 1.226 1.218-.507 3.198l.085.046c1.01-1.343 1.01-.684 1.629-1.174.026.34.19.481-.02.749.893.15.898 2.404-.216 2.69.046.365-.13.436-.163.717-.443-.607-1.134-.255-1.556-.945.237 1.772 1.73 2.957 3.335 2.648 1.345-.258 2.377-1.502 2.495-3.004-.338.736-1.07.476-1.433 1.128-.066-.275-.249-.32-.249-.691-1.14-.15-1.406-2.385-.54-2.645-.24-.234-.097-.397-.11-.743.67.41.593-.241 1.76.97l.077-.058c-1.962-1.753-.807-1.955-.893-3.114.078.182.21.098.3.28.04-.775.99-.632 1.382-1.036.39.404 1.342.26 1.38 1.037.09-.183.222-.099.299-.281-.084 1.16 1.069 1.36-.892 3.114l.078.059c1.166-1.212 1.088-.56 1.758-.971-.013.346.131.508-.11.743.866.26.6 2.495-.542 2.645 0 .372-.18.416-.246.691-.366-.652-1.095-.392-1.434-1.128.142 1.793 1.565 3.157 3.18 3.047 1.354-.094 2.45-1.205 2.65-2.688-.424.69-1.113.337-1.556.944-.033-.28-.209-.351-.163-.716-1.115-.287-1.108-2.54-.215-2.69-.21-.268-.047-.411-.02-.75.619.49.619-.169 1.628 1.174l.084-.046c-1.733-1.981-.56-2.039-.508-3.198.058.188.196.116.267.313.13-.762 1.057-.509 1.499-.86.34.45 1.296.425 1.245 1.2.11-.17.228-.072.333-.242-.228 1.14.891 1.48-1.271 2.978l.072.07c1.303-1.06 1.146-.423 1.862-.748-.052.338.072.52-.195.723.827.366.287 2.547-.86 2.56-.045.365-.235.39-.332.652-.28-.69-1.036-.522-1.284-1.29-.284 1.451.778 2.866 2.373 3.159 1.596.293 3.12-.646 3.404-2.098-.507.632-1.153.202-1.667.749.008-.281-.163-.372-.072-.73-1.069-.422-.788-2.658.117-2.696-.175-.287 0-.41.072-.75.553.56.632-.09 1.472 1.369l.092-.04c-1.479-2.174-.314-2.092-.118-3.236-.163.194.184.142.228.344.416-.912 1.114-.26 1.98-.52l-1.56 4.459-1.434-.36 1.434.36-1.954 9.022h-22.15zm-.502-2.279a58.595 58.595 0 0123.152 0H12.2zm2.086-.38l.293 1.453-.293-1.452zm1.692-1.765l.243 1.473-.243-1.473zm2.105 1.273l.183 1.484-.183-1.484zm1.746-1.657l.118 1.492-.118-1.492zm7.778 1.492l.118-1.492-.118 1.492zm1.682 1.65l.183-1.485-.183 1.484zm2.045-1.285l.24-1.473-.24 1.473zm1.641 1.746l.293-1.452-.293 1.452z" fill="#FEC906"/><path d="M34.852 15.5l-.014-.001a.065.065 0 01-.05-.078l.48-2.217c-.649-.13-1.296-.248-1.949-.356l-.28 1.394a.064.064 0 11-.126-.025l.28-1.39c-1.22-.2-2.442-.36-3.663-.482l-.177 1.43a.064.064 0 01-.072.056.065.065 0 01-.056-.074l.175-1.425a58.088 58.088 0 00-11.244 0l.175 1.425a.064.064 0 01-.056.074.065.065 0 01-.073-.057l-.176-1.43a58.481 58.481 0 00-3.662.482l.28 1.391a.064.064 0 01-.052.077.065.065 0 01-.076-.052l-.282-1.394c-.65.108-1.299.225-1.947.356l.48 2.217a.065.065 0 11-.127.028l-.487-2.252a.056.056 0 01-.014-.028.051.051 0 010-.03l-1.452-6.707L9.123 1.97a.066.066 0 01.014-.066.064.064 0 01.066-.017c.313.095.613.064.876.036.413-.043.804-.084 1.083.399a.368.368 0 01.08-.077c.045-.035.075-.058.085-.131a.067.067 0 01.065-.054c.033 0 .06.023.065.054.056.332.196.556.33.77.265.423.5.799-.012 1.781.245-.3.404-.351.569-.404a.93.93 0 00.447-.272c.016-.018.042-.024.065-.017s.04.025.046.049c.021.098.053.181.08.254.057.147.106.278.03.455.356.076.64.475.737 1.051.11.651-.048 1.46-.645 1.737.04.197 0 .316-.036.432a.706.706 0 00-.046.257.067.067 0 01-.04.062.063.063 0 01-.073-.015c-.232-.246-.49-.281-.763-.318-.249-.034-.502-.069-.74-.262.386 1.284 1.8 2.09 3.276 1.82.792-.146 1.495-.592 1.925-1.223.336-.495.486-1.07.428-1.637-.151.267-.378.392-.599.513-.241.131-.468.256-.593.567a.064.064 0 01-.06.04.065.065 0 01-.06-.043c-.037-.096-.085-.155-.138-.22-.076-.094-.156-.191-.19-.392-.656-.044-1.093-.741-1.225-1.386-.117-.575.003-1.049.308-1.25-.136-.136-.135-.275-.134-.434a1.523 1.523 0 00-.014-.266.065.065 0 01.025-.061.063.063 0 01.066-.009c.246.113.378.105.516.096.175-.01.345-.02.687.178-.849-.755-.758-1.217-.662-1.702.048-.242.099-.493.033-.798-.005-.031.01-.062.04-.073.03-.012.063-.002.079.025.04.065.078.077.13.094a.39.39 0 01.084.033c.045-.415.403-.585.723-.736.214-.101.415-.197.533-.354a.07.07 0 01.044-.026.063.063 0 01.048.014c.155.122.373.166.605.213.35.07.738.149.88.539.027-.024.055-.038.079-.054.048-.029.078-.048.1-.118.01-.03.04-.049.07-.045.032.005.056.03.057.061.015.336.127.574.234.805.211.45.4.849-.22 1.756.275-.26.438-.29.607-.32.137-.027.267-.05.478-.216a.06.06 0 01.066-.009.06.06 0 01.038.054c.009.1.03.186.048.262.039.151.071.284-.026.453.346.118.578.551.605 1.138.028.659-.23 1.44-.855 1.64a.775.775 0 01-.09.428.763.763 0 00-.079.25.065.065 0 01-.048.055.066.066 0 01-.07-.026c-.197-.27-.448-.336-.713-.405-.234-.063-.476-.125-.68-.333.162.776.588 1.452 1.19 1.887a2.597 2.597 0 002.023.451c1.236-.236 2.194-1.31 2.409-2.658-.178.212-.401.302-.62.389-.254.102-.494.197-.657.488a.065.065 0 01-.066.034.068.068 0 01-.056-.05c-.024-.099-.064-.165-.106-.236a.752.752 0 01-.14-.414c-.645-.122-.996-.864-1.048-1.519-.047-.587.13-1.045.46-1.207-.118-.153-.102-.29-.082-.446.01-.078.02-.165.016-.267a.061.061 0 01.033-.059.058.058 0 01.066.001c.229.14.36.149.5.157.17.012.336.022.643.249-.728-.827-.591-1.248-.435-1.72.08-.242.162-.493.137-.828a.07.07 0 01.049-.068.064.064 0 01.074.037c.03.07.064.085.114.107.025.012.053.024.082.045.092-.407.47-.53.806-.642.226-.074.437-.145.573-.284a.066.066 0 01.092 0c.137.139.35.21.574.284.335.11.713.235.806.642.028-.021.057-.033.08-.045.052-.022.085-.038.115-.107a.066.066 0 01.074-.037.068.068 0 01.05.068c-.025.336.058.587.137.828.156.472.294.893-.434 1.72.307-.227.472-.237.646-.249a.919.919 0 00.499-.157.063.063 0 01.066-.001c.02.012.033.035.031.059-.002.102.007.19.017.267.02.155.036.293-.08.446.327.162.506.621.46 1.207-.055.655-.404 1.396-1.05 1.52a.772.772 0 01-.139.413.742.742 0 00-.108.237.065.065 0 01-.054.049.064.064 0 01-.066-.034c-.163-.291-.405-.386-.66-.488-.217-.087-.442-.177-.618-.388.258 1.61 1.585 2.801 3.078 2.7 1.25-.087 2.267-1.05 2.545-2.38-.206.208-.448.27-.682.333-.266.07-.516.134-.714.406a.064.064 0 01-.07.025.065.065 0 01-.048-.055c-.012-.104-.046-.174-.08-.25a.76.76 0 01-.088-.428c-.628-.2-.885-.98-.855-1.64.026-.587.257-1.02.604-1.137-.097-.17-.063-.302-.026-.454.019-.074.04-.16.048-.262a.062.062 0 01.038-.054.067.067 0 01.069.009c.21.167.34.19.477.216.167.03.331.06.606.32-.619-.907-.43-1.307-.22-1.755.107-.232.22-.47.235-.806a.064.064 0 01.057-.061.064.064 0 01.07.046c.023.07.053.088.1.117.026.016.052.03.079.054.14-.39.53-.469.88-.539.23-.046.45-.09.604-.213a.063.063 0 01.048-.013.06.06 0 01.045.025c.116.157.319.252.531.354.32.151.678.321.723.737a.39.39 0 01.085-.034c.053-.017.09-.029.13-.094a.061.061 0 01.079-.025c.03.011.047.042.04.072-.067.33-.016.588.033.838.096.49.181.922-.652 1.657.337-.192.504-.182.677-.171.14.008.27.016.515-.096a.063.063 0 01.066.008c.02.013.029.037.025.061-.015.101-.014.189-.014.267.002.158.005.297-.131.434.305.2.425.675.307 1.25-.13.644-.569 1.341-1.225 1.385-.034.2-.113.297-.19.393-.051.065-.1.125-.137.22a.065.065 0 01-.06.042.066.066 0 01-.06-.04c-.127-.31-.355-.434-.595-.567-.22-.12-.447-.244-.6-.513a2.472 2.472 0 00.43 1.637c.43.631 1.13 1.077 1.924 1.223 1.474.27 2.89-.534 3.275-1.82-.237.193-.491.228-.738.262-.273.037-.532.072-.763.318a.067.067 0 01-.072.015.066.066 0 01-.04-.062.76.76 0 00-.047-.257c-.036-.115-.075-.235-.036-.432-.598-.278-.755-1.087-.646-1.736.097-.578.382-.976.738-1.052-.078-.177-.027-.308.03-.454.027-.074.058-.155.08-.255a.062.062 0 01.045-.049.062.062 0 01.065.017c.19.19.314.23.446.272.166.053.324.103.572.405-.514-.984-.278-1.359-.014-1.781.114-.181.23-.369.3-.62l-.01-.026c-.012-.064.027-.119.057-.155.02-.021.05-.029.077-.017s.043.041.037.07c-.005.031-.012.062-.018.092.013.008.028.015.042.022.043.02.094.046.135.086.278-.496.673-.456 1.09-.412.262.027.562.058.877-.036.024-.008.049 0 .066.016a.064.064 0 01.013.066l-1.562 4.46-1.453 6.707c.003.01.004.02.001.03a.04.04 0 01-.015.028l-.488 2.251c-.002.03-.03.052-.058.052zm-3.444-3.067a58.37 58.37 0 013.887.644l1.433-6.616-1.37-.345a.065.065 0 01-.05-.063c0-.005 0-.011.003-.016a.063.063 0 01.078-.048l1.375.345 1.504-4.292c-.293.064-.564.035-.808.01-.448-.046-.77-.08-1.012.445a.065.065 0 01-.066.038.066.066 0 01-.057-.05c-.012-.055-.062-.083-.134-.12l-.019-.009c-.074.243-.192.429-.299.598-.31.495-.553.885.458 2.373.01.016.014.037.008.055a.066.066 0 01-.037.04l-.093.04a.064.064 0 01-.081-.027c-.523-.909-.737-.977-.964-1.05-.116-.036-.246-.077-.418-.227-.019.061-.038.114-.057.163-.063.16-.099.257.005.427.013.02.013.045.003.065a.065.065 0 01-.055.034c-.337.015-.618.39-.713.955-.104.62.043 1.388.616 1.616a.065.065 0 01.04.076c-.051.196-.017.298.02.416.015.05.032.1.042.158.235-.195.49-.228.738-.263.298-.04.577-.078.824-.387a.065.065 0 01.078-.019.068.068 0 01.038.072c-.292 1.485-1.853 2.448-3.482 2.15-.828-.153-1.56-.618-2.009-1.279a2.58 2.58 0 01-.416-1.957.064.064 0 01.06-.053.065.065 0 01.066.046c.12.374.368.511.63.655.218.119.443.243.593.507.03-.05.062-.09.096-.13a.66.66 0 00.171-.382.065.065 0 01.064-.056c.614-.007 1.028-.67 1.154-1.284.117-.563-.01-1.015-.319-1.151a.066.066 0 01-.037-.052.063.063 0 01.025-.06c.159-.12.157-.223.156-.393a1.747 1.747 0 01.003-.176c-.213.08-.352.072-.474.065-.237-.014-.461-.027-1.271.633a.066.066 0 01-.09-.005l-.07-.072a.064.064 0 01-.018-.052c0-.019.01-.037.028-.048 1.477-1.025 1.388-1.476 1.276-2.047a2.393 2.393 0 01-.06-.713.423.423 0 01-.054.02c-.052.015-.09.027-.134.093a.062.062 0 01-.073.026.064.064 0 01-.045-.066c.03-.439-.3-.596-.651-.763-.197-.094-.401-.19-.54-.343-.173.113-.393.157-.609.201-.38.077-.739.15-.813.581a.067.067 0 01-.058.054.066.066 0 01-.067-.043c-.028-.077-.064-.097-.11-.126-.015-.008-.032-.018-.047-.03-.042.274-.14.487-.23.678-.248.528-.445.946.74 2.3.013.013.019.033.015.054a.065.065 0 01-.033.045l-.086.046a.065.065 0 01-.082-.018c-.628-.836-.849-.875-1.082-.918-.12-.023-.255-.048-.444-.176-.012.064-.025.12-.037.17-.042.164-.066.264.058.422.013.018.017.042.008.064s-.027.036-.05.04c-.334.056-.567.464-.59 1.041-.027.625.215 1.37.81 1.523a.064.064 0 01.049.07c-.027.201.02.3.072.414.021.046.044.096.06.15.21-.221.457-.286.698-.349.288-.074.56-.147.768-.484a.063.063 0 01.076-.027c.03.011.048.04.044.07-.203 1.52-1.318 2.648-2.71 2.744a3.209 3.209 0 01-.186.006c-1.57 0-2.926-1.356-3.064-3.113 0-.03.017-.06.048-.067a.068.068 0 01.077.035c.166.36.427.466.705.575.231.092.469.187.65.43.023-.052.052-.098.078-.14.066-.108.123-.199.123-.402 0-.033.025-.06.057-.063.607-.08.939-.786.989-1.41.047-.576-.134-1.01-.46-1.11-.022-.005-.038-.025-.044-.046a.064.064 0 01.018-.063c.143-.138.13-.24.108-.409a2.234 2.234 0 01-.017-.175c-.201.104-.338.113-.462.121-.236.015-.46.03-1.187.784a.065.065 0 01-.086.007l-.078-.057a.064.064 0 01-.025-.05.065.065 0 01.02-.051c1.342-1.2 1.199-1.637 1.015-2.193-.066-.202-.14-.424-.149-.698a.282.282 0 01-.05.025c-.05.023-.088.04-.122.11a.062.062 0 01-.072.033.063.063 0 01-.05-.06c-.024-.44-.37-.555-.739-.677-.207-.069-.421-.14-.578-.273-.155.134-.37.204-.579.273-.368.122-.715.236-.738.677a.064.064 0 01-.051.06.063.063 0 01-.072-.034c-.036-.07-.074-.086-.123-.11a.985.985 0 01-.05-.024c-.009.274-.08.498-.148.698-.182.555-.326.994 1.014 2.193a.066.066 0 01-.003.1l-.078.058a.064.064 0 01-.087-.007c-.725-.755-.949-.77-1.187-.784a.995.995 0 01-.46-.121c-.004.065-.011.122-.017.175-.022.17-.034.271.109.41.017.016.022.04.017.062a.061.061 0 01-.045.045c-.325.099-.505.535-.458 1.11.05.623.38 1.33.989 1.41a.065.065 0 01.057.064c0 .204.058.296.123.401.026.043.054.089.078.142.18-.244.419-.34.649-.431.279-.11.54-.215.706-.575a.066.066 0 01.077-.035.062.062 0 01.048.067c-.117 1.539-1.163 2.8-2.544 3.064a2.725 2.725 0 01-2.123-.474c-.696-.5-1.166-1.313-1.288-2.227a.063.063 0 01.042-.07.065.065 0 01.076.027c.208.337.48.41.77.484.24.063.487.128.697.35.018-.057.04-.105.061-.152a.653.653 0 00.073-.412.063.063 0 01.048-.071c.596-.154.84-.898.812-1.523-.024-.576-.257-.984-.59-1.04a.068.068 0 01-.051-.041.067.067 0 01.01-.064c.123-.158.098-.258.057-.421-.013-.052-.028-.107-.037-.17-.189.127-.323.152-.444.175-.234.043-.454.082-1.083.918a.065.065 0 01-.083.018l-.083-.046a.069.069 0 01-.034-.046.066.066 0 01.016-.054c1.184-1.353.987-1.77.739-2.299-.09-.19-.19-.404-.23-.678a.35.35 0 01-.049.03c-.045.029-.082.05-.11.126a.066.066 0 01-.066.043.065.065 0 01-.058-.054c-.074-.433-.434-.504-.815-.58-.214-.044-.436-.088-.608-.202-.138.153-.342.248-.54.343-.35.167-.68.324-.65.763a.067.067 0 01-.044.066.063.063 0 01-.074-.026c-.042-.066-.08-.078-.135-.094-.015-.006-.034-.01-.054-.019.024.252-.018.466-.06.673-.111.568-.208 1.058 1.276 2.087.017.011.027.03.028.048s-.005.039-.02.052l-.071.072a.066.066 0 01-.088.005c-.81-.66-1.033-.647-1.272-.633-.123.007-.26.015-.473-.065.004.065.004.123.004.176-.003.17-.004.274.154.393a.067.067 0 01.026.06.062.062 0 01-.039.052c-.31.137-.434.588-.319 1.15.125.614.54 1.278 1.155 1.285.032 0 .06.025.063.056.025.202.093.285.17.382.034.04.067.08.098.13.149-.264.373-.387.591-.507.262-.143.51-.28.63-.655a.066.066 0 01.066-.046c.03.001.054.023.06.053a2.572 2.572 0 01-.416 1.957c-.449.66-1.18 1.126-2.008 1.279-.201.036-.4.054-.595.054-1.398 0-2.63-.902-2.887-2.204-.006-.029.01-.059.037-.072s.06-.005.078.02c.248.308.528.346.825.386.248.033.502.068.737.263.011-.058.028-.108.042-.158.038-.118.07-.22.02-.416a.066.066 0 01.04-.076c.573-.228.723-.997.616-1.616-.095-.567-.374-.94-.713-.955-.024-.002-.044-.014-.055-.034s-.01-.046.001-.065c.104-.17.067-.266.006-.427-.02-.05-.04-.102-.056-.163-.17.15-.302.19-.42.228-.225.072-.438.14-.962 1.049a.065.065 0 01-.081.027l-.091-.04a.059.059 0 01-.036-.04.06.06 0 01.007-.055c1.011-1.487.765-1.879.457-2.373-.112-.179-.236-.378-.31-.643l-.045.037c-.043.035-.077.06-.095.137a.063.063 0 01-.058.05.065.065 0 01-.064-.038c-.24-.526-.564-.491-1.013-.445-.243.025-.515.054-.808-.01l1.503 4.292 1.375-.345a.066.066 0 01.08.048l.001.016c0 .029-.02.056-.049.063l-1.371.344 1.434 6.616a58.37 58.37 0 013.887-.645l-.23-1.41a.064.064 0 01.052-.074.062.062 0 01.075.053l.231 1.413a57.765 57.765 0 013.602-.354l-.113-1.428c-.003-.036.024-.066.06-.07s.068.025.07.06l.112 1.431a58.142 58.142 0 017.542 0l.113-1.43a.065.065 0 01.07-.06c.036.003.063.033.06.07l-.111 1.427c1.201.08 2.401.198 3.601.354L31.51 11a.063.063 0 01.074-.053c.035.005.06.04.054.074l-.23 1.411z" fill="#010202"/><path d="M22.279 4.816h2.995-2.995zm1.499-1.564v1.302-1.302z" fill="#FEC906"/><path d="M25.275 4.88H22.28a.065.065 0 01-.065-.064c0-.036.029-.065.065-.065h2.995c.037 0 .065.029.065.065a.065.065 0 01-.065.064zm-1.498-.26a.066.066 0 01-.065-.066V3.252c0-.036.03-.065.065-.065s.065.029.065.065v1.302a.066.066 0 01-.065.066z" fill="#010202"/><path d="M23.778 4.132a.554.554 0 110 1.109.554.554 0 010-1.11z" fill="#FEC906"/><path d="M23.778 5.304a.62.62 0 010-1.238.62.62 0 010 1.238zm0-1.108a.49.49 0 000 .979.49.49 0 000-.978zM14.196 10.598c-1.273 0-2.652-.67-3.094-2.247a.065.065 0 01.046-.08c.035-.01.07.01.08.046.456 1.635 1.972 2.251 3.273 2.138 1.234-.109 2.743-.953 2.939-2.974a.064.064 0 01.06-.058.065.065 0 01.068.048c.369 1.404 1.415 2.301 2.734 2.346 1.512.048 2.855-1.001 3.414-2.675a.062.062 0 01.062-.045c.027 0 .052.017.06.045.56 1.674 1.9 2.723 3.415 2.675 1.319-.045 2.367-.942 2.734-2.346a.065.065 0 01.127.01c.196 2.021 1.705 2.865 2.94 2.974 1.3.114 2.816-.503 3.273-2.138a.066.066 0 01.08-.046c.034.01.054.046.045.08-.44 1.577-1.82 2.247-3.093 2.247-.105 0-.211-.005-.314-.013-1.22-.108-2.7-.907-3.02-2.79-.445 1.292-1.482 2.11-2.766 2.15-1.52.052-2.87-.96-3.48-2.59-.597 1.59-1.896 2.591-3.374 2.591h-.107c-1.284-.042-2.322-.859-2.767-2.151-.32 1.883-1.799 2.682-3.02 2.79-.105.008-.21.013-.315.013z" fill="#010202"/><path d="M11.751 11.037a58.67 58.67 0 0124.052 0c.26.066.13.737-.13.672a58.665 58.665 0 00-23.792 0c-.259.065-.39-.606-.13-.672zm.92 4.268c-.261.064-.411-.64-.15-.705a58.628 58.628 0 0122.514 0c.26.065.11.77-.15.705" fill="#FEC906"/><path d="M34.919 15.373a.252.252 0 01-.052-.006.066.066 0 01-.048-.078.066.066 0 01.08-.048c.013.004.05.012.1-.044a.504.504 0 00.088-.188c.036-.148.022-.323-.07-.345a58.313 58.313 0 00-22.485 0c-.086.022-.102.197-.064.345.019.077.051.146.086.188.05.056.086.048.1.044a.064.064 0 01.078.048.064.064 0 01-.047.078c-.083.02-.163-.01-.23-.086a.604.604 0 01-.113-.24c-.056-.218-.016-.461.162-.506a58.459 58.459 0 0122.54 0c.183.045.22.287.167.504a.622.622 0 01-.115.24.231.231 0 01-.177.094zm-23.073-3.595a.228.228 0 01-.17-.083.525.525 0 01-.11-.225c-.054-.21-.013-.451.17-.497h.003c3.952-.828 8.001-1.248 12.038-1.248s8.088.42 12.04 1.248c.183.046.225.286.172.497a.54.54 0 01-.11.225c-.064.07-.142.096-.222.077a58.208 58.208 0 00-23.762 0 .236.236 0 01-.05.006zm-.08-.677c-.093.024-.11.194-.075.34a.38.38 0 00.08.166c.046.05.081.04.094.037 3.911-.81 7.92-1.22 11.911-1.22 3.993 0 8 .41 11.91 1.22.014.004.05.014.095-.037a.38.38 0 00.08-.167c.038-.145.019-.316-.074-.34a58.212 58.212 0 00-24.02 0z" fill="#010202"/><path d="M21.562 14.288v-2.827a2.215 2.215 0 014.43 0v2.828l-4.43-.001zm.716-.026V11.46a1.498 1.498 0 112.997 0v2.802" fill="#FEC906"/><path d="M25.992 14.353a.065.065 0 01-.065-.065v-2.827c0-1.185-.965-2.15-2.15-2.15s-2.149.965-2.149 2.15v2.828a.065.065 0 11-.13 0v-2.828c0-1.257 1.023-2.28 2.28-2.28s2.28 1.023 2.28 2.28v2.828a.066.066 0 01-.066.064zm-.716-.025a.066.066 0 01-.065-.066V11.46c0-.79-.643-1.433-1.433-1.433s-1.434.642-1.434 1.433v2.802c0 .036-.03.066-.065.066s-.065-.03-.065-.066v-2.802a1.564 1.564 0 013.126 0v2.802a.065.065 0 01-.064.065z" fill="#010202"/><path d="M23.126 8.92h1.302l-.196 1.173h-.91l-.196-1.173z" fill="#FEC906"/><path d="M24.234 10.159h-.91a.066.066 0 01-.066-.054l-.195-1.172c-.004-.02.003-.039.015-.053s.032-.023.05-.023h1.302c.019 0 .036.008.049.023.014.014.02.033.015.053l-.195 1.172a.068.068 0 01-.065.054zm-.857-.13h.802l.173-1.044h-1.149l.174 1.043z" fill="#010202"/><path d="M23.778 14.425a.065.065 0 01-.065-.065v-4.248c0-.036.029-.065.065-.065s.065.029.065.065v4.248a.065.065 0 01-.065.065z" fill="#010202"/><path d="M12.734 15.337c7.295-1.4 14.79-1.4 22.085 0H12.734z" fill="#FEC906"/><path d="M34.82 15.402l-.012-.001a58.291 58.291 0 00-22.06 0 .063.063 0 01-.076-.052.064.064 0 01.052-.075 58.396 58.396 0 0122.108 0 .065.065 0 01.052.075.065.065 0 01-.064.053z" fill="#010202"/><path d="M35.802 15.565H11.699v20.196c0 2.669 0 5.21 3.583 7.294l8.47 4.756 8.467-4.756c3.649-2.083 3.584-4.625 3.584-7.294V15.565h-.001z" fill="#fff"/><path d="M23.751 48l-8.548-4.8c-3.667-2.133-3.667-4.71-3.667-7.437V15.402h24.43v20.496c.002 2.676.003 5.204-3.664 7.299l-8.551 4.802zM11.862 15.727v20.034c0 2.63 0 5.117 3.503 7.155l8.388 4.71 8.387-4.711c3.502-2.002 3.502-4.437 3.502-7.016V15.727h-23.78z" fill="#010202"/><path d="M25.23 20.288c-.364-.176-1.022-.072-1.627-.17-1.22-.195-1.368-.54-1.368-.794-.006-.267-.249-.28-.249.006.007 1.694 2.553.828 3.276 1.264l-.032-.306zm-8.287-.58c.007-.456-.305-.75-.58-.775.164.187.196.462.223.729-.052-.378-.333-.626-.574-.639.13.137.202.418.216.69-.04-.208-.235-.522-.56-.554.15.157.195.45.228.717-.046-.228-.28-.49-.54-.507.11.09.201.422.222.677a.657.657 0 00-.502-.39c.15.136.215.469.241.73l1.626-.679zm-.488 6.893c-.078-.36-.391-.737-.743-.69.162.11.287.526.333.794-.111-.3-.386-.62-.711-.58.175.157.28.54.346.827-.177-.332-.392-.58-.71-.539.214.207.292.572.345.852-.105-.235-.346-.522-.672-.487.203.18.287.579.357.873-.13-.178-.325-.425-.63-.399.2.196.293.58.377.873l1.708-1.525zm1.043 12.75c-.346-.208-.821-.137-1.043.15.248-.046.612.09.756.21-.235-.15-.722-.06-.912.201.222-.06.58.09.768.202-.246-.084-.631-.065-.872.228.201-.046.534.065.748.19a.794.794 0 00-.78.251c.266-.057.566.099.748.184-.346-.007-.554.13-.677.272.22-.045.56.072.807.203l.457-2.092zm9.06 2.142c-.45-.058-.82.214-.93.535.123-.097.514-.157.769-.078-.353-.02-.705.267-.775.527.143-.116.6-.15.769-.077a.834.834 0 00-.717.52c.15-.098.567-.137.802-.078-.346.052-.593.3-.671.528.208-.137.481-.125.82-.105-.35.13-.468.28-.586.515.196-.125.54-.13.878-.104" fill="#E73F26"/><path d="M24.226 17.579l-1.589.058c-.08.007-.137.045-.137.136.007.575.118.946.528 1.245-.053.32-.02.482.312.75a.614.614 0 01.3-.49c.012.008.026.008.033.014-.02.116-.02.24.007.312.065.182.383.19.47.058.077.19.24.196.37.196.137 0 .202-.097.247-.188.078.066.157.135.228.228.228.313.268.716.268 1.1a12.97 12.97 0 01-.215.02v-.155c-.007-.222-.522-.261-.638-.072-.131-.143-.533-.118-.533.11v.072a1.984 1.984 0 01-.223-.365c-.162.105-.26.183-.234.553l-.21.02c.007.43.195.547 1.734.514.04.43-.392.671-.71.873-.834.475-1.715.997-2.189 1.87-.398.69-.495 1.51-.45 2.306l.456-.203.052.249c-.82.39-2.32 1.184-3.304 1.642-.24.11-.866.266-.996.045-.45-.775-.808-1.362-1.33-1.955-.267-.305-2.039 1.16-1.713 1.655.743 1.127 1.953 2.741 3.973 2.757 2.092.012 3.909-.758 4.306-.873l.085.267a7.616 7.616 0 01-.782.293c.365 1.434.79 1.992 1.772 2.865l-.202.15c-.176-.104-.476-.436-.638-.591-2.091.99-2.873 1.979-3.374 3.001-.555 1.233-.45 2.632-.215 3.93.046.214-.19.319-.365.254-.481-.11-.749-.593-1.212-.77-.208-.09-.481-.195-.71-.157-.371.066-.77 1.942-.39 2.124.703.346 1.472.418 2.254.822.515.208 1.01.548 1.595.455.333-.032.665-.259.698-.612.292-1.265.704-2.606 1.667-3.518.463-.455 1.062-.82 1.655-1.102-.236-.9-.411-1.797-.393-2.736l.287-.012c.209 3.569 1.16 4.318 2.833 5.98.17.169.158.487-.09.587-.326.162-.71.169-1.082.19-.397.018-.097 2.22.488 2.2 1.03-.032 2.1-.834 2.717-1.621.26-.325.573-.652.82-.972.307-.397-.025-.86-.116-1.224-.255-1.043-.371-4.039-.384-4.456l.366.007.051-.757c-1.087-1.348-.912-3.46-1.36-4.821-.177-.552-.372-1.127-.372-1.713 0-.794.898-2.286.879-3.616-.006-.56-.32-1.29-.313-1.622.006-.964.56-.756.547-2.763a5.879 5.879 0 00-.216-1.531c.97-1.023-.365-2.045-1.134-1.408-.62-.162-.696-.325-1.908-.325-1.037 0-1.629.28-2.273.71l.002.01zm-1.876 5.973c-.684.841-1.068 1.265-1.041 3.304-6.457-3.687-4.567-4.216-5.982-6.417-.22-.346 1.22-1.146 1.676-.809.918.678.58 1.955 1.341 2.535.755.573 2.104.826 4.006 1.387zm3.941-4.736c-.098 0-.272-.053-.326-.125-.567-.866-.71-.554-.794-.254-.074.268-.384.274-.293-.084.227-.88.846-.756 1.614.463h-.2zm1.863-.873a1.44 1.44 0 01.659-.496c.384-.13.54.184.235.287a2.11 2.11 0 00-.652.45l-.242-.241zm-5.054 1.12c.097.058.234.13.437.19a.715.715 0 00-.248.365.507.507 0 01-.189-.555zm1.042.346c0 .084-.02.17-.044.209-.066.104-.308.097-.36-.046a.51.51 0 01.007-.26c.13.031.267.059.397.097zm.077.02c.175.05.345.11.495.208-.033.078-.092.156-.21.156-.104 0-.22-.007-.286-.13-.03-.065-.017-.157 0-.235zm-.736 1.726c-.019-.182 0-.34.143-.443.072.13.15.255.242.365v.046l-.385.032zm.45-.036v-.205c0-.216.455-.202.461 0v.163l-.46.042zm.521-.049v-.182c0-.215.528-.202.528-.008v.143" fill="#010202"/></svg>