<svg baseProfile="tiny" xmlns="http://www.w3.org/2000/svg" width="48" height="48"><path fill="#DA121A" stroke="#000" stroke-width=".037" stroke-miterlimit="3.864" d="M45.6.2H2.4v27.6c.4 11.2 9.8 20 21.5 20s21.3-8.9 21.6-20V.2z"/><path fill="#FCDD09" d="M19.3 15.6c0-.3.3-.9 1-.9 0-.8-.1-2.1-.1-2.6-1.7-1-1.6-2.7-1.2-3.8l-.1-.4h-.4c-.2-.3-.2-.7.2-.9 0-.1-.1-.1-.2-.3-.1-.1-.3-.4-.3-.7-.2-.8.9-.5 1.1-.6.1-.2.5-.6 1.5-.2.6-.3.6-.2.7-.2s.4.4.1.8c.6.7 1.8 2.3 2.2 3.1 1.3-.3 4.2.2 5 .2.3 0 1-.1.9-.6-.1-.6-.8-.5-1.1-.5-1.5.3-3.4.7-3.6-.7 0-.9.6-.9 1.8-1.2.1-.1.4-.3.3-.6.6.1 1.4.8.4 1.3-.8.2-1.3 0-1.3.5 0 .2.2.5 1 .3 1-.2 3-.5 3.2.7s-1 1.7-1.6 1.9c-.7 1.2-.3 2.2 1.1 2.7v2.8h-2c-.1-.4 0-1.1 1-.8-.2-.8-.4-1.1-.4-1.2-.6 0-2.6 0-2.7-2.1-.6.6-2.7 1.4-3.8 1.5-.2.7-.6 2.2-.6 2.5h-2.1z"/><path fill-rule="evenodd" d="M21.2 5.1c-.1 0-.2.1-.5.2-.9-.3-1.3 0-1.4.1-.1 0-.1 0-.2.1h-.6c-.1 0-.2.1-.3.1 0 0-.1.1 0 .3 0 .1 0 .3.1.4s.1.2.2.3v.1c.1.1.1.2.1.2V7l-.1.1c-.2.1-.2.2-.2.4 0 .1 0 .2.1.3h.5l.2.5c-.2.5-.3 1.2-.2 1.8.1.6.5 1.3 1.3 1.8.6-.2 2.1-1.1 3.3-3.1-.5-.8-1.6-2.4-2.1-3l-.1-.1.1-.1c.1-.2.1-.3.1-.4-.2 0-.2 0-.3-.1.1 0 0 0 0 0zm0 0zm2.5 3.8c-1.2 2-2.7 2.9-3.4 3.2 0 .6.1 1.8.1 2.5v.1h-.1c-.3 0-.5.2-.7.3-.1.1-.2.3-.2.4h1.8V15c0-.2.1-.4.2-.7.1-.5.3-1.1.4-1.4l.3-.7.2.1-.3.6c.5-.1 1.2-.3 1.8-.5.7-.3 1.4-.6 1.7-.9l.2-.2v.2c0 .5.2.8.4 1.1.2.3.5.4.8.6.5.2 1 .3 1.4.3h.2v.2c0 .1 0 .1.1.2.1.2.1.4.2.7v.1l.1.2-.2-.1c-.2-.1-.4-.1-.5-.1s-.2.1-.3.1c-.1.1-.1.3-.1.5h1.8v-2.6c-.7-.3-1.1-.6-1.3-1.1-.2-.5-.1-1.1.2-1.7.3-.1.7-.3 1.1-.6.3-.3.6-.7.5-1.2 0-.3-.2-.4-.4-.6-.2-.1-.5-.2-.8-.2-.6-.1-1.4.1-1.9.2-.4.1-.7.1-.9 0-.2-.1-.3-.3-.3-.4s0-.2.1-.3c.1-.1.2-.1.3-.1h.2c.2 0 .4 0 .7-.1.2-.1.3-.2.3-.3V6l-.3-.3c-.1 0-.2-.1-.2-.1 0 .3-.3.5-.4.6h-.2c-.2 0-.4.1-.6.1-.2.1-.4.1-.5.2s-.1.1-.2.3c-.1.1-.1.3-.1.5 0 .3.2.5.4.6.2.1.5.2.8.2.6 0 1.4-.1 2.1-.2h.1c.2 0 .5-.1.7 0 .1 0 .3.1.4.2.1.1.2.2.2.4s0 .3-.1.4c-.1 0-.2.1-.3.1-.2.1-.5.1-.7.1s-.6 0-1-.1c-.4 0-.9-.1-1.4-.1-.8-.1-1.8-.1-2.4 0zm-1.6 4.3c.6-.1 1.3-.3 2-.6.6-.2 1.2-.5 1.6-.8.1.4.2.7.4 1 .2.3.5.5.9.6.5.2 1.1.3 1.5.3 0 .1 0 .1.1.2 0 .2.1.4.2.7h-.4c-.2 0-.3.1-.4.2-.2.2-.2.6-.1.8v.1h2.2v-3H30c-.7-.2-1.1-.6-1.3-1-.2-.4-.1-.9.2-1.5.3-.1.7-.3 1.1-.6s.7-.8.6-1.4c-.1-.3-.2-.6-.5-.7-.2-.2-.6-.2-.9-.3-.7-.1-1.4.1-1.9.2-.4.1-.6.1-.7 0s-.1-.1-.1-.2v-.1s.1-.1.2-.1h.2c.2 0 .5-.1.7-.1.2-.1.4-.3.5-.5s0-.4-.1-.5-.2-.3-.4-.4c-.1-.1-.3-.2-.5-.2h-.2v.2c0 .3-.2.4-.3.5h-.2c-.2 0-.4.1-.6.1-.2.1-.4.1-.6.2s-.3.2-.4.4c-.1.2-.1.3-.1.6 0 .4.2.6.5.8.2.2.6.2.9.3.7 0 1.5-.1 2.2-.2h.1c.2 0 .4-.1.6 0 .1 0 .2.1.3.1.1.1.1.1.1.2s0 .2-.1.3c0 .1-.1.1-.2.2-.2.1-.4.1-.6.1-.2 0-.5 0-1-.1-.4 0-.9-.1-1.4-.1-.9-.1-2-.1-2.6 0-.5-.8-1.5-2.3-2.1-3 .1-.2.1-.4 0-.5 0-.1-.1-.2-.1-.2l-.1-.1H21c-.1 0-.2.1-.5.2-.9-.3-1.4 0-1.6.2H18.1c-.1 0-.3.1-.4.2s-.1.3-.1.5 0 .3.1.5c.1.1.1.3.2.3v.1c0 .1 0 .1.1.1-.2.1-.2.3-.3.5 0 .2 0 .4.1.6l.1.1h.4l.1.2c-.2.5-.3 1.2-.1 1.9.1.7.5 1.4 1.4 1.9 0 .5.1 1.7.1 2.4-.3 0-.6.2-.7.4-.2.2-.2.5-.3.6v.1h2.3v-.5c0-.2.1-.4.2-.7.5-.7.5-1.2.8-1.5z"/><path fill="#FFF" d="M7.9 15.8v3.7h-1v1.2h1.2v17h8.6c0-9.2 7.3-13 7.3-13s7.2 3.8 7.3 13h8.6v-17h1.2v-1.2h-1v-3.7H37v1.7h-1.9v-1.7h-2.7v1.7h-2.5v-1.7h-2.6v1.7h-2.2v-1.7h-2.6v1.7h-2.3v-1.7h-2.6v1.7h-2.4v-1.7h-2.7v1.7h-1.9v-1.7H7.9z"/><path fill-rule="evenodd" d="M7.8 15.7h3v1.7h1.7v-1.7h3v1.7h2.1v-1.7h2.9v1.7h2v-1.7h2.9v1.7h1.9v-1.7h2.9v1.7h2.1v-1.7h3v1.7H37v-1.7h3.2v3.7h1v1.4H40v17h-8.9v-.1c0-4.5-1.8-7.8-3.6-9.8-.9-1-1.8-1.8-2.5-2.3-.3-.2-.6-.4-.8-.5 0-.1-.1-.1-.1-.1-.1 0-.1.1-.2.1-.2.1-.5.3-.8.5-.7.5-1.6 1.2-2.5 2.3-1.8 2.1-3.6 5.3-3.6 9.8v.1H8.1v-17H6.8v-1.4h1v-3.7zm16.1 9.1l.1-.1h.1c.1 0 .1.1.2.1.2.1.5.3.8.6.7.5 1.6 1.3 2.5 2.3 1.8 2.1 3.6 5.3 3.7 9.9h8.3v-17h1.2v-.9h-1V16h-2.7v1.7h-2.2V16h-2.5v1.7h-2.7V16h-2.4v1.7H25V16h-2.3v1.7h-2.5V16H18v1.7h-2.7V16h-2.5v1.7h-2.2V16H8.1v3.7h-1v.9h1.2v17h8.3c.1-4.6 1.9-7.8 3.7-9.9.9-1.1 1.8-1.8 2.5-2.3.3-.3.6-.4.8-.6.1-.1.2-.1.2-.1s0 .1.1.1c0-.2 0-.2 0 0zm0 0l-.1-.1h.2l-.1.1z"/><path fill="#FCDD09" stroke="#000" stroke-width=".021" stroke-miterlimit="3.864" d="M28.6 31.8h-9v5.8c.1 2.3 2 4.2 4.5 4.2 2.4 0 4.4-1.9 4.5-4.2v-5.8h0z"/><path fill="#078930" stroke="#000" stroke-width=".014" stroke-miterlimit="3.864" d="M23.7 34.8h.8c0-1 .8-1.8 1.8-1.8s1.8.8 1.8 1.8-.8 1.8-1.8 1.8c-.4 0-.8-.1-1.1-.3l-.3.5a1.793 1.793 0 01-.8 3.4 1.793 1.793 0 01-.8-3.4l-.3-.5c-.3.3-.7.4-1.1.4-1 0-1.8-.8-1.8-1.8s.8-1.8 1.8-1.8c.9 0 1.8.9 1.8 1.7h0z"/><path fill="#FCDD09" stroke="#000" stroke-width=".014" stroke-miterlimit="3.864" d="M21.6 34.8l2.5.8 2.7-.8-2.3 1.2-.3 2.4-.3-2.4-2.3-1.2h0z"/><path fill="#FFF" d="M8.9 4.6v2.9h.8v8.4h.9v1.7h1.9v-1.7h2.7v1.7h1.2V7.5h.5V4.6h-1.7v1.2h-1.5V4.6h-1.9v1.2h-1.3V4.6H8.9z"/><path fill-rule="evenodd" d="M10.6 17.8h2.2V16h2.5v1.7h1.4V7.6h.5V4.5h-2v1.2H14V4.5h-2.2v1.2h-1V4.5H8.9v.1h-.1v3h.8V16h.9l.1 1.8zm-1.5-13h1.4V6H12V4.8h1.6V6h1.8V4.8h1.4v2.6h-.5v10.1h-.9v-1.7h-3v1.7h-1.7v-1.7h-1V7.3h-.6V4.8z"/><path fill="none" stroke="#000" stroke-width=".021" stroke-miterlimit="3.864" d="M9.8 7.5h6.8"/><path fill-rule="evenodd" d="M13.2 14V9.3h-.3V14h.3z"/><path fill="#FFF" d="M38.8 4.6v2.9H38v8.4h-.9v1.7h-1.9v-1.7h-2.7v1.7h-1.2V7.4h-.5V4.6h1.7v1.2H34V4.6h1.9v1.2h1.3V4.6h1.6z"/><path fill-rule="evenodd" d="M31.2 17.6h1.4V16h2.5v1.7h2.2V16h.9V7.6h.8v-3h-.1v-.2h-1.8v1.2h-1V4.4h-2.2v1.2h-1.2V4.4h-2v3.1h.5v10.1zm7.5-12.9v2.6h-.8v8.4H37v1.7h-1.7v-1.7h-3v1.7h-.9V7.3h-.5V4.7h1.4v1.2h1.8V4.7h1.6v1.2h1.5V4.7h1.5z"/><path fill="none" stroke="#000" stroke-width=".021" stroke-miterlimit="3.864" d="M37.9 7.4h-6.8"/><path fill-rule="evenodd" d="M34.8 13.9V9.2h-.3v4.7h.3z"/><path fill="none" stroke="#000" stroke-width=".021" stroke-miterlimit="3.864" d="M7.9 19.6H40M7.9 20.8H40"/><path fill="none" stroke="#000" stroke-width=".014" stroke-miterlimit="3.864" d="M33.3 37.8c-.3-11.6-9.4-15.2-9.4-15.2s-9.6 5.2-9 15.2"/><path d="M15.1 23.1c0-.4.3-.8.8-.8.4 0 .8.3.8.8 0 .4-.3.8-.8.8s-.8-.4-.8-.8"/><path stroke="#000" stroke-width=".021" stroke-miterlimit="3.864" d="M15.1 23.1c0-.4.3-.8.8-.8.4 0 .8.3.8.8 0 .4-.3.8-.8.8s-.8-.4-.8-.8h0z"/><path d="M31.1 23c0-.4.3-.8.8-.8s.8.3.8.8c0 .4-.3.8-.8.8s-.8-.4-.8-.8"/><path stroke="#000" stroke-width=".021" stroke-miterlimit="3.864" d="M31.1 23c0-.4.3-.8.8-.8s.8.3.8.8c0 .4-.3.8-.8.8s-.8-.4-.8-.8h0z"/><path d="M21.3 27v2.4c0 .4-.5.4-.5 0v-1.9c-.1-.3.5-.7.5-.5z"/><path fill="none" stroke="#000" stroke-width=".002" stroke-miterlimit="3.864" d="M21.3 27v2.4c0 .4-.5.4-.5 0v-1.9c-.1-.3.5-.7.5-.5z"/><path d="M22.8 25.8v3.7c0 .4-.5.4-.5 0v-3.2c-.1-.5.5-.9.5-.5"/><path fill="none" stroke="#000" stroke-width=".002" stroke-miterlimit="3.864" d="M22.8 25.8v3.7c0 .4-.5.4-.5 0v-3.2c-.1-.5.5-.9.5-.5h0z"/><path d="M24.3 25v4.5c0 .4-.5.4-.5 0V25c-.1-.4.5-.4.5 0z"/><path fill="none" stroke="#000" stroke-width=".002" stroke-miterlimit="3.864" d="M24.3 25v4.5c0 .4-.5.4-.5 0V25c-.1-.4.5-.4.5 0z"/><path d="M25.7 26.1v3.3c0 .4-.5.4-.5 0v-3.8c0-.4.5.2.5.5"/><path fill="none" stroke="#000" stroke-width=".002" stroke-miterlimit="3.864" d="M25.7 26.1v3.3c0 .4-.5.4-.5 0v-3.8c0-.4.5.2.5.5h0z"/><path d="M26.9 27.2v2.2c0 .4-.5.4-.5 0v-2.7c0-.4.5.1.5.5"/><path fill="none" stroke="#000" stroke-width=".002" stroke-miterlimit="3.864" d="M26.9 27.2v2.2c0 .4-.5.4-.5 0v-2.7c0-.4.5.1.5.5h0z"/><path fill="none" stroke="#000" stroke-width=".037" stroke-miterlimit="3.864" d="M19.4 28.9h9"/><path fill="#DA121A" stroke="#000" stroke-width=".02" stroke-linecap="round" stroke-miterlimit="3.864" d="M18.3 6.9c0-.1.1-.2.2-.2s.2.1.2.2-.1.2-.2.2-.2 0-.2-.2z"/><path d="M19.7 5.8c0-.1.1-.2.2-.2s.2.1.2.2-.2.2-.3.2c0 0-.1-.1-.1-.2z"/><path fill-rule="evenodd" d="M19.6 5.8c0 .2.1.3.3.3.2 0 .3-.1.3-.3 0-.2-.1-.3-.3-.3s-.3.1-.3.3zm.2.1s0-.1 0 0c0-.1 0-.1 0 0 0-.2 0-.1 0 0 0-.1 0 0 0 0z"/><path fill="#DA121A" d="M18.3 6.9c0-.1.1-.2.2-.2s.2.1.2.2-.1.2-.2.2-.2 0-.2-.2z"/><path fill-rule="evenodd" d="M18.3 6.9c0 .2.2.4.4.4s.4-.2.4-.4-.2-.4-.4-.4c-.4.1-.4.2-.4.4zm.3.1s-.2 0 0 0c-.1-.2-.1-.2 0-.2s.1.1 0 .2c.1 0 .1 0 0 0z"/><path fill-rule="evenodd" d="M19.6 6.5c.1.2.2.5.2.8 0 .2-.1.3-.1.4.1 0 .2-.1.3-.1.2-.1.5-.2.7-.3.2-.1.4-.3.5-.4l.2-.2h.1v.1l-.2.2c0 .3.1.6.3 1 .3-.3.6-.7.7-1.2h.1v.1c-.2.5-.4.9-.8 1.2 0 .1.1.1.1.2.1.2.3.5.5.7.3-.4.5-.8.6-1.4 0 0 0-.1.1 0 0 0 .1 0 0 .1-.1.6-.3 1.1-.7 1.5.2.2.5.4.8.5v.1c0 .1 0 0-.1 0-.3-.1-.6-.3-.8-.5-.3.3-.6.5-.9.7.2.3.5.5.8.8v.1h-.1c-.4-.2-.7-.5-.9-.8-.3.2-.7.3-1.1.5.2.4.5.8.8 1.2v.1h-.1c-.4-.4-.7-.8-.9-1.2-.4.1-.8.2-1.1.2 0 0-.1 0-.1-.1 0 0 0-.1.1-.1.3 0 .7-.1 1.1-.2-.2-.5-.3-.9-.3-1.3-.3.1-.6.1-.9.1 0 0-.1 0-.1-.1 0 0 0-.1.1-.1.2 0 .5 0 .9-.1 0-.5.1-.9.3-1.1-.3.1-.4.1-.5.1s-.4.1-.6.1c0 0-.1 0-.1-.1 0 0 0-.1.1-.1h.6c.2-.1.3-.3.3-.5.2-.4.1-.6.1-.9-.2.1-.2 0 0 0zm.3 1.2c-.2.2-.3.6-.3 1.1l.9-.3c-.1-.4-.1-.8 0-1.1-.2.2-.3.2-.6.3zm.8-.3c-.1.3-.1.7 0 1.2.3-.1.5-.3.8-.5-.2-.4-.2-.7-.3-1-.3.1-.4.2-.5.3zm.7.7c-.2.2-.5.4-.8.5.1.4.2.7.5 1.1.3-.2.6-.4.9-.7-.2-.2-.4-.5-.5-.7-.1 0-.1-.1-.1-.2zm-.3 1.7c-.3-.4-.4-.8-.5-1.1l-.9.3c0 .4.1.8.3 1.3.3-.2.7-.3 1.1-.5z"/></svg>