<svg xmlns="http://www.w3.org/2000/svg" width="48" height="48" viewBox="0 0 100 100"><path fill="#fff" d="M87.2 3.1H12.1V61l.1 1.8a37.6 37.6 0 0027.1 32.8l1.1.3 1.1.3 3.9.6 1.1.1 1.1.1 2.1.1c10.4 0 19.9-4.3 26.7-11.2 1.3-1.3 2.5-2.8 3.7-4.3a34.9 34.9 0 005.6-11.2l.4-1.1c.4-1.6.8-3.2 1-4.9l.1-1 .1-1 .1-1.4V3.1h-.2z"/><path fill="none" d="M87.2 3.1H12.1V61l.1 1.8a37.6 37.6 0 0027.1 32.8l1.1.3 1.1.3 3.9.6 1.1.1 1.1.1 2.1.1c10.4 0 19.9-4.3 26.7-11.2 1.3-1.3 2.5-2.8 3.7-4.3a34.9 34.9 0 005.6-11.2l.4-1.1c.4-1.6.8-3.2 1-4.9l.1-1 .1-1 .1-1.4V3.1h-.2z"/><path fill="#010202" d="M48.9 99.9a44.8 44.8 0 01-16.5-3.8A40.9 40.9 0 019 59.2V0h81.3v59.2l-.1 3.1a39.8 39.8 0 01-4.4 15.5A40.9 40.9 0 0149.7 100l-.8-.1z"/><path fill="#010202" d="M10.1.7h79.6v58.5l-.1 3a41.6 41.6 0 01-4.3 15.2 40 40 0 01-52.2 17.9 40.2 40.2 0 01-23-32.6L9.9 59V.5h.2v.2z"/><path fill="#236fb6" d="M49.6.8H9.7v43.3h39.8V.8z"/><path fill="#010202" d="M38.1 30.1c-.1.4-.2.8.3.9-.4.1-.6.3-.6.5l-.1.7c-.1.7-.6.8-1.2.9-.1.8 1.1 1.2 1.7.4 0 .4 0 .5-.2.6.4.1 1.3.2 1.8-.4l.5.4c.3.2.5.1.7.1l.7-.2c-.3.4-.4.8-.3 1.2 0 .4.2.5.5.9.1.2.4.4.4.7 0 .7-.5.8-.4 1.8-.7-.2-.6-1-.8-1.3-.2-.3-.6-.8-1-.9-.5-.1-1 .2-1.1.5-.4-.1-2.1-.1-2.1.9.7-.1 1 .1 1.2.4-.2.2-.1.4 0 .7.1.4.9.6 1.2.4.1.6.3.9.6 1.1-.3 0-.5 0-.7-.2l-.4-.4h-.7l-.8.6c-.4-.1-1.1.1-1.3.4-.2.3-.2.4-.1.9 0 .3.2.4.5.6.4-.4.5-.4.8-.2.3.4.6.4 1.1.4.4 0 .4-.2.6-.4.4-.4.5 0 1 .1H41c.2.3.9 1.2 1.3 1.2.3 0 .4.1.6.3.2.2.4.2.6.2.2-.2.1-.4.2-.7 0-.1 0-.3.2-.4.2-.2.3-.1.3-.4 0-.4-.5-.6-.4-1.2l.4.4c.2-.1.2-.3.4-.3v1.3c1.4-.3 1.6-1.4 1.3-2.4.4.1.4.4.4.7.4 0 .7-1.1.7-1.4l.2.6c.8-.3.8-1.4.4-2.2.4-.1.9.4 1 .7l.2-.9c0-.4-.4-1.1-.9-1.3l.8-.8c-.2 0-.4-.3-.3-.4l.4-.4c-.2 0-.2-.1-.3-.2 0-.1-.1-.3 0-.4.4.1.2-.6-.2-.6.3-.2.7-.6.4-1.3l-.6.3c.3-.3.4-.5.5-.9v-.3h-.4c.3-.3.3-.8.4-.9h-.4c0-.3 0-.6-.3-.7-.6.7-.8.9-1.4 1.3-.5.4-.7-.4-.8-.6-.2-.2-.5-.3-.9-.3l-.4.1-.5-.5c-.4-.8-.5-1.5.1-2.8.9.1 1.8-.5 2.4-1 .4-.3.8-.5 1.3-.5s.6.3 1.1.4c.1-.4.1-.8-.1-1.1l-.4-.5c.3-.8.8-1.2.8-2.2.1-1.3-.3-2.5-.3-3.7l.1-2.3c-.3 0-.6.2-.8.3l-.3.3-.2.4c-.4-1.1-1.8-2.7-2.2-3.7-.4-.9-.4-1.8-.3-3l-.4-.1c-.6 0-.6.3-.9.4-.1-.2 0-.3 0-.4a2 2 0 011.3-.4l.7.2.5.4c-.2.3-.4.7-.4 1.1 0 .2-.3 1-.5 1.1.4.4.9-.1 1.3-.1 0 .3.4.4.5.6.4.3 1 1.1.4 1.3l-.6.1c.7 1.1 2.1-.2 2.2-1v-1.7c0-.2-.4-.7-.5-.8.3-.4.6-1.1.5-1.5-.1-.3-.3-.5-.4-.5-.7 1.3-1.7.6-2.4.2-1-.6-2.2-.2-2.6.4-.8-.9.4-2.2.4-2.9-.2-.1-.7-.2-1.1 0 .2-.4.7-1 1.3-1.3-.3 1.1.4 1.6 1.3 2.1.5.3 1.2.5 1.7.9.4.3.8.5 1.3.5l-.2-1.4.1-1.3-.1-.9c-.1-.4-.5-.9-.8-1.1.6-.3.9-.3.9-.7 0-.5-.2-1.1-.4-1.4-.3-.4-.9-.3-1.3-.3.6.4.6.7.4 1.3-.5 0-1-.1-1.5.3-.1.1-.5.5-.5.8-1-.3-2 .9-2.2 1.5-.3.5-.4 1.3-.4 2.1s.2 1.7.5 2.5c-1.3 1.3-1.4 3.4-1 5.2.4 1.4 1.8 3.1 2.3 4.1-.4.2-.9.5-1 .8a3 3 0 00-.3 1.2c.1.5.4 1.1.9 1.2l1 .4c.4.4.4.9.2 1.3-.2.3-.4.4-.7.4-.6-1.5-2.2-2.1-3.6-3-1.6-1.1-2-1.3-2.8-2.5l-.5-.8c.7 0 1.1-.5 1.3-.6-.2-.1-.7-.3-.8-1.3.7.1 1.3-.3 1.8-.6-.2-.2-.6-.5-.7-.8-.2-.5-.2-.7-.2-1.3h.5l1.1-.1-.2-.4-.5-.8v-.7l.6.2c.2.1.3.3.5.3l.6-.1c0-.9-1-1.4-1.3-2.2.4 0 1.1-.4 1.5-.9l-1-.8c-.2-.2-.6-.5-.6-1.3.4-.1.7-.1.9-.4v-.4c-.2.2-.3.2-.5.2h-.2l.2-.1c.2-.1.3-.3.3-.5l-.2-.6c-.2.3-.3.4-.6.4s-.4-.4-.5-.4l-.7-.4a4 4 0 011.7-1.5c0-.4-.3-1-.6-1.1-.3-.1-.4 0-.7.1l-.4-.2c-.4 0-.5.1-.7.4-.1.3 0 .5 0 .8h-.5c.4-.4.5-.9.1-1.3-.5-.3-.6-.4-.9-.4-.2 0-.4-1-1.2-.9-.2 0-.4 0-.7.4l-.2.5-.7.4c-.2.3.1.9.3 1.1H34V3c0-.4-.2-.6-.4-.8-.2-.1-.4-.2-.5-.1l-.3.3c-.3-.6-1-.5-1.3-.2-.2.2-.4.5-.2 1 .7 0 1.3.6 1.3 1.1 0 .4-.2.4-.4.6-.4.3-.6.4-1 .4l-.4-.1c-.2 0-.4-.1-.5.4 0-.3-.1-.3-.2-.4-.4-.2-.7.2-.7.4-.1.2 0 .5 0 .8.1.5.3.8.4.9l.3-.3.1.4c.3.4.4.4.9.4l.2.7c-.5.3-2.1.1-2.7-.1-1.1-.4-1.2-1-1-2-.7-.3-1.8-.1-2.1.6-.4 1.3 1.1 2.4 2.2 2.8.5.2 2.7 0 3.5-.4 0 .5-.4.7-.3 1.3.1.3.4.4.7.4h.4c-.5.7-1 .5-1.2.3-.3-.4-.6-.7-1.2-.7-.7 0-1 .3-1.3-.1-.2-.2-.4-.3-.8-.3s-.6.1-.8.4c.4-.1.5-.1.8 0 .4.1.5.4.7.9l-1.6-.2a2 2 0 00-1.3.4c-.5-.4-1.3-1.3-2-1.7-1.1-.7-3.9-1.9-4-3.7 0-.5.5-1.3.5-2.2 0-.6-.7-1.3-1.3-1.4-.3-.4-.4-.5-1-.7-.4-.1-.8-.2-1.2.3.5.3.9.5.9 1-.3 0-.5.3-.5.6s0 .4.3.6c-.3 0-.4.1-.4.4 0 .2.4.4.3.9-.5-.3-.8-.4-1.1-1.2 0-.5.2-1.3-.2-1.7-.4-.3-.8-.4-1.3-.2a2 2 0 00-1.4-.6 2 2 0 00-1.3.5c.4.2 1 .8 1 1.3 0 .4 0 .6.3 1l.6.5c-.2.4.3.5.4.9-.5 0-.5-.2-1-.3-.6 0-1.3.3-1.1.8-.5.2-.9.5-1.2 1-.1.3-.3.8.2 1.4.1-.4.8-.9 1.1-.7-.1.5.3.6.6.6s.4-.2 1-.2c-.3.6.3 1.4.6 1.6.1.1.3.2.5.1 0 .2.1.3-.2.4.6.2 1.3.1 1.8-1.2.4.2.7-.4 1-.4.2 1.2-.2 1.3-.4 1.7-.1.3-.4 1 .3 1.6l.4-.4c0 .4-.3 1.1.3 1.3.1-.3.2-.4.4-.4 0 .2.1.4-.1.8.4.1.5-.1.7-.2 0 .3-.2.4-.4.7.3.2.5.3.8.2l.2.4c.6.2.9.1 1.4-.2v1.1c.1.4.2.4.4.5l-.8.5c-.3.1-1.3.1-1.5-.2-.4-.3-.5-.6-.6-.8-.9 1.2.2 2.2 1.3 2.7.5.3 1.2.4 1.8.1.4-.2.6-.4 1-.4-.4.5-.9 1.1-1.8 1.6-1 .5-1.7.4-2.4 1.2-.4.5-1.7.7-2.1-.1-.4-1.1-.6-1.4-1.5-1.1-.4-.5-.5-.4-1.3-.4-.5 0-1.1.4-1.3 1 .6 0 .8.2 1.1.6-.1.2-.2.6 0 .9.1.1.4.3.9.3-.2.6.1 1 .5 1.1.3.1.5.1.6.4h-.9c-.2.1-.1.3-.4.4-.2 0-.4 0-.5-.2-.3-.2-.4-.3-.8-.2l-.4.2c-.1.1-.2.2-.1.3-.4.1-.9.4-1 .6-.4.5-.6 1.8 0 2.3.4-.6.4-.8 1-.8-.1.2 0 .3.2.4l.5-.2c.2 0 .3.3.4.3.3 0 .2-.4.8-.3.4 0 .3 0 .5-.3l.7-.3.4-.4c.2.4-.3.6-.4 1.1l-.4.4c-.3.3-.4.4-.5.9 0 .2 0 .6.2.7.1.1.2 0 .4-.1.2.7.7 1.3 2.1 1.4.2 0 .6-.2.8-.5-.4-.1-.4-.4-.4-.7.3.1.2-.4.2-.6.3.1.1-.3.1-.6s.2-.4.4-.6c.4 1.4 1.3 1.3 2.1.7.4.1.7-.4.9-.7.7.1 1.3-.4 1.8-.8l.1.3c.4-.1.5-.2.8-.5v.4c.4 0 .7-.4.8-.6.2.1.2.4.2.6.2-.1.8-.4 1.1-.9.1.2-.1.6-.2.8.5.1 1.1-.7 1.3-1.2.3.2.4.4.4.7.4 0 .9-1 .9-1.1l.5.8.4-.6h.3c.1-.1.3-.2.3-.4.2.4.4.4.7.5.3.2 1 .2 1.1-.1-.3-.4-.3-.6-.4-.9l-.3-.9c.3.1.4.3.5.6.4.8.3.6 1.3 1.1.4.2 1.6.6 3.4.4-.4.6-2.5 1.3-3.3 1.3-1.3.2-1.7-.3-2.9-.3-.8 0-1.5.4-1.8.9-.4-.4-1.2-.7-2.1.4-.2-.2-.8-.4-1.4.3-.4.4-.8.5-1.1.2-.2-.3-.2-.6 0-.8-.6 0-1.2.6-1.2 1.1 0 .7.6 1 1 1-1 .4.6 1.2 1.2 1.2l1.3.1c-.5.3-.8.5-.7 1.2 0 .4.2.6.5.8-.3 0-.4 0-.4.3v.6a2 2 0 00-1.5.6l-1.4 1.3c-.5.5-1.2 1.1-1.8 1.1a1 1 0 01-.9-.6c-.1-.3.1-.4-.1-.9-.2-.4-.4-.5-.8-.5l-.4.2c-.3-.4-1.1-.4-1.6-.2-.5.3-.9.8-.9 1.4.3-.3.7-.5 1-.4.2.1.5.2.4.4-.4 0-.7 0-.8.2-.2.2-.3.4-.1.8.1.2.4.7.9.5v.6c0 .2.2.4.4.5-.6 0-.9 0-1.3-.3-.3-.2-.7-.1-.8.1l-.4.4c-.4-.4-1.3-.3-1.8.1-.3.2-.4.4-.5.7v.7c.4-.3.6-.3 1.2-.3l.6.1v.8l.1.7.4-.4v.5l.3-.2.4-.3.4-.3-.1.6.3-.1.4-.4.4-.2c0 .2-.3.4-.2.8.1.1.3 0 .4 0 0 .4.3 1.3.7 1.5.4.2 1.1.1 1.6.1-.5 0-.6-.3-.6-.5.4-.1.4-.3.4-.5l.4.4.2-.3c.2.3.1.5-.1.7l-.5.4c1 1.1 2.3-.3 2.7-1 .2-.4.5-1.5.4-2.2h.3c.2.6.2 1 .4 1.3.4.6.9.7 1.6.6.2 0 .8-.1.9-.5l-.5-.4c-.2-.2-.4-.6-.4-.9l.6.5.3.6.1.8c.4-.2.8-.5.8-1.1.3.1.2.6.1.9.4-.3 1.2-.5 1.3-1.2.6-.2.9-.1 1.3.1.3-.5.2-.9.4-1.3.5.4.7.3 1.3.2-.4-.4-.6-.5-.7-1-.3-.2-.3-.4-.3-.7.3-.1.4.1.5.3l.4-.6c.4.4.4.8.2 1.2 1 .4 1.3-.7 1.3-1.3 0-.6-.4-.9-.4-1.3l.2-.4c.3.8.3 1 1 .9-.1-.7.3-1.2.4-1.8 0-.3-.3-.6-.5-.7l-.7-.7c-.9-.8-.5-1.7.3-2.2.4-.2.9-.1 1.3-.2.9-.6 3.4-.5 4.1-1.3zm6.9-9.3c.4.4.6.8.7 1.3-.4.1-.6 0-.9-.4-.1-.4 0-.6.2-.9zm2.5 1.1c-.3-1-.7-2-1.6-2.8l-.1-1.3-.4.7c-.4-.5-.4-1.3-.7-2.7-.3.2-.4.4-.5.6-.4-.4-.4-1.5-.4-2.8l-.7.5c-.3-.8-.2-1.6.3-2.5 1.6 4.7 5.1 7.9 4.1 10.3z"/><path fill="#fbc70a" d="M38.5 4.4c.7-1 1.4-1 1.7-1.2 0-.4-.4-.9-.9-.7l-.7-.1c-.4 0-.3.7-.3 1.1h-1.2c.3-.4.7-1 .4-1.3l-.4-.1c-.2 0-.5-.9-1.2-.9-.3 0-.5.6-.7.8-.1.1-.4.1-.6.4-.2.2.2.9.4 1.1h-1.2c-.3 0 .4-.7-.4-1.2-.1-.1-.4.2-.4.3-.3-.4-.8-.5-1.1-.3-.2.1-.4.4-.2.7 1 0 1.2.6 1.3 1.3l5.5.1z"/><path fill="#fff" d="M39.6 6l.1.5c.4-.1.7-.4.8-.6-.2.1-.6.2-.9.1zm-.1 1.1l.4-.4c.3.2.6.2 1 0-.3.6-.8.8-1.4.4zM17.1 2.3c.5-.1 1 .1 1.5.6-.2.3-.4.4-.7.4a2 2 0 00-.8-1zm-2.7.7c-.2.4-.4.5-.9.6-.2-.4-.5-.8-.9-1.1.4-.2 1 0 1.8.5zm3.1 3.1c.4.1.9.4 1.3.7 0-.6-.1-1.4.4-2.1.5-.7 0-1.8-.5-1.4-.3.2-.6.3-1.3.3-.3 0-.4.4-.1.6l.6.4c-.4-.2-.7-.2-.7.2 0 .5.4.5.3 1.3zm-5.5.8c.4.3.4.6.2.9-.5 0-.9.3-1.3.6.1-.7.3-1.3 1.1-1.5zm2.7 3.6c.4-.3.4-.5.4-.9-.4.2-.8-.1-1.3-.3 0 .6.5 1 .9 1.2z"/><path fill="#fff" d="M17.2 8.8c-.2.2-.2.5-.4.6l-.5.2c-.4 0-.3.4-.4.6-.2.3-.4.5-.9.5.3-.2.5-.5.5-.9 0-.3 0-.4-.2-.5-.4-.4.4-.5.4-.8l.1-.5-.2-.4c-.1.3-.1.4-.4.7l-.4.1c.2-.2.4-.7.2-.9-.3.1-.2.4-.4.6l-.5.4.3-.6c0-.3 0-.4-.2-.5a3 3 0 01-.6 1.1c-.4.3-1.4.3-1.1-.4.3-.4.2-.9 0-1.2-.2-.2-.4-.3-.3-.4.3-.4 1-.3 1.3.1.2.2 1.6.3 1.7 0-.4-.1-.5-.4-.7-.6l-.3-.4.3-.3c-.4 0-.6-.1-.6-.2l-.5-.5c-.1-.3-.1-.4.1-.6.4.4 1.7-.4 1.7-1 1.9.4.1 1.4 1.6 2.9.5.5 1.5 1.2 1.9 1.3.8.4.7 1.5 2.4 2.4.8.4 1.3.3 2 .6.9.4 1.6 1.2 2.2 1.8-.4.4-1 .4-1.9-.1 0 1.4.9 1.5 1.9 1.5-.4.3-.6.4-.8.9-.4.8-.6.9-1.4 1.1-.3.1-.5.1-.7.4l-.6.6c-.3-.2-.4-.7-.4-1.1l.3-1.4c-.6.3-.5.9-1.3.7l.4-.4c.2-.3.4-.6.4-1-.3 0-.4.2-.4.4l-.5.5c-.3.2-.4.2-.7.2.2-.4.7-.7.8-1.3 0-.3 0-.5-.2-.9l-.4.6-.5.5.1-.6c0-.3.2-.4.1-.8l-.5.5-.5.3v-.5c.1-.2.4-1.3.2-1.4-.3.4-.6.6-1.1.9l.4-.7.2-1.1c-.6-.3-.8-1-1-1z"/><path fill="#fff" d="M32.9 4.6l5.1.1.1.5c.4-.1.8 0 1.1.2.2.2.4.5.4.9s-.2.7-.6.7c.2-.2.3-.3.3-.5 0-.4-.2-.5-.4-.7-.1-.3-.4-.3-.6-.3 0 .4 0 .6-.3.9-.2.3-.6.4-.8.5.3.2.4.1.6 0l.4-.3-.5.8-.7.4.4.1.6-.3.4-.4-.2.5c-.3.4-.7.6-.8.6.3 0 .6-.2.8-.3l.6-.6c0 .3-.1.5-.4.7l-.5.4c.3.1.7-.2.9-.4l.4-.6c.1.3 0 .6-.2.9-.1.1-.3.4-1 .8.3.1.8-.2 1-.4.2-.2.5-.5.6-.8.1.4 0 .9.4 1.1.2.1 1.1.6.5 1-.4.3-.6.3-1 .2 0 .4 0 .8.2 1.2.1.3.4.4.4.7l-.5-.1-.4-.4a2 2 0 00-.4 1.3c0 .4.2.7.3 1.1l-.5.1-.4-.2c-.2.5-.3 1.2-.1 1.7l.4 1.1c-.4.1-.8 0-.9-.4-.6.2-.6.6-.6 1 0 .3.2.5.4 1-.6 0-.9-.3-1.1-.5-.3-.6 0-1 .1-1.3.1-.4.5-.8.5-1.3-.4 0-.5.8-.6 1l-.3.7c-.5.3-.7.5-1 1.1-.1.2.1.5.2.6l.4.5c-.5.2-.9-.1-1.1-.7v-.7l.2-.5.1-.4-.3-.4c0-.2 0-.5.3-.7l.3.4c.5-.1 1.1-.5 1.3-1 .4-.4.4-1 .4-1.3-.2.3-.4 1-.9 1.5 0-.3-.2-.7-.4-.9-.2.2.3.5-.1 1-.4-.4-.7-.3-.9 0-.1.2-.2.4-.2 1-.3-.2-.4-.1-.4.1.4 0 .5.2.6.3.2.4-.2.9-.1 1.3 0 .5.3 1 .5 1.4-.4.1-.6 0-.9-.2-.2-.2-.4-.4-.4-.7-.2.1-.4.4-.7.3.4-.4.4-.7.6-1.3.1-.3.1-.5-.1-.8 0 .4-.2.8-.4 1.2-.3.3-.4.4-.7.4.3-.4.2-.5.2-1.1-.4.3-.4.5-.6.9-.2.3-.2.5-.2.9l-.4-.4c-.1 0-.4.1-.6.4 0-.5.4-.5.8-.5.1-.5 0-.8.5-1.3.1-.1.7-.4.7-.6-.4-.1-.9.4-1.3.6-.6.3-1.2.4-1.3 1-.1.4-.3 1.3.5 1.8-1 .5-1.4-.4-1.5-.8-.2-.6-.1-1.9.9-2.5.8-.5 3.1-.7 3-2.1-.2.5-.7.9-1.6 1.3-1 .5-1.5.4-2 1.1-.4.8-1.1.7-1.6.4 0 .5.5.5 1.2.4-.4.7-1.5.2-2 .5-.4.3-1.3 1-1.7 1 .6-1.6 1.9-2.2 2.6-3.7 1.2-2.2 4.2-.6 4.8-2.2-.4.1-.7.4-1.4.4-1.1.1-2.4.4-3 1-.7.7-.8 1.3-1.3 1.6-.4.2-.9.1-1.5.1-.9 0-1.7 1.2-2.8 1.1.5-.6 1-1.3 2.1-1.4.6-.1 2.2.2 2.5-.6l-1.3.4c-1 0-2 .1-2.5.6-1.5 1.4-1.8 1.7-3.4 1.6-.7 0-1.7-.8-1.6-1.6.5.5 1.1.7 1.5.7 1.6-.1 2.4-1.5 3-1.7a7 7 0 001.3-.5c.4-.4.5-1.1.9-1.4l.7-.4c.9-.4 1.4-.6 3.1-.2-.6-.7-2.4-.5-3.2-.1-.6.3-2.1.2-2.1-.6 1.9.2 1.6-.4 2.8-.6.8-.2 2.8-.2 3.6.7-.1.3-.6 0-.8-.1l-.5-.2c-.5-.1-1.1-.4-1.6 0 .6 0 1.3.1 1.7.3.9.4 1.9.4 2.9.2.9-.3 1.9-.8 2-1.8-.6.9-1.2 1.3-2 1.5-.5.2-1.3.2-1.6-.3l-.7-.7c-.3-.1-.5-.1-.6-.5l1.3.1c.5 0 .8.8 1.5.8.4 0 1.3-.5 1.3-1l-.8.2c-.4 0-.8-.4-.6-1.1 1-.2 3.1.5 3.1-.6V8.1c0-.4-.1-.5-.4-.5l-.7.2c-.4 0-.4-.1-.8-.4-.3-.2-1 .4-1.4.4-.4 0-.7-.2-.7-.6 0-.6-.6 0-.7-1.1l.1-.6c.2 0 .4.4.4.7.2 0 .2-.1.2-.3.2-.9.7-.4 1.3-.5 0-.1.7-.4.9-.8zm.9 5l-.1-.4c-.1 0-.2.2-.1.3l.2.1z"/><path fill="#fff" d="M36 17.4c0 .4.1.8.4 1.1-.4.5-.8.6-1 .1-.2-.5 0-1 .6-1.2zm-23.5 2.7c.8-.4 1.4-.5 2 .1-.1.4-.3.5-.6.6-.2-.5-.7-.6-1.4-.7zm-1.6 6.4c.4-.5 1-.9 1.5-.8.2-.4.1-.9-.5-1.2-.9.3-1.1 1-1 2zm6.2 3.2a3 3 0 01-1.1-1.6c-.4-.2-.6-.1-1 .3.4 1 1.2 1.4 2.1 1.3zm1.3-2.6c.6.8 1.1.8 1.5 0 0-.2-.1-.4-.3-.5-.2.5-.7.6-1.2.5z"/><path fill="#fff" d="M25.9 17.5l-.7.2h-.7c-.6.6-1.3.4-1.8.7l-.6.6c-.8 1-1.6 1.2-2.6 1.5-.6.2-2.2 2.1-3.1 1.5-.4-.3-.9-.9-.9-1.2 0-.8-.2-.9-.6-.9 0 .4-.5 1.2-1.3 1.1-.2.2-.2.4-.1.7.3.4 1 0 1.3-.1-.2.3-.2.7-.1 1.1s1.7 0 2.1.2l.4.3c.2.2.4-.5.7-.3.2.2-.5.7-.5.7-.1.1-.3 0-.4-.1-.1 0-.6.6-.7.5s.5-.7.4-.7l-.2-.1-.4.4c-.3.2-.4.3-.9.3s-.6.4-.8.4c-.5.1-1.5-1.1-1.8 0l.3.2.2.7c0 .3 0 .4-.2.6.1.1.1.2.4.1.4-.1.4-.6.4-.9l.3.1c.1.1.1.3-.1.5.4.2.6-.3.7-.6.2.2.2.4.1.6.2 0 .4-.3.5-.4.2-.4.5-.5.9-.7.3-.1.5-.1.5.2 0 .2.1.4-.2.4-.1-.1 0-.5-.3-.2-.2.3.1.5.2.9 0 .4-.4 1.1-.5 1.3-.3.4-1.2.4-.7 1.1 1-.5 1.5-.4 2.2.1.2-.3.1-.5-.1-.7-.2-.3-.4-.4-.4-.7.3-.1.5 0 .8.4 0-.2-.1-.9-.4-1.2l.6.4c0-.4 0-.6-.3-1l.2-.1c.1.1.2.1.2.3.2-.2.2-.3.2-.5.3 0 .4.2.5.4.1.3-.1.5-.1.8 0 .2.3.4.5.4.1-.3.4-.4.7-.4.4 0 .7.3.7.8.5-.2.7-.7.4-1.3-.1-.2-.7-.6-1-.7.1-.3.3-.4.6-.1l-.1-.4v-.1l-.1-.3-.2-.2.1-.2.2-.2.1-.1.5.3c-.2-.4-.2-.5.1-.5v-.3c0-.2.1 0 .2 0l.3.1-.1-.3c0-.1-.2-.2-.1-.3.4-.2.9.3 1 .4 0-.4-.4-.4-.4-.6 0-.6.5.2 1 .4-.2-.4-.4-.5-.3-.7.2-.3.5.4.8.4-.1-.4-.4-.4-.4-.7 0-.1.1-.1.2 0l.9.4c-.2-.3-.3-.5-.2-.6.2-.4.5.3.8.4 0-.1-.3-.7-.2-.8 0 0 .2-.1.4.2-.1-.2.1-.4.2-.4l.3.2.7.4c-.2-.2-.4-.4-.2-.5.1-.1.3.1.4.1l.2-.2h.3c.2 0 .2.4.5.4l-.3-.6c0-.2.1-.1.2-.1.3-.1.4.3.6.5-.1-.3-.4-.6-.3-.9.2-.4.4.7.6.7-.2-.6 0-.9.3-.8.4.1.2.4.1.6.4-.2.5-.4.5-.5-.3-.1-.7-.4-.8-1 0-.3.1-.4-.2-.6-.5-.5-2.5.6-2.7 1.3l.3-.2c.1 0 .5-.2.4.1l.4-.1c.1 0 0-.1 0-.1l.1-.1h.1l.1-.1v-.1l.1.1v.2l.3-.2c.1-.1.5-.3.5-.1 0 .1-.4.3-.3.4.1.2.5-.7.6-.6.3.3-.5 1-.6 1s-.2-.4-.3-.3c-.2.1-.4.2-.4.4l-.3.3c-.1.1-.3 0-.4.2l-.2-.2v-.1l-.1-.1-.1-.2-.1-.1-.4.2-.1.1h-.3c-.2-.2-.1-.4-.3-.3a1 1 0 01-.7.3l-.1-.3c0-.2-.5.3-.6.2s.1-.4-.2-.3c-.2.2-.3.2-.4 0-.1-.2-.4.1-.4.2-.6.1.4-.6.4-.7.2-.2.8-.4.5 0l-.3.3.5-.4s.2.1.1.2c-.5.4.2.4.4-.1.1-.2.4.4.4-.1 0-.4 1-.4 1-.9 0-.3-.1-.4.2-.6.4.2.7-.3.8-.4zm-7.6 5c.1-.1.2-.1.2 0 .1.1.1.2 0 .2l-.5.4c-.1.1-.2.1-.2 0-.1-.1-.1-.2 0-.2l.5-.4z"/><path fill="#fff" d="M21.1 23.7c.3 0 .8.2 1.1-.4.2 0 .5.1.6-.3.2.1.4.2.6-.1.3 0 .4-.1.4-.4.3.3.6.5.6-.1.3.2.4.1.5.1.3 0-.3-.6-.3-.9.4.2 1.3 1.1 1.3.4.6.2.6.1.1-.6.3.1 1.2.5 1.3.2.4 0 .6 0 .6-.4.5-.1.8-.4.9-.7.7 0 1 .8 1.1 1-.4 1-.1 1.9.4 2.9-1-.2-1.1-1.2-1.1-2.5-.3.4-.4.8-.4 1.7-.4-.2-.4-.9-.4-1.2a2 2 0 00-.3 1.1c0 .4.1.5.3.9-.4 0-.6-.2-.8-.4-.2-.4-.2-.8-.2-1.3l-.2.9-.1.5v.4c-.1 0-.4-.3-.4-.5-.2-.4-.2-.6-.2-1-.3.3-.5 1.1-.5 1.4-.4-.1-.4-.8-.4-1.3-.2.7-.4 1.4-.8 1.8.1-.5.1-1-.2-1.3-.2.3-.3 1-.6 1-.1-.4.1-.8-.2-1.2-.1.3-.2.7-.5 1.1 0-.4-.2-.6-.3-.9l-.4 1.1c-.1-.3 0-.8-.3-.9 0 .6 0 1.3-.4 1.7-.1.2-.4.8-.7.7.4-.7.4-1.7-.1-2.5zm9.3-2.6c1.1 0 1.4-.2 1.9-.4.3-.2 1-.9 1-1.5 1 1.2 2.3.4 2.9 0 1.2.4 1.3 1.2 1.4 1.5 1.3 2.1 5.7 2.9 6 5.4l.9-.1c.4-.1.9-.1 1.2-.6.1-.1 0-.4-.2-.3l-.3.3c-.2.2-.4.4-1 .2.6-.3 1.6-.8.9-2.2-.4-.6-1.9-.1-2-1.7 0-.5.4-1.3.9-1.7.3-.2.9-.3 1.4-1 0 .6-.4.8-.8 1.2l-.6.8c-.1.3-.3.7.2 1.3.4.5 1 .5 1.6.6.3-.4.1-1.2-.1-1.6l-.4-.6c-.1-.1-.4-.2-.4-.5.3-.1.4-.2.5-.4.4.3.9 1.3 1.1 1.6.2.4.3 1.1.3 1.5 0 .4-.2.9-.1 1.2.1.2.2.3.3.2.4-.3 1-3 .7-3.9-.6-2.2-1.9-3.9-3-5.7a3 3 0 01-.5-1.2l-.8-1.9c-.5-1.2-1.1-2.1-1-3.9.1-1.1.6-2.2 1-2.4.2-.1.9-.9 1.7-.6 0-.8 1-1.2 1.8-1.2.4 0 .6-.2.6-.5s-.1-.4-.2-.5c.4.1.4.4.4.9 0 .4-.3.8-.7 1 .2.2.4.4.6.4.3.3.6.7.7 1.2.1.6-.3 1.3-.1 2.5-.4-.4-.4-.4-.5-.9 0-.4 0-.6-.3-.7-.4.2 0 .9.2 1.5-.3-.1-.6-.4-.7-.7l.1-1.2c-.5 0-.4.6-.3 1-.6-.3-.6-1.3-.4-1.8-.5 0-.9.6-.8 1.2-.6-.3-.4-1-.3-1.6-.1 0-.8.2-1.4.7-.2.1-.7.8-.8 1.4.4 0 .5-.5 1.3-.3-1.1.6-1.1 1.3-1.1 1.9.1.9.2 1.9 1 3 .1-.5.2-1 .7-1.3-.2.9-.2 1.3 0 2.2.1.4.3 1.1.6 1.6l1.3 2 1 1.8c.1-.6.5-1.2.8-1.3-.2 1-.1 1.6 0 1.9.2.7.3 1.1.3 2.3 0 .8-.1 2-1.2 3.4.6 0 1.1.2 1 1-.3-.3-.6-.8-1.3-.4-1.3.9-2.1 1.4-3.8 1.4-.1.7-.7 1.3-.7 2.2 0 .4.1 1.1.5 1.6l.7 1 .5-.4c.3 0 .5.3.7.4.4.4.4.4.8.4s1.3-.4 1.5-.8c.1.4-.1.7-.3 1-.2.3-.4.4-.7.4.3.2.5.2 1-.1.1.5-.4.9-.9 1 .2.3.5.4 1 .4-.1.4-.5.5-1.1.5.3.4.8.5 1.2.4-.2.4-.7.5-1 .5 0 .4.5.4.9.4-.3.6-.7.5-1.3.5.4.4.5.4 1 .3-.2.3-.3.4-.9.4.4.1 1.6.2 1.6 1.2-.4-.3-1-.7-1.7-.5.2.6.7.8.7 1.5-.4-.4-.6-.6-1.2-.6.3.4.4 1.2.4 1.6-.3-.3-.7-.8-1.1-.4.2.3.3.3.3.8-.6-.1-1.3.4-1.5 1-.7-.4-.8-1.4-1-1.4.2 1-.2.9-.2 1.5l.2.8c-.4-.1-1.1-.4-1.5.4-.7-.5-.5-.6-.5-2-.4.3-.1.9-.9 1.4-.4-.2-.4-1-.7-.7-.2.1-.2.3-.5.4l-.1-.4c-.1.2-.3.8-.7.9.1-.3.1-.7-.1-.9-.3.8-.7 1.1-.9.4.2-.3.2-.7 0-1.2.4 0 .5 0 .5-.2.1-.3.3-.4.4-.4.4 0 .6.4.8.4.4.2 1.3.2 1.5-.4-.4 0-.7.1-.9-.2-.2-.2-.2-.4-.2-.7 0-.2 0-.3-.2-.3-.3 0-.3.5-.7.4-.3-.1-.6-.7-.3-.8l.4.2c.1 0 .3 0 .2-.2l-.2-.1-.4-.1c0-.2.1-.3.3-.3.2 0 .4-.2.4-.3l.2-.4c.4-.2.6-.1.7 0 .3.1.5.5.5.6l.1.5c.2.4-.1.4.4.7.3.1.7.4 1.1.4-.2-.5-.3-.9-.1-1.3.2-.4.6-.7.6-1.3 0-.9-.9-1.1-.9-1.9 0-.4.1-1 0-1.6-.4.3-.6.4-1.1.1-.4-.3-.5-1-.9-1 0 .5-.7 1.3-1.2 1.3.2-.4.3-1.2.1-1.3-.3.5-.7 1-1.3 1 .8-.9.4-1.7 1.1-2l.5-.2c-.5-.3-.5-.5-.5-1.1 0-.7.7-1 1-1 .3-.4-.2-.9 0-1.2h.3c.4 0 .4 0 .1-.3-.3-.3-.2-.4.2-.3.4.1.3-.2 0-.3-.3-.1-.4-.3-.3-.4l.4-.1c0-.2-.1-.1-.2-.2-.2-.2.2-.1.3-.2.2-.2-.1-.3-.3-.3-.3 0-.2-.3-.4-.4l-.4-.6c-.3.2-.2.5-.1.9-.6-.3-.7-.7-1.2-1l-1.3-.3c-.8-.2-1.4-.1-2.3-.1 0 0-1.2 0-1.6-.6.4 0 .4.2.6-.2-.4 0-.9.1-1-.2.3 0 .5-.2.5-.4-.4 0-.4-.1-.9-.3l-.5-.3-.4-.3-.4-.4c.3.5.4 0 .3-.4z"/><path fill="#010202" d="M28.6 15.7l.2-.1.1.2c0 .2-.3.4-.4.5l-.2.1v.1l-.1.1-.4.6-.2.1-.1-.2.4-.6.1-.1.1-.1.2-.2.3-.4zm-1.2-1l.2.1-.1.2-1.2.5c-.4.2-.9.3-1.3.2l-.1-.2.2-.1c.4.1.8 0 1.2-.1l1.1-.6zm2-1.1l.1.2-.2.1c-.3-.2-.5-.3-.8-.3l-.9-.1H27l-.4.1-.4.1-.2-.2.2-.2.4-.1.4-.1h.7l.9.1.8.4zm3.3-.8c.1-.1.2-.1.2 0 .1.1.1.2 0 .2l-.2.2-.4.3h-.5l-.1-.2.2-.1h.4l.4-.2c-.2 0-.1 0 0-.2z"/><path fill="#fff" d="M34.6 5.2c-.3-.2-.4-.1-.4.2 0 .3.3.3.4.1v-.3zm-.8.5l.1.3c0 .2.1.3.3.4h.4l.2-.1.2-.1-.3-.2-.2-.1-.3-.1-.4-.1zm-2.3 2.7l.1-.5-.4.1.3.4zm.6-.2l-.1-.4v-.3l.3-.1.1.1c-.1.3-.3.4-.3.7zm.7-.3l.2.1-.2.2v-.3zm.5 0l-.1.1v.2l.1-.2v-.1c.1.1.2.1.2 0 0 0-.1.1-.2 0zm-.1 1.7l-.1-.2-.2.2h.3zm-.7.1l-.2-.4-.2.4h.4z"/><path fill="#e52629" d="M27.3 6.8c-.4 0-1.2-.1-1.3.3v.6l.3.6c0-.2-.1-1 .3-.8.3.2.4 1.2.6 1.4 1 1 2.3.7 3.5.5.5-.1 1.5-.1 1.8-.4.2-.2.4 0 .4.2.1.2.2-.1.3-.1.2 0 .2.3.4.2l.4-.4c.1 0 0 .3.2.3s.2-.6 0-.6l-1.4.2c-1.4.2-2.3.4-3.9.1-1.1-.5-1.6-1.1-1.6-2.1z"/><path fill="#fff" d="M44.1 10.1l-.1-.2c1-.8 1.9-.7 3 0 .5.4 1.1.4 1.8 0-.1.7-.4 1.1-.8 1.3 1.7 1.3.3 2 .3 3l-.5-.6.1-.4c0-.4-.3-.9 0-1.3-.4.3.1 1.2-.2 1.5-.4-.4-.4-.9-.4-1.6-.2.2-.4.4-.8.5-.1-.8.1-1.3.4-1.5-.9-1.1-1.8-1.1-2.8-.7zm.8 9.1l-.6.4c-2.5-3.2-3-6.6-1.4-8.9l.2.4c-.8 1.3-.7 2.8-.3 4.2.2-.1.4-.4.4-.6.1 1.2.4 2.3.7 3.1.2-.3.4-.5.4-.8l.6 2.2zm-6 7.9a5.5 5.5 0 00-2.6-1.8c.5-.3 1.1-.4 1.8.4.7.5.8 1 .8 1.4zm-1.5 10.3c.4-.3.9-.4 1.5-.3.1.3-.2.5-.7.8 0-.2-.5-.3-.8-.5zM36 41.5c-.1-.5.2-.8 1-.7.1.3.2.5-.1.9-.2-.4-.5-.4-.9-.2zm7.2 2.1c-.2-.4-.2-.8-.2-1.2-.6-.1-.9 0-1.2.3.5.5.9.7 1.4.9zm1.6-1.3c0-.4 0-.7-.2-1.2.3-.3.6-.4.9-.3.2.8-.2 1.1-.7 1.5z"/><path fill="#fff" d="M36 25.6a7.2 7.2 0 01-5.2 1.2c-1-.3-2.2-.3-3.1.8-.4-.7-1.3-.5-2 .4-.4-.4-.9-.4-1.1-.1-.8 1.2-1.7 1-1.9-.1-1.2.8 0 1.7 1.6 1.4-.2.3-.5.4-1.1.5.8.4 1.5.4 2.2 0-.2.3-.1.6.4 1-1.3.4-1.3 1.3.1 2.2-.5-.1-.8-.2-.9 0s.1.4.4.6c-1.3.1-2.5.9-3.4 1.9-.9 1-2 1.7-3 .7-.4-.4-.3-1-.4-1.3-.2-.3-.4-.4-.6-.4-.3 1-.8 1.5-1.7 1.5.1.7.6 1 1.7.5-.7.5-.9 1.2.3 1.6-.4.4-1 .6-1.5.5-.4-.1-.7-.4-1.2-.4-.8-.2-1.4 1.1-1.3 2.3.4-.4.8-.9 1.1-1 .2.2 0 .5-.1.8.4-.3.8-.5 1-.8v.6c.4-.4 1.1-.6 1.7-.7-.6.5-1.3 1-1.3 1.6.9-.2 1.5.1 1.8.9.4-.2.8-.3 0-1 .1-.2.3-.3.6-.3.1-.3 0-.5-.2-.8.4.4.6.2 1.1 0-.6.4-.6.9-.4 1.6.4-.9 1.2-1.3 2-.9.5-.4-.1-1-.5-1.6.3 0 .5 0 .8.2 0-.4-.2-.5-.4-.8.6.2 1.3.8 1.4 1.4.1.6.4.8 1.1 1-.3-.4-.4-.7-.2-1.2.1-.3.2-.5-.1-.8 1 .1 1.6.7 1.8 1.4.2-.6-.3-1.4-.5-1.9.9.4 1.8 1 1.8 1.9.6-.6-.8-1.9-.1-2.6.2.9.3 1.6 1.2 1.6-.3-.5-.5-1.3-.2-1.7 0 .4.5 1.2.9 1.3 0-.7.1-1 .3-1.4.1.4.2 1.1.6 1.1l-.4-1.1c0-.3.2-.5.1-.8l-.1-.6c.3.2.6.4.8 1l.1-1.2c.4.2 1.1 1.1 1.1 1.5.4-.1.4-.4.3-.8-.2-.4-.5-.4-.2-1.1.2-.4-.7-.8-.7-1 1.2-.7 1.8-.1 1.9 1.1.5-.7.5-1.3-.4-1.9-.6-.4-1.3-1.6-1-2.5.8-2.4 5.4-.5 6.9-2.3-1.5.4-3.6.8-5.7.6 2-.4 4.8-.3 5.6-1.3-.9.3-1.3.6-2.3.6.3 0 2.1-.7 2.2-1-1.3.6-2.7.8-4 1.1-.5.1-1.2.3-1.7.1 1.2-.4 4.4-.5 5.6-1.7-.4 0-.7.3-1.1.2.5-.3 1.3-.7 1.7-1.2-2.3 1.1-3.9 2.2-6.5 2.1.4-.1 5.1-1.1 5.7-2.2-1.7.9-3.9 1.5-5.4 1.4.8 0 3.9-.5 4.8-2.2-1.4.8-2.7 2-4.9 1.6.7.8 3.8 0 4.1-1.1zm-8.8 8.7l.2.1-.1.2-.3.1-.2.2-.2.1-.1-.2-.2.1c-.2.1-.4.1-.4.4l-.2.1-.1-.2.1-.4.1-.4.1-.2.2.1v.2h.1c.2-.1.4-.1.4-.4l.2-.1.2.1v.2c.1.1.1.1.2 0zm-2 .7l.2.1-.1.2-.1.1-.2.1-.6.6c0 .1-.1.1-.2 0l-.1-.2.1-.2-.2.1c-.3.1-.4.1-.5.4l-.2.1-.1-.2.2-.4.2-.3.2-.1.1.2v.2h.1c.3-.1.5-.1.6-.4l.2-.1c.1 0 .2.1.1.2v.1l.1-.1.2-.1V35zM17 36.4l-.2-.1.1-.2h.4l.4.1.1.2-.2.1-.3-.2-.3.1zm3.6.9c-.1-.1-.1-.2 0-.2.1-.1.1-.1.2 0l.2.4.1.4-.1.1-.2-.1-.1-.4-.1-.2z"/><path fill="#fff" d="M15.6 35.3c1-.1 1.4.2 1.5.3.4-.3.5-.5.5-.8-.7-.4-1.6-.4-2 .5zm-3.2 4.3c.7-.1 1.3-.1 1.5.1l.3-.8c-.7-.2-1.5-.1-1.8.7zm5.5 3.5c-.1-.3-.3-.7-.2-1.3-.4-.3-.6-.4-1.1-.1.4 1.5 1 1.5 1.3 1.4zm2-.2c.4-.4.4-1 .3-1.6.4-.2.7-.3 1 0 0 .9-.4 1.4-1.3 1.6z"/><path fill="#010202" d="M23.4 7c.3-1.2.8-2.1 1-2.5 1.7.4 1.3-2.6-.3-1.7 1.1-1.3-1.7-1.6-1.3-.1-1.3-.2-1.3 1.5 0 1.6l.6 2.7zm18.8-1l.8-1.9c.9-.2 1-1.5 0-1.7-.2-.9-1.4-.9-1.6.1-1.2.2-.7 1.4-.1 1.4l.9 2.1zM13.1 17.7l-.7-2.4c-1.1-.1-1.1-1.4.3-1.7-.1-1.5 1.9-1.1 1.4.2 1.2-.3 1.3 1.4-.2 1.7l-.8 2.2zM41 20.8l.8-2.1c1.3-.2 1.2-1.4.2-1.6.3-1.1-1.7-1.3-1.6.1-1.1-.2-1.3 1.3-.2 1.3.4.8.5 1.6.8 2.3zM13.2 36.3l.9-2.3c1.3-.1 1.6-1.6.2-1.9-.3-1.3-1.3-1.3-1.9-.3-1.2.7-1.1 1.3.1 1.7l.7 2.8z"/><path fill="#fff" d="M23.3 5.6l.6-1.7c1.2.3.9-1.3-.2-.8.7-1.4-1-1.8-.7-.2-1-.3-1.1 1 0 .8.3.7.2 1.3.3 1.9zM42.1 5l.6-1.5c.8 0 1-.8-.2-.6.5-1-.9-1.4-.6 0-1.4-.2-.9.9-.4.7l.6 1.4zM13 16.5l-.4-1.7c-1.1.4-.7-1 .4-.9-.4-1.5 1.2-1.1.7.3.8-.2 1.1.9 0 .8-.3.4-.4.9-.7 1.5zm27.9 2.8c.2-.4.4-.8.4-1.3 1 .2 1.1-1 0-.6.3-1.2-.8-1.7-.7 0-1.3-.4-1.4 1-.2.5.3.5.3 1 .5 1.4zM13 34.8l.5-1.4c.9.2 1.3-.6-.1-.7.6-1.6-1-1.4-.8-.3-.9-.4-1.2 1.2 0 .8.3.5.3.9.4 1.6z"/><path fill="#010202" d="M48 30.1l.5-1.3c.2-.4 0-.5.4-.7.4-.2.4-.4.4-.8 0-.3-.4-.6-.8-.4 0 0 0-.6-.2-.7-.4-.4-1.3-.1-1.3.5 0 .4-.4.1-.6.3-.3.2-.3.6-.1.9.4.5.8-.1 1.1.8.1.1.4 1.5.6 1.4zM35.1 40.3c.2-.4.6-2.1.9-2.4.3-.4.6-.4.9-.7.3-.4.4-1 0-1.3l-.5-.1c-.1-.1.2-.4-.2-.9s-1.5-.4-1.7.3c-.1.3.1.5-.1.5-1.3.1-.9 1.8-.1 1.6.4-.1.4 1.1.4 1.4l.4 1.6zm-4.7 3.5c.2-.4.4-1.3.8-1.5.7-.4 1-.4 1-1.3 0-.5-.7-.4-.8-.8-.1-.8-.4-1.3-1.3-1-.4.2-.5 1.2-.6 1.2-1.2 0-.5 1.9 0 1.5.5-.3.8 1.8.9 1.9zm-10.9-9.6l1-2.1c.3-.7.9-.4 1.2-.9.3-.4.2-1.1-.3-1.3-.7-.3-.5 0-.5-.5 0-.8-1.3-.7-1.5-.2l-.2.6h-.5c-1 .3-1 1.7.3 1.5.3 0 .3 2.4.5 2.9z"/><path fill="#fff" d="M19.7 32.9c.1-.6.4-1.1.4-1.8.4.1 1.3 0 1-.6a.8.8 0 00-.4-.4l-.7.2c.3-.3.4-.4.4-.7l-.1-.4c-.1-.2-.4-.3-.6 0-.2.3-.3.5-.1.9-.4-.3-1.2-.2-1.2.4 0 .4.3.7.6.6l.4-.1c-.2.5.3 2 .3 1.9zm10.7 9.8c.1-.3 0-1.1.2-1.2.3-.2.8-.1.8-.5.1-.4-.3-.5-.6-.4-.4.1-.1 0 0-.4.2-.6-.6-.8-.9-.4-.1.1 0 .4.1.5.2.3-.3.1-.5.2-.5.1-.4 1.3.2 1.1.4-.2.4 0 .5.4l.2.7zm4.6-4.1c.2-.3.4-1.6.5-1.6.3.3.7-.2.8-.4.1-.3.1-.8-.4-.6-.4.1-.6.3-.4 0 .2-.4.2-1-.2-1.1-.6-.1-.8.5-.4 1.1h-.5c-.3 0-.4.2-.4.4-.1.3 0 .4.2.5.4.2.6-.2.7.3-.1.1.1 1.4.1 1.4zm12.8-9.5l.3-1.2c.1-.4.5.2.5-.4 0-.4-.4-.4-.7-.3-.2 0 .2-.3.2-.5s-.1-.4-.4-.4c-.4 0-.6.3-.4.8.1.4-.2 0-.4 0-.5 0-.6.8-.1.8.2 0 .3.1.4 0l.3.7.3.5z"/><path fill="#fbc70a" d="M82.5 55.9l-.6-.1c.2-.5.4-1.2.7-1.6l.7-1.1c.2-.4.1-.8.2-1.2.2-.6.4-1.2.2-1.7-.4-.9.7-1.7 1.1-2.4.4-1 .4-1.7-.7-1.6 1.9-1.9 3.1 1 2.1 1.9-.9.8-1.7 2-1.7 2.8a5 5 0 011.8-2.3c.5-.4 1.3-.5 1.9-.9.7-.4.3-1.3.3-1.8.9.6.4 2 0 2.6.3.1.4.1.6-.2-.1.6-.6 1.3-1.1 1.6.2.1.7-.2.8-.3-.2.7-.4 1.3-.9 1.9l-.9.5c.4.3.9.2 1.5-.2-.4.8-1 .8-1.8 1.2.7.2 1.3.1 2-.1-.3.4-.7.5-1.3.5l-1.3-.2-1.3.2c-.3 0-.4.3-.6.3-.2 0-.3-.3-.4-.2-.4.2-.5.5-.7.8l-.6 1.6zm3.9-7.1h.3v.3c-.4.4-.6.7-.8 1.2-.2.4-.4 1-.4 1.5l-.2.2a.2.2 0 01-.2-.2l.4-1.6.9-1.4zm-3.9 12.1h-.9c-1.3-1-2.3-2.2-1.2-3.6.4-.5 1.1-.8 2.1-.8.9 0 1.9.5 2.8.6.5.1 1-.2 1.5-.2-1.6 1.8-3.5.5-4.7.6-.3 0-1.2 0-1.2.8 0 1.3 1.2.8 1.6 2.6zm-2.1-3c0-.1.2-.2.3-.1.1 0 .2.2.1.3v.9l-.1.3-.3-.1c-.2-.5-.2-.9 0-1.3zm2.8-1l.2.2-.2.2h-1l-1 .2c-.1 0-.2 0-.3-.2 0-.1 0-.2.2-.3l1.1-.2 1 .1z"/><path fill="#fbc70a" d="M81.7 59.1c-.4-.3-.5-.5-.3-1.1.3-.4.7-.3 1.2-.3-.2.3-.2.4-.2.7l.1 1c-.5-.3-.4-.9-.4-1.4 0-.3-.1-.1-.2 0-.2.1-.3.4-.3.6l.1.5zm5.1 2.1c-1.2 1-2.4.7-3.4.4-.2-.1-.2.1 0 .3.1.2-.7 0-.8 0-.9 0-1.4.3-1.4.2-.1-.4.8-.4.9-.4v-.3c-1 .1-1.6.6-2 1.3l-.1.2c0 .1.2-.1.4.1l.1.5-.1.5c-.1.1-.3-.1-.2.1l.5.5c1.3 1 2.3.8 3.1 1.5a2.7 2.7 0 00-2.4-2c-.4 0-.4-.5-.3-1.1.1-.5.9-.8 1.3-.7 1.4.3 3.4.7 4.4-1.1z"/><path fill="#fbc70a" d="M84.1 65.4c0 .1.1.2 0 .2l-.2-.1-.4-.7c-.3-.6-.4-1.3-.5-1.9l.1-.2.2.1.6 1.8.2.8zm-1.8-2.6l.2-.2.2.2.2 1.3c0 .1.1.2-.1.3-.1 0-.2 0-.3-.2V64l-.2-1.2zm1.8 4.9l.1-.2.2.1c.4 2.4.4 3.9-.7 5.3-1 1.1-2.7 1.7-4.7 1.1l-.1-.2.2-.1c2.1.4 3.5-.2 4.3-1.2s1.1-2.4.7-4.8z"/><path fill="#fbc70a" d="M83.4 67.7l.1-.2.2.1.2.8.3.8-.1.2-.2-.1-.3-.8c-.2-.3-.2-.5-.2-.8zm-26.1 8c1-.9 1.2-1.5 1.7-2.3.5-.7 1-.7 2-.7 0-.6 1.9-1.8 2.5-1.4l.5.1c.3 0 .5-.4 1-.5.7-.4 1.8-.4 2.3 0 .5.5 1.8.4 2.7.2.4-.1 1.8-.2 2.4.4l-2.1-.1c-.7 0-2 .1-2.3.7 1.3-.3 3.1-.3 4.1-.1-.9.2-3.9-.1-4.1.5 1.1 0 2.2-.1 3.2 0l-2.9.2c-.4 0-.7.1-.7.2-.4.4 1.3.3 1.5.3l1.8.3H69l-1.6.1c-.3 0-.6.2-.7.4-.1.2.6.1.7.1 1 0 2.5-.2 3.4.2-1.1 0-3.6-.3-4.4.7.7 0 1.4-.4 2.2-.4.8 0 1.3-.1 2.1.3h-1.3c-.9.1-2.3 0-3.1 1.1 1.8-.8 2-.7 3.2-.7.2 0 1.1 0 1.6.4-.7-.2-1.5-.2-2.3-.1-1.5.1-2.6.7-2.7 1.6 0 1 1 1.7 1.3 2.5-.2-.1-.4 0-.4.2 0 .1.2.2.2.5-.9-.1-.4.9-.4 1.4s.6.7.6 1.3l-.4-.4c-.1-.1-.3-.4-.4-.3-.1 0-.1.4-.4.4v-.3c-.4-.4-.4.9-.9 1.3.1-.3 0-.9-.2-.9-.4-.2-.4.4-.4.6 0 .2-.2.6-.6 1 0-.2.2-.7 0-.8-.3-.1-.3.3-.3.4 0 .2-.5 1.2-.8 1.2 0-.2 0-.4-.2-.4-.3 0-.2.4-.2.6 0 .3-.2.4-.4.5.1-.3.2-.5.1-.6-.3-.5-.5.2-.5.4l-.2 1c-.4-.1-.5-.5-.5-.8v-.8c0-.5-.4-.4-.3-.9 0-.5.5-.2.9-.4l1.7-1c.4-.3.5-.5.7-.9.2.3.1.7.3.7.1 0 .3-.5.3-.9.4.4 1.1-.3 1.1-.4 0-.2 0-.4-.3-.3l-.4.4c-.3.1-.4-.1-.9.4l-.1-.4c-.4-.1-.4.4-.3.6-.2-.1-.2-.3-.4-.3s-.2.4-.2.4c-.1.3-.4.8-.7.8.1-.2 0-.5-.3-.6 0 .3 0 .6-.4.8.1-.2 0-.4-.1-.6-.3.6-.7 1.3-1.1 1.3l-.1-.4c-.2-.2-.1.4-.5.5-.1-.4-.4-.1-.5.1l-.6.3c-.3.1-.9.2-.9.4 0 .3.3.2.5.2.4 0 .4-.2.5-.2l.5.1c.1.6.6.5.4 1.3-.7-.4-1.3 0-1.3.2-.3-.1-.2-.4-.4-.4s-.4-.1-.5.1c-.3.3-.2.5-.4.7-.1.2-.4.1-.5.1-.2 0-.3.4-.1.4.4.2.9.6.5.9-.7-.7-1.6-.3-1.9.1-.6-.7.2-1.4.3-2.2.1-.3 0-.6-.2-.9-.4-.4-.5-.2-.4.2l.2.5c.1.5-.4.1-.6.1s-.4.3-.5.4c-.3.4-.4.4-.7.6-.1.1-.4.7-.6.6.2-.8-.4-1.5-1.3-1.3 0-.5.8-.7 1.1-.9.4-.3.9-.6.9-.8.1-.7-1.2.4-1.2-.3l-.1-.6c0-.2-.4-.4-.4-.6.4.1 1-.6 1-1 .2 0 .9.5.7 1-.1.3-.3.6-.1.7.4.1.3-.4.4-.4.3 0 .3.3.3.4 0 .3.1.3.2.3.3 0 .5-.4 1.2-.9.3-.2 1.2-.5 1.6-.5l.4.1c.1.1 0 .3.2.4.3.1.5-.4.5-.7 0-.1-.3-.2-.4.1-.1.1-.2.1-.2 0 .2-.4.5-1.1 1.4-1.6 1.2-.8 2.2-.5 2.2-1 0-.4-.7-.5-.7-.9-.1-.8.2-.6.2-1.5 0-.6-.5-1.1-.5-2.3-.4 0-.7.4-.9.6-.3.4-.5.6-1 .6.4-.4.3-.9.6-1.3s.7-.5 1-.6c.4-.2.6-.7 0-.4-1.5-.1-1.6 1.5-2.6 1.5zm8.3 5l-.2-.1.1-.2.4-.1c.1-.1.2-.1.2-.3l.2-.1.1.2-.3.4-.5.2zm-.5-.6l-.1-.2c0-.1.1-.2.2-.1l.4-.1.4-.4c0-.1.1-.1.2 0 .1 0 .1.1 0 .2-.2.3-.3.5-.5.5-.3.1-.4.2-.6.1zm0-.4l-.2-.1.1-.2.4-.1.3-.3c0-.1.1-.1.2 0s.1.1 0 .2l-.4.4-.4.1zm-.2-.6l-.2-.1.1-.2h.2l.1-.1.4-.4c0-.1.1-.1.2 0 .1 0 .1.1 0 .2l-.6.5-.2.1c.1 0 .1 0 0 0zm-.2-.6c-.1 0-.2-.1-.1-.2l.2-.1.5-.1.4-.4.2-.1.1.2-.4.5c-.4.2-.7.3-.9.2zm0-.6l-.1-.2.2-.1.5-.1.4-.4.2-.1.1.2-.5.5c-.3.2-.5.3-.8.2zm-.2-.6l-.2-.1.1-.2h.4l.7-.3.2.1-.1.2a3 3 0 01-.8.4l-.3-.1c.2 0 .1 0 0 0zm.2-.5l-.2-.1.1-.2.6-.2.5-.4c.1-.1.2-.1.2 0 .1.1.1.2 0 .2-.2.2-.4.4-.6.4-.1.2-.4.3-.6.3zm0-.8c-.1 0-.2-.1-.1-.2l.2-.1.5-.1.5-.4c.1-.1.2-.1.2 0 .1.1.1.2 0 .2-.2.2-.4.4-.6.4-.3.2-.5.2-.7.2zm.2-.4l-.2-.1.1-.2.6-.3.4-.4c0-.1.1-.1.2 0 .1 0 .1.1 0 .2l-.5.5-.6.3zm1-1.7l.2.1-.1.2-.2.2-.2.3-.2.1-.1-.2v-.4l-.1.1-.4.3-.2-.1v-.1h-.1l-.2-.1-.1-.1v.1l-.2.1-.1-.2.1-.4.3-.4c.1-.1.2-.1.2 0 .1.1.1.2 0 .2l-.1.1.1.2.1-.2.4-.4.2.1-.1.2-.4.4-.3.3.4-.2.3-.4.1-.1.1.2v.3l.6-.2zm-3.8 2.3c-.1.1-.2 0-.2 0-.1-.1 0-.2 0-.2l.6-.6.5-.7c.1-.1.1-.1.2 0s.1.1 0 .2l-.2.2v.1l-.4 1-.7.7c-.1.1-.2 0-.2 0-.1-.1 0-.2 0-.2l.6-.7.2-.3-.4.5zm.2 1.1c0 .1-.1 0-.2 0l.1-.2.3-.2.3-.3.4-.7.4-.8.3-.2.3-.2.2.1-.1.2-.3.1-.3.2-.4.7-.3.6h.1l.1.2c0 .2-.1.4-.3.4l-.4.4c-.1.1-.2 0-.2 0v-.2l.4-.4.3-.4-.1.1-.3.3c0 .3-.1.3-.3.3zm.6.9c-.1.1-.2 0-.2 0-.1-.1-.1-.2 0-.2l.5-.4.4-.4c.1-.1.1-.1.2 0 .1 0 .1.1 0 .2l-.4.4-.5.4zm.3.6c-.1.1-.2 0-.2 0-.1-.1 0-.2 0-.2l.3-.3.2-.4.2-.1.1.2-.2.4-.4.4zm.6-2.4l-.2.1-.1-.2.2-.5.4-.4h.2v.2l-.4.4-.1.4zm.3.4l-.2.2a.2.2 0 01-.2-.2l.1-.5.2-.4.2-.1.1.2-.2.4v.4zm-2.8 4.9l-.1.2-.2-.1v-.6c.1-.2.3-.4.5-.4l.2.1-.1.2-.4.3.1.3zm-.6 0l-.1.2-.2-.1-.1-.3-.1.1-.1.3c0 .1-.1.2-.2.1-.1 0-.2-.1-.1-.2l.1-.4.4-.4h.2l.1-.2c.1-.1.2-.1.2 0 .1.1.1.2 0 .2l-.3.4c.2.1.2.2.2.3zm-1.2.4l-.2.1-.1-.2.2-.4.3-.4c.1-.1.2-.1.2 0 .1.1.1.2 0 .2l-.3.4-.1.3zm-1.9 1.5l-.1.2-.2-.1-.1-.4V83l.2-.1.1.2v.3l.1.2zm-.7.1l-.1.2-.2-.1-.1-.4V83l.2-.1.1.2v.3l.1.3zm-.1 1.5l-.2.1-.1-.2c0-.2 0-.3-.2-.4l-.5-.4c-.1 0-.1-.1 0-.2l.2-.1.6.5.2.7z"/><path fill="#fff" d="M73.1 50c.3.3.6.4 1 .4-.2.2-.4.3-.7.1-.3-.1-.3-.2-.3-.5zm0-.2h.6v-.1l-.1-.4c-.2-.2-.4-.1-.4.1l-.1.4zm-3.5 2.1l.4.3v-.5c-.1-.1-.4.1-.4.2zm.8-.3l.5-.1c0 .2.1.8-.3.8l-.2-.7zm1 .2l.5.3-.3.5-.2-.8zm.8.2l.5.1-.5.3V52zM71 53.7l.2-.3c.2.1.2.2.2.4l-.4-.1zm1-.5c-.2.1-.3.3-.3.4h.4l-.1-.4zm.7 0l-.2.4h.4c0-.3-.2-.4-.2-.4z"/><path fill="#e52629" d="M72.9 52.6l-1.3.1-3.1-.1a6 6 0 01-3.3-1.1c-.4-.4-.6-.8-1-.9-.4-.1-.5.3-.2.7.9 1.1 2.6 2 5.5 1.6h1.6l1.7-.1c.5 0 .5-.2.1-.2zm-.3-4.6h4.6v.3h-4.6V48zm-.9-.2h5.7l.3-.5c.2-.3.4-.4.6-.5.4-.3 1-.4.5-1-.3-.4-1.2.4-1.7.4-.8 0-.4.4-.4.9h-1.3c-.1-.4.5-.4.5-.7-.1-.4-.3-.3-.7-.2-.6.2.2-.9-.4-.9-1.2 0-.6.5-.8.8-.1.2-.5-.4-1 .1-.2.2-.2 1 .4.7 1.1-.4.4.5-.4.4-.5-.1-.6-.5-1-.9-.3-.3-.4.4-.7 0-.3-.4-.3-1.2-1-.5-.3.3-.4.5.3 1l1.1.9zm-12.1-1.3c.1.4 0 .9-.3 1.1l.5.4c.7-.5.5-1.6-.2-1.5zM54.7 53c.3.3.5.4.8.4.1.4-.1.6-.4.7-.4-.3-.6-.6-.4-1.1zm-3-.2c.3-.4.6-.5 1.1-.5a1 1 0 00-.5-.9c-.6.1-.8.6-.6 1.4zm.4-5.9c.4 0 .9.1 1.1.5.4-.1.6-.4.6-.8-.6-.3-1.2-.2-1.7.3zm.5 18.6c.6-.4 1.2-.6 1.6-.2 0 .4-.2.5-.4.6-.1-.3-.7-.4-1.2-.4zm-1.1 4.2c.1-.5.4-1.1 1-1.3.3.4.4.8.2 1.3-.5-.4-.8-.2-1.2 0zm4.4 3.5c-.4-.3-.5-.6-.4-1.4.4 0 .6.1.7.4-.3.1-.3.6-.3 1zm3-1.4c.2-.2.4-.4.4-.8.4-.1.7 0 .9.3-.4.5-.9.6-1.3.5zm.4 15.9c.5-.4 1-.8 1-1.7-.4-.2-.7-.1-1 .2a2 2 0 010 1.5zm-2 1.5c-.2-.4-.3-.8-.2-1.3-.3-.1-.7 0-1 .3.1.6.6.8 1.2 1zm-5.6-1.1c.2-.4.4-.8 1-1 0-.4-.2-.6-.6-.8-.6.6-.6 1.3-.4 1.8zm-.7-6.4c.5 0 1 0 1.3.4l.4-.4c-.6-.5-1.4-.5-1.7 0zm13.1 4.6c.8.1 1.3.3 1.7.7.2 0 .3-.2.4-.8-.9-.7-1.5-.4-2.1.1zm.7 4.7h1.3c0-.4-.1-.7-.4-.9-.5.2-.7.5-.9.9zm6.4 1.1c-.4-.2-.6-.5-.6-1.1-.4.1-.6.2-.7.5.3.6.7.8 1.3.6zm1.7-1.4c0-.4-.2-.9-.4-1.3.1-.3.2-.4.5-.5.5.7.4 1.3-.1 1.8z"/><path fill="#fbc70a" d="M86.7 66c-.7 1-1.4 1.2-3.3 1.2-1.2 0-2.1 1.1-1 1.7.5.3 1.3.4 1.3.9.4 1.2-.4 2.2-.9 2.7-1.3 1.3-2.6 1.2-4.5.8-.3 1.3-2.3 2.3-2.3 3.1 0 .4-.3 1-.7 1.2-.5.3.3.3.7.3.8-.1.9 0 1.3.5.3.4.4.9.7.4.5-.5 1.4.2 1.7.3 1.1.6 2.3-.3 2.7-.7.3 1.4-1.8 1.8-2.8 1.8.7.4 1.2.4 2 .4 0 .4-.7.4-1.2.4-.7 0-1.6 0-1.9.4l-.3.4c-.1.6 1.3.4 1.6.3-.2.7-1.3.6-1.8.6.3.6.4.8.5 1.5-.3-.3-.4-.7-1-.7.1.3.4 1.1 0 2.2-.1-.4-.2-.6-.5-.7 0 .3.1 1.8-.4 2 0-.4 0-1.1-.6-1.3.1.8 0 1.2-.3 1.7 0-.2-.1-.5-.3-.6-.2.2-.2.4-.2.5-.4-.1-.6-.4-.7-.8-.5.4-.2 1.6.5 1.8-.9.4-1-.6-1.7-.6-.4 0-.9-.1-.9.4 0 .4.6.2.6.5-.5 0-1.3.3-1.3.9-.2-.4 0-.7-.4-1-.2-.2-.2-.3-.4-.3-.3 0-.4.4-.3.4.3.3.2.4.1.5 0-.2-.4-.4-.4-.2-.1.1 0 .3 0 .4.1.3 1 .7.9 1.2-1.1-.3-1.5.2-1.9.4a1 1 0 01-.4-.8l.2-.5-.3-.2c-.2-.1-.5.3-.5.4l-.2.7-.7-.1-.4.1-.4.4-.3.1-.3-.1c.2-.5-.3-1.3-.9-1.5.3-.4.4-.4.9-.4.4 0 .5.1.7-.2l.5-.4c.1-.1 1-.1.6-.4-.3-.3-.5 0-.7.1-.4.2-1.2.1-1.3-.2-.2-.3-.9-.5-.9-.6 1.2 0 1.2-.6 1-1.5.7-.3.9.4 1.2.8.3.4.6.8 1.3.8.2-1 .5-1.9 1.3-2.4 1-.6.7-1.3.9-1.8.2-.4.6-.8 1-1.2.6-.8-.2-1-.2-1.8 0-.2.4-.9-.2-.7l-.6.6c-.3-1.1-.4-1-1.2-1.6-.5-.4-.4-1.3-.1-2 .5-1.1 1.3-.7 1.8-1.4l.4-1.1.6-1.3c.4-.7 1.1-1 1.1-2v-1.1c0-.3-.1-.4-.2-.4-.4 0 0 .5-.3.9l-2.4-1c-1-.3-1.7-.7-2.2-1.4-.2.4 0 .8.1 1.2-.3-.1-.5-.5-.6-1-.4.4-.4.5-.4 1.2-.3-.4-.3-.5-.3-1-.1.3-.3.3-.5.4.1-.3 0-.4-.2-.4-.3.2-.4.8-.8.8 0-.3 0-.9-.4-1 0 .8-.3 1.3-.7 1.3.3-.5 0-1.3-.4-1.3-.2.3.2 1.2-.5 1.8.2-.3.2-1-.3-1.1l-.4 1.2-.5.4c.2-.4.4-1.3-.2-1.6-.1.3.1 1.8-1.1 2.1.3-.4.7-1.3-.3-1.7-.4 0-.4.5-.4.9.1.3.1.7-.2.9-.6-.5-1.3-.4-1.6-.2-.2-.3-.2-.6-.1-.8l.4-.2c.3 0 .2-.3 0-.4-.3-.2-.6-.2-.8 0-.2.1-.1.3.2.3l-.6.6c-.8 1.1-.3 2.1-1.2 2.3 0-1-.7-1.1-1.5-1.1.2-.4.4-.4.6-.6.5-.3 1 .1 1.1-1 0-.5-1-.4-1.4-.3l-.4.3c-.2.1-.4-.3-.9-.3-.4 0-.5.4-1.3.4.6-.4.4-1.5 0-1.7.3-.4.8-.3 1.5 0 .3.1 1.3.4 1.6.2.2-.1.5-.4.1-.5-.2-.1-.6.2-.8 0l-.6-.5c-.3-.3-.8-.4-1.1-.6.9-.1 1.2-.7 1.2-1.3.7 0 .7 1 1.2 1.3.4.3 1.5 1 2.1.5.6-.5 1.2-1.2 1.9-1.4.8-.4 1.4-.4 2.2-.9l2-1.8c.4-.3 1.3.2 2.2-.3-.1.3-.4.4-.6.5-.6.1-1.4.3-1.4 1.5.7-.4 1.6-.6 2.3-.1.2.1.6.3 1.1.2.4 0 .8-.4 1.1-.8.2.5-.4 1.2 0 1.1.4 0 1.1-1.1 1.1-1.7 0 0-.4.6-.7.7.1-.3.2-.9-.1-1.3-.2.5-.7 1.1-.9 1.3-.4.4-1.2.4-1.7.2-.5-.4-1.2-.2-1.7 0 .1-.6.7-.5 1.3-.8.9-.4 1.1-1.3 1.2-1.8-.5.8-1.5.9-2.4.9-.5 0-1-.1-1.6 0s-1 .3-1.5.6c.4-1.2 1.7-1.6 2.6-1.5.9.1 2.7-.3 2.9-1.3-1.3 1-1.4.7-3 .8-1.1 0-1.8.4-2.5 1.3s-1.7 1.4-2.8.8c-.7-.4-2.3-.7-3 .6-.3-1.3.2-1.9 1.3-2 .7 0 1.7.4 2.6.4.9 0 1.7-.2 2-.6.7-1.3.7-1.9 2.6-2.6l1.3-.4c.6-.3 1.1-.6 2.1-.6-.4-.6-1.4-.1-1.8.2-1.5 1.1-2.6-1.3-3.8.1-.4.4-.4 1-.1 1.3.1.1 0-.4.3-.7.1.2.2.6.3.5.1-.1-.1-.7.3-1.1 0 .6.3.8.3.8-.6.4-1.5 1.8-1.9 2.4-.3-.5.1-.7.1-1.1 0-.2-.2-.3-.3-.3-.4 0 .1.6-1 1 .4-.5.3-1.3 0-1.5-.3-.2-.3.1-.3.3 0 .2-.1.3-.4.4.2-.4.1-2-.4-2.4 0 .9-.3 1.2-.6 1.3.3-.4.3-.7.2-1.2 0-.3-.2-.4-.4-.5-.1-.2.2-1.3-.4-1.1-.4.2-.6.4-.8.9-.2-1.3.6-1.4.6-2.2-.4 0-.6-.2-1.3.6-.1-.5.4-1.2 1.1-1.6-.4-.7-.9-.3-1.2-.1-.3.2-.5.2-.8 0 .3-.3.3-.4.4-.7.1-.3.1-1-.3-1.1.4 0 .8 0 .8-.4l-.3-.4c0-.3.1-.6-.4-.5-.2 0-.2.1-.2.4-.2-.2-.2-.4-.4-.3-.2.1-.2.6-.4.6 0-.3-.2-.4-.4-.3l-.2.4c0 .3-.3.6-.4.7-.2.1-.6.1-.8-.2.4-.5.1-1.8-.6-1.8 0-.5 1-.2 1.5-.3.4 0 .7-.5 1.5-.6.3 0 .4-.2.3-.3l-.5-.4c-.2-.1-.6-.3 0-.1l.1-.3-.1-.4c-.2-.3-.4-.1-.4.1l.1.4c-.1.1-.4-.2-.5-.3l-.3-.5-.5-.4c.6-.4.9-.8 1-1.3.7-.1 1 .4 1.2.8.2.6 1.3.4 1.6 1.5.2.6 1-.4 1.1-.7.1-.4.1-.8.5-.8.3.4.6.9 1.2.9 0 .6-.4.5-.7.8-.1.1-.7.8-.7 1 0 .3.4.4.4.8 1.5 3 2.3 3 4.3 4 .4.2 1.1.6 1.3 1 .9 1.9.3.3 2.2.3 1.1 0 2.2.2 3 .4.2-.4-.3-1.2-.7-1-.3.1-.5.3-.8.3h-.4l-.4-.3c.4-.2.4 0 .7 0 .6 0 .8-.4 1.3-.4.8-.1.7.3 1.6.3.7 0 1.2-.4 1.2-1.1 0-.2-.2-.2-.4 0-.3.2-.4.4-.8.3-.4-.3-.5-.4-.4-.9 1.2 0 2 .1 3.1-.1.9-.2.8-.6.4-1.3-.4-.7-.1-1.3-1.1-1.1-1.2.4-1.4-1-2.5-.4-1.3.8-.7.4-1.2-.4-.2-.3-.8-1-.2-1.2.4-.2.7.2 1 .3s1.3-.1 1.8-.1c.4 0 1-.4 1.1-.8 1-.2 2.1.1 3.1-.1h1.5l.5.4.1.5c0 1 .6.6.4.2-.4-.8 1.2-1 .4.4-.2.4-.4.7-.6.7-.2 0-.4-.3-.6-.6-.1-.2-.4-.3-.2-.4.3-.3.1-.9-.3-.2-.2.4-.6.5-1 .7-.1.1-.1.4.1.4 0-.2.9-.6.9-.4 0 .3-.4.4-.4.7.3 0 .4-.2.6-.3-.2.6-.6 1-1.4 1 1 .7 1.5-.4 2-.7 0 .5-.2.9-.8 1.3.4.1.6-.1 1-.4l.3-.5.4-.4c.2-.2.3-.4.5-1.1.4.4 2 .4 2.5-.2 0 1.1-1.3 1.9-2.2 1.3.1.6.7 1.3 1.7 1.3-.1.8-1.4.8-1.9.5 0 .8.6 1.9 1.7 1.7.1.9-.9 1.6-1.6 1.4 0 1-.5 1.5-.5 2.2 0 .6-.4 1.5 1 2.2-1.1.4-1.4-.1-1.9-.9-.3-.4-.2-.8-.4-1.2l-.4-.4-.2-.4c-.4-.4-.4.5-.4.8-.3.3-.1.6.1.6.4 0 .4-.3.4-.5.3.2.4.5.4 1.1 0 .6-.7 1.1-.7 1.9 0 1 0 1.3.6 2.1-1.4 0-1.6-1.7-1.3-2.3-1.1.4-.7 2.5-.4 3.3-1.3-.8-.7-2.3-.4-3.3-1.3.5-.9 3-.6 3.8-1.2-.5-.5-3.2-.1-3.9-.9.4-1.3 1.6-.8 3.6-1-.7-.8-1.2-.7-2.2-1.1.3-.3 1.9.3 2.4-1.1-.2-1.4-1.2-1.8-2.1-.3 0-.4.3-.5.4l-.1 1.4c0 .5 0 1.2-.2 1.4l-.3-.6-.1-.5V64l-.1-.2-.2.1v.4l-.1.4-.2-.3v-.1l-.2-.1-.1.2.2.5.1.1h-.2l-.5-.1H69l-.1.2.2.5.4.5c.1.1.1.1.2 0s.1-.2 0-.2l-.4-.5-.1-.3.3.1h.5c.3 0 .3.3.4.6.1.1.2.1.2 0 .4-.3.4-1.1.4-1.8l.1-1 .3-.1c.2 1.3 1.5 2 2.9 1.7.4 3.9 2.2 1.2 3.6 5.4.3.8.6 1.8.9 2.1.4.4 1.9.5 2.7.4 1.3-.4 1.8-1.1 1.5-2.3-.2-1.2-3.3-1-2.1-3.4 1-1.1 3.3.4 5.8-.8zM73.3 79.4l-.1.2c0 .2 0 .2.2.2l.2-.1.1-.3-.1-.1-.3.1zm-.6-8.9c.3.3.4.5.5.9.1-.2.2-.4.1-.5 0-.3-.3-.3-.6-.4z"/><path fill="#fff" d="M89.6.8H74.2v17.9h15.3L89.6.8zM66.4.8H50.2v17.9h16.2V.8zM50.2 44.1h16.2V26.6H50.2v17.5zm24 0h15.3V26.6H74.2v17.5z"/><path fill="#e52629" d="M73 .8V19l-3.1 3.1-3.2-3.1V.7l6.3.1zM50.1 19.4v6.3h16.1l3.1-3.1-3.1-3-16.1-.2c0 .1 0 0 0 0zm16.6 24.7H73v-18L69.9 23l-3.1 3.1v18zm22.9-18.4v-6.3H73.3l-3.1 3 3.1 3.1 16.3.2z"/><path fill="#fff" d="M70 .8V22l-.2.2-.1-.1V.9l.3-.1zm.3 21.6h19.2v.3H70.3l-.2-.2.2-.1zm-.3.7v21h-.3V23l.1-.1.2.2zm-.7-.4H50.2v-.3h19.2l.1.1-.2.2z"/><path fill="#fbc70a" d="M9.9 52.4v8.7a40 40 0 0037.9 38.1L9.9 52.4zm39.7 23.5v-31H23.8l25.8 31z"/><path fill="#e52629" d="M49.6 76.7L23.1 44.8H9.9v5.9l39.5 48.6h.4l-.2-22.6z"/><path fill="#010202" d="M40.4 66.6c-1.2.3-1.7.1-3-.9.8 1.1.7.9 1.7 1.8-.8.4-2.1.5-3.4-.5l1.5 1.5c-.6.4-1.6.4-2.5 0 1 1.3 2.2 1.7 3.4 2.3-.2.4-.4.5-1.2.8.6.7.4 1.3.4 1.9-.6.1-.7-.3-1.1-.3-.4 0-.8.2-1.2-.2a3 3 0 00-.4.8l-.3-.8a7.8 7.8 0 00-1.9-3.4c.4 1.3.7 2.2.2 3.5-.5-1.1-.8-2-1.5-2.6.7 1.4 1.1 2.6.4 4.1-.3-1-1.2-2.3-2-3.3.6 1.2 1.3 3 1.1 4.2-1.8-2.5-4.1-5-6.2-7.6-.6-.6-1.3-1.4-1.3-2.4 0-.4.1-1 .5-1.3l.6-.4c.3-.1.5-.2.8-.1.4 0 .9.3 1.3.7.4.4.7.7 1.2.7h.2l.2-.1.1-.1.1-.4-.2-.7-.4.2-.7.3v-.8l-.4-.7c-.5-.7-.7-1.4 0-2.2.6-.5 1.2-.4 1.6.1.4.4.6.9 1.2.9h.5c0 .5-.2.8-.4 1 .3.3.6.5 1.2.3.4-.2.1-1.2-.1-1.4-.4-.8-1-1.8 0-2.9.4-.5 1-.7 1.5-.6 1.3 0 2.4 1.6 3.1 2.3l5.4 6.3z"/><path fill="#fff" d="M38.8 65.7l-4.4-5.3c-.4-.5-1-1.3-1.6-1.7-.6-.4-1.3-.6-2 .1-1.2 1.3.7 2.4.4 3.6-.2.6-.5.7-1.3.7-.5 0-1.3-.4-1.3-.9.3 0 .5-.2.5-.4-.4 0-.8-.3-1.2-.6-.5-.4-1.1-.9-1.5-.5-.3.3-.3.7-.1 1 .4.5.9 1 .9 1.5.4-.1.5-.3.7-.4.5.5 1 1.8.2 2.3-.8.4-1.6 0-2.2-.7-1-1.3-2.4 0-2.4.8-.1 1.1 1 1.8 1.5 2.5 1.1 1.5 4.6 5.2 5.4 6.8 0-1.3-.7-2.6-1.6-3.9-.4-.6-.6-1.2-.4-1.3.5-.5 2.9 3.1 3.1 3.6 0-1.6-1.5-3.1-1.5-4.8 1 .8 1.7 1.7 2.5 3-.2-.9-.8-2.2-.8-3.3a9 9 0 013.3 4.8c.4-.4.3-.9.6-.8.4 0-.6 1.1 1.5 1.2-.1-1.6-.6-1.4-1.1-2 .4.1 1.6.3 1.6-.3-1.7-.6-3.9-2.2-4.5-4.6 1 1 1.8 1.7 3.3 1.9-.7-.7-2.2-2.1-2.2-3.3 1.5.8 2 2.1 4.1 2.3-1.3-1.3-3-3.2-3-4.5a13 13 0 003.5 3.2z"/><path fill="#010202" d="M29 53.4c-1.2.2-1.8.1-3-1 .8 1.1.7.9 1.7 1.8-.7.4-2.1.4-3.3-.6l1.5 1.6c-.6.4-1.6.4-2.5-.1 1 1.2 2.2 1.7 3.4 2.3-.2.4-.4.5-1.2.7.6.7.4 1.3.4 1.9-.6.1-.7-.3-1.1-.3s-.8.1-1.2-.2a3 3 0 00-.4.8l-.4-.9A8 8 0 0021 56c.4 1.3.7 2.2.2 3.4-.5-1.1-.8-2-1.5-2.5.7 1.4 1 2.6.4 3.9-.3-1-1.2-2.3-2-3.3.6 1.2 1.3 2.9 1 4.2-1.7-2.5-4-5-6.1-7.6-.5-.6-1.3-1.4-1.2-2.4.1-.4.1-1 .5-1.3l.6-.4.8-.1c.4.1.9.3 1.3.7.3.4.7.7 1.2.7h.2l.2-.1.1-.1.1-.4-.2-.6-.4.2-.7.2v-.7l-.4-.7c-.5-.7-.7-1.4.1-2.2.6-.5 1.2-.4 1.6.1.4.4.6.9 1.2.9h.5c0 .5-.2.7-.5 1 .3.3.6.5 1.2.4.4-.2.1-1.2 0-1.3-.4-.8-.9-1.8 0-2.8.4-.4 1-.6 1.5-.6 1.3.1 2.4 1.7 3 2.3l5.3 6.5z"/><path fill="#fff" d="M27.5 52.3L23.2 47c-.4-.5-1-1.3-1.6-1.7-.6-.4-1.3-.7-2 0-1.1 1.3.7 2.4.4 3.6-.3.6-.5.7-1.3.6-.5 0-1.3-.4-1.3-.9.3 0 .5-.2.5-.4-.4 0-.8-.4-1.2-.6-.5-.4-1-.9-1.5-.5-.3.2-.3.7-.2 1 .3.5.8 1 .8 1.5.4-.1.5-.3.7-.4.5.5.9 1.8.1 2.2-.8.4-1.6-.1-2.2-.8-1-1.3-2.4-.1-2.5.7-.1 1 .9 1.8 1.4 2.5 1.1 1.5 4.5 5.2 5.2 6.8.1-1.3-.6-2.6-1.5-3.9-.4-.6-.6-1.1-.4-1.3.5-.4 2.9 3.1 3.1 3.6 0-1.6-1.5-3-1.4-4.7 1 .8 1.6 1.8 2.4 3 .1-.9-.5-2.2-.5-3.2a9 9 0 013.2 4.7c.4-.4.4-.8.6-.8.4 0-.6 1.1 1.5 1.2-.2-1.4-.6-1.3-1.3-1.8.4.1 1.6.4 1.6-.2-1.7-.7-3.9-2.3-4.4-4.6.9 1 1.7 1.7 3.3 2-.7-.7-2.2-2.1-2.2-3.3 1.5.9 1.9 2.2 4 2.4-1.3-1.3-3-3.2-2.9-4.5 1.4 1.3 2.6 2.3 3.9 3.1z"/><path fill="#010202" d="M49.6 80.2l-1.1-.7 1.1 1.3v.8c-.7.1-1.7-.1-2.6-.8l1.5 1.6c-.6.4-1.6.4-2.5-.1 1 1.2 2.2 1.7 3.4 2.3-.2.4-.4.5-1.2.7.6.7.4 1.3.4 1.9-.6.1-.7-.3-1.1-.3s-.8.1-1.2-.2a3 3 0 00-.4.8l-.4-1a9 9 0 00-2-3.5c.4 1.3.8 2.2.2 3.5-.5-1.1-.8-2-1.5-2.6.7 1.4 1 2.7.4 4.1-.4-1-1.3-2.4-2-3.3.6 1.3 1.3 3 1.1 4.3-1.8-2.5-4.1-5.2-6.2-7.8-.6-.6-1.3-1.4-1.3-2.4 0-.4.1-1 .5-1.3l.6-.4.8-.1c.4.1.9.3 1.3.7.4.4.7.7 1.2.7h.2l.2-.1.1-.1.1-.4-.2-.6-.4.2-.6.3v-.8l-.4-.7c-.5-.7-.7-1.5 0-2.2.6-.5 1.2-.4 1.6.1.4.4.6.9 1.2.9h.6c0 .5-.2.7-.4 1 .3.3.6.6 1.2.4.4-.2.1-1.2-.1-1.4-.4-.9-1-1.8 0-2.9.4-.5 1-.6 1.5-.6 1.3.1 2.4 1.7 3 2.3l3.5 4.2-.1 2.2z"/><path fill="#fff" d="M49.6 78.9l-3.9-4.8c-.4-.5-1-1.3-1.6-1.8-.6-.4-1.3-.7-2 .1-1.2 1.3.7 2.5.4 3.6-.2.6-.5.7-1.3.6-.5 0-1.3-.4-1.3-.9.3 0 .5-.2.5-.4-.4 0-.8-.4-1.2-.6-.5-.4-1.1-.9-1.5-.5-.3.3-.3.7-.1 1 .4.5.9 1 .9 1.5.4-.1.5-.3.7-.4.5.5 1 1.8.2 2.3-.8.4-1.6-.1-2.2-.8-1-1.3-2.4 0-2.4.8-.1 1.1 1 1.8 1.5 2.5 1.1 1.6 4.5 5.4 5.3 7 .1-1.3-.7-2.6-1.6-3.9-.4-.6-.6-1.2-.4-1.3.5-.4 2.9 3.2 3.1 3.7 0-1.6-1.5-3.1-1.5-4.8 1 .8 1.7 1.8 2.5 3.1-.2-.9-.8-2.3-.8-3.3a9 9 0 013.3 4.8c.4-.4.3-.9.6-.8.4 0-.6 1.1 1.5 1.2-.2-1.4-.7-1.3-1.3-1.9.4.1 1.6.4 1.6-.2-1.7-.7-3.9-2.4-4.5-4.7 1 1.1 1.8 1.7 3.3 2-.7-.8-2.2-2.2-2.2-3.4 1.5.9 2 2.2 4.1 2.5-1.3-1.3-3-3.3-3-4.6.9 1 1.9 1.9 3 2.7l.3-.3z"/><path fill="#010202" d="M33 5.1zm3.3 1.2h-.6l-.1-.1-.2-.4h.1l.2-.1.1-.1.2-.1.2-.2-.3-.2c-.2 0-.3.2-.4.3l-.1.1h-.3c0-.2-.1-.3-.3-.5-.4-.4-.7-.1-1 .2l-.2.2h-.4l-.1-.2L33 5v.1l.2.1v.1l.2.4.4.1.2.4c0 .1 0 .3.3.4h.6l.2-.1.2-.1.1.1-.1.1-.3.3c0 .2.1.1.2.1l.4-.4h.7l.2-.2-.2-.1zm-1.5 0l-.2.1h-.4c-.2-.1-.3-.2-.3-.4l-.1-.3.4.1.3.1.2.1.3.2-.2.1z"/><path fill="#010202" d="M34.6 5.2c-.3-.2-.4-.1-.4.2 0 .3.3.3.4.1v-.3zm38 44.1c.7-.4 1.3-.4 1.9.6.3.4.6.3.9.2 0 .4-.1.9-.4 1-.2.1-.4-.2-.3-.3.2-.1.3-.2.3-.4l-.6-.1c-.2.5-.6.7-1.2.5-.5-.2-.6-.8-.6-1.5zm2 4.3c-.1.1-.2.1-.2 0-.1-.1-.1-.2 0-.2l.1-.1-.1-.2V53l-.2.1-.2-.1.1-.2.2-.1v-.1l.2-.3h-.4l-.2-.1.1-.2h.4l.4.1.1.2-.2.1v.2l.4.1.1.2-.2.1v.1l.1.1c.3-.1.4.1.6.3l.3.4.3.3h.3c.1-.1.2-.1.2 0 .1.1.1.2 0 .2-.3.3-.4.2-.6.1l-.3-.4-.3-.4c-.5-.3-.6-.3-1-.1z"/><path fill="#010202" d="M73.6 52l-.1-.2.2-.1h.4l.4-.1.2.1-.1.2-.4.1h-.6zm.9-2.3l-.1-.2.2-.1.3.1.3.1.1.2-.2.1-.4-.1-.2-.1zm2.3 5.1c0-.1.1-.1.2 0 .1 0 .1.1 0 .2v.1c-.3.3-.5.4-.9.4l-.8-.2-.1.6c-.1.4-.4.6-.7.9l-.5.4a1 1 0 00-.3.7v.6l-.3-.4-.1-.2-.2-.8c0-.5.1-.8.4-1.2l.1-.2c.2-.3.4-.6.1-.9h-.3l-.4.4-.1.1c-.2.3-.3.1-.4.4l.1-.5c0-.1.1-.3 0-.4l-.2-.2-.1.1-.2.5c0 .2-.3.4-.5.6-.2.1-.4.3-.5.2l-.2-.2.1-.2c.3-.1.1.2.4-.1l.4-.4.2-.6.2-.2h.3l.3.3v.1l.3-.3c.2-.2.4-.3.6 0 .4.4.2.9-.1 1.2-.4.4-.4.4-.4 1.2l.1.4.4-.6.2-.1.4-.3c.3-.3.4-.5.5-.9.2-.5.1-.9-.3-1.3-.1-.1-.2-.3-.1-.4.1-.1.2 0 .3.2l.4.5.2.1c.2.1.4.3.7.3.3 0 .4 0 .6-.2l.2.3c0 .1 0 .1 0 0z"/></svg>