<svg baseProfile="tiny" xmlns="http://www.w3.org/2000/svg" width="48" height="48"><path d="M23.9 48c-8.6 0-16.5-4.5-20.3-12-1.4-2.7-1.8-5.2-1.9-8.1L.7 0h46.6l-1.1 27.8c-.1 2.9-.4 5.3-1.7 8-4.2 8-12.2 12.2-20.6 12.2z"/><path fill="#FCDB04" d="M23.9 46.8c-8.2 0-15.8-4.3-19.3-11.5-1.3-2.6-1.7-4.9-1.8-7.7l-1-26.5h44.4l-1 26.5c-.1 2.8-.4 5.1-1.7 7.6-4 7.8-11.6 11.6-19.6 11.6z"/><path fill="#131516" d="M31.5 34.8l-1.1-1-1.2-2.6-3.2-.4.5 1.2 1.7 1.8-.4 2.2-2.3 1.5-2.4.7-1.5 1-.6.1v.2h-.1l-.1.6-.8 1.1-.1.6h.6l3.3-.5-.4-1.2.3-.1.5.2.6-.1.6.1v-.4l.8.4h.3l.2-1.2 4.8-2.2z"/><path fill="#131516" d="M42.6 20l1.6-1 .3-.4.1-.7-.3.1-.2.1-1.5.3v-.2l1.6-1.9v-.1l-.1-.1-1.6.4 1.1-.8.2-1.1.4-.5V14H44l-.3.1-1.6 1.2-1.6.2v-.1l3-1.5.1-.4-.1-.4-.2-.3-.4-.4-.1-.2V12l.9-.6.1-.1.1-.5-.4-.4-.4-.2-.5-.1-.6.1v.2l.5.2.1.1v.2l-.1.1-.7.2-.4.2-.1.2v.5l.7.7v.3l-4.4 1.3-1.3 1.4-1-1H35l-.4 3.7.2.4.4.3 1 1.9 2.4 1.6.6.8v.8l-.1.3-1 .7-.3.1-3-2.4-3.1-.6-6.2-3.3.9.1.1-.1.1-.1v-.2l-.4-.4.6-.1v-.2l-.2-.4h.8l.3-.1.1-.1v-.2l-.1-.1-.6-.5h2l.6-.3v-.1l-.1-.2-.4-.3-1.1-.3-.1-.2 2.7-.1.4-.2.1-.1v-.2l-.8-.3-.2-.2-1.6-.1V14l.9-.3v-.2l-.8-.4V13l2.1-.3.8-.5V12h-1.2l-1.1-.4.9-.4 1.8-.1.2-.2.1-.1v-.1l-2.2-.8h-1.3v-.1l.8-.3-1.4-.3v-.1l2.2-.3.5-.4.4-.1.1-.1v-.1l-.4-.4-.4-.2-.8-.1-1.2.3h-.4l1-.7v-.1l-1.1-.4-.9.1.5-.4 2-.7.1-.2.1-.2H29l-.8-.3h-.5l-1.1.4-.7-.1h-.1V5L27 4v-.1l-.8-.2h-1.9l.8-.4v-.1L25 3l-2.2-.1-.7-1H22l-.3.6-.9.7-.8-.3-.8.2-.1.1-.1.2v1l-.6.5-.7.3h-.8l-5 2.8v.7l-.5 1v.5h.1l.5.1.3.2.3.1 1.9-.5.1.1v.1l-2 .9-.2.3v.5l.5.1.1.1.2.2h.4l.5-.2.4-.3.4-.6 2-.5.8.4 2-.3.6-.4.4-.5h.2l.1.1-.1.3-1 .8-2.1.3-.2.4-2.1 2.3-.7 1.3-.3 1.4-.5.2-.4.3-.9 1.5-1-.7-1.2-2.1-1.1-.9h-.7l-.7.3-4.3 4.3-.1.6.2 1-.5 1.5v.1l-.1 1 .9.5h.6l1.5-.8.3-.4-.1-.3-.3-.4.1-.1.7-.5.1-.1v-.2l.5-.3.1-.2V21l-.4-.2h-.6l.9-.5v-.2l-.7-.2v-.2l.1-.1.5-.3.6-.9.2-.1.2-.1 1.2.2.4.6 1.2 4h1l-.2-2.6.1-.4.4-.5h.1v.3l-.4.8.2 2.3.1.1-.1.1-.3.1-3.7-.4-.5.2-.8 1.8.4 2.2-.3 1.8.1.3.2.3 1.2 1 .4.8-.1.9v.2h.1l.7.2 1 1.5h.2l.9-2.1.2-1.7h-1l-.3-.5v-1.1h-.3l-.3.2.2-1.1H10v-.9h-.2l-.6.5-.2-2.2.1-.1 7.3 1.6 1.2-1.9h.2l-.6 1.6v.3l3.6 2 8.2 2 .3-1.2 1.1-1.7h.1l.1.1v.2l-1.1 1.9-.1 1.1.3 1.2 2.8 3 1.6.9.4.6.1.4v.2l-.1.2-4.7 3.4-1.1.2-.1.1-.4.8-1.2 1.1-.2.4 1.6.5.2.1 1.7-.2.6-.3.1-.2-.1-1 .5-.4.6.4.5.1.1-.8.8.5h.1l.2-1.1.6.3h.1l.1-.1v-.2l-.2-.5v-.3l.3-.6 2.2-1.4 1-1.4.1-.5-1.8-2.2-.3-.9.1-.5 2.6-4.2V27l.3-.1h.4l1 .9.6.3.8.1.9-.6.2-.3h-.8l-.2-.1V27l1.1-.2.5-.4.9-.4H44l-.4.2-.9-.2-.2-.2-.1-.1 1.4-.7.2-.2.1-.3v-.3h-.2l-.4.1h-.7l1.2-.6.2-.2.2-.5v-.3l-.1-.1h-.1l-.8.4H43v-.2l.5-.4.5-2.3h-.3l-.3.1-1.3 1.2.3-.9.2-.5zM13.2 8.4l-.1.1-.1.1-.2.1v-.4l-.1-.1v-.1h.1l.4.2v.1zm7.6-4.1l-.6.2-.1.1v.1l.1.4v.2h-.1l-.2-.2-.1-.1v-.2l.2-.4.5-.3h.4l-.1.2zm1.1 1l-.4.2-.1-.1v-.2l.4-.4.3-.9v-1h.1l.3 1.5-.3.7-.3.2zm2.6 10.4h-.2l.9-4.6-.6-2.4-2.4-2.9v-.2l.1-.1.3.1L24 7.1l1.3 2.5.2 2.3-1 3.8z"/><path d="M18.3 6.6h-.1v-.2h-.1v-.1H18l-.1-.1v.3l-.1.1v.1h-.1v.1h-.1v.1h.5v-.1h.1v-.1h.1zm-1-.5h-.4v.1h-.1v.2h.1v.1l.1.1v.1h.1v-.2l.1-.1v-.1h.1v-.1h.1l.1-.1h-.1z" fill="#FFF"/></svg>