<svg baseProfile="tiny" xmlns="http://www.w3.org/2000/svg" width="48" height="48"><path fill="#FFE005" d="M1 .2v36.5c0 2.4 2.1 5.8 5.7 6.7l17.2 4.5 17.2-4.5c3.6-.9 5.7-4.2 5.7-6.7V.2H1z"/><path fill="#010202" d="M24 48L6.7 43.5C3.1 42.6.8 39.3.8 36.7V0h46.3v36.7c0 2.6-2.2 6-5.9 6.8L24 48zM1.2.4v36.3c0 2.5 2.3 5.7 5.6 6.5L24 47.6l17.2-4.4c3.4-.8 5.6-4 5.6-6.5V.4H1.2z"/><path fill="#010202" d="M24.2.2h-.4v47.6h.4V.2z"/><path fill="#E44234" d="M8.5 2.2s.7-.6 1-.5c.2.2-.1 1.1-.1 1.1"/><path fill="#010202" d="M9.3 2.7s.3-.8.1-1.1c-.3-.1-.9.5-.9.5s.7-.6 1-.5c.2.2-.2 1.1-.2 1.1z"/><path fill="#E44234" d="M5.7 2.2s-.7-.8-1-.7c-.2.2.1 1.3.1 1.3"/><path fill="#010202" d="M4.8 2.8s-.1 0 0 0c0-.1-.2-1.1-.1-1.3.3-.1 1 .7 1 .7s-.7-.7-1-.7c-.2.3.1 1.3.1 1.3z"/><path fill="#E44234" d="M3 5.5s-.9-.4-.8-.8c.1-.2 1.1-.1 1.1-.1"/><path fill="#010202" d="M3 5.6s-.9-.4-.9-.8c.1-.2 1.1-.1 1.1-.1-.2 0-.8-.1-1 .1 0 .3.8.7.8.8.1-.1.1-.1 0 0 .1-.1 0 0 0 0z"/><path fill="#E44234" d="M3 7.9s-.7.7-.7 1c.3.2 1.2-.1 1.2-.1"/><path fill="#010202" d="M2.8 9c-.2 0-.3 0-.4-.1-.1-.2.6-.9.7-1-.2.2-.7.7-.6.9.3.2 1.2-.1 1.2-.1-.1.1-.6.3-.9.3z"/><path fill="#E44234" d="M4.8 14.8s-.1-1 .2-1.1c.3 0 .8.8.8.8"/><path fill="#010202" d="M4.8 14.8c0-.1-.1-1 .2-1.2.3 0 .8.8.8.8s-.5-.8-.8-.8c-.3.2-.2 1.2-.2 1.2z"/><path fill="#E44234" d="M3.3 17s-1.1.1-1.2.4c.1.2 1.1.7 1.1.7"/><path fill="#010202" d="M3.2 18.1c-.1 0-1-.5-1.1-.7.1-.2 1.2-.4 1.2-.4s-1 .1-1.2.3c.2.3 1.1.8 1.1.8z"/><path fill="#E44234" d="M4.1 21.2s-.9.4-1.1.1c-.1-.2.6-.9.6-.9"/><path fill="#010202" d="M3.3 21.5c-.1 0-.2 0-.3-.1-.1-.2.6-.9.6-.9s-.6.6-.6.9c.2.2 1.1-.1 1.1-.1s-.5.2-.8.2z"/><path fill="#E44234" d="M6.2 22.7s.1 1.1.4 1.2c.4-.1.8-1.2.8-1.2"/><path fill="#010202" d="M6.5 23.9c-.2-.1-.4-1.2-.4-1.2.1 0 .2 1 .4 1.2.3-.2.8-1.2.8-1.2.1 0-.4 1.1-.8 1.2z"/><path fill="#E44234" d="M3.5 36.8s-.8-.6-.8-.9c.2-.2 1.1-.1 1.1-.1"/><path fill="#010202" d="M3.5 36.8s-.9-.6-.9-.9c.2-.2 1.1-.1 1.1-.1s-.9-.2-1.1 0c.1.4.9 1 .9 1z"/><path fill="#E44234" d="M4.2 39.5s-.6.9-.5 1.1c.2.1 1.2-.4 1.2-.4"/><path fill="#010202" d="M3.8 40.6h-.1c-.1-.2.4-1.1.5-1.1 0 0-.6.8-.4 1.1.1 0 1.1-.4 1.1-.4 0 .1-.8.4-1.1.4z"/><path fill="#E44234" d="M8 41.6s-.3 1-.7 1c-.2-.1-.2-1.1-.2-1.1"/><path fill="#010202" d="M7.2 42.6c-.2-.1-.3-1.1-.3-1.1.1 0 .1.9.3 1.1.4 0 .7-1 .7-1 .1 0-.2 1-.7 1z"/><path fill="#E44234" d="M10.3 41s.8.6 1 .5c.2-.2-.1-1.1-.1-1.1"/><path fill="#010202" d="M11.3 41.5c-.3 0-.9-.5-.9-.5s.7.6.9.5c.2-.3-.1-1.1-.1-1.1s.3.8.1 1.1z"/><path fill="#E44234" d="M14.1 40.3s-.8-.4-.9-.8c.2-.2 1.1-.2 1.1-.2"/><path fill="#010202" d="M14.1 40.3s-.8-.4-.9-.8c.2-.2 1-.2 1.1-.2 0 0-.9 0-1.1.2.1.4.9.8.9.8z"/><path fill="#E44234" d="M15.1 43s-.5 1-.3 1.2c.2.1 1.2-.5 1.2-.5"/><path fill="#010202" d="M14.9 44.2c-.1 0-.1 0 0 0-.1 0-.1 0 0 0-.3-.2.1-1.1.2-1.2-.1.2-.4 1-.2 1.2.2.1 1.1-.5 1.1-.5-.1 0-.8.5-1.1.5z"/><path fill="#E44234" d="M19.2 44.4s-.1 1-.6 1.1c-.3-.1-.4-1.1-.4-1.1"/><path fill="#010202" d="M18.6 45.6c-.3-.1-.4-1.1-.4-1.1 0-.1.2 1 .4 1.1.5-.2.6-1.1.6-1.2 0 .1-.1 1.1-.6 1.2z"/><path fill="#E44234" d="M21.5 43.6s1 .5 1.2.4c.1-.4-.5-1.3-.5-1.3"/><path fill="#010202" d="M22.6 44c-.3 0-1.1-.4-1.2-.4.1 0 1.1.5 1.2.4.2-.4-.4-1.3-.4-1.3s.7 1 .5 1.3h-.1z"/><path fill="#E44234" d="M14.4 6.5c-.4-.1-.5-.2-1-.1s-.9.6-2 .7c-.7.1-2-.5-1.8-2.1.3 1.2 1 1.4 1.7 1.3.6-.1.9-.5 1.6-.5.8-.1 1.1.3 1.5.7z"/><path fill="#010202" d="M11.2 7.2c-.3 0-.9-.2-1.3-.6-.3-.3-.6-.8-.5-1.6 0 0 0-.1.1-.1 0 0 .1 0 .1.1.4 1.1.9 1.2 1.4 1.2h.2c.3 0 .5-.1.7-.2.3-.1.5-.3.9-.3h.2c.6 0 1 .3 1.3.6l.2.2v.1s-.1.1-.1 0c-.1 0-.1 0-.2-.1-.3-.1-.5-.1-.8-.1-.2 0-.4.1-.6.2-.3.2-.8.4-1.4.5-.1.1-.2.1-.2.1zM9.6 5.6c.1.3.2.6.4.9.4.4.8.5 1.1.5h.2c.6-.1 1-.3 1.3-.4.2-.1.5-.2.7-.3.2-.1.4-.1.6 0-.3-.2-.6-.4-1.1-.4-.4 0-.6.2-.8.3-.2.1-.5.2-.8.3H11c-.6-.1-1.1-.4-1.4-.9z"/><path fill="#010202" d="M18.5.8c-.8.2-.8.7-1.2.8-3.1-.3-3.9.4-3.9 1.1-1.8.2-1.8.2-1.8.6-.1.7.1 1.4.1 1.4.2.3.3.8.6 1.2.7-.6 1-.8 1.4-.8.8 0 .9.4 1.1.8.2.6-.2 1.1-.6 1.1-.7.3-1.2-.6-1.2.1 0 1 .5 1.5 1 1.4 1.1 0 1.7-1.5 2.1-.5.2.4-2.4 3.6-3.1 3.4-.2 0-1.3-1.3-2.4-2.7-1.2-1.4-2.5-2.9-2.4-3.3 0-1 1-1 1.5-1.4.9-1.5-.9-2.6-2-1.4-.5.8.4 1.4-.3 1.6-.8-.2-.1-.8-.4-1.5-.6-1.4-2.7-.3-2.1 1 .4.7 1.5.7 1 1.4-.7.4-.7-.9-1.5-.9-1.3-.1-1.6 1.7-.5 2.2.8.1 1.3-.5 1.6.1 0 .9-1.1 0-1.8.5-1.2.9 0 2.6 1.2 2.1.7-.5.6-1.6 1.6-1.2.2.1.5.6.4 1.1-.2.8-1.3 1.5-1.2 2.4.1.8.7 2 1 2.3-.6-1.7 1.5-1.3 1.2-3 .4.7 1.5 4.3 1.5 4.3-.7 1-1.7 2.1-2.1 2-.9-.4-.1-1.2-.2-2-.6-1.6-2.6-.7-2.3.8.4.9 1.3.5 1 1.2-.5.5-.6-.5-1.4-.7-1.6-.2-1.7 1.9-.4 2.3.8 0 1.4-.8 1.7 0-.1.8-1.1 0-1.7.7-1 1 .3 2.3 1.4 1.7.7-.5.4-1.3 1.1-1.1.7.5-.7.8-.7 1.6 0 1.5 2.1 1.9 2.4.4.1-.8-.9-1.2-.2-1.9.3-.4.7-.4 1-.2.5.3.3 1.2.3 1.2 1.8-.9 2.1-1.7 2.5-1.7.3 0 3 2.8 4.3 6 0 0 .4 1.1.3 1.2-.1 0-.2 0-.3-.1-3.9-2.2-4.1-2.3-6.8-2.7-1-.2-2.6.4-3.2 1.2-.7 1.1-.4 2.4-.4 2.5-.4.7-1.9.9-1.9 2.3 0 .5.2 1 .8 1.8-.3-1.2 1.7-1.4 1.8-2.4 0 0 .3.4.3.9 0 .8-1.3.7-1.4 2.1 0 .7.5 1.1 1 1.7-.4-1.4 1.8-1.2 1.3-2.8.9.7 1.7.8 1.7 1.1 0 .4-.5 1.3-1.1 2.2-.5 1-1 2-1.2 2-1 .2-1.1-.8-1.7-1.1-1.6-.7-2.3 1.4-.9 2.2.9.4 1.4-.6 1.7.1 0 .8-.7.2-1.4.7-1.2 1 .2 2.6 1.4 1.8.5-.6.3-1.5 1.1-1.2.5.6-.7.9-.6 1.7.2 1.4 2 1.4 2.2.1 0-.8-.8-1.2-.2-1.5.8-.2.3 1 .8 1.6 1.1 1 2.8-.4 1.8-1.6-.5-.7-1.8-.2-1.7-1.2 0-.5.4-.9.9-1.4.5-.7 1.1-1.3 1.2-1.5-.5 1.4 1.2 1.7.8 2.6.9-.9 1.2-1.7 1.2-1.7 0-1.1-.9-1.2-.9-1.8 0-.8.9-1.1.9-1.8 0-.8-2.6-1.1-2.6-2.9 0-1.2.9-1.7 2.4-1.7 1.4 0 3 .6 3 .8 0 .6-2.3 2.9-2.3 4.7 0 2.1 3.6 3.9 3.6 5.5 0 .4 0 .8-.5 1.2-.9.3-1.1-.7-1.7-1-1.7-.4-2.4 1.8-.7 2.4.9.2 1.2-.8 1.7-.2.1.8-.8.3-1.4.8-1.1 1.1.6 2.6 1.7 1.5.5-.6.2-1.5 1.1-1.4.6.5-.7 1.1-.5 1.8.5 1.2 2.3 1 2.3-.4-.1-.8-.9-.9-.4-1.5.8-.3.4 1 1 1.5 1.3.6 2.6-.8 1.6-2-.7-.5-1.7.1-1.7-.9v-2.4c.5 1.5 2.1.7 2.5 2.3 0 0 .1-.7 0-1.2-.2-2.5-2.4-1.7-2.4-3-.1-.4-.1-.8-.1-.8.4 1.2 2 .5 2.5 2.1 0 0 .1-.9 0-1.4-.3-3.1-3.9-1.1-3.9-3.7 0-.8.2-2 .4-2.6.4.5.9.7 1.3.7 1.3 0 1.7-1.7 1.7-2.9 0-1-.2-2.8-.2-2.8 0-1.1 1.1-1.2 1.2-2.7.1-.9-.2-1.2-.4-2.3.1 1.4-1.4 1.3-1.2 3.1 0 0-.3-.9-.3-1.2 0-1.7 2-1.8 2-4 0-.4-.2-1.7-.5-2.8-.1 1.4-2.8 2.7-2.8 4.5 0 2.1 1.6 6.2 1.7 7.4 0 0 .2.8.1 1.5s-.6 1.3-1.1 1.3c-.6.1-1.1-1.2-1.1-1.7.1-1.5.2-2.8 0-4.9-.4-3.7-.7-3.9-.7-4.4 0-.7.7-.7 2.3-3.3 1.1-1.8 2.1-4 2.1-6.3V7.6c0-2.7-1.7-5.3-3.7-5.9-.2 0-.5-.9-1.1-.9zm-3.9 1.8l.9.1s-.2.5-.7.7h-.9c.1-.1.2-.8.7-.8zm4.7.2c.2.7 1.1.8 1.4 1.3.1.2.1.7.1 1.1-.2-.8-.9-.7-1.2-1.3-.3-.4-.3-.7-.3-1.1zM19 4.6c.1.8 1 1.1 1.2 1.7.1.2.1.7 0 1.2-.1-.9-.9-.9-1.2-1.7-.1-.3-.1-.6 0-1.2zm2.5 1.1c.1.7.9.9 1.2 1.4.1.2.1.6 0 1-.1-.8-.8-.7-1.1-1.4-.2-.3-.2-.6-.1-1zm-3.2.7c0 .9.9 1.3 1.2 2 .1.3 0 .8-.1 1.2 0-.9-.8-1-1.1-1.9-.1-.4-.1-.7 0-1.3zm2.8 1.2c.1.8.9 1.2 1.1 1.8.1.2.1.7 0 1.2-.1-.9-.9-.9-1.1-1.7-.2-.5-.2-.8 0-1.3zm-3.8.2c-.1 1.1 1 1.7 1.1 2.6.1.4-.1 1-.3 1.5.1-1.2-.9-1.4-1.1-2.5-.1-.6 0-1 .3-1.6zm3.1 1.6c0 .8.9 1.2 1.1 2 .1.2-.1.8-.1 1.2-.1-1-.8-1-1.1-1.9-.2-.5-.1-.8.1-1.3zm-4.6.2c-.2 1.1 1 2 1 3 0 .4-.3 1.2-.6 1.7.2-1.2-.9-1.6-.9-3 0-.6.1-1 .5-1.7zm-1.7 1.8c-.3 1.1.9 2.1.9 3.1 0 .4-.3 1.1-.7 1.7.3-1.3-.8-1.7-.9-3.1.1-.6.3-1 .7-1.7zm5.2 0c-.1.9 1 1.5 1.1 2.3 0 .3-.1.9-.2 1.4 0-1-.9-1.2-1.1-2.2-.2-.6 0-.9.2-1.5zm-1.5 1.7c-.2 1.1.9 1.9 1.1 2.9.1.4-.2 1.1-.5 1.7.2-1.2-.9-1.5-1-2.8-.1-.7 0-1.1.4-1.8zm-1.7 2.1c-.2 1.1 1 2.1 1.1 3.1 0 .4-.2 1.1-.5 1.7.2-1.2-.9-1.6-1-3-.1-.6 0-1.1.4-1.8zM27.8.2v46.6l5.7-1.5V.2h-5.7zm9.7 0v44.2l3.8-1c.7-.2 1.3-.4 1.9-.8V.2h-5.7z"/></svg>