<svg baseProfile="tiny" xmlns="http://www.w3.org/2000/svg" width="48" height="48"><path fill="#2C2D2B" d="M23.4 48c1.6 0 3.3-.1 4.9-.4 3-.6 5.9-1.9 8-3.4 2.1-1.4 4.3-3.8 5.5-5.8 1.5-2.4 2.5-5.8 2.6-8.8V0H3.7v26.9c0 1.9-.1 3.7.3 5.6.1.7.3 1.4.5 2.1 1 2.9 2.2 4.9 4.3 7.1 2.2 2.2 4.1 3.5 6.7 4.6 1.6.7 3.4 1.2 5.2 1.5.9.1 1.8.2 2.7.2z"/><path fill="#FFD803" d="M43.8.5H24.3v46.9c1.2 0 2.4-.1 3.6-.4 3-.5 5.9-1.8 8-3.3 5.1-3.5 8.2-9.1 7.9-15.4V.5zM23.7.6h-3.5v46.5c1 .2 2.1.3 3.1.3h.3L23.7.6z"/><path fill="#1D4C9C" d="M19.7.6h-3.5V46c1.1.4 2.3.8 3.5 1V.6z"/><path fill="#FFD803" d="M15.7.6h-3.5v43.3c1 .7 2.2 1.3 3.5 1.9V.6z"/><path fill="#1D4C9C" d="M11.7.6H8.2v39.7c1 1.2 2.2 2.4 3.5 3.3V.6z"/><path fill="#FFD803" d="M7.7.6H4.2v29.3c0 .9.1 1.7.3 2.5.4 1.9 1.1 3.8 2 5.3.3.6.7 1.2 1.2 1.9V.6z"/><path fill="#010202" d="M35.1 1.8c-1 .3-1 .5-.9 1.2-1.5-.1-.9.2-.9.5-.6 0-.6.8-.2 1 .1.1.2.4.3.5s.3-.1.7-.1c1.5.1 1.7 1.7 1.7 2.1-.6.1-.7.3-1.3-.2-.5-.3-.4.2-.5.4-.2.3-.1.4.1.5 1.1.4.4 1.1-.4 1.1-1.1-.2-1.4-1-1.6-1.5-.5.7 0 .8-.1 1.6-.3.1-.5-.4-.8-1.1-1 .9-.1 1.3-.3 2.3-.5 0-.5-.3-.8-.8-.4.5-.1 1.4 0 2-.3.1-.6-.2-.9-.4l-.1.7c-.8-.1-.8-.5-1.1-.7-.2.7.5 1.2.3 1.3-1.1.6-1.1-.7-1.3-1.5 0-.2-.2-.1-.3 0-.9 1.8.7 2.4.6 2.8-.4.4-.9.8-.6 1.3.5-.5.4-.8 1-.5.8 1.3 2.6.5 2.8 1.3.8-.4 1.2-1.6 1.8-2.5 0 1.2-1.1 2.2-1.6 2.7-2 .2-1 1.6-1.8 1.8-.4.1-.5-1-1-.9-.2.4-.5.6-1 .4-.2 1 1.4 1.2 1 1.5-.7.3-1.1-1-1.7-.3.4.2.2 1 0 1.3l1.4-.2c.1.6-.6.8-.6 1.6.6 0 1.1-.1 1.6.3.1-.5.2-1.3.4-1.4s.8.6.8.7c.1-.6.5-.9.9-.8 0-.4-.6-.5-.6-.7 0-.3.3-.3.8-.4.4-.1-.3-.6.8-.5 0 0 .4.2.3-.1-.1-.2.5-2 1.6-1.9-.8.6-1.5 1.2-1.3 1.6.2.3.2.7-.1 1.2 0 .1 0 .2.1.2 1.2.5 1.7.6 2.8 1.5.4.3.8.8 1.5 1.7.2.3.5.5.5 2.6-.5.6-.9 1.7-.4 2.6.8.7 1 1.3 1 2.2-.3.1-1.1-.1-.9.3.2.4.8.3 1.2.5s.3.9 1.5 1.1c-1.3 1.3-1.5 3.5-2.1 5.1-.4.5-.7.5-1 .4-.4-.3-.1-1.1-.7-1-.2.4-.3.5-.7.6-.1.4.4.7.8 1.2-.4-.1-1.2.1-1.4.2.6.2.6.6.6.9.5 0 .8-.2 1.1-.6.8.8-.5.9-.5 1.2.7 0 .8.1.9.6.4-.2.6-.8.6-1.3.2-.1.5-.6.6-.1.1.4.2.6.5.9.1-.5.3-.6.7-.6.2-.9-.5-.7-.3-1.1.3-.5.4-1.1 1.2-1.2.1-.4.2-.9.2-1.1.1-.3.6-.4.8-.8-.6-.8.3-.9.8-1.3-.4-.6.4-1.1.4-2.9.1-.3.6-.5.9-.9-.6-.1-.9-.1-1.3-.2-.2-.1-.5.3-.8.4-.2-1.4-.9-2.1-1.2-2.4.4-1.1.8-2 .8-3.3 2 .1 2-.4 2.4-.6.5-1.1.4-1.7.2-2.5-.4-.4-.8-1.1-1.2-1.5-.4-.8-.4-1.5.4-2.4-1.2 0-1.3.9-1.3 1.1-.1.5.3.8.1.9-.3-.2-1-.8-1.4-1.5-.4-.9-.4-1-.4-1.2 0 0-.1-1.2.8-1.8.2-.2 1.7.1 2-1.9.2-1-.2-1.5-.2-1.5 0-1 .4-1 .7-1.2-.7-.9-1.2-.2-1.5.1-.3.4-.4 1.3 0 1.9.2.3.2.4.1.4-.3-.1-.3-.6-.4-.9 0-.1-.3-.1-.2-.6s.1-.7.4-1.1c.3-.4.6-.7 1.1-1.1 0 0 .1-.1.1-.2 0-.4-.1-.6-.3-.8s-.4-.3-.4-.7c0-.4.2-.6.4-.9.1-.1.2-.3.3-.5s0-.4-.1-.6l-.1-.1-.7-.1c-.3-.2-.5-.4-.5-.7 0-.3 0-.5.2-.7.1-.2.3-.3.5-.3s.5.2.7.7c0 .1.1.1.1.1.2 0 .4 0 .5-.2.1-.1.2-.3.2-.5 0-.1 0-.2-.1-.2s-.2 0-.2.1c0 .2-.1.3-.1.3s-.1.1-.2.1c-.3-.5-.6-.7-.9-.7h-.1c-.3 0-.5.2-.7.4-.2.3-.3.6-.3 1 .1.4.3.7.7.9l.6.1c.1.1.1.1 0 .2 0 .1-.1.2-.2.4-.2.3-.5.6-.5 1.1.1.5.3.7.5.9s.2.2.2.5c-.5.4-.9.7-1.2 1.1-.1.2-.3.4-.4.6 0-.2-.1-.5 0-1.2 0-.1-.1-.2-.2-.2s-.2.1-.2.1c-.1.7 0 1 0 1.3.1.2.1.3.1.6v.3l-.2.1c-1 .2-1 .9-1 1.4 0 .4.2.7.4 1.1.1.2.2.4.3.8-.7.9-1.1 2-.3 3 .7 1 1.1 1.7 1.9 1.9 0 .2 0 .4.1.7-.4.1-.5.4-.5.8 0 .2.2.4.3.2 0-.4 0-.7.5-.4.7.5.9.9.6 2.2-.9.6-2-.3-2.3-.4-1.2-1.4-1.4-1.9-2.1-3.7-.2-.7.3-2.7 0-3.6-.3-.5-.4-.6-.6-.8 0-.1-.1-.2 0-.3.2-.4 1 .3 1.3 0 .2-.1-.1-.6-.4-1.2-.4-1.8 0-2.6 1.3-2.9-.1-.3-.5-.9-.6-1.2h.8c.1-.8-.2-1.1-.4-1.6.6-1.3.5-2.1-.5-3.4.1-.4.7-.1 1.3-1.1-.7 0-.8-.7-1.6-.8.1-.2.5-.3.4-.7-1 1.1-1.8.5-3.3.5z"/><path fill="#010202" d="M35.3 22.6c-.2.4-.6.7-1.2 1-3.5-.8-4.5 1.1-5.1 2.5-1.7.3-1.8-.7-2.6-.7-.5-.1-.9.2-.1.2.4.1.7 1.1 1.3 1.3.4.2.9.2 1.3.2.4 2.3 2.4.6 3 2.7-.3.5-1.3.9-2.1 2.1l-1 1.6c-.7.2-.5-.7-1.1-1.2-.2.8-.5.7-.8.7.1.3.5.5.5.9-.7-.1-1.3-.2-1.5.1.5.2.6.3.5 1 .4-.1.7-.3 1-.6-.1.6-.7 1-.5 1.5.4-.1.5.2.6.6 1.1 0 .4-1.5 1-1.5h.2c.3.1.3.9.7.9.2-.5.2-.5.7-.4.3-.4-.3-.6-.4-.9l.5-.1c.2.1.6.7.7-.4h.4c.3 1.3.4-.2.6-.5.1-.7.2-.5.3-.7.4.1.3.7.5.7s0-.2.3-.6c.2-.2.3-.7.5-.6.5.2.8.9 1 .6 0 .6.1.9-.2 1.7-.2.7-.5 1.2-1 1.7-.1.1-.8 0-1-.4 0-.1.3-.2.1-.4s-.6.3-.3.7c.1.2.3.3.8.4-.4.2-.8.3-1.2.3-.6 0-1.2 0-1.8.1-.2.1-.5.2-.6.3-.1.2-.1.3 0 .5 0 .1.2.3.3.4-.7.1-1.3.5-1.8 1.1-.6.7-.9 1.6-1 2.3 0 1.1.1 2.1 1 2.7.9.6 1.8.6 2.4.3.2-.1.4-.3.6-.5.2-.2.7-1.1.2-1.2-.1 0-.1 0-.1.1-.1.5-.2.8-.3.9-.1.2-.3.3-.5.4-.5.2-1.5.3-2.2-.4-.6-.5-.8-.8-.8-2.4.1-.7.2-1.2.9-2.1.5-.6 1-1.1 1.8-1.1h.2c.1 0 .1-.1.1-.1 0-.1 0-.1-.1-.1h-.1s-.1 0-.2-.1-.1-.2-.2-.3v-.3c.1-.1.2-.2.4-.3.5-.1 1.1-.1 1.7-.1.6 0 1.3-.1 1.8-.6.8-.9.9-1.2 1.1-1.8.2-.7.3-1.6 0-2.3l.3-.2c.2.5.4.6.8.9.2.1.6 0 .2-.2-.3-.3-.4-.5-.7-1.4.2-1 .3-1.8 0-2.2-.5-.7-1.2-1-1.8-1.5-.1-.7-.1-1.1 0-1.9 2.6-.1 2.6-1.6 3.3-1.6 0-.2-.1-1.1-.3-1.4 0-.1-.9-1.4-1-1-.1.3.6.8.5 1-.1.4-.3.4.2.8.3.2-.6.1-.6-.4 0-.1.5.2-.1-.7z"/><path fill="#E52620" d="M38.7 39.7c.1.4.3.8-.3 1.2 0-.4 0-.6-.3-.7.2-.4.3-.5.6-.5z"/><path fill="#010202" d="M38.3 41.1v-.4c0-.3 0-.3-.2-.4H38l.1-.1c.2-.4.3-.5.7-.6h.1v.3c.1.4.1.7-.4 1.1l-.2.1zm-.1-1c.2.1.2.3.2.5.2-.2.2-.4.1-.7v-.1c-.1.1-.2.1-.3.3z"/><path fill="#E52620" d="M35.5 40.2c-.2.3-.8 1.3.4 1.7 0-.5-.1-.9.4-1.2-.1-.5-.5-.6-.8-.5z"/><path fill="#010202" d="M36.1 42.1l-.2-.1c-.4-.2-.7-.4-.8-.7-.2-.6.3-1.1.3-1.2h.2c.2 0 .6.1.7.7v.1h-.1c-.4.2-.4.5-.3.9v.1l.2.2zm-.5-1.8c-.1.1-.4.6-.2.9.1.2.2.4.4.5 0-.4 0-.8.4-1-.1-.3-.2-.4-.6-.4z"/><path fill="#E52620" d="M34.2 38.7c-.2.1-1 1.2.1 1.9 0-.5.1-.8.5-1.1 0-.5-.3-.6-.6-.8z"/><path fill="#010202" d="M34.4 40.8l-.2-.1c-.4-.3-.6-.6-.6-1 0-.5.4-1 .5-1.1h.2c.3.1.6.3.6.9v.1c-.3.3-.4.5-.4 1l-.1.2zm-.2-1.9c-.1.1-.4.5-.4.9 0 .2.1.5.3.7 0-.4.1-.6.5-.9 0-.5-.1-.6-.4-.7z"/><path fill="#E52620" d="M35.4 36.6c-.6-.4-.9-.4-1.3.1.3.1.5.2.6.5.5-.1.6-.3.7-.6z"/><path fill="#010202" d="M34.7 37.3c-.1-.3-.3-.4-.6-.5h-.2l.1-.1c.2-.3.4-.5.7-.5.2 0 .4.1.7.3l.1.1v.2c-.1.3-.2.5-.7.6l-.1-.1zm-.3-.6c.2.1.4.2.5.4.2-.1.3-.2.4-.4-.2-.1-.4-.2-.5-.2s-.3 0-.4.2zM31 7.5c-.1-.6-1.1-1.3-1.6-1.9-.4-.9-.1-1.4.4-1.9.3-.3.9.3.8-.9-.5.2-.9-.1-1.2-.7-.4.6 0 1.3-.5 1.8-.7-.6.5-1.1-.5-2-.3.3-.7.4-1 .3-.4 1 1.2 1.1.4 2-.1-.6-.5-1.4-1.4-1.2.1.4 0 1.4-.3 1.4.2.3 1.2.3 1.1.7 0 .2-.7.2-.7.4.5.5.6.9.4 1.3.4 0 .7-.6.9-.6.5.4.4.8.4 1.1-.1.3-.7 0-.7.2 0 .4 1 .6 1.1 1-.2.2-.2.5-.5.5.1.7.8.6 1 1.5 0 .1.6.6.6.5 0-.4-.3-1.2-.1-1.6.1-.3.3-.7.8.1.1.2.2.1.1-.1-.2-.4-.2-.8-.2-1.1.1-.3.3-.4.7-.8z"/><path fill="#E52620" d="M30 35.5c0 .6.1 1.2-.6 1.4.1-.4.1-.8-.1-1 .1-.5.2-.5.7-.4z"/><path fill="#010202" d="M29.2 37.1l.1-.2c.1-.3.1-.8-.1-.9l-.1-.1v-.1c.1-.3.2-.5.5-.5h.4v.1c0 .5.1 1.3-.7 1.5l-.1.2zm.2-1.3c.1.2.2.5.2.8.3-.2.3-.6.3-1.1h-.2c-.1.1-.2.1-.3.3z"/><path fill="#E52620" d="M26.8 35.9c-.9.3-.9 1.7-.1 1.7 0-.7.2-1 .6-1.1 0-.4 0-.7-.5-.6z"/><path fill="#010202" d="M26.9 37.7h-.1c-.4 0-.7-.3-.7-.7-.1-.5.1-1.1.7-1.3h.1c.4 0 .5.3.6.6v.2h-.1c-.3.1-.6.3-.5 1v.2zm0-1.7c-.5.2-.6.6-.6 1 0 .1.1.4.4.4 0-.3.1-.5.2-.7.1-.2.2-.3.4-.3-.1-.3-.2-.4-.4-.4z"/><path fill="#E52620" d="M25.9 34c-.6.2-1.1 1-.5 1.6.1-.6.7-.7 1-.7.2-.5 0-.8-.5-.9z"/><path fill="#010202" d="M25.5 35.8l-.2-.1c-.3-.2-.4-.6-.3-.9.1-.4.4-.8.8-.9.3.1.5.2.6.4s.1.4 0 .7v.1h-.1c-.4.1-.8.2-.9.6l.1.1zm.4-1.7c-.3.1-.6.4-.6.7 0 .2 0 .3.1.5.2-.4.7-.5 1-.6v-.4c-.2 0-.3-.1-.5-.2z"/><path fill="#E52620" d="M27.7 32.3c-.4-.5-.8-.8-1.6-.3.6.1.7.6.9.9.4.1.6-.1.7-.6z"/><path fill="#010202" d="M27.1 33h-.3v-.1c-.1-.3-.3-.6-.8-.7l-.3-.1.2-.2c.3-.2.6-.3.8-.3.4 0 .7.2.9.6v.1c.1.4 0 .7-.5.7zm-.1-.2s.1 0 0 0c.3 0 .4-.1.5-.5-.2-.3-.5-.5-.7-.5-.1 0-.3.1-.5.1.4.3.6.6.7.9z"/><path fill="#E52620" d="M26.9 21.2c.2.7.3 1.5 1.3 1.2-.3-.5 0-.9.1-1-.3-.4-.9-.3-1.4-.2z"/><path fill="#010202" d="M27.9 22.6c-.7 0-.9-.6-1-1.1 0-.1 0-.2-.1-.2v-.1h.8c.4 0 .7.1.9.3l.1.1-.1.1s-.4.4-.1.8l.1.1h-.6zm-.8-1.3v.1c.2.6.3 1 .8 1h.2c-.2-.4 0-.7.1-.9-.1-.1-.4-.2-.6-.2h-.5z"/><path fill="#E52620" d="M29.7 20.8c.2 0 .1.4.1.8 1.4-.3.9-1.4.6-1.6-.5 0-.6.2-.7.8z"/><path fill="#010202" d="M29.7 21.8V20.9h-.1v-.1c.1-.5.2-.9.9-.9h.1c.2.1.4.6.3 1.1-.1.3-.3.6-1 .8h-.2zm.1-1.1c.1.1.1.2.1.3v.5c.4-.1.6-.3.6-.5.1-.3-.1-.7-.2-.8-.2-.1-.3.1-.5.5z"/><path fill="#E52620" d="M25 19.7c.6-.3 1-.3 1.1 0 .2 0 .3-1 0-1.2-.7-.1-1.2.1-1.1 1.2z"/><path fill="#010202" d="M24.9 19.9v-.2c0-.5.1-.9.3-1.1.3-.3.6-.3.9-.3.3.2.3.7.2 1.1 0 .2-.1.4-.3.4h-.1v-.1c0-.1-.1-.1-.3-.1s-.4.1-.7.2v.1zm1.2-1.4c-.4 0-.6.1-.7.2-.1.1-.2.4-.2.7.3-.1.5-.2.6-.2s.3.1.4.1c0-.1.1-.3 0-.5 0-.1-.1-.2-.1-.3z"/><path fill="#E52620" d="M26.4 16.3c.2.4.4.4.4.9.4.3.9 0 .9-.4-.1-.5-.3-.8-1.3-.5z"/><path fill="#010202" d="M27.2 17.4c-.1 0-.3 0-.4-.1h-.1v-.1c0-.3-.1-.4-.2-.5-.1-.1-.1-.2-.2-.3l-.1-.1h.2c.2-.1.5-.1.6-.1.5 0 .7.3.9.7 0 .3-.3.5-.7.5zm-.2-.3c.1 0 .2.1.2.1.2 0 .4-.1.4-.3-.1-.3-.3-.5-.7-.5-.1 0-.2 0-.4.1 0 .1.1.1.1.1.2.1.3.2.4.5z"/><path fill="#E52620" d="M26.9 1.3c.3.4.6.5.6.9.4.2.7-.1.9-.3-.3-.4-.3-.8-1.5-.6z"/><path fill="#010202" d="M27.7 2.4c-.1 0-.2 0-.3-.1h-.1v-.1c0-.3-.1-.4-.3-.6-.1-.1-.1-.1-.2-.3l-.1-.2h.2c.2 0 .4-.1.6-.1.7 0 .8.3.9.6 0 0 0 .1.1.1v.1l-.1.2c-.2.2-.4.4-.7.4zm-.2-.3h.1c.2 0 .3-.1.5-.2v-.1c-.1-.3-.2-.5-.7-.5h-.3l.1.1c.2.3.3.4.3.7z"/><path fill="#E52620" d="M29.8 1.1c0 .6 0 1-.3 1.1.2.5.4.9 1 .6.2-.5.4-.9-.7-1.7z"/><path fill="#010202" d="M30.1 3c-.4 0-.6-.4-.8-.8l-.1-.1h.2c.1 0 .2-.5.2-.9V.9l.2.1c.5.3.8.7.9 1 .1.3 0 .6-.1.8v.1c-.2.1-.3.1-.5.1zm-.5-.7c.1.3.3.5.5.5.1 0 .2 0 .2-.1.2-.4.3-.8-.5-1.3v.5c0 .1 0 .3-.2.4z"/><path fill="#E52620" d="M24.8 3.9c.6-.1 1.2 0 1.3.4.2 0 .4-.8.2-1.2-.5 0-1.1-.3-1.5.8z"/><path fill="#010202" d="M26.1 4.5l-.1-.1c-.1-.2-.4-.4-.8-.4h-.4l-.2.1.1-.2c.2-.7.6-1 1-1 .1 0 .3 0 .4.1h.3v.1c.1.4.1 1-.1 1.2 0 .1-.1.2-.2.2zm-.9-.7c.4 0 .8.2 1 .4.1-.2.1-.6.1-.9h-.5c-.2 0-.5.1-.6.5-.1 0-.1 0 0 0z"/><path fill="#E52620" d="M25.3 5.8c.6.1 1.1.2 1.3-.2.2.2.6.6.3 1.2-.6.1-1.2.2-1.6-1z"/><path fill="#010202" d="M26.4 6.9c-.6 0-1-.4-1.3-1.1l-.1-.2.2.1c.3.1.5.1.7.1.3 0 .4-.1.4-.2l.1-.2.1.1c.2.2.6.6.4 1.3v.1h-.5zm-.9-1c.3.7.7.7 1 .7h.3c.1-.4 0-.7-.2-.9-.1.1-.3.2-.6.2-.2.1-.3.1-.5 0z"/><path fill="#E52620" d="M31 5.2c-.3-.9.5-1.2 1.3-.1.1.1.3.3.7.5.1 0 1.4 0 1.6.1.2.1 1.3 1.2 1.2 1.3-.1 0-.6.2-.6.1-.2-.3-.1-.7-1-.8-.5-.1-1 0-1.5 0-.6-.1-1.4-.2-1.7-1.1z"/><path fill="#010202" d="M35.1 7.3c-.1 0-.1 0-.1-.1-.1-.1-.1-.2-.1-.3-.1-.2-.2-.4-.8-.5h-1.6c-.4-.1-1.3-.2-1.7-1.2-.1-.3-.1-.6.1-.8.1-.1.2-.2.4-.2.3 0 .7.3 1 .8l.1.1c.1.1.3.3.5.4h.5c.7 0 1 0 1.1.1s.5.4.7.6c.6.6.6.7.6.8s0 .1-.1.1h-.1c-.2.1-.4.2-.5.2zm-1.4-1.2h.4c.7.1.8.4 1 .7 0 .1.1.1.1.2.1 0 .2 0 .4-.1-.2-.3-.9-1-1.1-1.1-.1 0-.6-.1-1-.1h-.6c-.3-.1-.5-.3-.6-.5 0 0 0-.1-.1-.1-.4-.6-.7-.7-.8-.7s-.2 0-.2.1c-.1.1-.1.3 0 .6.3.7.9.9 1.5 1h.7c0 .1.2 0 .3 0z"/><path fill="#FFF" d="M35.1 3c.3-.1.7-.1.8.2.2.2.1.5-.2.6-.3.1-.7 0-.8-.2-.2-.2-.1-.5.2-.6"/><path fill="#010202" d="M35.2 3.1c.1-.1.3 0 .4.1.1.1 0 .3-.1.4-.1.1-.3 0-.4-.1s0-.3.1-.4z"/></svg>