<svg baseProfile="tiny" xmlns="http://www.w3.org/2000/svg" width="48" height="48"><path fill-rule="evenodd" d="M23.9 46.8C13.5 46.8 5 38.4 5 27.9V1.2h37.8V28c0 10.3-8.5 18.8-18.9 18.8"/><path fill="#F9D100" d="M5.2 4V1.5h37.2V4H5.2zm0 5V6.5h37.2V9H5.2zm0 5v-2.5h37.2V14H5.2zm0 5v-2.5h37.2V19H5.2zm0 4.9v-2.5h37.2v2.5H5.2z"/><path fill="#FFF" d="M31.1 14.1V1.5h11.3v12.6H31.1z"/><path fill-rule="evenodd" d="M38.1 5.7c-.7 0-.6-.6-.5-1 0-.4.2-.7.2-1 .1-.2 0-.3-.2-.4-.2 0-.3 0-.4-.1-.3-.1-.4-.2-.6-.2-.1 0-.1.1-.2.2H36c-.1 0-.3 0-.4.1-.1.2-.1.3-.2.4v.4c.1-.1.3-.2.4-.2h.3c-.1.1-.4.2-.6.2-.2.1-.3.1-.5 0-.1 0-.1.1-.2.1 0 .2.4.3.7.3.2 0 .2 0 .3-.1 0 .1 0 .1-.1.2v.1c.1 0 .3 0 .5-.2l.3-.3c0 .3 0 .4-.1.6-.1.3-.2.5-.3.6-.2.2-.5.3-.7.3-.5 0-.9-.5-.9-.9 0-.5.3-1.1.4-1.3.1-.1.2-.4 0-.5 0-.2-.5-.2-.9-.2-.7 0-.9 0-1.4.1h-1c0 .5.3.9.8 1h1.2s.4 0 .4.1l-.1.1h-2.3c0 .2.1.4.2.6.3.3.8.4 1.1.4s.5-.1.7 0h.4c0 .1-.1.1-.3.1h-2.1c0 .2.1.5.3.7s.6.3.9.3h1.3s-.1 0-.1.1c-.5 0-.8.1-1.2.1-.5.1-.7.1-1.2.2.1.3.3.5.6.7.2.1.5.1.8.1.6 0 1-.1 1.5-.2h.1s0 .1-.1.1c-.4.1-.9.2-1.3.4-.6.2-1 .3-1.5.4.5.5.7.7 1 .7.4 0 .8-.2 1.2-.4s.6-.3.9-.4l.2-.1s0 .1-.1.1c-.4.3-.8.5-1.3.8-.4.3-.6.4-.9.6.3.2.6.3 1.1.3.2 0 .4 0 .6-.2.2-.1.4-.3.6-.5.2-.3.3-.4.6-.6l.1-.1-.1.1c-.4.5-.6.8-1 1.2.4 0 .7 0 1-.2.5-.2.7-.4 1-.7v.1c0 .1-.3.4-.6.6-.4.2-.7.4-1 .6h.1l.1.1c-.1.2-.3.3-.4.4-.2.1-.4.2-.5.2h-.7s0 .1-.1.1-.2.1-.2.2c0 .2 0 .3.1.3l.1-.1.1-.1c0 .1.1.1.1.1.1 0 .1-.1.2-.1h.1c-.1.1-.2.2-.3.2l-.1.1v.1c-.1.1-.1.2 0 .4 0 .1.1.2.3.2V11.8h.1c.1-.1.1-.1.1-.2l.2-.2c0 .1-.1.2-.1.3s0 .2-.1.3l.1.1c0 .2 0 .3.2.3.1.1.3.1.5.1-.1 0-.2-.1-.3-.2v-.1c0-.1.1-.1.1-.1v-.4c0-.1.1-.3.1-.3 0 .1.1.2.2.3 0 0 0 .1.1 0 .1 0 .1.1.1.1v.2c.1 0 .3-.1.3-.2.1-.2 0-.4-.1-.4v-.2c-.2-.1-.3-.1-.3-.2v-.1c.1-.1.1-.2.2-.3.1 0 .2-.1.3-.2 0 .1 0 .1.1.2 0 .1.1.1.1.2.1-.1.1-.2.2-.3l.3-.3c.1-.2.2-.3.2-.3.1-.1.1.1.2.2v.2c-.1.3-.4.9-.6 1.2-.3.5-.7 1-1.1 1.4h.6c.2 0 .5 0 .8-.1.1.2.2.3.3.4.2.2.3.2.5.4.2-.2.3-.2.5-.4.2-.1.2-.2.4-.4.2.1.5.1.7.1h.7c-.5-.5-.9-1-1.2-1.4-.2-.4-.4-1-.5-1.2-.1-.1-.1-.1 0-.2 0-.1.1-.3.1-.2 0 0 .2.1.3.3.1.1.1.2.2.3.1.1.2.2.2.3.1-.1.1-.1.1-.2l.2-.2c.1.1.1.2.2.2.1.1.1.2.2.3.1 0 .1.1 0 .1 0 .1-.1.1-.2.2s-.1.1-.1.2c0 0-.1.2-.1.4.1.1.2.2.4.2-.1-.1-.1-.1-.1-.2l.1-.1h.1c0 .1 0 0 .1 0 0-.1.1-.2.1-.3.1 0 .1.2.1.3s0 .2.1.4v.2c-.1.1-.1.2-.2.2.1 0 .3 0 .4-.1.2 0 .2-.1.2-.3.1 0 .1-.1.1-.1 0-.1-.1-.2-.1-.3s0-.2-.1-.3l.2.2c0 .1.1.1.1.2h.1l.1.1c0 .1 0 .2-.1.2.2 0 .3-.1.4-.2 0-.2 0-.3-.1-.4.1 0 .1 0 .1-.1-.1 0-.1 0-.1-.1-.1 0-.3-.1-.4-.2h.2l.1.1s.1 0 .1-.1c0 0 .1 0 .1.1.1 0 .1.1.1.1.1 0 .2-.1.1-.3 0-.1-.1-.2-.2-.2l-.1-.1h-.6c-.2 0-.4-.1-.5-.2-.2-.1-.3-.2-.5-.4 0 0 .1 0 .1-.1h.2c-.4-.2-.7-.4-1-.6l-.6-.6v-.1c.3.3.5.5 1 .7.4.2.6.2 1.1.2-.5-.5-.7-.8-1.1-1.2l-.1-.1c.1 0 .1.1.1.1.3.2.4.3.6.6.3.2.4.4.6.5.2.2.4.2.7.2.4 0 .7-.1 1-.3-.3-.2-.5-.3-.9-.6-.5-.3-.9-.5-1.3-.8l-.1-.1s.1 0 .1.1c.3.1.6.2.9.4.5.2 1 .4 1.2.4.3 0 .5-.2 1-.7-.6-.1-.9-.2-1.5-.4-.5-.2-1-.3-1.3-.4l-.1-.1h.2c.5.1 1 .2 1.4.2.3 0 .6 0 .9-.1.3-.2.4-.4.5-.7-.5-.1-.7-.1-1.2-.2-.5 0-.8-.1-1.2-.1 0-.1-.1-.1-.1-.1h1.3c.3 0 .7-.1 1-.3.2-.2.2-.5.2-.7h-2.1c-.1 0-.3 0-.3-.1h.4c.2-.1.5 0 .8 0s.8-.1 1-.4c.2-.2.2-.4.2-.6h-2.2c-.1 0-.2-.1-.2-.1 0-.1.4-.1.5-.1h1.2c.5-.1.8-.5.8-1H42c-1.6-.1-1.8-.1-2.4-.1-.3 0-.9 0-1.1.2-.1.1-.1.4 0 .5.1.3.5.9.5 1.3-.1.4-.5.9-.9.9"/><path fill-rule="evenodd" fill="#FFF" d="M34.9 11.4c.1-.1.1-.1.1-.2.1.1.1.2.1.3s0 .1-.1.2c0-.1 0-.1-.1-.3.1.1 0 .1 0 0m-.7.5c-.1 0-.1 0 0 0l-.2-.1v.2c.1.1.2.1.3.1 0 0-.1 0-.1-.2zm-.7-.3c0-.1 0-.1 0 0-.1-.1-.1-.1-.1-.2-.1.1-.1.1-.1.2s.1.2.2.2v-.2m-.2-1c-.1 0-.1.1-.2.1v.3c0-.1 0-.1.1-.1 0-.1.1-.1.1-.1v-.2c0 .1 0 .1 0 0"/><path fill-rule="evenodd" fill="#A77F29" d="M35 10c.1.1.2.1.2.2-.1.1-.2.1-.3.2l-.2.2v.3c.1.1.1.1.3.1l.1.1c0 .1-.1.1-.1.2-.1 0-.1.1-.1.1-.1-.1-.2-.1-.2-.2-.1-.1-.2-.1-.2 0s-.1.2-.1.3v.4h-.2c-.1-.1-.1-.1-.2-.1.1-.1.1-.2.1-.3s.1-.1.1-.3v-.1c-.1 0-.1 0-.2.1l-.2.2s0 .1-.1.1c0 0-.1 0-.1-.1-.1 0-.1-.1-.1-.1l.2-.2c.1-.1.2-.1.3-.2v-.1h-.3c-.1 0-.1 0-.2.1v-.3h.8c.1-.1.2-.1.3-.2.2-.1.2-.1.3-.2s0-.1.1-.2z"/><path fill="#F9D100" d="M35 10c.1.1.2.1.2.2-.1.1-.2.1-.3.2l-.2.2v.3c.1.1.1.1.3.1l.1.1c0 .1-.1.1-.1.2-.1 0-.1.1-.1.1-.1-.1-.2-.1-.2-.2-.1-.1-.2-.1-.2 0s-.1.2-.1.3v.4h-.2c-.1-.1-.1-.1-.2-.1.1-.1.1-.2.1-.3s.1-.1.1-.3v-.1c-.1 0-.1 0-.2.1l-.2.2s0 .1-.1.1c0 0-.1 0-.1-.1-.1 0-.1-.1-.1-.1l.2-.2c.1-.1.2-.1.3-.2v-.1h-.3c-.1 0-.1 0-.2.1v-.3h.8c.1-.1.2-.1.3-.2.2-.1.2-.1.3-.2s0-.1.1-.2z"/><path fill-rule="evenodd" fill="#FFF" d="M38.8 11.4c0-.1-.1-.1-.1-.2-.1.1-.1.2-.1.3s.1.1.1.2c-.1-.1-.1-.1.1-.3 0 .1 0 .1 0 0m.6.5c.1 0 .1 0 .2-.1h.1c-.1.1-.1.1-.1.2-.1.1-.1.1-.3.1.1 0 .1 0 .1-.2 0 .1 0 0 0 0m.6-.3c.1-.1.1-.1 0 0l.2-.2v.2c0 .1-.1.2-.2.2.1 0 .1-.1 0-.2.1 0 0 0 0 0m.2-1c.1 0 .1.1.2.1 0 .1.1.2 0 .3 0-.1 0-.1-.1-.1 0-.1 0-.1-.1-.1v-.2c0 .1 0 .1 0 0"/><path fill-rule="evenodd" fill="#A77F29" d="M38.6 10l-.2.2c.2.1.2.1.3.2.1.1.2.1.2.2.1.1.1.2 0 .3s-.1.1-.2.1c0 0 0 .1-.1.1.1.1.1.1.1.2.1 0 .1.1.2.1l.2-.2c0-.1.1-.1.1 0 .1.1.1.2.1.3 0 .2 0 .2.1.4h.1c.1-.1.1-.1.2-.1 0-.1-.1-.2-.1-.3s0-.1-.1-.3c0 0 0-.1.1-.1 0 0 .1 0 .1.1l.2.2.1.1c.1 0 .1 0 .1-.1.1 0 .1-.1.2-.1-.1-.1-.2-.1-.3-.2l-.2-.2c-.1 0-.1 0-.1-.1h.4s.1 0 .1.1v-.3h-.8c-.1-.1-.2-.1-.3-.2-.1-.1-.2-.1-.3-.2 0-.1 0-.1-.2-.2z"/><path fill="#F9D100" d="M38.6 10l-.2.2c.2.1.2.1.3.2.1.1.2.1.2.2.1.1.1.2 0 .3s-.1.1-.2.1c0 0 0 .1-.1.1.1.1.1.1.1.2.1 0 .1.1.2.1l.2-.2c0-.1.1-.1.1 0 .1.1.1.2.1.3 0 .2 0 .2.1.4h.1c.1-.1.1-.1.2-.1 0-.1-.1-.2-.1-.3s0-.1-.1-.3c0 0 0-.1.1-.1 0 0 .1 0 .1.1l.2.2.1.1c.1 0 .1 0 .1-.1.1 0 .1-.1.2-.1-.1-.1-.2-.1-.3-.2l-.2-.2c-.1 0-.1 0-.1-.1h.4s.1 0 .1.1v-.3h-.8c-.1-.1-.2-.1-.3-.2-.1-.1-.2-.1-.3-.2 0-.1 0-.1-.2-.2z"/><path fill-rule="evenodd" fill="#EE1C2A" d="M35.1 4.4h.4c.3-.1.5-.2.8-.3-.1.2-.3.4-.6.4s-.6-.1-.6-.1"/><path fill-rule="evenodd" fill="#A77F29" d="M36 4.7c.1-.1.1-.2.2-.3.1-.1.2-.2.3-.4h-.1c-.2-.1-.3-.1-.5-.1-.1 0-.2 0-.3.1 0-.1 0-.2.1-.3 0-.1 0-.1.1-.2 0-.1.2-.1.3-.1s.2-.1.4 0l-.1.1c0 .2.1.3.1.4.1.1.1.2.1.3l-.2.2c-.2.1-.3.2-.4.3"/><path fill="#F9D100" d="M36 4.7c.1-.1.1-.2.2-.3.1-.1.2-.2.3-.4h-.1c-.2-.1-.3-.1-.5-.1-.1 0-.2 0-.3.1 0-.1 0-.2.1-.3 0-.1 0-.1.1-.2 0-.1.2-.1.3-.1s.2-.1.4 0l-.1.1c0 .2.1.3.1.4.1.1.1.2.1.3l-.2.2c-.2.1-.3.2-.4.3z"/><path fill-rule="evenodd" fill="#FFF" d="M37 3.5c-.1 0-.1.1 0 0v.2h.1c0-.1 0-.1-.1-.2.1.1.1.1.2.1 0 0 .1 0 .1.1v.1c-.1 0-.1-.1-.2 0H37c-.1 0-.2 0-.2-.2 0 0-.1 0-.1-.1h.3zM17 29.4v.3c0 .2.1.3.2.4v-.2h.3c-.1-.1-.2-.1-.3-.2-.1-.2-.1-.2-.2-.3zm-.6 5.9c0 .1 0 .3.2.3v-.1c.1 0 0-.1.1-.1 0-.1 0-.1.1-.2 0 0 0-.1-.1-.1h-.1c-.1.1-.2.1-.2.2zm-.4 0c0 .1.1.3.2.3 0 0 0-.1.1-.1v-.1c0-.1.1-.1.1-.2 0 0 0-.1-.1-.1h-.1c-.1.1-.2.1-.2.2zm4.1 1.5c0 .1 0 .3.1.3s.1-.1.1-.1c.1 0 0-.1 0-.1l.2-.2-.1-.1h-.1c-.1-.1-.2.1-.2.2zm-.3 0c0 .1 0 .3.2.3V37c.1 0 .1-.1.1-.1 0-.1 0-.1.1-.2 0 0 0-.1-.1-.1H20c-.2-.1-.2.1-.2.2zm6 0c0 .1.1.3.2.3 0 0 0-.1.1-.1v-.1c0-.1.1-.1.1-.2v-.1H26c-.2-.1-.2.1-.2.2zm-.4 0c0 .1 0 .3.1.3s.1-.1.1-.1v-.1c0-.1.1-.1.1-.2v-.1h-.2c-.1-.1-.1.1-.1.2zm5.2 0c0 .1.1.3.2.3V37c.1 0 .1-.1.1-.1 0-.1 0-.1.1-.2 0 0 0-.1-.1-.1h-.1c0-.1-.2.1-.2.2zm-.4 0c0 .1.1.3.2.3 0 0 0-.1.1-.1v-.1c0-.1.1-.1.1-.2v-.1h-.2c-.1-.1-.2.1-.2.2m-4.8 9.7c-.6 0-1.1.1-1.5.1-.5 0-1-.1-1.5-.1v-3.8c0-.8.7-1.4 1.5-1.4.9 0 1.5.7 1.5 1.4v3.8z"/><path fill-rule="evenodd" fill="#D8201F" d="M23.9 40c-.4 0-.7.1-1 .2l.3.9c.2-.1.5-.1.7-.1s.5 0 .7.1l.3-.9c-.3 0-.6-.2-1-.2zm1.5 1.8l.7-.4c.2.3.3.7.3 1.1v.1h-.8c0-.3-.1-.4-.2-.8zm.6-.6c-.2-.4-.6-.7-1-1l-.4.9c.3.1.5.3.7.6l.7-.5zm-.4 4.1v-1.2h.8v1.2h-.8zm0-1.3v-1.2h.8V44h-.8zm-3.2-2.2l-.7-.4c-.2.3-.3.7-.3 1.1v.1h.8c0-.3.1-.4.2-.8zm-.6-.6c.2-.4.6-.7 1-1l.4.9c-.3.1-.5.3-.7.6l-.7-.5zm-.4 4.1v-1.2h.8v1.2h-.8zm0-1.3v-1.2h.8V44h-.8zm.8 2.5c-.2 0-.5-.1-.8-.1v-.8h.8v.9zm4.2-.2c-.3 0-.6.1-.8.1v-.9h.8v.8zM24.9 40c0 .2 0 0 0 0zm-2.1 0zm12.4-1.5v-1.2h2.2v1.2h-2.2zm-5 0v-1.2h2.3v1.2h-2.3zm-5 0v-1.2h2.3v1.2h-2.3zm-14.8 0v-1.2h2.2v1.2h-2.2zm4.9 0v-1.2h2.3v1.2h-2.3zm4.9 0v-1.2h2.3v1.2h-2.3zm7.6 7h1.9c-.7.2-1.2.4-1.9.6v-.6zm-1.2 0h1v.6c-.3.1-.7.1-1 .2v-.8zm-8.5 0H20v.6c-.6-.1-1.2-.3-1.9-.6zm2.1 0h1v.8c-.3-.1-.7-.1-1-.2v-.6zm11.3-1.3h1.3c-.5.2-.9.5-1.3.7v-.7zm-2.5 0h2.3v.8c-.4.1-.8.3-1.1.4H29v-1.2zm-2.4 1.1v-1.2h2.2v1.2h-2.2zM15 44.2h1.3v.8c-.5-.2-.9-.5-1.3-.8zm1.5 0h2.3v1.2h-1.2c-.3-.1-.7-.3-1.1-.4v-.8zm2.5 1.1v-1.2h2.2v1.2H19zm13.8-2.5H35c-.6.5-1.2.9-1.8 1.2h-.5v-1.2zM30.2 44v-1.2h2.3V44h-2.3zm-2.4 0v-1.2H30V44h-2.2zm-1.2 0v-1.2h1V44h-1zm-13.8-1.2h2.3V44h-.5c-.6-.3-1.3-.8-1.8-1.2zm2.5 1.2v-1.2h2.3V44h-2.3zm2.5 0v-1.2h2.3V44h-2.3zm2.4 0v-1.2h1V44h-1zm16.2-2.5h.2c-.1.1-.2.1-.2.2v-.2zm-2.4 0h2.2v.4c-.3.3-.6.6-1 .8H34v-1.2zm-2.5 1.2v-1.2h2.3v1.2h-2.3zm-2.5 0v-1.2h2.3v1.2H29zm-2.5-1.2h2.3v1.2h-2.2v-.1c0-.2 0-.5-.1-.7v-.4zm-15.4 0h.2v.2c0-.2-.1-.2-.2-.2zm.4 0h2.3v1.2h-1.2c-.4-.2-.7-.5-1.1-.8v-.4zm2.5 1.2v-1.2h2.3v1.2H14zm2.5 0v-1.2h2.3v1.2h-2.3zm2.5-1.2h2.3v.4c-.1.2-.1.5-.1.7v.1H19v-1.2zM37.8 40h.2c-.1.2-.2.3-.3.4V40h.1zm-2.6 0h2.2v.6c-.2.3-.4.5-.6.7h-1.6V40zm-2.4 1.2V40H35v1.2h-2.2zm-2.6 0V40h2.3v1.2h-2.3zm-2.4 0V40H30v1.2h-2.2zM25.2 40h2.3v1.2h-1.2c-.3-.5-.7-.8-1.1-1.1V40zM9.8 40h.3v.4c-.1-.1-.2-.2-.3-.4zm.6 0h2.2v1.2H11c-.2-.2-.4-.4-.6-.7V40zm2.4 1.2V40h2.3v1.2h-2.3zm2.5 0V40h2.3v1.2h-2.3zm2.5 0V40h2.3v1.2h-2.3zm2.4-1.2h2.3v.2c-.4.3-.8.6-1.1 1.1h-1.2V40zm18.6-1.3h.2c0 .1-.1.1-.2.2v-.2zm-2.4 0h2.2v.5c-.1.2-.3.5-.5.7h-1.7v-1.2zM34 39.8v-1.2h2.2v1.2H34zm-2.5 0v-1.2h2.3v1.2h-2.3zm-2.5 0v-1.2h2.3v1.2H29zm-2.5 0v-1.2h2.3v1.2h-2.3zm-2.5 0v-1.2h2.3v1.2H24zM8.8 38.7l.1.2c-.1-.1-.1-.1-.1-.2zm2.7 1.1v-1.2h2.3v1.2h-2.3zm2.5 0v-1.2h2.3v1.2H14zm2.5 0v-1.2h2.3v1.2h-2.3zm2.5 0v-1.2h2.3v1.2H19zm2.5 0v-1.2h2.3v1.2h-2.3zM9.1 38.7h2.2v1.2H9.6c-.2-.2-.4-.5-.5-.7v-.5z"/><path fill-rule="evenodd" fill="#41B444" stroke="#000" stroke-width=".143" d="M5.3 1.4v5.7L33.4 26h9.1v-.1h0V23c-.9 1.1-2 1.1-2.8.7-.7-.5-1.1-1.1-1-1.9-.1 0-.1 0-.2-.1l-.1-.1c-.8.4-1.4.3-2.1-.2-.9-.6-1.2-1.8-.2-3.2 0 0-.1-.1-.2-.1l-.2-.2c-.9 1.5-2.2 1.6-3.1 1.1-.6-.5-1-1.1-.9-1.9-.1 0-.1 0-.2-.1 0 0-.1 0-.1-.1-.8.4-1.5.3-2.1-.1-.9-.6-1.2-1.8-.2-3.3-.1 0-.2-.1-.2-.1-.1-.1-.2-.1-.2-.2-.9 1.5-2.2 1.6-3.1 1.1-.7-.4-1-1.1-1-1.8 0-.1-.1-.1-.1-.1-.1-.1-.1-.1-.2-.1-.7.4-1.4.2-2-.2-.9-.6-1.3-1.8-.2-3.3-.1 0-.2 0-.3-.1l-.2-.2c-.9 1.6-2.1 1.6-3 1.1-.7-.4-1.1-1.1-1-1.8l-.1-.1c.3.1.3 0 .2 0-.8.4-1.4.3-2.1-.2-.9-.6-1.2-1.8-.1-3.2-.1-.1-.2-.1-.3-.2-.1 0-.1-.1-.2-.1-.9 1.5-2.2 1.6-3.1 1.1-.6-.5-1-1.1-.9-1.9-.1 0-.1-.1-.2-.1l-.1-.1c-.7.5-1.3.4-2-.1-.5-.3-.8-.8-.9-1.4H5.4l-.1-.1h0z"/><path fill-rule="evenodd" fill="#41B444" stroke="#000" stroke-width=".143" d="M8.4 1.4c.2.4.9.4 1.3.1.7-.3.2-.3-.3-.3-.3.2-1-.1-1 .2zm2.9-.1c-.7 0-1.2.8-.8 1.4.3.7 1.2.9 1.7.3.7-.6 0-1.7-.9-1.7zm4.3 1.1c-.5 0-.9.6-1 1-.4-.6-1.5-.6-1.8.2-.4.8.7 1.8 1.5 1.3.3-.2.5-.5.5-.9.2.3.5.4.8.5-.8.3-.9 1.5-.1 1.9.6.4 1.6-.1 1.6-.8.1-.5-.4-1-.9-1.1.5-.1.8-.7.6-1.2-.2-.6-.7-1-1.2-.9zM18.2 6c-.9 0-1.2 1.3-.5 1.8.5.5 1.4.2 1.6-.4.3-.5-.1-1.1-.6-1.3-.1 0-.3-.1-.5-.1zm4.3 1.1c-.5 0-.8.6-.8 1-.3-.6-1.1-.7-1.6-.3-.7.6-.2 2 .8 1.8.5-.1.9-.6 1-1 .2.3.5.5.8.5-.7.2-1 1.2-.4 1.7.4.5 1.3.5 1.6-.1.4-.5.2-1.3-.4-1.5-.1-.1-.5-.1-.2-.1.7-.3.8-1.3.2-1.7-.4-.2-.7-.4-1-.3zm2.8 3.6c-.7 0-1.3.8-1 1.5s1.4.8 1.8.2c.5-.7.1-1.8-.8-1.7zm4.2 1.1c-.5 0-.9.5-.9 1-.3-.7-1.4-.7-1.7 0-.4.6-.1 1.6.7 1.6.6.1 1.2-.4 1.2-1 .1.3.5.5.8.5-.6.2-.9.9-.6 1.4.2.6 1 .8 1.5.4.5-.3.7-1 .3-1.5-.1-.2-.4-.4-.7-.4.8-.3.9-1.5.1-1.9-.3-.1-.4-.1-.7-.1zm2.7 3.5c-.8 0-1.4 1.1-.8 1.7.5.7 1.9.3 1.8-.6 0-.5-.4-1.1-1-1.1zm4.3 1.2c-.5 0-1 .5-1 1-.4-.8-1.6-.7-1.9.2-.4.9.9 1.8 1.6 1.2.2-.2.4-.5.4-.8.2.3.5.5.7.5-.6.3-.8 1.3-.2 1.8.7.5 1.8-.1 1.7-1 0-.4-.4-.9-.8-.9.8-.4.7-1.8-.2-2 0-.1-.2-.1-.3 0zM39 20c-.9.1-1.1 1.4-.4 1.9.7.5 1.8-.1 1.6-1-.1-.5-.7-.9-1.2-.9zm2.4 1.6c-.6 0-1 .5-.9 1.1 0 .7.9 1.2 1.5.8.7-.3.7-1.3.1-1.7-.2-.2-.3-.3-.7-.2z"/><path fill-rule="evenodd" fill="#F9D100" d="M35 19c-.1-.1 0-.1 0 0 0-.1 0-.1 0 0z"/><path fill-rule="evenodd" fill="#FFF" d="M39.2 38.5h-1.5V37H35v1.4h-2.3v-1.2h.1c.1-.2.2-.2.2-.4.1-.4.1-.7 0-1.1 0-.7 0-1.1-.1-1.7-.3-.1-.5-.1-.7-.3-.4-.2-.5-.4-.8-.6l-.2-1.1c-.1-.5-.1-.7-.3-1.1 0 0 0-.1-.1-.1-.3-.1-.4-.1-.7-.2-.4-.2-.6-.4-.9-.7-.3-.4-.7-.6-1.1-.8-.3-.2-.5-.3-.9-.5h-.6c-.8-.1-1.2-.3-1.8-.5-.1 0-.2 0-.2.1-.1.1-.1.2-.2.3-.1.3-.2.4-.4.6.1-.2.2-.3.3-.5.1-.1.1-.2.1-.4-.3-.2-.4-.4-.7-.6s-.5-.4-.8-.6c-.1-.1-.1 0-.2 0-.3 0-.5-.1-.8 0h-1.1c-.1 0-.1.1-.2.1-.4.1-.6.2-1 .4-.6.4-1.1.5-1.1.5.1.3.3.8.2 1.2-.1.1-.1.2-.2.3.1-.3.2-.4.1-.7 0-.3-.2-.6-.4-.8-.2 0-.5 0-.8.1-.1.1-.2.2-.2.4-.5 0-.9.1-1.2.1-.2.1-.2.4-.3.7-.2.2-.3.2-.5.4s-.4.3-.5.4c0 0-.3.1-.4.1-.1 0-.1.1-.1.2v.4c0 .1.2.2.3.4l.3.3c.1-.1.2-.1.3-.1h.5c0 .1-.1.1-.2.1h.4c-.1 0 0 .3 0 .3.2.1.3.1.5.1h.6c.2.2.4.3.7.3.2.1.4.2.7.3h.5c.1 0 0 .2 0 .2-.3.2-.5.2-.8.4s-.7.3-.8.5c-.2.3-.4.5-.6.8-.3.4-.5.6-.8 1-.2.1 0 .7.2.7h2c.1 0 .2-.1.3-.3.1-.1.1-.1.1-.3.4-.2.6-.3.9-.5.4-.3.6-.5.9-.8 0-.2-.1-.3-.1-.5-.1-.1-.1-.2-.1-.4 0 .2.1.3.1.5.1.2.1.2.3.4v2.3c-.4.1-.7.3-.8.3-.1.1-.1.3-.2.4 0 .1.1.3.2.4h.5v1.2h-2.3v-1.4h-2.7v1.4h-2.3v-1.4h-2.7v1.4H8.6c-2-3-3.3-6.6-3.3-10.5v-1.6h37.2v1.6c0 3.5-1.3 7.2-3.3 10.2"/><path fill-rule="evenodd" fill="#FFF" d="M30 37v1.4h-2.3v-1.2h.3c.2-.2.4-.5.5-.7.3-.4.5-.6.7-1 0-.3-.1-.5-.1-.8 0-.4-.1-.6-.2-1 .1 0 .1-.1.1-.1.1-.1.1-.2.2-.4-.1.2-.1.2-.1.3-.1.1-.1.3-.1.3v.2c.2.3.3.4.6.6.4.3.7.5 1.2.9.1 0 .2.1.2.2.1.1.1.4.1.6h-.6c-.2.1-.3.2-.3.4-.3.1-.3.3-.2.3m-4.9 0l-.1 1.5h-2.3V37h-.5c.1-.3.2-.7.4-1.1.1-.5.2-.7.3-1.1v-.2c-.1-.4-.2-.5-.3-.8s-.2-.5-.2-.9c.1.3.1.4.1.5.1.1.1.2.2.2 0 0 .1 0 .1.1.2 0 .5.2.8.4.4.1.5.1.9.2.4 0 .6.1 1 .1 0 .2.1.2.1.4.2.3.3.5.5.7.1 0 .1.1.1.2v.3c-.1.1-.1.2-.1.3-.1 0-.3 0-.5.1-.4.1-.6.3-.5.6-.1 0 0 0 0 0"/><path fill="#292A2B" d="M7.6 3.8l1 2.2 2.4.1 1 2.2 2.4.1 1 2.2 2.4.2 1 2.2 2.4.1 1 2.3 2.4.1 1 2.2 2.4.1 1 2.2 2.4.1 1 2.2 2.4.1 1 2.2 2.4.1.6 1.4h-.1l-.6-1.3-2.4-.1-1-2.2-2.4-.1-1-2.2-2.3-.1-1-2.2-2.4-.1-1-2.2-2.4-.1-1-2.2-2.4-.1-1-2.2-2.4-.1-1-2.2-2.4-.1-1-2.2-2.5-.1-.9-2.5H5.1L5 3.7h.1l2.5.1zm28.5 21zm2 .3l.4.9h-.1l-.3-.9h-1.5V25h.1l1.4.1zm-1.3.1zm-2-2.4l.6 1.3v.1h-.1l-.5-1.4h-1.5v-.1h.1l1.4.1zm-1.5.1zm-2-2.4l.5 1.3v.1l-.5-1.4h-1.5 1.5zm-3.4-2.4l.6 1.3v.1l-.6-1.4h-1.5 1.5zm-3.5-2.2l.6 1.3v.1h-.1l-.5-1.4h-1.5 1.5zM21 13.5l.6 1.4-.1-.1-.5-1.3h-1.5l-.1-.1h.1l1.5.1zm-3.4-2.3l.6 1.3v.1l-.1-.1-.5-1.3h-1.5l-.1-.1h.1l1.5.1zm-3.5-2.3l.6 1.3v.1l-.1-.1-.5-1.3h-1.6 1.6zm-3.3-2.3l.6 1.3V8h-.1l-.5-1.4H9.2h1.6zM7.3 4.3l.6 1.3v.1l-.1-.1-.5-1.3H5.8v-.1h.1l1.4.1z"/><path fill="none" stroke="#000" stroke-width=".143" d="M7.4 1.4l.1.4c.2.7.6 1.3 1.3 1.7.3.2.5.2.9.2h.7c.2 0 .2 0 .3.2.1.8.7 1.5 1.4 1.8.4.2.5.2 1 .2.4 0 .7-.1.9-.2l.3-.1v.5c.1.9.6 1.6 1.5 2.1.5.2 1.1.3 1.5.1.2-.1.2-.1.2.2.2 1.4 1.7 2.4 3.1 1.9.3-.1.5-.2.6-.2 0 0 .1.1 0 .3 0 .5.2 1.1.4 1.5.5.6 1.4 1 2.3.9h.5l.1.4c.2.7.4 1 1.1 1.5.8.5 1.4.6 2.2.3l.4-.2v.4c0 .9.5 1.7 1.4 2.1.4.2.5.2 1.1.2h.7l.1.5c.2.8.6 1.2 1.5 1.6.5.2 1.3.2 1.8 0l.3-.2v.4c0 .9.6 1.8 1.4 2.2.4.2.5.2 1.1.2h.7v.3c.1.4.5 1.1.8 1.4.5.4.9.6 1.6.6.4 0 .7 0 .9-.2l.4-.2v.5c0 .4 0 .6.2.9l.2.4M5.3 6l29.4 20M5.3 1.8l35.9 24.4m-3-1.2l.4 1.1h-1.5l-.3-1.1h1.4zm.3-.5l.6 1.5h-2.5l-.6-1.6 2.5.1zm-3.7-1.9l.6 1.4h-1.5l-.6-1.5 1.5.1zm.2-.4l1 2.3h-2.5l-1-2.4 2.5.1zm-3.7-1.8l.6 1.4h-1.5l-.6-1.5 1.5.1zm.3-.4l1 2.3h-2.5l-1-2.4 2.5.1zm-3.7-2l.6 1.4H27l-.6-1.5 1.5.1zm.3-.5l1 2.3h-2.5l-1-2.4 2.5.1zm-3.8-1.8L25 17h-1.5l-.6-1.5 1.5.2zm.4-.4l1 2.3h-2.5l-1-2.4 2.5.1zM21 13.4l.6 1.4h-1.5l-.6-1.5 1.5.1zm.3-.4l1 2.3h-2.5l-1-2.4 2.5.1zm-3.7-1.9l.6 1.4h-1.5l-.6-1.5 1.5.1zm.3-.4l1 2.3h-2.5l-1-2.4 2.5.1zm-3.7-1.9l.6 1.4h-1.5l-.6-1.5 1.5.1zm.2-.5l1 2.3h-2.5l-1-2.4 2.5.1zm-3.6-1.9l.6 1.4H9.8l-.6-1.5 1.6.1zM11 6l1 2.3H9.5l-1-2.4L11 6zM7.3 4.1l.6 1.4H6.4L5.8 4l1.5.1zm.3-.4l1 2.3H6.1l-1-2.4 2.5.1z"/></svg>