<svg baseProfile="tiny" xmlns="http://www.w3.org/2000/svg" width="48" height="48"><path fill="#FDC847" d="M6.1 7.1c.1-.3.4-.8.9-.8.4-.1.9 0 1.3.2.1 0 .2-.2.2-.5.6-.1 1.2.2 2 1.1.2-.1.2-.3.3-.5.2.1.4.2.6.4.3.1.6 0 .7.2.2.2.2.8.7 1.2.2.2.5.5.6.8.1.5 0 1-.3 1.2 0 .5.7 1.2 1.7 1s.8-1.3.6-1.6c-.5 0-.8-.1-1-.6-.8.1-1.4-.3-1.4-.7s.3-.7.4-.9C12.8 7.2 12 6.7 12 6c.2-.2.7-.3 1.2-.3-.5-.3-1-.9-1-1.5.4-.1.8-.3 1.3 0-.4-.4-.6-1-.7-1.6.2-.1.6-.2 1-.2.1-.4 0-1 .5-1.2.3.1.7.3.9.8.4 0 .6-.5.9-.4.6.2.5 1.1.7 1.4s.4-.2 1-.1c.3.2.3.7.4 1.2.3.4.7 0 1 .3.1.4-.1.9-.1 1.5.3.2.7.4.7.9-.1.6-.4.8-.7 1 .1.2.2.4.1.9-.1.3-.5.5-.8.5.3.9 1.5 1.4 2.5 1.3 1.1-.1 1.9-.9 1.8-1.8-.3.1-.7 0-.9-.2-.2-.2-.3-.5-.3-.7-.7.1-1.8-.4-1.9-1 0-.5.5-.9.9-1.1-.2-.5-.8-.9-.8-1.5.3-.2.9-.1 1.4 0-.3-.2-.5-.8-.3-1.2.5 0 .9 0 1.3.1-.3-.2-.6-1-.3-1.5.4-.2 1.2.3 1.4.7-.1-1 .2-1.9.9-2.2.4.1.7.9.7 1.8.4.1 1-.6 1.9-.3.2.4-.1.9-.2 1.4.3.2.6 0 .9.1 0 .4-.1.7-.2 1 .3.3.9-.1 1.4.2.1.5-.7 1-.8 1.4 0 .4.5.8 0 1.6-.3.5-1.1.5-1.5.2 0 .3-.1.6-.3.8-.3.2-.6.2-.9 0-.1 1 .9 1.9 2.1 2.1 1.2.1 2.1-.7 2.2-1.5-.4 0-.7-.2-.8-.5-.1-.3.1-.7.2-.9-.3-.1-.6-.4-.7-.8.1-.5.4-.6 1-.7-.3-.4-.4-.9-.5-1.5.4-.2.8-.1 1.1.1-.1-.5-.1-1.2.1-1.6.3 0 .8.3 1 .4 0-.9.1-1.3.5-1.7.3 0 .6.2.8.5.6-.3.7-1.2 1.6-1.1.5.4 0 1.1.4 1.5.3.2.7-.2 1.2 0 .1.4-.3.9-.4 1.4.3.3.7 0 1.1.2 0 .5-.3.7-.4 1.2.1.2.3.2.4.5-.1.6-.6.8-1.1 1.2 0 .4.4.6.3 1.3-.3.3-.8.6-1.4.6 0 .3-.1.5-.3.7-.2.2-.5.2-.9 0-.2.4-.2 1.2.6 1.4.7.2 1.3-.4 1.3-.8 0-.9.4-1.3.7-1.7.4-.5.3-1.2.6-1.7.3 0 .4.1.6.3-.1-.6.2-1.2.5-1.5.3.1.3.8.6 1 .6-.6 1-1 1.8-1 .2.3.1.5.1.7 1.6-.3 2.1.1 2.6.6-.4.4-1-.3-2 .8-.4.5-.4.9-1.5 1.4-.2.4-.3.6-.7.9-.3.2-.8.3-1.2.4-.6.7-.9 1.3-1 1.9l-1.1 3.9c-2.9-1.3-7.4-2-10.3-1.9-3.2 0-7.4.7-10.3 2.1l-1.6-3.8c-.4-.8-.8-1.4-1.2-2.1-.4 0-.9-.2-1.2-.4-.3-.3-.4-.6-.4-.9-.5-.2-.7-.2-1.2-.7-.4-.3-.6-.8-.8-1-.4-.4-.8-.5-1.4-.5z"/><path fill="#010202" d="M13.9 16.9c-.1 0-.1 0-.2-.2 0-.1-.1-.2-.2-.4-.2-.4-.4-.8-.6-1.3-.5-1.5-.7-1.9-.7-2-.3-.7-.7-1.3-1.2-2.1-.5 0-1-.2-1.2-.4-.3-.3-.4-.6-.5-.9-.1 0-.1 0-.2-.1-.4-.1-.5-.2-1-.7-.3-.2-.4-.6-.6-.7-.1-.2-.2-.3-.3-.4-.3-.5-.7-.5-1.2-.5h-.1v-.1c.1-.5.5-.8 1-.9h.3c.3 0 .7.1 1 .2.1-.2.1-.3.1-.4v-.1h.4c.5 0 1.1.3 1.8 1.1 0 0 .1-.1.1-.2s0-.1.1-.2h.1c.3.1.5.2.6.5.1.1.2.1.4.1.1 0 .3 0 .4.1.1.1.2.2.2.4.1.2.2.5.4.8v.1c0-.3.2-.6.3-.8-.6-.4-1.3-.9-1.4-1.6v-.1h.1c.2-.2.6-.3.9-.3-.3-.4-.7-.9-.7-1.5v-.1h.1c.3-.1.5-.2.8-.2h.2c-.3-.4-.3-.8-.4-1.3v-.2h.1c.2-.1.6-.2 1-.2V2c0-.4.1-.8.5-1 .2.1.7.3 1 .8.1 0 .2-.1.3-.2.1-.1.2-.2.4-.2h.1c.5.2.6.7.6 1.1 0 .2 0 .3.1.4h.1c.1.1.1.1.2 0 .1.1.3 0 .5 0h.2c.3.2.3.6.4 1v.2c.1.1.2.1.4.1h.2c.1 0 .2 0 .4.1.1.3 0 .6-.1 1 0 .2-.1.3-.1.5.2.1.4.3.5.5.1-.3.5-.6.8-.8-.1-.2-.2-.3-.4-.5-.2-.3-.5-.5-.5-.9h.1c.2-.1.4-.1.6-.1s.4 0 .6.1c-.2-.3-.4-.8-.2-1.1v-.1h.5c.2 0 .4 0 .6.1-.2-.4-.3-.9-.1-1.3h.2c.4 0 .8.3 1.1.6 0-1 .3-1.7 1-2 .4.1.8.9.7 1.8.1 0 .3-.1.4-.1.2-.1.5-.2.9-.2.2 0 .3 0 .5.1.1.4 0 .7-.1 1 0 .1-.1.3-.1.4h.5c.1 0 .2 0 .3.1h.1v.1c0 .3-.1.6-.2.9v.1h.7c.2 0 .4 0 .6.1.3-.1.6-.1.9 0 0-.4-.1-1.1.1-1.5h.1c.3 0 .7.2.9.3 0-.8.1-1.2.5-1.5.3 0 .6.2.8.5.2-.1.3-.3.4-.4 1-.7 1.3-1 1.9-1 .3.1.3.5.3.8 0 .2 0 .5.1.6s.2 0 .4 0c.1 0 .3-.1.4-.1s.2 0 .3.1c.2.3 0 .7-.2 1-.1.1-.1.2-.1.4.2.2.2.2.3.2h.3c.1 0 .3 0 .5.1 0 .4-.1.6-.2.8-.1.1-.1.2-.2.4 0 .1.1.1.2.2s.2.1.3.2c-.1.5-.5.8-.9 1.1l-.1.1c0 .1.1.2.1.3.1.2.2.4.2.8.1-.2.1-.3.1-.5.1-.3.1-.5.3-.8v-.1h.1c.2 0 .3.1.5.1 0-.6.3-1.1.6-1.3h.1c0 .4.1.6.2.9.1.2.1.3.2.4.5-.5 1-.9 1.8-1h.1v.1c.2.3.1.5.1.6h.6c1.1 0 1.5.4 1.9.8l.1.1H42c-.2.1-.3.2-.5.2h-.1c-.4 0-.8.1-1.3.7-.1.1-.2.2-.2.3-.2.3-.4.7-1.3 1.1-.2.4-.3.6-.7.9-.3.2-.7.4-1.2.4-.6.8-.9 1.3-.9 1.9l-1.2 4h-.1c-2.8-1.2-7.1-1.9-9.8-1.9H24c-2.9-.1-7.1.4-10.1 2zm-1.5-4c.1.2 1.3 3.1 1.6 3.7 3-1.4 7.2-2.1 10-2.1h.7c2.7 0 6.9.6 9.8 1.8l1.1-3.8c.1-.6.4-1.2 1-2h.1c.5 0 .9-.1 1.1-.3.4-.3.5-.5.7-.8.8-.4 1-.7 1.2-1 .1-.1.2-.2.2-.4.6-.7 1.1-.7 1.5-.7h.4c-.4-.3-.8-.7-1.7-.7-.2 0-.5 0-.7.1h-.1v-.1c0-.2.1-.3 0-.5-.7.1-1.1.5-1.6 1l-.1.1h-.1c-.2-.1-.3-.3-.4-.6-.1-.5-.1-.7-.2-.7-.3.2-.5.8-.4 1.3l-.2.1c-.1-.1-.3-.3-.4-.3-.1.2-.2.4-.2.7-.1.3-.1.6-.4 1-.3.3-.6.8-.7 1.5-.1.4-.6.9-1.2.9h-.3c-.3-.1-.5-.3-.6-.5-.2-.4-.1-.9 0-1.1v-.1l.1.1c.3.2.5.2.8 0 .2-.1.2-.3.3-.6v-.1h.1c.6-.1 1-.3 1.3-.6 0-.4-.1-.6-.2-.8-.1-.1-.1-.3-.1-.4v-.1h.1c.1 0 .1-.1.2-.1.4-.3.7-.5.8-.9 0-.1-.1-.1-.2-.1-.1-.1-.2-.1-.3-.3 0-.2.1-.3.2-.5s.2-.4.2-.6c-.1-.1-.2-.1-.3-.1h-.3c-.1 0-.3 0-.5-.2h-.1c0-.1.1-.3.2-.4.1-.4.3-.7.2-.9h-.2c-.1 0-.2 0-.3.1-.1 0-.2.1-.3.1-.1 0-.2 0-.3-.1-.2-.2-.2-.5-.2-.8s0-.5-.2-.7c-.4 0-.6.2-.9.5 0 0-.2.2-.4.3h-.1l-.1-.1c-.2-.2-.4-.4-.7-.5-.4.3-.4.7-.4 1.5v.2l-.2-.1c-.2-.2-.6-.4-.9-.4-.1.3-.1.9 0 1.4v.2l-.2-.1c-.4-.2-.7-.2-1-.1.1.5.2 1 .5 1.4l.1.1H29c-.5.1-.8.2-1 .7.1.3.4.6.7.7l.1.1-.1.1c-.1.1-.3.5-.2.7.1.3.4.4.7.4h.1v.1c-.1.8-.9 1.6-2.1 1.6h-.3c-1.3-.2-2.2-1.2-2.2-2.2v-.1l.2.1c.3.2.6.2.8 0 .2-.2.3-.4.2-.7v-.3l.2.1c.1.1.4.2.6.2.3 0 .6-.1.8-.3.1-.2.2-.3.2-.5s0-.4-.1-.6c0-.1-.1-.3-.1-.4 0-.2.2-.3.4-.5s.5-.5.4-.7c-.1-.1-.3-.1-.4-.1h-.6c-.1 0-.3 0-.4-.1h-.1v-.1c.1-.3.2-.5.2-.7h-.5c-.1 0-.2 0-.4-.1H26V3c0-.2.1-.3.1-.5.1-.3.2-.5.1-.8-.1 0-.3-.1-.4-.1-.3 0-.6.1-.8.2.2.2 0 .3-.1.3h-.2V2c0-.8-.2-1.6-.5-1.7-.6.3-.9 1.1-.8 2.1h-.2c-.2-.5-.8-.8-1.2-.8h-.1c-.2.4 0 1.1.3 1.3l-.1.2c-.3-.1-.5-.1-.9-.1h-.4c-.1.3.1.8.3 1.1l-.1.1c-.4-.1-.6-.1-.8-.1-.2 0-.3 0-.5.1 0 .3.2.5.4.7.2.2.3.4.4.7v.1h-.1c-.4.2-.8.6-.8 1 0 .5.9.9 1.6.9h.2v.1c0 .2 0 .4.2.7.2.2.5.3.8.2h.1v.1c.1 1-.7 1.8-1.9 1.9h-.3c-1 0-2-.4-2.4-1.4l.3-.2h.3c.3 0 .5-.2.6-.4.1-.4 0-.6-.2-.8l-.1-.1h.2c.3-.2.5-.4.6-.9 0-.4-.3-.6-.6-.8h-.1v-.1c0-.2.1-.4.1-.6.1-.3.1-.6.1-.8-.1 0-.1-.1-.2-.1h-.3c-.1 0-.3 0-.5-.2V4c0-.4-.1-.7-.3-.9h-.1c-.1 0-.2.1-.4.1-.1.1-.2.1-.3.1-.1 0-.2 0-.2-.1-.1-.1-.1-.3-.1-.5-.1-.4-.1-.8-.5-.9-.1 0-.2.1-.3.2-.1.1-.3.2-.5.2h-.1V2c-.2-.4-.6-.6-.8-.7-.3.1-.3.5-.3.8v.5h-.1c-.3 0-.7 0-.9.1.1.6.2 1 .6 1.4l-.1.2c-.2-.1-.3-.1-.5-.1s-.4.1-.6.1c.1.6.5 1.1.9 1.3l-.1.2c-.4 0-.8 0-1.1.2.1.6.8 1.1 1.4 1.4l.1.1-.1.1-.1.1c-.4.2-.5.4-.5.7s.5.7 1.1.7h.3v.1c.2.4.4.5.8.5h.2v.1c.1.2.2.7 0 1.2-.1.3-.4.5-.7.6h-.3c-.9 0-1.5-.7-1.5-1.2v-.1c.2-.1.4-.6.3-1.1-.1-.2-.3-.4-.5-.6l-.1-.1c-.3-.3-.4-.6-.5-.9-.1-.2-.1-.3-.2-.3s-.1 0-.3-.1c-.1 0-.3 0-.5-.1 0-.2-.2-.3-.3-.4v.1c-.1.2-.1.3-.3.4h-.1l-.1-.1c-.7-.8-1.2-1-1.7-1h-.1c0 .3-.1.4-.3.5-.3-.2-.6-.2-.9-.2h-.3c-.4 0-.7.3-.8.6.5 0 .9.2 1.3.5.1.1.2.3.3.5s.3.5.5.7c.4.3.6.4.9.5.1 0 .1 0 .2.1h.1v.1c.1.3.2.6.4.9.2.2.7.4 1.1.4h.1c.5.7.8 1.4 1.2 2.2zm.8-2.5c.1.4.6.9 1.3.9h.3c.3-.1.5-.2.6-.5s.1-.7 0-.9c-.5 0-.8-.2-1-.6-.3 0-.6 0-.8-.1 0 .4-.1 1-.4 1.2zm20 .4h.2c.5 0 .9-.4 1-.7.1-.8.4-1.3.8-1.6 0 0 0-.1.1-.1-.4.3-.9.5-1.4.5 0 .3-.1.5-.3.7-.3.2-.5.2-.9 0-.1.2-.1.5 0 .8.1.2.2.4.5.4zM18.5 9.3c.3.7 1.3 1.1 2.1 1.1h.2c1-.1 1.7-.8 1.7-1.6-.3 0-.6-.1-.9-.3-.2-.2-.3-.5-.3-.7-.6 0-1.3-.3-1.7-.7-.1.4-.3.6-.6.7.2.2.3.5.1 1 .1.3-.2.4-.6.5zm6.7-.9c0 .9.9 1.6 2 1.8h.2c1 0 1.7-.7 1.8-1.3-.4 0-.6-.2-.8-.5-.1-.3 0-.6.1-.9-.2-.1-.4-.3-.5-.5 0 .1-.1.2-.2.3-.2.3-.5.4-1 .4-.2 0-.4 0-.5-.1 0 .3-.1.5-.3.7-.2.3-.5.3-.8.1zm2.7-2.6c0 .1 0 .2.1.3 0 .1.1.2.1.3.2-.3.5-.4.9-.5-.2-.3-.3-.6-.4-1-.1.2-.2.3-.4.4-.1.1-.3.3-.3.5z"/><path fill="#FDC847" d="M11.7 13.2c-.2.1-.3.3-.2.6.1.2.3.3.6.2 4-1.6 8-2.3 12-2.3 3.9 0 8 .7 12.1 2.2.2.1.4-.1.5-.2.1-.2 0-.5-.2-.6-4.1-1.5-8.2-2.3-12.3-2.3-4.2 0-8.5.8-12.5 2.4zm12.5 1.2c-4 0-7.8.8-11.5 2.3-.3 0-.4.4-.2.6.1.2.4.3.6.2 3.5-1.5 7.3-2.2 11-2.3 3.8 0 7.6.8 10.8 2.1.2.1.5 0 .6-.2s0-.5-.2-.6c-3.2-1.3-7.5-2.1-11.1-2.1z"/><path fill="#010202" d="M12.9 17.8c-.2 0-.4-.1-.5-.3-.1-.2-.1-.4 0-.6.1-.1.2-.2.3-.2 3.6-1.5 7.4-2.3 11.4-2.3h.1c3.7 0 8 .8 11.1 2.2.3.1.4.5.3.7s-.3.3-.5.3h-.2c-3.2-1.4-7-2.1-10.7-2.1-3.8 0-7.6.8-11 2.2-.1.1-.2.1-.3.1zm-.2-.9s-.1 0-.1.1c-.1.1-.1.3 0 .4s.2.2.3.2h.1c3.4-1.5 7.2-2.2 11.1-2.3h.1c3.7 0 7.5.8 10.7 2.1h.1c.1 0 .3-.1.3-.2.1-.2 0-.3-.2-.4-3.1-1.4-7.3-2.2-11-2.2H24c-3.8 0-7.7.7-11.3 2.3zm-.9-2.8c-.1 0-.3-.1-.5-.3-.1-.1-.1-.3 0-.4l.3-.3c3.8-1.6 8-2.4 12.2-2.4h.2c4.2 0 8.4.8 12.4 2.3.1 0 .2.1.3.3.1.1.1.3 0 .4-.1.2-.3.3-.5.3H36c-3.8-1.4-7.9-2.1-12.1-2.2h-.1c-4.2 0-8.1.7-11.9 2.3h-.1zm12.1-3.2c-4.2 0-8.4.8-12.1 2.4-.1 0-.1.1-.2.2v.3c.1.2.2.2.4.2 3.8-1.5 7.7-2.3 12-2.3h.1c4.2 0 8.3.8 12.1 2.2h.1c.1 0 .2-.1.3-.2v-.3c0-.1-.1-.1-.2-.2-3.9-1.5-8.1-2.2-12.3-2.3h-.2z"/><path fill="#0E8938" d="M15.5 5.4c.4-.2 1 .2 1.2.8s.2 1.1-.2 1.4c-.4.2-.9-.2-1.2-.7-.3-.7-.2-1.3.2-1.5zm16.8-.2c-.5-.2-1 .4-1.2.8-.2.6-.1 1.2.3 1.4.5.2 1-.3 1.1-.8.3-.5.3-1.2-.2-1.4z"/><path fill="#010202" d="M16.2 7.6c-.4 0-.8-.3-1-.8-.2-.6-.2-1.3.3-1.5h.2c.4 0 .8.4 1 .9.2.6.1 1.2-.3 1.4h-.2zm-.5-2.2h-.2c-.4.2-.4.8-.2 1.3.2.4.6.7.9.7h.2c.3-.2.4-.7.2-1.3-.1-.3-.5-.7-.9-.7zm15.9 2h-.2c-.4-.2-.6-.8-.3-1.4.2-.4.6-.9 1-.9h.2c.2.1.3.2.4.4.1.3.1.7-.1 1.1-.1.5-.5.8-1 .8zm.5-2.2c-.4 0-.7.4-.9.8-.2.6-.1 1.1.2 1.3h.2c.4 0 .7-.4.9-.8.2-.4.2-.8.1-1l-.3-.3h-.2z"/><path fill="#E52823" d="M23.9 4.4c-.6 0-.8.7-.8 1.2 0 .6.4 1.1.9 1.2.5 0 .8-.6.8-1.1 0-.6-.3-1.3-.9-1.3zm13.9 5.7c-.4.3-.7.4-1.2.4-.1-.5-.1-.8.5-1.2.5-.4 1.2-.4 1.4 0-.2.5-.3.6-.7.8zM9.4 9.3c.4-.3 1.1-.3 1.5.1.5.4.4 1.2.1 1.4-.3 0-.8-.1-1.2-.4-.2-.3-.3-.8-.4-1.1z"/><path fill="#010202" d="M11.1 10.8c-.2 0-.8-.1-1.2-.4-.3-.3-.4-.8-.5-1.1.2-.1.5-.2.8-.2s.6.1.8.3c.2.2.4.5.4.9-.1.1-.2.5-.3.5zM9.5 9.3c0 .3.1.7.4 1s.9.3 1.1.3c.1-.1.1-.3.1-.5 0-.3-.1-.6-.3-.8-.2-.2-.4-.2-.7-.2-.1.1-.4.1-.6.2zm27.1 1.3c-.1-.5-.1-.9.4-1.4.3-.2.6-.3.9-.3.3 0 .5.1.6.3-.2.4-.3.6-.7.9-.4.5-.7.5-1.2.5zm1.3-1.5c-.3 0-.5.1-.8.3-.5.4-.5.7-.4 1.1.4 0 .7-.1 1.1-.3.3-.3.5-.4.6-.8-.1-.3-.4-.3-.5-.3zM24 6.9c-.5 0-.9-.7-.9-1.2 0-.6.3-1.3.9-1.3.6 0 .9.7.9 1.3-.1.4-.4 1.1-.9 1.2zm-.1-2.5c-.5 0-.8.6-.8 1.2 0 .5.4 1.1.8 1.1.5 0 .8-.6.8-1.1 0-.5-.3-1.2-.8-1.2zm-7.7 6.7l.1-.2s.2-.4.3-.8c.1-.4.1-.8.1-.8l.2-.1s.2.4.5.7.7.5.7.6v.2l-1.9.4zm.6-1.5c0 .2 0 .3-.1.5s-.1.5-.2.6l1.2-.3c-.1-.1-.3-.3-.5-.4-.1-.2-.3-.4-.4-.4zm0-1l-1-.6.1-.2.7.4.2-.7.2.1-.2 1zm8.1 1.5h-2l-.1-.2s.3-.3.6-.7c.2-.3.4-.7.4-.7h.2s.1.3.3.6c.3.4.6.7.6.7v.3zm-1.7-.2h1.5c-.1-.1-.3-.4-.5-.6-.1-.2-.2-.3-.3-.5-.1.1-.2.3-.3.5-.2.3-.3.5-.4.6zm.7-2.1l-.6-.7.2-.1.4.5.5-.5.2.1-.7.7zm7.6 3.1l-1.9-.4v-.2s.4-.2.7-.5c.3-.3.6-.7.6-.7h.2s0 .4.2.8l.4.8-.2.2zm-1.6-.6l1.4.3-.3-.6c-.1-.2-.1-.4-.2-.6l-.5.5c-.1.2-.3.3-.4.4zm1.3-1.7l-.4-1h.2l.3.7.7-.5.1.2-.9.6z"/><path fill="#0E8938" d="M12 15.6l.8-1.8 1.8.7-.7 1.7-1.9-.6zm5.1-1.8l1.6 1.1 1.1-1.6-1.6-1.1-1.1 1.6zm5.4-.7l1.4-1.3 1.3 1.3-1.4 1.3-1.3-1.3zm5.8.2l1.6-1.1 1.1 1.6-1.6 1-1.1-1.5zm5.3 1.3l1.7-.9.9 1.7-1.7.9-.9-1.7z"/><path fill="#010202" d="M34.5 16.4l-1-1.8 1.8-1 1 1.8-1.8 1zm-.8-1.8l.8 1.6 1.6-.8-.9-1.7-1.5.9zm-19.8 1.8l-2-.8.8-1.9 1.9.8-.7 1.9zm-1.8-1l1.7.7.7-1.6-1.7-.7-.7 1.6zm6.6-.3L17 13.9l1.2-1.7 1.7 1.2-1.2 1.7zm-1.5-1.3l1.5 1 1.1-1.5-1.5-1-1.1 1.5zm12.2 1.3l-1.2-1.7 1.7-1.1 1.2 1.7-1.7 1.1zm-1-1.8l1 1.4 1.5-1-1-1.5-1.5 1.1zm-4.5 1.3l-1.4-1.4 1.5-1.4 1.4 1.4-1.5 1.4zm-1.3-1.5l1.2 1.2 1.3-1.2-1.2-1.2-1.3 1.2z"/><path fill="#E52823" d="M15.7 13.6c.4 0 .6.3.6.6s-.3.6-.6.6c-.4 0-.6-.3-.6-.6 0-.4.3-.6.6-.6zm5.4-1c.4 0 .6.3.6.6s-.3.6-.6.6c-.4 0-.6-.3-.6-.6-.1-.4.2-.6.6-.6zm5.6 0c.4 0 .6.3.6.6s-.3.6-.6.6c-.4 0-.6-.3-.6-.6s.3-.6.6-.6zm5.6 1c.4 0 .6.3.6.6s-.3.6-.6.6-.6-.3-.6-.6c0-.4.2-.6.6-.6z"/><path fill="#010202" d="M15.7 14.8c-.4 0-.7-.3-.7-.7s.3-.7.7-.7c.4 0 .7.3.7.7 0 .5-.3.7-.7.7zm0-1.2c-.3 0-.6.2-.6.5s.3.5.6.5.6-.2.6-.5c0-.2-.3-.5-.6-.5zm16.6 1.2c-.4 0-.7-.3-.7-.7s.3-.7.7-.7c.4 0 .7.3.7.7 0 .5-.3.7-.7.7zm0-1.2c-.3 0-.6.2-.6.5s.3.5.6.5.6-.2.6-.5-.3-.5-.6-.5zm-11.2.3c-.4 0-.7-.3-.7-.7s.3-.7.7-.7c.4 0 .7.3.7.7s-.3.7-.7.7zm0-1.3c-.3 0-.6.2-.6.5s.3.5.6.5.6-.2.6-.5c-.1-.2-.3-.5-.6-.5zm5.6 1.3c-.4 0-.7-.3-.7-.7s.3-.7.7-.7c.4 0 .7.3.7.7s-.3.7-.7.7zm0-1.3c-.3 0-.6.2-.6.5s.3.5.6.5.6-.2.6-.5c0-.2-.3-.5-.6-.5zm-12.5-1c-.3 0-.6-.1-.9-.2-.5-.3-.9-.7-1-1.2l.2-.1c.2.2.5.2.8.2v.2c-.2 0-.5 0-.7-.1.2.3.5.6.8.8.5.2 1 .3 1.4.1.5-.3.6-.4.8-.6.3-.5.5-.8.5-1.3 0-.6-.3-1-.8-1-.3 0-.4.1-.5.2-.1.1-.1.3-.1.5.1.2.2.4.3.4.1.1.3.1.4 0 .2-.1.2-.3.2-.4 0-.1-.1-.2-.2-.2h-.2c.2-.1.4.1.5.3s0 .5-.3.7c-.2.1-.4.1-.6 0s-.4-.3-.4-.6c-.1-.2 0-.5.1-.7.2-.2.4-.3.7-.3.6 0 1 .5 1 1.2 0 .5-.2.9-.5 1.4-.2.3-.3.4-.9.7h-.6zm19.5-.5c-.2 0-.5 0-.7-.1-1.1-.4-1.4-1.3-1.2-1.9.2-.6.8-1 1.4-.9.3.1.5.3.6.5s.1.4 0 .7c-.2.3-.6.4-.9.3-.2-.1-.3-.2-.3-.3s0-.3.1-.4c.1-.1.2-.2.3-.2.1 0 .3.1.4.2l-.2.1c-.1-.1-.1-.1-.2-.1 0 0-.1 0-.2.1 0 0-.1.1-.1.2s.1.1.2.2c.2.1.5.1.6-.2.1-.2.1-.4 0-.5-.1-.2-.2-.3-.5-.4-.5-.1-.9.2-1.1.7-.2.6.1 1.4 1 1.7s1.5 0 2.1-.5c-.3 0-.5 0-.7-.1l.1-.2c.3.1.7.1.9 0l.1.2c-.4.6-1 .9-1.7.9zm-13.3-.5c-1.2 0-2.1-.3-2.6-1-.6-.8-.5-1.5-.1-1.8.3-.3.8-.3 1.2-.1.2.1.4.4.4.7s-.1.5-.3.7c-.3.3-.6.2-.8.1-.2-.1-.4-.3-.3-.6 0-.2.1-.3.3-.4.2-.1.4 0 .5.1l-.1.2c-.1-.1-.2-.1-.3-.1-.1 0-.1.1-.2.2 0 .1.1.3.2.3.2.1.4.1.6-.1.1-.1.2-.3.2-.5s-.2-.5-.3-.6c-.4-.2-.7-.2-.9.1-.3.3-.4.9.1 1.6.6.7 1.5 1 2.8.9.8-.1 1.3-.4 1.7-.8.4-.4.8-1.2.7-1.7 0-.3-.2-.5-.4-.6-.2-.1-.5-.1-.7 0-.2.1-.3.3-.3.5s.1.4.2.6c.2.2.5.2.7.1.1-.1.1-.3.1-.4-.2-.1-.3-.2-.5-.1l-.1-.2c.4-.1.6.1.6.2.1.2.1.5-.1.7-.3.3-.7.2-1-.1-.2-.2-.3-.5-.3-.7 0-.3.2-.5.4-.6.3-.2.6-.2.9 0 .3.1.5.4.5.7.1.6-.3 1.4-.7 1.9-.4.4-.9.8-1.8.9-.1-.1-.2-.1-.3-.1zm6.9 0c-1.2-.2-2.1-.8-2.2-1-.5-.5-.7-1.1-.6-1.8 0-.3.2-.6.4-.8.2-.2.5-.2.8-.1.3.1.5.4.6.7s0 .7-.2.8c-.3.3-.7.2-1-.1-.1-.2-.2-.4-.1-.6s.2-.3.4-.3c.1 0 .3.1.3.2.1.1.1.2 0 .3l-.2-.1v-.1s-.1-.1-.2-.1-.2.1-.2.2v.3c.2.2.5.2.7 0 .1-.1.2-.4.2-.6s-.1-.4-.4-.5c-.3-.1-.5 0-.7.1-.2.1-.3.4-.4.6 0 .7.2 1.2.6 1.6.1.1.9.7 1.9.9.9 0 1.4-.2 1.8-.6.5-.4.8-.7 1-1.2.1-.3 0-.5-.1-.7s-.3-.3-.5-.3c-.6-.1-.8.3-.8.6 0 .1 0 .3.1.4.1.1.2.2.4.2h.1c.1 0 .2-.1.3-.3 0-.1 0-.3-.1-.3H29l.2-.2c.1-.1.3 0 .4.1.1.1.2.3.1.5-.1.4-.5.5-.6.5-.2 0-.4-.1-.5-.3-.1-.1-.2-.3-.2-.5.1-.4.4-.9 1.1-.7.3.1.5.2.6.4.1.1.2.5.1.8-.2.6-.6.9-1.1 1.3-.4.3-.9.7-1.8.7zM12 10.4l-.8-.2v-.1l.8.1v.2zm24.6-.2l-.6-.1.1-.1.6.2h-.1zm.1-.4l-.7-.4.1-.1.6.5zm-25.6 0v-.2l.5-.1v.1l-.5.2zm25.7-.2l-.5-.8.1-.1.5.8-.1.1zm-25.9-.2l-.1-.1.4-.5.1.1-.4.5zm26.2-.2l-.2-1.1h.1l.1 1.1zm-27.6 0L9 7.9l.1-.1.5 1.3-.1.1zm1.1 0v-.8h.1l-.1.8zm-.6-.1l-.3-1.3h.1l.4 1.4H10zm27.6 0l.1-1.2h.1l-.2 1.2zm.4 0l-.1-.1.4-.7.1.1-.4.7zm-23-1l-.1-.1.7-.6.1.1-.7.6zm17.5-.2l-.5-.5.2-.1.5.5-.2.1zm.7-.1l-.9-.6.1-.2.8.6v.2zm-18.7-.4l.7-.6.2.1-.9.5zm3.4 0l-1.1-.3v-.2l1.1.5zm12.5 0l.8-.3v.1l-.8.2zm3.2-.2l-1.2-.3 1.2.2v.1zM30 6.9l1-.1v.1h-1zm-15.6-.1l.8-.2v.1l-.8.1zm8.2-.2l.8-.3v.1l-.8.2zm10 0H34v.1h-1.4zM18 6.6h-1.2H18zm7.5 0l-.9-.3v-.1l.9.4zm5.5 0l-.7-.3.1-.1.6.4zm-14.2-.2l.9-.8.1.1-1 .7zm-1.7 0l-1.2-.3v-.2l1.2.5zm6.8-.2l1.2-.3V6l-1.2.2zm4.7 0L24.8 6v-.1l1.8.3zm6.1 0l1.7-.3V6l-1.7.2zm-1.6-.1l-.6-.8.1-.1.5.9zm-14.4-.2l.7-1.5.1.1-.8 1.4zm-1.6 0l-1.3-1 .1-.1 1.2 1.1zm17.7 0l1.2-.8.1.1-1.3.7zm-1.6 0l-.4-1.7h.1l.3 1.7zm-6.4-.1l1.4-.5v.1l-1.4.4zm-1.7 0l-1.6-.6v-.1l1.6.7zm-6.7-.2l.1-1.6h.1l-.2 1.6zm-1.1 0l-1.2-1.5.1-.1 1.1 1.6zm16.4-.2l.2-2.2h.1l-.3 2.2zm.9 0l.8-1.4.1.1-.9 1.3zm-16.7 0l-.2-1.9h.1l.1 1.9zm-.4 0L14.8 3h.1l.8 2.4h-.2zm9.3 0l1.4-1v.1l-1.4.9zm-1.7-.2l-1.1-1 .1-.1 1.1 1.1h-.1zm9.1 0l.6-2.1h.1l-.7 2.1zm-7.5-.3l.8-1.2.1.1-.9 1.1zm-1.4-.1l-.9-1.3.1-.1.8 1.4zm1-.2l.4-1.3.1.1-.5 1.2zm-.7-.2l-.4-1.6h.1l.3 1.6zm.5 0V2.5h.1l-.1 1.9z"/><path fill="#D6101F" d="M10.6 17.7v17.7c0 6.7 6 12.5 13.5 12.5s13.5-5.8 13.5-12.5V17.7h-27z"/><path fill="#010202" d="M24.1 48c-3.6 0-7.1-1.3-9.7-3.8-2.6-2.4-4-5.5-4-8.8V17.5h27.2v17.9c0 3.3-1.4 6.5-4 8.8-2.5 2.5-5.9 3.8-9.5 3.8zM10.7 17.8v17.6c0 6.8 6 12.3 13.3 12.3s13.3-5.5 13.3-12.3V17.8H10.7z"/><path fill="#D6101F" d="M11.4 18.2v16.9C11.4 41.5 17 47 24.1 47s12.7-5.5 12.7-11.9V18.2H11.4z"/><path fill="#010202" d="M24.1 47.2c-3.4 0-6.7-1.3-9.1-3.6s-3.7-5.3-3.7-8.4v-17h25.6v17c0 3.1-1.3 6.1-3.7 8.4-2.5 2.3-5.7 3.6-9.1 3.6zM11.5 18.4V35c0 6.5 5.6 11.7 12.6 11.7 6.9 0 12.6-5.3 12.6-11.7V18.4H11.5z"/><path fill="#F3F2F2" d="M20.5 29.7c.6-.6 1.2-1.1 1.8-1.6-.3-.4-1.1-1-1.1-1l-.6.5.6.6-.5.5-1.1-1 1.7-1.5 2.1 1.9s-1.6 1.4-2.3 2.1l-.6-.5zm-2.9-2.6c1.7-1.6 3.5-3.1 5.2-4.7-.7-.7-2.2-2-2.2-2L19 21.9l1.1 1 .6-.5-.6-.6.4-.4 1.2 1.1-1.5 1.4-2.3-2 2.6-2.3 6.1 5.5-2.6 2.3-2.1-1.9 1.5-1.4 1.1 1-.4.4-.7-.6-.5.5 1.1 1s1.1-1 1.6-1.5c-.7-.7-2.2-2-2.2-2l-5.2 4.7-.6-.5zm-2.8-2.5l2.4-2.1 2.2 2-1.7 1.5-1.2-1.1.5-.5.7.6.6-.5-1.2-1-1.8 1.6"/><path fill="#010202" d="M21.1 30.2l-.1-.1c.7-.6 2-1.8 2.3-2.1l-2-1.8-1.6 1.4 1 .9.4-.4-.6-.6.7-.6h.1s.8.7 1.1 1l.1.1-.1.1-.6.6c-.4.3-.8.7-1.2 1.1l-.1-.1c.4-.4.8-.7 1.2-1.1.2-.2.4-.4.6-.5-.3-.3-.8-.8-1-.9l-.5.4.6.6-.6.6-1.2-1.1 1.6-1.7 2.2 2-.1.1c.1 0-1.5 1.4-2.2 2.1zm-2.9-2.5l-.1-.1 5.3-4.7h.1s1.5 1.3 2.3 2l.1.1h-.2c-.5.5-1.6 1.5-1.6 1.5H24l-1.3-1.1.7-.6.7.6.3-.3-1-.9-1.4 1.3 2 1.8 2.5-2.2-6-5.4-2.5 2.2 2.1 1.9 1.4-1.3-1.1-1-.3.3.6.6-.6.6-1.3-1.1 1.7-1.6h.1s1.5 1.3 2.2 2l.1.1-.1.1c-.3.2-.6.5-.8.7-1.4 1.3-2.9 2.6-4.4 3.9l-.1-.1c1.4-1.3 2.9-2.7 4.4-3.9.3-.2.5-.5.8-.7-.6-.6-1.9-1.7-2.1-1.9l-1.5 1.4 1 .9.4-.4-.6-.6.5-.5 1.4 1.2-1.6 1.5-2.4-2.1 2.7-2.4h.1l6.2 5.6-2.7 2.4-2.2-2 1.6-1.5 1.2 1.1-.6.5-.7-.6-.4.4 1 .9c.2-.2 1-.9 1.5-1.4-.7-.6-1.9-1.7-2.1-1.9l-5.2 4.7zm-.5-1.6l-1.3-1.2.6-.6.7.6.5-.4-1-.9-1.8 1.6-.1-.2 1.9-1.7 1.3 1.1-.7.6-.7-.6-.4.4 1.1 1 1.6-1.4-2.2-1.8-2.3 2-.1-.1 2.4-2.1 2.4 2.1-1.9 1.6z"/><path fill="#F3F2F2" d="M31.6 40.4c.3-.4-.2-1-.7-.9.1-.2-.3-.4-.5-.3l-.1.1c-.8-1-.5-3.1.2-4.1.2.1.5 0 .5-.3.6.2 1-.4.7-.8.4-.2.6-.2.9-.4.6-.4.6-1 .2-1.5-.6-.6-1.7-.2-2 .6 0 0 0 .2-.1.2h-.1c-.4-.2-.9.1-.9.6-.2-.1-.4.2-.4.4-1.4.7-3.3.6-4.6-.2v-.1c.1-.2-.1-.4-.3-.5.1-.4-.3-.8-.8-.8 0-.1-.1-.3-.2-.4-.2-.1-.5 0-.5 0l-9.5-8.6-1.1.9 9.3 8.8-.1.1c-.1.2.1.4.3.4v.4c0 .4.5.6.8.5.1.4.3.5.6.5h.1c.9 1.1 1.1 2.7.4 4h-.1c-.2-.1-.5 0-.5.3-.6-.1-1 .4-.6.9-.4.2-.7.2-1 .5-1.2.9.3 2.2 1.4 1.5.3-.2.5-.6.6-.9l.2.1c.4.2.9-.2.8-.6.3.1.4-.2.4-.4v-.1c1.4-.5 3.1-.4 4.3.3-.1.2.1.5.3.4-.1.6.5.8 1 .5.2.7 1.1 1.5 1.9 1 .8-.7.5-2-.8-2.1zM28.2 38c-.3.4-.9 0-1.2-.3-.3.3-.9.7-1.2.2-.1-.3.2-.6.4-.8-.3-.2-.8-1-.3-1.1.4-.2.8.4 1.1.5.3-.3.7-.6 1.1-.4.5.3 0 .9-.4 1.1.3 0 .7.5.5.8z"/><path fill="#010202" d="M31.9 42.5c-.7 0-1.2-.6-1.4-1.1-.1.1-.3.1-.4.1-.2 0-.5-.1-.6-.3-.1-.1-.1-.2-.1-.4-.1 0-.2-.1-.3-.2-.1-.1-.1-.2 0-.3-.7-.4-1.5-.6-2.3-.6-.6 0-1.2.1-1.7.3v.3c-.1.1-.2.2-.3.2 0 .1-.1.3-.1.4-.1.2-.3.3-.5.3-.1 0-.2 0-.3-.1h-.1c-.1.3-.3.7-.6.8-.2.1-.5.2-.7.2-.5 0-1.1-.3-1.2-.8-.1-.4 0-.8.4-1.1l.6-.3c.1 0 .2-.1.3-.1-.1-.2-.1-.4 0-.6.1-.3.4-.4.7-.4 0-.1.1-.1.1-.2.1-.1.3-.2.5-.1.6-1.2.4-2.7-.4-3.8h-.1c-.2 0-.3-.1-.4-.2 0-.1-.1-.1-.1-.2-.4 0-.8-.2-.8-.6v-.2c-.1 0-.3-.1-.3-.2-.1-.1-.1-.2 0-.3l-9.6-8.6 1.3-1.1 9.5 8.6c.1 0 .2-.1.3-.1.1 0 .1 0 .2.1s.2.2.2.3c.3 0 .6.1.7.4.1.1.1.3.1.5.1 0 .3.1.3.2.1.1.1.2 0 .3.7.4 1.6.6 2.4.6.7 0 1.3-.1 1.9-.4v-.4c.1-.1.2-.2.3-.2 0-.1.1-.3.2-.4.1-.2.3-.3.6-.3.1 0 .2 0 .3.1v-.1c.2-.6.7-1 1.3-1 .3 0 .6.1.8.3.3.2.4.5.4.8 0 .2-.1.5-.5.8-.2.1-.3.2-.5.3-.1 0-.2.1-.3.1.1.2.1.4 0 .6-.1.3-.4.4-.7.4 0 .1 0 .1-.1.1-.1.1-.3.2-.5.1-.6 1-.8 2.9-.2 3.9h.2c.1 0 .3.1.4.2l.1.1c.3 0 .6.1.7.4.1.2.1.3 0 .5.7.1 1.1.5 1.2.9.1.5-.1 1-.5 1.2 0 .3-.2.3-.4.3zm-1.4-1.3c.2.5.7 1.2 1.3 1.2.2 0 .3-.1.5-.2.3-.2.5-.6.4-1s-.4-.8-1.1-.8h-.1l-.1-.1.1-.1c.1-.1.1-.3 0-.4-.1-.2-.3-.3-.6-.3h-.2v-.3c-.1-.1-.2-.1-.3-.1l-.2.1-.1-.1c-.8-1-.5-3.2.2-4.3v-.1h.4v-.3h.2c.3.1.5 0 .6-.2.1-.1.1-.3-.1-.5v-.1h.1c.2-.1.3-.1.4-.2.2-.1.3-.1.5-.2.3-.2.4-.4.4-.6 0-.2-.1-.5-.3-.7-.2-.2-.4-.3-.7-.3-.5 0-1 .3-1.1.8 0 .1 0 .2-.2.2v.4c-.1 0-.2-.1-.2-.1-.2 0-.3.1-.4.2-.1.1-.1.2-.1.3v.2h-.2c-.1 0-.2 0-.2.1v.2l.1.2h-.1c-.6.3-1.3.5-2.1.5-.9 0-1.9-.3-2.6-.7l-.1-.1.1-.1v-.2c0-.1-.1-.1-.3-.1h-.1v-.1c.1-.2 0-.3-.1-.4-.1-.2-.4-.3-.6-.3h-.1v-.1c0-.1-.1-.2-.2-.3h-.1c-.1 0-.2.1-.3.1h-.2l-9.4-8.5-1 .8 9.3 8.8-.1.2v.1c0 .1.1.1.3.2h.1v.4c0 .3.4.5.7.4h.1v.3c.1.1.2.1.3.1h.1v.1c.9 1.2 1.1 2.8.4 4.1v.1l.1-.4c-.1-.1-.2 0-.3 0h-.1v.1h-.1c-.3-.1-.5.1-.6.3s-.1.3.1.5l.1.1-.1.1c-.1.1-.3.1-.4.2-.2.1-.4.1-.5.3-.3.2-.4.5-.3.9s.6.7 1 .7c.2 0 .4-.1.6-.2.3-.2.4-.6.5-.8l.1-.1.3.1c.2.1.4 0 .6-.1.1-.1.1-.2.1-.3v-.2h.2c.1 0 .2 0 .2-.1v-.4h.1c.6-.2 1.2-.3 1.9-.3.9 0 1.8.2 2.5.6l.1.1-.4-.1v.2c0 .1.1.1.2.1h.2v.3c0 .1 0 .3.1.3.1.1.2.2.4.2.1 0 .3 0 .4-.1v-.2zm-2.6-3c-.3 0-.7-.2-.9-.4-.2.2-.6.4-.8.4-.2 0-.4-.1-.5-.3-.1-.4.2-.7.4-.8-.2-.2-.5-.6-.5-.9 0-.1.1-.2.2-.3h.2c.3 0 .5.2.7.3.1.1.2.1.2.2.2-.2.5-.4.9-.4.1 0 .2 0 .3.1.2.1.3.3.3.4 0 .3-.2.6-.5.7.3.2.4.4.5.6 0 .1 0 .2-.1.3-.1.1-.3.1-.4.1zm-.9-.7c.2.3.6.5.8.5.1 0 .2 0 .2-.1v-.2c0-.1-.1-.3-.5-.5l-.1-.1.1-.1c.2-.1.5-.4.5-.7 0-.1 0-.2-.2-.2-.1 0-.1-.1-.2-.1-.3 0-.7.3-.8.4l-.1.1h-.1c-.1-.1-.2-.1-.3-.2.1-.1-.1-.3-.3-.3h-.1c-.1 0-.1.1-.1.1 0 .2.3.7.5.8l.1.1h-.1c-.2.2-.5.4-.4.7 0 .2.1.2.3.2s.6-.1.8-.4z"/><path fill="#010202" d="M29.5 40.2c-.1 0-.1 0 0 0-1.5-.9-3.4-1-4.9-.3h-.1v-.1c1.6-.8 3.5-.6 5 .4 0-.2 0 0 0 0zm.5-.5c-1-1.5-.8-3.4.2-4.9h.1v.1c-1 1.4-1.1 3.3-.3 4.7.1-.1.1.1 0 .1.1 0 .1 0 0 0zm-6-.3s-.1 0 0 0c-.1 0-.1-.2 0 0 .7-1.6.5-3.3-.5-4.6v-.1h.1c1.1 1.3 1.2 3.1.4 4.7 0-.2 0 0 0 0zm3.3-4.6c-1 0-2-.3-2.9-.8v-.1h.1c1.5.9 3.6 1 5.2.3h.1v.1c-.8.4-1.6.5-2.5.5z"/><path fill="#010202" d="M29.3 39.4l-.2-.1c-.1 0-.2-.1-.3-.1-.1 0-.2-.1-.3-.1-.1 0-.2-.1-.3-.1-.1 0-.2 0-.3-.1-.1 0-.2 0-.3-.1h-1.8c-.1 0-.2 0-.3.1-.1 0-.2 0-.3.1-.1 0-.2.1-.3.1-.1 0-.2.1-.3.1l-.2.1.1-.2c.1-.1.1-.2.1-.3s.1-.2.1-.3.1-.2.1-.3.1-.2.1-.2c0-.1 0-.2.1-.2v-1.4c0-.1 0-.2-.1-.2 0-.1 0-.2-.1-.3 0-.1-.1-.2-.1-.3s-.1-.2-.1-.3l-.1-.3.2.1c.1 0 .2.1.3.1.1 0 .2.1.3.1.1 0 .2.1.3.1.1 0 .2 0 .3.1.1 0 .2 0 .3.1H28c.1 0 .2 0 .3-.1.1 0 .2 0 .3-.1.1 0 .2-.1.3-.1.1 0 .2-.1.3-.1l.2-.1-.1.2c-.1.1-.1.2-.1.3s-.1.2-.1.3-.1.3-.1.3l-.1.2c0 .1 0 .2-.1.2V38c0 .1 0 .2.1.2 0 .1 0 .2.1.3 0 .1.1.2.1.3s.1.2.1.3l.1.3zm-2.5-.9h1.1c.1 0 .2 0 .3.1.1 0 .2 0 .3.1.1 0 .2.1.3.1.1 0 .2.1.3.1h.1v-.1c0-.1-.1-.2-.1-.3s-.1-.2-.1-.3 0-.2-.1-.3v-1.4c0-.1 0-.2.1-.2 0-.1 0-.2.1-.3 0-.1.1-.2.1-.3s.1-.2.1-.3v-.1h-.1c-.1 0-.2.1-.3.1-.1 0-.2 0-.3.1-.1 0-.2 0-.3.1h-2.1c-.1 0-.2 0-.3-.1-.1 0-.2 0-.3-.1-.1 0-.2-.1-.3-.1-.1 0-.2-.1-.3-.1h-.1v.1c0 .1.1.2.1.3s.1.2.1.3 0 .2.1.3v1.4c0 .1 0 .2-.1.2 0 .1 0 .2-.1.3 0 .1-.1.2-.1.3s-.1.2-.1.3v.1h.1c.1 0 .2-.1.3-.1.1 0 .2-.1.3-.1.1 0 .2 0 .3-.1h1c-.1 0-.1 0 0 0zm3.6 3c-.1-.1-.1-.1-.1-.2l1.2-1.1h.1v.1l-1.2 1.2c.1 0 .1 0 0 0zm-6.9-.3l-1.1-1.1V40h.1l1 1c.1 0 .1 0 0 .2.1 0 .1 0 0 0zm6-.2s-.1 0 0 0c-.1-.1-.1-.1 0 0l1.4-1.4h.1v.1L29.5 41zm-5-.3l-1.4-1.5v-.1h.1l1.4 1.4-.1.2c.1 0 0 0 0 0zm4.6-.2c-.1 0-.1 0 0 0l1.3-1.4h.1v.1l-1.4 1.3c.1 0 .1 0 0 0zm-4.2-.3s-.1 0 0 0L23.6 39v-.1h.1l1.2 1.3c.1 0 .1 0 0 0zm5.7-5l-1.3-1.3v-.1h.1l1.2 1.4c.1-.2.1 0 0 0 .1 0 0 0 0 0zm-7.4-.2s-.1 0 0 0c-.1-.1-.1-.1-.1-.2l1.6-1.3h.1v.1L23.2 35zm7.9 0s-.1 0 0 0l-1.4-1.5v-.1h.1l1.4 1.4c0 .1 0 .1-.1.2zm-8.4-.3c-.1-.1-.1-.1-.1-.2l1.7-1.4h.1v.1l-1.7 1.5c.1 0 .1 0 0 0zm9.1-.5s-.1 0 0 0L30.6 33v-.1h.1l1.1 1.3c.1-.2.1 0 0 0zm-9.9-.3c-.1-.1-.1-.1-.1-.2l1.7-1.4h.1v.1l-1.7 1.5c.1 0 .1 0 0 0zm-.3-.5s0-.2 0 0c-.1-.1-.1-.1-.1-.2l1.4-1.2h.1l-1.4 1.4c.1 0 .1 0 0 0z"/></svg>