<svg version="1.2" baseProfile="tiny" xmlns="http://www.w3.org/2000/svg" width="48" height="48"><path d="M24 47.8c-10.9 0-19.8-8.3-19.8-18.5V.3h39.7v29c-.1 10.2-9 18.5-19.9 18.5zM4.7 29.2c0 9.9 8.7 18 19.3 18 10.6 0 19.3-8.1 19.3-18V.8H4.7v28.4z"/><path fill="#2A57C6" d="M26.7 3.5c-.1 0-.3 0-.3-.1s-.2 0-.2-.1c-.1-.1-.2-.1-.2-.3.2.2.4.2.6.1l.1-.1c.2-.3 0-.9-.4-1-.2 0-.4 0-.6.2 0-.2-.2-.4-.3-.4-.4-.1-.8-.1-.9.2-.2.3-.1.7.2.9-.2.2-.5.4-.4.7.1.3.6.4.9.2.2-.1.2-.4.2-.6.1.2.2.4.3.5.1.3.1.5.3.6-.2 0-.3.2-.2.3 0 .1.1.1.2.1-.1.1-.1.2-.1.3.5-.1 1-.3 1.5-.3 1 0 2 .1 3 .3.1.1.2.2.3.1.2 0 .3-.2.3-.4-.1 0-.1 0 0-.1.1-.2-.1-.4-.3-.4l.1-.1c.2-.2.4-.5.6-.7 0 .3.4.6.7.5.3-.2.4-.6.2-.9-.2.1-.2.1-.3 0 .3-.2.4-.7.1-.9-.2-.2-.6-.3-.8 0-.1.1-.1.3-.1.4l-.3-.3c-.2-.1-.4-.1-.6.1-.2.2-.2.5 0 .7.1.2.4.4.7.3-.1.2-.3.2-.4.3-.3.1-.6.2-.9.1-.3 0-.6-.1-.8-.4-.1-.2-.1-.4-.1-.5.2.3.7.3.9.1.2-.2.2-.6 0-.7-.2-.1-.5-.1-.7 0-.1.1 0 0 0-.1.1-.1.2-.3 0-.4-.2-.2-.4-.4-.7-.4-.3 0-.6.3-.5.6 0 .1.1.1.1.2-.3-.1-.5-.2-.8-.1-.3.1-.4.5-.3.7 0 .1.1.2.2.3l.4.1c.2 0 .3-.1.3-.3.1.3-.1.7-.4.8l-.6-.1z"/><path d="M15.1 32.7c-.1.1-.2.2-.1.4 0 .2.2.3.4.5.1.1.2.2.4.2h.5v.1c-.3-.1-.6-.1-.8 0-.3.1-.5-.1-.7-.2-.1-.1-.5 0-.7 0-.3.6-1.5.7 0 2.2.2 0 .5-.1.7 0 .2 0 .5.1.6 0l.3-.3c.1 0 .3 0 .3.1-.3 0-.4.2-.7.5-.1.1-.1.3-.1.4-.1.2-.1.3-.2.5-.1.1 0 .2.1.3 0 .1.2.2.2.3 0 .3 1.2.5 1.5.1.3-.3.3-1 .3-1.2 0-.2.3-.2.4-.3.8-1 1.2-1.9 1.1-2.6l-.3-.2c-.2-.1-.2-.4-.3-.4-.1-.1-.3-.2-.4-.2-.1 0-.3-.1-.4-.2-.2-.5-.3-.7-.5-.7-.1-.1-.3-.1-.4 0-.6 0-.9.3-1.2.7z"/><path fill="#ED1B24" d="M16.3 32.6c.1-.1.2-.3.1-.4 0 0 .1-.1.2 0s.2.2.3.4c.1.1.2.1.2.2.2.1.5.1.7.2.1.1.2.3.3.4.1.1.3.2.4.3-.3 1.3-1 3-1.9 3.9 0 0-.1.1-.2 0v-.3c.4-.2-.4-.4-.5-.5-.1 0-.2.1-.3.2-.1.1-.1.1-.1.2-.1 0-.2 0-.2-.3.1-.1.1-.3.2-.4.1-.1.2-.3.2-.4 0-.1.1-.2.2-.2.2 0 .5-.2.6-.5-.2-.1-.3-.1-.4-.2-.1 0-.2-.1-.3-.1-.1 0-.2.1-.3.2 0 .1-.1.2-.1.4 0 .1-.1.1-.2.1-.2-.1-.5 0-.7-.1l-.3-.3c.1 0 .1-.1.2-.1l.1.1c.1 0 .3-.1.2-.2-.1-.2-.1-.8-.3-1.1 0-.1.1-.1.2-.1.1.1.3.1.4.1.2.1.4.1.6.1.2 0 .4-.1.7.1.2.1.4.1.6.2v-.4s.1 0 .1-.1.1-.1.2-.1c0-.1-.1-.2-.2-.2h-.4c-.1 0-.3.1-.4.1-.1 0-.3-.1-.4-.1-.1 0-.1-.1-.2-.2s-.1-.2-.1-.2c0-.1.1-.1.2-.2s.3 0 .4 0c0-.4 0-.3.2-.5z"/><path fill="#2A57C6" d="M13.4 3.1c1 0 1.8.9 1.8 2.1s-.8 2.1-1.8 2.1-1.8-1-1.8-2.1.8-2.1 1.8-2.1zm0-1.3c-1.6 0-3 1.5-3 3.4s1.3 3.4 3 3.4c1.6 0 3-1.5 3-3.4s-1.3-3.4-3-3.4z"/><path d="M13.4 8.7c-1.7 0-3.1-1.6-3.1-3.5s1.4-3.5 3.1-3.5c1.7 0 3.1 1.6 3.1 3.5s-1.4 3.5-3.1 3.5zm0-6.8c-1.5 0-2.8 1.5-2.8 3.3s1.3 3.3 2.8 3.3c1.6 0 2.9-1.5 2.9-3.3S15 1.9 13.4 1.9zm0 5.5c-1.1 0-1.9-1-1.9-2.2S12.4 3 13.4 3c1.1 0 1.9 1 1.9 2.2s-.8 2.2-1.9 2.2zm0-4.2c-.9 0-1.7.9-1.7 2s.8 2 1.7 2c.9 0 1.7-.9 1.7-2s-.7-2-1.7-2z"/><path fill="#2A57C6" d="M14.1 9.8L14 8.2h-1.6l-.3 1.5s-.1 19.2-.2 28.8c0 .3-.1.1-.3 0-2.1-2.4-3-5.9-4.1-9.1l1.2 3.5s.8-1 1-1.2c.5-.5.3-.7.2-1.1-.1-.4-2.5-4.6-2.7-4.7-.2-.2-.6-.4-.8-.3-.9.2-1.1 4.9-1.3 5.7 0 .5.1.8.5 1.2.5.4 1.2.6 1.2.6.8 2.2 2.1 5.6 4.2 7.9.2.2 1.7 2.1 1.9 2 5.7-3 7.7-8.3 7.1-14.7.3 3.3 0 4.1 0 4.6 0 .1 1.7-1 1.9-1.3.3-.4 0-1.2-.3-2.3-.2-1.1-.9-2.7-1-3-.2-.3-.6-.7-.8-.6-.9.4-2.2 3.7-2.8 5.6 0 .1-.1.4.2.5.1 0 1.8.8 1.8.8l-.3-.2c0 1.5-.7 2.8-1.4 4.1-.7 1.1-1.6 2.7-3.1 2.8 0-9.8-.1-29.5-.1-29.5z"/><path d="M13 43.2c-.1 0-.4-.2-1.6-1.7-.2-.2-.3-.3-.3-.4-1.5-1.7-2.9-4.3-4.2-7.9-.2-.1-.7-.3-1.1-.6-.5-.4-.7-.7-.6-1.3 0-.1 0-.4.1-.8.1-.8.2-2 .4-3 .3-1.7.6-2 .9-2 .3-.1.8.1.9.4 0 0 .1.2.5.7.2.4.6 1 .9 1.5.6 1 1.3 2.3 1.3 2.5v.1c.1.3.2.6-.2 1.1-.2.2-1 1.2-1 1.2.7 2 1.5 4 2.9 5.5 0 0 .1 0 .1.1-.1-9.6 0-28.7 0-28.9l.3-1.5c0-.1.1-.1.1-.1H14c.1 0 .1 0 .1.1l.1 1.6c0 .2.1 19.7.1 29.5 1.2-.2 2-1.4 2.7-2.4.1-.1.1-.2.2-.3.1-.1.1-.2.2-.4.6-1.2 1.2-2.3 1.2-3.6-.6-.3-1.3-.6-1.4-.6-.3-.1-.3-.4-.2-.6.2-.6.7-2 1.3-3.4.6-1.3 1.1-2.1 1.6-2.3.3-.1.8.3 1 .6.2.4.8 2 1 3.1.1.3.1.6.2.8.2.7.3 1.2.1 1.6-.2.2-.7.6-1 .8-.2.1-.4.3-.6.4-.1.1-.2.1-.3.1-.8 4.5-3.2 8-7.3 10.1.1 0 0 0 0 0zM11.2 41l.4.4c.4.4 1.2 1.4 1.5 1.6 2.7-1.4 4.7-3.4 5.8-6 1-2.1 1.4-4.6 1.2-7.4 0-.4-.1-.7-.1-1.2 0-.1 0-.1.1-.1s.1 0 .1.1c0 .4.1.8.1 1.2.1 2 0 2.8-.1 3.2.4-.2 1.5-1 1.7-1.2.2-.3.1-.7-.1-1.4-.1-.2-.1-.5-.2-.8-.2-1.1-.8-2.7-1-3-.1-.3-.6-.6-.7-.5-.5.2-1 1.3-1.4 2.2-.6 1.4-1.1 2.8-1.3 3.4 0 .1-.1.3.1.3.1 0 .8.4 1.4.7h.1l.3.2c.1 0 .1.1 0 .1 0 .1-.1.1-.1 0-.1 0-.1-.1-.2-.1 0 1.3-.6 2.4-1.2 3.6-.1.1-.1.2-.2.4-.1.1-.1.2-.2.3-.7 1.1-1.5 2.4-3 2.5h-.1v-.1c0-9.5-.1-28.5-.1-29.6l-.1-1.5h-1.4l-.2 1.5c0 .5-.1 19.4-.2 28.8 0 .1 0 .2-.1.2s-.2 0-.2-.1h-.1c-1.8-2-2.7-4.8-3.6-7.6-.2-.5-.3-1-.5-1.6 0-.1 0-.1.1-.1s.1 0 .1.1l1.1 3.3c.2-.3.8-.9.9-1 .4-.4.3-.6.2-.8v-.1c-.1-.4-2.4-4.4-2.6-4.7-.1-.2-.5-.4-.7-.3-.1 0-.4.3-.7 1.9-.2 1-.3 2.2-.4 3 0 .3-.1.6-.1.8 0 .4 0 .7.5 1.1.5.4 1.1.6 1.1.6s.1 0 .1.1c1.1 3.3 2.5 5.9 4 7.6zM7.3 26z"/><path d="M13.7 39.8c-.1 0-.2 0-.2-.1V8.3c0-.1 0-.1.1-.1s.1 0 .1.1v31.2c.1 0 .2 0 .5-.1.2-.1.5-.2.5-.2h.1s.1.1 0 .2c0 0-.7.4-1.1.4zm1-.6zm0 0z"/><path fill="#2A57C6" d="M19.3 11.6c.4-.1.6-.3.6-.7V9.7H6.2v1.1c0 .3.2.7.8.7l12.3.1z"/><path d="M19.3 11.8H7c-.7-.1-.9-.6-.9-.9V9.8c0-.1 0-.1.1-.1H20V11c.1.4-.2.6-.7.8zM7 11.5h12.3c.2-.1.5-.2.5-.6v-1H6.3v1c0 .4.4.6.7.6z"/><path fill="#ED1B24" d="M38 2.1c-1.6.6-1.2 3.3-1.6 2.9-.3-.9.4-3.5-.5-1.2-.3.7.3 3.8-.5 1.8-.3-1 .1-3.1-.5-.9-.5 1.1 1.9 4.7-.5 1.9-.1.9.4 1.5 1.3 2.4.5.5.2 1.4.4 2 .2 1.8 1.1 3.4 1.9 5-.7.9-1.4 4.3-2 2.1-.4-.8-.7-3.6-1.6-3.4 1.3 2.3.6 6.5 2.6 8.1 1.5 1.8 2.6 4.4-.2 3.6-1.2-1-1.9-2.3-3.1-3.4-.8-1.4-2.7-3.2-3.1-4.1.9-.1 1.5-.1 1.3-1.1-1.8 1.8-1.9-2.6-.6-1.9 2.8.4-1.7-.7.6-2.4.1-.3-.4-1.2.1-1.5.2-.1.4.1.7-.1-.7-.6-1-3-1.1-4.2.3.2.6.4.7.3-1-1.3-.3-2.9-1.6-2.8-.3-.1-4.9-1.2-5.6.5-2.2-.3-1.6 3.4.4 2.5 1.8-.1 1.5-.8 2.7 2.3.3.6-3.7-.4-2.7 1.6 1.1-.1.2 1.3-.8.3-1.5.1-2.9 1.2-3.3-.8-.9 1.4 1.7 2-.1 2.3-3.8-1.5-2.2-1.9-3.9-2.2h-3.1c-.4.3.1 1 .2 2.3.3.5.6-.1.7.2.3.6.1 1.8-.5 2.1 1 .9 1.7-2.2 1.7-.6.3 1.3.1 1.7-.8 2.3-.2.1-.1-.5-.3-.6-1 2 3.1 1.4 1.3 2.9-1.5.1-1.8 1-2.6 1-.6 0-.8-.8-1.4-.8-.4-1.4-1.8-1.1-1.4.3-1.3 1.1 1.5.6.2 1.5-1-.4-2.4.1-1.1 1-1 1.2.4 1.7 1.2.3 1.6-.3-1.6 1.3.5 1.3-.3 1.6 1.5.9.9-.3.7-.5.8-.5 1.2-.5-.3.5.5 1.6 1.1.4 1.5.9.4-1.3 1.6-1.1.8.5.8.3 1.3 1.1.6-.4-.9-1.5-.7-1.4.6.3 2.1.1 2.9.9.4-.8-1.6-1.4 0-1.2.7 0 2.6 1.5 1.3-.3-1.2-1.1 2.8 1.3 3.3.1-.8.3-2.2-1.1-.9-1 1.6 1 3.5 1.4 5.3 2.1 1.6.7 1.7 2.1-.1 2.3-2.4 1.8-3.5.9-4.1 1.4-.9.8-2.2 1.6-3.1 1.2-.1 1.5 1.8-.2 1.6 1.3.2 2.3-1 3.6-3.5 3.5L19 37.1c1.4-.7.1.8.9.7 1.6-2.8.6.7 1.8.9.1 0-.5-.5-.2-1.2.8-1 1.2-.7 1.1.4-.4 1 1.8 2.4 2 1.2-2.3-.1.3-3 .7-1.3 1.6 1.9-.3-1.4 1-1.8.9-1.4-.3-2 2-4.4.6-.7 3.5-2.9 3-2.3-.9 1.8-.4 4.9-2 6 1.9.4 1.9-3 3-1.3.7 1 .8 4.2-.5 4.2-.7-.4-2.1-1.6-1.9-.1-.5-.1-.7.9-.2 1.1.5.2 1.3-.1 1.7 0-.9 1.4-1.4.2-2.4 1-.2.1-.8.1.6.5.1.7-2.3 1.2-.1 1.5 1.1.3.4-.8 2-.8.7-.5 1.3-.9.9.3-.9 1.5-.4 1.3.4 1.3-.3 1.6 2.4.3.8-1 1-.5 1.2-2.7 2.1-1.2 2.4.5 1.3-2.6-.6-1.9 1-.6.9-.6 1.5-.5.1-.8 0-1.2 0-1.3.4.6 1.5 1.1 2.1.9-.9-.2-.9-.7-1.4-1.1-1.1-1.4 3 1.1 3.4-1.1-.4.1-1.8 1.2-3-.8 1.2.8 4.4-.4 3.7-1.8-.4 1.2-1.2 1.4-2.4 1.2-1.1-.2-2.5-.8-3-1.6-1-2.1 0-3 .5-5.3 1.9.8 3.7-.5 3.7-2.7.2-2 .9-3.8 1.7-5.6.4-2.8 1.1-4.8 1-5.4-1.2 1.4-1.4 3.6-1.8 5.3-.6-.6-1.3-1.9-1.9-3.2.1-.2.2-.6.4-1 .5-2 1.2-4 .9-6 .7-.3 2.5-1.7 1.6-3.1-.6 2-1.2 1.6-.6.4.4-1 .1-3.9-.2-1-1.3 2.5.7-1.8-.9-2.5.1.7.4 2.5-.4 3 0-.7 0-3.1-1.2-3.5.2.7.2 3.3-.2 5.4 1.5 2.5.9 3.9.4 5.8-.3.6-.4 1.2-.5 1.8-.2-.5-.5-.9-.8-1.3-.7-1.9-1.7-4.4-.2-6.2.6-1.8-.3-3.8.5-5.6zm-10.5 4c1.3.1 1.2.9 0 .7-1.1 0-1-.7 0-.7zM17.3 16.3c.1.8-.1 1 .5 1.1-.1.6-.3.8-.6 1.1-.3.1-1.5.1-1-.3.9-.1 1.1-1.1 1.1-1.9zm21.2.8c.7 1.4 1.3 2.8 1.3 4.3.2 1.4-1.4 2.6-1.9.7-1.1-1.3.5-3.5.6-5z"/><path d="M28.3 1.1c-.3 0-.6.2-.7.4-.1.1 0 .2 0 .4-.2 0-.4-.1-.6 0-.2.1-.3.2-.4.3 0-.1-.2-.2-.3-.2-.2 0-.4 0-.5-.1-.1 0-.2-.2-.4-.2-.2-.1-.5-.1-.7 0-.2.1-.3.3-.4.5-.1.2.1.4.1.6 0 .2-.2.3-.2.5s.1.5.3.6c.1.1.3.1.4.1.2 0 .4-.1.6-.2.1.1.2.3.3.4 0 .1-.1.2-.1.3.1.1.1.2.1.3-.1.2-.3.3-.5.5-.1.1-.1.2-.2.2l-.9.3c-.2 0-.3.2-.4.3-.1.1 0 .2 0 .4s-.1.4-.2.6v.5c.1.2.2.3.3.4.2.2.2.4.3.7 0 .2.2.4.4.4.1-.1.2-.3.3-.3.1 0 .1.1.2.1.1.2.4.3.6.3.1-.1.3-.4.5-.5.2 0 .3.1.5.2 0-.1.1-.2.3-.1.3 0 .3.3.3.5-.3-.1-.7-.1-1-.1-.3 0-.6.1-.9.2-.4.1-.8.1-1.1.1-.3 0-.5 0-.8-.1-.2-.1-.5-.2-.7-.4-.2-.1-.4-.3-.6-.4-.1-.1-.3-.3-.5-.3s-.4 0-.5.1c-.2.2-.2.5 0 .7.4.4.9.7 1.4.8.4.1.9.1 1.3.1s.8-.1 1.3-.1c.4-.1.8-.1 1.3-.1.2 0 .4.1.6.1.1 0 .1.1.1.1-.1.1-.2.3-.3.4 0-.1-.1-.2-.2-.3-.1-.1-.2-.1-.4-.1-.2.1-.3.3-.4.4-.1-.1-.2-.2-.2-.3-.2.2-.2.4-.3.6-.1.1 0 .2-.1.3 0 .1-.1.2-.1.3v.5c.1.2.2.3.4.3h.3c-.2.3-.6.3-.9.2-.2-.1-.3-.2-.5-.3-.2-.1-.5 0-.7.1-.3.1-.6.3-.9.3-.4.1-.8 0-1-.2-.2-.1-.2-.4-.3-.5-.1-.1 0-.3 0-.5-.1 0-.3 0-.4.1-.2.2-.2.5-.1.7.1.2.1.4.2.6.1.2.3.3.4.5-.1.2-.3.2-.5.3-.1 0-.2-.1-.3-.1-.3-.2-.7-.3-1-.5-.2-.1-.4-.1-.6-.2-.1-.1-.3-.1-.4-.2-.2-.1-.2-.3-.3-.4-.2-.2-.4-.4-.6-.7h-4.2v.9c0 .3.1.6.3.8 0 .2.1.4.1.6h-.1c0 .2.2.3.3.4.1.1.2.1.4.1 0-.1.1-.2.1-.3 0 .2 0 .4.1.6 0 .1.1.3 0 .4-.1.3-.1.6-.3.9-.1.1-.3.1-.4.1.1.1.1.3.3.4.3.1.6 0 .8-.1.2-.1.4-.3.6-.4.1.2.1.4.1.6v.7c0 .1-.1.2-.2.3-.2.1-.3.3-.5.5-.1-.1-.1-.2-.1-.3 0-.2-.1-.3-.1-.5l-.3.3c0 .2-.1.3 0 .5v.3c.2.1.2.3.4.4l.3.3c.1.1.2.1.4.2.3.1.6.3.9.4-.2.2-.4.4-.6.5-.2.1-.5.2-.8.3-.3.1-.5.3-.8.3-.2 0-.5.2-.7.3-.1.1-.1.2-.1.2h-.2c0-.1-.1-.2-.2-.3-.1-.1-.2-.1-.3-.1 0-.1-.1-.2-.1-.3-.1-.1-.2-.1-.3-.2-.1-.2-.2-.4-.3-.5-.3-.3-.7-.4-1.1-.3l-.3.3-.4 1.3c0 .2 0 .5.1.7.2.2.5.2.8.2 0 .1-.1.1-.1.1H11c-.2-.1-.4-.1-.6-.1-.1 0-.2.1-.4.2l-.6.6.4 1.3c0 .1 0 .2.1.2.1.1.3.1.5.2.1 0 .2.1.3.1.1 0 .3-.1.4-.1.2-.1.2-.4.3-.6 0-.1.2-.1.3-.1 0 .1.1.3-.1.3-.2.1-.3.3-.3.5 0 .1 0 .2.1.3l.8 1c.3 0 .6.1.8-.2.2-.3.2-.7.1-1.1.2-.1.4-.3.6-.4.1 0 .2-.1.3 0 .1.3.1.6.3.9.1.1.2.1.3.1.2-.1.5-.2.7-.3.1 0 .1-.1.2 0s.2.1.2.2c.1 0 .2-.1.3-.1.1 0 .1-.2.2-.2.1-.2.2-.4.2-.6 0-.1.1-.2.2-.3h.3l.6.3c.1.1.2.1.3.3.1.2.1.3.2.5h.2c.1-.1.2-.2.2-.4 0-.3-.1-.5-.3-.7h1.3c.2 0 .4.1.5.2.1.1.3.3.4.5h.1c.1-.1.2-.3.2-.5s-.2-.4-.3-.6c.3 0 .7-.1.9.1.2.1.4.1.6.3.1.1.1.3.2.4h.1c.1-.2.1-.4.1-.7 0-.1 0-.2-.1-.3l-.4-.4c.3.1.7.2 1 .3.3.1.6.1.8.2.2 0 .3.1.5.1s.5 0 .7-.2c.2-.1.3-.2.5-.4h-.4c-.2 0-.4 0-.6-.1-.2-.1-.3-.2-.4-.4-.1-.2 0-.3 0-.5.2.2.4.4.7.4.2.1.4.1.6.3.1.1.2.2.4.3.2.1.4.2.6.2l.9.3c.2 0 .3.2.4.2.1 0 .3.1.4.1.2 0 .3.1.4.1.2.1.3 0 .5.1s.5.2.7.4l.4.4c.1.1.3.2.5.3.1.1.1.2 0 .4l-.3.3c-.2.2-.4.3-.6.4-.3.2-.6.2-.9.4l-.6.3c-.2.1-.4.3-.6.4-.3.1-.6.2-.8.2-.3 0-.5-.1-.7-.1-.3.1-.6.2-.8.4-.2.1-.3.3-.6.5-.2.1-.3.3-.5.4-.2.1-.5.2-.8.4-.5.1-.6.1-1.1-.1-.1.4 0 .5.1.7.1.2.7.3.9.3.2 0 .3 0 .5-.1-.1.3 0 .6 0 1 0 .2.1.3.1.5s-.1.3-.2.5c-.1.3-.2.6-.3.8-.1.2-.2.3-.4.4-.1.1-.3.2-.4.2-.1.1-.3.1-.4.2-.2.1-.4.1-.6.1-.4.1-.7.2-1.1 0-.3 1.3-.7 2.7-1.2 3.8.2-.1.4-.1.6 0v.5c.1.2.2.3.3.4.1.1.2.2.4.1v-.3c-.1-.2 0-.4.1-.5.1-.2.3-.2.4-.3.1-.1.2 0 .3.1.1.3-.1.7 0 1 .1.2.2.5.4.6.3.1.6.1.9 0-.2-.1-.5-.2-.6-.4-.1-.2 0-.4.1-.6.1-.2.2-.2.4-.3.1-.1.3-.1.4-.1 0 .3-.1.7 0 1 .2.5.7 1 1.3 1.3.2.1.5.1.8 0 .2-.1.3-.4.3-.5-.1 0-.3.1-.4.1-.2 0-.4-.1-.5-.2-.1-.1-.1-.2-.1-.4v-.4l.3-.3c.2-.1.3-.2.5-.3.1-.1.1 0 .2-.1 0 .2.1.3.2.4.1.2.3.4.5.5.2.1.3.2.5.2.1-.1 0-.2 0-.4s-.2-.4-.2-.6v-.5c0-.2.2-.5.3-.6.2-.2.4-.5.6-.7.1-.1.2-.3.2-.4.1-.3 0-.5 0-.8 0-.3-.1-.6-.1-.9 0-.2.2-.3.2-.5.2-.3.5-.5.7-.7.1-.2.3-.2.4-.4.1-.1.2-.2.3-.4l.7-.7c.1-.1.2-.1.3-.2.2-.2.5-.4.8-.5.1.1 0 .3-.1.4-.1.3-.1.5-.1.8 0 .2-.1.4 0 .6v.8c0 .2-.1.4-.1.6 0 .2-.1.4-.1.5-.2.4-.4.9-.8 1.2-.1.1-.3.1-.4.3.1.1.3.1.5.1h.4c.1-.1.2-.1.3-.2.1-.1.3-.1.4-.2.1-.1.2-.2.3-.2.2-.1.3-.3.5-.5.1-.1.2-.4.4-.4.2-.1.4.1.5.2.3.5.5 1.1.4 1.7-.1.4 0 .8-.1 1.1-.1.2 0 .5-.1.7 0 .1-.1.2-.2.2-.2.1-.5.1-.6-.1-.2-.1-.2-.3-.3-.4-.2-.1-.5-.2-.7-.2-.3-.1-.6 0-.8.2l-.2.9c-.2.1-.3.3-.4.4l.3.3c.1.1.2.3.4.3s.4.1.6-.1c.1-.1.3-.1.4-.1.1 0 .2.1.1.2 0 .2-.1.2-.2.3-.1.1-.3.1-.4.1-.1 0-.3-.1-.4-.1-.2 0-.4.2-.5.3-.2.1-.4.1-.6.2-.1.1-.2.1-.2.2s0 .1.1.2v1.5c.1.1.3.2.5.2.4.1.7.2 1.1.1.1 0 .2-.1.2-.2.1-.2.3-.5.5-.6.2 0 .4-.1.6-.1.2 0 .3-.1.4-.2h.4v.3c-.1.1-.2.2-.3.4 0 .1 0 .3-.1.4 0 .1-.1.3-.2.4l.8.9c.1.1.2.2.4.2.4 0 .7-.1 1-.3.1-.1.1-.2.2-.2.1-.1.2-.3.2-.4s-.1-.3-.1-.4c-.1-.1-.2-.2-.4-.3 0-.1 0-.1.1-.1.1-.1.2-.3.3-.4.1-.2.2-.4.4-.5l.3-.3c.1-.1.3-.2.4-.2.2.2.4.4.7.4h.5c.2-.1.3-.1.4-.2.2-.1.3-.4.4-.6.1-.2-.1-.4 0-.5l-.9-.9c-.1.1-.2 0-.3-.1-.2-.1-.4 0-.6 0 .1-.1.1-.3.3-.3.2-.1.4.1.6.1.2 0 .3.1.4.1-.1-.2-.4-.3-.4-.5-.1-.2 0-.4.1-.6.1 0 .2.1.3.1.1.1.3.2.4.3.2.1.5.2.8.2.2 0 .4-.1.7-.2.1 0 .2-.1.1-.2-.1 0-.3 0-.4.1-.4 0-.8-.2-1-.6-.1-.2-.2-.4-.2-.6.2.1.5.2.7.2.3.1.7.1 1 .1.3-.1.7-.2 1-.4.2-.1.5-.3.6-.5.1-.2 0-.4 0-.6-.1 0-.2 0-.2.1-.2.2-.5.4-.8.4H39c-.2 0-.4-.1-.5-.2-.2-.1-.4-.3-.6-.5h.3c.4.1.8.1 1.1 0 .2-.1.5-.2.7-.2.2-.1.5-.2.7-.3l.3-.3c.2-.2.3-.5.4-.8v-.2c-.1-.1-.1-.3-.3-.3-.1.3-.1.5-.3.7-.1.1-.2.2-.3.4-.3.2-.7.3-1 .4-.1 0-.1 0-.2-.1-.2 0-.4-.1-.5-.1-.2-.1-.5-.1-.8-.1-.2 0-.5-.1-.7-.2-.2-.1-.4-.1-.6-.3l-.3-.3c-.1-.2-.1-.3-.2-.5-.1-.1-.1-.3-.2-.4-.1-.1-.1-.3-.2-.5s-.2-.4-.2-.6c0-.3 0-.5.1-.8.1-.1.1-.3.2-.5s.1-.3.1-.5c.1-.2.1-.4.2-.5.1-.2.1-.5.2-.7 0-.2.2-.3.3-.4.5-.1.9.1 1.3-.1.2-.1.4-.1.5-.2.2-.1.4-.2.5-.3.2-.2.4-.4.5-.6.1-.2.2-.4.3-.7.1-.3.1-.7.2-1 .1-.2 0-.4.1-.6.1-.3.1-.5.2-.8.1-.5.2-.9.3-1.4.1-.3.2-.6.3-.8.1-.2.1-.4.2-.5.1-.2.2-.3.2-.4.2-.3.3-.7.4-1 .1-.3.1-.7.2-1 .1-.4.2-.9.2-1.3 0-.3.1-.6.1-.9 0-.2.1-.3.1-.5s0-.4.1-.6c.1-.3.2-.5.2-.8.1-.3.1-.6.2-.9v-.2c-.3.2-.6.4-.7.7-.3.4-.3.9-.5 1.4-.1.2-.2.4-.2.5-.1.2-.1.5-.2.7-.1.3-.1.6-.1.9-.1.3-.1.7-.2 1 0 .1 0 .1-.1.2 0 0-.1-.1-.1-.2-.1-.3-.3-.6-.4-1-.2-.5-.5-.9-.7-1.4-.1-.1-.2-.3-.2-.4 0-.2.1-.4.1-.6.1-.4.2-.7.3-1.1.1-.2.1-.4.2-.6.1-.3.2-.7.3-1 .1-.3.1-.6.1-.9.1-.4.1-.8.2-1.2 0-.2.1-.5.1-.8 0-.4.1-.7.3-1 .1-.2.2-.3.4-.4.2-.1.4-.3.5-.5.2-.2.3-.4.3-.7v-.9c0-.2-.1-.5-.3-.6-.1.3-.1.7-.2 1-.1.2-.2.4-.4.5l.3-.6c.1-.3.1-.6.2-1v-.9c0-.4-.2-.8-.5-1 0 .2-.1.3 0 .5 0 .2-.1.5-.1.7 0 .3-.1.6-.4.9 0-.2.1-.3.1-.4.1-.3.1-.6.1-.9.1-.3 0-.6 0-.9 0-.2-.1-.4-.2-.6-.1-.2-.3-.3-.4-.4-.1-.1-.2-.1-.4-.2.1.2.2.5.2.7.1.4 0 .7 0 1.1 0 .3-.1.7-.2 1h-.1c.1-.3.1-.5.1-.8 0-.3 0-.6-.1-.9 0-.2-.1-.3-.2-.5-.2-.4-.4-.7-.8-1 .1-.1-.1-.2-.2-.2.1.3.1.5.2.8 0 .4 0 .8.1 1.1.1.3.1.6.1 1 0 .2-.1.5-.1.7-.1.2-.1.5-.1.7-.1.4-.1.8-.1 1.2 0 .3.1.6.3.9-.1.2 0 .5.2.7.1.2.2.4.2.6v1.7c-.1.3 0 .7-.1 1-.1.3-.1.6-.2.9-.1.3-.2.7-.3 1-.1.2-.2.3-.2.5-.1 0-.1-.1-.1-.2-.1-.3-.4-.5-.5-.8-.2-.4-.4-.9-.5-1.4-.1-.4-.2-.9-.3-1.3 0-.2-.1-.5-.1-.7 0-.2-.1-.4 0-.7 0-.2-.1-.4 0-.6.1-.2.3-.3.4-.5.3-.4.4-.9.5-1.4.1-.5.1-1 0-1.6 0-.2 0-.4-.1-.6-.1-.2-.1-.5-.1-.7 0-.2 0-.4-.1-.6 0-.6.3-1.1.4-1.7-.3 0-.5.3-.7.5-.2.2-.4.4-.5.7-.1.2-.1.3-.2.5-.2.4-.1.8-.2 1.2-.1-.5-.1-1-.1-1.5.1-.4.2-.7.4-1-.2 0-.3.2-.5.4-.4.3-.6.6-.7.9-.1.3-.2.7-.2 1 0 .2-.1.4 0 .6.1.2.1.4.1.7-.2-.3-.2-.7-.3-1-.1-.2 0-.4 0-.6 0-.3.1-.5.1-.8-.3.1-.4.4-.5.7-.1.2-.2.5-.2.8-.1.2-.1.4-.1.6 0 .2.1.4.1.6.1.2.2.4.3.7.1.2.2.4.2.7-.2-.2-.4-.3-.5-.6-.1-.1-.1-.3-.1-.4-.1-.1-.1-.2-.2-.3-.2.2-.1.5-.1.7 0 .4.1.7.3 1 .1.2.2.4.4.5.2.2.4.3.5.5.1 0 .1.1.1.2.1.3.1.7.2 1 .1.5.1.9.2 1.4.1.5.2.9.4 1.4.1.2.1.4.2.6.2.6.5 1.2.8 1.7.1.3.2.5.4.8.1.2 0 .4-.1.5-.2.3-.3.6-.5.9l-.3.6-.3.9c-.1-.1-.1-.3-.2-.4-.1-.2-.2-.5-.2-.7-.2-.6-.4-1.3-.7-1.9-.1-.1-.2-.3-.2-.5-.1-.2-.2-.3-.3-.4-.1-.1-.2-.3-.3-.3-.2-.1-.4-.2-.6-.2l.3.3c.3.3.5.7.5 1.1.1.3.2.5.2.8.1.2.1.5.2.7.1.3.1.7.1 1 0 .4 0 .8.1 1.2 0 .2.1.4.1.6.1.4.1.7.3 1 .1.3.2.6.4.9.1.2.2.3.3.4.1.1.1.2.2.2.1.1.2.3.3.4.1.1.2.3.3.4.2.3.5.6.7.9.1.2.1.3.2.5.1.3.1.6-.1.9-.1.2-.2.3-.3.3-.1.1-.3 0-.4 0s-.3 0-.4-.1c-.2-.1-.3-.2-.4-.3-.4-.3-.6-.7-.8-1.1-.1-.2-.3-.3-.4-.5-.1-.2-.4-.3-.5-.5-.2-.2-.4-.5-.6-.7-.2-.2-.3-.5-.5-.7-.2-.3-.4-.5-.6-.8-.1-.2-.3-.4-.5-.6-.2-.3-.4-.5-.6-.8-.2-.3-.5-.5-.7-.7-.5-.1-.5-.1-.5-.2.1-.1.2-.3.4-.3.1-.1.3-.2.4-.3.1-.1.1-.3.1-.4 0-.2-.1-.3-.1-.4-.2.2-.4.4-.7.4-.3-.1-.5-.4-.6-.8 0-.3 0-.7.1-1 .1-.1.2-.3.3-.3.1 0 .3 0 .4.1.3.1.6 0 .8-.1.1 0 .2-.1.2-.2.1-.1.2-.3.2-.4-.1 0-.2.1-.4.1-.2.1-.4 0-.6-.1-.2-.2-.4-.4-.4-.6 0-.2.1-.5.2-.7.1-.2.3-.3.4-.5.1-.1.1-.2.1-.4 0-.1-.1-.3-.2-.4 0-.1.1-.2.1-.3.1-.1.1-.3.1-.4h.5c.1 0 .2-.1.4-.2.1-.1.1-.2.2-.3-.1 0-.3 0-.4-.1l-.3-.3c-.1-.1-.1-.3-.2-.5 0-.2-.1-.4 0-.6v-.9c.1-.3 0-.7-.1-1.1.2.1.6.2.8 0-.2-.2-.4-.3-.5-.5-.2-.1-.2-.4-.3-.6-.1-.4 0-.8 0-1.3 0-.3-.1-.5-.3-.7-.1-.1-.3-.1-.4-.2-.1-.2-.1-.5 0-.7.1-.1.2-.2.3-.2.1 0 .2.1.4.1s.4-.1.5-.2c.1-.1.1-.3.1-.5s-.2-.3-.2-.5c0-.1.1-.3.1-.4.1-.2 0-.4-.1-.5-.2-.2-.5-.3-.8-.2-.2.2-.3.3-.5.3-.2.1-.4 0-.6.1-.1.1-.2.1-.3.2-.1.1-.1.3-.1.5.1.2.2.3.4.4 0 .2-.3.3-.5.3s-.5 0-.7-.1c-.2 0-.2-.2-.2-.3.2 0 .4 0 .6-.1.2-.1.3-.3.3-.5s0-.4-.1-.5c-.2-.1-.4-.1-.6-.1-.1-.2-.1-.4-.2-.5-.2-.2-.5-.4-.7-.4zm0 .3c.1 0 .2 0 .3.1.1.1.3.2.3.4.1.1-.1.1-.1.2l-.2.2h.2c.2-.1.3-.1.5-.1s.4.2.3.4c0 .2-.1.3-.3.4-.2 0-.3.1-.5 0-.1-.1-.2-.2-.2-.3 0 0-.1 0-.1.1 0 .3 0 .5.2.8.1.2.3.3.5.3.2.1.4 0 .6.1.2 0 .5 0 .7-.1.1 0 .2-.1.4-.2 0-.2.1-.4.1-.5-.2 0-.3.1-.5 0s-.3-.3-.3-.5c0-.1 0-.3.2-.3s.4-.1.5 0c.1.1.1.2.2.2h.2v-.4c.1-.1.2-.2.3-.2.2 0 .5.2.5.4.1.2-.1.4-.3.5-.1 0-.2.1-.2.2h.3c.1.1.2.2.2.4-.1.2-.1.3-.3.4-.1 0-.3-.1-.4-.1-.1-.1-.1-.3-.2-.4-.2 0-.2.2-.2.3-.1.2-.3.4-.5.6-.1.1-.3.2-.3.4-.2 0-.4-.1-.6-.1-.2 0-.4 0-.6-.1-.1 0-.3 0-.4-.1-.1-.1-.1-.2-.2-.3 0-.1-.2-.1-.4 0-.1.1-.1.2-.2.3-.3 0-.6.1-.9.1-.3 0-.5.1-.8.1v-.2c0-.2-.1-.2-.1-.3-.2-.2-.3-.5-.5-.8 0-.1-.1-.2-.2-.2 0 .2-.1.3-.1.5 0 .1-.1.2-.2.3-.2 0-.4 0-.5-.1-.1-.1-.1-.2-.1-.4.1-.2.2-.3.4-.4-.2-.1-.3-.3-.3-.5s.2-.5.4-.5.4 0 .6.2c.1.1 0 .3.1.5.1-.1.2-.3.3-.3.2-.1.4 0 .6.1.2.2.2.5.1.7-.1.1-.2.1-.3.1-.1 0-.2-.1-.3-.2h-.1c.1.2.3.4.4.5.1.1.2.1.4.1.3.1.5 0 .8 0 .1 0 .3 0 .4-.1.1-.3.1-.6 0-.9 0-.1-.1-.1-.2-.1 0 .1 0 .2-.1.3-.1.1-.3.1-.5 0-.1-.1-.1-.2-.1-.4-.1-.2.1-.5.4-.5.2 0 .4.2.6.2 0-.2-.2-.4-.1-.6 0-.1.2-.2.4-.2zm9.6.7c-.2.4-.4 1-.4 1.5v.9c.1.6.1 1.3.1 2 0 .4-.1.8-.2 1.2l-.3.6c-.1.2-.3.3-.4.5-.1.2-.1.5-.1.7 0 .3 0 .6.1.9.1.3.1.5.1.8.1.3.1.7.3 1 .1.3.1.7.3 1 .1.4.3.7.5 1.1.1.2.3.4.4.6.1.2.3.5.4.7.1.2.2.4.4.6.2.3.3.7.6 1 .1.1.1.3.2.4.2.4.5.9.7 1.4 0 .1.1.1.2.2l.3.6c.3-.6.4-1.2.5-1.8v-.4c0-.2.1-.5.2-.7.1-.2.1-.3.2-.5.2-.5.4-1.1.6-1.6.1-.2.2-.5.4-.6 0 .5-.2.9-.4 1.4 0 .1-.1.2-.1.3 0 .1-.1.2-.1.4s0 .5-.1.7c-.1.5-.2 1-.2 1.4-.1.4-.2.7-.2 1.1-.1.3-.2.5-.3.8-.1.3-.3.6-.4.8-.2.4-.3.7-.4 1.1-.1.2-.1.5-.1.7-.1.3-.2.6-.2.8v.5c0 .2-.1.3-.1.5-.1.3 0 .6-.1.9-.1.5-.3 1-.5 1.4-.2.2-.4.5-.7.6-.2.1-.4.1-.6.1-.2 0-.4.1-.6 0-.3-.1-.5-.1-.8-.1-.1 0-.3-.1-.4 0-.6.1-.7.2-.7.4s-.1.4-.1.7c0 .2 0 .3-.1.5s-.1.4-.2.6c-.1.2-.1.3-.1.5-.1.1-.1.3-.2.5s-.1.4-.2.7c0 .2.1.5.2.7.1.1.2.3.2.5l.3.6c.1.1.1.2.1.3 0 .1.1.2.2.4.1.1.2.2.4.2.2.1.5.3.8.4.2.1.3.1.5.1.3.1.6 0 .8.1.2.1.4.1.6.1.3.1.5 0 .8-.1.2-.1.5-.1.7-.3l.3-.3c.1-.1.1-.2.2-.4h.1v.4c-.1.1-.1.2-.2.3-.1.2-.4.4-.6.5-.3.1-.6.3-.9.4-.3.1-.5.1-.8 0-.2-.1-.5-.2-.7-.2h-.6c0 .2.1.3.1.4.1.2.2.3.3.4.2.2.5.3.7.4.3.2.7.2 1.1.2.2 0 .4-.1.5-.2.1-.1.2-.2.4-.2 0 .2-.2.4-.4.5-.2.1-.5.2-.8.2h-.6c-.2 0-.4-.1-.7-.1-.3 0-.7-.1-.9-.2-.2-.1-.4-.4-.6-.6 0 .2.1.4.2.7.1.3.2.5.4.7.2.2.4.5.7.7.1.1.3.1.4.2-.3 0-.6-.1-.8-.2-.4-.2-.8-.5-1.1-.9-.1-.1-.1-.2-.2-.3 0 .1 0 .3.1.4.1.1.1.2.1.3 0 .3-.2.6-.1.9 0 .1 0 .1.1.2-.1-.1-.2-.1-.4-.1-.1 0-.3-.1-.4 0-.2.2-.3.4-.5.5-.1.1-.2.1-.3.1.1.1.1.1.2.1h1c.1 0 .2 0 .2.1l.5 1c0 .2 0 .4-.2.6-.1.1-.2.1-.4.1s-.3.1-.5 0c-.1-.1-.2-.1-.2-.2-.1-.2-.3-.3-.3-.5-.3 0-.4.3-.7.5l-.1-.1c-.1.1 0 .2 0 .3 0 .2-.1.4-.2.5-.1.1-.3.1-.4.1-.2 0-.3-.1-.4-.2.1.1.1.2.2.2.1.1.2.1.4.1-.1.1-.2.2-.3.4-.1.1-.3.3-.2.4.1.2.4.2.4.4.1.1.1.3.1.4 0 .1-.1.2-.2.3-.2.2-.4.2-.7.2-.1 0-.1 0-.2-.1 0-.2.1-.4.1-.5 0-.2-.2-.2-.2-.4-.1 0-.2.1-.4.1H32c.1-.2.2-.3.2-.5 0-.1 0-.2.1-.3.1-.1.3-.3.3-.5s0-.4.1-.7c0-.1-.1-.2-.1-.3-.1.1-.2.1-.4.2-.1.1-.2.3-.4.4-.2.1-.4.2-.6.2-.1-.1-.2-.2-.3-.2-.1 0-.2-.1-.4-.1-.1.2-.2.5-.2.8-.1.2-.2.4-.5.4-.2 0-.4-.1-.6-.1-.2 0-.3-.1-.5-.2.1-.4.7-.6 1-.8.1-.2 0-.7-.3-.8-.3-.1-.3.1-.6 0 .1-.2.4-.1.6-.2.2-.1.4-.3.6-.2.2.1.5.1.7 0 .2-.1.4-.3.5-.5.1-.1.2-.2.2-.3-.2 0-.3 0-.5-.1s-.5 0-.7.1c-.1.1-.3.1-.4 0-.1 0-.1-.1-.2-.2s-.2-.2-.2-.3v-.3l.6-.9c.1 0 .3.1.4.1.1 0 .2 0 .3.1.1.1.2.3.3.4.1.1.2.1.3.2.2.1.3.1.5.2s.4 0 .5-.1c.2-.3.2-.7.2-1 .1-.3.1-.6.1-.8 0-.3.1-.5.1-.8 0-.2 0-.4-.1-.5-.1-.3-.2-.5-.3-.8-.1-.2-.3-.3-.4-.5-.1-.2-.2-.4-.5-.5.3-.1.5-.4.6-.7.1-.4 0-.8-.1-1.2l-.3-.6v-.3c-.1 0-.2.1-.1.1 0 .3.2.6.3.8.1.4.2.7.1 1.1-.1.2-.2.4-.4.5-.2.1-.3 0-.5-.1-.1.1-.1.2-.2.2v.4c-.1.2-.1.3-.2.5-.2.3-.3.5-.6.7-.1.1-.2 0-.3 0-.1.2-.2.3-.4.4-.1 0-.2 0-.3.1.2-.1.4-.3.6-.5.2-.2.4-.5.4-.9.1-.4.3-.7.3-1 .1-.2.1-.5.1-.7v-.6c0-.4.1-.8.2-1.2.1-.2.2-.4.3-.7.1-.3.1-.5.1-.8-.1.1-.3.2-.4.3l-.3.3c-.1.2-.3.3-.4.4l-.6.3c-.1.1-.3.1-.4.2-.2.1-.2.3-.4.4.5-.1.4 0 .3 0-.1.1-.2.3-.4.4l-.3.3-.3.3c-.1.1-.1.2-.2.2-.2.1-.3.3-.4.4-.1.1-.3.2-.4.3-.1 0-.1.1-.1.2s-.1.2-.1.4-.1.4 0 .6c.1.3.1.7 0 1-.3.5-.7.8-1 1.3-.2.5-.1 1.1.2 1.5.1.1.1.2.1.4-.2-.1-.4-.2-.4-.4-.1-.2-.2-.3-.2-.4v-.3c0-.1-.1-.2-.1-.4 0-.1 0-.2-.1-.3-.1.1-.2.1-.2.2-.1.2-.3.3-.4.5 0 .1-.1.2-.2.2-.2.1-.4.2-.6.4-.1.1-.1.4-.1.5 0 .2.1.4.1.6 0 .1.1.1.1.1.2.2.5.2.7.1v.1l-.2.2c-.2 0-.4.1-.5-.1-.2-.1-.3-.2-.5-.3-.2-.2-.4-.4-.5-.6-.1-.2-.1-.4-.1-.7v-.6c0-.2.1-.4.1-.7 0-.1 0-.1-.1-.1-.1.1-.3.2-.4.3-.2.1-.5.1-.7.3-.2.2-.4.5-.4.8 0 .3.2.5.4.7-.3-.1-.5-.4-.5-.7-.1-.5 0-1 .1-1.4-.2 0-.5.1-.7.2-.2.1-.4.2-.5.4-.1.2-.1.4-.1.6-.1-.2-.1-.4-.1-.7.1-.2.2-.3.3-.4v-.1c-.1 0-.3.1-.4.1-.1.1-.1.2-.2.2-.1.4-.3.4-.4.4.5-1 .8-2.4 1-3.3.1.1.3.1.4.1.1 0 .2-.1.3-.1.2 0 .4-.1.7-.1.2 0 .5-.2.7-.2.1 0 .3 0 .4-.1.2-.2.5-.2.6-.4.2-.4.3-.8.5-1.2.1-.1.1-.2.2-.3v-.8c0-.1-.1-.2-.1-.3 0-.2 0-.4.1-.6.4 0 .7-.2 1-.4v-.1c-.3 0-.6.2-1 .2-.1 0-.3.1-.4.1-.2 0-.5.1-.7.1-.2 0-.3 0-.5-.1-.3-.2-.3-.4-.3-.6.1.1.2.2.3.2.1.1.2 0 .2 0 .2 0 .4-.1.6-.1.2-.1.3-.1.5-.2s.5-.2.7-.4c.2-.2.4-.2.5-.4.1-.1.1-.2.2-.2.2-.1.3-.2.5-.2.2-.1.4 0 .5 0 .1 0 .2.1.4.2.1.1.3 0 .4 0 .3-.1.6-.1.8-.3.2-.1.3-.2.4-.4.1-.1.2-.1.3-.2.1 0 .3-.1.4-.2l.3-.3c.3-.2.6-.2.8-.3.3-.1.5-.3.7-.5.1-.1.3-.2.3-.3 0-.1-.1-.2-.2-.3-.1-.1-.2-.2-.2-.3-.2-.4-.7-.5-1-.7-.1-.1-.2-.2-.3-.2-.1 0-.3-.1-.4-.2-.2 0-.5-.2-.7-.2-.2 0-.4 0-.6-.1-.1-.1-.1-.2-.3-.2h-.5c-.1 0-.2-.1-.3-.2-.1-.1-.2-.1-.4-.1s-.3-.1-.4-.2c-.1-.1-.2-.1-.3-.2-.1-.1-.2-.2-.3-.2-.2 0-.4 0-.5-.1-.2-.1-.4-.3-.6-.5-.2 0-.4.1-.6.1-.2 0-.4 0-.5-.1l.6.6c.1.1.1.2.2.3l.3.3c.1.1.3.1.4.2.2.1.4 0 .5 0-.2.1-.4.2-.5.2-.3 0-.5-.1-.8-.2-.5-.1-.9-.3-1.4-.5-.2-.1-.4-.2-.7-.2H20c-.2 0-.3 0-.5.1.6.1 1.2 0 1.7.2.1 0 .3.1.3.3 0 .1.1.2.2.3.1.1.2.2.3.2.1.1.1.2.1.3-.1-.1-.3-.2-.4-.3l-.6-.3c-.5-.1-.9-.1-1.2-.1-.2 0-.3-.1-.5 0-.1 0-.2 0-.3.1.1.1.3.1.4.1.3.1.5.3.7.5.2.1.2.4.1.6-.1-.2-.2-.4-.4-.5-.2-.1-.4-.2-.6-.2-.1 0-.3-.1-.4-.1-.3 0-.6.1-.9.1-.2 0-.4-.2-.6-.3-.1-.1-.2 0-.3 0 0 .1.1.2.1.2l.6.6c.2.2.3.5.2.7 0-.1 0-.2-.1-.3-.1-.2-.3-.4-.5-.5-.2-.1-.4-.2-.6-.2-.2 0-.4 0-.6-.1-.1-.1-.3-.1-.4-.1 0 .1.1.3.2.4 0 .1 0 .3.1.4 0 .2-.1.4-.2.6 0 .1-.1.2-.2.2s-.2-.2-.2-.3c-.3 0-.5 0-.7.2-.1.1-.1.2-.1.3-.1 0-.3 0-.4-.1-.1-.2-.1-.4-.1-.6.1-.3.4-.4.5-.5h-.3l-.3-.3c0 .2.1.4.1.5 0 .1-.1.2-.2.2-.2 0-.3-.2-.5-.2-.1 0-.1.1-.1.2-.1.1-.2.3-.3.4-.1 0-.2 0-.2.1s-.1.2-.1.2c.1.2.1.4.2.5-.1.2-.3.3-.4.4-.1.1-.2.1-.3.1l-.7-1.2c0-.1.1-.2.1-.2 0-.1 0-.2.1-.2.2-.2.4-.3.6-.4.1 0 .1-.1.1-.2s.1-.2.1-.3c-.2.1-.4.2-.5.2h-.7c0 .2 0 .4-.1.5-.1.1-.2.2-.3.2-.2 0-.4-.1-.6-.2v-.4l-.1-1c-.1-.1 0-.2 0-.2.2-.1.3-.2.4-.3.2 0 .5.1.7.1.2 0 .4.1.5-.1.1-.1.2-.1.3-.2 0-.1.1-.2.2-.4v-.2c0-.1-.1-.2-.2-.1-.1 0-.2.1-.3.1h-.5c-.1 0-.2-.2-.1-.4l.3-1.2c0-.1.1-.2.2-.2h.6c.3.2.4.5.5.8.1 0 .2 0 .3.1.1.1.1.2.2.3.1.1.2.1.2.2s0 .3.1.4c.2.1.4.1.6.1.4-.1.7-.3 1-.5.3-.2.6-.3.8-.4.2-.1.5-.1.7-.1.2-.1.3-.2.4-.4.1-.1.3-.2.4-.3l.4-.4h-.3v-.1c-.2 0-.5-.1-.7-.2-.2-.1-.3-.1-.5-.2-.3-.3-.4-.3-.5-.3v-.1c-.1 0-.2-.2-.3-.2-.1-.1-.3-.2-.3-.3 0-.2-.1-.4-.1-.6 0-.1 0-.2.1-.2v.3c0 .1.1.2.2.3.1.1.1.2.3.3.2.1.5.2.7.2h.7c.3-.1.6-.1.9-.2.2-.1.5-.2.6-.5.2-.3.5-.5.7-.9-.2.2-.5.3-.8.4h-.5c-.2 0-.3-.1-.5-.1 0-.1 0-.3.1-.4 0-.1 0-.2-.1-.2-.1-.2-.2-.5-.5-.7v.5c0 .2 0 .4-.1.6 0 .1-.1.2-.2.3-.1.1-.1.2-.1.3 0 .1-.1.2-.2.2s-.2.1-.3.1c-.2 0-.3.1-.5.1-.1 0-.1-.1-.2-.1.1-.1.3-.2.5-.3.3-.1.5-.4.5-.7v-.7c0-.2-.2-.4-.2-.6 0-.5-.2-1-.2-1.5l-.3.9-.3.6c-.1.1-.2.3-.3.4-.2.1-.4.2-.6 0 .1 0 .2-.1.3-.2.1-.1.2-.3.3-.5 0-.2.1-.4.1-.6 0-.2 0-.4-.1-.5 0-.1-.1-.2-.1-.3-.1-.1-.1-.2-.2-.4-.1-.1-.2-.2-.3-.2 0 .1 0 .3-.1.3-.1.1-.2 0-.2-.1.1-.1.2-.1.2-.2 0-.3-.1-.5-.2-.7-.1-.2-.2-.5-.2-.7v-.6h3.1c0 .1 0 .2.1.2.3 0 .5.1.8.2.2.1.4.4.5.6 0 .1.1.1.2.2s.3.2.4.2c.2.1.5.1.7.2.1.1.2.1.4.2s.3.2.5.3c.1 0 .2.1.3.2.1 0 .2-.1.3-.1.4-.2.9-.2 1.3-.3-.1-.1-.3-.2-.4-.3-.1-.2-.3-.2-.4-.3-.2-.2-.5-.4-.5-.7 0-.2 0-.4.1-.5.1.2.1.4.2.5.1.2.3.5.6.6h.4c.2 0 .4-.1.6-.1.3 0 .5-.2.7-.2.2 0 .3-.1.5-.1h.4c.2 0 .4.3.6.4.3 0 .7-.1.8-.4.1-.1 0-.2 0-.3 0 0 .1 0 .1-.1l.1.1c.1-.1.3-.2.4-.2.2 0 .3 0 .5-.1.4-.1.8 0 1.2-.1.3 0 .6-.1.8-.2.1 0 .2-.1.3-.2.1-.1.1-.1.2-.1.1-.1.1-.4.3-.5v-.7c0-.1.2-.2.2-.3 0-.1.1-.2.2-.3.1-.1.1-.3.2-.4.1-.1.1-.2 0-.3h-.1c0 .2-.2.3-.3.5l-.3.3c-.1.1-.1.2-.2.2 0 .1-.1.2-.1.3v.5c0 .1 0 .3-.1.4-.1.2-.1.3-.3.4-.4.1-.8.1-1.1.2-.1 0-.3 0-.4.1-.3 0-.5.1-.8.1-.1 0-.3 0-.4.1-.5.3-.7.3-1 .3-.1 0-.3 0-.4-.1v-.3c0-.1.1-.2.2-.2h.4c.1 0 .3 0 .4-.1.1 0 .3-.1.4-.2.1-.1.3 0 .4 0 .1 0 .2-.1.2-.1.2 0 .3.2.5.1.1 0 .2-.1.3-.1.1-.1.1-.1.1-.3 0-.3 0-.4.1-.5 0-.3 0-.4.1-.7.1-.3.1-.5.1-.8-.1-.2-.1-.3-.3-.4-.1-.2-.2-.3-.3-.3h-.3c-.1 0-.3.1-.4.1-.1 0-.1-.1-.2-.1h-.4c-.1 0-.2-.1-.3-.1-.1 0-.2.1-.3.1-.1.1-.2 0-.3 0-.1 0-.1-.1-.2-.2-.2 0-.4.2-.5.3V8c-.1 0-.3 0-.4-.1-.1-.1-.3-.1-.4-.2-.1-.1-.3-.1-.3-.2-.1-.1-.1-.3 0-.5h.2v-.7c0-.1.1-.2.1-.2-.1-.1.1-.1.2-.1.2-.1.5-.2.7-.2.1 0 .1-.1.1-.1.1.3.3.4.5.5.2.1.5.2.7.2 0 .1.2.2.2.3.1.1.1.1.2.1s.3.1.4.1c.3 0 .6 0 .9-.1l.1-.1h.3c.1 0 .2.1.3.1.1 0 .2 0 .3-.1-.3 0-.5-.1-.7-.2l-.3-.3c-.1 0-.3 0-.4-.2-.1-.1-.1-.2-.1-.4-.2 0-.4 0-.6.1-.1.1-.2.3-.4.3-.3.1-.6.1-.9-.1-.2-.1-.2-.2-.3-.4.1-.1.1-.2.2-.3.1-.1.3-.2.5-.2.6-.2 1.3-.2 2-.2.5 0 1 0 1.5.2.2 0 .4.2.6.3l.1.1v.3c.2 0 .1-.2.2-.4s.3-.2.5-.2c.2.1.3.1.4.3.1.2.3.5.2.8-.1.2-.1.5-.4.7-.2.1-.5 0-.8 0v.2c.3.1.6-.1.9 0 0 .3 0 .6.1.8.1.3.1.6.2.9 0 .3 0 .5.1.8.1.2.1.5.1.7 0 .1 0 .2-.1.3 0 .2.1.4.2.5.1.3.3.6.6.7-.1.1-.3.1-.4 0-.2-.1-.2-.2-.3-.4-.1-.1-.2-.2-.2-.3-.2-.3-.2-.6-.3-1 0 .3 0 .7.1 1 0 .1.1.3.2.3 0 .1-.1.2-.1.3 0 .4 0 .8-.1 1.2 0 .1.1.2.1.3l.2-.2c0 .2-.1.3-.2.4-.1.1-.3.1-.5.2-.2.3-.3.6-.3.9.1.3.2.5.4.7.1.1.1.2.2.3.2.1.4.2.5.2v.1c-.2.1-.4 0-.6 0-.2 0-.3-.1-.4-.2-.5-.4-.7-1-1-1.5.1.3.2.6.4.9.1.2.1.3.2.5 0 .2-.2.4-.2.6 0 .2-.1.3-.1.5v.7c0 .2.1.3.2.5l.3.3c.1.1.3.2.4.2.3 0 .6-.1.6-.3 0-.1.1-.1.1-.2.1.3.1.6-.2.8-.4.3-1 .4-1.4.2-.4-.2-.8-.6-1.1-.9.2.4.5.7.8 1 .1.1.3.1.5.2.2.2.2.4.4.6l.6.6c.2.3.4.5.7.8.1.1.2.3.3.4.2.3.4.5.6.8.1.2.2.3.3.5.2.3.4.5.6.8.1.2.4.3.5.5l.6.6c.1.1.1.2.2.3.1.2.2.4.4.5.1.1.2.3.4.4.1.1.2.3.4.5.1.1.2.1.3.1.1.1.2.1.4.2h.7c.2 0 .4-.1.6-.3.1-.1.2-.2.2-.3v-.7c0-.3-.1-.6-.3-.9-.1-.2-.2-.4-.4-.5-.1-.2-.2-.3-.3-.5-.1-.2-.4-.4-.5-.7-.1-.1-.2-.2-.3-.4-.1-.2-.3-.4-.5-.6-.1-.2-.2-.3-.3-.5-.1-.3-.3-.6-.3-.9v-.5c0-.2-.1-.4-.1-.6 0-.2-.1-.3-.1-.5 0-.3-.1-.6-.1-.9-.1-.2 0-.4-.1-.5-.1-.4-.2-.8-.2-1.2 0-.2-.2-.4-.2-.6-.1-.2-.1-.4-.3-.6-.1-.1-.1-.2-.1-.3.2.2.4.4.5.7.1.4.3.7.4 1.1.1.4.2.7.3 1.1 0 .1.1.3.1.4.1.2.2.4.2.6.1.2.1.4.2.5l.3.3c.1-.1.2-.2.2-.4.1-.2.1-.4.2-.6.2-.6.5-1 .8-1.5.1-.1.1-.2.2-.3 0 .1.1.2.2.3.1.1.1.2.2.3 0 0 .1.1 0 .1-.1.2-.2.4-.3.7-.1.1-.1.3-.1.4-.1.3-.2.7-.3 1-.1.3-.1.5-.1.8-.1.2-.1.4-.1.6v.6c.1.6.4 1.1.7 1.6.1.1.2.3.4.4.2 0 .4.1.5 0 .1-.1.1-.1.2-.1l.3-.6c.1-.3.2-.6.2-.9 0-.2 0-.4.1-.6 0-.4-.1-.8-.2-1.2-.1-.2-.1-.4-.2-.5-.1-.4-.3-.8-.5-1.2 0-.1-.1-.2-.1-.3-.1-.2-.2-.5-.4-.7-.1-.2-.3-.5-.4-.7l-.3-.6c-.2-.3-.3-.6-.5-.9-.1-.1-.1-.2-.1-.2-.3-.6-.6-1.1-.7-1.7-.1-.3-.2-.6-.2-.9-.1-.3-.1-.7-.2-1 0-.2-.1-.4-.1-.6 0-.4-.1-.7-.1-1v-.5h-.3c-.1-.1-.1-.2-.2-.2-.1-.1-.2-.2-.3-.2-.1-.1-.3-.2-.4-.4-.1-.1-.1-.2-.2-.4-.1-.1-.1-.2-.1-.3 0-.2-.1-.4-.1-.5.1.1.1.3.2.4.1.1.2.3.3.4.1.2.4.2.5.3.1 0 .1-.1.1-.1 0-.1 0-.2-.1-.4 0-.1-.1-.3-.1-.4-.1-.1-.1-.2-.2-.3 0-.1 0-.2-.1-.3-.1-.2-.1-.3-.2-.4-.1-.2-.1-.5-.1-.7 0-.2.1-.4.1-.6.3-.7.4-.9.4-1.1 0-.1.1-.2.1-.2 0 .3-.1.5-.1.8 0 .2-.1.4 0 .6.1.3.2.7.4 1 .1.2.3.5.4.7v-1c0-.2 0-.5-.1-.7v-.5c0-.2 0-.4.1-.6.1-.2.2-.5.3-.7 0-.1.1-.1.1-.2 0 .2-.1.4-.1.5v.8c0 .3.1.5.1.8.1.2.2.4.2.7 0-.2 0-.4.1-.5.1-.4.1-.8.2-1.1.1-.3.2-.6.2-.9.1-.2.2-.5.4-.7.3-.4.4-.6.6-.7zm1 .1c.2.1.4.3.5.5.1.2.3.3.3.4.1.2.2.4.2.6v1.2c0 .4.1.8.1 1.2.2-.1.2-.3.3-.5.1-.4.2-.8.4-1.2.1-.2 0-.4 0-.6 0-.3-.1-.7-.2-1 .2 0 .3.1.3.3.1.2.2.4.2.7 0 .3 0 .6-.1.9 0 .2-.1.4-.1.6 0 .5-.2 1-.3 1.5.1-.1.2-.2.4-.3.1-.3.2-.4.3-.5.1-.2.2-.3.2-.5s.1-.3.2-.5c0-.2 0-.4.1-.7.1.1.1.3.1.4.1.3 0 .7-.1 1 0 .2-.1.4-.1.6-.1.2-.1.5-.2.7-.1.2-.2.4-.2.7.2-.1.4-.3.6-.5.2-.2.3-.7.3-1.1.1.3.1.6 0 .9-.1.3-.1.5-.3.7-.1.1-.1.2-.2.3l-.4.4c-.1.1-.2.2-.4.3-.2.1-.4.3-.6.4 0 .2.1.3.1.5v.4c0 .3 0 .6-.1 1v.4c0 .1-.1.3-.1.4 0 .2-.1.3-.1.5-.1.3-.1.6-.2.9-.1.2-.1.3-.1.5-.1.2-.1.4-.1.6-.1.3-.2.5-.2.8-.1.3-.2.5-.3.8H39c-.1-.1-.2-.2-.2-.4-.1-.1-.2-.3-.2-.5.1-.3.2-.5.3-.7.2-.4.3-.9.4-1.3.1-.3.1-.6.2-.8.1-.3.1-.7.1-1V9.5c0-.1-.1-.3-.2-.4l-.6-.9c-.1-.2-.1-.5-.1-.7v-.4c0-.2.1-.3.1-.5s.1-.3.1-.5c.1-.2.1-.4.1-.7v-.3c0-.2 0-.4-.1-.7v-.5c-.1-.1 0-.3-.1-.4.3-.7.1-1 .1-1.3zM26.8 3c.3.1.5.1.8.2-.1.1-.1.2-.3.2-.3.1-.6.1-.9-.1.1-.1.3-.2.4-.3zm1.4 1.2c.1 0 .2.1.1.2s-.2 0-.3-.1c.1-.1.2-.1.2-.1zm-2.2.2h.2c0 .1 0 .2-.1.2-.1.1-.2-.1-.2-.2h.1zm1.9.1c.6 0 1.1 0 1.6.1.2 0 .4.1.6.1.3.1.5.2.8.3 0 .1-.2.2-.3.2-.1-.1-.2-.2-.3-.2-.7-.2-1.5-.3-2.3-.3-.6 0-1.2 0-1.8.2H26l.3-.3c.3-.1.6-.1.9-.1h.7zm2.7 0c.1 0 .2 0 .2.1s-.2.1-.2.1c-.1 0-.1-.1 0-.2zm-3.4 1.7c.1 0 .2 0 .3.1.1 0 0 .1.1.1-.1 0-.2-.1-.3-.1 0 .1.1.3.2.4h.4s.1-.2.1-.3c.1 0 .2.1.3.2-.1.1-.3.1-.4.2h-.4c-.2 0-.3 0-.4-.2-.1 0-.2-.1-.1-.2 0-.1.1-.1.2-.2zm4.4.8c0 .2.1.4.2.6.1.2.3.3.5.4-.2 0-.3-.1-.5-.2-.1-.1-.2-.2-.2-.3-.1-.1-.1-.2-.1-.4 0-.1 0-.1.1-.1zm-9.9 1.4c.1 0 .2 0 .3.1.2.1.4.3.5.4.3.2.7.5 1.1.5.3 0 .7.1 1 0h.3c.3 0 .5-.1.8-.1h.7c.3 0 .6.1.9.1.2 0 .5.1.7.2.1.1.1.2.1.3-.3 0-.6-.3-.9-.3-.2 0-.4-.1-.7-.1h-.3c-.4 0-.8 0-1.2.1-.8.1-1.6.1-2.5 0-.2 0-.3-.1-.5-.2s-.4-.3-.6-.5c-.1-.1-.2-.2-.2-.3 0-.1 0-.3.1-.3.3.2.3.1.4.1zm6.3.3h.2v.8c-.1-.1-.1-.2-.2-.3h-.3v-.5h.3zm-10.5 8.6c.1 0 .1.1.2.1-.1.3-.2.6-.4.8 0 .1-.1.2-.2.2h-1s-.1 0-.1-.1c.1-.1.3-.1.4-.2.2-.1.3-.2.4-.3.4-.1.6-.3.7-.5zm.8.3h.2v.3c-.2.1-.5.3-.8.4-.2 0-.3.1-.4.1.2-.2.4-.5.7-.7.1 0 .2-.1.3-.1zm20.4.4c0-.1 0 0 0 0 .2.2.2.4.3.6.2.6.4 1.3.4 1.9 0 .3 0 .6-.1.9 0 .4 0 .7-.1 1.1-.1.2-.2.3-.4.4-.1.1-.3 0-.4-.1-.1-.2-.3-.4-.4-.6-.1-.3-.3-.5-.3-.8 0-.3-.1-.5 0-.8.1-.3.1-.6.1-.8.1-.3.1-.7.3-1 .1-.2.1-.3.2-.5.2-.1.2-.3.4-.3-.1 0-.1 0 0 0z"/><path d="M11.9 39.6c-.1 0-.2 0-.3-.1-.8-.4-1.9-2.6-2.5-3.8-.9-1.8-1.6-3.6-1.6-4.1 0-.1 0-.1.1-.1s.1 0 .1.1c.1.5.8 2.2 1.6 4 1 2.1 1.9 3.5 2.4 3.7.1 0 .1.1.2.1v-.8c0-.1 0-.1.1-.1s.1 0 .1.1v.9s0 .1-.1.1h-.1zM8 34.5c-.1 0-.1-.1-.1-.1s0-.1-.1-.1c0-.1-.1-.2-.2-.4-.1-.3-.2-.5-.2-.6-.2 0-.4 0-.5-.1-.1 0-.1-.1-.1-.1.1 0 .1-.1.2-.1.2.1.4.1.5.1h.1v.1c0 .1.4 1.1.5 1.2v.1H8zm11.4-23c-.1 0-.1 0-.1-.1V10h-13c-.1 0-.1 0-.1-.1s0-.1.1-.1h13.2l.5-.1c.1 0 .1 0 .1.1s0 .1-.1.1l-.5.1v1.4c0 .1-.1.1-.1.1zm-5.6-5.9c-.4 0-.9 0-1.1.1-.2.1-.1.1-.2.3-.1.6-.7 1-.7 1.5 0 .2.1.3.2.4l-.5-.5c-.4.3-.8.5-1.1.9.1.4 0 1 .2 1.3h1.8v-1H14v1.1h2.3c.2 0-.3-.3 0-.6.2-.3.4-.6.4-.9.1-.4-.2-.7-.2-.9 0-.3-.5-.5-.5-.5-.1.1-.5.6-.6.6-.4.3-.1.2-.6.4-.3.1-.3.3-.4.3-.3.1-.1.1-.1-.2 0-.2-.1-.4-.1-.7.3-.3.5-.7.8-1-.5-.3-.7-.8-1.2-.6z"/><path d="M13.9 5.9c.3 0 .5.2.5.5.1.2-.2.6-.4.5-.8-.5-.1.2-.2.3.3.1.2.7 0 1.1-.2.1-.7.3-.5-.1.5-.4-.2-.7-.5-.8-.2.1-.6.3-.6.6.1.1-.2.1-.2-.1-.3-.3 0-.6.2-.9.2-.2.3-.6.4-.8.2-.3.4-.2.7-.2.2 0 .4 0 .6-.1zm2 1.4h-.2c0 .1-.2.2-.2.3-.1 0-.2.2-.2.2-.1 0-.4.2-.5.3-.1.2.1.4 0 .5-.3-.3-.4 0-.5 0v1.2h1.8l-.1-.1c-.4 0-1.1.1-.7-.6.3.4.5.4.6.3.1-.1 0-.2.1-.3.2-.2.4-.6.6-.7.2-.2-.1-.4-.2-.6-.1-.4-.2-.5-.5-.5zm-3.9 1c.1.3.1.3.1.4v.4c-.1.1-.3.1-.4 0-.2-.1-.3-.3-.5-.3-.1 0-.2.1-.3.2-.1.1-.1.2-.1.4 0 .1.1.1.1.2s-.1.1-.2 0c0-.1 0-.3-.1-.5 0-.1.1-.2 0-.3 0-.2 0-.3.1-.5.1-.1.1-.2.3-.3.1.1.3-.1.3-.2.3.2.6.5.7.5z" fill="#ED1B24"/><path fill="#0F0" d="M21.6 11.9zM38 2s0 .1 0 0z"/><path d="M31 5.5c-.1 0-.2.1-.3.2v.4c0 .1.2.2.2.3 0 0 0 .1-.1.1s-.2-.2-.3-.1c-.1.1-.1.3-.1.4 0 0 0 .1.1.1s.3 0 .4-.1c.3-.2.4-.3.4-.4.1-.2 0-.5 0-.7-.1-.1-.2-.2-.3-.2zm.1.4c.1 0 .1.1.2.2s0 .2 0 .3c-.3-.1-.3-.3-.2-.5zm-6.9.4c-.1 0-.1.1-.1.1 0 .1.1.1.1.2v.2h.1v.1h.2c0-.1 0-.2.1-.2v-.3c-.2 0-.3-.1-.4-.1z"/><path d="M24.4 8c.1-.1.5 0 .5.2s-.1.4-.2.5c-.2-.2-.4-.5-.3-.7zm1.5.3c-.1.1-.2.4-.2.5-.4-.1-.4-.4-.3-.6.2-.1.3 0 .5.1zm2-.1c-.1.2-.2.2-.3.4-.1 0-.2-.2-.2-.4.2-.2.3 0 .5 0zm-1.5 0h.5c0 .1-.1.4-.2.4-.3-.1-.2-.3-.3-.4zm1.7 1.9c0 .1.2.5 0 .5-.1.1-.4.1-.3 0-.1 0 0-.4.3-.5zm-.6.1c.1 0 .1.4.1.5-.1.1-.3 0-.4.1-.3-.2.1-.5.3-.6zm-1 .1c.1 0 .2.2.3.3v.2c-.2 0-.2.2-.4.1 0-.1 0-.1-.1-.2 0 0 .1-.3.2-.4zm-.6.2c.1.1.2.3.2.5h-.3c-.1 0 0-.2 0-.2s0-.3.1-.3z" fill="#FFF"/><path d="M35.4 36.4c-.1-.1 0-.1 0-.1h.3c.2 0 .4 0 .5-.2 0-.2 0-.4.1-.6v-.3c0-.2-.1-.3-.3-.4l-.3-.3c-.1-.2-.2-.4-.3-.5-.1-.1-.1-.2-.2-.3-.1-.1-.2-.3-.3-.4-.1-.1-.2-.3-.4-.4-.2-.2-.3-.6-.3-.9 0-.4.1-.8.2-1.1v-.1c0-.2.1-.4.2-.6 0-.1.1-.2.1-.3.1-.2.2-.5.4-.8.2-.4.2-.7.2-.9V28s0-.1.1-.1c0 0 .1 0 .1.1v.2c0 .3-.1.5-.2.8-.1.3-.2.5-.4.8 0 .1-.1.2-.1.3-.1.2-.2.4-.2.6v.1c-.1.3-.2.7-.2 1 0 .3.1.6.3.8.1.1.2.3.4.4.1.1.2.3.4.4.1.1.1.2.2.3l.3.6c.1.1.2.2.3.2.2.1.4.3.4.5v.3c0 .2 0 .4-.1.7-.1.3-.4.3-.6.3h-.2c-.3.1-.3.1-.4.1.1 0 .1 0 0 0zM34.3 35c-.1 0-.1-.1-.1-.1 0-.1.1-.3 0-.4-.1-.2-.2-.4-.4-.6 0-.1-.1-.1-.1-.2-.1-.1-.3-.3-.3-.5-.1-.3.1-.6.2-.7.1-.1 0-.3 0-.4 0-.1-.1-.3 0-.4 0 0 0-.1.1 0 0 0 .1 0 0 .1v.4c0 .2.1.3 0 .5-.1.1-.2.3-.2.6 0 .2.1.3.3.4l.2.2c.2.2.3.4.4.7.1.2 0 .3 0 .5 0-.2 0-.1-.1-.1.1 0 .1 0 0 0zm-9-2.7c-.2-.8.2-1.5.9-2 .4-.3.9-.7 1.2-1.1.3-.2.5-.4.8-.6.4-.3.8-.5 1.1-.8.1-.1.3-.2.4-.2.1-.1.2-.1.3-.2h.1v.1c-.1.1-.3.2-.4.2-.1.1-.3.1-.4.2-.3.4-.7.6-1.1.9-.3.2-.5.4-.8.6-.4.4-.8.8-1.2 1.1-.6.4-.9 1.1-.9 1.8.1-.1.1 0 0 0zm7.1-1.9s-.1-.1 0 0c-.1-.5-.1-.8 0-1.3 0 0 0-.1.1-.1 0 0 .1 0 .1.1-.1.4-.1.8-.2 1.3.1-.1 0 0 0 0zm-1.2-1.3c-.4-.3-.4-.9-.2-1.2.1-.3.3-.5.5-.7.2-.1.3-.2.3-.4s0-.4-.1-.6c0-.1-.1-.2-.1-.3v-.2c0-.2 0-.4-.1-.6-.1-.2-.3-.2-.6-.3h-.2s-.1-.1 0-.1c0 0 .1-.1.1 0h.1c.2.1.5.1.6.4.1.2.2.4.2.7v.2c0 .1 0 .2.1.3.1.2.1.4.1.6 0 .3-.2.4-.3.5-.2.2-.4.4-.5.7-.2.3-.2.8.1 1 .1-.1.1-.1 0 0 .1 0 .1 0 0 0zm-4.6-6.9h-.2c-.4 0-.8-.1-1.2-.4-.3-.3-.4-.9-.2-1.3.1-.4 0-.8-.2-1.2-.1-.5.1-1 .4-1.3h.1v.1c-.3.3-.4.7-.4 1.2.2.4.4.8.2 1.3-.2.4-.1.9.2 1.2.3.3.7.3 1.1.4h.1c.1 0 .4-.1.6-.4.1-.1.2-.2.2-.3-.3.1-.5.1-.7 0-.1-.1-.2-.3-.2-.5s0-.4.2-.5c.1-.1.2-.2.2-.5 0-.2 0-.3-.1-.4 0-.1-.1-.2-.1-.2v-.6c0-.1.4-.6.4-.7.2-.2.5-.6.7-.6h.1v.1c-.4.1-1 1-1.1 1.2v.2c0 .3.1.5.3.8.2.3.6.3 1 .4-.3-.5-.3-1 0-1.5.1-.2.4-.4.6-.3.1 0 .1.2.1.4 0 0 0 .1-.1 0 0 0-.1 0 0-.1v-.2c-.1 0-.3.1-.4.3 0 .1-.1.1-.1.2.1.5.6.8 1 .9.4.1.7.1 1 0-.3-.2-.7-.4-.9-.7-.2-.2-.4-1.1-.1-1.7.1-.2.2-.3.3-.5.1-.2.2-.3.2-.5 0 0 0-.1.1-.1 0 0 .1 0 .1.1 0 .2-.1.4-.2.6-.1.1-.2.3-.3.5-.3.6-.1 1.5.1 1.6.1.3.5.5.8.7 0 0 .1 0 .1.1v.2c-.2.2-.7.3-1.2.1-.4-.1-.8-.4-1-.8-.1.3 0 .7.3 1.1v.1h-.1c-.4 0-.9-.1-1.2-.4v.3c0 .3-.1.5-.3.6-.1.1-.2.2-.1.3 0 .1 0 .3.2.4.1.1.3.1.6-.1h.1c0 .2 0 .3-.2.5-.3-.3-.7-.1-.8-.1zm-4.2-.1c-.5-.1-.9-.2-1.2-.3-.4-.3-.6-.6-.6-1.1 0-.5.3-.9.8-1.4h-.3c-.1 0-.4.4-.7.7-.3.3-.6.7-.8.8-.5.3-1.7 0-1.7 0s-.1 0-.1-.1v-.1c.2-.1.3-.1.5-.2l.6-.3c.1-.1.3-.4.5-.7-.7.7-1.5.5-2.1.3h-.2s-.1 0 0-.1c0 0 0-.1.1 0h.2c.7.2 1.7.4 2.3-.7h.1v.1s-.4 1.1-.7 1.4c-.2.2-.4.3-.7.3-.1 0-.2.1-.3.1.4.1 1.1.1 1.4 0 .2-.1.5-.5.8-.8.4-.4.6-.7.8-.7h.6v.1c-.6.5-.9.9-.9 1.4 0 .7.4 1.2 1.4 1.3-.5-.5-.6-.9-.4-1.2.1-.2.5-.6.7-.7.5-.5.6-.4.6-.4s.1 0 .1.1c0 0 0 .1-.1.2-.1.2-.3.5-.3.6 0 .1.1.3.2.4.1-.2.2-.6.5-.6.5 0 .8-.4.8-.4h.1v.1c-.1.1-.3.4-.2.7.1.2.1.2.1.4v.1c0 .2-.1.3-.3.4-.1.1-.2.2-.2.3 0 0 0 .1-.1.1 0 0-.1 0-.1-.1 0-.2.2-.3.3-.4.1-.1.2-.2.2-.3v-.1c0-.1 0-.1-.1-.3-.1-.1 0-.3 0-.5-.1.1-.3.2-.6.2s-.4.5-.4.6v.1h-.1c-.2-.1-.3-.3-.3-.6 0-.2.1-.4.2-.6-.3.2-.7.7-.9.9-.2.3 0 .7.5 1.2v-.2c0-.1 0 0 0 0zm.2-3.6H22s-.1 0-.1-.1c0 0 0-.1.1-.1.3 0 1 .1 1.2-.1.2-.3.4-.7.4-.7-.1-.3-.1-.5-.1-.8.2-.7 1.1-1.1 1.9-1.4.4-.2.8-.3 1.1-.5h.1v.1c-.3.2-.7.3-1.1.5-.8.3-1.7.7-1.8 1.3-.1.4.1.8.5 1.4.2-1 .9-1.1 1.6-1.2.6-.1 1.1-.1 1.4-.7-.1-.1-.2-.2-.2-.3-.1-.3-.1-.6 0-.7h.1c.1.2.3.4.4.4.2 0 .4-.2.4-.6 0-.3-.2-.5-.2-.6v-.1h.1s.2.3.3.6c-.1.6-.4.7-.6.7-.2 0-.4-.1-.5-.3v.4c.1.2.2.4.5.3.2 0 .5-.1.7-.3.4-.4.7-.9.7-1 0 0 0-.2-.1-.3-.1-.3-.2-.8-.1-1.1.1-.2.2-.3.3-.4.2-.3.4-.5.3-1.1 0 0 0-.1.1-.1 0 0 .1 0 .1.1.1.7-.1.9-.4 1.2-.1.1-.2.2-.3.4-.1.2 0 .7.1 1 0 .1.1.3.1.3 0 .2-.4.8-.8 1.1-.3.2-.6.3-.8.3-.1 0-.2 0-.3-.1-.4.6-.9.7-1.5.7-.7.1-1.3.1-1.5 1.2v.1H24c-.2-.2-.3-.5-.5-.7-.1.2-.2.5-.4.7.1.5-.2.5-.5.5zm-2.4-.9c-.1 0-.1-.1-.1-.1s0-.1.1-.1c.1-.1.2-.3.3-.4.4-.2.7-.3 1.1-.5.2-.1.4-.1.6-.2.3-.1.4-.3.4-.5v-.2c0-.2.1-.3.2-.5.3-.2.6-.2.9-.3h.1s.1 0 .1.1c0 0 0 .1-.1.1h-.1c-.3.1-.6.1-.9.3-.1.1-.1.2-.2.4 0 .1 0 .1-.1.2-.1.2-.2.5-.5.6-.2.1-.4.1-.6.2-.4.1-.8.2-1.1.5l-.3.3c.3 0 .3 0 .2.1.1 0 0 0 0 0zm-2-.5c-.2 0-.3 0-.5-.1 0 0-.1-.1 0-.1 0 0 .1-.1.1 0 .8.3 1.3-.3 1.7-.8.1-.1.1-.2.2-.2h.1v.1l-.2.2c-.3.4-.7.9-1.4.9zm1.8-1.5c-1 0-2.1-.8-2.5-1.8v-.1h.1s.1 0 .1.1c.3.2.5.2.8.5.6.4 1.7 0 2.9-.4.2-.1.4-.2.6-.2h.1v.1c-.2.1-.4.1-.6.2-1.2.5-2.3.9-3 .4-.4-.2-.5-.3-.8-.5.2.4.6.8 1 1.1.5.3 1 .5 1.5.4.6-.1 1.4-.7 1.5-.7h.1v.1s-.9.6-1.5.7c-.1.1-.2.1-.3.1zM31.3 14s-.5-.1-.9-.3c-.4-.2-.5-.8-.5-.8s0-.1.1-.1c0 0 .1 0 .1.1 0 0 .1.6.5.7.4.2.8.2.8.2-.1.1 0 .2-.1.2zm-5 0c-.3 0-.5-.1-.7-.4v-.1h.1c.4 0 1-.2 1.1-.7 0 0 0-.1.1-.1 0 0 .1 0 .1.1 0 .3-.2.5-.5.6-.2.1-.4.2-.6.2.3.4.9.2 1.4-.1.1 0 .2-.1.2-.1h.1v.1c-.1 0-.2.1-.2.1-.4.3-.7.4-1.1.4zm-3.4-.4c-.1 0-.1 0 0 0-.1-.1-.1-.1 0-.1.5-.2 1.1-.2 1.7-.2 0 0 .1 0 .1.1 0 0 0 .1-.1.1-.6-.1-1.3-.1-1.7.1zm8.4-.2c-.2 0-.5-.3-.7-.5-.3-.4-.1-1.6-.1-1.7 0 0 0-.1.1-.1 0 0 .1 0 .1.1-.1.5-.1 1.4 0 1.5.2.2.5.6.6.5h.1v.1c0 .1-.1.1-.1.1zm-6.2 9h-.2v-.1c.3 0 .5-.1.7-.2l.1.1c-.1 0-.3.2-.6.2z"/><path fill="#2A57C6" d="M36.1 39.3c.1.2.3.7.6.7s.4-.5.7-.4c.3.1.7.4.7.4s-.1-.8-.4-.9c-.4-.3-1.6-.4-1.6.2z"/><path d="M38.2 40.1l-.1-.1s-.4-.3-.7-.3c-.1 0-.2.1-.3.2-.1.1-.2.2-.4.2s-.3-.1-.5-.3c-.1-.1-.2-.3-.2-.5s.1-.3.2-.4c.4-.3 1.3-.2 1.5 0 .4.2.5.9.5 1v.2zm-2-.8c.1.2.3.6.5.6.1 0 .1-.1.2-.2s.3-.3.5-.3.4.2.5.2v-.2c0-.2-.1-.4-.3-.4H37c-.3 0-.6 0-.7.1-.1.1-.1.1-.1.2z"/><path fill="#2A57C6" d="M32.4 43.6c0-.7-.3-.9-.5-.8-.2.1-.5.4-.5.7-.1.3.1 1.1.9 1.2-.3-.4-.2-1.1.1-1.1z"/><path d="M32.5 44.8h-.3c-.3 0-.6-.2-.8-.4-.2-.3-.2-.6-.2-.8 0-.4.3-.7.6-.8.1-.1.3-.1.4 0 .1.1.3.3.3.8v.1h-.1c-.1 0-.1.1-.2.2-.1.2-.1.5.1.7l.2.2zm-.5-1.9c-.2.1-.5.3-.5.6 0 .2 0 .5.2.7.1.1.2.2.4.3-.1-.3-.1-.5 0-.7.1-.1.1-.2.2-.3 0-.4-.1-.5-.3-.6.1 0 .1 0 0 0zm.4.7z"/><path fill="#2A57C6" d="M29.3 41.3c.3-.2.3-.9-.2-.8-.2 0-.6.2-.8.4-.9.8-.8 1.4-.1 2.4.2-1.1.3-1.4 1.1-2z"/><path d="M28.3 43.5l-.2-.2c-.4-.6-.5-1-.5-1.3 0-.4.2-.8.7-1.2.2-.2.6-.4.8-.4.2 0 .3 0 .4.2.1.3 0 .6-.2.8-.8.6-.9.8-1 1.8v.3zm.8-2.9c-.2 0-.5.2-.6.3-.4.4-.6.7-.6 1.1 0 .3.1.5.3.9.1-.8.3-1.1 1.1-1.7.1-.1.2-.4.1-.6h-.3zm.2.7z"/><path fill="#2A57C6" d="M29.4 38.4c.8-.3.6-.5.5-1-.8-.3-1.8.2-1.8 1.2.6-.6 1.5-.4 1.3-.2z"/><path d="M28.1 38.8v-.3c0-.4.2-.8.5-1.1.4-.3 1-.4 1.4-.2h.1v.3c.1.4.1.7-.6.9l-.2.1.1-.2s-.1 0-.2-.1c-.2 0-.6.1-.9.3l-.2.3zm1.4-1.4c-.3 0-.6.1-.8.2-.2.2-.4.4-.4.6.2-.1.3-.2.5-.2s.5 0 .6.1l.1.1c.2-.1.3-.2.4-.2v-.5c-.1 0-.3-.1-.4-.1z"/><path fill="#2A57C6" d="M15.3 37.2c.2.6.7 1.3 1.4 1.2 0 0-.6-.7-.5-.9.1-.1.2-.4-.1-.5-.3-.2-.8-.2-.8.2z"/><path d="M16.7 38.5c-.7 0-1.2-.6-1.4-1.3 0-.1 0-.2.1-.3.2-.2.6-.1.9 0 .1 0 .2.1.2.2 0 .2 0 .3-.1.5 0 .1.3.5.5.8l.1.2-.3-.1zm-1.3-1.3c.2.5.5 1 1.1 1.1 0-.1-.1-.1-.1-.2-.3-.4-.3-.5-.2-.6 0-.1.1-.2.1-.3 0 0 0-.1-.1-.1-.3-.1-.5-.1-.6 0-.1 0-.2 0-.2.1z"/><path fill="#2A57C6" d="M14.6 34.5c0-.1-.4-.7-.6-.7-.4.2-1.2 1.1-.9 1.8.1.2.3.2.3.2s.1-.6.3-.7c.2-.1.3.1.5-.1.7-.2.4-.3.4-.5z"/><path d="M13.6 35.9c-.1 0-.4 0-.5-.2-.1-.2-.1-.5 0-.8.2-.5.6-1 .9-1.1.1 0 .2 0 .3.1.2.2.5.6.5.7v.1c0 .1.1.1 0 .2 0 .1-.2.2-.4.3-.2.1-.3.1-.4.1h-.2c-.1-.1-.2.2-.2.6zm-.4-.4c0 .1.1.1.1.1 0-.2.2-.6.4-.7h.2c.1 0 .1 0 .3-.1.3-.1.3-.2.3-.2v-.1s0-.1-.1-.2c0 0-.1-.2-.2-.3-.1-.2-.2-.2-.3-.2-.2.1-.6.5-.8 1 0 .3 0 .6.1.7zm1.3-1z"/><path fill="#2A57C6" d="M15.3 32.7s.9.2.9 0c.1-.2.2-.5 0-.7-.3-.1-.8-.4-1-.3-.3.1-.9.3-.9.6s.1.4.1.4c-.1-.3.8-.4.9 0z"/><path d="M14.4 33.1l-.2-.3s-.1-.2-.1-.5.5-.5.8-.6c.1 0 .1-.1.2-.1.3-.1.7.1 1 .3h.1c.3.2.2.5.1.8-.1.1-.3.2-.6.1-.2 0-.4-.1-.5-.1h-.1v-.1c0-.1-.2-.1-.3-.1-.2 0-.5.1-.5.2l.1.4zm1-.5c.3.1.7.1.8.1 0-.1.2-.4 0-.5h-.1c-.2-.1-.7-.3-.8-.3-.1 0-.1.1-.2.1-.2.1-.6.3-.7.5v.2c.1-.1.3-.2.5-.2.2-.2.4-.1.5.1z"/><path fill="#2A57C6" d="M14.7 25.2c.3.6 0 .6-.4 1 .8.2 1.3-.1 1.6-1.1-.4-.5-.7-.1-1.2.1z"/><path d="M14.7 26.4h-.6l.2-.1c.1-.1.2-.1.3-.2.1-.1.2-.2.3-.2 0 0 0-.1-.1-.4l-.1-.1.1-.1c.1 0 .2-.1.2-.1.3-.2.7-.4 1.1.1v.1c-.3.6-.7 1-1.4 1zm-.1-.3c.6.1 1-.2 1.2-1-.3-.3-.5-.2-.8 0l-.1.1c.2.5 0 .7-.3.9z"/><path fill="#2A57C6" d="M11.7 24.9c-.6.8-.2 1.4.2 1.8 0-1 .4-.8.5-1 0-.7-.6-.9-.7-.8z"/><path d="M11.9 27.1l-.2-.3-.1-.1c-.3-.4-.7-1-.1-1.8.1-.1.3-.1.5 0 .3.2.4.5.3.9 0 .1-.1.2-.2.2-.1.1-.3.2-.3.8l.1.3zm-.2-2.1c-.4.6-.3 1 0 1.4 0-.4.2-.5.4-.6.1 0 .1 0 .1-.1.1-.3-.1-.5-.2-.6-.1-.1-.2-.1-.3-.1zm0 0z"/><path fill="#2A57C6" d="M10.3 23.8c.2-.4.2-.6.1-.7-.2-.2-.3-.1-.5-.1-1 .2-.9 2.1-.2 2.4-.2-.6-.1-1.1.1-1.2.1-.1.5-.4.5-.4z"/><path d="M9.8 25.6l-.2-.1c-.5-.2-.7-.9-.6-1.5.1-.6.4-1 .8-1.1.2-.1.4-.1.6.1.2.2.2.4 0 .8-.1.2-.6.4-.6.4-.1 0-.2.4 0 1.1v.3zM10 23h-.2c-.4.1-.6.4-.7.9 0 .4.1.8.2 1.1-.1-.6 0-.9.2-1 .2-.1.4-.2.5-.3v-.1c.2-.4.1-.5.1-.6.1.1 0 0-.1 0zm.2.8z"/><path fill="#2A57C6" d="M11.3 20.7c.5-.7.1-.7-.2-.7-.3 0-.8.2-1 .4-.2.3-.4 1 0 1.3 0 0 .1-.8.5-.8s.4.2.5.1c.2 0 .1 0 .2-.3z"/><path d="M10.2 22l-.2-.1c-.2-.2-.3-.5-.2-.8 0-.3.1-.5.2-.7.2-.3.7-.5 1.1-.5.2 0 .4 0 .5.2.1.1 0 .4-.2.7-.1.1-.1.1-.1.2s0 .1-.1.2-.2.1-.3 0c-.1 0-.1-.1-.3-.1-.2 0-.3.5-.4.7v.2zm1-1.9c-.3 0-.8.2-.9.4-.1.1-.2.4-.2.6 0 .1 0 .3.1.4.1-.3.2-.6.5-.6.2 0 .3.1.4.1 0 0 0-.1.1-.1 0-.1 0-.1.1-.3.3-.4.2-.5.2-.5h-.3zm.1.6z"/><path fill="#2A57C6" d="M28.3 9.6s-1.2-.5-1.9-.4c-.7.1-1.8.5-2.6.3s-.9-.4-1.3-.7c-.3-.2-.6-.6-1-.4-.4.1-.1.9.4 1.2.5.3 1 .3 1.3.4.6 0 1.8-.1 2.2-.1 2-.3 1.6.4 2.6.4"/><path d="M28.1 10.3c-.4 0-.6-.1-.8-.2-.3-.2-.6-.3-1.8-.2-.4.1-1.7.1-2.3.1-.6 0-1-.2-1.4-.4-.4-.3-.7-.8-.6-1.1 0-.1.1-.3.2-.3.4-.1.7.1.9.3.1 0 .1.1.2.1l.2.2c.3.2.5.4 1 .5.5.1 1.2 0 1.8-.1.3-.1.5-.1.8-.1.7-.1 1.9.4 2 .4.1 0 .1.1.1.1 0 .1-.1.1-.1.1s-1.2-.4-1.9-.4c-.2 0-.5.1-.7.1-.6.1-1.3.3-1.9.1-.6-.2-.9-.3-1.1-.5l-.2-.2c-.1 0-.1-.1-.2-.1-.2-.2-.4-.4-.7-.3 0 0-.1 0-.1.1 0 .2.2.7.5.9.3.2.7.3 1.3.3.6 0 1.8-.1 2.2-.1 1.3-.2 1.6 0 2 .2.2.1.3.2.7.2.1 0 .1.1.1.1-.1.2-.1.2-.2.2z"/><path fill="#2A57C6" d="M12.5 7.5c.3-.1.4-.2.6-.1.1.1.3.3.4.5-.4.8-.6 1.1.3 1.8-1.6 0-1.7-1.3-1.3-2.2z"/><path d="M13.8 9.8c-.4 0-1-.1-1.4-.6-.2-.3-.4-1 0-1.8v-.1h.1c.1 0 .2-.1.2-.1.1-.1.3-.1.4 0l.3.3c0 .1.1.1.1.2v.2c0 .1-.1.1-.1.2-.3.7-.4.9.4 1.5l.3.2h-.3zm-1.2-2.2c-.2.4-.3 1.1 0 1.5.2.3.5.4.9.5-.7-.6-.5-.9-.2-1.6 0 0 0-.1.1-.1 0 0-.1-.1-.1-.2-.1-.1-.2-.2-.2-.3 0 0-.1 0-.2.1-.2.1-.3.1-.3.1z"/><path fill="#2A57C6" d="M14.7 8.4c-.4.5-.6.7-1.2.8.5.3 1.3.5 1.8 0 .3-.8-.1-1-.6-.8z"/><path d="M14.5 9.6c-.4 0-.8-.1-1.1-.3l-.3-.2h.3c.6-.1.7-.3 1.1-.7.3-.1.6-.1.7 0 .2.2.1.6 0 .9-.1.2-.4.3-.7.3zm-.7-.4c.4.2 1 .3 1.4-.1.1-.3.1-.6 0-.7-.1-.1-.2-.1-.4 0-.4.5-.6.7-1 .8z"/><g><path fill="#2A57C6" d="M11.7 9.1c.4.1.6.3 1 .3 0 0 0 .2-.3.3-.6.2-1.2.1-1.3 0-.4-.5 0-1 .6-.6z"/><path d="M11.6 9.9c-.3 0-.5 0-.6-.1-.3-.4-.2-.7 0-.8.1-.1.4-.2.8 0 .1 0 .2.1.4.1.2.1.4.1.6.1h.1v.1s0 .3-.4.4c-.3.2-.6.2-.9.2zm-.4-.3c.1.1.7.1 1.2 0 .1 0 .1-.1.2-.1-.2 0-.4-.1-.5-.1-.1 0-.2-.1-.3-.1-.2-.2-.4-.2-.5-.1-.3.1-.3.3-.1.4z"/></g></svg>