<svg baseProfile="tiny" xmlns="http://www.w3.org/2000/svg" width="48" height="48"><path fill-rule="evenodd" d="M24 48h-.2l-.9-.1-1.2-.1-1.1-.1-1.2-.2c-5.6-1.1-10-4.2-12.3-8.4-1-1.9-1.7-4.1-1.9-6.5L2.3.9V.8L2 .1h44v.6l-3 32.1c-.5 4.8-2.9 8.9-6.6 11.5-3.3 2.2-7.2 3.4-12.2 3.7H24z"/><path fill-rule="evenodd" fill="#FC0" d="M23.7.9H3l2.6 28.2.4 3.8.1 1 .2 1 .2.9.3.8.3.8.4.8.4.7.4.7.5.7.6.7.6.7.7.7.7.6.8.6.7.4.8.5.8.4.8.4.9.4.9.3 1 .3 1 .3 1.2.2 1.1.2 1.1.1 1.2.1h.2L23.7.9z"/><path fill-rule="evenodd" fill="#F6F6F6" d="M43.2 19.2L24.8.9h12.3L44.2 8l-1 11.2zM24.5 47l1.1-.1c1.3-.1 2.5-.3 3.7-.6l-4.8-5V47zm13.6-5.5c2.2-2.4 3.5-5.3 3.8-8.8L24.4 15.2v12.2l13.7 14.1z"/><path fill-rule="evenodd" fill="#E2001A" d="M30.2 46.2l-5.7-5.9V28.5L37.6 42c-2 2-4.4 3.2-7.4 4.2zm11.9-14.5l1.1-11.4L24.5 1.6v12.5l17.6 17.6zm2.3-24.8l.6-6h-6.7l6.1 6z"/><path fill-rule="evenodd" d="M21 28.6c.2-.2.1 1.8.1 1.8-.2 2.5-1.9 2.4-1.9 2.4l-.7-.1c-.5.1-.4.5-.4.5.9 2.6 3.6.1 3.6.1 0 .8-.8 1.2-.8 1.2-1.3.5-1.2.5-1.2.5-1.1.5-.8 1.8-.8 1.8.9-.5 1.6-.5 1.6-.5-.8 1.3-2 1.7-2 1.7-2 0-.8-1.4-.8-1.4-2.2.1-1.4 1.9-1.4 1.9-.7.6-1 1.3-1 1.3-.8 1-.1 2.1-.1 2.1.9 1.2 2 .6 2 .6-1.1-.3-1-1.2-1-1.2.3-1.3 1.3-1.3 1.3-1.3.3 2.1 1.9 1.4 1.9 1.4-1.6-1.6.7-2.8.7-2.8 1.6-1.1 2.3-2.3 2.3-2.3C22.7 40 20 40 20 40c.8 1.1 3 .1 3 .1.2.7-.8 1.4-.8 1.4-.5.3-.9.9-.9.9-.4.8.3 1.4.3 1.4.3-.5 1.4-1.2 1.4-1.2-.6 1.9.7 3.4.7 3.4V11c-.7-1-1.2-2.2-1.2-2.2-.5-1 .1-1.2.1-1.2-1-.9-1.1-2-1.1-2 .7-.4.8-.8.8-.8 0-.1-.3-.1-.3-.1-1.5.1-2-1-2-1 0-.1.4-.3.4-.3.4-.2.5-.4.5-.4.1 0 .1-.1.1-.1-.2.2-4.4 0-4.4 0-.3 0-.9.5-.9.5h-.5c-.3.1-.4.5-.4.5-.7.2-1 .7-1 .7-.2.8.2 1 .2 1 .9-.6 1.4-.5 1.4-.5.3-.2.8.1.8.1-.5.1-.9.4-.9.4-.8.6-1.4.6-1.4.6-.8.1-1.3-.8-1.3-.8s-.5.6 0 1.2c0 0 .5.5 1.6.2 0 0 1.9-.9 2.5-1 0 0 .2.2-1 .4 0 0-.3 0-.6.2 0 0 .5.7 1.4.4 0 0 .4-.1 1-.4 0 0 .6-.4 1.1 1s0 .1 0 .1.2.6-.8 1.2c0 0 .5.4 1.1.3 0 0 0 1-1.1 1.9 0 0 .4.8 1.5 0 0 0 .1.3-.4.8 0 0 .1.2.4.2 0 0 .3 0-.4.7 0 0-.2.2-.4.8 0 0-.3.6-1.8-.4 0 0-.8-1.1-1-1.2v-1s0-.7-.8-1.4c0 0-.3-.1 0-1.1 0 0-.1-.2-.6.3 0 0-.2.5-.4-.4 0 0 0-.7.5-.8 0 0 .7-.1.9.4 0 0 .2.2.2.1 0 0-.1-.5-.7-.8 0 0-1.1-.2-1.4.3 0 0-.9.9 0 2.3 0 0-.6.9 0 1.4 0 0 .8.7 1.2-.3 0 0 .1-.1-.3 0 0 0-.5 0-.3-.7 0 0 .4-.5.8.1 0 0 .4.7.1 1.4 0 0-3.1 1.5-3.2.2 0 0 .1-2.3-.9-3.3 0 0-.6-.5 0-1.3 0 0 .7-.5.5-1.8l.1-.4s.8-1.1-.2-1.5c0 0-.7-.4-1.2-.2H8.7s-.5.1-.7.2c0 0-1.2.7-2.3-.3 0 0-.8-.2-.8.1 0 0-.1.8 1.1 1.6 0 0 .4.3 1.1.2 0 0 .7.2 0 .8 0 0 0 .3-1.8.2 0 0-1.3.1-.4 1 0 0 1 .5 1.7.4 0 0 .5.1.5.8 0 0-.7 1-2 1.8 0 0-.8.5.3 1.2 0 0 1.3.1 1.8-.1 0 0 1.6.2-.8 2.1 0 0-.6.5-1.1.7 0 0-.8.4.6 1 0 0 1.6.3 2.3-.3 0 0 .8-.5.3.9 0 0-.9 2.1-2.9 2.5 0 0-1.1.4.3 1.5 0 0 2.6 1 4.4-2.4 0 0 .6.1-1 2.6 0 0-1.4 2.3-3.5 3.2 0 0-1 .5.4 1.5 0 0 .9.4 2.1.1 0 0 2.3-.9 4.3-6 0 0 .5-1.3.4.3 0 0-.3 3.1-2 5.5 0 0-1.3 3.4-4.6 5.3 0 0-.4 1 1.1 1.3 0 0 2.7.3 5.4-5 0 0 2.3-6.1 2.3-6.4 0 0 .4 4.4-1.8 8.6 0 0-.7 1.8-2.2 3.1 0 0-.8.9.8 1.1 0 0 2.2 0 4.1-4.2 0 0 1.9-5.3 1.9-9.2 0 0 .5 3 1.2 5 0 0 .5 1.2 0 1.7 0 0-1.3 1.2-1.7 2.4 0 0-1.1 1.6-1.2 1.7h.1s-.7.6.1.4c0 0 1.1-.8.6.6 0 0-.2.3.9.2 0 0 .3-.1 1 .1 0 0 .2.3.4-.5 0 0 .5-1.3 1.4-2 0 .2.2.1.2 0z"/><path fill="#FFF" d="M17.3 16.2s0-.3 0 0c-.1 0-.1 2.2-.6.1 0 0 .1.8-.3 1 0 0-.3.2-.3-1 0 0-.1-.2-.1.2 0 0-.1 1.8-.4-.3 0 0-.1.8-.4.8 0 0-.1 0 .1-1.2l-.1.1s-.5 1.9-.4.1c0 0 0-.2-.1 0 0 0 0 .9-.3.8 0 0-.4.1 0-.7l.1-.4s-.1-.2-.2.3c0 0-.4 1.2-.3-.3 0 0 0-.3-.2.2 0 0-.2.4-.3.3v-.4s0-.2.2-.6c0 0-.1-.1-.4.7 0 0-.4.1-.2-.8 0 0 0-.2-.1.2 0 0 0 .1-.1.2 0 .1-.1.3-.2.4-.2.5-.5 1.2-.5 1.2s-.5.1.1-1.8c0 0-.4.8-.4.5 0 0-.2-.1.1-.5l.1-.5s-.6.9-.4-.3c0 0-.7.3-.4-.3 0 0 .2-.3.2-.4h-.1s-.6 1.4-.6 0c0 0-.2.3-.4.3 0 0-.4.1 0-.5l.1-.2s-.1-.1-.2.2c0 0-.4.8-.3-.2v-.6s-.3.9.1 1.6c0 0 .1.1.3 0 0 0 .4-.3.4.2 0 0 .1.5.3.3 0 0 .5-.3.4.1l.4 2.3s.1.9.8.3c0 0 .1 1.4 1 .6 0 0 .2-.2.3.5 0 0 .3.6.7.3 0 0 .2 1.1.8.4 0 0 .5-.5.5-.9 0 0 .1-.3.3.5 0 0 .6 1 .9-1.4 0 0 .3-.2.5-1.4.1-.1-.5 1.9-.4 0zm-.5 2.4s-.2-.3-.1-1.1c0 0-.1-.2-.1.2 0 0 .1 1.6-.3.4 0 0-.1-.2-.1-.3 0 0-.1-.2-.2.5 0 0-.7 1.3-.7.6 0 0 .1-1 .2-1 0 0 0-.1-.1.3 0 0-.3 1.6-.5.5v-1s-.1-.2-.2.5c0 0 0 .4-.1.4 0 0-.2.2-.1-.4l.1-.7s.1-.7-.1-.1c0 0-.2 1.8-.4.7 0 0-.2-.6-.1-1 0 0-.1-.1-.1.2 0 0 0 .5-.2.6-.1 0-.7.3-.4-.2 0 0 .4-1 .2-.8 0 0-.5 1.3-.6.7 0 0-.2-.5.2-1 0 0 .1-.4-.3.4 0 0-.8 1-.3-.3 0 0 .2-1 .4-1.1 0 0 0 1 .5.8 0 0 .3-.4.4.2 0 0 0 .4.6.2 0 0 .2-.1.2.1 0 0 .1.3.6 0l.2-.1s.1-.1.1.1c0 0 .1.8.8.4 0 0 .1 0 .2-.3 0 0 .1-.1.2.2 0 0 .1.1.3.2.2.2.2 1.1-.2 1.2zm-.5-15.1s.1-.4.7-.4c0 0 .8 0 .9.1 0 0 0-.1.1 0 0 0 .1.1.7.1 0 0-.5.2-1.1.1 0 0-.9-.4-1.3.1zm1 .5c.7 0 1.2.3 1.2.3.1 0 .1-.1.1-.1-.1-.6-1-.8-1-.8 0 .3-.3.3-.3.3-.2-.1-.2-.3-.2-.3-.7.2-.5.8-.5.8.3-.2.7-.2.7-.2zm5.6 37.5c-.5.3-.8.6-.8.6-.4.4-.4.8-.4.8 0-.3.4-.6.4-.6l.7-.5c.6-.5.5-.9.5-.9 0 .3-.4.6-.4.6zm-1.2-1.8c2.1-1.4 1.6-3.9 1.6-3.9.1 2.7-1.6 3.9-1.6 3.9zm.2-9.3c-.7 2.9-2.8 2.7-2.8 2.7 2.7.1 2.8-2.7 2.8-2.7zM15.7 41c.1-1.3 1.7-2 1.7-2 1.8-.7 2.3-1.1 2.3-1.1 2.8-1.9 2.7-4.7 2.7-4.7 0 .3-.2.9-.2.9-.7 1-2.4 1.4-2.4 1.4s.8.2 2.2-.9c0 0-.4 1.6-1.9 2.8 0 0-1.1.8-2.2 1.2 0 0-1.6.7-2 1.6 0 0-.4.8-.2 1.3V41zM14.2 9.8c-.6-.4-.7-1.1-.7-1.1 0 .9.7 1.1.7 1.1zm5.1-2.4s-.1.8-.6 1.1c0 .1.6.1.6-1.1zm.2 2.2s-.3.9-.8 1.3c0-.1.7-.3.8-1.3zM19 6.1c-.3-.5-.8-.3-.8-.3.3.3.8.3.8.3zm-.4.4s-.1-.4-.3-.3c0 0 0 .1.3.3zm-.4-1.3c.3-.1.2-.2.2-.2-.1.1-.5 0-.5 0-.2.1.3.2.3.2zm.5.3c0-.2-.4 0-.4 0-.1 0-.1.1-.1.1l.5-.1zM7 5c-.1-.1-.3-.1-.3-.1-.2 0-.3-.1-.3-.1h-.3c.6.6.9.2.9.2zm-.4 2.6c-.3-.1-.5.1-.5.1.3.1.5-.1.5-.1zm2.3 11.3c.3-.4 0-.6 0-.6.1.1 0 .6 0 .6zm-.5.3c.2-.4.1-.7.1-.7-.1.2-.1.7-.1.7zm-.6.6c.3-.3.3-.6.3-.6H8l-.2.6zm.3-15c.1.2.4.3.4.3l.1.1c-.6.2-.6.6-.6.6l.2.1c.5 0 .3.1.3.1-1.7 1-2.3.8-2.3.8-.2 0-.2.1-.2.1 0-.1.1-.1.1-.1 1.6 0 2.9-1 2.9-1-.3 0-.4-.2-.4-.2.2-.1.4-.1.4-.1-.2-.1-.5-.1-.5-.1-.1-.1.1-.2.1-.2.5-.2.3-.3.3-.3-.6-.2-.6-.4-.6-.4 0-.1.8 0 .8 0v.2c-.4 0-.3-.2-.3-.2.2 0 .2-.1.2-.1-.1-.1-.7 0-.7 0-.6.2-1.1.2-1.1.2-.8 0-1.3-.4-1.3-.4.7.6 2.2.6 2.2.6zM9 6.2s-.9.3-.9.7c0 0 .3.4 1.2.2 0 0-.7-.1-.7-.2 0 0 .6-.3.7-.3 0 0-.4-.1-.5-.1 0 0-.3.1-.1-.2 0 .1.2 0 .3-.1zM7.9 7.4s-.6.2-.5.9c0 0 .1.2.7.1 0 0-.7 1.2-1.8 1.9 0 0 1.2-.5 2.1-2 0 0 .1-.1-.2 0 0 0-.5.1-.2-.3 0 0 .2-.1.4-.3 0 0-.4.1-.5.2 0 0-.3.2-.2-.2l.2-.3zm4.1 8.4s-1.1 2.5-1.4 3c0 0-2.1 4-4.4 4.7 0 0 1.5.4 4.5-4.6 0 0 1.2-2.4 1.2-2.5 0 .1.1-.2.1-.6zm-2-1c.1-.4-.1-.1-.1-.1C8.5 18.1 6 18.8 6 18.8c2.4-.2 4-4 4-4zm-1.3-2.5c.7-1.4.1-.6.1-.6-1.3 2.2-2.3 2.5-2.3 2.5.8-.1 2.2-1.9 2.2-1.9zm5 6.1c.1-.6-.1.1 0 0-.5 3.1-2.5 8.1-3.9 9.8s-2.5 2-2.5 2c2.2-.5 3.8-3.3 4.8-6.1.8-2 1.1-3.2 1.3-4.1.1-.4.2-.7.2-1 0-.2 0-.4.1-.6zm2.6.5c0-.6-.1-.6-.1-.6-.4 6.1-1.9 10.1-1.9 10.1-1 2.4-2.3 3.5-2.3 3.5 3.4-1.9 4.3-13 4.3-13zM8.7 4s.4 0 .4.1c0 0 0-.1.1-.1h-.5zM7.4 19.2s-.1.3-.4.6c.1 0 .4-.2.4-.6zm-.8.2s-.6.4-.7.3c0 0 .3.2.7-.3zm.2-4.3c-.3.3-.6.3-.6.3.4 0 .6-.3.6-.3zm3.1-2.3c-.2.2-.6.3-.6.3-.3.1.1-.5.1-.5.4-.7.1-.4.1-.4-.7 1-.6.5-.6.5-.1-.7.4-1.5.4-1.5.3-.2 0-.1 0-.1-.2.1-.6.2-.6.2-.8.1.1-.4.1-.4.9-.7-.3 0-.3 0-.5.3.3-.9.3-.9.4-.3.2-.3.2-.3-.1 0-.4.1-.4.1-.6 0 0-.4 0-.4.2-.1.3-.2.3-.2 0-.1-.3.1-.3.1-.7.3 0-.4 0-.4s-.6.2-.7 1c0 0 .1.2.7.1 0 0 .3-.1-.4.7 0 0-.6 1.1.3.9 0 0 .7-.2.3.3 0 0-.3 2.2.9 1.2 0 0 .3-.1.5-.5l-.3.2zm-.8.6s-.5.8-.1 1.5c0 0 .2.2.7 0h.1s-.1 1.3.6.9h.1s-.3.7.1 1.2c0 0 .5.2 1.1-1.2 0 0-.5.7-.8.8 0 0-.3.1.1-.5 0 0 .4-1 0-.4 0 0-.6 1.4-.4 0 0 0 0-.2.3-.7 0 0 .1-.4-.2.1 0 0-.3.5-.4.4 0 0-.3.2-.1-.3l.2-.6s0-.1-.2.3c0 0-.2.6-.2-.2 0 0 .2-.6-.1-.2 0 0-1.2.4-.6-.3 0 0 .5-1 .1-.5l-.3.4s-.1.3-.1-.4c0 .2.2-.4.1-.3zM7.9 24.1s-.2.7-.5.9c-.1.1.4-.1.5-.9zm.5 0s-.2.5-.3.6c0 0 .2 0 .3-.6zm1.4-1.9s0 1-.2 1.2c0 0 .3-.2.2-1.2zm.4-.7s0 1-.1 1.2c0 0 .4-.8.1-1.2zm.5-.5s0 .8-.1 1c.1 0 .4-.5.1-1zm-.3 8.6c.1-.1.2-.4.1-.9.1 0 0 .7-.1.9 0 0 0 .1 0 0 0 .1 0 0 0 0zm.5-1.6s.1.4.1.9c-.1 0 .2-.5-.1-.9zM9 30s0 .4-.5 1c0 0 .6-.4.5-1zm-.8.7s-.5.6-.7.6c0-.1.4.1.7-.6zm3.1-3.1s.1.5.1.9c0 0 .2-.7-.1-.9zm-1.4 1.6s-.1.8-.2.9c0 .1.3-.2.2-.9zm2.8-5s0 .6.2 1c.1 0 0-.7-.2-1zm.3-.6s0 .2.3.9c0 0-.1-.7-.3-.9zm.4-.6c0 .5.2.7.2.7 0-.3-.2-.7-.2-.7zm-.8 2.6c.1-.7-.1-.9-.1-.9.1.2.1.9.1.9zm2-6.2s-.2.4-.1 1c.1 0 .2-.5.1-1zM12 32.2c0 .2-.4.4-.4.4.5.1.4-.4.4-.4zm.6-.3c0 .3-.4.8-.4.8.5-.5.4-.8.4-.8zm.7-.4c0 .1-.2.8-.2.8.4-.5.2-.8.2-.8zm.8-1.1v1c0 .1.2-.7 0-1zm.5.1v.6c.1-.1.1-.8.1-.8-.1-.1-.1.2-.1.2zm1.5-3.3c-.1 0 0 .5 0 .5.1-.6 0-.5 0-.5zm-.3.5s.1.4-.1.7c.1 0 .3-.3.1-.7zm1.3-7.2s0 .7.1.8c0-.1.1-.5-.1-.8zm.6-2.3s0 .4.2.8c0 0 0-.4-.2-.8zm-.2 1.7s-.1.1-.1.7c.1 0 .2-.4.1-.7zm5.3 14.9c.5.3.7-.5.7-.5.2-.8-.1.1-.1.1-.4.8-.2-.5-.2-.5 0-.3-.1-.2-.1-.2-.2 1.5-.3-.1-.3-.1s-.1 0-.1.1c-.2.8.1 1.1.1 1.1zm-.5-4.1s-.2 1.4.4 1.4c0 0 .6 0 .5-1.5 0 0 0-.1-.1.4 0 0-.3 1.4-.4.3 0 0 0-.9-.1-.3 0 0-.1 1.3-.2.3 0-.2 0-.7-.1-.6zM19.9 7.2s.1 1.3.5 1.2c0 0 .3-.1.3-1.1 0 0-.3.9-.3.2l-.1-.6s0 1.4-.4.3zm1 1.2s-.1 1.8.4 1.3c0 0 .4-.3.4-1.1 0 0-.4 1.2-.4.5 0 0-.1-.4 0-.7l-.1.2s-.1.7-.2 0c-.1.2-.1 0-.1-.2zm-.8.7s-.3.3-.2.9c0 0 .1.3.3.3 0 0 .1.5-.2 1.1 0 0 .5-.5.3-1.1 0 0 .4-.5.3-.9 0 0-.2.7-.3.2v-.4s-.2.7-.3.3c0 .1-.1-.2.1-.4zm1.5 1s-.2 1.3.2 1.4c0 0 .6-.2.4-1.2 0 0-.1 0 0 .3 0 0-.1.7-.3.1 0 0 0-.7-.1-.2 0 0-.1.7-.2 0 .1-.1.1-.4 0-.4zm-1.7 2.3s-.5 1.1 0 1.3c0 0 .4.1.6-.8 0 0 0-.1-.1.1 0 0-.5.7-.3 0 0 0 .1-.5 0-.1 0 0-.3.5-.2-.1-.1 0 0-.2 0-.4zm.6-1.5s-.4 1.1 0 1.3c0 0 .2 0 .2-.1 0 0 .2 1.4.7 1l.2-.2s.5 1 .8.5c0 0 .3-.3.3-1.1 0 0-.2 1-.4.8 0 0-.2-.6 0-.7 0 0-.1.1-.2.5 0 0 0 .5-.3-.1 0 0-.1-.4-.1-.7 0 0-.3 1-.4.5 0 0-.1-.6 0-.7 0 0-.2 1.2-.5.4 0 0-.1-.2.1-.5l.1-.4s-.5.8-.3 0c0 0 .1-.5-.1-.2 0 0-.2.7-.2 0 .1-.1.2-.3.1-.3zm-1.2 3.2l-.2.6c-.3.9-.1-1.1-.1-1.1s-.5 1.3-.1 1.9c0 0 .5.6.7-1.1.1 0-.4 1.7-.3-.3zm.8.1s.2 1.9.8.6c0 0 .2-.6.2-1.2 0 0-.4 2-.5.9v-.7s-.2 1.5-.5.4c.1-.1 0-.1 0 0zm1.9 1c-.4.9-.4-.8-.4-.8v.3c-.1 1.6-.3-.3-.3-.3s-.2 1.6.4 1.6c0 0 .6-.3.5-1.5l-.2.7zm-1.6.9s0 2 .5 1.7c0 0 .3-.3.3-1.4 0 .1-.1-.1-.1.4 0 .4-.3.8-.2 0 0 0-.1-1.1-.1-.3 0 0-.1 1.2-.2 0-.1 0-.1-.4-.2-.4zM18.5 18s-.2.5.1 1.5c0 0-.1-.7-.1-1.5zm2.9 3.5s.1 1.3.6.5c0 0 .2-.8.1-1.2 0 0-.2 1.4-.3.5v-.5s-.1-.1-.1.4c0 .2 0 .9-.3.3zm-.6-1.5s0 1.5.5 1.3c0 0 .3-.5.2-1.4 0 0-.3 1.4-.4-.2.1 0 .1 1.5-.3.3zm.1-1.9s0 1.6.6 1.2c0 0 .4-.5.3-1.7 0 0-.3 2.5-.4.2 0 0-.2 1.9-.5.3zm.9 1.1s-.1 0 0 0c-.1-.1-.1 1.1.4 1.2 0 0 .4-.3.4-1.3 0 0 0-.1-.1.4-.1.4-.3.6-.3-.5 0 0-.1-.2-.1.2 0 0-.1 1-.3 0zm-2.8-1s-.2 1.6.4 1.5c0 0 .2-.1.4-.3 0 0 .2.9.6.7 0 0 .4-.2.2-1.5 0 0-.1.9-.2.9 0 0-.1 0-.1-.3 0 0-.1-.9-.1-.4 0 0 0 .9-.2.7 0-.1-.2-.2-.2-.5 0 0 0-1.5-.1-.8 0 0-.3 2.3-.4-.1 0 0 0-.1-.1.1 0 0 0 1.4-.2.4.1.1.1-.6 0-.4zm3-2s-.1 1.4.5 1.5c0 0 .5-.3.5-1.4 0 0-.2.7-.4.9-.1.1-.1 0-.1-.9 0 0-.1-.1-.1.2-.1.1 0 1.7-.4-.3zm-3.5-.4s-.4 1.9.3 1.7c0 0 .5-.5.5-.9 0 0 .4 1.1.9-.3 0 0 .1-.4.1-.9 0 0-.5 2.2-.4.1 0 0-.1 0-.2.3 0 0-.1 1.6-.4.1 0 0-.5 1.9-.3 0 0 0-.1-.2-.1.2-.1.1-.4 2.3-.4-.3zm.1 4.4s-.1-.4 0 0c-.1 0-.1 1.3.4 1.2 0 0 .4 0 .3-1.3 0 0-.1-.3-.1.2s-.3 1.2-.3 0c0 0-.1-.8-.1-.1 0 0 0 1.2-.2 0zm.4 2s-.1 1.4.3 1.5c0 0 .5.1.5-1 0 0-.1-.1-.1.1 0 0-.3 1.2-.3.1 0 0 0-1-.1-.5 0 0-.1.8-.2.1 0 0-.1-.6-.1-.3zm.6-1.7s-.1 1.6.5 1.5c0 0 .4-.3.2-1.1 0 0-.1-.2-.1.2 0 0 0 .3-.1.4 0 0-.1 0-.1-.4 0 0 0-.9-.1-.3 0 0-.1.6-.2.1 0 .1 0-.4-.1-.4zm.6 2s.3 1.5.8.9c0 0 .2-.7.2-1 0 0 0-.3-.1.1 0 0-.2 1.1-.3.4 0 0-.1-1.1-.2-.6 0 0 0 .9-.2.4 0 0-.2-.5-.2-.2zm.9 1.1s0 .7.6.7c0 0 .4-.3.3-1.4 0 0-.1-.1-.1.3 0 0-.2 1.6-.3.1 0 0 0-.6-.1 0 0 0 .1 1-.2.6l-.2-.3zm1.1-1.4s0 1 .3 1.1c0 0 .6-.1.4-1.6v.1c0 .1-.1.9-.2 1 0 0-.1 0-.1-.2 0 0 0-1.1-.1-.6 0 0 0 1.1-.2.5 0 0 0-.4-.1-.3zm-2.5 2s.2 1.1.5.9c0 0 .4-.1.2-1 0 0-.1-.2-.1.1 0 0-.1.7-.2-.2l-.1-.3s-.1-.1 0 .4c0 0 .1.9-.2.2 0-.1-.1-.3-.1-.1zm2.3.2s-.1 1.3.6 1.1c0 0 .4-.3.3-1.1 0 0 0-.4-.1 0 0 0-.3 1.4-.3.3 0 0-.1-.9-.1-.3-.1 0-.1 1.3-.4 0zm-4.5 5c-.4.7-.8.8-.8.8.8-.1.8-.8.8-.8zm1.7 1.6c.1-.8.7-1.4.7-1.4-.8.2-.7 1.4-.7 1.4zm-.4-1.8s-.2-.1-.5 1.2c0 0 0 .6.7 0 0 0 .3-.3.3-.7 0 0-.8 1.1-.4.3 0 0 .3-.8.1-.4 0 0-.7 1-.3 0-.1 0 0-.4.1-.4zm-.4-1.5s-.4.7-.3 1.3c0 0 .4.4 1-.9 0 0-.9 1-.5.2l.2-.6s-.8 1.4-.5.4c0 0 .3-.6.1-.4zm1.4-1s-.4.7-.3-.2c0 0 .1-.3.1-.4 0 0-.6.7-.2 1.3 0 0 .4.3.9-.8 0 0-.3.5-.5.5 0 0 .1-.5.2-.6 0 0-.1 0-.2.2zm.5.4s-.9.9-.5 1.5c0 0 .4.3 1.1-1 0 0 0-.2-.1.1 0 0-.9.9-.4 0 0 0 .3-.7-.1-.1 0 0-.8 1-.3.1.1-.1.4-.6.3-.6zm2.5.5c.3.1.5-.8.5-.8.1-1.3-.1-.1-.1-.1-.3 1.1-.3 0-.3 0-.1-1-.1 0-.1 0-.1 1-.3-.2-.3-.2 0-.3-.1 0-.1 0-.1 1 .4 1.1.4 1.1zM21.7 26v-.4l-.1.8c-.1.9-.3 0-.3 0-.1-.3 0-.9 0-.9.1-.3 0-.2 0-.2-.5 1.3-.4-.3-.4-.3.1-.9-.1 0-.1 0-.1.6-.2.3-.2.3 0-.3-.1 0-.1 0 .1 1.7.6.7.6.7-.1.8.3 1.2.3 1.2.9.2.6-1.3.6-1.3-.3 1.6-.3.1-.3.1zm1.6 2.9c-.3 1.2-.3-.1-.3-.1 0-.7-.1-.5-.1-.5l-.1 1c-.3-.1-.4-1.1-.4-1.1-.1-.6-.1-.1-.1-.1-.1 1.3-.3.1-.3.1-.1-.7-.1-.3-.1-.3 0 1.2-.2.9-.2.7-.1-.2-.1-.6-.1-.6s-.3.6.1 1c0 0 .3.5.6-.3 0 0 .2 1.3.8 1.1 0 0 .4-.2.4-1.2-.1-.4-.2.3-.2.3zm-5.5 1.8l-.1.1c.1 0 .2-.1.1-.1s.1-.3.1-.3c-.3.3-.1.3-.1.3z"/><path fill-rule="evenodd" d="M10.5 38.9c-.6-.5-.4-1-.4-1 .1-.4.3-.6.3-.6l-.1-.1c-.3-.2-.1-.4-.1-.4.2-.3.9-.4.9-.4 0-.1.6-.7.6-.7h-.1c-.4-.1-1.2.2-1.2.2-.7.3-.6 0-.6 0 0-.3-.1-.3-.1-.3-.2 0-.7.3-.7.3-.2-.3-.1-.7-.1-.7.2-.5.8-.5.8-.5 0-.1.1-.2.1-.2.2-.2.5.1.5.1.5.4.7.3.7.3.6-.4.9-.3.9-.3.7.4 1.6-.4 1.6-.4 1.1-.8 3-3.6 3-3.6s.2-.4.6-.4c0 0 1.4-.2 1.3 1.2 0 0-1.6.9-3.5 2.9 0 0-.4.4-.3.6 0 0 .2 0 .7-.2 0 0 .8-.6 1.3-.1 0 0 .8-.3 1 .4 0 0 .1.6 0 .7 0 0-.3-.4-.8-.4 0 0 0 .4-.1.6 0 0 0 .1-.9.1h-1.6s-.3.3-.2 1c0 0-.3.8-.2 1.2 0 0 .3.4-.4.7 0 0-.1.4.3.9 0 0-.9 0-1.1-1 0 0-.5-.3-.2-.7 0 0 .6-.3.7-1.9 0 0-1.1 1.1-1.3 1.2 0 0-.1.3-.2.5 0 0-.5.3-.6.3 0 0-.4.5-.4.8l-.1-.1z"/><path fill="#F29400" d="M14.3 33.5l.2.2c-.1.1-.2.2-.3.4l-.2-.2c.1-.2.2-.4.3-.4zm-.8.9s0 .1.2.2l.3-.3-.2-.2c-.1-.1-.2.1-.3.3zm1-1.2l.2.2.3-.3-.2-.3c-.2.2-.3.4-.3.4zm2.7-3s-.2 0-.5.4l-.1.1.4.4c.1-.1.2-.4.2-.9zm-1 1l.4.5s.2-.1.4-.4l-.5-.3c-.1 0-.2.2-.3.2zm-.4.6l.3.4.3-.3-.3-.4-.3.3zm-.9 1l.2.3.3-.3-.2-.3c-.1 0-.2.2-.3.3zm.4-.6l.3.3c.1-.1.2-.2.4-.3l-.3-.2c-.2 0-.3.2-.4.2zm2.7-1l-.5.1s-.6.4-1.2.9c0 0-1.8 1.7-2.5 2.5 0 0-.1.3-.4-.1 0 0 0-.1-.2 0 0 0-.3.3-1.3.1 0 0-.1.8-.2 0 0 0-.3.1-.3.2 0 0-.1.6-.2.1h-.3s-.2 1-.2 0c0 0-.3-.4-.7-.4v1.2s.6-.1 1.1-.3c0 0 .9 0 1 .1 0 0 .1.1-.1.2l-.2.2s0 .6-.2.1l-.4.4s0 .5-.1 0c0 0-.5 0-.7.2v.1s.8.5.8.7h.3s.2-.3.2-.6c0 0 .5-.5.6-.4 0 0 .8-.9.9-.9 0 0 .2 0 .2.1 0 0-.1.4 0 .5 0 0 .6.3 0 .2l-.1.4s.3.6-.1.2c0 0-.1.5-.2.4 0 0 .5.7-.1.2 0 0-.3.1-.4.5 0 0 .4.7 1.4.2 0 0-.2-.7-.1-1.1 0 0 .1-.3.2-.8 0 0 0-.6.3-.8l2.4-.1s.3-.6-.3-1.1c0 0-.2 0-.4.1 0 0 .4.7-.2 0l-.2.1s.3.8-.2.1l-.2.1s0 .7-.2.1c0 0-.5 0-.4-.4-.1 0 1.1-1.5 3.4-3.3zM14 5.3s-.3-.6.1-1c0 0 .3-.3.7-.4 0 0 .1-.1.1-.2 0 0 0-.5.7-.3 0 0 .1.3 0 .7 0 0 0 .1.3.1 0 0 1 .1 1.4 1 0 0 .3.5.1.8 0 0-1.7.9-2.1.2 0 0 1.2-.1 1.8-.8 0 0-.5-1-1.6-.9.1.3-.5.3-1.5.8z"/><path fill-rule="evenodd" fill="#E5352D" d="M9 35.7s-.3-.5.2-.8c0 0 .3-.2.5-.1v.6s-.6.1-.7.3zm1.5 2.8c.1-.7.6-.8.6-.8l-.5-.4c-.7.7-.1 1.2-.1 1.2zm6.2-4l.2.4s.4 0 .7.2c0 0 .1-.2-.1-.4-.1.1-.5-.3-.8-.2zm-3.3 4.7c-.2-.5-.1-.6-.1-.6 0-.1-.6-.1-.6-.1.2.7.7.7.7.7zm-.8-33.6s-.4.8.5 1c0 0 .5.3 1.7-.4 0 0 1.2-.6 1.4-.6l.5-.1s.2-.6-1-.2c0 0-.7.5-1.3.7 0 0-1 .5-1.4 0l-.4-.4z"/></svg>