<svg baseProfile="tiny" xmlns="http://www.w3.org/2000/svg" width="48" height="48"><path fill="#FFF" d="M24 47.5c-10.2 0-18.7-8-19.2-18.2V.5h38.5v28.9c-.6 10.1-9.1 18.1-19.3 18.1z"/><path fill="#1E1E1C" d="M42.8 1v28.3c-.6 10-8.8 17.8-18.8 17.8S5.8 39.3 5.2 29.3V1h37.6zm1-1H4.2v29.3C4.8 39.7 13.5 48 24 48s19.2-8.3 19.7-18.7L43.8 0z"/><path fill="#E3B70C" d="M28.8 31.3H19v10.5h9.7V31.3z"/><path fill-rule="evenodd" fill="#8E1E13" d="M30.5 24.8l7.2 16.8 2.7-3.6-10.9-23.1v-5l3.5-.6.8-1.7V5.2H13.6v2.5l.8 1.7 3.6.6v5L7.3 37.7l2.7 3.6 7.1-16.4h3.6v5h-3.2v5.7h-1.7v9.7s3.6 2 7.4 2h1.4c4.9-.4 7.2-1.8 7.2-1.8v-9.8h-1.7V30h-3v-5l3.4-.2zm-1-19h3.6v1h-3.6v-1zm-5 0h3.6v1h-3.6v-1zm3 3.8v4.8h-7.2V9.6h7.2zm-8-3.8h3.8v1h-3.8v-1zm-1.5.9h-3.6v-1H18v1zm3 34.9h-1.7V31.5H21v10.1zm3.8 0H23V31.5h1.7v10.1zm1-11.8h-2.9l2.9-2.9v2.9zM22 27.7v-2.9h3l-3 2.9zm6.5 3.8v10.1h-1.7V31.5h1.7zm-10.3-9.9l2.3-4.6h6.9l1.9 4.6H18.2z"/><path fill="#1E1E1C" d="M42.8 1v28.3c-.6 10-8.8 17.8-18.8 17.8S5.8 39.3 5.2 29.3V1h37.6zm1-1H4.2v29.3C4.8 39.7 13.5 48 24 48s19.2-8.3 19.7-18.7L43.8 0z"/><path fill-rule="evenodd" fill="#010202" d="M19 11.5c-1.8 0-3.2 1.5-3.2 3.2 0 1.8 1.5 3.2 3.2 3.2s3.2-1.5 3.2-3.2c0-1.8-1.3-3.2-3.2-3.2z"/><path fill="#010202" d="M17 19.7c-1.8 0-3.2 1.5-3.2 3.2s1.4 3.2 3.2 3.2 3.2-1.5 3.2-3.2-1.4-3.2-3.2-3.2z"/><path fill-rule="evenodd" fill="#010202" d="M28.8 11.5c-1.8 0-3.2 1.5-3.2 3.2 0 1.8 1.5 3.2 3.2 3.2 1.8 0 3.2-1.5 3.2-3.2 0-1.8-1.5-3.2-3.2-3.2z"/><path fill="#010202" d="M30.7 19.7c-1.8 0-3.2 1.5-3.2 3.2s1.5 3.2 3.2 3.2c1.8 0 3.2-1.5 3.2-3.2s-1.4-3.2-3.2-3.2z"/></svg>