<svg baseProfile="tiny" xmlns="http://www.w3.org/2000/svg" width="48" height="48"><g fill-rule="evenodd"><path fill="#E34234" d="M2.5 1.4l43.1.1L43.3 27s-1.3 8.6-5.7 12.7c-4.3 4.1-6.7 6.9-13.9 7-7.1.2-12.1-4.4-13.1-5.5-1-1.1-5-6.9-5.6-11S2.5 1.5 2.5 1.4z"/><path d="M1.9.9c.3 5.3 1.6 16.9 1.9 22.4 1 17.5 11.2 23.9 19.8 23.8 7.5.1 19.4-6.2 20.5-23.9.7-5.1 1.7-15.6 2-22.3H1.9zm1 1h42.2c-.4 6.5-1.3 17.3-1.8 21.5-1.1 17.1-12.4 23.2-19.7 23.1-8.3 0-18-6.1-19-23C4.3 18.1 3.2 7 2.9 1.9z"/><path d="M16.1 30.2s-.6-.1-.9-.3c-.3-.2-.5-.4-.5-.4s.8.1 1.5-.3 1.2-1.2 1.2-1.2h-.9s1.2-1 1.5-1.4c.3-.4.6-.7.6-.7s-.3 0-.3-.3v-.5s.5.1 1.1-.3c.5-.4 1.3-1.6 1.5-1.7l.1-.1s-.5-1-.7-1.5c-.2-.5-.5-1.6-.5-1.6s0 .1-.3.4c-.2.3-.5.3-.5.3s-.6 3.9-1.2 4.8c-.6 1-1.4 1.9-2.2 2.3-.8.4-1.9.1-1.9.1s.8-.7 1.2-2c.5-1.3.9-5.2.9-5.2s-.6 1.3-1.7 3.7-2.7 6.2-4.3 7c-.7.4-1.2.8-2.4.5-.8-.2-1.3-1-1.3-1s1.2-.8 2.2-2.4 3.9-8.1 3.9-8.1-2.4 3.4-3.7 3.8c-1.4.4-2.4.2-2.8 0-.4-.2-.8-1.1-.8-1.1s1.7-1 3-2.3 2.9-3.7 2.9-3.7-1.8 1.4-3.3 1.6c-1.4.2-2.3-.4-2.7-.8s-.5-1.3-.5-1.3 1.1.1 2.3-.4c1.2-.5 3-2.1 3-2.1s-2.3.4-3.1.1c-.8-.2-2.1-1.1-2.2-1.5s0-1.6 0-1.6.6.3 1.8.3 3.7-.7 3.7-.7-2.3 0-3.2-.5c-1-.4-1.9-1.3-2.2-1.8-.3-.5-.1-1.7-.1-1.7s1 .6 2.4.7c1.3.1 3.7-.2 3.7-.2S7.4 6.7 6 6c-1.1-.6-2-1.6-2.1-2.1-.1-.5 0-1.3 0-1.3s1.8.9 3 .9 5.6-.3 7.2.3 3.5 1.6 3.4 3-.5 1.5-1.1 1.7c-.6.2-1.1-.2-1.1-.2s-.6.8-.7 1.8c-.1 1.1 0 2 0 2s.9 0 1.2.5c.3.5.1.9 0 1.1l-.1.1s.6.6 1.4.8c.7.3 1.8.5 1.8.5s.3-.3.5-.3.8.4.8.4l.6-.8s-.9-.1-1.1-.7c-.1-.6 0-1.1 0-1.1s.7.7 1.2.5c.4-.2.5-.3.5-.3s.3-.6.6-1l.3-.4s-.3-.2-.3-.5v-.4s.6.2 1.1 0c.4-.2.5-.5.5-.5s-.5-.2-1-.2c-.6 0-1.4.1-1.4 0s.4-.5.9-.7l.1-.1s-.3-.1-.8.1-1.6.4-2.2.3c-.6-.1-1.2-.7-1.2-1.2 0-.4.6-1 .6-1s-.1 1.1.7 1.2 2-.2 2.6-.2c.2 0 .3 0 .1-.2-.4-.4-.5-.5-.7-.5-.5.2-1.2.7-1.2.7s-1-1.1-.6-1.5c.4-.4 2-.6 2-.6s-.1-.6-.6-1c-.4-.5-1.4-.5-1.4-.8 0-.3.3-.9.7-1 .5 0 .5.3.8.4.3 0 .4-.3.7-.2.3.1 0 .6.1.9 0 .2.7.7.7.7s.9-.2.8-.5c0-.2-.7-.2-.8-.4 0-.2 0-.6.4-.6.3-.1.6 0 .6 0s-.3-.3-.1-.6l.2-.3s.8 0 .9.4v.6c1.1-.6 1 .1 1 .1 0 .2-.3.6-.5.6-.3 0-.5.2-.4.4.1.1.9.2 1.2.1.3-.1.8-.3.7-.5s-.6-.4-.4-.6c.2-.2.4-.3.7-.1.3.2.6.2.8.1.2-.1.7 0 .9.4.1.4-.3.7-.6.7s-.6-.2-.6-.2-.5.6-.8.9c-.3.3-.3.4-.3.4s.6.1.9.4c.2.2.3.6.5.6h.5s0 .2-.3.4c-.4.2-.5.2-.5.2s.6.4.7.8c.1.4 0 .6.1.7s.5.1.5.1-.2.4-.4.4-.3.1-.3.1.1 1-.1 1.3-.2.4-.2.4-.2.6 0 .9c.2.2.7.1.7.1s-.2.3-.3.5c-.1.1-.8.1-.8.1s-.1.4-.4.6c-.2.3-.4.8 0 1.1.3.3.7.4 1.1.2.3-.2.4-.5.9-.4.5 0 .6.6.9.6.3 0 .6-.4 1.1-.6.5-.2 1.1-.2 1.2-.6.1-.4-.2-.8.2-1.2.5-.4 1.1-.5 1.1-.5s.3-1.3.1-2.3-.8-1.6-.8-1.6-2 .2-2.1-.8.2-2.1 1.3-2.9c1.2-.8 3.5-1.3 5-1.3 1.5.1 4.2-.1 5.3-.2 1.1-.1 1.9-.4 1.9-.4s.1 1-.5 1.9c-.6 1-2.3 1.3-3.5 1.6-1.2.3-3.8.6-3.8.6v.4s2 .1 2.8.1c.8 0 3-.1 3.7-.3.6-.2 1.2-.5 1.2-.5s.1 1.2-.6 2c-.8.8-2 1.3-2.8 1.4-.8.1-2.8.1-2.8.1s1 .6 2.4.9c1.3.3 3.7.4 3.7.4s-.1.7-.5 1.3c-.4.6-1.5 1.3-2.1 1.3-.6 0-2.4-.2-2.8-.4-.5-.2-.8-.3-.8-.3s.7.8 1.6 1.3c.9.5 2.4 1.1 3 1.3.6.2 1.2.3 1.2.3s-.3 1.2-1.4 1.7c-1.2.5-2.4.5-3.5-.2s-2-1.4-2-1.4 1.2 2.2 2.5 3.7c1.2 1.4 3.5 3.6 3.5 3.6s-.9.9-2 .9-3-1.2-3.5-1.9c-.5-.6-2.4-3.6-2.4-3.6s2 5 3 7.1c1 2.1 1.6 3.1 2.2 3.9.6.8 1.2 1.2 1.2 1.2s-1.8.6-3.3-.1c-1.5-.7-2.5-2.3-3.1-3.5-.6-1.2-3.1-7.6-3.1-7.6s0 3.9.5 5.2c.4 1.2 1.2 2.4 1.2 2.4s-1.6.4-2.6-.9c-1.1-1.2-1.5-2.4-1.7-3.9-.2-1.5-.3-2.3-.3-2.3s-.1.6-.6.1-.5-.6-.5-.6 0 .5-.2.7l-.2.3s0 .6-.1.9c-.1.2-.5.7-.5.7s.1.4.1.5v.1s.2-.1.6.4c.5.5.6 1 .9 1.2.6.3.9.3.9.3l-.4.4-.2.1s.7.3.9.6c.2.4.3.5.6.7.3.2.6.3.6.3s-.3.4-.5.5-.2 0-.2 0 .5.3.7.7c.2.4.2.4.6.7.4.3.7.4.7.4s-.2.2-.5.2h-.6c.9 1.2 1.8 2.4 2.8 3.3 0 0 .6.8.9.8.3 0 .8-.4.9-.7.1-.3.5-.4.5-.5 0-.2.5-.3.7-.2s.5.5.5.5.8-.2 1 .3c.2.6 0 1.3-.2 1.5l-.2.2s0-1-.3-1h-.5s0 .4-.4.4-.4-.4-.5-.4c-.2 0-.3.6-.5.7-.1.1-.3.1-.3.1s.4.3.7.4c.3 0 1.3.2 1.3.5 0 .4-.1.9-.1.9s.5.1.5.7-1.2 1.8-1.2 1.8.5-.9.4-1.2c-.1-.4-.5-.6-.5-.6s-.5 0-.6-.2c-.1-.2 0-.6-.1-.6s-.6 0-.7-.3c-.1-.4-.5-.7-.5-.7s-.1.9-.1 1.3.4.6.4.8-.4.8-.4.8 0 .7-.3 1.1c-.3.4-1.6.5-1.6.5s.6-.4.8-1c.1-.6 0-.7 0-.7s-.4-.3-.4-.6.4-.5.5-.7.1-1.1.2-1.3c.1-.2.1-.3.1-.3s-.6 0-.9.1c-.2.2-.6.3-.7.2-.1-.1-.3-.3-.5-.2-.1.1-.3.4-.5.4s-.5-.2-.5-.2-.3 0-.4.3c-.1.3 0 .9 0 .9s-.6-.5-.6-1.2.7-1.1.7-1.1 0-.3.5-.5c.4-.2.8 0 1 .2.2.2 1 .3 1.1.1.1-.2-2.1-2.2-2.6-2.6-.6-.4-2-1.2-2-1.2s-.1.2-.1.4v.4s-.7-1-1.1-1.5c-.4-.6-1.4-1.3-1.4-1.3s0 2 .4 2.8c.3.9 1.9 2 1.9 2s-.1.2-.6.2h-.9s.6 1.9 1.4 3.6 1.3 2.4 1.9 3.1c.5.6 1.4 1.1 1.4 1.1s-.3.5-1 .6c-.6.1-1.9-.4-2.4-.7-.5-.4-.5-.5-.5-.5s.1.5.5.9c.4.5 1.1.8 1.1.8s-.4.4-1.3.4c-.9-.1-1.6-.7-2-1.2-.4-.5-.8-1.3-.8-1.3s0 1 .2 1.6c.2.6.6 1.3.1 2-.4.7-.9.6-1.1.9s-.3.7-.3.7l-1.1-1.1c-.3-.3-.9-.6-.8-1.1 0-.5.4-1.9.4-1.9s-1 1.5-1.6 1.8c-.5.3-2.7 0-2.7 0s.8-.6 1.2-1.1c.4-.5.5-.8.5-.8s-.9.8-1.5.9c-.6 0-2.1-.9-2.1-.9s1-.2 1.4-.7c.5-.6 2-3.1 2.4-4.2.5-1.1 1.2-2.8 1.2-2.8s-.6.2-1.2.1-.7-.2-.7-.2 1-.6 1.6-1.4c.5-.8.8-1.7.8-2.2v-1.2s-.9.7-1.1 1.2c-.3.5-.6 2.4-.6 2.4s-.4-.3-.6-.9c-.3-.6-.2-.9-.2-.9s-1.4.8-1.8 1.1c-.4.3-2.5 2-2.6 2.2-.1.2-.2.5.1.5s.6-.4 1.1-.5 1 .2 1 .4v.2s.6.1.6.7-.2 1.2-.5 1.5c-.3.3-.6.2-.6.2s.6-.6.4-1.1c-.3-.4-.5-.4-.5-.4s-.1.2-.5.2-.6-.7-.8-.6c-.2 0-.3.4-.6.4-.4 0-.5-.6-.6-.3s.2.8.2 1.1c0 .3-.5.6-.4.7.1.2.5.2.4.6 0 .4-.5.7-.5.7s-.2 0-.3.4c0 .4.2.9.5.9h.3s-.1.2-.6.2-1-.6-1.1-1.2c0-.5.1-.7.1-.7s-.5-.4-.4-.6.5-.5.6-.8c.1-.3.3-.6.3-.9s.1-.5 0-.6c-.1-.1-.3 0-.5.3s-.2.6-.5.8-.4 0-.5.2c-.1.2 0 .6-.3.7s-.5 0-.5 0-.1.1 0 .5.3.8.3.8-1-.1-1.2-1c-.2-.8.1-1.1.1-1.1s-.4-.4 0-.7c.3-.3 1-.3 1.3-.4.4-.2.4-.2.5-.3.2-.1.1-.5-.1-.6-.3 0-.5-.3-.5-.3s-.5-.3-1 0-.5.7-.5.7-.2 0 .1-.6c.3-.6 1.2-.8 1.2-.8s.1-.4.4-.4c.3-.1.7 0 .9.3.2.4 0 .8.4.8.3 0 .6-.4 1-.6.5-.3 2.5-2.3 2.9-2.8z"/><path fill="#0047AB" d="M18.6 7.7s-.4.3 0 .8 1 .7 1.7.6c.6 0 1.7-.5 2-.5.4 0 1-.1 1-.1s-.5-.3-1.5-.1c-1 .1-2.1.2-2.5.1-.4-.2-.7-.8-.7-.8z"/><path fill="#FFF200" d="M21.9 6.2c-.1.2-1.1 0-1.9.6-.3.2.2.9.3 1.2l1.2-.8c.3-.2.8-.1 1.2.2.4.2.7.6.7.6s.3.1.5.1c-.1.2-.3.7-.7.9-.6.2-1.6.4-1.6.6 0 0 1.1-.1 1.3 0 .3.1.6.2.7.2.8-.4.5-1.6 0-2.1-.6-.4-.3-.5-.5-.8-.2-.7-1.2-1-1.2-.7zm.1-.6h3.1c.4.2.9.3.9.3s.4-.4.6-.7c.2-.3.7-.8.8-.8.1 0 .6.2.9 0 .3-.2.2-.6 0-.7h-.7c-.2.1-.3.3-.4.3-.1 0-.1-.5-.4-.5-.3 0-.5 0-.5.2 0 .1.5.4.4.7-.1.3-.6.6-.8.6s-.9 0-1.2-.2-.3-.3-.3-.4c0-.1.3-.2.5-.2.3 0 .6-.3.5-.5 0-.2 0-.3-.3-.2-.2 0-.4.2-.6.3-.1 0-.4 0-.3-.1.1-.1.3-.6.1-.7-.1-.2-.4-.3-.6-.2-.1.1-.2.3-.2.4 0 .1.2.3.1.4 0 .1-.1.1-.3.1-.2 0-.5 0-.6.1-.1.1-.1.3 0 .4 0 .1.5 0 .7.1.2.2.2.2.1.4-.1.1-.6.5-.7.5-.2 0-.5 0-.7-.3-.3-.2-.3-.4-.4-.5-.1-.1 0-.2 0-.3 0-.1.1-.5 0-.6-.1 0-.5.1-.6.1-.1 0-.4 0-.6-.2-.2-.2-.5-.2-.7.1-.2.3-.1.6.1.6s.4 0 .8.3c.7.5 1.3 1.3 1.3 1.2zm-3.9 23.6s-.5.5-.9.7c-.5.2-.7.3-.7.3s-2.1 2.2-2.8 2.7c-.7.5-1 .7-1.2.7-.2 0-.6-.3-.6-.6 0-.2-.2-.6-.5-.6s-.5.3-.5.3.2.2.3.4c0 .3.1.5.1.5s.2.3.4.3.5-.1.5.3-.1.6-.6.8-1.3.3-1.4.5c-.2.4-.1.5-.1.5s.5-.2.6 0c.2.2.2.7.2.7s.2.1.2-.2-.1-.6.1-.7c.3-.1.5.2.8-.2.3-.4.5-1 .7-1 .3 0 .4.5.4.7s-.2 1-.5 1.4-.4.4-.3.6c.1.2 0 .3.4.2.4-.1.7.4.9.4.2 0 .3-.3.2-.5 0-.2-.5-.2-.5-.5s.3-.5.4-.6c0-.1-.2-.8-.1-1.2.1-.4.4-.5.5-.4 0 .1.2.4.4.3.2-.1.5-.6.7-.3.3.2.2.3.4.4.3.1.3 0 .3 0s0-.6.1-.8c.1-.2.4-.2.4-.2s0-.2-.4-.2c-.3 0-.9.4-1.2.4-.3.1-.7-.1-.7-.5s.6-.9 1.3-1.5c.7-.6 2.5-1.7 2.8-1.9.3-.2.6-.6.6-.6l.1-.5s-.4.3-.6.5c-.1.2-.3.3-.3.3s0-.5.1-.9zm10.9-.5v.9c0 .3-.1.6-.1.6s-.2-.4-.4-.5c-.2-.1-.2-.2-.2-.2v.5c0 .1.1.3.9.8.7.5 2 1.3 2.6 1.9.6.6 1.5 1.5 1.3 1.7-.3.2-.8.3-1.1.2-.4-.1-.6-.7-1.1-.5-.4.2-.5.5-.5.5s.3.2.3.4v.5s.3.2.4 0c.1-.1.1-.4.4-.4.3 0 .5.4.8.2s.7-.5 1-.5c.2 0 .6.2.5.4s-.3.6-.3.9c0 .4 0 .7-.2 1.1s.1.6.1.6.2-.2.5-.1c.3 0 .5.1.5.1s.3 0 .3-.3-.5-.5-.4-1.2V35s.3 0 .6.5.4.8.6.8c.3 0 .4-.1.5.1 0 .2 0 .7.1.7h.3s0-.4.1-.5c.1-.1.4-.2.4-.2s.3-.8 0-.8-1.1-.2-1.4-.4c-.3-.2-.7-.6-.8-.7-.1-.1.2-.2.3-.1s.5.2.6-.2c.1-.4.3-.8.5-.7s.4.4.6.3l.2-.1s-.1-.2 0-.6l.1-.3s-.1-.3-.5-.3-.8.6-1 .9c-.2.3-.6.6-.9.5-.3-.1-1.2-1.2-1.7-1.7s-2.3-2.7-2.3-2.7-1.2-.3-1.6-.8z"/><path fill="#0047AB" d="M10.7 32.9s-.8.2-1 .5c-.2.3-.2.6-.2.7 0 .1.1.2.1.2s.2-.4.4-.5c.2-.1.6-.2.7-.1.2 0 .4.1.4.1s0-.6-.4-.9zm-.6 3.4s-.3.2-.2.7c0 .5.3.8.5.9.1.1.3.1.3.1s-.3-.6-.1-1c.2-.3.3-.3.3-.3s-.2-.6-.8-.4zm2.5 1.5s-.2.5-.1.8c.1.3.3.6.5.8.2.2.5.2.5.2s-.6-.6-.5-1c.1-.4.3-.5.3-.5s-.2-.3-.7-.3zm3.7-2.6s-.1-.5 0-.6c.1-.1.4-.2.4-.2s.6.2.7.7c.1.5-.2 1.2-.3 1.3-.1.1-.2.1-.2.1s.3-.5.2-.8c-.3-.3-.8-.5-.8-.5zm14.3.2s.1-.3 0-.4c-.1-.2-.4-.3-.4-.3s-.6.5-.6.7.3.7.3.7-.2-1 .7-.7zm2.7 2.8s.1-.2.3-.2c.2 0 .5.1.5.1s-.2 1.1-.5 1.2c-.2.2-.9.4-.9.4s.9-.7.6-1.5zm3.1-1s0-.3.2-.4.3-.1.3-.1.5.3.5.6c0 .4-.5.8-.5.8s-.1-.9-.5-.9zm.4-3.5v-.4c0-.1.1-.3.1-.3s.6-.1.8.1c.2.3 0 .9 0 .9s-.1-.6-.9-.3z"/><path fill="#FFF" d="M23.3 37.2l-.3.4s-.3 2.3-.4 2.7l-.2.8s-.1 1.2-.2 1.4c-.1.2-.3.8-.1 1.1.1.3.8.6 1.1 1l.3.4s.3-.6.5-.8c.2-.2.6-.3.7-1 .1-.7-.4-2.3-.4-3.1 0-.8-.1-2.1-.1-2.1l-.3-.6c-.1-.1-.1-.2-.1-.2s-.1 3.6-.1 4.1c0 .5-.1 1.2-.1 1.6 0 .4-.1-.3-.1-.7 0-.5.1-1.8.2-2.8-.1-1.4-.4-2.2-.4-2.2zm-4.8 5.9s.9.1 1.8-.2 1.8-2 2-2.4c.2-.4.4-2.4.4-2.4s-.1 0-.2.1-.1 0-.1 0-.3 1-.6 1.8c-.3.7-.9 1.9-1.1 2l-.4.2s.1-.2.3-.5c.2-.2 1.1-1.8 1.3-2.4.3-.8.3-1.2.2-1.4-.1-.1-.3-.2-.3-.2s-.6 1.5-.9 2c-.3.3-1 1.3-1 1.3s-.1.6-.3.9c-.3.4-1 1.1-1.1 1.2zm9.5-.6s-.7.2-1.4-.1c-.7-.4-1.9-2.1-1.9-3v-1.2l.2-.4s.2 1.4.5 2c.3.6.9 1.7 1.2 1.8.2.2.5 0 .3-.1-.6-.5-.9-.6-1.2-1.5-.4-1-.7-2.6-.7-2.6l.2-.4s.4 1.2.8 2.3c.5 1.1 1.5 2.6 2 3.2zm-11.1-1.1s.4.6 1.1.4 1.7-.9 2.4-2.1c.7-1.2 1.2-2.6 1.2-2.6s-.2-.5-.2-.8v-.5s-.4.7-.6 1.2c-.2.6-1.3 2.6-1.6 3-.2.3-.7.7-.7.6s.2-.5.5-.8c.3-.4.8-1 1.3-2s1.2-3 1.2-3 .1-1.2.2-1.4c0-.1.1-.2.1-.2s-.4.1-.5.3c-.1.1-.6 1.2-1.2 3-.6 1.7-2.8 4.8-3.2 4.9zm13.5-.1s-.4.4-1.2.3-1.9-.7-2.6-2.1c-.7-1.4-1.1-2.6-1.1-2.6v-1.7s.4.7.8 1.7 1.1 2.6 1.6 3.2c.5.7 1.3 1.1 1.3 1.1s-.7-.6-1.2-1.4c-.5-.8-1.7-3.6-2-4.3-.3-.8-.5-1.4-.5-1.4v-.7l.5.2s.3 1.2.7 2.2c.4 1 1.3 3.1 2 4 .8.9 1.8 1.5 1.7 1.5zm-8.2-3.6s-.4-1.4-.4-2.2c0-.8.4-2.5.4-2.5s.3-.3.5-.7c.2-.3.2-.5.2-.5v1.8c0 .4-.2 2.2-.3 2.3-.1.1-.1.3 0 .3s.3-.6.4-1c0-.4.4-3.5.4-3.5l.3.3s0 2.5-.1 3.2c-.3.8-.2 2.1-1.4 2.5zm2-6.3s-.1.1-.2.3c-.1.2-.2.2-.2.2s-.2 3.6-.1 4.2c0 .6.6 1.6.6 1.6s.4-.6.6-.8.4-1 .4-1.7-.3-2.4-.3-2.4l-.4-.6s-.1 1.4-.1 1.9.1 1.8 0 1.9c-.1.1-.3-1.7-.2-2.5.1-.7.1-1.9-.1-2.1z"/><path fill="#FFFCEF" d="M22.8 29.4s-.3.6-.4 1c0 .3-.4 1.4-.6 1.7-.2.3-.4.5-.4.4s.6-.9.9-2.4.1-2.1.3-2.4c.2-.5.4-.7.4-.7V26.1s-.2.2-.3.4v.4s-.1-.1-.2-.3v-.2l-.2.4s-.2 3.4-.6 4.3c-.4.9-1.5 2.3-1.5 2.3s.2.2 1-.1c.8-.4 1.7-1.2 1.8-1.9-.2-.8-.2-2-.2-2z"/><path fill="#FFF" d="M23.5 31.8s-.3-1-.4-2.7c0-1.7.1-1.9.1-1.9l.1.1c0 .1.1.3.1.3s.6-.4.6-.6c.1-.2.1-.5.1-.5l.3.3h.1s.2-.1.3-.3c0-.1.1-.2.1-.2v1.3c0 1 .2 2.7.6 3.4.3.7 1.5 1.9 1.5 1.9s-.6.2-1.1 0c-.5-.2-1.4-1-1.5-1.8-.1-.8 0-1 0-1s.1 0 .2.5.3.8.6 1.1c.3.3.7.6.7.5s-.8-.9-1-1.6c-.1-.7-.4-2.6-.4-3 0-.4-.2-.7-.3-.6 0 .1-.1 3.2-.1 3.5.1.7-.4 1.2-.6 1.3z"/><path fill="#FEF5EC" d="M15.4 29.8s1.2-.4 1.7-.9c.4-.6.7-.8.7-.8s.2-.2.4-.3l.1-.1v.9s-.9.5-1.2.7c-.3.4-1.4.8-1.7.5zm2.9.1s-.1-.8.1-1.2c.2-.4 1.2-1.1 1.2-1.1s0 .3-.1.6v.4s-.9.9-1.2 1.3z"/><path fill="#FFF" d="M19.6 31.4s-.4-1.1-.2-1.8.6-1.2.7-1.2.3-.1.3-.1v1s-.7 1.3-.8 2.1zm1.1-2.5s0-.8.1-1c.1-.1.6-.6.8-.9.1-.3.2-.4.2-.4s.2.4 0 .7c0 .3-1 1.4-1.1 1.6zm-.9-.7s0-.6.1-.9c.2-.3.6-.8.6-.8v.4c0 .3.1.5.1.5l.4-.1s-.4.6-.8.8c-.3.1-.3.1-.4.1zm-1.2-.2s0-.6.3-1 .4-.5.5-.6l.2-.4.1-.1c.1-.1.1-.2.1-.2v.6h.2c.1 0 .3-.1.3-.1s-.3.4-.5.7c-.1.4-1.3 1.2-1.2 1.1zm-1.5-.2s.7 0 1.1-.4c.4-.3 1.2-1.4 1.2-1.4s-.1 0-.3.1h-.3s-.6.7-.9 1c-.3.3-.8.6-.8.7zm3.8-.8v-1l.8-.9s.1.5.2.7c.1.3.2.5.2.5s-.8.7-1.2.7zm-.7-1.1s.6-.2 1-.6c.4-.4.4-.5.4-.5s.1-.6 0-.7c-.1-.2-.1-.3-.1-.3s-.6.3-.8.6c-.3.4-.7 1.1-.5 1.5zm-1.6-.6s0 .4.4.4.6 0 1-.6c.4-.5.6-1 .8-1.2l.4-.4-.2-.3s-.5.6-1.1 1.2c-.4.8-1.2 1.2-1.3.9zm9.3 5.1s-.2-.6-.6-.9c-.3-.2-.3-.3-.3-.3v-1s.3 0 .5.2l.1.1s.4.4.5.9c0 .6-.2 1.1-.2 1zm.8-1s-.5-.6-.7-.7l-.2-.1v-1.2s.2.3.5.4l.3.1s.3 1.2.1 1.5zm2.5 0s-.6.1-1.4-.4c-.8-.5-1.2-1.5-1.2-1.5s.2.1.5.1h.5s.2.2.5.6c.2.6 1.1 1.2 1.1 1.2z"/><path fill="#FFF" d="M28.2 26s.5.4.4.7c0 .3 0 .6.3.8.3.1 1.2-.1 1.2-.1s-.6-.2-1-.7c-.3-.5-.5-.9-.9-.7zm-1.5 3s.2-.3-.1-.9c-.3-.6-1.1-1.4-1.1-1.4s-.1.9.2 1.3c.3.4 1 .9 1 1zm.8-.8s0-.7-.1-1.1c-.2-.4-.7-1.1-.7-1.1s-.3.9.1 1.5c.3.7.7.7.7.7zm.7-.9s.1-.6-.1-1-.7-.6-.7-.6.1.5 0 .6v.1l-.3-.1-.1-.1s.4.8 1.2 1.1zm.3-2s-.4.5-.9 0c-.5-.4-.8-1.2-1-1.4l-.3-.3s.1-.5.1-.6v-.1s0 .3.5.7c.3.4.9 1.6 1.6 1.7zm-1.4.5s0-.6-.2-.9c-.2-.3-.8-1.1-.8-1.1s-.2.2-.3.4 0 .6.4 1c.3.5.9.7.9.6zm-.9 1s0-.9-.3-1.3-.6-.6-.6-.6-.1 1 0 1.2c.2.4.3.6.9.7zm-2.6.3s-.3-.9-.4-1.5c0-.6.2-1.3.2-1.3s.2.6.4.6c.2.1.2.2.2.2s.1 1.1 0 1.5c0 .4-.3.5-.4.5zm1.1-.6s-.5-.8-.4-1.3c.1-.6.5-1.2.5-1.2s0 .4.2.6c.2.3.2 1.5-.3 1.9zm-2.1-.1s-.6-.9-.4-1.3c.2-.5.3-.6.3-.6s.3.4.4.5c.1.1.2.3.1.7-.1.4-.4.8-.4.7zm-.6-1.8s.3-.4.4-.9 0-.6 0-.6-.3.1-.4.1h-.1s-.1-.3-.1-.5-.1-.3-.1-.3-.2.2 0 .7c0 .8.1 1.1.3 1.5zm1 .3s-.4-.8-.4-1.3.4-1.1.4-1.1 0 .2.2.5c.1.2.3.7.2 1.2-.1.3-.3.6-.4.7zm1.2-.2s-.6-.5-.6-1v-.6s.2-.1.4-.4l.2-.4s.1.3.3.5l.2.2s0 .7-.2 1c0 .4-.3.7-.3.7zm1.2-.2s-.3-.7-.3-1.2v-.5l.3-.3.2-.2s.3.2.4.4l.1.2s0 .1-.2.6c-.2.6-.5 1-.5 1zm-3.9-.9v-.9l-.3.3c0-.1.1.4.3.6zm4.7-1.2s-.5-.4-.5-.7c0-.3.2-.6.4-.8.1-.2.2-.5.2-.5s0 .2.2.4.3.2.3.2 0 .4-.2.7c0 .4-.3.8-.4.7z"/><path fill="#FFF" d="M24.9 22.8s-.5-.5-.5-1v-.5s.1 0 .3-.2c.3-.1.3-.2.3-.2s.1.3.4.5l.2.2s.1.5-.1.8c-.3.3-.5.4-.6.4zm-1.4.1s-.4-.5-.4-.8v-.6s0 .1.2-.2c.1-.3.1-.4.1-.4s.2.4.4.5l.2.1s0 .7-.1 1c0 .3-.3.4-.4.4zm-1.3 0s.6-.4.6-.9c.1-.5.1-.6.1-.6s-.4-.2-.6-.4l-.1-.2-.4.5s0 .5.1 1c.2.6.3.6.3.6zm-.9-.2s.3-.4.4-.8v-.6s-.1 0-.3-.2c-.3-.1-.4-.2-.4-.2s0 .1-.2.1h-.3s0 1.2.8 1.7zm4.4-1.5s.5-.7.6-1.2v-.6l-.2.1-.2-.2s-.2.4-.5.6c-.2.1-.3.2-.3.2s-.1.6.6 1.1zm-1.5.1s.6-.3.6-.8v-.6s-.2 0-.3-.2c0-.2-.1-.3-.1-.3s0 .1-.1.5c-.1.3-.5.5-.5.5s-.1.5.4.9zm-1.2-.1s.4-.4.4-.7-.4-1-.4-1-.2.3-.4.5-.2.6-.1.7c0 .3.5.5.5.5zm-1.3-.1s.3-.3.3-.6v-.4s-.1-.1-.4-.5l-.3-.4s-.3.6-.3.8c.1.4-.1.9.7 1.1zm-1.2-.4s.3-.4.4-.8c0-.4-.4-.9-.4-.9s-.3.2-.3.5-.1.9.3 1.2zm6.5 0s-.5-.5-.5-.9.4-1.2.4-1.2.3.1.3.4c.1.2.4 1.1-.2 1.7zm-4.8-.8s-.5-.4-.4-1c.1-.5.3-1.1.3-1.1l.1-.1s.1.3.3.6l.2.3s0 .6-.2.8c-.1.3-.3.5-.3.5z"/><path fill="#FFF" d="M23.8 20.1s-.7-.6-.6-1.2c0-.6.7-1 .7-1s0 .3.3.6c.2.2.2.8.1 1.1s-.4.6-.5.5zm1.3-.4s-.5-.5-.4-.9c0-.4.6-1 .6-1s.3.1.4.5c0 .3.3.9-.6 1.4zm1-.5s-.1-.5-.1-.9V18s.2-.1.3-.4c.1-.2.2-.3.2-.3s.1.2.1.5 0 .6-.2.9c0 .3-.3.5-.3.5zm1.1-.7s-.2-.6-.2-.9v-.3s.3 0 .4-.2c.1-.2.2-.5.2-.5s.1.6 0 .8-.3.5-.3.8-.1.4-.1.3zm-7 .3v-.7c0-.2-.1-.6-.1-.6s.4.2.6.2c.1 0 .4-.2.4 0 0 .1.1.2-.1.5-.3.2-.8.6-.8.6zm1 .4s-.4-.3-.3-.6c.1-.3.2-.4.2-.4h.7s.1 0 0 .3-.6.7-.6.7zm.2-1.2s-.1-.6 0-1c.2-.3.3-.6.6-1 .3-.3.5-.7.5-.7s.4 0 .4.6c0 .5-.3.7-.4 1.1-.1.3-.3.9-1.1 1zm1.6.4s-.6-.4-.2-1.1c.3-.6.8-1 1-1.3l.2-.4s.3.1 0 .9c-.2.7-.3 1.8-1 1.9z"/><path fill="#FFF" d="M24.4 18.4s-.4-.5-.3-1c.1-.5.3-.9.6-1.2.3-.3.3-.4.3-.4s0 .5.1.6v.1s.3-.4.4-.6c.1-.1.7-1.1.7-1.1s0 .2.3.5.1.4.5.4.5-.1.5-.1.2.3.1.6-.5 1-.6 1.1-.1 0-.1 0-.1 0-.2-.4c0-.4-.1-.4-.3-.6-.1-.2-.2-.3-.2-.3s.2.3.2.7c0 .4-.2 1-.4 1.1l-.2.1s-.2.1-.3-.5c-.1-.6-.1-.7-.1-.7s-.2 0-.4.6c-.1.6-.3 1-.6 1.1zm-4-1.1s.6-.2.9-.8c.3-.6-.1-1.8-.1-1.8s-.3 0-.6.3-.4.9-.6 1.2c-.2.2 0 .9 0 .9s0-.3.2-.6.5-.8.5-.6c.1.1-.6.7-.3 1.4zm4-1.1v-1c0-.4.1-1.2.2-1.5.1-.2.1-.3.1-.3s0 .4.1.6l.1.2.1-.1s.1.9 0 1.2c-.1.4-.6.9-.6.9z"/><path fill="#FFF" d="M25.3 16s.1-1.1 0-1.3v-.4l.2-.5s.2.2.2.6.2.6.2.6-.1.6-.6 1zm-2.2.4s.8-.5.8-1.5-.3-1.2-.3-1.5v-.8s-.3.1-.5.6c-.2.4-.4.7-.4.7s-.2.6.1 1.1c.2.4.5.7.3 1.4zm-1.2-.7s.5 0 .5-1c0-.9-.3-1.3-.3-1.3s-.2.5-.4.6l-.2.2s.1 1.2.4 1.5zm4.3-1.3s-.2-.1-.3-.6l-.1-.5s0-.3.3-.8.3-.8.3-.8.1.6.2.9l.2.6s-.5.7-.6 1.2zm-2-.5s.2-.9.4-1.3 1-1.2 1-1.2v-.7s-.2 0-.4.3c-.2.2-1 .6-1 .6s-.8 1.2 0 2.3zm-4.2-.7s-.2.6.4.9c.6.2 1.2-.1 1.3-.5.2-.3.5-1.3.7-1.6l.4-.4h-.4s-.8 1.1-1 1.5c-.1.3-1 .6-1.4.1z"/><path fill="#FFF" d="M22.4 13.6s-.1-.7 0-1.2c.2-.5.8-.9.8-.9l.4-.2c.3-.2.5-.4.5-.4l-.1.6c-.1.6-1.4 1.5-1.6 2.1zm2-2.4s-.1-.3 0-.5l.1-.2.1-.2c.1-.2.9-.6.9-.6s.2.5 0 .7c-.2.3-.5.8-1.1.8zm-2.2-.4s.3.6.7.6c.4 0 1.2-.8 1.4-1 .2-.2.6-.5.6-.6 0-.2-.1-.8 0-.7s0 .6.3.5c.2-.1.5-.4.5-.6 0-.2-.1-.5-.1-.5s-.1.1-.4 0c-.3-.2-.5-.6-.5-.6s.4.4.6.4h.2v-.6c0-.1.1-.3.1-.3V8c0 .2.1.7.3.9l.1.1s.1-.6 0-1-.2-1-.2-1 .6-.2.8 0c.3.3.4.5.6.5.2 0 .3-.2.3-.2s-.3-.5-.7-.6c-.3-.1-.6-.2-.8-.4-.2-.2-1.1-.4-1.3-.4s-.2.1-.2.1.4 0 .6.1c.2.1.1.1.4.2.2.1.5.2.3.3-.1 0-.4.2-.6.4-.1.1-.3.2-.5.3-.2 0-.5.1-.9-.3s-.3-.7-.2-.8c0-.1.3-.1.3-.2s-1.4 0-1.4 0 .6.1.7.5c.2.4.2.6.6.9.4.3.6.5.7.8 0 .3.1 1.1-.2 1.6-.5.5-.8 1-2.1 1z"/><path fill="#FFF" d="M24.2 6.6c-.1-.4-.6.1-.1.2.2.1.3 0 .4-.1.2-.4-.2-.5-.2-.5s.7-.2.8.4c0 .2-.3.7-1 .4-.4-.2-.6-.5-.5-.7.1-.2.7-.3.6.3zm.8 7.3s-.2-.7 0-1.1c.1-.4.8-1.2.8-1.2l.5-.1s-.2.5-.4 1.1c-.3.6-.3 1.1-.9 1.3zm2.8-1.2s-.1.2-.5 0c-.4-.1-.5-.7-.5-1.3 0-.6.3-1.4.3-1.7v-.4s.1.2.3.4c.1.2.2.2.2.2s.2.6 0 1.1c-.2.5-.5.9-.3 1.2.1.3.4.5.5.5zm-2-1.5s-.2-1.2-.1-1.5c.1-.3.4-.6.5-.9s.1-.7.1-.7.2.3.3.5c.1.2.2.7.1 1.3-.1.7-.1 1.2-.9 1.3zM28 9.4s-.7.1-.9-.5c-.2-.6-.4-.7-.5-1-.1-.3-.5-.8-.5-.8s.1-.1.6.2c.5.4.8.6 1 1.1.2.5.3 1.1.3 1zM16.3 20v1.6c-.1.9-.8 4.2-1.2 5s-.6 1-.6 1 .5.4 1.7-.6 1.8-2.3 2.2-3.6c.3-1.4.5-2.8.5-2.8s-.2 0-.4-.1c-.1 0-.2-.1-.2-.1s-.3 2.1-.8 3.4C17 25 16 26.1 16 26.1s.4-.6.9-2.4.2-3.6.2-3.6-.5.2-.8-.1zm-.4-.2s-2.6 6.1-3.5 7.8c-.9 1.7-2.2 3.8-3.7 3.8S6.9 31 6.9 31s1.8-1.3 3.5-5 3.2-6.9 3.2-6.9h.6l.2-.1s0 .1-.4 1.2c-.5 1.1-2.7 6.3-3.3 7.2-.6 1-1.7 2.4-1.7 2.4s1.4-.8 2.8-3.2c1.3-2.4 3.2-6.8 3.2-6.8h.9zm-2.7-2.1s-.1.6-.1.8v.2s-.9 1.3-2.1 2.6-2.7 2.8-4 2.8c-1.3 0-1.8-1-1.8-1s3.5-2.7 4.3-3.9c.8-1.2 1.5-2.4 1.8-2.6.2-.2.4-.3.4-.3s-.1.3-.1.6.2.9.2.9-1.1 1.5-1.8 2.4c-.8.8-1.7 1.8-2.2 2.1-.6.3-.8.5-.8.5s1.1-.1 1.8-.6 3.6-4.2 4.4-4.5zm-2.1-1.5s-1.2 1-2.3 1.5-2.8.5-3 .4-.7-.5-.9-.7c-.1-.2-.1-.5-.1-.5s2.7-.7 3.6-1.5c.9-.7 2.1-1.5 2.1-1.5s.5.2.6.3h.5s-.1.1-.5.3c-.4.1-.5.1-1.1.5s-2 1.4-2.4 1.7c-.4.2-1.2.2-1.2.2s.2.5 1.7.2c1.4-.3 2.7-1.5 2.7-1.5s-.5.6.3.6zm-.3-5s-.5.1-.6.2l-.3.3s-.5.3-1.2.4c-.7 0-2.9.1-2.9.1s.5.9 1.2.8c.6 0 2.9-.6 3.3-.7.4 0 .7.2.7.2s-.9.8-1.7 1.1-2.2.4-3.1 0-1.7-1-1.7-1.5v-.6s2.2.2 3 0c.7-.2 1.9-.6 2.3-.7s.8 0 1 .4zm.1-1.8s-.1.2-.2.3c-.1.1-.2.1-.3.3l-.1.2H8c-.8-.1-1.8-.6-2.7-1.3-.9-.8-.8-1.8-.8-1.8s.9.6 2.3.6 4.1-.3 4.1-.3.1-.2.3 0c.2.3.6.6.6.6s-.6 0-.8.2l-.3.2s-.5.1-1.4.1c-1 .1-2.9-.5-3.2-.5h-.4s.3 0 .7.4 1.4.8 2.4.9c1 0 1.9-.1 2.1.1z"/><path fill="#FFF" d="M4.2 3.2c.1.6.1 1 1.6 2.1 1.8 1 4.3 1.6 5.2 1.6.8 0 1.1-.1 1.1-.1s-.3-.5-.3-.8c0 0-.8-.4-2.3-.5-1.4-.1-2.8-.7-3.7-1.2-1-.4 2.1.1 2.6.2 1.9.2 4.6.2 6 1.1s1.8 1.6 1.6 1.8c-.2.2-.4-.3-.8-.6s-1.2-.4-1.3 0c-.2.3-.1.7.2.8.3.1.6.2.5.3-.2.1-1.1-.1-1.3 0-.3 0-.3.2-.2.4s.8.5.7.6c-.1.1-1.1 0-1.2.2-.2.2-.3.6 0 .8.4.2.8.3.7.4-.1.1-.9-.1-1 .4s0 .6.2.9c.3.2 1-.1.8.2-.2.3-.8 0-1 .3-.1.4 0 .7.3.8.4.1.8-.2.8-.1s-.6.4-.6.7 0 .7.5.7.9-.4 1-.3c.1.1-.8.5-.7.8.1.4 0 .5.6.5s.8-.4.9-.2c0 .1-.6.5-.6.9s.1.7.6.4c.6-.3.8-.6.8-.5 0 .2-.6.5-.4.9.2.5.8.3 1 0 .2-.2.3-.6.5-.6s0 .3 0 .4c0 .1-.2.6 0 .7.1.2.1.4.5.2.3-.1.8-.6.8-.8 0-.3.3-.4.3-.2s-.2.7-.1 1c0 .3.4.5.4.5-.2.2.5-.2.6-.4.3-.5.2-1.6.4-1.8.2-.2.3-.4.2-.5-.1-.1-.5-.4-.7-.2-.2.2-.4.5-.7.4-.3 0-3.2-1.3-3.2-1.6 0-.3.3-.3.3-.7 0-.4-.4-.6-.7-.6-.4 0-.6-.2-.6-1-.1-.8.3-2.5.6-3.1.3-.6.6-.8.7-.6s.5.6 1 .3 1.1-.7.7-1.7c-.3-.9-1.8-2-2.8-2.3-.9-.3-4.5-.5-4.5-.5s-2 .1-2.8 0c-1.3.2-3.2-.4-3.2-.4z"/><path fill="#FFF" d="M13.8 6.3s.2 0 .5-.1h.3s-.3 0-1.2-.4c-.9-.5-2.8-.8-4.1-.9-1.2-.1-2.7-.5-2.7-.5s.9.6 3.5 1c2.5.3 3.5.5 3.7.9zm-3.2 2.6v.3H8.9c-.5 0-2.2-.6-2.2-.6s1.5.2 1.9.4c.4 0 2-.2 2-.1zm-.4 2.9s0 .2-.4.4-2.4.6-2.9.6c-.4 0-.8-.3-.8-.3h1.8c.5-.1 2.3-.7 2.3-.7zm.6 3s-.5.6-1 1c-.5.3-1.4 1-1.9 1.1-.5.1-.8.1-.8.1s1.4-.6 1.6-.8c.2-.2 1.8-1.3 2.1-1.4zm1.2 3.1h.6s-1.1 1-1.5 1.6c-.4.6-1.7 2.2-2.2 2.5-.5.4-1.1.5-1.1.5S9.6 21 10.4 20c.7-.9 1.6-2 1.6-2.1zm2.7 1.7s-1.8 4.3-2.4 5.5c-.6 1.2-1.9 3.1-1.9 3.1s1.8-3.8 2.8-5.9 1.1-2.9 1.5-2.7zm2.5.8s.3 0 .5-.2c.1-.3.2-.4.2-.4v.5c0 .2.1.2.1.2s-.7 3-.9 3.5c-.1.4-.4.8-.4.8s.9-3.8.5-4.4zm15.4 7s-1.4.2-2.5-1.9-1.1-4.7-1.1-4.7.2-.4.2-.7c0-.2.1-.5.2-.2.1.2.1.4.4.6.2.2.1 1.3.2 2.3 0 1 .6 2.2.8 2.7.2.4.6.9.7.8.1 0-.5-1.8-.6-2.9-.1-1.1-.1-3-.1-3s.4-.4.4-.6c0-.2.1-.5.1-.5s.1.2.1.9c0 .6 0 3.3.2 4.6.2 1.1 1 2.7 1 2.6z"/><path fill="#FFF" d="M30.1 20.6s.1 1.8.1 2.3.1 1.2.4 1.8c.2.6.6 1.1.6.9 0-.2-.6-2.4-.6-2.9v-1.4s0-.5-.5-.7zm2.1-.5s1.5 4.8 2.5 6.6c1 1.9 1.8 3.5 3.6 4.2 1.8.7 2.3.1 2.3.1s-1.6-1.3-3-4.2-3.2-7.9-3.2-7.9-.6 0-.6-.1v-.1s.5 3.2 1.6 5.4 2 4.2 2.6 4.7c.5.6.8.9.7.9s-1.7-1.2-2.3-2.3c-.6-1-2.4-4.8-2.7-6-.4-1.2-.8-1.9-.8-1.9s-.4.6-.7.6z"/><path fill="#FFF" d="M33.1 18.6s0 .6-.1.7v.1s1 3 1.5 4c.4 1 1.6 3.6 2 4.2.4.6.7.9.6.6 0-.2-2.1-3.6-2.5-4.9-.4-1.3-.8-2.2-.9-2.9-.1-.6-.5-1.7-.6-1.8zm9.1 5.1s-.6.6-1.5.6-2-.6-2.7-1.3-3.1-4.7-3.1-4.7l-.2-.9s.2.1.5.2h.3s.4 1.2 1.1 2.1c.6.9 2.4 2.4 3 2.9.6.5.8.5.9.5s-1.2-.9-1.7-1.6c-.6-.7-2.4-3.3-2.6-3.9-.2-.5-.2-1.4-.2-1.4l.4.1s1.2 2.5 2.6 4.1c1.3 1.6 3.2 3.3 3.2 3.3z"/><path fill="#FFF" d="M35.6 17.7s.6 1.5 1.2 2.2c.5.7 2.2 2.2 2.3 2.3.1 0-1.9-2.3-2.1-2.5-.2-.3-.9-1.9-1.4-2zm.9-3.3s.4.4.4 1 .1.8.1.8 1.9 1.6 2.8 1.9c.9.3 2.3-.1 2.7-.5.4-.4.7-.8.7-.8s-1.5-.3-2.9-1c-1.3-.6-2.7-1.9-2.7-1.9s.1.3 0 .4c-.1.1-1.1.2-1.1.1z"/><path d="M37.2 15.4l1.2.9c.9.6 1.2.8 2 .8h1.2c0-.1-1-.1-1.4-.4-.4-.2-2.7-2.2-2.8-2.1-.1.1.2.6.5.8.3.2 2.2 1.4 2.2 1.4s-.6 0-.8-.1c-.1-.2-2-1.7-2.1-1.3z"/><path fill="#FFF" d="M37.1 12.7s.5 0 .6-.2c.1-.1.1-.2.1-.2s1.9.5 2.5.5c.6 0 1.5-.1 1.6-.2l.1-.1s-1.6-.1-2.3-.2c-.6-.1-2.2-.9-2.5-1-.3-.1-.5-.3-.5-.3s.6 0 .7-.1c.1-.1.2-.3.2-.3s1.9 1 2.6 1.1c.7.1 3.3.1 3.3.1s-.1 1.3-1.3 1.8c-1.1.5-2.2.3-3 0-.8-.2-2-.5-2.1-.9z"/><path fill="#FFF" d="M37.9 11.6l.1.4s1.5.5 2 .5h1.2s-3.1-.5-3.3-.9zm-1.2-2.4s.8.3.9.5l.1.2s2.3.2 3.4-.1c1.1-.3 2.1-1.3 2.4-1.9.4-.7.4-.9.4-.9s-1 .5-2.3.6c-1.2.1-4.7 0-5.2 0s-.7.2-.7.2 1.2 0 1.4.3l.1.2s1.6.2 2.4.1c.8-.1 2.1-.1 2.1 0s-1.5.6-2.6.6-2.1 0-2.4.2z"/><path fill="#FFF" d="M37.3 8.8v-.2s2.4.1 2.9 0c.6-.1.6 0 .6 0s-1.2.3-1.7.3c-.5.1-1.9-.1-1.8-.1zM36 6.4l.2.2.1.1s3-.6 4.3-1c1.3-.5 2.6-.7 3-2l.3-.7s-.7.1-1 .4c-.2.3-1.1 1-1.8 1.3-.7.3-2.5 1-3.4 1-.8-.1-1.7.3-1.7.7zM33.6 6s1.2-.6 1.6-.6.6.1.6.1.1.2 0 .6c-.1.3-1 .7-1 .7s-.1 0 0-.2.6-.5.6-.6c0-.1-.5.1-.9.2-.5.1-.9-.2-.9-.2z"/><path fill="#FFF" d="M36 5.6s.5-.2 1.7-.4c1.3-.2 3.2-.5 3.7-.8.5-.2.6-.5.6-.5s-.2 0-1.2.2c-.9.2-4 .7-4.5.9l-.5.2.2.4zm-.8 2.2s.5 0 .7-.4c.2-.3.1-.6.1-.6s-.3-.5-.8-.2c-.6.3-.9.7-.9.7h.7c.2-.1.5-.3.5-.2 0 .2-.5.4-.3.7zm-.2.9s.2.1.5.1c.2 0 .6-.2.8-.2s.3.2.1.2c-.2 0-.6.1-.6.3 0 .1-.1.2-.1.2s.5 0 .6-.1c.1 0 .6-.4.7-.4s.1-.3.1-.4c0-.1-.8-.5-1.2-.4-.5.2-.9.7-.9.7zm.3 1.3s.8-.6 1.2-.5c.4 0 .9.2 1 .5s-.3.5-.7.6c-.4.1-.8.1-.8.1s-.2-.2 0-.4c.2-.1.7-.1.8-.2.1-.1.1-.3-.5-.2-.6.2-.8.3-1 .1zm.3 1.4s.3-.3.6-.4c.3 0 1 .1 1.2.4.2.3.4.6.2.8s-.2.3-.8.3c-.6 0-.6-.3-.9-.3-.3 0-.3-.3-.3-.3s.4-.2.8 0 .7.2.8.1c0-.1-.1-.1-.3-.2-.3-.2-1.3-.4-1.3-.4zm-.2 1.4s.4 0 .5.2c.1.1.4.1.5.2s-.2.1-.4.1-.6-.3-.6-.3-.1.5.1.7c.2.2.6.4 1.1.4.5 0 1 0 .9-.5-.1-.5-.4-.8-.8-1-.4 0-1-.4-1.3.2zm-.3 1.4s.4-.2.9.2.7 1.2.6 1.3-.7.1-1-.1c-.3-.2-.9-.9-.9-.9v-.4s.2-.2.4.1c.2.3.9 1 1.1.9-.1-.1-1-1.1-1.1-1.1zm-1.4 1.3s-.1.4.3.9c.5.6.8.9 1.2.9s.5-.3.5-.7c0-.4-.4-1.1-.6-1.2-.2-.1-.5-.2-.5-.2s-.2.1-.1.3c0 .2.3.5.4.6 0 .2 0 .2-.2 0-.2-.1-.5-.6-1-.6zm-1 .8v.5c0 .2 0 .3.3.8.3.6.6.8 1 .8s.6-.2.6-.8c-.1-.6-.6-1.2-.8-1.3-.2-.1-.4-.1-.4-.1l.2.6c.1.3.3.5.3.6 0 .1-.3 0-.4-.2-.4-.3-.3-.8-.8-.9zm-.8 1.1h.3c.1 0 .6 1 .6 1.2 0 .2-.2.8-.5 1-.3.2-.5.2-.6 0s-.7-1.2-.7-1.4c0-.3.1-.9.1-1.1v-.2s.1 0 .3.6c.2.6.5 1.4.6 1.4.1 0 0-.6 0-.7.1-.2-.2-.2-.1-.8zm-2.1.4s-.3.4-.3.8 0 1.1.3 1.4c.3.3.6.3.9 0 .3-.3.5-1 .4-1.3-.1-.3-.4-.8-.4-.8s-.2 0-.4-.1-.1-.1-.1-.1.2 1.1.1 1.3c0 .3-.2 0-.2-.4-.1-.3-.3-.7-.3-.8zm-1.6-.3s-.4.1-.5 1.2c0 1 .1 1.2.2 1.5.2.3.6.4.7.2.2-.1.3-.6.4-1.1 0-.4-.1-1.1-.1-1.1s-.1 0-.3-.2c-.2-.2-.2.3-.1.5s.1.2.1.5v.4c-.1-.1-.3-.5-.3-.9.1-.5-.1-1-.1-1zm-8.4.2s.2 1.4-.1 1.9c-.4.5-.9.9-1.2.5-.4-.5-.2-1-.1-1.1.1-.1.2-.6.2-.6h.5s-.1 1 0 1.2c.1.1.2-.4.3-.6 0-.5 0-1.3.4-1.3zm-2.4.3h-.6s-.2.7-.2 1.1c0 .3.1.6.3.7.1.1.7 0 .9-.2.2-.3.5-1 .5-1.5v-.7s-.5.4-.5.6c0 .1-.2 1.1-.3 1.2 0 .1-.3 0-.1-.5V18zm-1.3-.7h-.4s-.7.7-.7 1.2c0 .4 0 1.1.3 1 .4 0 1.2-1 1.3-1.4.1-.5 0-.8 0-.8s-.2 0-.5.5c-.2.5-.5 1.2-.6 1.1.1-.2.1-1.2.6-1.6zm-.9-.5s.2.3-.2 1-.9.9-1.2 1c-.2 0-.3-.4-.3-.7 0-.3 0-.7.4-.9.3-.2.3-.5.5-.5s.4-.1.3.2c-.1.3-.7 1-.6 1.1 0 0 .9-1.2 1.1-1.2zm-1.5-1.2s-.2 0-.3-.1c-.1-.2-1.2.6-1.3 1.2-.1.6 0 1 .3.9s1.8-.9 1.8-1.2c.1-.3.2-.9-.1-.7-.4.2-1.2 1.3-1.3 1.1-.2-.2 1-1.2.9-1.2zm-.4-.9s.1.4-.6.8-.9.4-1.4.3c-.5 0-.4-.7-.1-.8.2-.1.8-.8 1.1-.8.3 0 .6 0 .6.3 0 .2-.7.4-.9.6-.1.2.2.4.3.2.1-.3 1-.6 1-.6zm-.6-1.4s-.2.6-.9.6-1.6-.1-1.5-.3c0-.3.5-.8.7-.8.2 0 .8 0 .9.1s.1.1 0 .3c-.1.1-.5 0-.6.1 0 .1 0 .2.3.2.3-.1 1-.5 1.1-.2zm-.3-1.5s0 .6-.8.6-1.2-.4-1.2-.5c0-.1.3-.4.6-.6.3-.1 1.1-.2 1.1 0s-.6 0-.8.1-.5.3-.2.4c.2 0 .2-.2.5-.2s.9.2.8.2zm-.2-1.2s0 .4-.5.4-1.3-.4-1.2-.7c.1-.3.5-.6 1.1-.5.6.1.8.5.6.5-.1 0-1.2 0-1.2.1.1.1 1.2.2 1.2.2zm.1-1.5s0 .3-.5.4c-.6 0-1-.3-1-.5s.2-.6.5-.6 1.4-.1 1.7.2c.2.3 0 .4-.3.4s-.8 0-.9-.2c-.1-.2-.2-.1-.2 0-.1.1.3.3.7.3zm.5-1.3s0 .3-.3.3-.9-.3-.9-.6c0-.4.4-.6.8-.6s1 .1 1.1.4c.1.2.2.4 0 .4s-.4-.3-.9-.3-.5 0-.4.2c.2 0 .6-.2.6.2zm.8-1.3s0 .3-.1.3c-.2 0-.5-.1-.7-.2-.4-.1-.8-.2-.8-.4s0-.2.1-.3c.2 0 .7.1.9.1.4.1.6.5.6.5z"/><path d="M14.5 7s.1 0 .2.1c0 .1.2.3.2.2s.1-.2.1-.3c-.2-.1-.6-.2-.5 0zm-.8 1s.4 0 .4.1.1.3 0 .3c-.1.1 0 0-.2-.1s-.5 0-.2-.3zm-.6 1.4s.2.3.3.3.2.1.1.1-.5-.1-.5-.3c0 0-.1-.2.1-.1zm-.3 1.5h.3c.1 0 .3 0 .2.2 0 .1-.4.2-.6.1-.1-.1-.2-.3.1-.3zm-.2 1.6s.3 0 .3-.1.4-.2.5-.2c.1 0 0 .2-.1.3-.1.1-.7.4-.7 0zm.6 1.2s.3.1.4-.1c.1-.2.5-.3.5-.1 0 .1-.5.5-.6.5-.3 0-.4-.2-.3-.3zm.7 1.2s.2.1.3-.1c.1-.2.3-.2.4-.1.1.1-.1.2-.2.3 0 .1-.3.3-.5.2-.1-.1-.2-.1 0-.3zm1.4.5s-.2.3-.3.3c-.1 0-.2.3-.2.3s.2.1.5-.3c.3-.2 0-.2 0-.3zm.7 1.4s.1 0 .4-.3c.2-.3.2-.4.1-.5-.1 0-.3.1-.4.2 0 .1-.7.6-.1.6zm1.6-.3s-.4.1-.4.5 0 .4.2.2c.1-.2-.1-.2.1-.3.3-.2.5-.2.1-.4zm1.6.1s-.5.1-.5.6c0 .4 0 .6.1.5.1-.1 0-.4.1-.5.3-.2.5-.5.3-.6z"/><path fill="#FFF" d="M27.8 15.5s.3.1.4.7c0 .6 0 1.1.2 1.3.2.2.6.6.7.6.2-.1.6-.4.6-.7 0-.3.1-.6.2-.4 0 .1.4.7.5.7.1 0 .4 0 .5-.6.1-.6.1-.8.3-.6.2.1.5.6.8.5.3-.1.5-.3.5-.6s-.2-.8 0-.7c.3.1.4.5.6.5.2 0 .4-.4.2-.8s-.1-.6 0-.5c.1.1.4.4.7.3.3 0 .5-.6.4-.7-.1-.2-.5-.3-.4-.4.1-.1.7.3.9 0s.2-.7 0-.8c-.2 0-.6-.1-.6-.3 0-.2.4-.1.6-.1.3 0 .4-.1.4-.3 0-.2 0-.6-.2-.6s-.4 0-.4-.1c0-.2.4-.1.6-.3.2-.2.4-.5.1-.7-.3-.2-.8-.1-.8-.3s.2-.6.4-.7c.3-.1.3-.4.3-.6 0-.1-.1-.3-.6-.2-.4 0-.6-.2-.4-.3.2-.1.5-.1.5-.6s-.1-.7-.6-.6-.7.1-.6 0c.2-.2.6-.2.6-.6 0-.3-.4-.6-.8-.6s-.9.3-1.2.6c-.3.3 0 .7-.3.4-.2-.3-.2-.5.3-1 .6-.5 1.7-.9 2.9-1.2 1.2-.3 3.3-.9 4.4-1 2.7-.2 3.2-.6 3.5-.7.3-.1.5-.3.5-.3s-2.8.5-3.6.5c-.9 0-3.3-.1-4.8.2s-3.4 1-3.9 1.8c-.5.9-.5 1.8-.2 2.1.4.3.7.3.9.3s.4-.3.7-.2c.3.1 1.1 1.7 1.1 2.7s-.1 1.7-.5 2c-.4.3-.9.1-1 .7 0 .6.6.9-.3 1.2-.9.3-1.8.8-2 .9-.3.1-.9.2-1 0s-.2-.4-.5-.4c-.2.1-.6.5-.6.5z"/><path d="M33.4 6.8s.2.1.2 0 .2-.2.3-.1c0 .1.1.3 0 .4-.3.1-.9.1-.5-.3zM34 8l.1-.1c.1 0 .5-.1.5 0s-.1.3-.3.4c-.2 0-.5 0-.3-.3zm.3 1.4s.2.1.4.1.4 0 .4-.1-.1-.1-.3-.1c-.2-.1-.6-.1-.5.1zm.3 1.3s.4.1.5.1c.1 0 .2 0 .2.1s-.4.2-.5.1c-.1 0-.5-.1-.2-.3zm-.1 1.3h.4c.2 0 .4 0 .3.1 0 .1-.4.2-.6.1-.3 0-.1-.2-.1-.2zm-.3 1.4s.3 0 .3.1.2.3.3.2 0-.2-.1-.4c0-.1-.7-.2-.5.1zm-.8.8s.6 0 .7.3c0 .4-.1.6-.3.3-.2-.2 0-.3-.3-.4-.2 0-.1-.2-.1-.2zm-.5.8s.3.2.3.5-.2.3-.2.2c0-.1 0-.2-.2-.3-.2-.2-.2-.5.1-.4zm-1.3.5s.2 0 .4.4c.1.3.2.4.1.6 0 .2-.4.1-.3 0 0-.1 0-.3-.2-.5-.2-.1-.4-.4 0-.5zm-1.1.5s-.1.3 0 .4c.1.1.3.3.3.6 0 .2-.2.1-.3 0-.1-.2-.3-.5-.2-.6-.1-.2.1-.5.2-.4zm-1.5.5v.5s.1.4.1.5-.5 0-.5-.1-.1-.7 0-.9c.2-.2.4 0 .4 0z"/></g></svg>