<svg baseProfile="tiny" xmlns="http://www.w3.org/2000/svg" width="48" height="48"><path fill="#E30613" d="M7.2.3v30.6c0 9.3 7.5 16.8 16.8 16.8s16.8-7.5 16.8-16.8V.3H7.2z"/><path fill-rule="evenodd" d="M6.9 0h34.3v30.9C41.1 40.4 33.4 48 24 48c-9.5 0-17.1-7.7-17.1-17.1V0zm.6.6v30.2c0 9.1 7.4 16.5 16.5 16.5s16.5-7.4 16.5-16.5V.6h-33z"/><path fill="#FFF" d="M24 7.5c.6 0 1.1-.5 1.1-1.1s-.5-1.1-1.1-1.1-1.1.5-1.1 1.1.5 1.1 1.1 1.1z"/><path fill-rule="evenodd" d="M24 5.5c-.5 0-.8.4-.8.8 0 .5.4.8.8.8.5 0 .8-.4.8-.8.1-.4-.4-.8-.8-.8zm-1.5.8c0-.8.7-1.5 1.5-1.5s1.5.7 1.5 1.5-.7 1.5-1.5 1.5-1.5-.7-1.5-1.5z"/><path fill="#FFF" d="M24.4 5.3V3.6h1V3h-1V1.9h-.6V3h-1v.6h1v1.7"/><path fill-rule="evenodd" d="M23.4 1.6h1.2v1.1h1v1.2h-1v1.4h-1.2V3.9h-1V2.7h1V1.6zM25 3.3h-2 2z"/><path fill="#FFF" d="M24 13.2c1.9 0 3.4-1.5 3.4-3.4S25.9 6.4 24 6.4s-3.4 1.5-3.4 3.4 1.5 3.4 3.4 3.4z"/><path fill-rule="evenodd" d="M24 6.6c-1.7 0-3.1 1.4-3.1 3.1s1.4 3.1 3.1 3.1 3.1-1.4 3.1-3.1c0-1.7-1.3-3.1-3.1-3.1zm-3.8 3.1C20.2 7.6 22 6 24 6c2.1 0 3.8 1.7 3.8 3.7 0 2.1-1.7 3.7-3.8 3.7-2.1.1-3.8-1.6-3.8-3.7z"/><path fill="#FFF" d="M20.1 10v1.1h7.7V10h-7.7z"/><path fill-rule="evenodd" d="M19.9 9.7h8.4v1.7h-8.4V9.7zm.5.6v.5h7.1v-.5h-7.1z"/><path fill="#FFF" d="M24 7.5c.6 0 1.1-.5 1.1-1.1s-.5-1.1-1.1-1.1-1.1.5-1.1 1.1.5 1.1 1.1 1.1z"/><path fill-rule="evenodd" d="M24 5.3c-.6 0-1.1.5-1.1 1.1s.5 1.1 1.1 1.1 1.1-.5 1.1-1.1-.5-1.1-1.1-1.1zm-1.2 1c0-.7.5-1.2 1.2-1.2s1.2.5 1.2 1.2-.5 1.2-1.2 1.2c-.6.1-1.2-.5-1.2-1.2z"/><path fill="#FFF" d="M24.4 5.3V3.6h1V3h-1V1.9h-.6V3h-1v.6h1v1.7"/><path fill-rule="evenodd" d="M23.6 1.8h.7v1.1h1v.8h-1v1.6h-.2V3.5h1V3h-1V2h-.4v1h-1v.5h1v1.8h-.2V3.7h-1v-.8h1V1.8h.1z"/><path fill="#FFF" d="M24 13.2c1.9 0 3.4-1.5 3.4-3.4S25.9 6.4 24 6.4s-3.4 1.5-3.4 3.4 1.5 3.4 3.4 3.4z"/><path fill-rule="evenodd" d="M24 6.3c-1.9 0-3.4 1.5-3.4 3.4s1.5 3.4 3.4 3.4 3.4-1.5 3.4-3.4c0-1.8-1.5-3.4-3.4-3.4zm-3.5 3.4c0-1.9 1.6-3.5 3.5-3.5s3.5 1.6 3.5 3.5-1.6 3.5-3.5 3.5c-2 0-3.5-1.5-3.5-3.5z"/><path fill="#FFF" d="M20.1 10v1.1h7.7V10h-7.7z"/><path fill-rule="evenodd" d="M20 9.9h7.9v1.2H20V9.9zm.2.2v.9h7.6v-.9h-7.6z"/><path fill="#FFF" d="M11.9 11.2v20.3h6.6V11.2h-6.6z"/><path fill-rule="evenodd" d="M11.9 11h6.9v20.6h-6.9V11zm.2.3v20h6.3v-20h-6.3z"/><path fill="#FFF" d="M36.5 7.7v3.4h-7.7V7.7h1.1v1.7H31V7.7h1.1v1.7h1.1V7.7h1.1v1.7h1.1V7.7h1.1z"/><path fill-rule="evenodd" d="M28.5 7.4h1.7v1.7h.5V7.4h1.7v1.7h.6V7.4h1.7v1.7h.5V7.4h1.7v4h-8.3l-.1-4zm.7.6v2.8h7V8h-.5v1.7H34V8h-.5v1.7h-1.7V8h-.5v1.7h-1.7V8h-.4z"/><path fill="#FFF" d="M33.4 5.6h1.3L34 4.5l.6-1.1h-1.3l-.6-1.1-.6 1.1h-1.3l.6 1.1-.6 1.1h1.3l.6 1.1.7-1.1z"/><path fill-rule="evenodd" d="M32.8 1.7l.8 1.4h1.6l-.8 1.4.8 1.4h-1.6l-.8 1.4-.8-1.4h-1.6l.8-1.4-.8-1.4H32l.8-1.4zm0 1.2l-.5.8h-.9l.5.8-.5.8h.9l.5.8.5-.8h.9l-.5-.8.5-.8h-1l-.4-.8z"/><path fill="#FFF" d="M24 47.7c-6.4-.1-11.9-3.6-14.3-8.2 1.1-4.1 1.5-7.7 1.5-12.2H24"/><path fill-rule="evenodd" d="M10.9 27.1H24v.6H11.5c0 4.3-.5 7.8-1.5 11.8 2.4 4.4 7.7 7.8 14 7.9v.6c-6.5-.1-12.1-3.7-14.6-8.3l-.1-.1v-.1c1.1-4.1 1.5-7.7 1.5-12.1v-.3h.1z"/><path fill="#FFF" d="M36 11.2v20.3h-6.6V11.2H36z"/><path fill-rule="evenodd" d="M36.1 11h-6.9v20.6h6.9V11zm-.2.3v20h-6.3v-20h6.3z"/><path fill="#FFF" d="M36.5 7.7v3.4h-7.7V7.7h1.1v1.7H31V7.7h1.1v1.7h1.1V7.7h1.1v1.7h1.1V7.7h1.1z"/><path fill-rule="evenodd" d="M28.9 7.6h1.2v1.7h.9V7.6h1.2v1.7h.9V7.6h1.2v1.7h.9V7.6h1.3v3.5h-7.8V7.6h.2zm0 .2V11h7.5V7.8h-1v1.7h-1.2V7.8h-.9v1.7h-1.2V7.8h-1v1.7h-1.2V7.8h-1z"/><path fill="#FFF" d="M33.4 5.6h1.3L34 4.5l.6-1.1h-1.3l-.6-1.1-.6 1.1h-1.3l.6 1.1-.6 1.1h1.3l.6 1.1.7-1.1z"/><path fill-rule="evenodd" d="M32.8 2.1l.7 1.2h1.3L34 4.5l.7 1.2h-1.3l-.7 1.2-.7-1.2h-1.3l.7-1.2-.7-1.2H32l.8-1.2zm0 .3l-.6 1H31l.6 1-.6 1h1.2l.6 1 .6-1h1.2l-.6-1 .6-1h-1.2l-.6-1z"/><path fill="#FFF" d="M24 47.7c-6.4-.1-11.9-3.6-14.3-8.2 1.1-4.1 1.5-7.7 1.5-12.2H24"/><path fill-rule="evenodd" d="M11.1 27.3H24v.2H11.3c0 4.4-.5 8-1.5 12.1 2.4 4.5 7.9 8 14.2 8.1v.2c-6.4-.1-11.9-3.7-14.4-8.2 1.2-4.3 1.5-7.9 1.5-12.4z"/><path fill-rule="evenodd" d="M21.4 35.8h-1.1v-.3h1.1v.3z"/><path d="M21.5 35.1c.3.3-.2.3-.2.6s.5.3.2.6-.5-.2-.5-.6c-.1-.5.2-.8.5-.6z"/><path fill-rule="evenodd" d="M21.2 35.2c-.1.1-.2.3-.2.5s.1.4.2.5c0 .1.1.1.1.1s.1 0 .1-.1l.1-.1-.1-.1-.1-.1c-.1-.1-.1-.1-.1-.2s0-.2.1-.2l.1-.1.1-.1-.1-.1s-.1-.1-.1 0c.1-.1-.1-.1-.1 0zm.2-.3c.1 0 .2 0 .2.1.1.1.1.2.1.2 0 .1-.1.1-.1.2l-.1.1-.1.1c0 .1 0 .1.1.1l.1.1s.1.1.1.2 0 .2-.1.2c-.1.1-.2.1-.3.1-.1 0-.2-.1-.2-.1-.1-.1-.2-.4-.2-.6 0-.3.1-.5.2-.6 0 0 .1 0 .3-.1z"/><path fill-rule="evenodd" d="M19.9 32c.9-1.1 2.2-2 4.2-2v.5c-1.8 0-3 .8-3.8 1.8s-1.1 2.1-1.1 2.6v12h-.5v-12c-.1-.7.3-1.9 1.2-2.9z"/><path fill-rule="evenodd" d="M21.2 32.8c.7-.7 1.6-1.3 2.8-1.3h.2l.1 16.1H24V31.8c-1 0-1.8.5-2.4 1.2s-1 1.6-1 2.4v11.9h-.4V35.5c-.1-1 .3-1.9 1-2.7z"/><path fill-rule="evenodd" d="M21.4 43.7h-1.1v-.3h1.1v.3z"/><path d="M21.5 42.9c.3.3-.2.3-.2.6s.5.3.2.6-.5-.2-.5-.6c-.1-.5.2-.8.5-.6z"/><path fill-rule="evenodd" d="M21.2 43c-.1.1-.2.3-.2.5s.1.4.2.5c0 .1.1.1.1.1s.1 0 .1-.1l.1-.1-.1-.1-.1-.1c-.1-.1-.1-.1-.1-.2s0-.2.1-.2l.1-.1.1-.1-.1-.1s-.1-.1-.1 0c.1-.1-.1-.1-.1 0zm.2-.3c.1 0 .2 0 .2.1.1.1.1.2.1.2 0 .1-.1.1-.1.2 0 0-.1 0-.1.1l-.1.1s0 .1.1.1l.1.1s.1.1.1.2 0 .2-.1.2c-.1.1-.2.1-.3.1-.1 0-.2-.1-.2-.1-.1-.1-.2-.4-.2-.6 0-.3.1-.5.2-.6 0 0 .1 0 .3-.1z"/><path fill="#FFF" d="M11.5 7.7v3.4h7.7V7.7h-1.1v1.7H17V7.7h-1.1v1.7h-1.1V7.7h-1.1v1.7h-1.1V7.7h-1.1z"/><path fill-rule="evenodd" d="M11.1 7.4h1.7v1.7h.5V7.4H15v1.7h.5V7.4h1.7v1.7h.5V7.4h1.7v4h-8.3v-4zm.8.6v2.8h7V8h-.5v1.7h-1.7V8h-.5v1.7h-1.7V8H14v1.7h-1.7V8h-.4z"/><path fill="#FFF" d="M14.8 5.6h-1.3l.6-1.1-.6-1.1h1.3l.6-1.1.6 1.1h1.3l-.6 1.1.6 1.1H16l-.6 1.1-.6-1.1z"/><path fill-rule="evenodd" d="M15.4 1.7l.8 1.4h1.6L17 4.5l.8 1.4h-1.6l-.8 1.4-.8-1.4H13l.8-1.4-.8-1.4h1.6l.8-1.4zm0 1.2l-.5.8H14l.5.8-.5.8h.9l.5.8.5-.8h.9l-.5-.8.4-.8h-.9l-.4-.8z"/><path fill="#FFF" d="M24 47.7c6.4-.1 11.9-3.6 14.3-8.2-1.1-4.1-1.5-7.7-1.5-12.2H24"/><path fill-rule="evenodd" d="M24 27.1h13.1v.3c0 4.4.5 8 1.5 12.1v.1l-.1.1c-2.5 4.6-8.1 8.2-14.6 8.3v-.6c6.2-.1 11.6-3.5 14-7.9-1-4-1.5-7.5-1.5-11.8H23.9v-.6h.1z"/><path fill="#FFF" d="M20.6 11.2v15h6.5v-15h-6.5z"/><path fill-rule="evenodd" d="M27.4 11h-6.9v15.3h6.8V11h.1zm-.4.3V26h-6.2V11.3H27z"/><path fill="#FFF" d="M11.5 7.7v3.4h7.7V7.7h-1.1v1.7H17V7.7h-1.1v1.7h-1.1V7.7h-1.1v1.7h-1.1V7.7h-1.1z"/><path fill-rule="evenodd" d="M11.4 7.6h1.3v1.7h.9V7.6h1.2v1.7h.9V7.6h1.2v1.7h.9V7.6H19v3.5h-7.8V7.6h.2zm.1.2V11H19V7.8h-.9v1.7h-1.2V7.8H16v1.7h-1.3V7.8h-.9v1.7h-1.2V7.8h-1.1z"/><path fill="#FFF" d="M14.8 5.6h-1.3l.6-1.1-.6-1.1h1.3l.6-1.1.6 1.1h1.3l-.6 1.1.6 1.1H16l-.6 1.1-.6-1.1z"/><path fill-rule="evenodd" d="M15.4 2.1l.7 1.2h1.3l-.7 1.2.7 1.2h-1.3l-.7 1.2-.7-1.2h-1.3l.7-1.2-.7-1.2h1.3l.7-1.2zm0 .3l-.6 1h-1.2l.6 1-.6 1h1.2l.6 1 .6-1h1.2l-.6-1 .6-1H16l-.6-1z"/><path fill="#FFF" d="M24 47.7c6.4-.1 11.9-3.6 14.3-8.2-1.1-4.1-1.5-7.7-1.5-12.2H24"/><path fill-rule="evenodd" d="M24 27.3h12.9v.1c0 4.4.5 8 1.5 12.1-2.4 4.6-8 8.1-14.4 8.2v-.2c6.3-.1 11.8-3.6 14.2-8.1-1.1-4.1-1.5-7.7-1.5-12.1H24z"/><path fill-rule="evenodd" d="M26.5 35.5h1.1v.3h-1.1v-.3z"/><path d="M26.5 35.1c-.3.3.2.3.2.6s-.5.3-.2.6.5-.2.5-.6c0-.5-.2-.8-.5-.6z"/><path fill-rule="evenodd" d="M26.9 35.1c.1.1.2.4.2.6 0 .2-.1.5-.2.6s-.1.1-.2.1-.2 0-.3-.1c-.1-.1-.1-.2-.1-.2 0-.1.1-.1.1-.2l.1-.1.1-.1c0-.1 0-.1-.1-.1l-.1-.1s-.1-.1-.1-.2 0-.2.1-.2c.1-.1.2-.1.2-.1.3 0 .3 0 .3.1zm-.1 0h-.1l-.1.1.1.1.1.1c.1.1.1.1.1.2s0 .2-.1.2l-.1.1-.2.1.1.1.1.1s.1 0 .1-.1c.1-.1.2-.3.2-.5s-.1-.4-.2-.5z"/><path fill-rule="evenodd" d="M27.9 32.3c-.8-1-2-1.8-3.8-1.8V30c2 0 3.3.9 4.2 2 .8 1.1 1.2 2.3 1.2 2.9v12H29v-12c-.1-.5-.4-1.7-1.1-2.6z"/><path fill-rule="evenodd" d="M23.9 31.6h.2c1.1 0 2.1.5 2.8 1.3.7.7 1.1 1.7 1.1 2.6v11.9h-.3V35.5c0-.8-.4-1.7-1-2.4s-1.4-1.1-2.4-1.2l-.2 15.8h-.3l.1-16.1z"/><path fill-rule="evenodd" d="M26.5 43.4h1.1v.3h-1.1v-.3z"/><path d="M26.5 42.9c-.3.3.2.3.2.6s-.5.3-.2.6.5-.2.5-.6c0-.5-.2-.8-.5-.6z"/><path fill-rule="evenodd" d="M26.9 42.9c.1.1.2.4.2.6 0 .2-.1.5-.2.6s-.1.1-.2.1-.2 0-.3-.1c-.1-.1-.1-.2-.1-.2 0-.1.1-.1.1-.2 0 0 .1 0 .1-.1l.1-.1s0-.1-.1-.1l-.1-.1s-.1-.1-.1-.2 0-.2.1-.2c.1-.1.2-.1.2-.1.3 0 .3 0 .3.1zm-.1 0h-.1l-.2.1.1.1.1.1c.1.1.1.1.1.2s0 .2-.1.2l-.1.1-.1.1.1.1.1.1s.1 0 .1-.1c.1-.1.2-.3.2-.5s0-.4-.1-.5h-.1z"/><path fill="#FFF" d="M10.5 23.2V27h26.9v-3.8h-2.1V25h-2.1v-1.8h-2.1V25h-2v-1.8h-2V25H25v-1.8h-2.1V25h-2.1v-1.8h-2.1V25h-2.1v-1.8h-2.1V25h-2.1v-1.8h-1.9z"/><path fill-rule="evenodd" d="M10.2 22.9H13v1.8h1.5v-1.8h2.7v1.8h1.5v-1.8h2.7v1.8h1.5v-1.8h2.7v1.8h1.5v-1.8h2.7v1.8h1.5v-1.8H34v1.8h1.5v-1.8h2.7v4.4H10.6v-4.4h-.4zm.7.6v3.2h26.3v-3.2h-1.5v1.8H33v-1.8h-1.5v1.8h-2.7v-1.8h-1.5v1.8h-2.7v-1.8H23v1.8h-2.7v-1.8h-1.2v1.8h-2.7v-1.8h-1.5v1.8h-2.7v-1.8h-1.3z"/><path fill="#FFF" d="M10.5 23.2V27h26.9v-3.8h-2.1V25h-2.1v-1.8h-2.1V25h-2v-1.8h-2V25H25v-1.8h-2.1V25h-2.1v-1.8h-2.1V25h-2.1v-1.8h-2.1V25h-2.1v-1.8h-1.9z"/><path fill-rule="evenodd" d="M10.4 23.1h2.2v1.8h1.9v-1.8h2.2v1.8h1.9v-1.8h2.2v1.8h1.9v-1.8H25v1.8h1.9v-1.8h2.2v1.8H31v-1.8h2.2v1.8h1.9v-1.8h2.2v4H10.1v-4h.3zm.2.1v3.7h26.8v-3.7h-1.9V25h-2.2v-1.8h-1.9V25h-2.3v-1.8h-1.9V25H25v-1.8h-1.9V25h-2.2v-1.8H19V25h-2.2v-1.8h-1.9V25h-2.2v-1.8h-2.1z"/><path fill-rule="evenodd" d="M6.9 0h34.3v30.9C41.1 40.4 33.4 48 24 48c-9.5 0-17.1-7.7-17.1-17.1V0zm.6.6v30.2c0 9.1 7.4 16.5 16.5 16.5s16.5-7.4 16.5-16.5V.6h-33z"/></svg>