<svg baseProfile="tiny" xmlns="http://www.w3.org/2000/svg" width="48" height="48"><path fill="#F0000B" d="M43.4.4H4.5v16.5h38.9V.4z"/><path fill="#FFF" d="M43.4 28c0 10.8-8.7 19.6-19.5 19.6-10.7 0-19.5-8.8-19.5-19.6V16.9h38.9V28h.1z"/><path fill="#FFE600" d="M26.1 8.9c0 .1-.1.1-.1.1h-.7c-.1 0-.1-.1-.1-.1 0-.1 0-.1.1-.1h.7c.1 0 .1.1.1.1zm-.4-.3c.2 0 .3-.1.3-.3s-.1-.3-.3-.3-.3.1-.3.3.2.3.3.3zM28 7.5l.1-3.1s-.8.5-.8.9.1.4.1.7c0 .3-.1.3-.2.3s-.4-.3-.6-.3-.5.2-.5.5.2.7.2.7.3-.4.5-.4.5.2.3.7h.9zm0 .3c0 .1-.1.1-.1.1h-.8c-.1 0-.1-.1-.1-.1s0-.1.1-.1h.8c.1 0 .1.1.1.1zm-4.3-.3h-.4c.2-.4 0-.7-.4-.7s-.6.4-.6.4-.4-.5-.4-.9.3-.6.6-.6.5.2.6.3c.1-.3.3-.3.3-.3s-.5-.4-.5-.7c0-.3.3-.4.4-.6.3-.1.4-.4.4-.4s.1.3.4.6c.2.2.4.3.4.6s-.5.7-.5.7.2.1.3.3c.1-.1.4-.3.6-.3.3 0 .6.2.6.6s-.4.9-.4.9-.1-.4-.6-.4c-.4 0-.6.3-.4.7h-.4v-.2zm-.6.5c-.1 0-.1-.1-.1-.1 0-.1.1-.1.1-.1h1.2c.1 0 .1.1.1.1 0 .1-.1.1-.1.1h-1.2z"/><path fill="#FFE600" d="M19.8 10.9c0-.6-.3-2.7-.3-2.7h.8s.3.2.3.6c0 .4-.3.5-.3 1s.4.7.7.7.7-.1.7-.6c0-.4-.1-.6-.1-.6h.5s-.1.1-.1.6.4.6.7.6c.3 0 .7-.2.7-.7s-.3-.6-.3-1 .3-.6.3-.6h1s.3.2.3.6c0 .4-.3.5-.3 1s.4.7.7.7c.3 0 .7-.1.7-.6 0-.4-.1-.6-.1-.6h.5s-.1.1-.1.6.4.6.7.6.7-.2.7-.7-.3-.6-.3-1 .3-.6.3-.6h.8s-.3 2.2-.3 2.7h-8.2z"/><path fill="#FFE600" d="M21.2 8.9c0 .1.1.1.1.1h.7c.1 0 .1-.1.1-.1 0-.1 0-.1-.1-.1h-.7l-.1.1zm.4-.3c.2 0 .3-.1.3-.3s-.1-.3-.3-.3-.3.1-.3.3.2.3.3.3zm-2.2-1.1l-.1-3.1s.8.5.8.9-.1.4-.1.7c0 .3.1.3.2.3s.4-.3.6-.3.5.2.5.5-.2.7-.2.7-.3-.4-.5-.4-.5.2-.3.7h-.9zm-.1.3c0 .1.1.1.1.1h.8c.1 0 .1-.1.1-.1s0-.1-.1-.1h-.8l-.1.1zm.5 3.7c-.1 0-.2-.1-.2-.2s.1-.2.2-.2h7.8c.1 0 .2.1.2.2s-.1.2-.2.2h-7.8zm.1 1.3c-.1 0-.1-.1-.1-.1l.1-.1h7.6c.1 0 .1.1.1.1l-.1.1h-7.6zm0 1.3c-.1 0-.1-.1-.1-.1l.1-.1h7.6c.1 0 .1.1.1.1l-.1.1h-7.6zm7.6-2.4h-7.7v.6h7.7v-.6zm-.1 1.2h-7.5v.6h7.5v-.6zm-13-4c0 .1-.1.1-.1.1h-.7c-.1 0-.1-.1-.1-.1 0-.1 0-.1.1-.1h.7l.1.1zm-.4-.3c.2 0 .3-.1.3-.3S14.2 8 14 8s-.3.1-.3.3.1.3.3.3zm2.2-1.1l.1-3.1s-.8.5-.8.9.1.4.1.7c0 .3-.1.3-.2.3S15 6 14.8 6s-.5.2-.5.5.2.7.2.7.3-.4.5-.4.5.2.3.7h.9zm.1.3c0 .1-.1.1-.1.1h-.8c-.1 0-.1-.1-.1-.1s0-.1.1-.1h.8l.1.1zm-4.4-.3h-.4c.2-.4 0-.7-.4-.7s-.6.4-.6.4-.4-.5-.4-.9.3-.6.6-.6.5.2.6.3c.1-.3.3-.3.3-.3s-.5-.4-.5-.7c0-.3.3-.4.4-.6.2-.2.4-.6.4-.6s.1.3.4.6c.2.2.4.3.4.6s-.5.7-.5.7.2.1.3.3c.1-.1.4-.3.6-.3.3 0 .6.2.6.6s-.4.9-.4.9-.1-.4-.6-.4c-.4 0-.6.3-.4.7h-.4zm-.6.5c-.1 0-.1-.1-.1-.1 0-.1.1-.1.1-.1h1.2c.1 0 .1.1.1.1 0 .1-.1.1-.1.1h-1.2z"/><path fill="#FFE600" d="M8 10.9c0-.6-.3-2.7-.3-2.7h.8s.3.2.3.6c0 .4-.3.5-.3 1s.4.7.7.7c.3 0 .7-.1.7-.6 0-.4-.1-.6-.1-.6h.5s-.1.1-.1.6.4.6.7.6.7-.2.7-.7-.3-.6-.3-1 .3-.6.3-.6h1s.3.2.3.6c0 .4-.3.5-.3 1s.4.7.7.7.7-.1.7-.6c0-.4-.1-.6-.1-.6h.5s-.1.1-.1.6.4.6.7.6c.3 0 .7-.2.7-.7s-.3-.6-.3-1 .3-.6.3-.6h.8s-.3 2.2-.3 2.7H8z"/><path fill="#FFE600" d="M9.5 8.9c0 .1.1.1.1.1h.7c.1 0 .1-.1.1-.1 0-.1 0-.1-.1-.1h-.7c-.1 0-.1.1-.1.1zm.4-.3c.2 0 .3-.1.3-.3s-.1-.3-.3-.3-.3.1-.3.3.1.3.3.3zM7.6 7.5l-.1-3.1s.8.5.8.9-.1.4-.1.7c0 .3.1.3.2.3S8.8 6 9 6s.5.2.5.5-.2.7-.2.7-.3-.4-.5-.4-.5.2-.3.7h-.9zm0 .3c0 .1.1.1.1.1h.8c.1 0 .1-.1.1-.1l-.1-.1h-.8c-.1 0-.1.1-.1.1zm.4 3.7c-.1 0-.2-.1-.2-.2s.1-.2.2-.2h7.8c.1 0 .2.1.2.2s-.1.2-.2.2H8zm.1 1.3c-.1 0-.1-.1-.1-.1l.1-.1h7.6c.1 0 .1.1.1.1l-.1.1H8.1zm.1 1.3c-.1 0-.1-.1-.1-.1l.1-.1h7.6c.1 0 .1.1.1.1l-.1.1H8.2zm7.6-2.4H8.1v.6h7.7v-.6zm-.1 1.2H8.2v.6h7.5v-.6zm22.2-4c0 .1-.1.1-.1.1h-.7c-.1 0-.1-.1-.1-.1 0-.1 0-.1.1-.1h.7c.1 0 .1.1.1.1zm-.4-.3c.2 0 .3-.1.3-.3s-.1-.3-.3-.3-.3.1-.3.3.1.3.3.3zm2.2-1.1l.1-3.1s-.8.5-.8.9.1.4.1.7c0 .3-.1.3-.2.3s-.4-.3-.6-.3-.5.2-.5.5.2.7.2.7.3-.4.5-.4.5.2.3.7h.9zm.1.3c0 .1-.1.1-.1.1h-.8c-.1 0-.1-.1-.1-.1s0-.1.1-.1h.8c.1 0 .1.1.1.1zm-4.4-.3H35c.2-.4 0-.7-.4-.7s-.6.4-.6.4-.4-.5-.4-.9.3-.6.6-.6.5.2.6.3c.1-.3.3-.3.3-.3s-.5-.4-.5-.7c0-.3.3-.4.4-.6.2-.2.4-.6.4-.6s.1.3.4.6c.2.2.4.3.4.6s-.5.7-.5.7.2.1.3.3c.1-.1.4-.3.6-.3.3 0 .6.2.6.6s-.4.9-.4.9-.1-.4-.6-.4c-.4 0-.6.3-.4.7h-.4zm-.5.5c-.1 0-.1-.1-.1-.1 0-.1.1-.1.1-.1h1.2c.1 0 .1.1.1.1 0 .1-.1.1-.1.1h-1.2z"/><path fill="#FFE600" d="M31.5 10.9c0-.6-.3-2.7-.3-2.7h.8s.3.2.3.6c0 .4-.3.5-.3 1s.4.7.7.7c.3 0 .7-.1.7-.6 0-.4-.1-.6-.1-.6h.5s-.1.1-.1.6.4.6.7.6c.3 0 .7-.2.7-.7s-.3-.6-.3-1 .3-.6.3-.6h1s.3.2.3.6c0 .4-.3.5-.3 1s.4.7.7.7.7-.1.7-.6c0-.4-.1-.6-.1-.6h.5s-.1.1-.1.6.4.6.7.6.7-.2.7-.7-.3-.6-.3-1 .3-.6.3-.6h.8s-.3 2.2-.3 2.7h-8.2z"/><path fill="#FFE600" d="M33 8.9c0 .1.1.1.1.1h.7c.1 0 .1-.1.1-.1 0-.1-.1-.1-.1-.1h-.7c-.1 0-.1.1-.1.1zm.4-.3c.2 0 .3-.1.3-.3s-.1-.3-.3-.3-.3.1-.3.3.1.3.3.3zm-2.3-1.1L31 4.4s.8.5.8.9-.1.4-.1.7.1.3.2.3.4-.3.6-.3.5.2.5.5-.2.7-.2.7-.3-.4-.5-.4-.5.2-.3.7h-.9zm0 .3c0 .1.1.1.1.1h.8c.1 0 .1-.1.1-.1l-.1-.1h-.8c-.1 0-.1.1-.1.1zm.5 3.7c-.1 0-.2-.1-.2-.2s.1-.2.2-.2h7.8c.1 0 .2.1.2.2s-.1.2-.2.2h-7.8zm0 1.3c-.1 0-.1-.1-.1-.1l.1-.1h7.6c.1 0 .1.1.1.1l-.1.1h-7.6zm.1 1.3c-.1 0-.1-.1-.1-.1l.1-.1h7.6c.1 0 .1.1.1.1l-.1.1h-7.6zm7.6-2.4h-7.7v.6h7.7v-.6zm-.1 1.2h-7.5v.6h7.5v-.6z"/><path d="M43.4 0H4.1v28C4.1 39 13 48 24 48s19.9-9 19.9-20V0h-.5zm-.4.8V28c0 10.6-8.5 19.2-19.1 19.2-10.5 0-19.1-8.6-19.1-19.2V.8H43z"/><path d="M31.4 36.4s-.4.6-.4 1.1.3 1 .6 1.3c.3.4.7 1.1.7 1.8s-.4 1.8-1.5 1.8-1.5-1.1-1.5-1.6c0-.7.7-1.3.9-1.5.2-.1-.1-.5-.1-.5s-.2-.3-.2-.6c.1-.1.3-1.1 1.5-1.8zm-13.9 0s-.4.6-.4 1.1.3 1 .6 1.3c.3.4.7 1.1.7 1.8s-.4 1.8-1.5 1.8-1.5-1.1-1.5-1.6c0-.7.7-1.3.9-1.5.2-.1-.1-.5-.1-.5s-.2-.3-.2-.6c.1-.1.2-1.1 1.5-1.8zM14 28.3s-.4.6-.4 1.1c0 .4.3 1 .6 1.3.3.4.7 1.1.7 1.8 0 .8-.4 1.8-1.5 1.8s-1.5-1.1-1.5-1.6c0-.7.7-1.3.9-1.5.2-.1-.1-.5-.1-.5s-.2-.3-.2-.6c.1-.1.3-1.1 1.5-1.8zm7 0s-.4.6-.4 1.1c0 .4.3 1 .6 1.3.3.4.7 1.1.7 1.8 0 .8-.4 1.8-1.5 1.8s-1.5-1.1-1.5-1.6c0-.7.7-1.3.9-1.5.2-.1-.1-.5-.1-.5s-.2-.3-.2-.6c.1-.1.3-1.1 1.5-1.8zm7 0s-.4.6-.4 1.1c0 .4.3 1 .6 1.3.3.4.7 1.1.7 1.8 0 .8-.4 1.8-1.5 1.8s-1.5-1.1-1.5-1.6c0-.7.7-1.3.9-1.5.2-.1-.1-.5-.1-.5s-.2-.3-.2-.6c.1-.1.3-1.1 1.5-1.8zm7 0s-.4.6-.4 1.1c0 .4.3 1 .6 1.3.3.4.7 1.1.7 1.8 0 .8-.4 1.8-1.5 1.8s-1.5-1.1-1.5-1.6c0-.7.7-1.3.9-1.5.2-.1-.1-.5-.1-.5s-.2-.3-.2-.6c.1-.1.2-1.1 1.5-1.8zm3.5-8.1s-.4.6-.4 1.1.3 1 .6 1.3c.3.4.7 1.1.7 1.8 0 .8-.4 1.8-1.5 1.8s-1.5-1.1-1.5-1.6c0-.7.7-1.3.9-1.5.2-.1-.1-.5-.1-.5s-.2-.3-.2-.6c0-.1.2-1.1 1.5-1.8zm-28 .1s-.4.6-.4 1.1.3 1 .6 1.3c.3.4.7 1.1.7 1.8 0 .8-.4 1.8-1.5 1.8s-1.5-1.1-1.5-1.6c0-.7.7-1.3.9-1.5.2-.1-.1-.5-.1-.5s-.2-.3-.2-.6c.1-.2.2-1.2 1.5-1.8zm7 0s-.4.6-.4 1.1.3 1 .6 1.3c.3.4.7 1.1.7 1.8 0 .8-.4 1.8-1.5 1.8s-1.5-1.1-1.5-1.6c0-.7.7-1.3.9-1.5.2-.1-.1-.5-.1-.5s-.2-.3-.2-.6c0-.2.2-1.2 1.5-1.8zm7 0s-.4.6-.4 1.1.3 1 .6 1.3c.3.4.7 1.1.7 1.8 0 .8-.4 1.8-1.5 1.8s-1.5-1.1-1.5-1.6c0-.7.7-1.3.9-1.5.2-.1-.1-.5-.1-.5s-.2-.3-.2-.6c0-.2.2-1.2 1.5-1.8zm7 0s-.4.6-.4 1.1.3 1 .6 1.3c.3.4.7 1.1.7 1.8 0 .8-.4 1.8-1.5 1.8s-1.5-1.1-1.5-1.6c0-.7.7-1.3.9-1.5.2-.1-.1-.5-.1-.5s-.2-.3-.2-.6c0-.2.2-1.2 1.5-1.8zm-27-4h38.9v1H4.5z"/></svg>